<svg width="541" height="427" viewBox="0 0 541 427" fill="none" xmlns="http://www.w3.org/2000/svg">
<path d="M464.599 219.523C448.588 219.523 435.602 232.505 435.602 248.525V275.025H493.59V248.525C493.59 232.511 480.61 219.523 464.592 219.523H464.599ZM484.097 268.524H445.606V248.774C445.606 238.144 454.226 229.523 464.854 229.523C475.483 229.523 484.103 238.144 484.103 248.774V268.524H484.097Z" fill="white" stroke="#002346" stroke-miterlimit="10"/>
<path d="M495.53 261.77H433.176C430.792 261.77 428.859 263.702 428.859 266.086V315.948C428.859 318.332 430.792 320.265 433.176 320.265H495.53C497.914 320.265 499.846 318.332 499.846 315.948V266.086C499.846 263.702 497.914 261.77 495.53 261.77Z" fill="#F69074" stroke="#002346" stroke-miterlimit="10"/>
<path d="M470.699 293.266C472.477 291.662 473.6 289.354 473.6 286.772C473.6 281.937 469.682 278.02 464.849 278.02C460.015 278.02 456.098 281.937 456.098 286.772C456.098 288.93 456.884 290.908 458.181 292.43L456.933 301.157C456.753 302.405 457.719 303.515 458.979 303.515H470.107C471.398 303.515 472.377 302.342 472.14 301.07L470.693 293.259L470.699 293.266Z" fill="white" stroke="#002346" stroke-miterlimit="10"/>
<path d="M291.93 198.75C270.586 190.697 255.398 170.08 255.398 145.907C255.398 117.248 276.749 93.5744 304.411 89.9375" stroke="#002346" stroke-linecap="round" stroke-linejoin="round"/>
<path d="M316.214 76.668L295.594 332.153L426.758 334.817L448.445 77.2918L316.214 76.668Z" fill="#E6E7E8" stroke="#002346" stroke-miterlimit="10"/>
<path d="M320.578 81.6602L299.371 326.197L422.246 329.94L443.453 82.284L320.578 81.6602Z" fill="white" stroke="#002346" stroke-miterlimit="10"/>
<path d="M448.445 77.293L459.984 78.8525L438.777 334.618L426.758 334.818L448.445 77.293Z" fill="#E6E7E8" stroke="#002346" stroke-miterlimit="10"/>
<path d="M317.809 267.345L413.077 266.584C418.666 266.534 423.294 262.217 423.724 256.646L432.151 147.409C432.438 143.685 429.656 140.435 425.932 140.142C425.776 140.129 425.62 140.123 425.464 140.123L327.632 139.356C324.102 139.325 321.146 142.019 320.846 145.538L311.016 260.015C310.704 263.739 313.467 267.008 317.185 267.32C317.391 267.339 317.603 267.345 317.809 267.345Z" fill="#E6E7E8" stroke="#002346" stroke-miterlimit="10"/>
<path d="M413.596 249.336H322.632C320.613 249.336 318.977 250.973 318.977 252.992C318.977 255.01 320.613 256.647 322.632 256.647H413.596C415.615 256.647 417.251 255.01 417.251 252.992C417.251 250.973 415.615 249.336 413.596 249.336Z" fill="white" stroke="#002346" stroke-miterlimit="10"/>
<path d="M424.56 183.552L419.483 235.448C419.202 238.342 416.776 240.551 413.869 240.551H324.957C321.9 240.551 319.418 238.074 319.418 235.011C319.418 234.83 319.424 234.649 319.443 234.475L324.358 183.552L373.109 151.881C375.847 150.103 379.402 150.209 382.028 152.149L424.56 183.552Z" fill="#FBE493" stroke="#002346" stroke-miterlimit="10"/>
<path d="M368.287 168.842H338.922C335.965 168.842 333.564 166.44 333.57 163.477C333.57 163.278 333.583 163.078 333.602 162.878L336.683 135.992C337.02 133.06 339.496 130.852 342.446 130.852H414.468C417.674 130.852 420.269 133.447 420.269 136.653C420.269 136.828 420.262 137.009 420.244 137.183L417.674 164.008C417.412 166.752 415.104 168.855 412.347 168.855H377.755C377.219 168.855 376.714 169.135 376.439 169.597L372.697 175.779C372.522 176.078 372.142 176.178 371.842 176.004C371.705 175.923 371.605 175.798 371.562 175.642L369.74 169.921C369.541 169.285 368.954 168.848 368.287 168.842Z" fill="#F69074" stroke="#002346" stroke-miterlimit="10"/>
<path d="M419.06 115.948C425.557 115.948 430.824 110.681 430.824 104.183C430.824 97.6854 425.557 92.418 419.06 92.418C412.564 92.418 407.297 97.6854 407.297 104.183C407.297 110.681 412.564 115.948 419.06 115.948Z" fill="#FBE493" stroke="#002346" stroke-miterlimit="10"/>
<path d="M419.092 105.657C421.769 105.657 423.939 103.582 423.939 101.022C423.939 98.4619 421.769 96.3867 419.092 96.3867C416.416 96.3867 414.246 98.4619 414.246 101.022C414.246 103.582 416.416 105.657 419.092 105.657Z" fill="#F69074" stroke="#002346" stroke-miterlimit="10"/>
<path d="M412.41 113.892C412.41 113.892 412.834 109.176 416.059 107.323C417.731 106.35 419.814 106.462 421.373 107.61C422.714 108.627 424.099 110.66 424.267 114.734C424.267 114.728 418.061 117.847 412.41 113.892Z" fill="#F69074" stroke="#002346" stroke-miterlimit="10"/>
<path d="M431.991 57.4057L451.876 61.2797L436.126 62.0532L440.511 70.6806L456.953 62.2279L429.496 50.9492L431.991 57.4057Z" fill="#F69074" stroke="#002346" stroke-miterlimit="10"/>
<path d="M431.991 57.4062L429.496 63.7754H437L436.126 62.0537L451.876 61.2802L431.991 57.4062Z" fill="#F69074" stroke="#002346" stroke-miterlimit="10"/>
<path d="M314.668 279.697C314.668 279.697 332.494 274.37 339.181 283.041C339.181 283.041 354.044 304.837 358.996 322.18C358.996 322.18 370.486 361.131 321.211 361.755L314.668 279.697Z" fill="#E6E7E8" stroke="#002346" stroke-miterlimit="10"/>
<path d="M287.902 287.825C287.902 287.825 322.295 272.143 329.961 283.546L334.595 292.997C329.842 291.999 325.008 291.394 320.156 291.182L284.516 289.254L287.902 287.825Z" fill="white" stroke="#002346" stroke-miterlimit="10"/>
<path d="M298.625 361.76H321.079C321.079 361.76 349.902 357.387 346.159 330.563C346.184 330.538 342.741 356.657 298.625 361.76Z" fill="white" stroke="#002346" stroke-miterlimit="10"/>
<path d="M334.593 292.996C334.593 292.996 340.113 295.048 342.296 305.791L345.846 321.442C345.846 321.442 354.79 354.505 298.623 361.735H184.48C184.48 361.735 218.68 354.748 206.673 320.076L196.868 298.242L274.603 289.34L284.539 289.234C284.539 289.234 325.861 290.675 334.593 292.996Z" fill="white" stroke="#002346" stroke-miterlimit="10"/>
<path d="M300.757 329.39C298.474 331.611 295.063 332.185 292.181 330.831L280.131 321.748C278.303 320.02 277.58 317.419 278.259 314.992L275.203 310.918L280.636 305.828L282.638 307.793C284.809 311.025 287.466 313.894 290.516 316.315L290.572 316.358C294.271 319.365 298.25 322.01 302.454 324.249C305.423 326.077 300.757 329.39 300.757 329.39Z" fill="#F1B2C0" stroke="#002346" stroke-miterlimit="10"/>
<path d="M306.657 325.889C312.27 329.132 309.046 331.559 309.046 331.559L304.798 335.246C299.709 338.901 291.569 333.518 290.558 332.819C290.533 332.801 290.502 332.832 290.515 332.863L292.648 336.88C292.648 336.88 292.648 336.918 292.635 336.924L290.814 337.835C290.814 337.835 290.783 337.835 290.777 337.829L279.762 324.516C273.986 318.609 277.198 315.67 278.009 315.078C278.071 315.034 278.146 315.09 278.127 315.165C277.03 320.025 280.672 322.451 280.672 322.451L291.55 330.187C295.636 332.432 298.349 331.528 300.625 329.313C300.625 329.313 305.466 326.188 302.497 324.323L306.657 325.889Z" fill="#F69074" stroke="#002346" stroke-miterlimit="10"/>
<path d="M105.391 229.504L252.784 228.287C252.784 228.287 260.362 227.246 261.254 232.174L276.043 292.534L189.968 298.498L128.968 286.284L105.391 229.504Z" fill="white" stroke="#002346" stroke-miterlimit="10"/>
<path d="M163.145 219.487L180.21 215.258L184.457 219.487L190.071 267.128C190.071 267.128 193.302 275.494 193.321 275.831C193.339 276.168 182.38 278.02 182.362 277.702C182.343 277.384 175.008 266.367 175.008 266.367L166.531 235.22L163.145 219.487Z" fill="white" stroke="#002346" stroke-linecap="round" stroke-linejoin="round"/>
<path d="M160.535 192.848V211.855C160.535 211.855 169.947 229.497 176.191 230.689C176.74 230.782 177.301 230.657 177.756 230.333C179.322 229.248 182.634 225.636 180.214 215.255L174.32 211.756L174.426 206.877C174.426 206.877 164.034 208.206 160.535 192.848Z" fill="#F1B2C0" stroke="#002346" stroke-miterlimit="10"/>
<path d="M160.53 211.855L152.122 215.611C148.847 217.071 146.059 219.422 144.069 222.404C143.202 223.696 142.18 225.286 141.001 227.22C141.001 227.22 120.168 260.638 132.007 266.633C132.007 266.633 138.481 272.254 158.415 265.061L160.53 275.048C160.53 275.048 174.333 270.969 182.36 269.952C182.36 269.952 181.911 252.117 177.115 242.822C177.115 242.822 167.915 223.627 166.511 221.531L160.53 211.855Z" fill="#F69074" stroke="#002346" stroke-miterlimit="10"/>
<path d="M184.457 217.652L189.229 230.721L186.84 233.51L189.229 236.804L186.915 245.5" stroke="#ED1C24" stroke-miterlimit="10"/>
<path d="M194.586 266.311L187.656 267.16C187.656 267.16 183.914 220.716 180.215 215.289C180.215 215.289 183.808 215.445 187.463 216.424C190.918 217.348 193.868 219.587 195.733 222.638C197.598 225.688 200.623 231.352 203.942 240.117L201.253 258.208L200.318 264.533H199.956C199.014 264.533 196.432 263.984 195.328 258.769C194.76 256.031 195.827 251.34 193.956 251.34L194.579 266.311H194.586Z" fill="#F69074" stroke="#002346" stroke-miterlimit="10"/>
<path d="M161.838 255.393C162.337 255.537 163.641 256.079 165.169 256.179C166.248 256.248 167.321 255.954 168.25 255.399L175.199 251.282C176.109 250.739 177.157 250.465 178.217 250.49L190.991 250.796C192.052 250.82 192.426 252.268 191.478 252.754C190.873 253.066 189.831 253.253 188.085 253.141C188.004 253.141 187.948 253.235 188.01 253.291C188.621 253.827 190.499 255.53 191.197 256.784C191.528 257.377 190.917 258.057 190.299 257.782C189.494 257.42 188.185 256.547 186.469 254.464C187.28 255.399 188.808 258.044 189.232 259.205C189.37 259.76 189.033 260.327 188.478 260.471C188.291 260.521 188.097 260.515 187.91 260.452C187.068 260.14 185.864 259.055 184.436 255.917C184.436 255.917 185.983 260.352 184.162 260.508C184.162 260.508 183.413 260.677 182.739 258.512C182.346 257.252 180.793 256.734 179.758 257.551C179.477 257.77 179.178 258.044 178.866 258.387C178.866 258.387 170.988 265.424 167.489 262.891C166.934 262.492 166.217 262.399 165.549 262.548L161.975 263.365L161.832 255.399L161.838 255.393Z" fill="#F1B2C0" stroke="#002346" stroke-miterlimit="10"/>
<path d="M160.531 275.048C160.531 275.048 161.068 301.248 178.364 301.872C180.908 301.928 183.435 301.416 185.761 300.381L232.129 280.319C232.478 280.2 232.915 280.519 233.177 280.943C233.707 281.766 234.88 282.814 237.649 281.91C237.986 281.81 238.348 281.91 238.591 282.159L269.447 314.485L291.988 302.427C291.988 302.427 258.307 268.741 247.566 261.791C247.566 261.791 242.938 257.462 237.331 258.959L182.374 269.926C174.952 270.949 167.636 272.658 160.531 275.048Z" fill="#FBE493" stroke="#002346" stroke-miterlimit="10"/>
<path d="M84.5859 352.191H94.5781" stroke="#ED1C24" stroke-miterlimit="10"/>
<path d="M201.277 266.989L205.213 239.803L241.134 233.496L236.923 261.562L201.277 266.989Z" fill="white" stroke="#002346" stroke-linecap="round" stroke-linejoin="round"/>
<path d="M181.105 270.029L201.277 266.991L205.213 239.805L203.341 240.241L199.686 265.281L181.105 268.132V270.029Z" fill="#E6E7E8" stroke="#002346" stroke-linecap="round" stroke-linejoin="round"/>
<path d="M223.683 250.483C224.215 249.235 223.823 247.871 222.806 247.437C221.789 247.003 220.532 247.663 220 248.911C219.467 250.16 219.86 251.524 220.877 251.958C221.894 252.392 223.15 251.732 223.683 250.483Z" fill="#F69074" stroke="#002346" stroke-miterlimit="10"/>
<path d="M41.1562 124.913V171.587C41.1562 173.134 42.4162 174.388 43.963 174.394H121.393C122.946 174.394 124.2 173.14 124.2 171.587V124.913C124.2 123.359 122.946 122.105 121.393 122.105H43.963C42.4162 122.105 41.1625 123.366 41.1562 124.913Z" fill="#FBE493" stroke="#002346" stroke-miterlimit="10"/>
<path d="M291.77 160.079L294.889 158.114L292.394 154.265L289.513 156.293L286.949 152.157L290.024 150.279L288.153 147.16L284.841 148.994L272.628 130.174C275.903 126.699 277.518 121.977 277.05 117.223C276.346 109.737 269.329 102.875 261.813 102.32C252.694 101.64 244.748 108.483 244.068 117.604C243.993 118.577 244.005 119.556 244.105 120.523C244.903 128.595 252.538 135.426 260.646 135.389C262.237 135.389 263.815 135.152 265.337 134.69L287.984 169C288.128 169.218 288.352 169.374 288.608 169.437L294.683 170.84C294.758 170.859 294.833 170.822 294.852 170.747C294.852 170.734 294.852 170.716 294.852 170.703V164.889C294.852 164.677 294.789 164.477 294.671 164.303L291.764 160.079H291.77ZM258.912 118.602C258.445 118.82 257.946 118.97 257.434 119.057C254.122 119.625 250.972 117.398 250.405 114.085C250.405 114.085 250.405 114.073 250.405 114.067C250.218 112.994 250.324 111.896 250.717 110.879C251.908 107.735 255.42 106.15 258.563 107.342C261.707 108.533 263.291 112.045 262.1 115.189C261.526 116.699 260.384 117.916 258.919 118.577V118.595L258.912 118.602Z" fill="#F69074" stroke="#002346" stroke-miterlimit="10"/>
<path d="M173.847 166.188H173.535C166.043 166.188 159.969 172.262 159.969 179.756V193.48C159.969 200.973 166.043 207.048 173.535 207.048H173.847C181.339 207.048 187.413 200.973 187.413 193.48V179.756C187.413 172.262 181.339 166.188 173.847 166.188Z" fill="#F1B2C0" stroke="#002346" stroke-miterlimit="10"/>
<path d="M154.981 169.029C159.662 168.541 163.053 164.287 162.558 159.527C162.062 154.768 157.865 151.305 153.185 151.792C148.505 152.28 145.113 156.534 145.609 161.294C146.105 166.054 150.301 169.517 154.981 169.029Z" fill="#002346" stroke="#002346" stroke-miterlimit="10"/>
<path d="M160.305 171.805C163.906 171.429 166.515 168.155 166.134 164.492C165.752 160.829 162.523 158.164 158.922 158.539C155.321 158.914 152.712 162.188 153.094 165.851C153.475 169.515 156.704 172.18 160.305 171.805Z" fill="#F69074" stroke="#002346" stroke-miterlimit="10"/>
<path d="M180.977 174.183C179.306 175.849 175.619 178.5 168.347 179.841C168.347 179.841 169.195 184.507 163.862 189.248C162.315 190.627 161.274 192.517 161.03 194.601C160.644 197.901 160.912 202.061 167.773 205.804C167.773 205.804 162.197 208.318 156.857 207.108C156.857 207.108 153.97 210.733 148.599 211.02C146.391 211.138 144.239 209.99 143.167 208.019C141.745 205.393 140.753 200.521 143.092 191.756C143.092 191.756 147.726 161.232 164.91 159.442C164.91 159.442 172.7 157.365 179.836 160.328C187.027 163.316 189.397 176.092 187.327 181.7L185.917 179.248C184.776 177.258 184.557 176.872 183.834 174.875C183.759 174.676 183.653 174.489 183.522 174.326C182.855 173.534 181.707 173.466 180.977 174.189V174.183Z" fill="#002346" stroke="#002346" stroke-miterlimit="10"/>
<path d="M160.088 192.849C161.775 192.849 163.144 190.986 163.144 188.688C163.144 186.39 161.775 184.527 160.088 184.527C158.4 184.527 157.031 186.39 157.031 188.688C157.031 190.986 158.4 192.849 160.088 192.849Z" fill="#F1B2C0" stroke="#002346" stroke-miterlimit="10"/>
<path d="M143.129 254.77L160.593 255.393" stroke="#002346" stroke-linecap="round" stroke-linejoin="round"/>
<path d="M158.41 265.062L161.99 263.359" stroke="#002346" stroke-linecap="round" stroke-linejoin="round"/>
<path d="M146.871 254.769L152.56 242.255C153.208 240.827 153.701 239.33 154.007 237.782C154.68 234.339 155.017 228.706 151.861 223.578" stroke="#002346" stroke-linecap="round" stroke-linejoin="round"/>
<path d="M170.574 258.511C170.574 258.511 173.381 258.199 175.863 255.292C175.863 255.292 178.371 251.337 181.109 256.864" stroke="#002346" stroke-linecap="round" stroke-linejoin="round"/>
<path d="M185.055 256.915C185.055 256.915 183.358 253.21 180.863 252.586" stroke="#002346" stroke-linecap="round" stroke-linejoin="round"/>
<path d="M188.089 256.591C188.089 256.591 187.103 254.457 183.984 252.586" stroke="#002346" stroke-linecap="round" stroke-linejoin="round"/>
<path d="M193.963 251.337C193.963 251.337 194.225 245.835 193.309 242.517C193.184 242.061 192.997 241.624 192.791 241.2C191.974 239.528 189.385 233.652 189.909 227.32" stroke="#002346" stroke-linecap="round" stroke-linejoin="round"/>
<path d="M267.525 368.92C264.524 369.981 261.181 369.07 259.135 366.637L251.994 353.343C251.058 351.004 251.495 348.34 253.123 346.425L252.05 341.447L259.117 339.102L260.115 341.722C260.738 345.564 261.948 349.289 263.701 352.757L263.732 352.819C265.828 357.099 268.335 361.166 271.217 364.959C273.151 367.86 267.525 368.914 267.525 368.914V368.92Z" fill="#F1B2C0" stroke="#002346" stroke-miterlimit="10"/>
<path d="M274.35 368.217C278.092 373.513 274.144 374.368 274.144 374.368L268.743 375.94C262.593 377.131 257.447 368.828 256.823 367.774C256.805 367.743 256.767 367.762 256.767 367.793L257.023 372.334C257.023 372.334 257.01 372.365 256.992 372.365L254.958 372.428C254.958 372.428 254.933 372.422 254.927 372.403L250.492 355.703C247.717 347.924 251.865 346.602 252.85 346.396C252.925 346.383 252.969 346.464 252.925 346.527C249.894 350.476 252.183 354.206 252.183 354.206L258.825 365.784C261.601 369.533 264.439 369.851 267.433 368.791C267.433 368.791 273.134 367.98 271.219 365.042L274.344 368.211L274.35 368.217Z" fill="#F69074" stroke="#002346" stroke-miterlimit="10"/>
<path d="M265.829 341.891C264.582 343.138 241.504 348.709 241.504 348.709L224.501 302.796C224.439 302.553 224.302 302.334 224.114 302.172C223.154 301.386 222.443 300.332 222.075 299.147C221.913 298.623 221.432 298.261 220.883 298.261L189.379 298.747L232.136 280.245C232.585 280.07 233.09 280.257 233.327 280.675C233.327 280.675 233.913 282.796 237.656 281.817C237.656 281.817 238.092 281.536 238.597 282.066C238.597 282.066 243.712 288.479 251.914 308.08L265.829 341.891Z" fill="#FBE493" stroke="#002346" stroke-miterlimit="10"/>
<path d="M160.28 281.28C160.28 281.28 179.615 273.171 186.433 281.561C194.734 293.214 201.402 305.946 206.261 319.402C206.261 319.402 219.546 349.439 190.3 360.013C187.031 361.192 183.57 361.759 180.096 361.734L167.708 361.634C167.708 361.634 195.907 354.772 193.15 330.069C193.15 330.069 188.335 304.543 178.218 285.691C178.218 285.703 169.498 281.549 160.273 281.28H160.28Z" fill="#E6E7E8" stroke="#002346" stroke-miterlimit="10"/>
<path d="M93.1657 229.635L105.029 229.117L121.614 291.181C121.614 291.181 133.041 288.243 140.594 285.535C140.594 285.535 172.13 275.043 177.581 284.562C177.581 284.562 187.798 301.805 193.174 330.101C193.174 330.101 196.917 357.499 167.733 361.666C166.373 361.86 79.4062 361.666 79.4062 361.666L83.2547 239.666C83.4231 234.245 87.7455 229.872 93.1657 229.635Z" fill="white" stroke="#002346" stroke-miterlimit="10"/>
<path d="M105.036 229.116L112.458 230.015C114.566 230.27 116.332 231.743 116.955 233.776L117.985 237.12L134.233 287.649L121.627 291.18L105.023 229.098" fill="#E6E7E8"/>
<path d="M105.036 229.116L112.458 230.015C114.566 230.27 116.332 231.743 116.955 233.776L117.985 237.12L134.233 287.649L121.627 291.18L105.023 229.098" stroke="#002346" stroke-miterlimit="10"/>
<path d="M117.605 151.109H103.172V163.842H117.605V151.109Z" fill="white" stroke="#002346" stroke-linecap="round" stroke-linejoin="round"/>
<path d="M98.6167 151.109H84.1836V163.842H98.6167V151.109Z" fill="white" stroke="#002346" stroke-linecap="round" stroke-linejoin="round"/>
<path d="M80.7104 151.109H66.2773V163.842H80.7104V151.109Z" fill="white" stroke="#002346" stroke-linecap="round" stroke-linejoin="round"/>
<path d="M62.1792 151.109H47.7461V163.842H62.1792V151.109Z" fill="white" stroke="#002346" stroke-linecap="round" stroke-linejoin="round"/>
<path d="M55.6582 166.827C55.6329 166.853 55.6203 166.878 55.6203 166.903C55.6329 166.928 55.6582 166.941 55.6961 166.941H61.0968C61.16 166.941 61.2105 166.966 61.2484 167.017C61.299 167.055 61.3242 167.105 61.3242 167.168V168.609C61.3242 168.672 61.299 168.729 61.2484 168.779C61.2105 168.817 61.16 168.836 61.0968 168.836H52.9483C52.8852 168.836 52.8283 168.817 52.7778 168.779C52.7399 168.729 52.7209 168.672 52.7209 168.609V167.244C52.7209 167.13 52.7588 167.036 52.8346 166.96C53.7948 165.937 54.9065 164.68 56.1698 163.189L57.0605 162.147C58.2228 160.795 58.8039 159.772 58.8039 159.077C58.8039 158.559 58.6207 158.136 58.2543 157.807C57.888 157.479 57.4142 157.314 56.8331 157.314C56.252 157.314 55.7782 157.479 55.4118 157.807C55.0581 158.136 54.8812 158.571 54.8812 159.115V159.607C54.8812 159.67 54.856 159.727 54.8054 159.778C54.7675 159.816 54.717 159.835 54.6538 159.835H52.8915C52.8283 159.835 52.7715 159.816 52.7209 159.778C52.683 159.727 52.6641 159.67 52.6641 159.607V158.792C52.6894 158.11 52.8852 157.516 53.2515 157.011C53.6179 156.506 54.1106 156.114 54.7296 155.836C55.3613 155.558 56.0625 155.419 56.8331 155.419C57.6795 155.419 58.4186 155.577 59.0502 155.893C59.6819 156.209 60.1683 156.645 60.5094 157.201C60.8505 157.744 61.021 158.357 61.021 159.039C61.021 160.075 60.4715 161.269 59.3724 162.62C58.766 163.378 57.768 164.515 56.3783 166.031L55.6582 166.827Z" fill="#002346"/>
<path d="M79.3 163.075C79.578 163.63 79.7169 164.268 79.7169 164.989C79.7169 165.747 79.5527 166.435 79.2242 167.054C78.8958 167.648 78.4157 168.115 77.784 168.456C77.1524 168.797 76.407 168.968 75.5479 168.968C74.7015 168.968 73.9498 168.804 73.2929 168.475C72.6359 168.134 72.1432 167.642 71.8148 166.997C71.4863 166.403 71.3221 165.728 71.3221 164.97C71.3221 164.287 71.4674 163.643 71.7579 163.037C72.0106 162.519 72.3706 162.127 72.8381 161.862C72.9012 161.824 72.9076 161.78 72.857 161.729C72.5412 161.502 72.2569 161.186 72.0043 160.782C71.6758 160.251 71.5116 159.664 71.5116 159.019C71.5116 158.223 71.7453 157.51 72.2127 156.878C72.5538 156.385 73.0149 156.006 73.5961 155.741C74.1772 155.463 74.8278 155.324 75.5479 155.324C76.2933 155.324 76.9439 155.463 77.4998 155.741C78.0683 156.006 78.5231 156.385 78.8642 156.878C79.3063 157.522 79.5274 158.236 79.5274 159.019C79.5274 159.714 79.3569 160.32 79.0158 160.838C78.7757 161.192 78.4978 161.483 78.182 161.71C78.1314 161.761 78.1314 161.805 78.182 161.843C78.662 162.121 79.0347 162.531 79.3 163.075ZM73.9182 158.185C73.7666 158.514 73.6908 158.804 73.6908 159.057C73.6908 159.487 73.7982 159.872 74.013 160.213C74.3162 160.731 74.8215 160.99 75.529 160.99C76.2112 160.99 76.7291 160.725 77.0829 160.194C77.2724 159.916 77.3671 159.531 77.3671 159.038C77.3671 158.76 77.2976 158.47 77.1587 158.167C76.9944 157.876 76.7734 157.649 76.4954 157.484C76.2175 157.307 75.889 157.219 75.51 157.219C75.1563 157.219 74.8405 157.307 74.5625 157.484C74.2846 157.649 74.0698 157.882 73.9182 158.185ZM77.1018 166.296C77.3671 165.93 77.4998 165.431 77.4998 164.799C77.4998 164.218 77.3987 163.763 77.1966 163.435C76.8807 162.853 76.3249 162.563 75.529 162.563C74.7836 162.563 74.2404 162.841 73.8993 163.397C73.6845 163.738 73.5771 164.212 73.5771 164.818C73.5771 165.399 73.6908 165.873 73.9182 166.239C74.2593 166.795 74.8026 167.073 75.5479 167.073C76.2554 167.073 76.7734 166.814 77.1018 166.296Z" fill="#002346"/>
<path d="M92.2312 155.585C92.3323 155.547 92.427 155.528 92.5155 155.528H94.3347C94.3978 155.528 94.4484 155.553 94.4863 155.604C94.5368 155.642 94.5621 155.692 94.5621 155.755V168.566C94.5621 168.629 94.5368 168.686 94.4863 168.736C94.4484 168.774 94.3978 168.793 94.3347 168.793H92.5913C92.5281 168.793 92.4713 168.774 92.4207 168.736C92.3828 168.686 92.3639 168.629 92.3639 168.566V157.802C92.3639 157.777 92.3512 157.758 92.326 157.745C92.3007 157.72 92.2754 157.714 92.2502 157.726L90.3552 158.314C90.3299 158.326 90.2983 158.333 90.2604 158.333C90.2099 158.333 90.1657 158.314 90.1278 158.276C90.1025 158.238 90.0899 158.187 90.0899 158.124L90.033 156.873C90.033 156.747 90.0836 156.659 90.1846 156.608L92.2312 155.585Z" fill="#002346"/>
<path d="M117.181 163.335C117.244 163.335 117.295 163.361 117.333 163.411C117.383 163.449 117.408 163.5 117.408 163.563V165.079C117.408 165.142 117.383 165.199 117.333 165.249C117.295 165.287 117.244 165.306 117.181 165.306H116.385C116.322 165.306 116.29 165.338 116.29 165.401V168.566C116.29 168.629 116.265 168.686 116.215 168.736C116.177 168.774 116.126 168.793 116.063 168.793H114.32C114.256 168.793 114.199 168.774 114.149 168.736C114.111 168.686 114.092 168.629 114.092 168.566V165.401C114.092 165.338 114.061 165.306 113.997 165.306H108.237C108.173 165.306 108.117 165.287 108.066 165.249C108.028 165.199 108.009 165.142 108.009 165.079V163.866C108.009 163.79 108.028 163.695 108.066 163.582L111.648 155.699C111.698 155.585 111.787 155.528 111.913 155.528H113.77C113.858 155.528 113.915 155.553 113.941 155.604C113.978 155.642 113.978 155.705 113.941 155.793L110.567 163.222C110.555 163.247 110.555 163.272 110.567 163.297C110.58 163.323 110.599 163.335 110.624 163.335H113.997C114.061 163.335 114.092 163.304 114.092 163.241V160.663C114.092 160.6 114.111 160.55 114.149 160.512C114.199 160.461 114.256 160.436 114.32 160.436H116.063C116.126 160.436 116.177 160.461 116.215 160.512C116.265 160.55 116.29 160.6 116.29 160.663V163.241C116.29 163.304 116.322 163.335 116.385 163.335H117.181Z" fill="#002346"/>
<path d="M66.8697 143.191C66.7977 143.191 66.7497 143.159 66.7257 143.095L64.1577 134.923L64.1457 134.875C64.1457 134.819 64.1817 134.791 64.2537 134.791H65.2257C65.2977 134.791 65.3457 134.823 65.3697 134.887L67.3497 141.523C67.3577 141.539 67.3697 141.547 67.3857 141.547C67.4017 141.547 67.4137 141.539 67.4217 141.523L69.4017 134.887C69.4257 134.823 69.4697 134.791 69.5337 134.791H70.4817C70.5697 134.791 70.6017 134.835 70.5777 134.923L67.9857 143.095C67.9617 143.159 67.9137 143.191 67.8417 143.191H66.8697ZM76.1199 139.375C76.1519 139.703 76.1639 140.071 76.1559 140.479C76.1559 140.559 76.1159 140.599 76.0359 140.599H72.2079C72.1759 140.599 72.1599 140.615 72.1599 140.647C72.1599 140.919 72.1839 141.127 72.2319 141.271C72.3199 141.591 72.4959 141.843 72.7599 142.027C73.0319 142.203 73.3719 142.291 73.7799 142.291C74.3719 142.291 74.8279 142.047 75.1479 141.559C75.1879 141.479 75.2399 141.467 75.3039 141.523L75.9879 141.979C76.0439 142.027 76.0559 142.079 76.0239 142.135C75.7999 142.495 75.4799 142.779 75.0639 142.987C74.6559 143.195 74.1919 143.299 73.6719 143.299C73.0879 143.299 72.5959 143.171 72.1959 142.915C71.7959 142.659 71.4959 142.295 71.2959 141.823C71.1039 141.351 71.0079 140.779 71.0079 140.107C71.0079 139.523 71.0519 139.079 71.1399 138.775C71.2839 138.223 71.5719 137.787 72.0039 137.467C72.4359 137.147 72.9599 136.987 73.5759 136.987C74.3839 136.987 74.9879 137.191 75.3879 137.599C75.7879 137.999 76.0319 138.591 76.1199 139.375ZM73.5759 137.983C73.2319 137.983 72.9479 138.071 72.7239 138.247C72.4999 138.415 72.3479 138.643 72.2679 138.931C72.2119 139.107 72.1759 139.331 72.1599 139.603C72.1599 139.635 72.1759 139.651 72.2079 139.651H74.9559C74.9879 139.651 75.0039 139.635 75.0039 139.603C74.9879 139.339 74.9639 139.143 74.9319 139.015C74.8519 138.703 74.6919 138.455 74.4519 138.271C74.2199 138.079 73.9279 137.983 73.5759 137.983ZM80.2855 137.023C80.5415 137.023 80.7735 137.075 80.9815 137.179C81.0375 137.203 81.0575 137.251 81.0415 137.323L80.8495 138.223C80.8415 138.295 80.7935 138.319 80.7055 138.295C80.5695 138.239 80.4095 138.211 80.2255 138.211L80.0575 138.223C79.6815 138.239 79.3695 138.371 79.1215 138.619C78.8815 138.859 78.7615 139.175 78.7615 139.567V143.071C78.7615 143.151 78.7215 143.191 78.6415 143.191H77.7295C77.6495 143.191 77.6095 143.151 77.6095 143.071V137.203C77.6095 137.123 77.6495 137.083 77.7295 137.083H78.6415C78.7215 137.083 78.7615 137.123 78.7615 137.203V137.839C78.7615 137.863 78.7655 137.879 78.7735 137.887C78.7895 137.887 78.8015 137.879 78.8095 137.863C79.1695 137.303 79.6615 137.023 80.2855 137.023ZM82.7587 136.123C82.5347 136.123 82.3507 136.051 82.2067 135.907C82.0627 135.763 81.9907 135.579 81.9907 135.355C81.9907 135.131 82.0627 134.947 82.2067 134.803C82.3507 134.659 82.5347 134.587 82.7587 134.587C82.9827 134.587 83.1667 134.659 83.3107 134.803C83.4547 134.947 83.5267 135.131 83.5267 135.355C83.5267 135.579 83.4547 135.763 83.3107 135.907C83.1667 136.051 82.9827 136.123 82.7587 136.123ZM82.2787 143.179C82.1987 143.179 82.1587 143.139 82.1587 143.059V137.203C82.1587 137.123 82.1987 137.083 82.2787 137.083H83.1907C83.2707 137.083 83.3107 137.123 83.3107 137.203V143.059C83.3107 143.139 83.2707 143.179 83.1907 143.179H82.2787ZM87.8092 135.799C87.4093 135.799 87.1373 135.875 86.9933 136.027C86.8493 136.179 86.7773 136.467 86.7773 136.891V137.035C86.7773 137.067 86.7933 137.083 86.8253 137.083H88.0853C88.1653 137.083 88.2053 137.123 88.2053 137.203V138.019C88.2053 138.099 88.1653 138.139 88.0853 138.139H86.8253C86.7933 138.139 86.7773 138.155 86.7773 138.187V143.071C86.7773 143.151 86.7373 143.191 86.6573 143.191H85.7453C85.6653 143.191 85.6253 143.151 85.6253 143.071V138.187C85.6253 138.155 85.6093 138.139 85.5773 138.139H84.7733C84.6933 138.139 84.6533 138.099 84.6533 138.019V137.203C84.6533 137.123 84.6933 137.083 84.7733 137.083H85.5773C85.6093 137.083 85.6253 137.067 85.6253 137.035V136.819C85.6253 136.291 85.6853 135.883 85.8053 135.595C85.9333 135.307 86.1453 135.103 86.4413 134.983C86.7373 134.855 87.1533 134.791 87.6893 134.791H88.0973C88.1773 134.791 88.2173 134.831 88.2173 134.911V135.679C88.2173 135.759 88.1773 135.799 88.0973 135.799H87.8092ZM90.2213 136.123C89.9973 136.123 89.8133 136.051 89.6693 135.907C89.5253 135.763 89.4533 135.579 89.4533 135.355C89.4533 135.131 89.5253 134.947 89.6693 134.803C89.8133 134.659 89.9973 134.587 90.2213 134.587C90.4453 134.587 90.6293 134.659 90.7733 134.803C90.9173 134.947 90.9893 135.131 90.9893 135.355C90.9893 135.579 90.9173 135.763 90.7733 135.907C90.6293 136.051 90.4453 136.123 90.2213 136.123ZM89.7413 143.179C89.6613 143.179 89.6213 143.139 89.6213 143.059V137.203C89.6213 137.123 89.6613 137.083 89.7413 137.083H90.6533C90.7333 137.083 90.7733 137.123 90.7733 137.203V143.059C90.7733 143.139 90.7333 143.179 90.6533 143.179H89.7413ZM95.0341 143.287C94.4261 143.287 93.9061 143.135 93.4741 142.831C93.0421 142.519 92.7461 142.099 92.5861 141.571C92.4661 141.203 92.4061 140.719 92.4061 140.119C92.4061 139.567 92.4661 139.083 92.5861 138.667C92.7461 138.155 93.0421 137.747 93.4741 137.443C93.9141 137.139 94.4341 136.987 95.0341 136.987C95.6341 136.987 96.1581 137.139 96.6061 137.443C97.0541 137.747 97.3461 138.131 97.4821 138.595C97.5301 138.723 97.5621 138.855 97.5781 138.991C97.5781 139.055 97.5421 139.095 97.4701 139.111L96.5701 139.243H96.5461C96.4901 139.243 96.4501 139.207 96.4261 139.135L96.3901 138.943C96.3261 138.671 96.1701 138.443 95.9221 138.259C95.6741 138.075 95.3741 137.983 95.0221 137.983C94.6781 137.983 94.3861 138.075 94.1461 138.259C93.9061 138.443 93.7501 138.687 93.6781 138.991C93.6061 139.279 93.5701 139.659 93.5701 140.131C93.5701 140.595 93.6061 140.971 93.6781 141.259C93.7581 141.579 93.9141 141.831 94.1461 142.015C94.3861 142.199 94.6781 142.291 95.0221 142.291C95.3741 142.291 95.6741 142.199 95.9221 142.015C96.1781 141.831 96.3381 141.591 96.4021 141.295C96.4101 141.287 96.4101 141.279 96.4021 141.271C96.4021 141.255 96.4061 141.243 96.4141 141.235V141.187C96.4381 141.123 96.4821 141.099 96.5461 141.115L97.4461 141.259C97.5101 141.275 97.5421 141.307 97.5421 141.355V141.403C97.5421 141.475 97.5221 141.563 97.4821 141.667C97.3461 142.155 97.0541 142.547 96.6061 142.843C96.1581 143.139 95.6341 143.287 95.0341 143.287ZM66.8337 150.987C67.3217 150.987 67.7457 151.075 68.1057 151.251C68.4737 151.419 68.7537 151.659 68.9457 151.971C69.1457 152.275 69.2457 152.623 69.2457 153.015V157.071C69.2457 157.151 69.2057 157.191 69.1257 157.191H68.2137C68.1337 157.191 68.0937 157.151 68.0937 157.071V156.639C68.0937 156.599 68.0737 156.591 68.0337 156.615C67.8257 156.831 67.5697 156.999 67.2657 157.119C66.9697 157.231 66.6377 157.287 66.2697 157.287C65.6777 157.287 65.1857 157.139 64.7937 156.843C64.4097 156.539 64.2177 156.083 64.2177 155.475C64.2177 154.851 64.4337 154.363 64.8657 154.011C65.3057 153.651 65.9177 153.471 66.7017 153.471H68.0457C68.0777 153.471 68.0937 153.455 68.0937 153.423V153.099C68.0937 152.747 67.9897 152.475 67.7817 152.283C67.5817 152.083 67.2737 151.983 66.8577 151.983C66.5217 151.983 66.2457 152.051 66.0297 152.187C65.8217 152.315 65.6937 152.491 65.6457 152.715C65.6217 152.795 65.5737 152.831 65.5017 152.823L64.5297 152.691C64.4497 152.675 64.4137 152.643 64.4217 152.595C64.4857 152.123 64.7377 151.739 65.1777 151.443C65.6177 151.139 66.1697 150.987 66.8337 150.987ZM66.5217 156.315C66.9457 156.315 67.3137 156.203 67.6257 155.979C67.9377 155.755 68.0937 155.471 68.0937 155.127V154.419C68.0937 154.387 68.0777 154.371 68.0457 154.371H66.9177C66.4457 154.371 66.0697 154.463 65.7897 154.647C65.5097 154.831 65.3697 155.087 65.3697 155.415C65.3697 155.711 65.4737 155.935 65.6817 156.087C65.8977 156.239 66.1777 156.315 66.5217 156.315ZM73.7309 151.911C73.7309 151.991 73.6909 152.031 73.6109 152.031H72.3149C72.2829 152.031 72.2669 152.047 72.2669 152.079V155.259C72.2669 155.595 72.3429 155.839 72.4949 155.991C72.6469 156.135 72.8829 156.207 73.2029 156.207H73.5509C73.6309 156.207 73.6709 156.247 73.6709 156.327V157.071C73.6709 157.151 73.6309 157.191 73.5509 157.191C73.2949 157.207 73.1109 157.215 72.9989 157.215C72.3909 157.215 71.9309 157.107 71.6189 156.891C71.3149 156.667 71.1629 156.259 71.1629 155.667V152.079C71.1629 152.047 71.1469 152.031 71.1149 152.031H70.3829C70.3029 152.031 70.2629 151.991 70.2629 151.911V151.203C70.2629 151.123 70.3029 151.083 70.3829 151.083H71.1149C71.1469 151.083 71.1629 151.067 71.1629 151.035V149.619C71.1629 149.539 71.2029 149.499 71.2829 149.499H72.1469C72.2269 149.499 72.2669 149.539 72.2669 149.619V151.035C72.2669 151.067 72.2829 151.083 72.3149 151.083H73.6109C73.6909 151.083 73.7309 151.123 73.7309 151.203V151.911ZM75.8446 150.123C75.6206 150.123 75.4366 150.051 75.2926 149.907C75.1486 149.763 75.0766 149.579 75.0766 149.355C75.0766 149.131 75.1486 148.947 75.2926 148.803C75.4366 148.659 75.6206 148.587 75.8446 148.587C76.0686 148.587 76.2526 148.659 76.3966 148.803C76.5406 148.947 76.6126 149.131 76.6126 149.355C76.6126 149.579 76.5406 149.763 76.3966 149.907C76.2526 150.051 76.0686 150.123 75.8446 150.123ZM75.3646 157.179C75.2846 157.179 75.2446 157.139 75.2446 157.059V151.203C75.2446 151.123 75.2846 151.083 75.3646 151.083H76.2766C76.3566 151.083 76.3966 151.123 76.3966 151.203V157.059C76.3966 157.139 76.3566 157.179 76.2766 157.179H75.3646ZM80.7032 157.287C80.1112 157.287 79.5952 157.139 79.1552 156.843C78.7152 156.539 78.4072 156.119 78.2312 155.583C78.0872 155.151 78.0152 154.663 78.0152 154.119C78.0152 153.551 78.0832 153.071 78.2192 152.679C78.3952 152.151 78.7032 151.739 79.1432 151.443C79.5832 151.139 80.1072 150.987 80.7152 150.987C81.2912 150.987 81.7912 151.139 82.2152 151.443C82.6472 151.739 82.9552 152.147 83.1392 152.667C83.2832 153.075 83.3552 153.555 83.3552 154.107C83.3552 154.667 83.2832 155.159 83.1392 155.583C82.9632 156.119 82.6592 156.539 82.2272 156.843C81.7952 157.139 81.2872 157.287 80.7032 157.287ZM80.7032 156.291C81.0232 156.291 81.3032 156.203 81.5432 156.027C81.7832 155.843 81.9552 155.587 82.0592 155.259C82.1472 154.955 82.1912 154.579 82.1912 154.131C82.1912 153.683 82.1512 153.311 82.0712 153.015C81.9672 152.687 81.7952 152.435 81.5552 152.259C81.3152 152.075 81.0232 151.983 80.6792 151.983C80.3512 151.983 80.0672 152.075 79.8272 152.259C79.5872 152.435 79.4152 152.687 79.3112 153.015C79.2232 153.295 79.1792 153.667 79.1792 154.131C79.1792 154.595 79.2232 154.971 79.3112 155.259C79.4072 155.587 79.5752 155.843 79.8152 156.027C80.0632 156.203 80.3592 156.291 80.7032 156.291ZM87.5874 150.999C88.2434 150.999 88.7634 151.191 89.1474 151.575C89.5314 151.951 89.7234 152.463 89.7234 153.111V157.071C89.7234 157.151 89.6834 157.191 89.6034 157.191H88.6914C88.6114 157.191 88.5714 157.151 88.5714 157.071V153.339C88.5714 152.939 88.4554 152.615 88.2234 152.367C87.9914 152.119 87.6834 151.995 87.2994 151.995C86.9234 151.995 86.6154 152.119 86.3754 152.367C86.1354 152.615 86.0154 152.935 86.0154 153.327V157.071C86.0154 157.151 85.9754 157.191 85.8954 157.191H84.9834C84.9034 157.191 84.8634 157.151 84.8634 157.071V151.203C84.8634 151.123 84.9034 151.083 84.9834 151.083H85.8954C85.9754 151.083 86.0154 151.123 86.0154 151.203V151.635C86.0154 151.651 86.0194 151.663 86.0274 151.671C86.0434 151.679 86.0554 151.675 86.0634 151.659C86.4074 151.219 86.9154 150.999 87.5874 150.999Z" fill="#002346"/>
<path d="M52.632 143.917C52.9254 143.917 53.1604 144.007 53.337 144.187C53.517 144.367 53.607 144.604 53.607 144.897C53.607 145.187 53.5154 145.42 53.332 145.597C53.152 145.774 52.9137 145.862 52.617 145.862H51.642C51.6287 145.862 51.622 145.869 51.622 145.882V147.372C51.622 147.405 51.6054 147.422 51.572 147.422H51.317C51.2837 147.422 51.267 147.405 51.267 147.372V143.967C51.267 143.934 51.2837 143.917 51.317 143.917H52.632ZM52.592 145.567C52.7887 145.567 52.9487 145.507 53.072 145.387C53.1954 145.264 53.257 145.102 53.257 144.902C53.257 144.699 53.1954 144.535 53.072 144.412C52.9487 144.289 52.7887 144.227 52.592 144.227H51.642C51.6287 144.227 51.622 144.234 51.622 144.247V145.547C51.622 145.56 51.6287 145.567 51.642 145.567H52.592ZM54.241 147.422C54.2077 147.422 54.191 147.405 54.191 147.372V143.972C54.191 143.939 54.2077 143.922 54.241 143.922H54.496C54.5293 143.922 54.546 143.939 54.546 143.972V147.372C54.546 147.405 54.5293 147.422 54.496 147.422H54.241ZM57.2834 145.732C57.2967 145.825 57.3034 145.942 57.3034 146.082V146.242C57.3034 146.275 57.2867 146.292 57.2534 146.292H55.6384C55.625 146.292 55.6184 146.299 55.6184 146.312C55.625 146.495 55.635 146.614 55.6484 146.667C55.685 146.817 55.7634 146.935 55.8834 147.022C56.0034 147.109 56.1567 147.152 56.3434 147.152C56.4834 147.152 56.6067 147.12 56.7134 147.057C56.82 146.994 56.9034 146.904 56.9634 146.787C56.9834 146.757 57.0067 146.75 57.0334 146.767L57.2284 146.882C57.255 146.899 57.2617 146.922 57.2484 146.952C57.165 147.112 57.04 147.239 56.8734 147.332C56.7067 147.422 56.515 147.467 56.2984 147.467C56.0617 147.464 55.8634 147.407 55.7034 147.297C55.5434 147.187 55.4284 147.034 55.3584 146.837C55.2984 146.677 55.2684 146.447 55.2684 146.147C55.2684 146.007 55.27 145.894 55.2734 145.807C55.28 145.717 55.2934 145.637 55.3134 145.567C55.37 145.35 55.4834 145.177 55.6534 145.047C55.8267 144.917 56.035 144.852 56.2784 144.852C56.5817 144.852 56.815 144.929 56.9784 145.082C57.1417 145.235 57.2434 145.452 57.2834 145.732ZM56.2784 145.162C56.115 145.162 55.9784 145.205 55.8684 145.292C55.7617 145.375 55.6917 145.489 55.6584 145.632C55.6384 145.702 55.625 145.815 55.6184 145.972C55.6184 145.985 55.625 145.992 55.6384 145.992H56.9334C56.9467 145.992 56.9534 145.985 56.9534 145.972C56.9467 145.822 56.9367 145.715 56.9234 145.652C56.8867 145.502 56.8117 145.384 56.6984 145.297C56.5884 145.207 56.4484 145.162 56.2784 145.162ZM58.86 144.852C59.16 144.852 59.3916 144.929 59.555 145.082C59.7183 145.235 59.8 145.439 59.8 145.692V147.372C59.8 147.405 59.7833 147.422 59.75 147.422H59.495C59.4616 147.422 59.445 147.405 59.445 147.372V147.167C59.445 147.16 59.4416 147.155 59.435 147.152C59.4316 147.149 59.4266 147.15 59.42 147.157C59.3366 147.257 59.2283 147.334 59.095 147.387C58.9616 147.437 58.8133 147.462 58.65 147.462C58.4133 147.462 58.215 147.402 58.055 147.282C57.895 147.162 57.815 146.979 57.815 146.732C57.815 146.482 57.905 146.285 58.085 146.142C58.2683 145.995 58.5216 145.922 58.845 145.922H59.425C59.4383 145.922 59.445 145.915 59.445 145.902V145.712C59.445 145.542 59.3966 145.409 59.3 145.312C59.2066 145.212 59.06 145.162 58.86 145.162C58.7 145.162 58.57 145.194 58.47 145.257C58.37 145.317 58.3083 145.402 58.285 145.512C58.275 145.545 58.255 145.56 58.225 145.557L57.955 145.522C57.9183 145.515 57.9033 145.502 57.91 145.482C57.9366 145.295 58.0366 145.144 58.21 145.027C58.3833 144.91 58.6 144.852 58.86 144.852ZM58.72 147.157C58.9166 147.157 59.0866 147.109 59.23 147.012C59.3733 146.912 59.445 146.779 59.445 146.612V146.222C59.445 146.209 59.4383 146.202 59.425 146.202H58.9C58.68 146.202 58.5033 146.247 58.37 146.337C58.2366 146.427 58.17 146.552 58.17 146.712C58.17 146.859 58.22 146.97 58.32 147.047C58.4233 147.12 58.5566 147.157 58.72 147.157ZM61.3687 147.447C61.182 147.447 61.0153 147.417 60.8687 147.357C60.7253 147.297 60.6137 147.217 60.5337 147.117C60.457 147.017 60.4187 146.905 60.4187 146.782V146.722C60.4187 146.689 60.4353 146.672 60.4687 146.672H60.7087C60.742 146.672 60.7587 146.689 60.7587 146.722V146.762C60.7587 146.872 60.8153 146.969 60.9287 147.052C61.0453 147.132 61.1903 147.172 61.3637 147.172C61.537 147.172 61.677 147.134 61.7837 147.057C61.8903 146.977 61.9437 146.877 61.9437 146.757C61.9437 146.674 61.9153 146.605 61.8587 146.552C61.8053 146.499 61.7403 146.457 61.6637 146.427C61.5903 146.397 61.4753 146.359 61.3187 146.312C61.132 146.259 60.9787 146.205 60.8587 146.152C60.7387 146.099 60.637 146.025 60.5537 145.932C60.4737 145.835 60.4337 145.714 60.4337 145.567C60.4337 145.354 60.517 145.184 60.6837 145.057C60.8503 144.93 61.0703 144.867 61.3437 144.867C61.527 144.867 61.6887 144.897 61.8287 144.957C61.972 145.017 62.082 145.1 62.1587 145.207C62.2353 145.31 62.2737 145.427 62.2737 145.557V145.572C62.2737 145.605 62.257 145.622 62.2237 145.622H61.9887C61.9553 145.622 61.9387 145.605 61.9387 145.572V145.557C61.9387 145.444 61.8837 145.349 61.7737 145.272C61.667 145.195 61.522 145.157 61.3387 145.157C61.1687 145.157 61.032 145.192 60.9287 145.262C60.8253 145.329 60.7737 145.422 60.7737 145.542C60.7737 145.655 60.8237 145.742 60.9237 145.802C61.0237 145.862 61.1787 145.922 61.3887 145.982C61.582 146.039 61.7387 146.092 61.8587 146.142C61.9787 146.192 62.082 146.265 62.1687 146.362C62.2553 146.455 62.2987 146.579 62.2987 146.732C62.2987 146.949 62.2137 147.122 62.0437 147.252C61.8737 147.382 61.6487 147.447 61.3687 147.447ZM64.8859 145.732C64.8992 145.825 64.9059 145.942 64.9059 146.082V146.242C64.9059 146.275 64.8892 146.292 64.8559 146.292H63.2409C63.2276 146.292 63.2209 146.299 63.2209 146.312C63.2276 146.495 63.2376 146.614 63.2509 146.667C63.2876 146.817 63.3659 146.935 63.4859 147.022C63.6059 147.109 63.7592 147.152 63.9459 147.152C64.0859 147.152 64.2092 147.12 64.3159 147.057C64.4226 146.994 64.5059 146.904 64.5659 146.787C64.5859 146.757 64.6092 146.75 64.6359 146.767L64.8309 146.882C64.8576 146.899 64.8642 146.922 64.8509 146.952C64.7676 147.112 64.6426 147.239 64.4759 147.332C64.3092 147.422 64.1176 147.467 63.9009 147.467C63.6642 147.464 63.4659 147.407 63.3059 147.297C63.1459 147.187 63.0309 147.034 62.9609 146.837C62.9009 146.677 62.8709 146.447 62.8709 146.147C62.8709 146.007 62.8726 145.894 62.8759 145.807C62.8826 145.717 62.8959 145.637 62.9159 145.567C62.9726 145.35 63.0859 145.177 63.2559 145.047C63.4292 144.917 63.6376 144.852 63.8809 144.852C64.1842 144.852 64.4176 144.929 64.5809 145.082C64.7442 145.235 64.8459 145.452 64.8859 145.732ZM63.8809 145.162C63.7176 145.162 63.5809 145.205 63.4709 145.292C63.3642 145.375 63.2942 145.489 63.2609 145.632C63.2409 145.702 63.2276 145.815 63.2209 145.972C63.2209 145.985 63.2276 145.992 63.2409 145.992H64.5359C64.5492 145.992 64.5559 145.985 64.5559 145.972C64.5492 145.822 64.5392 145.715 64.5259 145.652C64.4892 145.502 64.4142 145.384 64.3009 145.297C64.1909 145.207 64.0509 145.162 63.8809 145.162ZM68.5529 145.732C68.5662 145.825 68.5729 145.942 68.5729 146.082V146.242C68.5729 146.275 68.5562 146.292 68.5229 146.292H66.9079C66.8946 146.292 66.8879 146.299 66.8879 146.312C66.8946 146.495 66.9046 146.614 66.9179 146.667C66.9546 146.817 67.0329 146.935 67.1529 147.022C67.2729 147.109 67.4262 147.152 67.6129 147.152C67.7529 147.152 67.8762 147.12 67.9829 147.057C68.0896 146.994 68.1729 146.904 68.2329 146.787C68.2529 146.757 68.2762 146.75 68.3029 146.767L68.4979 146.882C68.5246 146.899 68.5312 146.922 68.5179 146.952C68.4346 147.112 68.3096 147.239 68.1429 147.332C67.9762 147.422 67.7846 147.467 67.5679 147.467C67.3312 147.464 67.1329 147.407 66.9729 147.297C66.8129 147.187 66.6979 147.034 66.6279 146.837C66.5679 146.677 66.5379 146.447 66.5379 146.147C66.5379 146.007 66.5396 145.894 66.5429 145.807C66.5496 145.717 66.5629 145.637 66.5829 145.567C66.6396 145.35 66.7529 145.177 66.9229 145.047C67.0962 144.917 67.3046 144.852 67.5479 144.852C67.8512 144.852 68.0846 144.929 68.2479 145.082C68.4112 145.235 68.5129 145.452 68.5529 145.732ZM67.5479 145.162C67.3846 145.162 67.2479 145.205 67.1379 145.292C67.0312 145.375 66.9612 145.489 66.9279 145.632C66.9079 145.702 66.8946 145.815 66.8879 145.972C66.8879 145.985 66.8946 145.992 66.9079 145.992H68.2029C68.2162 145.992 68.2229 145.985 68.2229 145.972C68.2162 145.822 68.2062 145.715 68.1929 145.652C68.1562 145.502 68.0812 145.384 67.9679 145.297C67.8579 145.207 67.7179 145.162 67.5479 145.162ZM70.3289 144.857C70.5956 144.857 70.8072 144.935 70.9639 145.092C71.1239 145.249 71.2039 145.459 71.2039 145.722V147.372C71.2039 147.405 71.1872 147.422 71.1539 147.422H70.8989C70.8656 147.422 70.8489 147.405 70.8489 147.372V145.792C70.8489 145.609 70.7922 145.459 70.6789 145.342C70.5689 145.225 70.4256 145.167 70.2489 145.167C70.0656 145.167 69.9172 145.224 69.8039 145.337C69.6906 145.45 69.6339 145.599 69.6339 145.782V147.372C69.6339 147.405 69.6172 147.422 69.5839 147.422H69.3289C69.2956 147.422 69.2789 147.405 69.2789 147.372V144.942C69.2789 144.909 69.2956 144.892 69.3289 144.892H69.5839C69.6172 144.892 69.6339 144.909 69.6339 144.942V145.157C69.6339 145.164 69.6356 145.169 69.6389 145.172C69.6456 145.175 69.6506 145.174 69.6539 145.167C69.8006 144.96 70.0256 144.857 70.3289 144.857ZM73.1092 145.137C73.1092 145.17 73.0926 145.187 73.0592 145.187H72.4942C72.4809 145.187 72.4742 145.194 72.4742 145.207V146.682C72.4742 146.842 72.5092 146.955 72.5792 147.022C72.6526 147.085 72.7659 147.117 72.9192 147.117H73.0442C73.0776 147.117 73.0942 147.134 73.0942 147.167V147.372C73.0942 147.405 73.0776 147.422 73.0442 147.422C73.0042 147.425 72.9426 147.427 72.8592 147.427C72.6192 147.427 72.4376 147.382 72.3142 147.292C72.1909 147.202 72.1292 147.035 72.1292 146.792V145.207C72.1292 145.194 72.1226 145.187 72.1092 145.187H71.8042C71.7709 145.187 71.7542 145.17 71.7542 145.137V144.942C71.7542 144.909 71.7709 144.892 71.8042 144.892H72.1092C72.1226 144.892 72.1292 144.885 72.1292 144.872V144.292C72.1292 144.259 72.1459 144.242 72.1792 144.242H72.4242C72.4576 144.242 72.4742 144.259 72.4742 144.292V144.872C72.4742 144.885 72.4809 144.892 72.4942 144.892H73.0592C73.0926 144.892 73.1092 144.909 73.1092 144.942V145.137ZM75.6623 145.732C75.6756 145.825 75.6823 145.942 75.6823 146.082V146.242C75.6823 146.275 75.6656 146.292 75.6323 146.292H74.0173C74.0039 146.292 73.9973 146.299 73.9973 146.312C74.0039 146.495 74.0139 146.614 74.0273 146.667C74.0639 146.817 74.1423 146.935 74.2623 147.022C74.3823 147.109 74.5356 147.152 74.7223 147.152C74.8623 147.152 74.9856 147.12 75.0923 147.057C75.1989 146.994 75.2823 146.904 75.3423 146.787C75.3623 146.757 75.3856 146.75 75.4123 146.767L75.6073 146.882C75.6339 146.899 75.6406 146.922 75.6273 146.952C75.5439 147.112 75.4189 147.239 75.2523 147.332C75.0856 147.422 74.8939 147.467 74.6773 147.467C74.4406 147.464 74.2423 147.407 74.0823 147.297C73.9223 147.187 73.8073 147.034 73.7373 146.837C73.6773 146.677 73.6473 146.447 73.6473 146.147C73.6473 146.007 73.6489 145.894 73.6523 145.807C73.6589 145.717 73.6723 145.637 73.6923 145.567C73.7489 145.35 73.8623 145.177 74.0323 145.047C74.2056 144.917 74.4139 144.852 74.6573 144.852C74.9606 144.852 75.1939 144.929 75.3573 145.082C75.5206 145.235 75.6223 145.452 75.6623 145.732ZM74.6573 145.162C74.4939 145.162 74.3573 145.205 74.2473 145.292C74.1406 145.375 74.0706 145.489 74.0373 145.632C74.0173 145.702 74.0039 145.815 73.9973 145.972C73.9973 145.985 74.0039 145.992 74.0173 145.992H75.3123C75.3256 145.992 75.3323 145.985 75.3323 145.972C75.3256 145.822 75.3156 145.715 75.3023 145.652C75.2656 145.502 75.1906 145.384 75.0773 145.297C74.9673 145.207 74.8273 145.162 74.6573 145.162ZM77.4083 144.867C77.5183 144.867 77.6133 144.889 77.6933 144.932C77.7199 144.945 77.7299 144.967 77.7233 144.997L77.6683 145.242C77.6583 145.275 77.6366 145.285 77.6033 145.272C77.5466 145.249 77.4816 145.237 77.4083 145.237L77.3433 145.242C77.1699 145.249 77.0266 145.314 76.9133 145.437C76.7999 145.557 76.7433 145.71 76.7433 145.897V147.372C76.7433 147.405 76.7266 147.422 76.6933 147.422H76.4383C76.4049 147.422 76.3883 147.405 76.3883 147.372V144.942C76.3883 144.909 76.4049 144.892 76.4383 144.892H76.6933C76.7266 144.892 76.7433 144.909 76.7433 144.942V145.247C76.7433 145.257 76.7449 145.264 76.7483 145.267C76.7549 145.267 76.7599 145.264 76.7633 145.257C76.8333 145.134 76.9216 145.039 77.0283 144.972C77.1383 144.902 77.2649 144.867 77.4083 144.867ZM80.3455 145.137C80.3455 145.17 80.3289 145.187 80.2955 145.187H79.7305C79.7172 145.187 79.7105 145.194 79.7105 145.207V146.682C79.7105 146.842 79.7455 146.955 79.8155 147.022C79.8889 147.085 80.0022 147.117 80.1555 147.117H80.2805C80.3139 147.117 80.3305 147.134 80.3305 147.167V147.372C80.3305 147.405 80.3139 147.422 80.2805 147.422C80.2405 147.425 80.1789 147.427 80.0955 147.427C79.8555 147.427 79.6739 147.382 79.5505 147.292C79.4272 147.202 79.3655 147.035 79.3655 146.792V145.207C79.3655 145.194 79.3589 145.187 79.3455 145.187H79.0405C79.0072 145.187 78.9905 145.17 78.9905 145.137V144.942C78.9905 144.909 79.0072 144.892 79.0405 144.892H79.3455C79.3589 144.892 79.3655 144.885 79.3655 144.872V144.292C79.3655 144.259 79.3822 144.242 79.4155 144.242H79.6605C79.6939 144.242 79.7105 144.259 79.7105 144.292V144.872C79.7105 144.885 79.7172 144.892 79.7305 144.892H80.2955C80.3289 144.892 80.3455 144.909 80.3455 144.942V145.137ZM82.0818 144.857C82.3485 144.857 82.5602 144.935 82.7168 145.092C82.8768 145.249 82.9568 145.459 82.9568 145.722V147.372C82.9568 147.405 82.9402 147.422 82.9068 147.422H82.6518C82.6185 147.422 82.6018 147.405 82.6018 147.372V145.792C82.6018 145.609 82.5452 145.459 82.4318 145.342C82.3218 145.225 82.1785 145.167 82.0018 145.167C81.8185 145.167 81.6702 145.224 81.5568 145.337C81.4435 145.45 81.3868 145.599 81.3868 145.782V147.372C81.3868 147.405 81.3702 147.422 81.3368 147.422H81.0818C81.0485 147.422 81.0318 147.405 81.0318 147.372V143.972C81.0318 143.939 81.0485 143.922 81.0818 143.922H81.3368C81.3702 143.922 81.3868 143.939 81.3868 143.972V145.157C81.3868 145.164 81.3885 145.169 81.3918 145.172C81.3985 145.175 81.4035 145.174 81.4068 145.167C81.5535 144.96 81.7785 144.857 82.0818 144.857ZM85.633 145.732C85.6463 145.825 85.653 145.942 85.653 146.082V146.242C85.653 146.275 85.6363 146.292 85.603 146.292H83.988C83.9746 146.292 83.968 146.299 83.968 146.312C83.9746 146.495 83.9846 146.614 83.998 146.667C84.0346 146.817 84.113 146.935 84.233 147.022C84.353 147.109 84.5063 147.152 84.693 147.152C84.833 147.152 84.9563 147.12 85.063 147.057C85.1696 146.994 85.253 146.904 85.313 146.787C85.333 146.757 85.3563 146.75 85.383 146.767L85.578 146.882C85.6046 146.899 85.6113 146.922 85.598 146.952C85.5146 147.112 85.3896 147.239 85.223 147.332C85.0563 147.422 84.8646 147.467 84.648 147.467C84.4113 147.464 84.213 147.407 84.053 147.297C83.893 147.187 83.778 147.034 83.708 146.837C83.648 146.677 83.618 146.447 83.618 146.147C83.618 146.007 83.6196 145.894 83.623 145.807C83.6296 145.717 83.643 145.637 83.663 145.567C83.7196 145.35 83.833 145.177 84.003 145.047C84.1763 144.917 84.3846 144.852 84.628 144.852C84.9313 144.852 85.1646 144.929 85.328 145.082C85.4913 145.235 85.593 145.452 85.633 145.732ZM84.628 145.162C84.4646 145.162 84.328 145.205 84.218 145.292C84.1113 145.375 84.0413 145.489 84.008 145.632C83.988 145.702 83.9746 145.815 83.968 145.972C83.968 145.985 83.9746 145.992 83.988 145.992H85.283C85.2963 145.992 85.303 145.985 85.303 145.972C85.2963 145.822 85.2863 145.715 85.273 145.652C85.2363 145.502 85.1613 145.384 85.048 145.297C84.938 145.207 84.798 145.162 84.628 145.162ZM88.51 147.462C88.2733 147.462 88.065 147.414 87.885 147.317C87.705 147.22 87.565 147.085 87.465 146.912C87.3683 146.735 87.32 146.532 87.32 146.302V145.042C87.32 144.812 87.3683 144.61 87.465 144.437C87.565 144.26 87.705 144.124 87.885 144.027C88.065 143.93 88.2733 143.882 88.51 143.882C88.7466 143.882 88.955 143.93 89.135 144.027C89.3183 144.124 89.4583 144.26 89.555 144.437C89.655 144.61 89.705 144.812 89.705 145.042V146.302C89.705 146.532 89.655 146.735 89.555 146.912C89.4583 147.085 89.3183 147.22 89.135 147.317C88.955 147.414 88.7466 147.462 88.51 147.462ZM88.51 147.157C88.7633 147.157 88.9666 147.08 89.12 146.927C89.2733 146.774 89.35 146.57 89.35 146.317V145.037C89.35 144.784 89.2733 144.58 89.12 144.427C88.9666 144.27 88.7633 144.192 88.51 144.192C88.26 144.192 88.0583 144.27 87.905 144.427C87.7516 144.58 87.675 144.784 87.675 145.037V146.317C87.675 146.57 87.7516 146.774 87.905 146.927C88.0583 147.08 88.26 147.157 88.51 147.157ZM92.6064 143.922C92.6397 143.922 92.6564 143.939 92.6564 143.972V144.187C92.6564 144.22 92.6397 144.237 92.6064 144.237H91.6264C91.613 144.237 91.6064 144.244 91.6064 144.257V147.372C91.6064 147.405 91.5897 147.422 91.5564 147.422H91.3014C91.268 147.422 91.2514 147.405 91.2514 147.372V144.257C91.2514 144.244 91.2447 144.237 91.2314 144.237H90.2914C90.258 144.237 90.2414 144.22 90.2414 144.187V143.972C90.2414 143.939 90.258 143.922 90.2914 143.922H92.6064ZM94.673 143.917C94.9664 143.917 95.2014 144.007 95.378 144.187C95.558 144.367 95.648 144.604 95.648 144.897C95.648 145.187 95.5564 145.42 95.373 145.597C95.193 145.774 94.9547 145.862 94.658 145.862H93.683C93.6697 145.862 93.663 145.869 93.663 145.882V147.372C93.663 147.405 93.6464 147.422 93.613 147.422H93.358C93.3247 147.422 93.308 147.405 93.308 147.372V143.967C93.308 143.934 93.3247 143.917 93.358 143.917H94.673ZM94.633 145.567C94.8297 145.567 94.9897 145.507 95.113 145.387C95.2364 145.264 95.298 145.102 95.298 144.902C95.298 144.699 95.2364 144.535 95.113 144.412C94.9897 144.289 94.8297 144.227 94.633 144.227H93.683C93.6697 144.227 93.663 144.234 93.663 144.247V145.547C93.663 145.56 93.6697 145.567 93.683 145.567H94.633ZM98.188 147.462C97.948 147.462 97.7413 147.4 97.568 147.277C97.398 147.15 97.2813 146.98 97.218 146.767C97.1747 146.62 97.153 146.414 97.153 146.147C97.153 145.907 97.1747 145.704 97.218 145.537C97.278 145.33 97.3947 145.165 97.568 145.042C97.7413 144.915 97.948 144.852 98.188 144.852C98.4313 144.852 98.6413 144.914 98.818 145.037C98.998 145.16 99.1147 145.314 99.168 145.497C99.1847 145.557 99.1947 145.607 99.198 145.647V145.657C99.198 145.68 99.183 145.695 99.153 145.702L98.903 145.737H98.893C98.8697 145.737 98.8547 145.722 98.848 145.692L98.833 145.617C98.803 145.49 98.7297 145.384 98.613 145.297C98.4963 145.207 98.3547 145.162 98.188 145.162C98.0213 145.162 97.8813 145.207 97.768 145.297C97.658 145.384 97.5863 145.5 97.553 145.647C97.523 145.774 97.508 145.942 97.508 146.152C97.508 146.372 97.523 146.542 97.553 146.662C97.5863 146.812 97.658 146.932 97.768 147.022C97.8813 147.109 98.0213 147.152 98.188 147.152C98.3513 147.152 98.4913 147.11 98.608 147.027C98.728 146.94 98.803 146.83 98.833 146.697V146.677L98.838 146.657C98.8413 146.624 98.8613 146.61 98.898 146.617L99.143 146.657C99.1763 146.664 99.1913 146.682 99.188 146.712L99.168 146.812C99.118 147.005 99.003 147.162 98.823 147.282C98.643 147.402 98.4313 147.462 98.188 147.462ZM100.781 147.462C100.541 147.462 100.334 147.4 100.161 147.277C99.9877 147.154 99.8677 146.984 99.801 146.767C99.7543 146.614 99.731 146.409 99.731 146.152C99.731 145.895 99.7543 145.692 99.801 145.542C99.8643 145.329 99.9827 145.16 100.156 145.037C100.329 144.914 100.539 144.852 100.786 144.852C101.023 144.852 101.226 144.914 101.396 145.037C101.569 145.16 101.688 145.327 101.751 145.537C101.798 145.68 101.821 145.885 101.821 146.152C101.821 146.422 101.798 146.627 101.751 146.767C101.688 146.984 101.569 147.154 101.396 147.277C101.226 147.4 101.021 147.462 100.781 147.462ZM100.781 147.152C100.941 147.152 101.078 147.109 101.191 147.022C101.304 146.932 101.381 146.812 101.421 146.662C101.451 146.542 101.466 146.374 101.466 146.157C101.466 145.937 101.453 145.769 101.426 145.652C101.386 145.502 101.308 145.384 101.191 145.297C101.078 145.207 100.939 145.162 100.776 145.162C100.613 145.162 100.474 145.207 100.361 145.297C100.248 145.384 100.171 145.502 100.131 145.652C100.104 145.769 100.091 145.937 100.091 146.157C100.091 146.377 100.104 146.545 100.131 146.662C100.168 146.812 100.243 146.932 100.356 147.022C100.473 147.109 100.614 147.152 100.781 147.152ZM104.111 143.972C104.111 143.939 104.127 143.922 104.161 143.922H104.416C104.449 143.922 104.466 143.939 104.466 143.972V147.372C104.466 147.405 104.449 147.422 104.416 147.422H104.161C104.127 147.422 104.111 147.405 104.111 147.372V147.162C104.111 147.155 104.107 147.152 104.101 147.152C104.097 147.149 104.092 147.15 104.086 147.157C104.012 147.254 103.921 147.329 103.811 147.382C103.704 147.435 103.584 147.462 103.451 147.462C103.217 147.462 103.021 147.402 102.861 147.282C102.704 147.162 102.596 146.999 102.536 146.792C102.489 146.642 102.466 146.43 102.466 146.157C102.466 145.88 102.486 145.674 102.526 145.537C102.586 145.324 102.696 145.157 102.856 145.037C103.016 144.914 103.214 144.852 103.451 144.852C103.581 144.852 103.701 144.879 103.811 144.932C103.921 144.982 104.012 145.055 104.086 145.152C104.092 145.159 104.097 145.162 104.101 145.162C104.107 145.159 104.111 145.154 104.111 145.147V143.972ZM104.021 146.767C104.051 146.7 104.072 146.622 104.086 146.532C104.099 146.442 104.106 146.317 104.106 146.157C104.106 145.997 104.099 145.872 104.086 145.782C104.072 145.689 104.049 145.607 104.016 145.537C103.976 145.424 103.909 145.334 103.816 145.267C103.726 145.197 103.617 145.162 103.491 145.162C103.357 145.162 103.242 145.195 103.146 145.262C103.049 145.329 102.979 145.417 102.936 145.527C102.896 145.6 102.866 145.684 102.846 145.777C102.829 145.867 102.821 145.994 102.821 146.157C102.821 146.314 102.827 146.437 102.841 146.527C102.854 146.614 102.877 146.692 102.911 146.762C102.951 146.882 103.021 146.977 103.121 147.047C103.224 147.117 103.346 147.152 103.486 147.152C103.619 147.152 103.731 147.117 103.821 147.047C103.911 146.977 103.977 146.884 104.021 146.767ZM107.21 145.732C107.223 145.825 107.23 145.942 107.23 146.082V146.242C107.23 146.275 107.213 146.292 107.18 146.292H105.565C105.552 146.292 105.545 146.299 105.545 146.312C105.552 146.495 105.562 146.614 105.575 146.667C105.612 146.817 105.69 146.935 105.81 147.022C105.93 147.109 106.083 147.152 106.27 147.152C106.41 147.152 106.533 147.12 106.64 147.057C106.747 146.994 106.83 146.904 106.89 146.787C106.91 146.757 106.933 146.75 106.96 146.767L107.155 146.882C107.182 146.899 107.188 146.922 107.175 146.952C107.092 147.112 106.967 147.239 106.8 147.332C106.633 147.422 106.442 147.467 106.225 147.467C105.988 147.464 105.79 147.407 105.63 147.297C105.47 147.187 105.355 147.034 105.285 146.837C105.225 146.677 105.195 146.447 105.195 146.147C105.195 146.007 105.197 145.894 105.2 145.807C105.207 145.717 105.22 145.637 105.24 145.567C105.297 145.35 105.41 145.177 105.58 145.047C105.753 144.917 105.962 144.852 106.205 144.852C106.508 144.852 106.742 144.929 106.905 145.082C107.068 145.235 107.17 145.452 107.21 145.732ZM106.205 145.162C106.042 145.162 105.905 145.205 105.795 145.292C105.688 145.375 105.618 145.489 105.585 145.632C105.565 145.702 105.552 145.815 105.545 145.972C105.545 145.985 105.552 145.992 105.565 145.992H106.86C106.873 145.992 106.88 145.985 106.88 145.972C106.873 145.822 106.863 145.715 106.85 145.652C106.813 145.502 106.738 145.384 106.625 145.297C106.515 145.207 106.375 145.162 106.205 145.162ZM52.062 153.447C51.8754 153.447 51.7087 153.417 51.562 153.357C51.4187 153.297 51.307 153.217 51.227 153.117C51.1504 153.017 51.112 152.905 51.112 152.782V152.722C51.112 152.689 51.1287 152.672 51.162 152.672H51.402C51.4354 152.672 51.452 152.689 51.452 152.722V152.762C51.452 152.872 51.5087 152.969 51.622 153.052C51.7387 153.132 51.8837 153.172 52.057 153.172C52.2304 153.172 52.3704 153.134 52.477 153.057C52.5837 152.977 52.637 152.877 52.637 152.757C52.637 152.674 52.6087 152.605 52.552 152.552C52.4987 152.499 52.4337 152.457 52.357 152.427C52.2837 152.397 52.1687 152.359 52.012 152.312C51.8254 152.259 51.672 152.205 51.552 152.152C51.432 152.099 51.3304 152.025 51.247 151.932C51.167 151.835 51.127 151.714 51.127 151.567C51.127 151.354 51.2104 151.184 51.377 151.057C51.5437 150.93 51.7637 150.867 52.037 150.867C52.2204 150.867 52.382 150.897 52.522 150.957C52.6654 151.017 52.7754 151.1 52.852 151.207C52.9287 151.31 52.967 151.427 52.967 151.557V151.572C52.967 151.605 52.9504 151.622 52.917 151.622H52.682C52.6487 151.622 52.632 151.605 52.632 151.572V151.557C52.632 151.444 52.577 151.349 52.467 151.272C52.3604 151.195 52.2154 151.157 52.032 151.157C51.862 151.157 51.7254 151.192 51.622 151.262C51.5187 151.329 51.467 151.422 51.467 151.542C51.467 151.655 51.517 151.742 51.617 151.802C51.717 151.862 51.872 151.922 52.082 151.982C52.2754 152.039 52.432 152.092 52.552 152.142C52.672 152.192 52.7754 152.265 52.862 152.362C52.9487 152.455 52.992 152.579 52.992 152.732C52.992 152.949 52.907 153.122 52.737 153.252C52.567 153.382 52.342 153.447 52.062 153.447ZM55.5793 151.732C55.5926 151.825 55.5993 151.942 55.5993 152.082V152.242C55.5993 152.275 55.5826 152.292 55.5493 152.292H53.9343C53.9209 152.292 53.9143 152.299 53.9143 152.312C53.9209 152.495 53.9309 152.614 53.9443 152.667C53.9809 152.817 54.0593 152.935 54.1793 153.022C54.2993 153.109 54.4526 153.152 54.6393 153.152C54.7793 153.152 54.9026 153.12 55.0093 153.057C55.1159 152.994 55.1993 152.904 55.2593 152.787C55.2793 152.757 55.3026 152.75 55.3293 152.767L55.5243 152.882C55.5509 152.899 55.5576 152.922 55.5443 152.952C55.4609 153.112 55.3359 153.239 55.1693 153.332C55.0026 153.422 54.8109 153.467 54.5943 153.467C54.3576 153.464 54.1593 153.407 53.9993 153.297C53.8393 153.187 53.7243 153.034 53.6543 152.837C53.5943 152.677 53.5643 152.447 53.5643 152.147C53.5643 152.007 53.5659 151.894 53.5693 151.807C53.5759 151.717 53.5893 151.637 53.6093 151.567C53.6659 151.35 53.7793 151.177 53.9493 151.047C54.1226 150.917 54.3309 150.852 54.5743 150.852C54.8776 150.852 55.1109 150.929 55.2743 151.082C55.4376 151.235 55.5393 151.452 55.5793 151.732ZM54.5743 151.162C54.4109 151.162 54.2743 151.205 54.1643 151.292C54.0576 151.375 53.9876 151.489 53.9543 151.632C53.9343 151.702 53.9209 151.815 53.9143 151.972C53.9143 151.985 53.9209 151.992 53.9343 151.992H55.2293C55.2426 151.992 55.2493 151.985 55.2493 151.972C55.2426 151.822 55.2326 151.715 55.2193 151.652C55.1826 151.502 55.1076 151.384 54.9943 151.297C54.8843 151.207 54.7443 151.162 54.5743 151.162ZM57.3553 150.857C57.6219 150.857 57.8336 150.935 57.9903 151.092C58.1503 151.249 58.2303 151.459 58.2303 151.722V153.372C58.2303 153.405 58.2136 153.422 58.1803 153.422H57.9253C57.8919 153.422 57.8753 153.405 57.8753 153.372V151.792C57.8753 151.609 57.8186 151.459 57.7053 151.342C57.5953 151.225 57.4519 151.167 57.2753 151.167C57.0919 151.167 56.9436 151.224 56.8303 151.337C56.7169 151.45 56.6603 151.599 56.6603 151.782V153.372C56.6603 153.405 56.6436 153.422 56.6103 153.422H56.3553C56.3219 153.422 56.3053 153.405 56.3053 153.372V150.942C56.3053 150.909 56.3219 150.892 56.3553 150.892H56.6103C56.6436 150.892 56.6603 150.909 56.6603 150.942V151.157C56.6603 151.164 56.6619 151.169 56.6653 151.172C56.6719 151.175 56.6769 151.174 56.6803 151.167C56.8269 150.96 57.0519 150.857 57.3553 150.857ZM60.5364 149.972C60.5364 149.939 60.5531 149.922 60.5864 149.922H60.8414C60.8747 149.922 60.8914 149.939 60.8914 149.972V153.372C60.8914 153.405 60.8747 153.422 60.8414 153.422H60.5864C60.5531 153.422 60.5364 153.405 60.5364 153.372V153.162C60.5364 153.155 60.5331 153.152 60.5264 153.152C60.5231 153.149 60.5181 153.15 60.5114 153.157C60.4381 153.254 60.3464 153.329 60.2364 153.382C60.1297 153.435 60.0097 153.462 59.8764 153.462C59.6431 153.462 59.4464 153.402 59.2864 153.282C59.1297 153.162 59.0214 152.999 58.9614 152.792C58.9147 152.642 58.8914 152.43 58.8914 152.157C58.8914 151.88 58.9114 151.674 58.9514 151.537C59.0114 151.324 59.1214 151.157 59.2814 151.037C59.4414 150.914 59.6397 150.852 59.8764 150.852C60.0064 150.852 60.1264 150.879 60.2364 150.932C60.3464 150.982 60.4381 151.055 60.5114 151.152C60.5181 151.159 60.5231 151.162 60.5264 151.162C60.5331 151.159 60.5364 151.154 60.5364 151.147V149.972ZM60.4464 152.767C60.4764 152.7 60.4981 152.622 60.5114 152.532C60.5247 152.442 60.5314 152.317 60.5314 152.157C60.5314 151.997 60.5247 151.872 60.5114 151.782C60.4981 151.689 60.4747 151.607 60.4414 151.537C60.4014 151.424 60.3347 151.334 60.2414 151.267C60.1514 151.197 60.0431 151.162 59.9164 151.162C59.7831 151.162 59.6681 151.195 59.5714 151.262C59.4747 151.329 59.4047 151.417 59.3614 151.527C59.3214 151.6 59.2914 151.684 59.2714 151.777C59.2547 151.867 59.2464 151.994 59.2464 152.157C59.2464 152.314 59.2531 152.437 59.2664 152.527C59.2797 152.614 59.3031 152.692 59.3364 152.762C59.3764 152.882 59.4464 152.977 59.5464 153.047C59.6497 153.117 59.7714 153.152 59.9114 153.152C60.0447 153.152 60.1564 153.117 60.2464 153.047C60.3364 152.977 60.4031 152.884 60.4464 152.767ZM63.8319 151.137C63.8319 151.17 63.8152 151.187 63.7819 151.187H63.2169C63.2035 151.187 63.1969 151.194 63.1969 151.207V152.682C63.1969 152.842 63.2319 152.955 63.3019 153.022C63.3752 153.085 63.4885 153.117 63.6419 153.117H63.7669C63.8002 153.117 63.8169 153.134 63.8169 153.167V153.372C63.8169 153.405 63.8002 153.422 63.7669 153.422C63.7269 153.425 63.6652 153.427 63.5819 153.427C63.3419 153.427 63.1602 153.382 63.0369 153.292C62.9135 153.202 62.8519 153.035 62.8519 152.792V151.207C62.8519 151.194 62.8452 151.187 62.8319 151.187H62.5269C62.4935 151.187 62.4769 151.17 62.4769 151.137V150.942C62.4769 150.909 62.4935 150.892 62.5269 150.892H62.8319C62.8452 150.892 62.8519 150.885 62.8519 150.872V150.292C62.8519 150.259 62.8685 150.242 62.9019 150.242H63.1469C63.1802 150.242 63.1969 150.259 63.1969 150.292V150.872C63.1969 150.885 63.2035 150.892 63.2169 150.892H63.7819C63.8152 150.892 63.8319 150.909 63.8319 150.942V151.137ZM65.4099 153.462C65.1699 153.462 64.9633 153.4 64.7899 153.277C64.6166 153.154 64.4966 152.984 64.4299 152.767C64.3833 152.614 64.3599 152.409 64.3599 152.152C64.3599 151.895 64.3833 151.692 64.4299 151.542C64.4933 151.329 64.6116 151.16 64.7849 151.037C64.9583 150.914 65.1683 150.852 65.4149 150.852C65.6516 150.852 65.8549 150.914 66.0249 151.037C66.1983 151.16 66.3166 151.327 66.3799 151.537C66.4266 151.68 66.4499 151.885 66.4499 152.152C66.4499 152.422 66.4266 152.627 66.3799 152.767C66.3166 152.984 66.1983 153.154 66.0249 153.277C65.8549 153.4 65.6499 153.462 65.4099 153.462ZM65.4099 153.152C65.5699 153.152 65.7066 153.109 65.8199 153.022C65.9333 152.932 66.0099 152.812 66.0499 152.662C66.0799 152.542 66.0949 152.374 66.0949 152.157C66.0949 151.937 66.0816 151.769 66.0549 151.652C66.0149 151.502 65.9366 151.384 65.8199 151.297C65.7066 151.207 65.5683 151.162 65.4049 151.162C65.2416 151.162 65.1033 151.207 64.9899 151.297C64.8766 151.384 64.7999 151.502 64.7599 151.652C64.7333 151.769 64.7199 151.937 64.7199 152.157C64.7199 152.377 64.7333 152.545 64.7599 152.662C64.7966 152.812 64.8716 152.932 64.9849 153.022C65.1016 153.109 65.2433 153.152 65.4099 153.152ZM68.0555 154.422C68.0322 154.422 68.0205 154.405 68.0205 154.372V154.172C68.0205 154.139 68.0372 154.122 68.0705 154.122H68.0905C68.2205 154.119 68.3205 154.099 68.3905 154.062C68.4638 154.029 68.5255 153.964 68.5755 153.867C68.6288 153.774 68.6855 153.63 68.7455 153.437C68.7522 153.424 68.7522 153.414 68.7455 153.407L67.9005 150.947L67.8955 150.927C67.8955 150.904 67.9105 150.892 67.9405 150.892H68.2055C68.2355 150.892 68.2555 150.905 68.2655 150.932L68.9155 152.952C68.9188 152.959 68.9238 152.962 68.9305 152.962C68.9372 152.962 68.9422 152.959 68.9455 152.952L69.5855 150.932C69.5955 150.905 69.6155 150.892 69.6455 150.892H69.9055C69.9422 150.892 69.9555 150.91 69.9455 150.947L69.0205 153.642C68.9405 153.865 68.8655 154.03 68.7955 154.137C68.7255 154.244 68.6372 154.317 68.5305 154.357C68.4272 154.4 68.2805 154.422 68.0905 154.422H68.0555ZM71.3572 153.462C71.1172 153.462 70.9105 153.4 70.7372 153.277C70.5639 153.154 70.4439 152.984 70.3772 152.767C70.3305 152.614 70.3072 152.409 70.3072 152.152C70.3072 151.895 70.3305 151.692 70.3772 151.542C70.4405 151.329 70.5589 151.16 70.7322 151.037C70.9055 150.914 71.1155 150.852 71.3622 150.852C71.5989 150.852 71.8022 150.914 71.9722 151.037C72.1455 151.16 72.2639 151.327 72.3272 151.537C72.3739 151.68 72.3972 151.885 72.3972 152.152C72.3972 152.422 72.3739 152.627 72.3272 152.767C72.2639 152.984 72.1455 153.154 71.9722 153.277C71.8022 153.4 71.5972 153.462 71.3572 153.462ZM71.3572 153.152C71.5172 153.152 71.6539 153.109 71.7672 153.022C71.8805 152.932 71.9572 152.812 71.9972 152.662C72.0272 152.542 72.0422 152.374 72.0422 152.157C72.0422 151.937 72.0289 151.769 72.0022 151.652C71.9622 151.502 71.8839 151.384 71.7672 151.297C71.6539 151.207 71.5155 151.162 71.3522 151.162C71.1889 151.162 71.0505 151.207 70.9372 151.297C70.8239 151.384 70.7472 151.502 70.7072 151.652C70.6805 151.769 70.6672 151.937 70.6672 152.157C70.6672 152.377 70.6805 152.545 70.7072 152.662C70.7439 152.812 70.8189 152.932 70.9322 153.022C71.0489 153.109 71.1905 153.152 71.3572 153.152ZM74.6468 150.942C74.6468 150.909 74.6635 150.892 74.6968 150.892H74.9518C74.9851 150.892 75.0018 150.909 75.0018 150.942V153.372C75.0018 153.405 74.9851 153.422 74.9518 153.422H74.6968C74.6635 153.422 74.6468 153.405 74.6468 153.372V153.157C74.6468 153.15 74.6435 153.145 74.6368 153.142C74.6301 153.139 74.6251 153.14 74.6218 153.147C74.4818 153.354 74.2601 153.457 73.9568 153.457C73.7968 153.457 73.6485 153.425 73.5118 153.362C73.3785 153.295 73.2718 153.2 73.1918 153.077C73.1151 152.954 73.0768 152.805 73.0768 152.632V150.942C73.0768 150.909 73.0935 150.892 73.1268 150.892H73.3818C73.4151 150.892 73.4318 150.909 73.4318 150.942V152.527C73.4318 152.717 73.4851 152.869 73.5918 152.982C73.6985 153.092 73.8435 153.147 74.0268 153.147C74.2168 153.147 74.3668 153.09 74.4768 152.977C74.5901 152.864 74.6468 152.714 74.6468 152.527V150.942ZM76.8175 150.867C76.9275 150.867 77.0225 150.889 77.1025 150.932C77.1291 150.945 77.1391 150.967 77.1325 150.997L77.0775 151.242C77.0675 151.275 77.0458 151.285 77.0125 151.272C76.9558 151.249 76.8908 151.237 76.8175 151.237L76.7525 151.242C76.5791 151.249 76.4358 151.314 76.3225 151.437C76.2091 151.557 76.1525 151.71 76.1525 151.897V153.372C76.1525 153.405 76.1358 153.422 76.1025 153.422H75.8475C75.8141 153.422 75.7975 153.405 75.7975 153.372V150.942C75.7975 150.909 75.8141 150.892 75.8475 150.892H76.1025C76.1358 150.892 76.1525 150.909 76.1525 150.942V151.247C76.1525 151.257 76.1541 151.264 76.1575 151.267C76.1641 151.267 76.1691 151.264 76.1725 151.257C76.2425 151.134 76.3308 151.039 76.4375 150.972C76.5475 150.902 76.6741 150.867 76.8175 150.867ZM79.6697 150.857C79.9364 150.857 80.1481 150.935 80.3047 151.092C80.4647 151.249 80.5447 151.459 80.5447 151.722V153.372C80.5447 153.405 80.5281 153.422 80.4947 153.422H80.2397C80.2064 153.422 80.1897 153.405 80.1897 153.372V151.792C80.1897 151.609 80.1331 151.459 80.0197 151.342C79.9097 151.225 79.7664 151.167 79.5897 151.167C79.4064 151.167 79.2581 151.224 79.1447 151.337C79.0314 151.45 78.9747 151.599 78.9747 151.782V153.372C78.9747 153.405 78.9581 153.422 78.9247 153.422H78.6697C78.6364 153.422 78.6197 153.405 78.6197 153.372V150.942C78.6197 150.909 78.6364 150.892 78.6697 150.892H78.9247C78.9581 150.892 78.9747 150.909 78.9747 150.942V151.157C78.9747 151.164 78.9764 151.169 78.9797 151.172C78.9864 151.175 78.9914 151.174 78.9947 151.167C79.1414 150.96 79.3664 150.857 79.6697 150.857ZM82.845 150.942C82.845 150.909 82.8617 150.892 82.895 150.892H83.15C83.1834 150.892 83.2 150.909 83.2 150.942V153.372C83.2 153.405 83.1834 153.422 83.15 153.422H82.895C82.8617 153.422 82.845 153.405 82.845 153.372V153.157C82.845 153.15 82.8417 153.145 82.835 153.142C82.8284 153.139 82.8234 153.14 82.82 153.147C82.68 153.354 82.4584 153.457 82.155 153.457C81.995 153.457 81.8467 153.425 81.71 153.362C81.5767 153.295 81.47 153.2 81.39 153.077C81.3134 152.954 81.275 152.805 81.275 152.632V150.942C81.275 150.909 81.2917 150.892 81.325 150.892H81.58C81.6134 150.892 81.63 150.909 81.63 150.942V152.527C81.63 152.717 81.6834 152.869 81.79 152.982C81.8967 153.092 82.0417 153.147 82.225 153.147C82.415 153.147 82.565 153.09 82.675 152.977C82.7884 152.864 82.845 152.714 82.845 152.527V150.942ZM86.5557 150.857C86.8057 150.857 87.0024 150.932 87.1457 151.082C87.2924 151.232 87.3657 151.437 87.3657 151.697V153.372C87.3657 153.405 87.349 153.422 87.3157 153.422H87.0657C87.0324 153.422 87.0157 153.405 87.0157 153.372V151.767C87.0157 151.584 86.9624 151.439 86.8557 151.332C86.7524 151.222 86.6157 151.167 86.4457 151.167C86.269 151.167 86.1257 151.22 86.0157 151.327C85.909 151.434 85.8557 151.577 85.8557 151.757V153.372C85.8557 153.405 85.839 153.422 85.8057 153.422H85.5507C85.5174 153.422 85.5007 153.405 85.5007 153.372V151.767C85.5007 151.584 85.449 151.439 85.3457 151.332C85.2424 151.222 85.104 151.167 84.9307 151.167C84.754 151.167 84.6124 151.22 84.5057 151.327C84.4024 151.434 84.3507 151.577 84.3507 151.757V153.372C84.3507 153.405 84.334 153.422 84.3007 153.422H84.0457C84.0124 153.422 83.9957 153.405 83.9957 153.372V150.942C83.9957 150.909 84.0124 150.892 84.0457 150.892H84.3007C84.334 150.892 84.3507 150.909 84.3507 150.942V151.142C84.3507 151.149 84.3524 151.154 84.3557 151.157C84.3624 151.157 84.369 151.154 84.3757 151.147C84.449 151.05 84.5424 150.979 84.6557 150.932C84.7724 150.882 84.9007 150.857 85.0407 150.857C85.214 150.857 85.3624 150.892 85.4857 150.962C85.609 151.032 85.7024 151.134 85.7657 151.267C85.7724 151.284 85.7807 151.284 85.7907 151.267C85.864 151.13 85.9674 151.029 86.1007 150.962C86.234 150.892 86.3857 150.857 86.5557 150.857ZM90.0716 151.537C90.1116 151.687 90.1316 151.894 90.1316 152.157C90.1316 152.43 90.1082 152.642 90.0616 152.792C89.9982 152.999 89.8882 153.162 89.7316 153.282C89.5749 153.402 89.3799 153.462 89.1466 153.462C89.0132 153.462 88.8916 153.435 88.7816 153.382C88.6716 153.329 88.5799 153.252 88.5066 153.152C88.5032 153.145 88.4982 153.144 88.4916 153.147C88.4849 153.147 88.4816 153.15 88.4816 153.157V153.372C88.4816 153.405 88.4649 153.422 88.4316 153.422H88.1766C88.1432 153.422 88.1266 153.405 88.1266 153.372V149.972C88.1266 149.939 88.1432 149.922 88.1766 149.922H88.4316C88.4649 149.922 88.4816 149.939 88.4816 149.972V151.152C88.4816 151.159 88.4832 151.164 88.4866 151.167C88.4932 151.167 88.4999 151.164 88.5066 151.157C88.5799 151.06 88.6716 150.985 88.7816 150.932C88.8916 150.879 89.0132 150.852 89.1466 150.852C89.3832 150.852 89.5816 150.914 89.7416 151.037C89.9016 151.157 90.0116 151.324 90.0716 151.537ZM89.6866 152.762C89.7199 152.692 89.7432 152.614 89.7566 152.527C89.7699 152.437 89.7766 152.314 89.7766 152.157C89.7766 151.994 89.7666 151.867 89.7466 151.777C89.7299 151.684 89.7016 151.6 89.6616 151.527C89.6182 151.417 89.5482 151.329 89.4516 151.262C89.3549 151.195 89.2399 151.162 89.1066 151.162C88.9799 151.162 88.8699 151.197 88.7766 151.267C88.6866 151.334 88.6216 151.424 88.5816 151.537C88.5482 151.607 88.5232 151.687 88.5066 151.777C88.4932 151.867 88.4866 151.994 88.4866 152.157C88.4866 152.317 88.4932 152.442 88.5066 152.532C88.5232 152.619 88.5466 152.697 88.5766 152.767C88.6199 152.884 88.6866 152.977 88.7766 153.047C88.8666 153.117 88.9782 153.152 89.1116 153.152C89.2516 153.152 89.3716 153.117 89.4716 153.047C89.5749 152.977 89.6466 152.882 89.6866 152.762ZM92.7619 151.732C92.7752 151.825 92.7819 151.942 92.7819 152.082V152.242C92.7819 152.275 92.7652 152.292 92.7319 152.292H91.1169C91.1035 152.292 91.0969 152.299 91.0969 152.312C91.1035 152.495 91.1135 152.614 91.1269 152.667C91.1635 152.817 91.2419 152.935 91.3619 153.022C91.4819 153.109 91.6352 153.152 91.8219 153.152C91.9619 153.152 92.0852 153.12 92.1919 153.057C92.2985 152.994 92.3819 152.904 92.4419 152.787C92.4619 152.757 92.4852 152.75 92.5119 152.767L92.7069 152.882C92.7335 152.899 92.7402 152.922 92.7269 152.952C92.6435 153.112 92.5185 153.239 92.3519 153.332C92.1852 153.422 91.9935 153.467 91.7769 153.467C91.5402 153.464 91.3419 153.407 91.1819 153.297C91.0219 153.187 90.9069 153.034 90.8369 152.837C90.7769 152.677 90.7469 152.447 90.7469 152.147C90.7469 152.007 90.7485 151.894 90.7519 151.807C90.7585 151.717 90.7719 151.637 90.7919 151.567C90.8485 151.35 90.9619 151.177 91.1319 151.047C91.3052 150.917 91.5135 150.852 91.7569 150.852C92.0602 150.852 92.2935 150.929 92.4569 151.082C92.6202 151.235 92.7219 151.452 92.7619 151.732ZM91.7569 151.162C91.5935 151.162 91.4569 151.205 91.3469 151.292C91.2402 151.375 91.1702 151.489 91.1369 151.632C91.1169 151.702 91.1035 151.815 91.0969 151.972C91.0969 151.985 91.1035 151.992 91.1169 151.992H92.4119C92.4252 151.992 92.4319 151.985 92.4319 151.972C92.4252 151.822 92.4152 151.715 92.4019 151.652C92.3652 151.502 92.2902 151.384 92.1769 151.297C92.0669 151.207 91.9269 151.162 91.7569 151.162ZM94.5079 150.867C94.6179 150.867 94.7129 150.889 94.7929 150.932C94.8196 150.945 94.8296 150.967 94.8229 150.997L94.7679 151.242C94.7579 151.275 94.7362 151.285 94.7029 151.272C94.6462 151.249 94.5812 151.237 94.5079 151.237L94.4429 151.242C94.2696 151.249 94.1262 151.314 94.0129 151.437C93.8996 151.557 93.8429 151.71 93.8429 151.897V153.372C93.8429 153.405 93.8262 153.422 93.7929 153.422H93.5379C93.5046 153.422 93.4879 153.405 93.4879 153.372V150.942C93.4879 150.909 93.5046 150.892 93.5379 150.892H93.7929C93.8262 150.892 93.8429 150.909 93.8429 150.942V151.247C93.8429 151.257 93.8446 151.264 93.8479 151.267C93.8546 151.267 93.8596 151.264 93.8629 151.257C93.9329 151.134 94.0212 151.039 94.1279 150.972C94.2379 150.902 94.3646 150.867 94.5079 150.867Z" fill="#002346"/>
<path d="M102.585 178.039C102.585 178.039 96.3481 217.34 140.009 221.706" stroke="#002346" stroke-linecap="round" stroke-linejoin="round"/>
<path d="M327.52 99.9922H346.443" stroke="#002346" stroke-linecap="round" stroke-linejoin="round"/>
<path d="M326.898 105.605H345.822" stroke="#002346" stroke-linecap="round" stroke-linejoin="round"/>
<path d="M326.273 111.223H345.197" stroke="#002346" stroke-linecap="round" stroke-linejoin="round"/>
<path d="M324.359 183.555L370.166 203.617L424.562 183.555" stroke="#002346" stroke-linecap="round" stroke-linejoin="round"/>
<path d="M372.037 220.146C372.037 218.249 370.502 216.715 368.606 216.715C366.71 216.715 365.176 218.249 365.176 220.146C365.176 221.599 366.08 222.841 367.359 223.34V227.632C367.359 228.318 367.92 228.879 368.606 228.879C369.292 228.879 369.854 228.318 369.854 227.632V223.34C371.132 222.841 372.037 221.599 372.037 220.146Z" fill="white" stroke="#002346" stroke-miterlimit="10"/>
<path d="M360.383 165.912C360.338 165.957 360.316 166.001 360.316 166.046C360.338 166.091 360.383 166.113 360.45 166.113H369.992C370.103 166.113 370.193 166.158 370.26 166.247C370.349 166.314 370.393 166.403 370.393 166.515V169.059C370.393 169.171 370.349 169.271 370.26 169.36C370.193 169.427 370.103 169.461 369.992 169.461H355.595C355.484 169.461 355.383 169.427 355.294 169.36C355.227 169.271 355.194 169.171 355.194 169.059V166.649C355.194 166.448 355.26 166.28 355.394 166.146C357.091 164.338 359.055 162.118 361.287 159.484L362.86 157.642C364.914 155.254 365.941 153.446 365.941 152.219C365.941 151.304 365.617 150.556 364.97 149.976C364.322 149.395 363.485 149.105 362.459 149.105C361.432 149.105 360.595 149.395 359.948 149.976C359.323 150.556 359.01 151.326 359.01 152.286V153.156C359.01 153.268 358.966 153.368 358.876 153.457C358.809 153.524 358.72 153.558 358.608 153.558H355.495C355.383 153.558 355.283 153.524 355.194 153.457C355.127 153.368 355.093 153.268 355.093 153.156V151.717C355.138 150.511 355.484 149.462 356.131 148.569C356.778 147.677 357.649 146.985 358.742 146.494C359.858 146.003 361.097 145.757 362.459 145.757C363.954 145.757 365.26 146.036 366.376 146.594C367.492 147.152 368.351 147.922 368.954 148.904C369.556 149.864 369.858 150.946 369.858 152.152C369.858 153.982 368.887 156.091 366.945 158.479C365.874 159.819 364.11 161.827 361.655 164.506L360.383 165.912ZM387.528 159.316C388.019 160.299 388.264 161.426 388.264 162.698C388.264 164.037 387.974 165.254 387.394 166.347C386.814 167.396 385.965 168.222 384.849 168.825C383.733 169.427 382.417 169.729 380.899 169.729C379.403 169.729 378.075 169.439 376.915 168.858C375.754 168.256 374.884 167.385 374.303 166.247C373.723 165.198 373.433 164.004 373.433 162.664C373.433 161.459 373.689 160.321 374.203 159.25C374.649 158.334 375.285 157.642 376.111 157.174C376.223 157.107 376.234 157.029 376.145 156.939C375.587 156.538 375.084 155.98 374.638 155.265C374.058 154.328 373.768 153.29 373.768 152.152C373.768 150.746 374.181 149.485 375.006 148.369C375.609 147.498 376.424 146.828 377.45 146.36C378.477 145.869 379.627 145.623 380.899 145.623C382.216 145.623 383.365 145.869 384.347 146.36C385.352 146.828 386.155 147.498 386.758 148.369C387.539 149.507 387.93 150.768 387.93 152.152C387.93 153.379 387.628 154.451 387.026 155.366C386.602 155.991 386.111 156.504 385.553 156.906C385.463 156.995 385.463 157.073 385.553 157.14C386.401 157.631 387.059 158.357 387.528 159.316ZM378.02 150.679C377.752 151.259 377.618 151.772 377.618 152.219C377.618 152.978 377.808 153.658 378.187 154.261C378.723 155.176 379.615 155.634 380.865 155.634C382.071 155.634 382.986 155.165 383.611 154.228C383.946 153.736 384.113 153.056 384.113 152.185C384.113 151.694 383.99 151.181 383.745 150.645C383.454 150.132 383.064 149.73 382.573 149.44C382.082 149.127 381.501 148.971 380.832 148.971C380.207 148.971 379.649 149.127 379.158 149.44C378.667 149.73 378.287 150.143 378.02 150.679ZM383.644 165.008C384.113 164.361 384.347 163.479 384.347 162.363C384.347 161.336 384.169 160.533 383.812 159.953C383.254 158.926 382.272 158.413 380.865 158.413C379.548 158.413 378.589 158.904 377.986 159.886C377.607 160.488 377.417 161.325 377.417 162.397C377.417 163.423 377.618 164.26 378.02 164.908C378.622 165.89 379.582 166.381 380.899 166.381C382.149 166.381 383.064 165.923 383.644 165.008ZM358.876 186.125C359.055 186.058 359.222 186.025 359.379 186.025H362.593C362.704 186.025 362.793 186.07 362.86 186.159C362.95 186.226 362.994 186.315 362.994 186.427V209.059C362.994 209.171 362.95 209.271 362.86 209.36C362.793 209.427 362.704 209.461 362.593 209.461H359.512C359.401 209.461 359.3 209.427 359.211 209.36C359.144 209.271 359.111 209.171 359.111 209.059V190.043C359.111 189.998 359.088 189.964 359.044 189.942C358.999 189.897 358.954 189.886 358.91 189.909L355.562 190.946C355.517 190.969 355.461 190.98 355.394 190.98C355.305 190.98 355.227 190.946 355.16 190.88C355.115 190.813 355.093 190.723 355.093 190.612L354.993 188.402C354.993 188.179 355.082 188.023 355.26 187.933L358.876 186.125ZM382.799 199.819C382.911 199.819 383 199.863 383.067 199.953C383.156 200.02 383.201 200.109 383.201 200.22V202.899C383.201 203.01 383.156 203.111 383.067 203.2C383 203.267 382.911 203.301 382.799 203.301H381.393C381.281 203.301 381.226 203.356 381.226 203.468V209.059C381.226 209.171 381.181 209.271 381.092 209.36C381.025 209.427 380.935 209.461 380.824 209.461H377.744C377.632 209.461 377.532 209.427 377.442 209.36C377.375 209.271 377.342 209.171 377.342 209.059V203.468C377.342 203.356 377.286 203.301 377.174 203.301H366.997C366.885 203.301 366.784 203.267 366.695 203.2C366.628 203.111 366.595 203.01 366.595 202.899V200.756C366.595 200.622 366.628 200.455 366.695 200.254L373.023 186.326C373.112 186.125 373.268 186.025 373.492 186.025H376.773C376.929 186.025 377.029 186.07 377.074 186.159C377.141 186.226 377.141 186.337 377.074 186.494L371.115 199.618C371.092 199.662 371.092 199.707 371.115 199.752C371.137 199.796 371.17 199.819 371.215 199.819H377.174C377.286 199.819 377.342 199.763 377.342 199.651V195.098C377.342 194.986 377.375 194.897 377.442 194.83C377.532 194.741 377.632 194.696 377.744 194.696H380.824C380.935 194.696 381.025 194.741 381.092 194.83C381.181 194.897 381.226 194.986 381.226 195.098V199.651C381.226 199.763 381.281 199.819 381.393 199.819H382.799Z" fill="#002346"/>
<path d="M426.925 64.5039L370.789 76.3565" stroke="#002346" stroke-linecap="round" stroke-linejoin="round"/>
<path d="M454.457 152.762C454.457 152.762 474.953 173.666 469.963 211.095" stroke="#002346" stroke-linecap="round" stroke-linejoin="round"/>
<path d="M67.0663 326.578C67.191 328.038 67.3844 329.685 67.6651 331.363C67.6651 331.363 73.578 312.012 93.0134 314.507L89.1962 306.098L86.0401 302.941C79.7031 306.235 73.5656 305.243 69.3741 313.746C67.4156 317.713 66.6858 322.174 67.0725 326.584L67.0663 326.578Z" fill="#7CD295" stroke="#002346" stroke-miterlimit="10"/>
<path d="M121.861 308.049C104.322 308.068 101.702 282.217 119.422 260.701C119.478 260.633 119.591 260.677 119.584 260.77C118.886 268.106 140.417 294.394 126.308 306.427C125.067 307.482 123.495 308.049 121.867 308.049H121.861Z" fill="#7CD295" stroke="#002346" stroke-miterlimit="10"/>
<path d="M120.801 298.392C109.736 291.823 112.231 272.129 145.021 260.508C145.083 260.489 145.145 260.545 145.12 260.601C144.746 261.668 142.576 268.636 141.434 288.299C141.129 293.539 133.644 306.015 120.801 298.386V298.392Z" fill="#7CD295" stroke="#002346" stroke-miterlimit="10"/>
<path d="M132.252 341.554C132.751 345.428 106.492 345.428 106.991 341.554C106.492 337.68 132.751 337.68 132.252 341.554Z" fill="#002346" stroke="#002346" stroke-miterlimit="10"/>
<path d="M133.287 375.862C132.152 375.694 103.236 376.355 103.167 375.326C97.4726 372.625 97.2293 363.804 97.2293 363.804C96.3686 352.033 106.991 345.719 106.991 345.719V341.559C106.492 345.433 132.751 345.433 132.252 341.559V346.006C146.155 355.133 143.335 374.939 133.287 375.862Z" fill="#F69074" stroke="#002346" stroke-miterlimit="10"/>
<path d="M133.111 351.175C133.142 353.408 129.631 353.408 129.668 351.175C129.637 348.942 133.149 348.942 133.111 351.175Z" fill="white"/>
<path d="M138.283 356.339C138.314 358.572 134.803 358.572 134.84 356.339C134.809 354.106 138.321 354.106 138.283 356.339Z" fill="white"/>
<path d="M139.146 364.667C139.178 366.9 135.666 366.9 135.703 364.667C135.672 362.434 139.184 362.434 139.146 364.667Z" fill="white"/>
<path d="M134.549 370.98C134.58 373.213 131.068 373.213 131.106 370.98C131.075 368.746 134.586 368.746 134.549 370.98Z" fill="white"/>
<path d="M120.482 372.702C120.514 374.936 117.002 374.936 117.039 372.702C117.008 370.469 120.52 370.469 120.482 372.702Z" fill="white"/>
<path d="M109.572 370.98C109.603 373.213 106.092 373.213 106.129 370.98C106.098 368.746 109.61 368.746 109.572 370.98Z" fill="white"/>
<path d="M103.549 366.101C103.58 368.334 100.068 368.334 100.106 366.101C100.075 363.867 103.586 363.867 103.549 366.101Z" fill="white"/>
<path d="M104.408 356.339C104.439 358.572 100.928 358.572 100.965 356.339C100.934 354.106 104.446 354.106 104.408 356.339Z" fill="white"/>
<path d="M110.721 350.601C110.752 352.834 107.24 352.834 107.278 350.601C107.246 348.367 110.758 348.367 110.721 350.601Z" fill="white"/>
<path d="M116.467 355.765C116.498 357.998 112.986 357.998 113.024 355.765C112.993 353.532 116.504 353.532 116.467 355.765Z" fill="white"/>
<path d="M109.861 360.355C109.892 362.588 106.381 362.588 106.418 360.355C106.387 358.121 109.899 358.121 109.861 360.355Z" fill="white"/>
<path d="M115.603 366.101C115.635 368.334 112.123 368.334 112.16 366.101C112.129 363.867 115.641 363.867 115.603 366.101Z" fill="white"/>
<path d="M121.916 361.222C121.947 363.455 118.436 363.455 118.473 361.222C118.442 358.989 121.953 358.989 121.916 361.222Z" fill="white"/>
<path d="M123.064 351.46C123.096 353.693 119.584 353.693 119.621 351.46C119.59 349.227 123.102 349.227 123.064 351.46Z" fill="white"/>
<path d="M128.236 357.487C128.267 359.721 124.756 359.721 124.793 357.487C124.762 355.254 128.274 355.254 128.236 357.487Z" fill="white"/>
<path d="M132.252 361.511C132.283 363.744 128.771 363.744 128.809 361.511C128.778 359.278 132.289 359.278 132.252 361.511Z" fill="white"/>
<path d="M126.514 367.249C126.545 369.482 123.033 369.482 123.071 367.249C123.039 365.016 126.551 365.016 126.514 367.249Z" fill="white"/>
<path d="M147.752 322.171C138.284 314.46 124.824 325.046 138.278 338.246C138.278 338.246 145.17 344.559 148.039 351.166C148.039 351.166 161.244 341.69 161.531 328.771C161.531 328.771 161.531 315.564 147.752 322.164V322.171Z" fill="#7CD295" stroke="#002346" stroke-miterlimit="10"/>
<path d="M67.3906 320.574C82.2666 294.348 88.6161 321.316 111.008 317.579C111.345 287.43 67.7212 288.696 67.3906 320.574Z" fill="#7CD295" stroke="#002346" stroke-miterlimit="10"/>
<path d="M106.992 345.715C106.992 345.715 117.589 351.155 132.253 346.002" stroke="#002346" stroke-linecap="round" stroke-linejoin="round"/>
<path d="M122.277 331.803C122.277 331.803 128.515 305.603 144.389 318.31C146.622 320.094 148.019 322.727 148.699 325.503C149.753 329.807 151.087 337.642 149.41 345.215" stroke="#002346" stroke-linecap="round" stroke-linejoin="round"/>
<path d="M142.552 262.871C142.552 262.871 113.237 284.081 123.216 341.472" stroke="#002346" stroke-linecap="round" stroke-linejoin="round"/>
<path d="M78.9297 303.419C78.9297 303.419 117.601 302.795 118.848 340.848" stroke="#002346" stroke-linecap="round" stroke-linejoin="round"/>
</svg>
