<svg width="557" height="439" viewBox="0 0 557 439" fill="none" xmlns="http://www.w3.org/2000/svg">
<path d="M114.512 163.8C114.512 159.185 110.008 156.729 106.148 157.372C103.909 157.745 102.166 158.741 100.705 160.22C100.544 160.38 100.281 160.342 100.171 160.143C99.5536 158.96 98.3763 158.863 97.527 159.159C97.3019 159.236 97.0702 159.056 97.096 158.818C97.1217 158.555 97.141 158.285 97.141 158.015C97.141 153.315 93.2551 149.523 88.5199 149.664C84.2029 149.793 80.6194 153.328 80.42 157.635C80.3685 158.76 80.5486 159.834 80.9025 160.824C81.1019 161.37 80.9282 161.968 80.4714 162.322C78.3612 163.942 77.0423 166.533 77.2096 169.438C77.4476 173.61 80.8703 177.043 85.0522 177.288C89.4528 177.551 93.165 174.401 93.8148 170.242C93.847 170.043 94.1108 169.998 94.2073 170.178C95.5905 172.878 98.402 174.729 101.651 174.729C104.102 174.729 106.303 173.668 107.834 171.99C111.649 171.213 114.518 167.844 114.518 163.8H114.512Z" fill="#A6DCED"/>
<path d="M85.5623 177.623C85.3886 177.623 85.2084 177.623 85.0283 177.61C80.7113 177.353 77.1342 173.772 76.8897 169.459C76.7224 166.585 77.9899 163.827 80.2738 162.072C80.6212 161.802 80.7499 161.359 80.6019 160.935C80.2159 159.867 80.0486 158.755 80.1001 157.624C80.306 153.117 83.9989 149.479 88.5089 149.344C90.8893 149.273 93.1218 150.141 94.8267 151.793C96.5252 153.445 97.4645 155.657 97.4645 158.022C97.4645 158.292 97.4517 158.569 97.4195 158.858C98.3781 158.53 99.742 158.627 100.456 160.002C102.071 158.389 103.911 157.431 106.092 157.065C108.35 156.685 110.814 157.347 112.519 158.787C113.574 159.681 114.835 161.275 114.835 163.808C114.835 167.884 111.966 171.432 107.99 172.287C106.349 174.049 104.04 175.058 101.646 175.058C98.4875 175.058 95.6181 173.367 94.074 170.629C93.2762 174.717 89.7184 177.63 85.5623 177.63V177.623ZM88.7791 149.98C88.6955 149.98 88.6118 149.98 88.5282 149.98C84.3528 150.102 80.93 153.471 80.7435 157.643C80.6984 158.691 80.8528 159.72 81.2067 160.71C81.4512 161.391 81.2324 162.137 80.6663 162.574C78.5496 164.2 77.3787 166.752 77.5331 169.414C77.7647 173.406 81.0716 176.723 85.0733 176.961C89.2423 177.205 92.858 174.3 93.5014 170.192C93.54 169.967 93.7137 169.787 93.9389 169.748C94.1641 169.716 94.3892 169.825 94.4922 170.031C95.8754 172.731 98.6162 174.402 101.646 174.402C103.898 174.402 106.06 173.445 107.591 171.767L107.662 171.69L107.765 171.67C111.49 170.912 114.192 167.601 114.192 163.795C114.192 161.507 113.06 160.067 112.108 159.263C110.544 157.945 108.286 157.335 106.201 157.682C104.156 158.022 102.431 158.922 100.932 160.44C100.784 160.594 100.578 160.658 100.366 160.626C100.16 160.594 99.9801 160.465 99.8836 160.279C99.356 159.27 98.3781 159.192 97.6318 159.45C97.4195 159.527 97.1943 159.488 97.0142 159.347C96.8405 159.205 96.7504 158.993 96.7697 158.768C96.7954 158.517 96.8147 158.26 96.8147 157.997C96.8147 155.805 95.9462 153.754 94.3699 152.23C92.858 150.765 90.8765 149.961 88.7727 149.961L88.7791 149.98Z" fill="#231F20"/>
<path d="M160.315 327.132C160.212 327.132 160.109 327.08 160.045 326.99L83.3619 213.481C83.2654 213.333 83.304 213.134 83.4455 213.038C83.5935 212.941 83.7929 212.98 83.8894 213.121L160.572 326.63C160.669 326.778 160.63 326.977 160.488 327.074C160.431 327.112 160.373 327.132 160.308 327.132H160.315Z" fill="#231F20"/>
<path d="M83.5263 326.789C83.4619 326.789 83.404 326.77 83.3461 326.738C83.1982 326.641 83.1596 326.435 83.2561 326.294L159.913 212.483C160.01 212.335 160.209 212.296 160.357 212.393C160.505 212.489 160.544 212.695 160.447 212.836L83.7901 326.648C83.7257 326.738 83.6292 326.789 83.5198 326.789H83.5263Z" fill="#231F20"/>
<path d="M77.3555 209.468V394.617H167.362V209.121H160.092V386.279H83.7184V209.121L77.3555 209.468Z" fill="white"/>
<path d="M167.685 394.939H77.0352V209.167L84.035 208.781V385.952H159.766V208.801H167.685V394.939ZM77.6785 394.297H167.042V209.443H160.409V386.602H83.3916V209.463L77.6785 209.778V394.297Z" fill="#231F20"/>
<path d="M102.934 34.2056L116.316 167C116.393 167.791 117.069 168.395 117.867 168.395L289.208 167.495L272.049 36.6613C271.985 36.1471 271.548 35.7613 271.026 35.7485L103.996 33.0549C103.372 33.0421 102.876 33.5821 102.934 34.2056Z" fill="#FFB669"/>
<path d="M117.854 168.718C116.888 168.718 116.091 167.998 115.994 167.034L102.612 34.2388C102.574 33.8531 102.702 33.461 102.966 33.1781C103.23 32.8888 103.603 32.7281 103.995 32.7346L271.026 35.4281C271.701 35.441 272.274 35.9488 272.364 36.6174L289.568 167.811L117.86 168.711H117.847L117.854 168.718ZM103.976 33.3774C103.77 33.3774 103.584 33.461 103.442 33.6088C103.301 33.7631 103.236 33.9624 103.256 34.1746L116.638 166.969C116.702 167.599 117.223 168.075 117.86 168.075H117.866L288.847 167.175L271.74 36.701C271.695 36.3474 271.393 36.0774 271.032 36.071L104.002 33.3774H103.989H103.976Z" fill="#231F20"/>
<path d="M107.473 37.8394L119.034 151.567C119.111 152.358 119.781 152.956 120.572 152.956H281.922L268.392 39.3951C268.327 38.8744 267.89 38.4758 267.362 38.4694L108.522 36.6758C107.898 36.6694 107.402 37.2094 107.467 37.8266L107.473 37.8394Z" fill="white"/>
<path d="M282.29 153.276H120.58C119.615 153.276 118.817 152.556 118.72 151.598L107.159 37.8638C107.12 37.4781 107.249 37.0924 107.513 36.8031C107.777 36.5138 108.124 36.3531 108.536 36.3596L267.376 38.1531C268.058 38.1596 268.637 38.6803 268.721 39.3617L282.296 153.276H282.29ZM107.796 37.806L119.357 151.534C119.422 152.164 119.949 152.633 120.58 152.633H281.569L268.084 39.4324C268.039 39.0724 267.737 38.796 267.37 38.796L108.529 37.0024C108.336 37.0024 108.131 37.086 107.983 37.2403C107.841 37.3946 107.777 37.5938 107.796 37.806Z" fill="#231F20"/>
<path d="M155.547 45.1663H133.724C133.544 45.1663 133.402 45.0249 133.402 44.8449C133.402 44.6649 133.544 44.5234 133.724 44.5234H155.547C155.727 44.5234 155.869 44.6649 155.869 44.8449C155.869 45.0249 155.727 45.1663 155.547 45.1663Z" fill="#231F20"/>
<path d="M164.637 56.9749H143.728C143.548 56.9749 143.406 56.8335 143.406 56.6535C143.406 56.4735 143.548 56.332 143.728 56.332H164.637C164.817 56.332 164.959 56.4735 164.959 56.6535C164.959 56.8335 164.817 56.9749 164.637 56.9749Z" fill="#231F20"/>
<path d="M224.644 56.9749H180.091C179.911 56.9749 179.77 56.8335 179.77 56.6535C179.77 56.4735 179.911 56.332 180.091 56.332H224.644C224.824 56.332 224.966 56.4735 224.966 56.6535C224.966 56.8335 224.824 56.9749 224.644 56.9749Z" fill="#231F20"/>
<path d="M159.182 70.6038H143.728C143.548 70.6038 143.406 70.4624 143.406 70.2824C143.406 70.1024 143.548 69.9609 143.728 69.9609H159.182C159.362 69.9609 159.503 70.1024 159.503 70.2824C159.503 70.4624 159.362 70.6038 159.182 70.6038Z" fill="#231F20"/>
<path d="M211.92 70.6038H171.915C171.735 70.6038 171.594 70.4624 171.594 70.2824C171.594 70.1024 171.735 69.9609 171.915 69.9609H211.92C212.1 69.9609 212.242 70.1024 212.242 70.2824C212.242 70.4624 212.1 70.6038 211.92 70.6038Z" fill="#231F20"/>
<path d="M160.094 82.4124H138.271C138.091 82.4124 137.949 82.271 137.949 82.091C137.949 81.911 138.091 81.7695 138.271 81.7695H160.094C160.274 81.7695 160.416 81.911 160.416 82.091C160.416 82.271 160.274 82.4124 160.094 82.4124Z" fill="#231F20"/>
<path d="M194.642 95.135H140.091C139.911 95.135 139.77 94.9936 139.77 94.8136C139.77 94.6336 139.911 94.4922 140.091 94.4922H194.642C194.822 94.4922 194.964 94.6336 194.964 94.8136C194.964 94.9936 194.822 95.135 194.642 95.135Z" fill="#231F20"/>
<path d="M227.372 95.135H206.462C206.282 95.135 206.141 94.9936 206.141 94.8136C206.141 94.6336 206.282 94.4922 206.462 94.4922H227.372C227.552 94.4922 227.693 94.6336 227.693 94.8136C227.693 94.9936 227.552 95.135 227.372 95.135Z" fill="#231F20"/>
<path d="M157.369 108.764H141.001C140.821 108.764 140.68 108.623 140.68 108.443C140.68 108.263 140.821 108.121 141.001 108.121H157.369C157.549 108.121 157.69 108.263 157.69 108.443C157.69 108.623 157.549 108.764 157.369 108.764Z" fill="#231F20"/>
<path d="M200.1 120.573H151.005C150.825 120.573 150.684 120.431 150.684 120.251C150.684 120.071 150.825 119.93 151.005 119.93H200.1C200.281 119.93 200.422 120.071 200.422 120.251C200.422 120.431 200.281 120.573 200.1 120.573Z" fill="#231F20"/>
<path d="M219.195 133.291H152.826C152.645 133.291 152.504 133.15 152.504 132.97C152.504 132.79 152.645 132.648 152.826 132.648H219.195C219.375 132.648 219.517 132.79 219.517 132.97C219.517 133.15 219.375 133.291 219.195 133.291Z" fill="#231F20"/>
<path d="M177.369 145.104H145.548C145.368 145.104 145.227 144.962 145.227 144.782C145.227 144.602 145.368 144.461 145.548 144.461H177.369C177.549 144.461 177.691 144.602 177.691 144.782C177.691 144.962 177.549 145.104 177.369 145.104Z" fill="#231F20"/>
<path d="M265.561 46.0804H240.103C239.923 46.0804 239.781 45.9389 239.781 45.7589C239.781 45.5789 239.923 45.4375 240.103 45.4375H265.561C265.741 45.4375 265.883 45.5789 265.883 45.7589C265.883 45.9389 265.741 46.0804 265.561 46.0804Z" fill="#231F20"/>
<path d="M250.102 50.6194H236.462C236.282 50.6194 236.141 50.478 236.141 50.298C236.141 50.118 236.282 49.9766 236.462 49.9766H250.102C250.282 49.9766 250.423 50.118 250.423 50.298C250.423 50.478 250.282 50.6194 250.102 50.6194Z" fill="#231F20"/>
<path d="M267.377 56.9749H241.919C241.739 56.9749 241.598 56.8335 241.598 56.6535C241.598 56.4735 241.739 56.332 241.919 56.332H267.377C267.557 56.332 267.699 56.4735 267.699 56.6535C267.699 56.8335 267.557 56.9749 267.377 56.9749Z" fill="#231F20"/>
<path d="M250.1 61.5218H239.189C239.009 61.5218 238.867 61.3803 238.867 61.2003C238.867 61.0203 239.009 60.8789 239.189 60.8789H250.1C250.28 60.8789 250.422 61.0203 250.422 61.2003C250.422 61.3803 250.28 61.5218 250.1 61.5218Z" fill="#231F20"/>
<path d="M250.102 71.5179H242.826C242.645 71.5179 242.504 71.3764 242.504 71.1964C242.504 71.0164 242.645 70.875 242.826 70.875H250.102C250.282 70.875 250.424 71.0164 250.424 71.1964C250.424 71.3764 250.282 71.5179 250.102 71.5179Z" fill="#231F20"/>
<path d="M267.832 71.5179H256.013C255.833 71.5179 255.691 71.3764 255.691 71.1964C255.691 71.0164 255.833 70.875 256.013 70.875H267.832C268.012 70.875 268.153 71.0164 268.153 71.1964C268.153 71.3764 268.012 71.5179 267.832 71.5179Z" fill="#231F20"/>
<path d="M251.016 76.0569H243.74C243.56 76.0569 243.418 75.9155 243.418 75.7355C243.418 75.5555 243.56 75.4141 243.74 75.4141H251.016C251.196 75.4141 251.338 75.5555 251.338 75.7355C251.338 75.9155 251.196 76.0569 251.016 76.0569Z" fill="#231F20"/>
<path d="M268.742 76.0569H256.923C256.743 76.0569 256.602 75.9155 256.602 75.7355C256.602 75.5555 256.743 75.4141 256.923 75.4141H268.742C268.922 75.4141 269.064 75.5555 269.064 75.7355C269.064 75.9155 268.922 76.0569 268.742 76.0569Z" fill="#231F20"/>
<path d="M261.469 86.053H240.56C240.38 86.053 240.238 85.9116 240.238 85.7316C240.238 85.5516 240.38 85.4102 240.56 85.4102H261.469C261.649 85.4102 261.791 85.5516 261.791 85.7316C261.791 85.9116 261.649 86.053 261.469 86.053Z" fill="#231F20"/>
<path d="M269.566 62.2276L271.928 80.279H291.023L289.202 62.1055L269.566 62.2276Z" fill="#A6DCED"/>
<path d="M291.375 80.6016H271.643L269.191 61.9073L289.49 61.7852L291.375 80.6016ZM272.209 79.9587H290.667L288.911 62.4344L269.925 62.5502L272.209 79.9587Z" fill="#231F20"/>
<path d="M274.066 87.3008L276.473 105.719L296.584 105.944L293.747 87.5451L274.066 87.3008Z" fill="white"/>
<path d="M296.957 106.273L276.189 106.041L273.699 86.9805L294.023 87.2376L296.957 106.279V106.273ZM276.755 105.405L296.204 105.623L293.47 87.874L274.433 87.6362L276.755 105.411V105.405Z" fill="#231F20"/>
<path d="M246.95 90.7405H240.587C240.407 90.7405 240.266 90.5991 240.266 90.4191C240.266 90.2391 240.407 90.0977 240.587 90.0977H246.95C247.13 90.0977 247.272 90.2391 247.272 90.4191C247.272 90.5991 247.13 90.7405 246.95 90.7405Z" fill="#231F20"/>
<path d="M263.315 95.2835H244.22C244.04 95.2835 243.898 95.1421 243.898 94.9621C243.898 94.7821 244.04 94.6406 244.22 94.6406H263.315C263.495 94.6406 263.637 94.7821 263.637 94.9621C263.637 95.1421 263.495 95.2835 263.315 95.2835Z" fill="#231F20"/>
<path d="M271.498 100.729H246.04C245.86 100.729 245.719 100.587 245.719 100.407C245.719 100.227 245.86 100.086 246.04 100.086H271.498C271.679 100.086 271.82 100.227 271.82 100.407C271.82 100.587 271.679 100.729 271.498 100.729Z" fill="#231F20"/>
<path d="M255.132 105.276H243.314C243.134 105.276 242.992 105.134 242.992 104.954C242.992 104.774 243.134 104.633 243.314 104.633H255.132C255.313 104.633 255.454 104.774 255.454 104.954C255.454 105.134 255.313 105.276 255.132 105.276Z" fill="#231F20"/>
<path d="M256.04 109.819H243.314C243.134 109.819 242.992 109.677 242.992 109.497C242.992 109.317 243.134 109.176 243.314 109.176H256.04C256.22 109.176 256.361 109.317 256.361 109.497C256.361 109.677 256.22 109.819 256.04 109.819Z" fill="#231F20"/>
<path d="M249.677 114.358H243.314C243.134 114.358 242.992 114.216 242.992 114.036C242.992 113.856 243.134 113.715 243.314 113.715H249.677C249.857 113.715 249.998 113.856 249.998 114.036C249.998 114.216 249.857 114.358 249.677 114.358Z" fill="#231F20"/>
<path d="M256.955 118.905H246.951C246.77 118.905 246.629 118.763 246.629 118.583C246.629 118.403 246.77 118.262 246.951 118.262H256.955C257.135 118.262 257.277 118.403 257.277 118.583C257.277 118.763 257.135 118.905 256.955 118.905Z" fill="#231F20"/>
<path d="M273.313 118.905H260.587C260.407 118.905 260.266 118.763 260.266 118.583C260.266 118.403 260.407 118.262 260.587 118.262H273.313C273.493 118.262 273.635 118.403 273.635 118.583C273.635 118.763 273.493 118.905 273.313 118.905Z" fill="#231F20"/>
<path d="M255.133 124.354H247.857C247.677 124.354 247.535 124.212 247.535 124.032C247.535 123.852 247.677 123.711 247.857 123.711H255.133C255.313 123.711 255.455 123.852 255.455 124.032C255.455 124.212 255.313 124.354 255.133 124.354Z" fill="#231F20"/>
<path d="M273.313 124.354H258.767C258.587 124.354 258.445 124.212 258.445 124.032C258.445 123.852 258.587 123.711 258.767 123.711H273.313C273.494 123.711 273.635 123.852 273.635 124.032C273.635 124.212 273.494 124.354 273.313 124.354Z" fill="#231F20"/>
<path d="M274.226 132.53H246.04C245.86 132.53 245.719 132.388 245.719 132.208C245.719 132.028 245.86 131.887 246.04 131.887H274.226C274.406 131.887 274.548 132.028 274.548 132.208C274.548 132.388 274.406 132.53 274.226 132.53Z" fill="#231F20"/>
<path d="M252.406 138.889H246.951C246.77 138.889 246.629 138.748 246.629 138.568C246.629 138.388 246.77 138.246 246.951 138.246H252.406C252.586 138.246 252.728 138.388 252.728 138.568C252.728 138.748 252.586 138.889 252.406 138.889Z" fill="#231F20"/>
<path d="M267.859 143.436H249.677C249.497 143.436 249.355 143.294 249.355 143.114C249.355 142.934 249.497 142.793 249.677 142.793H267.859C268.039 142.793 268.18 142.934 268.18 143.114C268.18 143.294 268.039 143.436 267.859 143.436Z" fill="#231F20"/>
<path d="M256.041 147.971H246.951C246.77 147.971 246.629 147.83 246.629 147.65C246.629 147.47 246.77 147.328 246.951 147.328H256.041C256.221 147.328 256.363 147.47 256.363 147.65C256.363 147.83 256.221 147.971 256.041 147.971Z" fill="#231F20"/>
<path d="M261.925 192.023H66.4453V212.916H261.925V192.023Z" fill="white"/>
<path d="M262.248 213.243H66.125V191.707H262.248V213.243ZM66.7684 212.6H261.605V192.35H66.7684V212.6Z" fill="#231F20"/>
<path d="M154.362 168.144L148.27 192.02H241.924V186.569H156.453L161.838 168.035L154.362 168.144Z" fill="white"/>
<path d="M242.248 192.341H147.859L154.113 167.829L162.264 167.707L156.879 186.247H242.241V192.341H242.248ZM148.689 191.698H241.604V186.89H156.03L161.409 168.363L154.621 168.466L148.696 191.705L148.689 191.698Z" fill="#231F20"/>
<path d="M76.1836 169.309H114.638L112.894 192.053H78.2681L76.1836 169.309Z" fill="white"/>
<path d="M113.188 192.375H77.9705L75.8281 168.988H114.983L113.195 192.375H113.188ZM78.556 191.733H112.59L114.282 169.631H76.5294L78.556 191.733Z" fill="#231F20"/>
<path d="M193.731 277.419C193.731 277.419 188.07 280.305 184.422 260.943L191.917 255.613C191.917 255.613 194.471 270.18 193.738 277.419H193.731Z" fill="#231F20"/>
<path d="M192.926 277.893C192.527 277.893 192.018 277.809 191.439 277.526C189.316 276.485 186.318 272.776 184.105 261.005L184.066 260.806L192.141 255.059L192.231 255.56C192.256 255.708 194.778 270.256 194.051 277.449L194.032 277.623L193.878 277.7C193.878 277.7 193.498 277.886 192.926 277.886V277.893ZM184.774 261.089C186.929 272.384 189.722 275.939 191.69 276.935C192.527 277.353 193.151 277.269 193.427 277.192C194.013 270.783 192.108 258.781 191.677 256.177L184.768 261.089H184.774Z" fill="#231F20"/>
<path d="M105.016 249.783C105.016 249.783 105.537 246.536 107.357 245.624C107.357 245.624 114.634 241.079 122.811 243.804C130.995 246.53 171.906 268.336 171.906 268.336C171.906 268.336 172.813 272.881 170.999 278.332C170.999 278.332 169.178 286.509 159.181 283.783L131.902 266.523C131.902 266.523 118.263 264.703 116.448 262.891C114.628 261.071 105.016 249.789 105.016 249.789V249.783Z" fill="white"/>
<path d="M162.99 284.658C161.787 284.658 160.488 284.471 159.098 284.092L159.008 284.053L131.794 266.831C130.616 266.67 118.045 264.941 116.224 263.115C114.416 261.309 105.165 250.451 104.772 249.995L104.676 249.879L104.702 249.731C104.721 249.59 105.274 246.311 107.217 245.334C107.262 245.302 114.687 240.757 122.922 243.502C131.034 246.202 171.657 267.834 172.068 268.053L172.203 268.123L172.236 268.271C172.274 268.458 173.143 272.958 171.316 278.428C171.296 278.531 170.563 281.675 167.59 283.468C166.278 284.259 164.74 284.658 162.997 284.658H162.99ZM159.31 283.481C162.514 284.349 165.184 284.156 167.243 282.922C169.984 281.276 170.679 278.287 170.685 278.261C172.281 273.472 171.747 269.364 171.618 268.548C168.987 267.146 130.539 246.723 122.709 244.113C114.77 241.47 107.597 245.855 107.526 245.9C106.059 246.633 105.48 249.075 105.358 249.693C106.381 250.895 114.983 260.975 116.675 262.659C118.103 264.086 128.184 265.7 131.948 266.201L132.077 266.246L159.31 283.481Z" fill="#231F20"/>
<path d="M157.364 242.894C157.364 242.894 147.36 247.439 138.269 244.713C138.269 244.713 114.632 237.442 107.355 245.62C107.355 245.62 119.174 242.894 126.451 251.071C126.451 251.071 135.477 260.09 151.188 261.768C153.954 262.064 156.682 262.629 159.275 263.632C164.757 265.76 172.162 270.177 170.997 278.322L181.909 262.88L186.457 256.522L182.822 249.252L168.276 242.894H157.364Z" fill="#FFB669"/>
<path d="M170.496 279.603L170.683 278.285C171.789 270.551 165.028 266.219 159.16 263.943C156.786 263.024 154.168 262.419 151.157 262.098C135.51 260.426 126.316 251.394 126.226 251.304C119.156 243.359 107.549 245.911 107.434 245.936L106.449 246.161L107.118 245.409C114.446 237.174 137.395 244.111 138.367 244.406C147.232 247.061 157.134 242.651 157.23 242.606L157.365 242.581L168.405 242.606L183.061 249.009L186.838 256.556L182.18 263.075L170.503 279.609L170.496 279.603ZM111.924 244.882C116.106 244.882 122.257 245.872 126.689 250.861C126.767 250.938 135.812 259.809 151.221 261.455C154.29 261.783 156.966 262.4 159.392 263.339C164.133 265.177 171.764 269.362 171.429 277.16L181.646 262.696L186.079 256.492L182.579 249.504L168.199 243.217H157.423C156.535 243.603 146.885 247.634 138.167 245.024C137.936 244.953 116.08 238.344 108.296 245.133C109.119 245.017 110.38 244.882 111.911 244.882H111.924Z" fill="#231F20"/>
<path d="M290.109 311.034V389.257C290.109 391.713 292.104 393.705 294.561 393.705H383.758V309.215H374.667V381.986C374.667 384.442 372.672 386.435 370.215 386.435H304.566C302.108 386.435 300.114 384.442 300.114 381.986V311.941L290.109 311.034Z" fill="white"/>
<path d="M384.081 394.032H294.563C291.931 394.032 289.789 391.891 289.789 389.262V310.686L300.43 311.65V381.991C300.43 384.267 302.283 386.118 304.561 386.118H370.21C372.487 386.118 374.34 384.267 374.34 381.991V308.898H384.074V394.032H384.081ZM290.432 311.393V389.262C290.432 391.538 292.285 393.389 294.563 393.389H383.437V309.541H374.99V381.991C374.99 384.62 372.848 386.761 370.216 386.761H304.567C301.936 386.761 299.793 384.62 299.793 381.991V312.235L290.439 311.386L290.432 311.393Z" fill="#231F20"/>
<path d="M416.263 390.071H341.877C340.404 390.071 339.207 388.876 339.207 387.404V312.852H331.931V391.891C331.931 391.891 331.409 398.12 341.214 399.091H376.387C376.387 399.091 382.654 399.059 387.292 397.747L416.263 390.129C416.295 390.123 416.289 390.071 416.257 390.071H416.263Z" fill="white"/>
<path d="M376.402 399.412H341.223C331.186 398.415 331.611 391.929 331.617 391.858V312.523H339.531V387.397C339.531 388.695 340.586 389.743 341.879 389.743H416.548L416.651 390.328L416.355 390.431L387.384 398.049C382.758 399.36 376.46 399.405 376.396 399.405L376.402 399.412ZM332.261 313.173V391.89C332.241 392.16 331.907 397.843 341.255 398.775H376.402C376.46 398.775 382.675 398.73 387.217 397.438L414.007 390.393H341.885C340.232 390.393 338.894 389.049 338.894 387.403V313.173H332.261Z" fill="#231F20"/>
<path d="M242.83 184.76L177.367 231.091C177.367 231.091 194.603 241.062 193.734 277.306C193.734 277.351 193.786 277.383 193.824 277.357L210.095 265.612L181.002 355.554C181.002 355.554 194.642 371.909 224.642 375.541C224.642 375.541 255.555 292.869 261.918 280.147C261.918 280.147 272.83 281.967 294.653 281.054C294.653 281.054 330.115 281.96 342.841 286.505C342.841 286.505 354.659 291.05 364.664 286.505C364.664 286.505 383.244 281.864 401.837 284.718C405.44 285.271 409.114 284.454 412.118 282.391C415.895 279.794 420.437 275.667 421.943 270.151L367.456 236.6L350.117 233.81C350.117 233.81 274.65 219.275 273.743 220.182C272.836 221.088 261.018 211.098 261.018 211.098L242.836 184.754L242.83 184.76Z" fill="#A6DCED"/>
<path d="M224.856 375.893L224.605 375.86C194.817 372.254 180.895 355.925 180.753 355.758L180.637 355.623L180.689 355.456L209.479 266.453L193.839 277.735L193.601 277.645C193.472 277.581 193.395 277.446 193.395 277.304C194.251 241.658 177.356 231.469 177.189 231.372L176.758 231.121L242.896 184.309L261.238 210.891C266.584 215.404 272.587 219.994 273.539 219.929C273.867 219.685 275.843 219.582 312.315 226.345C331.082 229.823 349.971 233.461 350.164 233.5L367.561 236.296L367.612 236.328L422.305 270.001L422.24 270.233C420.69 275.903 415.974 280.113 412.287 282.653C409.225 284.761 405.487 285.603 401.775 285.031C383.465 282.222 364.916 286.767 364.73 286.812C354.777 291.338 342.836 286.844 342.714 286.799C330.188 282.331 294.989 281.38 294.635 281.367C274.781 282.196 263.812 280.743 262.094 280.493C255.583 293.723 225.242 374.819 224.933 375.642L224.843 375.88L224.856 375.893ZM181.364 355.482C182.748 357.038 196.509 371.733 224.431 375.192C226.278 370.268 255.506 292.257 261.631 280.004L261.74 279.792L261.972 279.831C262.081 279.85 273.115 281.631 294.635 280.737C295.015 280.743 330.316 281.701 342.946 286.208C343.068 286.253 354.764 290.65 364.524 286.221C364.769 286.156 383.439 281.579 401.878 284.408C405.436 284.954 409 284.144 411.927 282.132C415.472 279.696 420.001 275.671 421.558 270.303L367.329 236.913L350.055 234.13C329.589 230.189 276.158 220.071 273.88 220.469C272.703 221.067 266.153 215.873 260.794 211.347L260.736 211.283L242.735 185.202L177.922 231.076C180.528 232.896 194.676 244.293 194.051 276.777L210.689 264.768L181.345 355.469L181.364 355.482Z" fill="#231F20"/>
<path d="M226.977 161.53L260.509 212.592C261.359 213.885 262.909 214.534 264.428 214.232L338.987 197.427C340.776 197.022 341.535 194.901 340.409 193.455L301.936 144.148C301.363 143.415 300.437 143.061 299.523 143.222L229.57 155.693C226.836 156.111 225.452 159.216 226.971 161.53H226.977Z" fill="#A6DCED"/>
<path d="M263.682 214.629C262.311 214.629 261.018 213.948 260.246 212.772L226.714 161.71C225.942 160.533 225.82 159.061 226.392 157.775C226.965 156.49 228.142 155.596 229.532 155.384L299.479 142.912C300.508 142.726 301.557 143.125 302.2 143.954L340.673 193.261C341.272 194.026 341.432 195.029 341.104 195.942C340.776 196.854 340.017 197.529 339.071 197.742L264.512 214.546C264.235 214.604 263.958 214.629 263.688 214.629H263.682ZM227.248 161.356L260.78 212.418C261.565 213.607 262.974 214.199 264.37 213.916L338.923 197.118C339.657 196.951 340.242 196.437 340.493 195.729C340.744 195.022 340.622 194.251 340.159 193.659L301.685 144.352C301.19 143.716 300.386 143.407 299.588 143.549L229.635 156.02C228.451 156.2 227.46 156.959 226.978 158.039C226.495 159.125 226.592 160.366 227.248 161.356Z" fill="#231F20"/>
<path d="M236.469 158.407L299.203 146.598L334.659 192.935L271.925 208.376L236.469 158.407Z" fill="white"/>
<path d="M271.791 208.742L271.662 208.562L235.91 158.188L299.333 146.25L335.214 193.127L271.791 208.742ZM237.017 158.631L272.061 208.009L334.107 192.735L299.069 146.951L237.023 158.631H237.017Z" fill="#231F20"/>
<path d="M248.74 180.301C248.161 179.299 246.878 178.955 245.875 179.534C244.872 180.113 244.528 181.395 245.107 182.397L247.51 186.556C248.089 187.558 249.372 187.902 250.375 187.323C251.378 186.744 251.722 185.462 251.143 184.46L248.74 180.301Z" fill="#231F20"/>
<path d="M249.328 187.925C248.492 187.925 247.675 187.494 247.231 186.716L244.831 182.564C244.509 182.004 244.419 181.355 244.586 180.731C244.754 180.108 245.153 179.587 245.712 179.266C246.87 178.597 248.35 178.996 249.019 180.153L251.419 184.306C251.741 184.865 251.831 185.514 251.663 186.138C251.496 186.761 251.097 187.282 250.537 187.604C250.158 187.822 249.74 187.925 249.334 187.925H249.328ZM246.922 179.574C246.619 179.574 246.317 179.651 246.034 179.812C245.622 180.05 245.326 180.429 245.204 180.892C245.082 181.349 245.146 181.831 245.384 182.242L247.784 186.395C248.022 186.806 248.402 187.102 248.865 187.224C249.322 187.346 249.804 187.282 250.216 187.044C250.628 186.806 250.923 186.427 251.046 185.964C251.168 185.501 251.104 185.026 250.866 184.614L248.466 180.461C248.138 179.896 247.539 179.574 246.922 179.574Z" fill="#231F20"/>
<path d="M261.014 158.728C260.866 158.728 260.731 158.625 260.699 158.477C260.661 158.303 260.77 158.13 260.944 158.091L298.22 149.914C298.394 149.875 298.568 149.985 298.606 150.158C298.645 150.332 298.535 150.505 298.362 150.544L261.085 158.721C261.085 158.721 261.04 158.728 261.014 158.728Z" fill="#231F20"/>
<path d="M264.647 165.092C264.506 165.092 264.37 164.995 264.338 164.848C264.293 164.674 264.403 164.5 264.576 164.462L292.003 157.705C292.177 157.66 292.35 157.77 292.389 157.943C292.434 158.117 292.325 158.29 292.151 158.329L264.724 165.085C264.724 165.085 264.673 165.092 264.647 165.092Z" fill="#231F20"/>
<path d="M261.925 173.271C261.784 173.271 261.655 173.175 261.616 173.033C261.571 172.86 261.668 172.686 261.842 172.641L276.555 168.636C276.729 168.591 276.903 168.687 276.948 168.861C276.993 169.035 276.896 169.208 276.723 169.253L262.009 173.258C262.009 173.258 261.951 173.271 261.925 173.271Z" fill="#231F20"/>
<path d="M279.94 168.127C279.799 168.127 279.67 168.031 279.632 167.889C279.587 167.716 279.69 167.542 279.863 167.497L304.871 160.921C305.045 160.876 305.218 160.979 305.263 161.152C305.308 161.326 305.205 161.499 305.032 161.544L280.024 168.121C280.024 168.121 279.966 168.134 279.94 168.134V168.127Z" fill="#231F20"/>
<path d="M274.652 178.713C274.51 178.713 274.382 178.617 274.343 178.475C274.298 178.302 274.395 178.128 274.568 178.083L311.292 167.984C311.459 167.939 311.639 168.035 311.684 168.209C311.729 168.382 311.632 168.556 311.459 168.601L274.735 178.7C274.735 178.7 274.678 178.713 274.652 178.713Z" fill="#231F20"/>
<path d="M279.202 185.079C279.061 185.079 278.932 184.983 278.893 184.841C278.848 184.668 278.951 184.494 279.119 184.449L316.447 174.421C316.614 174.376 316.794 174.479 316.839 174.646C316.884 174.819 316.781 174.993 316.614 175.038L279.286 185.066C279.286 185.066 279.228 185.079 279.202 185.079Z" fill="#231F20"/>
<path d="M276.474 193.255C276.333 193.255 276.204 193.165 276.166 193.023C276.114 192.85 276.217 192.676 276.384 192.625L288.132 189.205C288.306 189.153 288.48 189.256 288.531 189.423C288.583 189.597 288.48 189.77 288.312 189.822L276.565 193.242C276.565 193.242 276.507 193.255 276.474 193.255Z" fill="#231F20"/>
<path d="M285.566 199.614C285.418 199.614 285.289 199.518 285.25 199.37C285.212 199.196 285.315 199.023 285.488 198.984L315.495 191.713C315.669 191.668 315.842 191.778 315.881 191.951C315.92 192.125 315.817 192.298 315.643 192.337L285.636 199.608C285.636 199.608 285.585 199.614 285.559 199.614H285.566Z" fill="#231F20"/>
<path d="M202.98 167.926V186.569H211.679L208.893 167.926H202.98Z" fill="white"/>
<path d="M212.053 186.89H202.66V167.598H209.171L212.053 186.89ZM203.304 186.247H211.307L208.618 168.241H203.304V186.247Z" fill="#231F20"/>
<path d="M372.949 99.1864L373.753 109.35L402.846 103.899L398.304 87.5443L390.121 82.0929L376.481 79.3672L372.949 99.1864Z" fill="white"/>
<path d="M373.465 109.73L372.629 99.1675L376.225 78.9883L390.302 81.8233L398.582 87.339L403.253 104.143L373.465 109.723V109.73ZM373.279 99.1997L374.051 108.965L402.449 103.642L398.029 87.744L390 82.3954L376.746 79.7469L373.279 99.1997Z" fill="#231F20"/>
<path d="M257.965 289.114V300.923C257.965 303.044 259.593 304.812 261.703 304.992L332.84 311.035C332.84 311.035 368.302 314.667 374.665 305.584L381.941 307.403H421.039C421.039 307.403 429.222 307.403 429.222 291.962V281.965C429.222 281.965 425.774 280.474 414.315 280.313C414.315 280.313 410.005 285.674 401.886 284.729C401.886 284.729 387.404 281.972 364.673 286.51C364.673 286.51 355.583 291.055 342.85 286.51C342.85 286.51 328.304 281.965 294.662 281.059C294.662 281.059 267.384 281.965 261.928 280.152L257.965 289.12V289.114Z" fill="#E6E7E8"/>
<path d="M348.261 312.095C340.238 312.095 333.438 311.42 332.808 311.355L261.671 305.312C259.367 305.12 257.637 303.23 257.637 300.922L257.662 288.984L261.741 279.746L262.018 279.836C267.358 281.617 294.366 280.736 294.637 280.73C327.957 281.63 342.786 286.149 342.934 286.194C355.383 290.636 364.429 286.258 364.513 286.213L364.59 286.188C387.12 281.688 401.783 284.375 401.924 284.407C409.735 285.313 414 280.158 414.045 280.106L414.142 279.984H414.296C425.69 280.145 429.184 281.604 429.325 281.668L429.518 281.752V291.954C429.518 307.543 421.36 307.717 421.013 307.717L381.838 307.704L374.774 305.942C370.985 310.963 358.594 312.088 348.235 312.088L348.261 312.095ZM258.28 289.183V300.928C258.28 302.902 259.76 304.509 261.729 304.676L332.865 310.719C333.226 310.757 368.212 314.229 374.401 305.402L374.53 305.222L381.98 307.087H421.039C421.116 307.087 428.901 306.868 428.901 291.967V282.195C428.032 281.9 424.127 280.788 414.457 280.64C413.736 281.443 409.349 285.924 401.841 285.05C401.673 285.018 387.14 282.356 364.763 286.818C364.075 287.139 355.01 291.195 342.735 286.818C342.6 286.779 327.841 282.279 294.643 281.385C293.562 281.424 268.111 282.247 262.102 280.543L258.28 289.19V289.183Z" fill="#231F20"/>
<path d="M370.12 305.904C370.12 305.904 370.107 305.904 370.101 305.904C369.921 305.891 369.792 305.743 369.799 305.563C369.985 302.593 369.078 299.99 367.109 297.811C361.01 291.073 346.618 290.463 346.47 290.463L263.727 286.831C263.547 286.824 263.412 286.67 263.418 286.496C263.425 286.323 263.579 286.181 263.753 286.188L346.49 289.82C347.088 289.839 361.293 290.443 367.579 297.38C369.67 299.688 370.635 302.458 370.436 305.602C370.423 305.776 370.281 305.904 370.114 305.904H370.12Z" fill="#231F20"/>
<path d="M418.308 289.557C418.231 289.557 418.16 289.531 418.096 289.48C411.913 284.183 404.463 285.199 404.386 285.205C404.206 285.231 404.045 285.109 404.019 284.935C403.993 284.761 404.116 284.594 404.289 284.569C404.366 284.556 412.106 283.508 418.508 288.991C418.643 289.107 418.656 289.313 418.54 289.441C418.475 289.519 418.385 289.551 418.295 289.551L418.308 289.557Z" fill="#231F20"/>
<path d="M210.098 265.929C210.008 265.929 209.918 265.89 209.853 265.813C209.738 265.678 209.757 265.473 209.892 265.363L244.441 236.293C244.859 235.953 254.606 228.039 261.014 228.039C261.194 228.039 261.335 228.18 261.335 228.36C261.335 228.54 261.194 228.682 261.014 228.682C254.838 228.682 244.949 236.705 244.852 236.788L210.304 265.858C210.246 265.91 210.169 265.935 210.098 265.935V265.929Z" fill="#231F20"/>
<path d="M211.011 358.599C210.979 358.599 210.941 358.599 210.908 358.58C210.741 358.522 210.651 358.342 210.709 358.175C210.973 357.39 237.19 279.836 246.197 264.543C246.287 264.389 246.487 264.337 246.634 264.427C246.782 264.517 246.84 264.716 246.75 264.864C237.782 280.106 211.584 357.596 211.32 358.381C211.275 358.516 211.153 358.599 211.018 358.599H211.011Z" fill="#231F20"/>
<path d="M261.927 280.465C261.927 280.465 261.895 280.465 261.876 280.465L250.964 278.645C250.791 278.613 250.668 278.453 250.7 278.273C250.726 278.099 250.893 277.977 251.074 278.009L261.985 279.828C262.159 279.86 262.281 280.021 262.249 280.201C262.223 280.355 262.088 280.471 261.934 280.471L261.927 280.465Z" fill="#231F20"/>
<path d="M330.115 275.019C330.115 275.019 330.089 275.019 330.07 275.019L274.117 267.51C271.485 267.157 269.002 265.871 267.117 263.891C266.338 263.075 265.644 262.663 265.052 262.663C264.35 262.663 263.816 263.235 263.34 263.737C263.244 263.84 263.154 263.936 263.064 264.026C261.507 265.845 260.104 266.623 258.927 266.315C257.383 265.91 256.656 263.827 256.321 262.149C256.128 261.204 255.819 260.381 255.395 259.712C254.565 258.395 253.645 257.752 252.68 257.765C250.499 257.822 248.594 261.197 248.575 261.236C248.491 261.39 248.292 261.448 248.138 261.358C247.983 261.275 247.925 261.075 248.015 260.921C248.099 260.767 250.119 257.192 252.667 257.122C253.883 257.096 254.983 257.842 255.948 259.372C256.411 260.111 256.752 260.998 256.958 262.027C257.158 263.017 257.762 265.35 259.101 265.697C260.008 265.935 261.224 265.209 262.607 263.595C262.71 263.492 262.8 263.396 262.89 263.3C263.424 262.734 264.093 262.02 265.065 262.02C265.856 262.02 266.686 262.49 267.599 263.454C269.382 265.331 271.73 266.546 274.213 266.88L330.167 274.389C330.34 274.415 330.469 274.575 330.443 274.749C330.424 274.91 330.282 275.025 330.122 275.025L330.115 275.019Z" fill="#231F20"/>
<path d="M205.87 371.445V377.23C196.78 377.23 195.557 384.623 195.557 384.623L188.712 384.135C182.008 383.665 176.218 379.236 174.043 372.885C173.831 372.274 173.734 371.901 173.734 371.901C177.369 365.543 181.011 355.547 181.011 355.547C191.015 366.45 205.877 371.438 205.877 371.438L205.87 371.445Z" fill="white"/>
<path d="M195.821 384.963L188.68 384.449C181.815 383.966 175.947 379.466 173.734 372.986C173.522 372.363 173.419 371.984 173.419 371.984L173.387 371.855L173.451 371.739C177.035 365.478 180.663 355.533 180.702 355.436L180.882 354.941L181.242 355.334C191.073 366.044 205.825 371.084 205.973 371.135L206.192 371.206V377.544H205.87C197.172 377.544 195.924 384.378 195.872 384.673L195.821 384.963ZM174.075 371.945C174.12 372.099 174.21 372.389 174.345 372.781C176.481 379.016 182.124 383.343 188.731 383.812L195.3 384.281C195.647 382.906 197.597 377.062 205.549 376.908V371.669C203.683 371 190.397 366.018 181.126 356.15C180.348 358.226 177.208 366.436 174.082 371.945H174.075Z" fill="#231F20"/>
<path d="M211.918 398.25H132.816V404.608H211.918V398.25Z" fill="white"/>
<path d="M212.241 404.93H132.496V397.93H212.241V404.93ZM133.139 404.288H211.598V398.573H133.139V404.288Z" fill="#231F20"/>
<path d="M177.368 231.088C177.368 231.088 165.549 238.359 157.366 242.898C157.366 242.898 156.639 250.188 165.633 252.361C167.19 252.733 168.792 252.862 170.394 252.804C173.714 252.682 182.656 253.248 181.91 262.884L191.914 255.613C191.914 255.613 189.186 239.259 177.368 231.082V231.088Z" fill="white"/>
<path d="M181.538 263.553L181.59 262.859C181.815 259.921 181.133 257.607 179.563 255.974C176.996 253.3 172.718 253.036 170.402 253.126C168.677 253.19 167.05 253.036 165.557 252.676C156.389 250.465 157.032 242.943 157.045 242.866L157.065 242.699L157.213 242.615C165.293 238.128 177.086 230.883 177.202 230.812L177.382 230.703L177.556 230.825C189.349 238.983 192.212 255.402 192.237 255.569L192.27 255.762L181.545 263.553H181.538ZM171.109 252.47C173.625 252.47 177.549 252.94 180.033 255.53C181.609 257.17 182.362 259.42 182.272 262.229L191.562 255.479C191.208 253.627 188.101 239.035 177.356 231.475C175.844 232.4 165.216 238.906 157.676 243.097C157.624 244.19 157.74 250.13 165.711 252.052C167.153 252.4 168.722 252.547 170.382 252.483C170.607 252.477 170.852 252.47 171.109 252.47Z" fill="#231F20"/>
<path d="M100.083 192.492C99.9033 192.492 99.7617 192.35 99.7617 192.17V172.943C99.7617 172.763 99.9033 172.621 100.083 172.621C100.264 172.621 100.405 172.763 100.405 172.943V192.17C100.405 192.35 100.264 192.492 100.083 192.492Z" fill="#231F20"/>
<path d="M357.75 51.6575L357.744 51.6595C350.332 54.0286 346.246 61.9527 348.617 69.3583L355.241 90.0475C357.612 97.4532 365.543 101.536 372.954 99.1669L372.96 99.1649C380.372 96.7958 384.458 88.8718 382.087 81.4661L375.463 60.7769C373.092 53.3713 365.162 49.2884 357.75 51.6575Z" fill="white"/>
<path d="M368.642 100.186C366.377 100.186 364.126 99.6458 362.054 98.5786C358.631 96.8172 356.103 93.8279 354.926 90.1637L348.305 69.4766C347.134 65.8123 347.456 61.9101 349.219 58.4901C350.982 55.0702 353.973 52.5437 357.641 51.3673C361.308 50.1973 365.213 50.5187 368.636 52.2802C372.058 54.0416 374.587 57.0309 375.764 60.6951L382.384 81.3822C383.555 85.0465 383.234 88.9487 381.471 92.3687C379.708 95.7887 376.716 98.3151 373.049 99.4915C371.602 99.9544 370.115 100.186 368.642 100.186ZM362.054 51.3223C360.645 51.3223 359.223 51.5409 357.846 51.9844C354.34 53.103 351.484 55.5202 349.798 58.7859C348.112 62.0516 347.804 65.7801 348.923 69.2837L355.543 89.9708C356.663 93.4744 359.082 96.3287 362.35 98.0129C365.618 99.6972 369.35 100.006 372.856 98.8872C376.362 97.7687 379.219 95.3515 380.905 92.0858C382.59 88.8201 382.899 85.0915 381.78 81.588L375.159 60.9009C374.04 57.3973 371.621 54.543 368.353 52.8587C366.371 51.8366 364.222 51.3223 362.061 51.3223H362.054Z" fill="#231F20"/>
<path d="M358.303 70.2854L342.849 54.844C342.849 54.844 333.759 44.8476 354.668 39.4026C354.668 39.4026 350.119 33.0448 364.672 35.7705C364.672 35.7705 373.763 28.4998 379.219 35.7705C379.219 35.7705 397.4 33.9512 397.4 58.4826C397.4 58.4826 396.493 74.8369 398.307 87.5525C398.307 87.5525 379.457 102.21 366.152 78.5268L358.303 70.2919V70.2854Z" fill="white"/>
<path d="M385.092 92.3464C383.954 92.3464 382.776 92.2435 381.58 91.9992C375.429 90.7585 370.153 86.2907 365.882 78.7114L358.065 70.5085L342.611 55.0671C342.482 54.9257 339.684 51.795 340.816 47.9829C341.935 44.2286 346.42 41.2714 354.159 39.195C353.825 38.5779 353.323 37.3307 353.992 36.2829C355.06 34.6115 358.618 34.3222 364.576 35.4215C365.354 34.83 369.677 31.7186 374.072 32.2779C376.163 32.5415 377.938 33.6022 379.354 35.4279C380.473 35.3572 386.308 35.2157 391.159 39.6C395.509 43.5343 397.715 49.8793 397.715 58.4743C397.709 58.6543 396.827 74.9571 398.622 87.4992L398.648 87.6856L398.5 87.8014C398.436 87.8528 392.549 92.3464 385.092 92.3464ZM358.586 35.3957C356.006 35.3957 354.944 35.9872 354.539 36.6236C353.857 37.6843 354.912 39.195 354.925 39.2079L355.195 39.5872L354.745 39.7029C346.986 41.7279 342.508 44.5757 341.44 48.1629C340.411 51.6279 343.055 54.5914 343.081 54.6171L358.534 70.0585L366.428 78.3578C370.604 85.7892 375.744 90.1606 381.708 91.3628C389.789 92.9892 396.86 88.1871 397.96 87.3899C396.19 74.8092 397.065 58.6093 397.072 58.4421C397.072 50.0593 394.936 43.8686 390.728 40.0629C385.665 35.4857 379.302 36.0579 379.238 36.0643L379.058 36.0836L378.948 35.9357C377.623 34.1679 375.957 33.1457 373.994 32.895C369.517 32.3293 364.904 35.955 364.859 35.9936L364.743 36.0836L364.595 36.0579C361.996 35.5693 360.046 35.3765 358.579 35.3765L358.586 35.3957Z" fill="#231F20"/>
<path d="M364.53 79.9092C366.658 79.151 367.427 75.8551 366.247 72.5477C365.067 69.2402 362.385 67.1736 360.257 67.9318C358.128 68.69 357.359 71.9859 358.539 75.2934C359.719 78.6009 362.401 80.6675 364.53 79.9092Z" fill="white"/>
<path d="M363.622 80.383C361.557 80.383 359.292 78.3708 358.231 75.4009C357.639 73.7423 357.497 72.0323 357.838 70.5794C358.186 69.0816 359.009 68.0273 360.142 67.6223C361.28 67.2173 362.574 67.513 363.796 68.4516C364.973 69.358 365.951 70.7723 366.543 72.4309C367.778 75.9023 366.923 79.3866 364.632 80.203C364.304 80.3187 363.963 80.3766 363.622 80.3766V80.383ZM361.171 68.0916C360.888 68.0916 360.618 68.1366 360.36 68.233C359.44 68.5609 358.765 69.448 358.469 70.7273C358.16 72.058 358.289 73.6394 358.842 75.1823C359.962 78.3194 362.464 80.3058 364.42 79.6051C366.376 78.9108 367.058 75.7866 365.945 72.6559C365.398 71.113 364.497 69.8016 363.41 68.9659C362.664 68.3873 361.892 68.0916 361.177 68.0916H361.171Z" fill="#231F20"/>
<path d="M211.917 398.249H132.815C131.908 391.891 151.91 388.253 151.91 388.253C163.729 384.621 173.733 371.898 173.733 371.898C173.733 371.898 173.836 372.271 174.042 372.882C176.217 379.233 182.007 383.656 188.711 384.132L193.89 384.505C194.797 384.569 195.627 384.003 195.91 383.136C196.47 381.381 197.879 378.533 201.295 377.189C204.248 376.032 207.529 377.331 209.022 380.121C212.509 386.633 211.923 398.249 211.923 398.249H211.917Z" fill="#FFB669"/>
<path d="M212.22 398.572H132.532L132.494 398.296C131.555 391.706 151.016 388.094 151.846 387.939C163.395 384.384 173.373 371.829 173.47 371.701L173.869 371.199L174.036 371.816C174.036 371.816 174.132 372.183 174.338 372.774C176.474 379.01 182.117 383.343 188.724 383.806L193.903 384.178C194.669 384.23 195.357 383.761 195.589 383.034C196.129 381.344 197.57 378.296 201.16 376.889C204.216 375.686 207.71 377.017 209.292 379.968C212.779 386.486 212.258 397.788 212.233 398.263L212.22 398.572ZM133.105 397.929H211.602C211.66 396.058 211.814 386.049 208.726 380.276C207.298 377.608 204.152 376.413 201.398 377.493C198.053 378.804 196.708 381.659 196.2 383.24C195.878 384.256 194.913 384.911 193.852 384.834L188.673 384.461C181.808 383.979 175.94 379.479 173.727 372.999C173.676 372.845 173.631 372.704 173.592 372.581C171.63 374.928 162.481 385.348 152.001 388.569C151.769 388.614 132.873 392.118 133.105 397.936V397.929Z" fill="#231F20"/>
<path d="M107.954 247.634C109.743 247.634 112.265 248.097 115.565 249.749C118.589 251.26 121.278 253.343 123.626 255.766C126.663 258.903 133.528 264.702 142.812 264.702C142.812 264.702 161.907 264.702 166.449 277.417C166.449 277.417 169.177 286.501 154.63 282.869L138.109 279.693C129.931 278.125 122.205 274.621 115.835 269.253C110.605 264.843 105.792 258.832 104.808 251.208C104.564 249.299 106.024 247.621 107.954 247.621V247.634Z" fill="#231F20"/>
<path d="M160.57 284.052C158.884 284.052 156.877 283.762 154.561 283.184L138.058 280.015C129.63 278.395 121.878 274.762 115.637 269.51C109.1 264.001 105.35 257.862 104.494 251.26C104.365 250.257 104.668 249.241 105.337 248.489C105.993 247.743 106.952 247.312 107.955 247.312C110.258 247.312 112.864 248.039 115.708 249.46C118.616 250.912 121.356 252.957 123.859 255.541C127.05 258.845 133.761 264.38 142.813 264.38C143.006 264.38 162.184 264.528 166.752 277.315C166.797 277.456 167.64 280.368 165.749 282.348C164.661 283.486 162.931 284.052 160.563 284.052H160.57ZM107.955 247.949C107.138 247.949 106.36 248.296 105.819 248.907C105.279 249.524 105.028 250.347 105.131 251.17C105.961 257.605 109.634 263.609 116.049 269.009C122.206 274.19 129.855 277.777 138.174 279.378L154.696 282.554C159.965 283.872 163.619 283.647 165.285 281.905C166.92 280.195 166.154 277.54 166.148 277.507C161.734 265.165 143.006 265.017 142.819 265.017C133.529 265.017 126.664 259.353 123.402 255.978C120.951 253.445 118.268 251.446 115.431 250.025C112.677 248.65 110.162 247.949 107.962 247.949H107.955Z" fill="#231F20"/>
<path d="M476.503 194.748C476.503 194.748 470.14 206.563 454.68 207.47L366.487 248.349C366.487 248.349 359.211 246.536 353.755 240.172C353.755 240.172 336.313 272.54 311.75 255.575C309.292 253.871 306.384 252.932 303.392 252.81C292.5 252.354 267.184 249.686 266.476 234.72L266.431 233.75L265.562 215.647C265.562 215.647 266.026 209.643 272.884 207.843C275.644 207.116 279.44 207.071 284.658 208.376L312.843 212.008C312.843 212.008 324.662 147.51 344.664 132.063L360.124 120.253C360.124 120.253 361.032 110.257 380.127 104.812C380.127 104.812 413.768 93.6006 428.424 98.9877C430.895 99.9006 432.085 102.813 430.907 105.166C430.296 106.387 429.222 107.795 427.408 109.351C427.408 109.351 441.04 112.983 451.952 123.886L465.668 136.293C471.864 141.885 477.358 148.224 481.881 155.231C490.567 168.699 498.094 187.933 476.503 194.748Z" fill="#FFB669"/>
<path d="M326.039 260.813C321.207 260.813 316.356 259.148 311.563 255.838C309.183 254.186 306.352 253.253 303.373 253.131C292.423 252.675 266.869 249.962 266.148 234.733L265.234 215.659C265.234 215.556 265.794 209.366 272.794 207.527C275.966 206.691 279.98 206.871 284.728 208.061L312.573 211.648C313.487 206.846 325.286 146.61 344.458 131.805L359.809 120.079C359.996 118.774 361.951 109.659 380.024 104.503C381.388 104.046 413.929 93.3236 428.521 98.6851C429.801 99.1544 430.824 100.164 431.332 101.449C431.834 102.716 431.776 104.117 431.184 105.306C430.541 106.592 429.486 107.904 428.044 109.202C430.747 110.031 442.572 114.069 452.164 123.654L465.868 136.048C472.231 141.795 477.706 148.185 482.132 155.051C487.466 163.324 493.147 175.076 489.904 184.056C488.083 189.109 483.638 192.793 476.702 195.004C475.982 196.238 469.336 206.891 454.744 207.778L366.507 248.676L366.397 248.651C366.326 248.631 359.224 246.806 353.8 240.711C352.32 243.257 343.751 257.149 331.057 260.196C329.384 260.595 327.712 260.801 326.032 260.801L326.039 260.813ZM277.137 207.662C275.605 207.662 274.216 207.829 272.961 208.157C266.399 209.88 265.884 215.614 265.878 215.672L266.791 234.707C267.486 249.403 292.622 252.038 303.399 252.488C306.5 252.617 309.446 253.588 311.923 255.311C318.222 259.663 324.611 261.103 330.909 259.586C344.548 256.307 353.375 240.178 353.466 240.017L353.691 239.606L353.993 239.959C358.96 245.751 365.535 247.751 366.449 248.008L454.59 207.154H454.648C469.741 206.267 476.142 194.715 476.207 194.599L476.271 194.483L476.393 194.445C483.2 192.298 487.543 188.736 489.306 183.851C492.458 175.108 486.854 163.562 481.598 155.411C477.198 148.596 471.761 142.245 465.443 136.536L451.727 124.129C440.995 113.406 427.453 109.704 427.317 109.665L426.726 109.511L427.189 109.112C428.791 107.736 429.942 106.367 430.611 105.03C431.126 104.001 431.171 102.786 430.74 101.694C430.296 100.581 429.415 99.7072 428.308 99.2958C413.923 94.0115 380.558 105.011 380.223 105.126C361.591 110.443 360.446 120.195 360.44 120.291L360.427 120.433L360.317 120.516L344.857 132.326C325.183 147.523 313.274 211.429 313.159 212.072L313.101 212.374L284.613 208.703C281.846 208.016 279.35 207.668 277.137 207.668V207.662Z" fill="#231F20"/>
<path d="M265.562 215.646L266.43 233.749C265.813 232.919 259.289 224.074 257.661 218.641C257.443 217.915 257.031 217.266 256.465 216.764C254.914 215.395 251.993 211.84 252.585 204.884C252.701 203.554 252.212 202.242 251.311 201.252L246.293 195.73C244.903 194.207 245.064 191.828 246.653 190.51C247.329 189.944 248.152 189.668 248.976 189.668C249.909 189.668 250.835 190.028 251.543 190.729L259.199 198.385C259.199 198.385 271.095 204.499 272.877 207.803V207.842C266.025 209.642 265.562 215.646 265.562 215.646Z" fill="white"/>
<path d="M266.796 234.789L266.166 233.94C265.432 232.95 258.966 224.143 257.345 218.737C257.146 218.068 256.766 217.47 256.245 217.007C254.502 215.464 251.664 211.832 252.263 204.857C252.366 203.649 251.934 202.414 251.072 201.469L246.054 195.947C245.321 195.144 244.96 194.102 245.038 193.016C245.115 191.929 245.617 190.952 246.453 190.264C247.161 189.673 248.055 189.352 248.981 189.352C250.03 189.352 251.021 189.763 251.774 190.502L259.398 198.127C260.318 198.602 271.396 204.369 273.166 207.654L273.198 207.75L273.249 208.039L272.973 208.155C266.552 209.839 265.928 215.227 265.889 215.657L266.809 234.795L266.796 234.789ZM248.969 189.988C248.197 189.988 247.444 190.258 246.852 190.753C246.151 191.332 245.732 192.154 245.668 193.061C245.604 193.967 245.906 194.842 246.524 195.51L251.542 201.032C252.526 202.112 253.022 203.527 252.9 204.909C252.333 211.607 255.016 215.059 256.67 216.525C257.281 217.065 257.725 217.766 257.963 218.55C259.327 223.089 264.216 230.147 266.05 232.693L265.233 215.644V215.625C265.233 215.567 265.773 209.608 272.394 207.647C270.135 204.401 259.159 198.731 259.044 198.673L258.966 198.615L251.31 190.959C250.68 190.335 249.85 189.994 248.969 189.994V189.988Z" fill="#231F20"/>
<path d="M371.051 274.56L440.11 271.468C445.334 271.237 449.58 267.187 450.063 261.986L456.696 190.14C456.696 190.14 449.876 181.899 446.37 176.512L393.196 177.842C380.644 178.157 370.395 187.98 369.558 200.497L365.087 268.324C364.862 271.744 367.622 274.631 371.051 274.554V274.56Z" fill="white"/>
<path d="M370.927 274.88C369.248 274.88 367.627 274.192 366.462 272.977C365.272 271.73 364.648 270.027 364.764 268.31L369.235 200.482C370.084 187.715 380.385 177.847 393.188 177.526L446.542 176.195L446.638 176.343C450.093 181.653 456.874 189.856 456.945 189.94L457.029 190.042L457.016 190.177L450.383 262.023C449.887 267.359 445.48 271.557 440.127 271.801L371.062 274.893C371.017 274.893 370.972 274.893 370.934 274.893L370.927 274.88ZM446.194 176.838L393.2 178.162C380.732 178.471 370.708 188.088 369.878 200.521L365.407 268.349C365.304 269.892 365.857 271.415 366.932 272.534C368 273.652 369.512 274.263 371.043 274.237L440.095 271.145C445.133 270.92 449.276 266.967 449.739 261.952L456.36 190.242C455.568 189.284 449.482 181.852 446.194 176.838Z" fill="#231F20"/>
<path d="M375.578 267.748C375.578 267.748 375.552 267.748 375.539 267.748C375.365 267.728 375.237 267.568 375.256 267.394L382.532 201.077C382.648 200.524 385.324 188.194 388.992 184.53C389.12 184.401 389.32 184.401 389.448 184.53C389.577 184.659 389.577 184.858 389.448 184.986C385.923 188.509 383.201 201.051 383.169 201.18L375.899 267.465C375.88 267.632 375.745 267.754 375.578 267.754V267.748Z" fill="#231F20"/>
<path d="M390.421 206.782L374.671 305.589C374.671 305.589 370.258 313.117 345.643 311.626L264.855 305.396C264.855 305.396 256.479 308.315 253.751 335.572L252.844 392.806C252.844 392.806 253.751 407.34 275.574 406.434H374.922C377.843 406.434 380.758 406.267 383.659 405.933C389.289 405.277 398.444 403.856 406.499 400.983L416.111 397.55C419.122 396.476 419.829 392.426 417.249 390.536C417.217 390.517 417.191 390.491 417.159 390.472C416.78 390.202 416.284 390.138 415.834 390.253L387.314 397.755C383.756 398.694 380.089 399.163 376.409 399.163H271.032C271.032 399.163 260.12 399.163 260.12 384.628L261.027 335.572C261.027 335.572 261.027 312.86 270.118 312.86L327.397 313.766C327.397 313.766 371.036 316.492 381.041 310.134C381.041 310.134 406.183 312.487 425.793 310.629C429.222 310.301 432.195 308.148 433.597 305.004C434.884 302.131 436.299 297.727 437.412 291.054L449.482 204.912C449.842 202.34 447.989 199.994 445.409 199.73C442.971 199.486 440.777 201.209 440.43 203.632L429.229 281.971C429.229 281.971 431.957 306.502 421.045 307.408H381.948L398.515 208.107C398.901 205.792 397.26 203.626 394.925 203.362C392.75 203.118 390.768 204.629 390.427 206.789L390.421 206.782Z" fill="white"/>
<path d="M273.642 406.787C253.621 406.787 252.514 392.959 252.508 392.818L253.415 335.559C256.136 308.385 264.384 305.209 264.738 305.087L264.803 305.068H264.867L345.654 311.304C368.79 312.711 373.93 306.084 374.355 305.473L390.098 206.737C390.471 204.403 392.601 202.783 394.949 203.04C396.165 203.175 397.246 203.786 397.986 204.763C398.725 205.74 399.021 206.942 398.822 208.151L382.32 307.08H421.037C422.774 306.932 424.274 306.122 425.477 304.656C430.649 298.376 428.919 282.163 428.899 281.996V281.957V281.919L440.1 203.58C440.473 200.977 442.815 199.144 445.434 199.408C446.772 199.543 447.962 200.199 448.792 201.253C449.622 202.307 449.976 203.625 449.789 204.949L437.72 291.092C436.755 296.865 435.468 301.584 433.879 305.126C432.425 308.379 429.33 310.609 425.811 310.944C407.051 312.724 382.937 310.622 381.11 310.455C370.971 316.723 329.145 314.19 327.37 314.081L270.104 313.174C261.438 313.174 261.341 335.34 261.341 335.565L260.434 384.628C260.434 398.648 270.593 398.835 271.024 398.835H376.401C380.049 398.835 383.69 398.366 387.222 397.433L415.742 389.931C416.302 389.783 416.881 389.88 417.332 390.195L417.428 390.266C418.708 391.204 419.332 392.715 419.094 394.303C418.856 395.936 417.75 397.292 416.206 397.838L406.594 401.271C398.687 404.093 389.77 405.527 383.684 406.241C380.808 406.575 377.855 406.742 374.914 406.742H275.566C274.91 406.768 274.266 406.781 273.649 406.781L273.642 406.787ZM264.899 305.711C264.185 306.039 256.612 310.101 254.058 335.591L253.151 392.798C253.19 393.351 254.322 406.98 275.547 406.099H374.908C377.829 406.099 380.756 405.932 383.606 405.598C389.66 404.897 398.526 403.47 406.375 400.667L415.987 397.234C417.306 396.765 418.252 395.601 418.457 394.206C418.657 392.856 418.129 391.571 417.048 390.78L416.965 390.716C416.669 390.51 416.283 390.452 415.91 390.548L387.389 398.051C383.806 398.996 380.106 399.471 376.401 399.471H271.024C270.914 399.471 259.791 399.304 259.791 384.615L260.698 335.552C260.698 334.62 260.807 312.525 270.11 312.525L327.396 313.431C327.846 313.457 371.061 316.08 380.859 309.851L380.949 309.793L381.059 309.806C381.31 309.831 406.394 312.139 425.747 310.301C429.041 309.986 431.93 307.903 433.287 304.862C434.85 301.371 436.124 296.704 437.076 290.989L449.146 204.853C449.307 203.696 448.998 202.558 448.277 201.639C447.557 200.719 446.521 200.154 445.357 200.038C443.085 199.813 441.052 201.401 440.724 203.664L429.53 281.964C429.652 283.076 431.228 298.665 425.959 305.061C424.64 306.662 422.987 307.556 421.05 307.716H381.548L398.172 208.042C398.346 207.007 398.089 205.978 397.458 205.149C396.828 204.313 395.908 203.792 394.865 203.677C392.858 203.452 391.037 204.84 390.722 206.833L374.96 305.698L374.927 305.749C374.741 306.064 370.128 313.431 345.603 311.94L264.886 305.717L264.899 305.711Z" fill="#231F20"/>
<path d="M410.396 138.374C398.474 138.374 391.989 131.084 389.499 127.452C387.518 124.565 385.44 122.27 383.136 120.444C372.051 111.644 363.353 114.492 363.269 114.517C363.102 114.575 362.915 114.485 362.857 114.318C362.8 114.151 362.89 113.964 363.057 113.907C363.147 113.874 372.173 110.917 383.535 119.937C385.89 121.807 388.013 124.141 390.027 127.085C392.96 131.373 401.614 140.887 418.502 136.677C422.761 135.616 426.345 133.424 428.854 130.344C432.264 126.159 434.741 119.152 427.142 109.542C427.033 109.4 427.059 109.201 427.194 109.092C427.335 108.982 427.535 109.008 427.644 109.143C435.506 119.088 432.907 126.384 429.349 130.749C426.75 133.938 423.051 136.201 418.656 137.294C415.652 138.039 412.898 138.367 410.389 138.367L410.396 138.374Z" fill="#231F20"/>
<path d="M406.492 121.481C406.338 121.481 406.203 121.372 406.177 121.218C406.145 121.044 406.261 120.877 406.435 120.845C406.531 120.825 416.426 118.935 424.436 110.045C424.558 109.91 424.758 109.903 424.893 110.019C425.028 110.135 425.034 110.34 424.918 110.475C416.754 119.54 406.653 121.462 406.55 121.481C406.531 121.481 406.512 121.481 406.492 121.481Z" fill="#231F20"/>
<path d="M363.752 176.901C363.585 176.901 363.443 176.773 363.43 176.599C361.642 147.15 341.653 135.264 341.453 135.148C341.299 135.058 341.247 134.865 341.337 134.711C341.427 134.556 341.62 134.505 341.775 134.595C341.981 134.711 362.266 146.751 364.074 176.561C364.087 176.741 363.952 176.889 363.771 176.901C363.765 176.901 363.759 176.901 363.752 176.901Z" fill="#231F20"/>
<path d="M353.752 240.494C353.688 240.494 353.617 240.475 353.559 240.43C353.418 240.321 353.386 240.121 353.495 239.98C361.505 229.309 360.714 217.602 360.707 217.486C359.8 206.635 362.521 200.136 362.554 200.071C366.144 192.004 368.878 182.933 368.904 182.843C368.955 182.676 369.135 182.579 369.303 182.624C369.47 182.676 369.566 182.856 369.521 183.023C369.496 183.113 366.748 192.222 363.146 200.322C363.12 200.38 360.463 206.744 361.351 217.429C361.357 217.551 362.174 229.489 354.016 240.359C353.952 240.443 353.855 240.488 353.759 240.488L353.752 240.494Z" fill="#231F20"/>
<path d="M304.66 236.859C304.59 236.859 304.519 236.834 304.454 236.789C304.319 236.673 304.294 236.474 304.409 236.339C312.426 226.548 312.522 212.154 312.522 212.013C312.522 211.833 312.664 211.691 312.844 211.691C313.024 211.691 313.166 211.833 313.166 212.013C313.166 212.161 313.069 226.779 304.911 236.744C304.847 236.821 304.757 236.859 304.66 236.859Z" fill="#231F20"/>
<path d="M442.852 175.084C442.814 175.084 442.775 175.077 442.73 175.058C442.563 174.994 442.486 174.807 442.55 174.64C447.916 161.23 447.086 143.16 447.073 142.98C447.066 142.8 447.201 142.652 447.375 142.645C447.542 142.632 447.703 142.774 447.71 142.947C447.716 143.127 448.559 161.346 443.142 174.878C443.09 175.007 442.968 175.077 442.846 175.077L442.852 175.084Z" fill="#231F20"/>
<path d="M450.129 166.904C450.077 166.904 450.026 166.891 449.981 166.866C449.826 166.782 449.762 166.589 449.845 166.429C458.795 149.438 458.396 130.564 458.389 130.371C458.389 130.191 458.524 130.043 458.705 130.043C458.872 130.043 459.033 130.178 459.033 130.358C459.033 130.551 459.444 149.592 450.418 166.731C450.36 166.84 450.251 166.904 450.135 166.904H450.129Z" fill="#231F20"/>
<path d="M464.678 198.706C464.601 198.706 464.524 198.681 464.459 198.623C464.331 198.507 451.618 186.64 445.3 174.921C445.216 174.766 445.274 174.567 445.429 174.484C445.583 174.4 445.783 174.458 445.866 174.612C452.133 186.241 464.768 198.031 464.897 198.147C465.026 198.269 465.032 198.469 464.916 198.604C464.852 198.674 464.768 198.706 464.678 198.706Z" fill="#231F20"/>
<path d="M362.693 75.8576C362.557 75.8576 362.435 75.774 362.39 75.639L361.103 71.7819C361.046 71.6147 361.136 71.4283 361.309 71.3769C361.477 71.319 361.657 71.409 361.715 71.5826L363.001 75.4397C363.059 75.6069 362.969 75.7933 362.795 75.8447C362.763 75.8576 362.725 75.864 362.693 75.864V75.8576Z" fill="#231F20"/>
<path d="M350.306 80.8909C349.862 80.8909 349.463 80.6016 349.328 80.1644L347.758 74.938C347.61 74.4495 347.854 73.9159 348.324 73.7102L358.168 69.3516C358.328 69.2809 358.521 69.3516 358.592 69.5123C358.663 69.673 358.592 69.8659 358.431 69.9366L348.588 74.2952C348.414 74.3723 348.324 74.5652 348.375 74.7516L349.945 79.978C350.003 80.1644 350.196 80.2802 350.383 80.2416L352.229 79.8687C352.403 79.8302 352.57 79.9459 352.609 80.1194C352.647 80.293 352.532 80.4602 352.358 80.4987L350.511 80.8716C350.441 80.8844 350.376 80.8909 350.306 80.8909Z" fill="#231F20"/>
</svg>
