<svg xmlns="http://www.w3.org/2000/svg" width="553" height="436" fill="none" viewBox="0 0 553 436">
  <path fill="#6C63FF" d="M231.617 72.275s-32.327 32.306-89.176 46.665c0 0-101.151 27.275-115.517 75.747 0 0-38.906 76.794 25.141 153.378 0 0 89.961 91.006 266.683 76.277a89.567 89.567 0 0 1 5.844-.281c15.273-.166 96.572-3.984 161.884-64.561 31.343-29.069 49.547-69.656 51.055-112.37 2.172-61.516-7.563-159.896-83.254-208.362-.007.006-111.333-83.154-222.66 33.507Z"/>
  <path fill="#fff" d="M231.617 72.275s-32.327 32.306-89.176 46.665c0 0-101.151 27.275-115.517 75.747 0 0-38.906 76.794 25.141 153.378 0 0 89.961 91.006 266.683 76.277a89.567 89.567 0 0 1 5.844-.281c15.273-.166 96.572-3.984 161.884-64.561 31.343-29.069 49.547-69.656 51.055-112.37 2.172-61.516-7.563-159.896-83.254-208.362-.007.006-111.333-83.154-222.66 33.507Z" opacity=".7"/>
  <path fill="#2F2E41" d="m369.374 423.391 71.195-3.627-2.664-19.569h-27.402s-25.927 8.639-41.646 21.906a.738.738 0 0 0 .084 1.175c.129.083.28.123.433.115Z"/>
  <path fill="#000" d="m369.374 423.391 71.195-3.627-2.664-19.569h-27.402s-25.927 8.639-41.646 21.906a.738.738 0 0 0 .084 1.175c.129.083.28.123.433.115Z" opacity=".2"/>
  <path fill="#FF5698" d="m378.138 120.101 13.835 20.239 10.859-3.122a.683.683 0 0 0 .458-.422.685.685 0 0 0-.068-.619l-13.478-20.43a1 1 0 0 0-1.156-.403l-9.913 3.257a1.002 1.002 0 0 0-.64.617 1 1 0 0 0 .103.883Z"/>
  <path fill="#fff" d="m380.559 121.007 11.945 17.009a.691.691 0 0 0 .76.268l7.23-2.126a.69.69 0 0 0 .377-1.047l-11.644-17.29a.681.681 0 0 0-.779-.268l-7.512 2.401a.687.687 0 0 0-.493.752.686.686 0 0 0 .116.301Z"/>
  <path fill="#2F2E41" d="m421.688 427.527 71.201-3.626-2.67-19.569h-27.402s-25.914 8.638-41.64 21.906a.732.732 0 0 0 .08 1.172.73.73 0 0 0 .431.117Z"/>
  <path fill="#2F2E41" d="m496.625 407.001-43.773-1.245-.307-14.729-2.721-130.049-8.106 128.861-.97 15.387-43.416-5.337 2.28-15.407 26.725-180.602 50.538-1.775 7.116 5.868 11.484 180.979 1.15 18.049Z"/>
  <path fill="#000" d="m399.613 384.484.441-3.684 20.057-4.923 28.29-125.924 1.424 11.026-8.106 128.861-42.106-5.356Z" opacity=".3"/>
  <path fill="#000" d="m495.475 388.95-42.93 2.075-2.721-130.048 10.68 121.301 34.716 1.469.255 5.203Z" opacity=".3"/>
  <path fill="#F7C1CD" d="m409.437 157.636-3.43 2.266-8.01-17.96s-.357-2.311-4.982-1.781v-.721l1.623-2.293a1.169 1.169 0 0 0-.435-1.731 1.173 1.173 0 0 0-1.405.276l-1.916 2.158-.894-1.245 2.778-3.467a1.472 1.472 0 0 0-.07-1.915 1.46 1.46 0 0 0-1.691-.362 1.47 1.47 0 0 0-.494.362l-1.673 1.915a.81.81 0 0 1-.787.26.807.807 0 0 1-.599-.573.817.817 0 0 1 .07-.638c.409-.722 1.392-2.727 1.105-4.559a.757.757 0 0 0-1.277-.434 13.978 13.978 0 0 0-2.555 3.588.4.4 0 0 1-.224.2.4.4 0 0 1-.3-.015c-.288-.14-.556-.549-.134-1.711l.964-3.869a1.32 1.32 0 0 0-.779-1.552 1.332 1.332 0 0 0-1.712.664c-1.488 2.739-4.733 10.267 1.143 15.145 0 0 2.849 2.662 3.194 10.132 0 0-1.245 32.728 10.322 33.794 0 0 9.153 1.334 22.011-7.661l-2.433-13.261 1.239-4.84-8.649-.172Z"/>
  <path fill="#F28EA2" d="M406 159.904a50.726 50.726 0 0 1 2.504 8.976v-10.63L406 159.904Z"/>
  <path fill="#6C63FF" d="M504.052 162.385a2.76 2.76 0 0 1-1.712 2.49 4.524 4.524 0 0 1-5.008-.836c2.491 5.516.179 7.119.179 7.119-2.67 1.245-6.049-.537-6.049-.537a4.519 4.519 0 0 1-.358 3.735 5.937 5.937 0 0 1-5.161-.536c1.425 4.469-2.67 4.808-2.67 4.808-1.424-.358-1.776 1.774-1.776 1.774l-4.273 27.391c-1.066 3.645-4.471 4.826-5.436 5.107l-.255.064c-6.055 0-8.189-4.622-8.189-4.622-6.585 9.423-12.098.53-12.098.53-5.518 8.542-10.501-1.245-10.501-1.245-5.339 7.297-10.143-1.954-10.143-1.954-8.54 4.271-11.74 1.954-11.74 1.954-3.737-2.682 5.334-12.259 5.334-12.259 1.245-8.357-1.067-19.562-1.067-19.562-5.87 1.423-6.937-2.848-6.937-2.848-6.943-6.385.358-13.338.358-13.338-6.764-.006-7.116-1.985-7.116-1.985-2.849-5.331 1.782-6.576 1.782-6.576.409-.173.824-.345 1.227-.524a66.561 66.561 0 0 0 13.183-8.019c12.635-10.669 20.108-9.424 20.108-9.424l17.087-.536c28.826-1.066 38.791 24.37 38.791 24.37 1.992 2.362 2.459 4.214 2.44 5.459Z"/>
  <path fill="#F69074" d="M328.716 20.777H172.613c-11.313 0-20.484 9.168-20.484 20.476v352.744c0 11.309 9.171 20.476 20.484 20.476h156.103c11.314 0 20.485-9.167 20.485-20.476V41.253c0-11.308-9.171-20.476-20.485-20.476Z"/>
  <path fill="#E6F5FE" d="M339.677 63.694v293.89a27.179 27.179 0 0 1-7.96 19.225 27.19 27.19 0 0 1-19.232 7.961H189.846a27.207 27.207 0 0 1-19.232-7.962 27.183 27.183 0 0 1-7.966-19.224V63.694c0-7.21 2.866-14.125 7.966-19.224a27.206 27.206 0 0 1 19.232-7.962h19.086l6.898 11.569h77.927l4.842-11.57h13.874a27.202 27.202 0 0 1 19.237 7.96 27.184 27.184 0 0 1 7.967 19.227Z"/>
  <path fill="#F7C1CD" d="M295.726 167.692c0-24.51-19.877-44.38-44.396-44.38-24.52 0-44.396 19.87-44.396 44.38v20.801c0 24.51 19.876 44.38 44.396 44.38 24.519 0 44.396-19.87 44.396-44.38v-20.801Z"/>
  <path fill="#4B1713" d="M236.118 108.905s1.425-14.94 32.385-3.193c0 0 50.179 16.185 46.443 55.138 0 0-6.586 80.925 11.21 107.262l-25.946-5-23.493-11.205s-13.063-4.016-10.891-21.484c0 0 17.374-4.38 26.233-24.083 0 0 3.52-6.901 3.699-17.838l-.039-11.205s-16.498 3.096-19.06-14.896a23.857 23.857 0 0 0-4.075-10.445c-4.113-5.829-11.497-11.32-21.519 1.041 0 0-2.395-7.981-9.466-8.058a9.707 9.707 0 0 0-7.883 4.016c-4.362 5.932-16.396 21.242-26.642 24.434l-.121 15.113s-.99 28.418 26.374 40.402c0 0 3.162 17.136-8.943 21.937 0 0-14.767 6.583-37.724 13.159 0 0 8.368-38.595 4.804-68.316-.013.02-20.281-84.111 44.654-86.779Z"/>
  <path fill="#000" d="M201.89 174.015s-4.382-38.251 20.35-41.807c0 0 19.392-30.237 60.502-10.675 0 0-7.473-.351-13.528 1.277 0 0 44.13 7.119 36.478 49.449 0 0-9.223 66.675 1.437 92.654l-6.917-1.801-26.911-12.565s-9.823-6.384-7.473-20.124c0 0 29.223-8.038 29.932-41.922l-.039-11.205s-16.607 3.563-19.06-14.895a20.363 20.363 0 0 0-4.075-10.445s-6.956-11.493-16.55-3.722c0 0-1.916 1.206-4.969 4.763 0 0-2.338-8.818-11.044-7.962a9.038 9.038 0 0 0-6.305 3.92s-14.582 20.635-26.642 24.434l-2.184.243a8.41 8.41 0 0 0-3.002.383Z" opacity=".3"/>
  <path fill="#6C63FF" d="m201.667 259.402-39.034 9.577v90.004s1.807 25.833 27.23 25.788h122.639s25.236.772 27.191-27.186l.166-86.077s-29.536-6.436-39.647-8.396l-98.545-3.71Z"/>
  <path fill="#000" d="M169.869 376.017a27.101 27.101 0 0 1-7.205-18.433v-7.706l14.551-31.444c-.345.798-13.804 33.244-7.346 57.583Zm169.81-23.938v5.503a27.115 27.115 0 0 1-2.22 10.78 27.12 27.12 0 0 1-6.32 9.013c7.665-24.735-7.237-60.233-7.799-61.555l16.339 36.259Zm-52.133 43.359h-65.663v8.006h65.663v-8.006Z" opacity=".3"/>
  <path fill="#000" d="M272.771 30.11h-52.134v6.933h52.134V30.11Zm15.124-.172h-8.719v7.29h8.719v-7.29Z" opacity=".2"/>
  <path fill="#F29D46" d="M330.602 33.137v32.561a170.02 170.02 0 0 0 24.023 1.603c7.5-.038 14.99-.573 22.42-1.603V33.137h-46.443Zm25.626 17.634v8.064a2.402 2.402 0 0 1-4.803 0V50.77a5.955 5.955 0 0 1-1.354-10.077 5.962 5.962 0 0 1 9.587 3.399 5.955 5.955 0 0 1-3.43 6.678ZM334.16 30.647h5.34v-1.692a14.31 14.31 0 0 1 8.845-13.227 14.323 14.323 0 0 1 5.482-1.087 14.323 14.323 0 0 1 14.321 14.314v1.513h5.34v-.798a19.653 19.653 0 0 0-5.758-13.898 19.672 19.672 0 0 0-13.903-5.76 19.68 19.68 0 0 0-13.905 5.76 19.66 19.66 0 0 0-5.762 13.898v.977Z"/>
  <path stroke="#fff" stroke-miterlimit="10" stroke-width="5" d="M176.504 123.843v-22.761h23.665m105.081 0h22.771v23.655m0 105.294v22.761h-23.666m-105.073 0h-22.778v-23.655"/>
  <path fill="#FFB669" d="M25.437 170.979s30.608-4.469 51.783-28.284c0 0 11.21 17.239 49.822 28.463v52.469s-3.028 41.443-50.889 62.959c0 0-49.113-21.708-50.895-67.76l.179-47.847Z"/>
  <path fill="#fff" d="M33.797 179.875s27.23-2.848 42.355-24.191c0 0 17.08 19.211 42.879 23.297l.179 40.555s-.53 34.682-42.707 56.185c0 0-42.348-20.807-42.348-57.985l-.358-37.861Z" opacity=".35"/>
  <path fill="#fff" d="M77.218 236.786c12.679 0 22.957-10.153 22.957-22.678S89.897 191.43 77.218 191.43c-12.678 0-22.956 10.153-22.956 22.678s10.278 22.678 22.956 22.678Z"/>
  <path fill="#F69074" d="M56.21 212.609s11.569 6.385 11.569 16.536l9.434.536s7.825-19.562 29.714-31.661l-2.491-4.469s-15.33 4.265-30.609 21.165a16.306 16.306 0 0 0-9.242-9.769l-8.374 7.662Z"/>
  <path fill="#F7C1CD" d="m448.047 125.088.351 6.583-2.67 1.424s-2.842 3.913-2.491 10.496l15.841 2.841 8.361-12.271-4.624-1.596s-2.67-4.629-1.425-12.099l-5.87-1.603-7.473 6.225Z"/>
  <path fill="#F28EA2" d="m448.047 125.086.313 5.172s4.969-1.003 6.866-5.485l-7.179.313Zm-2.318 8.008s-2.491 7.827.716 9.96l11.21.715 9.785-9.609-8.361 12.271-15.841-2.841s-.888-5.874 2.491-10.496Z"/>
  <path fill="#fff" d="M502.347 164.875a4.541 4.541 0 0 1-5.015-.836c2.492 5.516.179 7.118.179 7.118-2.67 1.245-6.049-.536-6.049-.536a4.52 4.52 0 0 1-.357 3.735 5.952 5.952 0 0 1-5.161-.53c1.424 4.47-2.67 4.802-2.67 4.802-1.418-.358-1.776 1.774-1.776 1.774l-4.273 27.39c-1.061 3.646-4.471 4.827-5.436 5.108 5.199-15.961 3.481-44.054 3.481-44.054a20.668 20.668 0 0 0 3.379 2.841c4.982 2.848 6.943-2.841 6.943-2.841 2.313 1.066 3.022 1.066 3.022 1.066 6.387.352 4.803-8.542 4.803-8.542 4.094 1.96 6.049 1.96 6.049 1.96 4.81 0 2.14-6.385 2.14-6.385 2.056 2.433 2.491 4.316 2.44 5.568a2.718 2.718 0 0 1-1.699 2.362Z" opacity=".3"/>
  <path fill="#9891FF" d="M512.46 238.746s-13.165 4.469-37.188 3.192c0 0-10.68 1.96-12.635-18.515 0 0-.938-13.612-1.207-27.639 0-1.392-.044-2.791-.057-4.176a177.84 177.84 0 0 1 .549-17.807s1.08-31.067 6.592-41.149c2.019.13 4.026.409 6.004.837 0 0-7.435 26.611-3.34 51.715l30.781 1.603s5.308 3.313 5.953 15.202a48.296 48.296 0 0 1-.077 6.32s-.153 5.683 3.392 12.936c.319.638.639 1.328 1.054 2.004-.007 0 7.122 14.053.179 15.477Z"/>
  <mask id="a" width="55" height="111" x="461" y="132" maskUnits="userSpaceOnUse" style="mask-type:luminance">
    <path fill="#fff" d="M512.46 238.746s-13.165 4.469-37.188 3.192c0 0-10.68 1.96-12.635-18.515 0 0-.938-13.612-1.207-27.639 0-1.392-.044-2.791-.057-4.176a177.84 177.84 0 0 1 .549-17.807s1.08-31.067 6.592-41.149c2.019.13 4.026.409 6.004.837 0 0-7.435 26.611-3.34 51.715l30.781 1.603s5.308 3.313 5.953 15.202a48.296 48.296 0 0 1-.077 6.32s-.153 5.683 3.392 12.936c.319.638.639 1.328 1.054 2.004-.007 0 7.122 14.053.179 15.477Z"/>
  </mask>
  <g mask="url(#a)">
    <path fill="#fff" d="M511.225 221.264c-11.178-4.469-15.847-.128-15.847-.128-5.698 3.914-10.322 3.556-10.322 3.556-12.635.179-15.483-17.966-15.483-17.966-1.361-7.138-5.398-9.877-8.144-10.918 0-1.391-.045-2.79-.058-4.175 5.627.977 9.696 5.395 12.008 8.683a10.068 10.068 0 0 0 7.927 4.265c9.198.262 20.97-1.571 26.604-2.554a48.137 48.137 0 0 1-.077 6.321s-.153 5.663 3.392 12.916Z" opacity=".3"/>
  </g>
  <path fill="#6C63FF" d="m441.718 389.841-.97 15.387-43.416-5.338 2.28-15.406 42.106 5.357Zm54.905 17.161-43.773-1.245-.307-14.729 42.93-2.075 1.15 18.049Z"/>
  <path fill="#fff" d="M423.129 175.78c-5.87 1.424-6.937-2.848-6.937-2.848-6.943-6.384.358-13.337.358-13.337-6.764.019-7.116-1.96-7.116-1.96-2.849-5.331 1.782-6.576 1.782-6.576.409-.173.824-.345 1.227-.524.69 2.024 2.555 4.769 7.479 6.385 0 0-4.669 11.69 1.38 13.65 0 0-1.277-8.364 3.916-9.96a29.129 29.129 0 0 0-2.089 15.17Z" opacity=".3"/>
  <path fill="#F7C1CD" d="M462.638 102.327v10.682a12.82 12.82 0 0 1-12.813 12.769h-1.066a12.815 12.815 0 0 1-12.814-12.769v-10.682c0-3.397 1.35-6.654 3.753-9.056a12.817 12.817 0 0 1 9.061-3.752h1.066a12.822 12.822 0 0 1 9.061 3.752 12.82 12.82 0 0 1 3.752 9.056Z"/>
  <path fill="#4B1713" d="M477.617 107.656s-.345 1.801-.729 4.559c-.811 5.746-1.807 15.629-.319 22.033a45.828 45.828 0 0 0-13.752-1.692s-2.619-4.578-1.424-12.092l2.714-5.37-1.277-4.948s-14.129-3.779-15.905-13.74c0 0-9.147-.976-10.98 5.919v10.682s-.038 11.428 12.136 12.807l.313 5.868-2.67 1.423s-7.064-1.551-20.108 9.424l-1.124.868s5.519-34.885 6.764-45.375c0 0-1.635-5.746 8.349-8.492l8.431-3.103 4.746-1.75s8.304-2.413 10.642 3.066c.012-.013 16.237-3.16 14.193 19.913Z"/>
  <path fill="#000" d="M477.614 107.657s-.345 1.801-.728 4.559c.422-22.078-13.452-20.265-13.452-20.265-6.03-7.068-15.234-5.56-15.387-5.535l4.746-1.75s8.303-2.413 10.641 3.065c0 0 16.224-3.148 14.18 19.926Z" opacity=".3"/>
  <path fill="#F7C1CD" d="M468.838 116.162a6.017 6.017 0 0 1-5.749 6.008l-4.624.229a12.764 12.764 0 0 0 4.171-9.391v-2.848h.211a6.019 6.019 0 0 1 5.991 6.002Zm35.77 89.856s-17.438 6.046-39.679-16.364c0 0-5.11.485-8.048-1.826-1.412-1.117-2.319-2.873-1.916-5.644a2.438 2.438 0 0 1 1.603-3.377s-.831-5.925 3.34-6.5a6.039 6.039 0 0 1 1.993.096c.122.032 3.022.843 3.022-1.245 0 0 0-6.225 3.557-4.98 0 0-.108 4.469.524 7.151a3.473 3.473 0 0 0 1.763 2.292l16.933 9.053-3.066-6.697s2.351-.415 1.278-4.15a5.201 5.201 0 0 0 5.161.53s1.066-1.067.357-3.735c0 0 3.558 1.781 6.049.536 0 0 2.313-1.245-.178-7.119a4.725 4.725 0 0 0 5.014.836s16.192 36.878 2.293 41.143Z"/>
  <path fill="#F28EA2" d="M457.296 181.468c-1.82 1.692-.983 4.802-.396 6.385-1.411-1.117-2.318-2.873-1.916-5.644a2.433 2.433 0 0 1 1.603-3.377s-.83-5.925 3.341-6.5v.032a17.786 17.786 0 0 0-2.632 9.104Zm11.209-15.288c-1.603 0-2.312 5.159-2.312 5.159-1.399 3.492-4.165 1.156-4.267 1.066.121.032 3.021.843 3.021-1.245 0 0 0-6.225 3.558-4.98Zm19.22 18.497a92.42 92.42 0 0 1 12.986 6.934s-2.134-8-14.691-10.58l1.705 3.646Z"/>
  <path fill="#F7C1CD" d="m300.209 263.109-9.255 32.906-79.365 1.066-9.894-37.669 22.708-8.562c12.276-4.271 8.942-21.944 8.942-21.944 16.231 7.943 32.487 1.526 32.487 1.526-2.555 15.694 9.364 20.903 9.364 20.903l25.013 11.774Z"/>
  <path fill="#F28EA2" d="m300.209 263.111-9.255 32.906-79.365 1.066-9.894-37.669c.186.281 11.875 18.017 14.168 28.092 0 0 .709 4.47 6.585 4.623l49.286.179s9.434.178 12.813-5.517l15.662-23.68Zm-66.9-34.209s.869 6.755-.383 11.588c0 0 20.618 13.153 33.349-.344a21.473 21.473 0 0 1-.479-9.724s-14.302 6.448-32.487-1.52Z"/>
  <path fill="#F7C1CD" d="M288.074 178.98h5.43c3.657 0 7.165 1.453 9.751 4.038a13.782 13.782 0 0 1-9.751 23.531h-5.43V178.98Zm-77.762 22.219h-5.429a13.793 13.793 0 0 1-9.751-4.037 13.782 13.782 0 0 1 0-19.494 13.794 13.794 0 0 1 9.751-4.038h5.429v27.569Z"/>
  <path fill="#fff" d="M321.173 107.836H182.91v138.553h138.263V107.836Z" opacity=".35"/>
  <path fill="#2F2E41" d="M321.533 174H185.762v2.669h135.771V174Z"/>
  <path fill="#2F2E41" d="M321.706 179.876a4.802 4.802 0 1 0 0-9.603 4.803 4.803 0 0 0-4.804 4.802 4.803 4.803 0 0 0 4.804 4.801Zm-138.438 0a4.803 4.803 0 0 0 4.804-4.801 4.803 4.803 0 0 0-9.607 0 4.802 4.802 0 0 0 4.803 4.801Z"/>
  <path fill="#000" d="M321.702 179.876a4.802 4.802 0 1 0 0-9.603 4.803 4.803 0 0 0-4.804 4.802 4.803 4.803 0 0 0 4.804 4.801Zm-138.434 0a4.803 4.803 0 0 0 4.804-4.801 4.803 4.803 0 0 0-9.607 0 4.802 4.802 0 0 0 4.803 4.801Z" opacity=".3"/>
</svg>
