<svg width="494" height="389" viewBox="0 0 494 389" fill="none" xmlns="http://www.w3.org/2000/svg">
<path d="M374.118 38.75H132.902V226.508H374.118V38.75Z" fill="white"/>
<path d="M374.402 226.793H132.617V38.4648H374.402V226.793ZM133.187 226.223H373.833V39.0345H133.187V226.223Z" fill="#002346"/>
<path d="M162.804 211.026C162.645 211.026 162.52 210.9 162.52 210.741V95.902C162.52 95.7425 162.645 95.6172 162.804 95.6172C162.964 95.6172 163.089 95.7425 163.089 95.902V210.741C163.089 210.9 162.964 211.026 162.804 211.026Z" fill="#002346"/>
<path d="M199.5 210.941C199.34 210.941 199.215 210.816 199.215 210.656V119.207C199.215 119.047 199.34 118.922 199.5 118.922C199.659 118.922 199.784 119.047 199.784 119.207V210.656C199.784 210.816 199.659 210.941 199.5 210.941Z" fill="#002346"/>
<path d="M234.964 210.94C234.805 210.94 234.68 210.815 234.68 210.655V94.1872C234.68 94.0277 234.805 93.9023 234.964 93.9023C235.124 93.9023 235.249 94.0277 235.249 94.1872V210.655C235.249 210.815 235.124 210.94 234.964 210.94Z" fill="#002346"/>
<path d="M266.304 159.531C266.145 159.531 266.02 159.406 266.02 159.246V77.0192C266.02 76.8597 266.145 76.7344 266.304 76.7344C266.464 76.7344 266.589 76.8597 266.589 77.0192V159.246C266.589 159.406 266.464 159.531 266.304 159.531Z" fill="#002346"/>
<path d="M304.105 203.586C303.946 203.586 303.82 203.461 303.82 203.301V121.074C303.82 120.914 303.946 120.789 304.105 120.789C304.264 120.789 304.39 120.914 304.39 121.074V203.301C304.39 203.461 304.264 203.586 304.105 203.586Z" fill="#002346"/>
<path d="M304.104 121.076C304.576 121.076 304.958 120.694 304.958 120.222C304.958 119.75 304.576 119.367 304.104 119.367C303.632 119.367 303.25 119.75 303.25 120.222C303.25 120.694 303.632 121.076 304.104 121.076Z" fill="#002346"/>
<path d="M345.105 176.246C344.946 176.246 344.82 176.121 344.82 175.961V93.734C344.82 93.5745 344.946 93.4492 345.105 93.4492C345.264 93.4492 345.39 93.5745 345.39 93.734V175.961C345.39 176.121 345.264 176.246 345.105 176.246Z" fill="#002346"/>
<path d="M345.104 93.7324C345.576 93.7324 345.958 93.3498 345.958 92.8779C345.958 92.406 345.576 92.0234 345.104 92.0234C344.632 92.0234 344.25 92.406 344.25 92.8779C344.25 93.3498 344.632 93.7324 345.104 93.7324Z" fill="#002346"/>
<path d="M200.353 119.569C200.353 120.042 199.971 120.424 199.499 120.424C199.026 120.424 198.645 120.042 198.645 119.569C198.645 119.097 199.026 118.715 199.499 118.715C199.971 118.715 200.353 119.097 200.353 119.569Z" fill="#002346"/>
<path d="M234.964 95.0409C235.435 95.0409 235.818 94.6584 235.818 94.1865C235.818 93.7146 235.435 93.332 234.964 93.332C234.492 93.332 234.109 93.7146 234.109 94.1865C234.109 94.6584 234.492 95.0409 234.964 95.0409Z" fill="#002346"/>
<path d="M266.303 77.0175C266.775 77.0175 267.158 76.635 267.158 76.1631C267.158 75.6911 266.775 75.3086 266.303 75.3086C265.832 75.3086 265.449 75.6911 265.449 76.1631C265.449 76.635 265.832 77.0175 266.303 77.0175Z" fill="#002346"/>
<path d="M345.018 95.0409C345.49 95.0409 345.872 94.6584 345.872 94.1865C345.872 93.7146 345.49 93.332 345.018 93.332C344.546 93.332 344.164 93.7146 344.164 94.1865C344.164 94.6584 344.546 95.0409 345.018 95.0409Z" fill="#263238"/>
<path d="M163.361 95.0476C163.361 95.5204 162.974 95.9021 162.501 95.8964C162.028 95.8964 161.647 95.5091 161.652 95.0363C161.652 94.5692 162.04 94.1875 162.507 94.1875C162.974 94.1875 163.355 94.5692 163.355 95.0363V95.0476H163.361Z" fill="#002346"/>
<path d="M203.699 165.018C194.651 165.018 187.579 159.264 184.902 156.735C182.949 154.884 180.882 153.283 178.769 151.979C171.446 147.45 164.75 146.003 158.873 147.683C151.009 149.934 147.365 157.117 147.33 157.185C147.262 157.327 147.091 157.384 146.949 157.316C146.806 157.248 146.75 157.077 146.818 156.934C146.852 156.86 150.605 149.455 158.714 147.137C164.75 145.411 171.6 146.875 179.065 151.494C181.212 152.822 183.302 154.445 185.289 156.325C187.994 158.888 195.277 164.807 204.531 164.437C211.421 164.157 218.084 160.495 224.33 153.545C227.616 149.894 230.423 145.564 232.673 140.688C237.24 130.794 250.012 108.43 269.903 114.445C270.244 114.519 279.025 116.65 293.637 142.243C295.465 145.445 297.264 149.005 299.309 153.442C301.313 157.806 307.736 167.342 323.994 161.742C324.097 161.719 331.334 159.993 340.963 144.613C341.151 144.3 345.713 136.872 352.347 135.385C352.5 135.357 352.654 135.448 352.688 135.601C352.722 135.755 352.626 135.909 352.472 135.943C346.071 137.373 341.493 144.841 341.447 144.915C331.664 160.546 324.45 162.232 324.148 162.295C307.48 168.037 300.863 158.188 298.791 153.687C296.758 149.261 294.958 145.718 293.142 142.528C278.655 117.151 269.846 115.015 269.76 114.998C250.274 109.108 237.689 131.17 233.185 140.933C230.913 145.861 228.072 150.235 224.752 153.927C218.397 160.996 211.598 164.727 204.548 165.006C204.263 165.018 203.973 165.023 203.694 165.023L203.699 165.018Z" fill="#F69074"/>
<path d="M203.731 59.8203H161.672V62.1615H203.731V59.8203Z" fill="white"/>
<path d="M204.015 62.446H161.387V59.5352H204.015V62.446ZM161.956 61.8764H203.446V60.1048H161.956V61.8764Z" fill="#002346"/>
<path d="M182.451 65.3008H161.672V67.642H182.451V65.3008Z" fill="white"/>
<path d="M182.735 67.9265H161.387V65.0156H182.735V67.9265ZM161.956 67.3568H182.166V65.5853H161.956V67.3568Z" fill="#002346"/>
<path d="M136.15 23.4336H370.583C372.536 23.4336 374.119 25.0172 374.119 26.971V38.7341H132.613V26.9767C132.613 25.0229 134.191 23.4393 136.144 23.4336C136.144 23.4336 136.144 23.4336 136.15 23.4336Z" fill="#F69074"/>
<path d="M374.404 39.0185H132.328V26.9764C132.328 25.9568 132.721 24.9941 133.444 24.2706C134.167 23.5472 135.124 23.1484 136.143 23.1484H370.583C372.69 23.1484 374.404 24.863 374.404 26.9707V39.0185ZM132.898 38.4489H373.834V26.9764C373.834 25.1763 372.376 23.7181 370.583 23.7181H136.143C135.278 23.7181 134.458 24.0599 133.849 24.6751C133.239 25.2903 132.898 26.1049 132.898 26.9764V38.4489Z" fill="#002346"/>
<path d="M143.789 31.3848C143.789 32.5184 142.878 33.4412 141.745 33.4469C140.612 33.4469 139.689 32.5355 139.684 31.4019C139.684 30.2684 140.595 29.3455 141.728 29.3398H141.739C142.872 29.3398 143.784 30.257 143.784 31.3848H143.789Z" fill="white"/>
<path d="M141.735 33.7314C140.448 33.7314 139.4 32.689 139.395 31.4016C139.395 30.775 139.634 30.1883 140.072 29.744C140.511 29.2996 141.097 29.0547 141.724 29.0547C143.022 29.0547 144.07 30.1028 144.07 31.3845C144.07 32.0111 143.83 32.5978 143.392 33.0422C142.954 33.4865 142.367 33.7314 141.741 33.7314H141.735ZM141.741 29.6243C141.257 29.6243 140.812 29.8123 140.476 30.1484C140.146 30.4845 139.958 30.9288 139.964 31.4016C139.964 32.3757 140.761 33.1675 141.735 33.1675H141.741C142.213 33.1675 142.657 32.9795 142.988 32.6434C143.318 32.3073 143.506 31.863 143.5 31.3902C143.5 30.4161 142.709 29.6243 141.741 29.6243Z" fill="#002346"/>
<path d="M152.723 31.3848C152.723 32.5184 151.812 33.4412 150.679 33.4469C149.545 33.4469 148.623 32.5355 148.617 31.4019C148.617 30.2684 149.528 29.3455 150.661 29.3398C150.661 29.3398 150.661 29.3398 150.667 29.3398C151.8 29.3398 152.717 30.2513 152.723 31.3791C152.723 31.3791 152.723 31.3791 152.723 31.3848Z" fill="white"/>
<path d="M150.675 33.7314C150.054 33.7314 149.467 33.4922 149.029 33.0535C148.585 32.6149 148.34 32.0282 148.34 31.4016C148.34 30.775 148.579 30.1883 149.017 29.744C149.456 29.2996 150.042 29.0547 150.669 29.0547H150.675C151.301 29.0547 151.882 29.2939 152.326 29.7326C152.77 30.1712 153.015 30.7579 153.015 31.3788C153.015 32.0111 152.776 32.5978 152.337 33.0422C151.899 33.4865 151.312 33.7314 150.686 33.7314H150.68H150.675ZM150.68 29.6243H150.675C150.196 29.6243 149.752 29.8123 149.416 30.1484C149.086 30.4845 148.898 30.9288 148.904 31.4016C148.909 31.8744 149.092 32.3187 149.427 32.6491C149.763 32.9795 150.202 33.1618 150.675 33.1618H150.68C151.153 33.1618 151.597 32.9738 151.927 32.6377C152.258 32.3016 152.446 31.8573 152.44 31.3845C152.44 30.906 152.252 30.4617 151.922 30.1313C151.591 29.8009 151.147 29.6186 150.68 29.6186V29.6243Z" fill="#002346"/>
<path d="M161.664 31.3848C161.664 32.5184 160.753 33.4412 159.62 33.4469C158.487 33.4469 157.564 32.5355 157.559 31.4019C157.559 30.2684 158.47 29.3455 159.603 29.3398H159.614C160.747 29.3398 161.659 30.257 161.659 31.3848H161.664Z" fill="white"/>
<path d="M159.614 33.7314C158.327 33.7314 157.279 32.689 157.273 31.4016C157.273 30.775 157.513 30.1883 157.951 29.744C158.39 29.2996 158.976 29.0547 159.602 29.0547C160.901 29.0547 161.949 30.1028 161.949 31.3845C161.949 32.0111 161.709 32.5978 161.271 33.0422C160.832 33.4865 160.246 33.7314 159.62 33.7314H159.614ZM159.62 29.6243C159.136 29.6243 158.691 29.8123 158.355 30.1484C158.025 30.4845 157.837 30.9288 157.843 31.4016C157.843 32.3757 158.64 33.1675 159.614 33.1675H159.62C160.092 33.1675 160.536 32.9795 160.867 32.6434C161.197 32.3073 161.385 31.863 161.379 31.3902C161.379 30.4161 160.588 29.6243 159.62 29.6243Z" fill="#002346"/>
<path d="M181.014 74.1484H87.4776C86.3422 74.1484 85.4219 75.0691 85.4219 76.2048V112.656C85.4219 113.792 86.3422 114.712 87.4776 114.712H181.014C182.149 114.712 183.07 113.792 183.07 112.656V76.2048C183.07 75.0691 182.149 74.1484 181.014 74.1484Z" fill="white"/>
<path d="M181.014 114.997H87.4771C86.1845 114.997 85.1367 113.949 85.1367 112.656V76.2045C85.1367 74.9114 86.1845 73.8633 87.4771 73.8633H181.014C182.306 73.8633 183.354 74.9114 183.354 76.2045V112.656C183.354 113.949 182.306 114.997 181.014 114.997ZM87.4771 74.4329C86.5034 74.4329 85.7062 75.2247 85.7062 76.2045V112.656C85.7062 113.63 86.5034 114.427 87.4771 114.427H181.014C181.987 114.427 182.785 113.63 182.785 112.656V76.2045C182.785 75.2304 181.987 74.4329 181.014 74.4329H87.4771Z" fill="#002346"/>
<path d="M105.713 86.9634C105.713 89.4812 103.674 91.5205 101.157 91.5205C98.6402 91.5205 96.6016 89.4812 96.6016 86.9634C96.6016 84.4456 98.6402 82.4062 101.157 82.4062C103.674 82.4062 105.713 84.4456 105.713 86.9634Z" fill="#F69074"/>
<path d="M101.157 91.8049C98.486 91.8049 96.3164 89.6346 96.3164 86.963C96.3164 84.2914 98.486 82.1211 101.157 82.1211C103.827 82.1211 105.997 84.2914 105.997 86.963C105.997 89.6346 103.827 91.8049 101.157 91.8049ZM101.157 82.6907C98.7992 82.6907 96.8858 84.6047 96.8858 86.963C96.8858 89.3213 98.7992 91.2353 101.157 91.2353C103.514 91.2353 105.427 89.3213 105.427 86.963C105.427 84.6047 103.514 82.6907 101.157 82.6907Z" fill="#002346"/>
<path d="M141.985 83.8203H110.262V85.5805H141.985V83.8203Z" fill="#F69074"/>
<path d="M142.27 85.865H109.977V83.5352H142.27V85.865ZM110.546 85.2953H141.7V84.1048H110.546V85.2953Z" fill="#002346"/>
<path d="M171.961 87.8242H110.262V89.5844H171.961V87.8242Z" fill="white"/>
<path d="M172.245 89.8689H109.977V87.5391H172.245V89.8689ZM110.546 89.2993H171.676V88.1087H110.546V89.2993Z" fill="#002346"/>
<path d="M105.713 100.967C105.713 103.485 103.674 105.524 101.157 105.524C98.6402 105.524 96.6016 103.485 96.6016 100.967C96.6016 98.4495 98.6402 96.4102 101.157 96.4102C103.674 96.4102 105.713 98.4495 105.713 100.967Z" fill="#F69074"/>
<path d="M101.157 105.809C98.486 105.809 96.3164 103.639 96.3164 100.967C96.3164 98.2953 98.486 96.125 101.157 96.125C103.827 96.125 105.997 98.2953 105.997 100.967C105.997 103.639 103.827 105.809 101.157 105.809ZM101.157 96.6946C98.7992 96.6946 96.8858 98.6086 96.8858 100.967C96.8858 103.325 98.7992 105.239 101.157 105.239C103.514 105.239 105.427 103.325 105.427 100.967C105.427 98.6086 103.514 96.6946 101.157 96.6946Z" fill="#002346"/>
<path d="M126.462 97.8242H110.262V99.5844H126.462V97.8242Z" fill="#F69074"/>
<path d="M126.747 99.8689H109.977V97.5391H126.747V99.8689ZM110.546 99.2993H126.177V98.1087H110.546V99.2993Z" fill="#002346"/>
<path d="M171.961 101.82H110.262V103.58H171.961V101.82Z" fill="white"/>
<path d="M172.245 103.865H109.977V101.535H172.245V103.865ZM110.546 103.295H171.676V102.105H110.546V103.295Z" fill="#002346"/>
<path d="M185.325 197.141H65.5545C63.8373 197.141 62.4453 198.533 62.4453 200.251V247.605C62.4453 249.323 63.8373 250.715 65.5545 250.715H185.325C187.042 250.715 188.434 249.323 188.434 247.605V200.251C188.434 198.533 187.042 197.141 185.325 197.141Z" fill="#FBE493"/>
<path d="M185.325 251H65.554C63.6806 251 62.1602 249.479 62.1602 247.605V200.251C62.1602 198.376 63.6806 196.855 65.554 196.855H185.325C187.198 196.855 188.719 198.376 188.719 200.251V247.605C188.719 249.479 187.198 251 185.325 251ZM65.554 197.425C63.9995 197.425 62.7296 198.69 62.7296 200.251V247.605C62.7296 249.165 63.9995 250.43 65.554 250.43H185.325C186.879 250.43 188.149 249.165 188.149 247.605V200.251C188.149 198.69 186.879 197.425 185.325 197.425H65.554Z" fill="#002346"/>
<path d="M77.4245 227.318L85.4821 225.575L85.4935 223.023L85.4194 212.16C82.1053 212.217 78.9278 213.459 76.4507 215.663C73.2334 218.46 71.6162 222.676 72.1344 226.908C72.1913 227.426 72.2767 227.956 72.3849 228.48L77.4245 227.318Z" fill="#F69074"/>
<path d="M72.1645 228.822L72.1076 228.537C71.9937 227.996 71.9083 227.455 71.8513 226.936C71.3218 222.607 72.9731 218.312 76.2645 215.447C78.7871 213.202 82.0387 211.932 85.4154 211.875H85.7059L85.7799 223.023L85.7685 225.808L77.4888 227.597L72.1645 228.827V228.822ZM85.1364 212.45C81.9988 212.57 78.9921 213.783 76.6403 215.874C73.4856 218.614 71.9083 222.727 72.4151 226.874C72.4606 227.284 72.5233 227.711 72.603 228.138L77.3635 227.039L85.1991 225.347L85.2104 223.023L85.1364 212.456V212.45Z" fill="#002346"/>
<path d="M99.0162 219.68C97.0744 215.498 93.0427 212.673 88.453 212.274L88.0373 212.234H86.8984L86.9668 223.097V225.649L100.064 228.463C100.269 227.535 100.366 226.589 100.354 225.644C100.354 223.582 99.8931 221.542 99.0162 219.68Z" fill="#E6E7E8"/>
<path d="M100.28 228.799L86.6816 225.877V223.097L86.6133 211.949H88.0369L88.481 211.989C93.1562 212.399 97.296 215.299 99.2777 219.56C100.172 221.451 100.639 223.553 100.644 225.643C100.656 226.606 100.559 227.58 100.348 228.526L100.286 228.805L100.28 228.799ZM87.2511 225.415L99.8414 228.121C100.001 227.307 100.075 226.475 100.069 225.643C100.069 223.632 99.6136 221.61 98.7595 219.799C96.8632 215.72 92.9056 212.946 88.4298 212.559L88.0141 212.519H87.1884L87.2568 225.421L87.2511 225.415Z" fill="#002346"/>
<path d="M85.9688 226.904L73.0938 229.855C74.7224 237.083 81.903 241.623 89.1292 239.994C94.2143 238.849 98.172 234.862 99.2881 229.769L86.5383 226.75L85.9688 226.904Z" fill="white"/>
<path d="M86.1508 240.614C83.5883 240.614 81.077 239.891 78.8562 238.49C75.7641 236.536 73.6173 233.488 72.8087 229.917L72.7461 229.637L86.5266 226.453L99.6181 229.552L99.5611 229.825C98.4279 235.003 94.3564 239.105 89.1916 240.267C88.1837 240.495 87.1644 240.609 86.1508 240.609V240.614ZM73.4351 230.07C74.2551 233.374 76.2766 236.183 79.1637 238.011C82.1305 239.885 85.644 240.495 89.0663 239.72C93.9293 238.621 97.7788 234.815 98.9461 229.985L86.5437 227.046L86.0312 227.182L73.4351 230.07Z" fill="#002346"/>
<path d="M175.634 215.406H109.141V218.42H175.634V215.406Z" fill="white"/>
<path d="M175.919 218.704H108.855V215.121H175.919V218.704ZM109.425 218.134H175.349V215.691H109.425V218.134Z" fill="#002346"/>
<path d="M175.634 223.355H109.141V226.369H175.634V223.355Z" fill="white"/>
<path d="M175.919 226.653H108.855V223.07H175.919V226.653ZM109.425 226.084H175.349V223.64H109.425V226.084Z" fill="#002346"/>
<path d="M145.084 232.137H109.141V235.15H145.084V232.137Z" fill="white"/>
<path d="M145.368 235.435H108.855V231.852H145.368V235.435ZM109.425 234.865H144.799V232.421H109.425V234.865Z" fill="#002346"/>
<path d="M357.944 151H239.78C236.135 151 233.18 153.956 233.18 157.602V270.926C233.18 274.572 236.135 277.528 239.78 277.528H357.944C361.589 277.528 364.544 274.572 364.544 270.926V157.602C364.544 153.956 361.589 151 357.944 151Z" fill="white"/>
<path d="M357.944 277.812H239.779C235.981 277.812 232.895 274.725 232.895 270.926V157.602C232.895 153.802 235.981 150.715 239.779 150.715H357.944C361.742 150.715 364.829 153.802 364.829 157.602V270.926C364.829 274.725 361.742 277.812 357.944 277.812ZM239.779 151.284C236.3 151.284 233.464 154.116 233.464 157.602V270.926C233.464 274.412 236.3 277.243 239.779 277.243H357.944C361.423 277.243 364.259 274.406 364.259 270.926V157.602C364.259 154.116 361.423 151.284 357.944 151.284H239.779Z" fill="#002346"/>
<path d="M246.67 237.676H242.359V238.918H246.67V237.676Z" fill="#002346"/>
<path d="M257.631 244.32H252.113V245.562H257.631V244.32Z" fill="#002346"/>
<path d="M276.826 244.32H271.309V245.562H276.826V244.32Z" fill="#002346"/>
<path d="M296.018 244.32H290.5V245.562H296.018V244.32Z" fill="#002346"/>
<path d="M315.213 244.32H309.695V245.562H315.213V244.32Z" fill="#002346"/>
<path d="M334.409 244.32H328.891V245.562H334.409V244.32Z" fill="#002346"/>
<path d="M353.608 244.32H348.09V245.562H353.608V244.32Z" fill="#002346"/>
<path d="M246.67 221.074H242.359V222.316H246.67V221.074Z" fill="#002346"/>
<path d="M246.67 189.832H242.359V191.074H246.67V189.832Z" fill="#002346"/>
<path d="M246.67 174.137H242.359V175.379H246.67V174.137Z" fill="#002346"/>
<path d="M246.893 205.457H242.582V206.699H246.893V205.457Z" fill="#002346"/>
<path d="M348.715 206.363H254.871C254.711 206.363 254.586 206.237 254.586 206.078C254.586 205.918 254.711 205.793 254.871 205.793H348.715C348.874 205.793 348.999 205.918 348.999 206.078C348.999 206.237 348.874 206.363 348.715 206.363Z" fill="#002346"/>
<path d="M347.669 190.738H254.121C253.961 190.738 253.836 190.612 253.836 190.453C253.836 190.293 253.961 190.168 254.121 190.168H347.669C347.828 190.168 347.953 190.293 347.953 190.453C347.953 190.612 347.828 190.738 347.669 190.738Z" fill="#002346"/>
<path d="M353.417 175.042H252.859C252.699 175.042 252.574 174.917 252.574 174.757C252.574 174.598 252.699 174.473 252.859 174.473H353.417C353.576 174.473 353.701 174.598 353.701 174.757C353.701 174.917 353.576 175.042 353.417 175.042Z" fill="#002346"/>
<path d="M252.771 235.554V221.694L261.524 208.285L267.469 212.785L279.655 194.095L286.818 199.097L296.823 181.826L304.955 188.354L317.141 165.488L330.272 191.048L340.904 178.26L353.409 174.728V235.52L252.766 235.554H252.771Z" fill="#FBE493"/>
<path d="M252.488 235.839V221.609L261.451 207.875L267.396 212.375L279.577 193.697L286.729 198.687L296.745 181.398L304.871 187.921L317.154 164.879L330.337 190.541L340.752 178.015L353.701 174.358V235.81H353.416L252.488 235.844V235.839ZM253.058 221.78V235.269L353.131 235.235V175.104L341.076 178.51L330.223 191.561L317.143 166.104L305.048 188.792L296.905 182.259L286.911 199.513L279.736 194.5L267.544 213.201L261.599 208.701L253.063 221.786L253.058 221.78Z" fill="#002346"/>
<path d="M254.831 224.51C254.78 224.51 254.729 224.493 254.677 224.464C254.546 224.379 254.507 224.202 254.592 224.071L271.299 197.697C271.351 197.617 271.436 197.566 271.533 197.566C271.63 197.56 271.715 197.606 271.772 197.68L285.256 216.045L306.371 181.474C306.423 181.388 306.514 181.337 306.616 181.337H331.945L341.944 167.911C341.996 167.837 342.081 167.797 342.172 167.797H354.814C354.973 167.797 355.099 167.922 355.099 168.082C355.099 168.241 354.973 168.367 354.814 168.367H342.315L332.315 181.793C332.264 181.867 332.178 181.907 332.087 181.907H306.776L285.524 216.706C285.473 216.786 285.387 216.837 285.291 216.843C285.182 216.843 285.103 216.803 285.051 216.729L271.561 198.358L255.076 224.379C255.019 224.464 254.928 224.51 254.837 224.51H254.831Z" fill="#002346"/>
<path d="M281.377 207.782C281.411 209.018 280.437 210.055 279.202 210.089C277.966 210.123 276.93 209.149 276.895 207.913C276.861 206.677 277.835 205.64 279.071 205.606H279.139C280.346 205.578 281.354 206.535 281.383 207.742V207.782H281.377Z" fill="white"/>
<path d="M279.135 210.373C277.774 210.373 276.646 209.285 276.607 207.918C276.567 206.528 277.666 205.36 279.055 205.32H279.129C279.784 205.315 280.41 205.548 280.889 206.004C281.367 206.46 281.64 207.075 281.657 207.736L281.373 207.781H281.657C281.675 208.448 281.43 209.091 280.968 209.581C280.507 210.071 279.881 210.356 279.203 210.373C279.18 210.373 279.152 210.373 279.129 210.373H279.135ZM279.192 205.884C279.192 205.884 279.158 205.884 279.146 205.884H279.072C278.002 205.919 277.153 206.819 277.182 207.901C277.21 208.983 278.127 209.815 279.197 209.803C279.721 209.786 280.205 209.57 280.564 209.188C280.923 208.807 281.111 208.311 281.099 207.787V207.741C281.088 207.234 280.877 206.762 280.507 206.408C280.148 206.067 279.687 205.884 279.192 205.884Z" fill="#002346"/>
<path d="M302.307 191.27C302.335 192.113 301.675 192.825 300.826 192.854C299.983 192.882 299.272 192.221 299.243 191.373C299.215 190.53 299.875 189.818 300.718 189.789H300.769C301.601 189.789 302.284 190.444 302.301 191.276V191.264L302.307 191.27Z" fill="white"/>
<path d="M300.775 193.146C299.801 193.146 298.992 192.371 298.958 191.392C298.924 190.389 299.71 189.546 300.706 189.512H300.78C301.748 189.512 302.557 190.298 302.585 191.266C302.62 192.269 301.834 193.112 300.832 193.146C300.809 193.146 300.792 193.146 300.769 193.146H300.775ZM300.78 190.081H300.775C300.046 190.104 299.505 190.685 299.528 191.369C299.55 192.058 300.125 192.605 300.814 192.571C301.498 192.548 302.039 191.973 302.016 191.289C301.999 190.623 301.447 190.081 300.78 190.081Z" fill="#002346"/>
<path d="M327.084 181.294C327.112 182.137 326.452 182.849 325.603 182.877C324.761 182.906 324.049 182.245 324.02 181.396C323.992 180.553 324.652 179.841 325.495 179.812H325.547C326.378 179.812 327.061 180.468 327.078 181.299V181.288L327.084 181.294Z" fill="white"/>
<path d="M325.554 183.162C325.093 183.162 324.654 182.991 324.318 182.672C323.965 182.341 323.76 181.891 323.743 181.407C323.709 180.405 324.495 179.562 325.491 179.527H325.565C326.533 179.527 327.342 180.308 327.371 181.282C327.388 181.766 327.217 182.227 326.881 182.586C326.551 182.939 326.101 183.145 325.617 183.162C325.594 183.162 325.571 183.162 325.554 183.162ZM325.565 180.097H325.56C324.825 180.12 324.29 180.701 324.313 181.384C324.324 181.715 324.466 182.028 324.706 182.256C324.95 182.484 325.275 182.609 325.6 182.592C325.93 182.581 326.243 182.438 326.471 182.199C326.699 181.954 326.818 181.641 326.807 181.31C326.79 180.644 326.237 180.103 325.571 180.103L325.565 180.097Z" fill="#002346"/>
<path d="M258.417 266.993C261.898 266.993 264.721 264.277 264.721 260.926C264.721 257.576 261.898 254.859 258.417 254.859C254.936 254.859 252.113 257.576 252.113 260.926C252.113 264.277 254.936 266.993 258.417 266.993Z" fill="#E6E7E8"/>
<path d="M258.417 267.277C254.784 267.277 251.828 264.429 251.828 260.926C251.828 257.422 254.784 254.574 258.417 254.574C262.05 254.574 265.005 257.422 265.005 260.926C265.005 264.429 262.05 267.277 258.417 267.277ZM258.417 255.144C255.097 255.144 252.398 257.736 252.398 260.926C252.398 264.116 255.097 266.707 258.417 266.707C261.736 266.707 264.436 264.116 264.436 260.926C264.436 257.736 261.736 255.144 258.417 255.144Z" fill="#002346"/>
<path d="M348.088 256.859H274.066V259.127H348.088V256.859Z" fill="#E6E7E8"/>
<path d="M348.372 259.411H273.781V256.574H348.372V259.411ZM274.351 258.841H347.803V257.144H274.351V258.841Z" fill="#002346"/>
<path d="M304.799 262.535H274.066V264.802H304.799V262.535Z" fill="#E6E7E8"/>
<path d="M305.083 265.087H273.781V262.25H305.083V265.087ZM274.351 264.517H304.514V262.82H274.351V264.517Z" fill="#002346"/>
<path d="M405.601 52.7227H326.136C323.994 52.7227 322.258 54.4595 322.258 56.6019V121.21C322.258 123.353 323.994 125.089 326.136 125.089H405.601C407.743 125.089 409.479 123.353 409.479 121.21V56.6019C409.479 54.4595 407.743 52.7227 405.601 52.7227Z" fill="#E6E7E8"/>
<path d="M405.601 125.374H326.135C323.84 125.374 321.973 123.506 321.973 121.21V56.6016C321.973 54.3059 323.84 52.4375 326.135 52.4375H405.601C407.896 52.4375 409.764 54.3059 409.764 56.6016V121.21C409.764 123.506 407.896 125.374 405.601 125.374ZM326.135 53.0071C324.154 53.0071 322.542 54.6192 322.542 56.6016V121.21C322.542 123.192 324.154 124.804 326.135 124.804H405.601C407.583 124.804 409.194 123.192 409.194 121.21V56.6016C409.194 54.6192 407.583 53.0071 405.601 53.0071H326.135Z" fill="#002346"/>
<path d="M342.188 81.7031H337.484V117.209H342.188V81.7031Z" fill="#F69074"/>
<path d="M342.472 117.493H337.199V81.418H342.472V117.493ZM337.769 116.923H341.903V81.9876H337.769V116.923Z" fill="#002346"/>
<path d="M348.372 77.8906H343.668V117.207H348.372V77.8906Z" fill="#FBE493"/>
<path d="M348.656 117.492H343.383V77.6055H348.656V117.492ZM343.952 116.922H348.086V78.1751H343.952V116.922Z" fill="#002346"/>
<path d="M354.555 92.2578H349.852V117.208H354.555V92.2578Z" fill="white"/>
<path d="M354.839 117.492H349.566V91.9727H354.839V117.492ZM350.136 116.923H354.27V92.5423H350.136V116.923Z" fill="#002346"/>
<path d="M364.965 74.9219H360.262V117.206H364.965V74.9219Z" fill="#F69074"/>
<path d="M365.25 117.491H359.977V74.6367H365.25V117.491ZM360.546 116.921H364.68V75.2064H360.546V116.921Z" fill="#002346"/>
<path d="M371.149 70.3828H366.445V117.207H371.149V70.3828Z" fill="#FBE493"/>
<path d="M371.433 117.492H366.16V70.0977H371.433V117.492ZM366.73 116.922H370.864V70.6673H366.73V116.922Z" fill="#002346"/>
<path d="M377.333 87.4883H372.629V117.201H377.333V87.4883Z" fill="white"/>
<path d="M377.617 117.491H372.344V87.2031H377.617V117.491ZM372.913 116.921H377.047V87.7728H372.913V116.921Z" fill="#002346"/>
<path d="M387.743 65.1484H383.039V117.208H387.743V65.1484Z" fill="#F69074"/>
<path d="M388.027 117.492H382.754V64.8633H388.027V117.492ZM383.323 116.922H387.457V65.4329H383.323V116.922Z" fill="#002346"/>
<path d="M393.926 59.5586H389.223V117.206H393.926V59.5586Z" fill="#FBE493"/>
<path d="M394.211 117.49H388.938V59.2734H394.211V117.49ZM389.507 116.921H393.641V59.8431H389.507V116.921Z" fill="#002346"/>
<path d="M400.11 80.625H395.406V117.207H400.11V80.625Z" fill="white"/>
<path d="M400.394 117.492H395.121V80.3398H400.394V117.492ZM395.691 116.922H399.825V80.9095H395.691V116.922Z" fill="#002346"/>
<path d="M406.318 120.812H327.421C327.262 120.812 327.137 120.687 327.137 120.527C327.137 120.368 327.262 120.242 327.421 120.242H406.318C406.477 120.242 406.602 120.368 406.602 120.527C406.602 120.687 406.477 120.812 406.318 120.812Z" fill="#002346"/>
<path d="M330.292 110.891H327.422V111.842H330.292V110.891Z" fill="white"/>
<path d="M330.576 112.126H327.137V110.605H330.576V112.126ZM327.706 111.557H330.007V111.175H327.706V111.557Z" fill="#002346"/>
<path d="M330.292 98.2539H327.422V99.2052H330.292V98.2539Z" fill="white"/>
<path d="M330.576 99.4897H327.137V97.9688H330.576V99.4897ZM327.706 98.92H330.007V98.5384H327.706V98.92Z" fill="#002346"/>
<path d="M330.292 74.4688H327.422V75.42H330.292V74.4688Z" fill="white"/>
<path d="M330.576 75.7045H327.137V74.1836H330.576V75.7045ZM327.706 75.1349H330.007V74.7532H327.706V75.1349Z" fill="#002346"/>
<path d="M330.292 62.5234H327.422V63.4747H330.292V62.5234Z" fill="white"/>
<path d="M330.576 63.7592H327.137V62.2383H330.576V63.7592ZM327.706 63.1896H330.007V62.8079H327.706V63.1896Z" fill="#002346"/>
<path d="M330.44 86.3633H327.57V87.3146H330.44V86.3633Z" fill="white"/>
<path d="M330.725 87.5991H327.285V86.0781H330.725V87.5991ZM327.855 87.0294H330.155V86.6478H327.855V87.0294Z" fill="#002346"/>
<path d="M308.755 46.8477H224.358C222.959 46.8477 221.824 47.9826 221.824 49.3825V69.4053C221.824 70.8053 222.959 71.9402 224.358 71.9402H308.755C310.155 71.9402 311.289 70.8053 311.289 69.4053V49.3825C311.289 47.9826 310.155 46.8477 308.755 46.8477Z" fill="#FBE493"/>
<path d="M308.755 72.2247H224.358C222.803 72.2247 221.539 70.9601 221.539 69.405V49.3822C221.539 47.8271 222.803 46.5625 224.358 46.5625H308.755C310.309 46.5625 311.574 47.8271 311.574 49.3822V69.405C311.574 70.9601 310.309 72.2247 308.755 72.2247ZM224.358 47.1321C223.116 47.1321 222.109 48.1404 222.109 49.3822V69.405C222.109 70.6468 223.116 71.6551 224.358 71.6551H308.755C309.996 71.6551 311.004 70.6468 311.004 69.405V49.3822C311.004 48.1404 309.996 47.1321 308.755 47.1321H224.358Z" fill="#002346"/>
<path d="M240.681 62.8115C238.796 65.1584 235.362 65.5344 233.01 63.6489C230.664 61.7634 230.288 58.3284 232.173 55.9758C234.058 53.6289 237.492 53.253 239.844 55.1385C242.178 57.0354 242.548 60.4532 240.681 62.8115Z" fill="white"/>
<path d="M236.421 65.1291C235.157 65.1291 233.893 64.7133 232.834 63.8645C230.368 61.8822 229.97 58.2593 231.957 55.7927C233.939 53.3262 237.56 52.9275 240.026 54.9098C242.469 56.8978 242.862 60.515 240.909 62.9816C239.775 64.3943 238.107 65.1291 236.427 65.1291H236.421ZM236.433 54.2205C234.918 54.2205 233.415 54.8813 232.395 56.1516C230.607 58.3732 230.966 61.6372 233.187 63.4259C235.408 65.2088 238.671 64.8557 240.459 62.6341C242.218 60.4125 241.865 57.1485 239.662 55.3598C238.711 54.5965 237.566 54.2262 236.433 54.2262V54.2205Z" fill="#002346"/>
<path d="M426.569 209.826C429.24 221.788 431.899 221.925 427.816 279.418C427.497 283.936 429.821 301.065 429.194 320.922C428.71 336.206 427.15 341.714 427.15 341.714H414.759C414.759 341.714 408.706 289.028 407.59 278.592C406.587 269.239 404.64 238.057 404.241 231.683C404.201 231.039 403.666 230.538 403.023 230.538C402.442 230.538 401.946 230.942 401.827 231.506C401.189 234.497 399.076 245.411 394.413 277.561C394.413 277.561 396.28 301.8 389.248 339.823H375.655C375.655 339.823 372.626 285.44 372.563 276.866C372.501 268.293 376.771 219.077 378.013 210.407C379.254 201.737 383.867 197.026 383.867 197.026L420.618 196.16C420.618 196.16 425.123 203.343 426.569 209.831" fill="#FBE493"/>
<path d="M427.368 341.999H414.51L414.481 341.748C414.419 341.224 408.417 288.942 407.312 278.626C406.31 269.239 404.345 237.891 403.964 231.705C403.935 231.215 403.519 230.828 403.024 230.828C402.586 230.828 402.198 231.141 402.107 231.574C401.418 234.827 399.311 245.821 394.699 277.578C394.773 278.609 396.373 302.881 389.528 339.879L389.483 340.113H375.383L375.366 339.845C375.338 339.304 372.337 285.359 372.274 276.878C372.211 268.208 376.505 218.917 377.724 210.372C378.965 201.708 383.612 196.883 383.657 196.832L383.737 196.747L420.768 195.875L420.853 196.012C420.899 196.086 425.397 203.309 426.838 209.768C427.168 211.238 427.493 212.526 427.812 213.773C430.055 222.602 431.678 228.988 428.091 279.447C427.977 281.053 428.199 284.266 428.512 288.715C429.053 296.479 429.873 308.208 429.469 320.945C428.991 336.086 427.43 341.748 427.413 341.805L427.356 342.01L427.368 341.999ZM415.016 341.429H426.935C427.208 340.295 428.489 334.382 428.917 320.911C429.315 308.208 428.501 296.49 427.96 288.743C427.647 284.271 427.425 281.042 427.538 279.395C431.115 229.028 429.503 222.682 427.271 213.904C426.952 212.657 426.627 211.363 426.297 209.894C424.987 204.015 421.092 197.47 420.466 196.45L383.999 197.31C383.395 197.977 379.426 202.597 378.299 210.452C377.075 218.985 372.787 268.213 372.855 276.866C372.912 285.023 375.702 335.379 375.93 339.538H389.016C395.912 302.124 394.152 277.823 394.135 277.584V277.555V277.521C398.747 245.724 400.86 234.707 401.549 231.449C401.697 230.754 402.318 230.253 403.024 230.253C403.821 230.253 404.482 230.874 404.527 231.665C404.909 237.852 406.868 269.187 407.87 278.564C408.935 288.51 414.555 337.458 415.011 341.429H415.016Z" fill="#002346"/>
<path d="M376.674 339.82C376.674 339.82 377.05 347.277 375.797 348.513C374.015 350.279 362.7 354.454 359.181 355.73C357.382 356.374 356.186 357.382 355.696 358.67C355.383 359.581 355.873 360.578 356.79 360.891C356.972 360.954 357.165 360.982 357.353 360.982H388.291C388.291 360.982 389.39 360.555 389.521 358.59C389.629 356.927 388.029 352.13 388.029 352.13C387.744 351.048 388.445 339.82 388.445 339.82H376.674Z" fill="#F2B3C1"/>
<path d="M388.343 361.261H357.353C357.131 361.261 356.909 361.227 356.699 361.153C355.639 360.794 355.07 359.638 355.434 358.578C355.953 357.205 357.217 356.134 359.09 355.468C368.27 352.141 374.442 349.464 375.604 348.313C376.561 347.373 376.504 341.871 376.401 339.831L376.384 339.535H388.747L388.73 339.831C388.451 344.326 388.103 351.292 388.303 352.056C388.365 352.238 389.914 356.903 389.806 358.607C389.664 360.726 388.451 361.221 388.399 361.244L388.348 361.261H388.343ZM376.965 340.099C377.028 341.631 377.193 347.527 375.991 348.712C374.237 350.449 363.714 354.38 359.272 355.992C357.558 356.607 356.414 357.564 355.953 358.766C355.696 359.524 356.106 360.361 356.875 360.623C357.029 360.674 357.188 360.703 357.353 360.703H388.229C388.411 360.606 389.14 360.128 389.242 358.572C389.345 356.983 387.779 352.267 387.762 352.221C387.488 351.173 388.018 342.133 388.143 340.105H376.965V340.099Z" fill="#002346"/>
<path d="M354.934 361.755L355.025 363.549H380.04L383.69 361.755L383.782 363.549H388.553C389.129 363.561 389.607 363.105 389.618 362.53C389.618 362.49 389.618 362.45 389.618 362.41L389.584 361.727L354.939 361.755H354.934Z" fill="white"/>
<path d="M388.577 363.836H383.509L383.424 362.201L380.104 363.836H354.752L354.633 361.472L383.669 361.449L383.948 361.312V361.449H389.841L389.887 362.401C389.887 362.44 389.887 362.492 389.887 362.537C389.881 362.89 389.733 363.221 389.477 363.466C389.226 363.705 388.902 363.836 388.56 363.836H388.577ZM384.056 363.266H388.554C388.765 363.278 388.953 363.198 389.101 363.056C389.249 362.913 389.329 362.725 389.335 362.526C389.335 362.497 389.335 362.469 389.335 362.44L389.312 362.013H383.993L384.056 363.266ZM355.299 363.266H379.979L382.518 362.019L355.242 362.042L355.305 363.266H355.299Z" fill="#002346"/>
<path d="M381.934 357.874C381.889 357.874 381.837 357.863 381.797 357.84C374.298 353.624 375.175 349.13 375.215 348.942C375.249 348.788 375.403 348.691 375.551 348.726C375.704 348.76 375.801 348.908 375.767 349.062C375.756 349.124 374.981 353.362 382.071 357.344C382.208 357.418 382.259 357.595 382.179 357.732C382.128 357.823 382.031 357.874 381.928 357.874H381.934Z" fill="#002346"/>
<path d="M415.286 341.824C415.286 341.824 415.662 349.286 414.409 350.523C412.627 352.288 401.312 356.458 397.793 357.734C395.993 358.384 394.798 359.392 394.302 360.679C393.995 361.596 394.49 362.593 395.407 362.901C395.589 362.963 395.777 362.992 395.965 362.992H426.908C426.908 362.992 428.007 362.565 428.138 360.594C428.247 358.936 426.646 354.14 426.646 354.14C426.362 353.057 427.056 341.824 427.056 341.824H415.286Z" fill="#F2B3C1"/>
<path d="M426.962 363.273H395.967C395.745 363.273 395.528 363.238 395.318 363.164C394.253 362.805 393.678 361.649 394.036 360.59C394.566 359.217 395.83 358.146 397.698 357.468C402.111 355.867 412.549 351.971 414.212 350.319C415.168 349.379 415.111 343.876 415.009 341.831L414.992 341.535H427.354L427.337 341.831C427.058 346.332 426.717 353.298 426.922 354.056C426.984 354.238 428.533 358.903 428.425 360.601C428.283 362.726 427.07 363.221 427.018 363.244L426.967 363.261L426.962 363.273ZM415.578 342.105C415.641 343.643 415.806 349.539 414.605 350.723C412.925 352.387 403.409 355.998 397.886 357.998C396.172 358.613 395.022 359.576 394.56 360.778C394.304 361.535 394.72 362.372 395.494 362.635C395.648 362.686 395.802 362.709 395.961 362.709H426.842C427.024 362.612 427.753 362.133 427.856 360.572C427.958 358.989 426.392 354.272 426.375 354.227C426.102 353.179 426.631 344.133 426.751 342.105H415.573H415.578Z" fill="#002346"/>
<path d="M393.539 363.767L393.636 365.561H418.651L422.302 363.767L422.393 365.561H427.165C427.745 365.567 428.218 365.105 428.229 364.53C428.229 364.496 428.229 364.462 428.229 364.422L428.195 363.738L393.545 363.767H393.539Z" fill="white"/>
<path d="M427.177 365.848H422.12L422.035 364.213L418.715 365.848H393.364L393.238 363.484L422.286 363.461L422.565 363.324V363.461H428.458L428.504 364.412C428.504 364.446 428.504 364.492 428.504 364.538C428.504 364.891 428.356 365.227 428.099 365.472C427.849 365.717 427.519 365.848 427.171 365.848H427.177ZM422.661 365.278H427.16C427.376 365.272 427.559 365.204 427.707 365.062C427.855 364.919 427.934 364.731 427.94 364.526C427.94 364.498 427.94 364.475 427.94 364.446L427.917 364.025H422.599L422.661 365.278ZM393.905 365.278H418.584L421.124 364.031L393.842 364.053L393.91 365.278H393.905Z" fill="#002346"/>
<path d="M420.545 359.9C420.5 359.9 420.448 359.889 420.409 359.866C412.932 355.656 413.347 351.424 413.365 351.242C413.382 351.088 413.524 350.968 413.683 350.991C413.837 351.008 413.951 351.151 413.934 351.304C413.934 351.344 413.581 355.36 420.688 359.365C420.824 359.439 420.875 359.615 420.796 359.752C420.745 359.843 420.648 359.895 420.545 359.895V359.9Z" fill="#002346"/>
<path d="M418.196 156.046C412.963 158.604 407.092 159.538 401.324 158.729C400.988 158.678 400.652 158.627 400.316 158.564C393.408 157.282 385.385 157.351 384.092 146.249C382.8 135.146 392.064 129.461 392.845 124.392C393.021 123.11 393.004 121.805 392.793 120.529C392.315 117.112 391.165 114.132 393.733 111.062C398.75 105.064 403.875 105.337 403.875 105.337C403.875 105.337 408.345 102.028 413.709 106.009C419.466 110.282 421.248 116.138 420.474 122.329C419.944 126.089 419.734 129.883 419.847 133.677C419.939 135.682 420.457 137.801 422.125 142.221C423.794 146.642 422.581 153.819 418.179 156.035" fill="#002346"/>
<path d="M405.406 159.299C404.034 159.299 402.662 159.202 401.284 159.008C400.942 158.957 400.6 158.906 400.264 158.843C399.501 158.701 398.721 158.575 397.941 158.45C391.569 157.425 384.986 156.365 383.813 146.283C382.97 139.037 386.535 134.092 389.399 130.116C390.954 127.957 392.298 126.095 392.566 124.352C392.736 123.098 392.719 121.828 392.514 120.581C392.435 120.005 392.338 119.453 392.241 118.906C391.757 116.149 391.296 113.546 393.517 110.885C398.243 105.235 403.038 105.035 403.795 105.058C404.455 104.625 408.817 102.027 413.885 105.787C419.244 109.763 421.624 115.499 420.764 122.369C420.235 126.1 420.024 129.906 420.138 133.671C420.229 135.739 420.821 137.955 422.399 142.124C424.175 146.83 422.78 154.041 418.321 156.291V156.308C414.273 158.291 409.871 159.305 405.412 159.305L405.406 159.299ZM403.789 105.622C403.169 105.622 398.493 105.81 393.949 111.244C391.894 113.699 392.315 116.063 392.799 118.798C392.896 119.35 392.998 119.914 393.078 120.489C393.289 121.788 393.306 123.115 393.129 124.431C392.839 126.317 391.461 128.231 389.861 130.447C387.053 134.343 383.563 139.191 384.377 146.214C385.499 155.87 391.871 156.895 398.032 157.886C398.818 158.012 399.598 158.137 400.367 158.279C400.703 158.342 401.033 158.393 401.363 158.444C407.086 159.248 412.86 158.33 418.054 155.796V155.779C422.182 153.694 423.509 146.71 421.852 142.318C420.252 138.086 419.654 135.824 419.557 133.688C419.443 129.883 419.654 126.049 420.183 122.289C421.015 115.636 418.714 110.088 413.532 106.237C408.407 102.432 404.211 105.434 404.034 105.565L403.954 105.628H403.852C403.852 105.628 403.823 105.622 403.784 105.622H403.789Z" fill="#002346"/>
<path d="M396.733 134.122C396.733 134.122 397.689 137.921 396.357 140.695C395.024 143.47 393.367 144.358 393.367 144.358C393.367 144.358 396.243 149.673 403.492 149.531C410.741 149.388 413.058 143.931 413.058 143.931C413.058 143.931 410.98 143.504 410.08 140.792C409.181 138.081 409.773 133.125 409.773 133.125L396.733 134.122Z" fill="#F2B3C1"/>
<path d="M403.206 149.814C396.076 149.814 393.144 144.545 393.115 144.494L392.984 144.249L393.229 144.112C393.229 144.112 394.829 143.218 396.099 140.575C397.369 137.926 396.464 134.229 396.458 134.189L396.378 133.865L410.09 132.816L410.051 133.152C410.045 133.204 409.475 138.08 410.347 140.7C411.178 143.212 413.04 143.634 413.114 143.651L413.444 143.719L413.313 144.033C413.291 144.09 410.842 149.661 403.496 149.803C403.399 149.803 403.303 149.803 403.212 149.803L403.206 149.814ZM393.747 144.448C394.391 145.44 397.363 149.37 403.485 149.25C409.515 149.131 412.066 145.195 412.659 144.101C411.992 143.85 410.54 143.07 409.811 140.882C409.031 138.524 409.339 134.611 409.453 133.432L397.073 134.377C397.272 135.374 397.756 138.427 396.606 140.82C395.541 143.036 394.277 144.084 393.747 144.448Z" fill="#002346"/>
<path d="M383.064 147.613C383.064 147.613 383.804 153.212 383.969 159.894C384.18 168.325 379.841 196.277 379.812 195.781C379.812 195.781 384.937 199.153 399.236 199.962C407.789 200.458 416.325 198.726 424.007 194.938C424.007 194.938 424.85 173.001 426.575 162.793C428.113 153.725 429.422 149.515 429.422 149.515L411.434 142.976L403.165 149.077L394.965 142.879L383.064 147.595V147.613Z" fill="white"/>
<path d="M402.076 200.327C401.125 200.327 400.169 200.299 399.218 200.248C385.847 199.49 380.506 196.539 379.743 196.078H379.543L379.492 195.235L379.617 195.32C380.232 191.897 383.871 167.476 383.678 159.906C383.512 153.315 382.784 147.71 382.772 147.653V147.402L394.998 142.555L403.158 148.718L411.381 142.652L429.768 149.333L429.689 149.595C429.677 149.635 428.367 153.896 426.853 162.839C425.15 172.911 424.296 194.728 424.29 194.95V195.121L424.131 195.195C417.275 198.573 409.701 200.333 402.076 200.333V200.327ZM380.124 195.634C381.092 196.18 386.565 198.955 399.246 199.672C407.674 200.156 416.136 198.459 423.721 194.751C423.806 192.677 424.655 172.375 426.283 162.737C427.599 154.99 428.76 150.735 429.062 149.681L411.466 143.284L403.152 149.419L394.913 143.187L383.364 147.761C383.495 148.832 384.099 153.959 384.247 159.866C384.355 164.269 383.239 173.782 382.282 180.988C381.673 185.597 381.098 189.476 380.808 191.373C380.42 193.936 380.244 195.092 380.119 195.616L380.124 195.634Z" fill="#002346"/>
<path d="M415.633 118.01C415.633 111.718 410.534 106.617 404.244 106.617C397.954 106.617 392.855 111.718 392.855 118.01V129.403C392.855 135.695 397.954 140.795 404.244 140.795C410.534 140.795 415.633 135.695 415.633 129.403V118.01Z" fill="#F2B3C1"/>
<path d="M404.246 141.076C397.811 141.076 392.578 135.841 392.578 129.404V118.012C392.578 111.575 397.811 106.34 404.246 106.34C410.681 106.34 415.914 111.575 415.914 118.012V129.404C415.914 135.841 410.681 141.076 404.246 141.076ZM404.246 106.898C398.119 106.898 393.136 111.882 393.136 118.012V129.404C393.136 135.534 398.119 140.518 404.246 140.518C410.373 140.518 415.356 135.534 415.356 129.404V118.012C415.356 111.882 410.373 106.898 404.246 106.898Z" fill="#002346"/>
<path d="M389.211 156.076C389.575 151.855 390.338 147.68 391.488 143.601L391.466 143.59C387.947 144.29 387.69 144.063 383.055 145.35C383.027 145.356 382.998 145.367 382.97 145.373C382.822 145.413 382.685 145.453 382.525 145.498C382.525 145.498 382.525 145.51 382.525 145.515C378.853 146.808 375.157 151.343 373.113 153.712C370.55 156.686 359.184 169.56 359.184 169.56L342.511 154.635L334.117 164.535C334.117 164.535 354.11 187.697 359.395 189.719C365.385 192.02 374.923 181.653 381.113 172.715C380.521 183.698 379.929 194.174 379.786 195.752C379.143 202.639 373.745 218.269 374.439 225.942C375.134 233.615 389.125 234.031 389.125 234.031C389.125 234.031 389.473 224.444 389.53 211.457C389.587 198.469 387.935 171.457 389.211 156.076Z" fill="#F69074"/>
<path d="M389.399 234.323H389.115C388.534 234.3 374.862 233.799 374.155 225.966C373.728 221.221 375.596 213.486 377.248 206.667C378.278 202.406 379.252 198.379 379.503 195.724C379.628 194.397 380.089 186.388 380.778 173.691C374.759 182.184 366.912 190.318 361.189 190.324C360.529 190.324 359.891 190.216 359.293 189.982C354.003 187.96 334.722 165.664 333.902 164.719L333.742 164.537L342.483 154.226L359.162 169.156C360.66 167.459 370.551 156.254 372.897 153.525L373.358 152.99C375.408 150.598 378.819 146.621 382.242 145.311V145.294L382.976 145.072C386.08 144.212 387.241 144.024 388.705 143.785C389.428 143.671 390.242 143.54 391.41 143.306L391.506 143.289L391.808 143.437L391.768 143.676C390.624 147.727 389.861 151.908 389.502 156.1C388.653 166.32 389.092 181.386 389.479 194.676C389.667 201.073 389.844 207.111 389.821 211.458C389.764 224.303 389.422 233.947 389.416 234.044L389.405 234.329L389.399 234.323ZM381.456 171.725L381.399 172.728C381.057 179.011 380.248 193.833 380.072 195.775C379.821 198.464 378.842 202.514 377.806 206.798C376.166 213.577 374.304 221.261 374.725 225.915C375.334 232.654 386.882 233.617 388.853 233.73C388.91 232.033 389.194 223.05 389.246 211.452C389.263 207.111 389.092 201.079 388.904 194.687C388.517 181.381 388.078 166.302 388.927 156.049C389.28 151.965 390.009 147.897 391.096 143.95C390.14 144.132 389.434 144.246 388.796 144.349C387.349 144.582 386.205 144.764 383.13 145.619L382.97 145.368L383.044 145.642L382.617 145.773C379.275 146.952 375.841 150.956 373.785 153.355L373.324 153.89C370.79 156.829 359.509 169.612 359.396 169.737L359.208 169.954L342.54 155.035L334.494 164.525C336.396 166.718 354.589 187.567 359.498 189.447C365.136 191.611 374.543 181.7 380.881 172.546L381.456 171.72V171.725Z" fill="#002346"/>
<path d="M393.064 124.221C392.808 121.623 393.389 119.02 394.721 116.776C396.008 114.634 398.127 113.13 400.57 112.617L403.878 105.332C403.878 105.332 395.98 103.896 391.988 109.632C385.075 119.578 393.064 124.215 393.064 124.215" fill="#002346"/>
<path d="M392.921 124.459C392.795 124.385 389.891 122.665 389.088 119.053C388.445 116.165 389.345 112.941 391.753 109.472C395.802 103.65 403.848 105.04 403.928 105.051L404.287 105.12L400.767 112.867L400.625 112.895C398.268 113.391 396.206 114.855 394.965 116.923C393.655 119.127 393.097 121.639 393.348 124.191L393.063 124.22L392.921 124.459ZM401.724 105.462C399.15 105.462 394.811 106.077 392.22 109.791C389.903 113.123 389.037 116.194 389.641 118.916C390.199 121.434 391.901 123.001 392.738 123.639C392.613 121.172 393.211 118.763 394.481 116.627C395.779 114.468 397.92 112.918 400.375 112.366L403.467 105.558C403.102 105.519 402.493 105.462 401.73 105.462H401.724Z" fill="#002346"/>
<path d="M400.996 114.571C403.894 122.682 413.734 119.293 415.574 123.354C415.574 123.354 419.434 117.516 414.964 110.503C410.494 103.491 403.877 105.337 403.877 105.337C403.877 105.337 399.088 109.244 400.996 114.571Z" fill="#002346"/>
<path d="M415.527 123.939L415.316 123.472C414.622 121.934 412.583 121.541 410.22 121.085C406.775 120.419 402.487 119.593 400.727 114.671C398.774 109.22 403.648 105.164 403.694 105.119L403.796 105.067C403.865 105.044 410.67 103.244 415.202 110.353C419.718 117.44 415.852 123.455 415.812 123.512L415.527 123.939ZM404.013 105.591C403.54 106.007 399.548 109.676 401.262 114.472C402.914 119.092 406.849 119.849 410.322 120.522C412.606 120.96 414.61 121.347 415.573 122.772C416.319 121.325 418.363 116.363 414.724 110.655C410.596 104.179 404.708 105.42 404.013 105.597V105.591Z" fill="#002346"/>
<path d="M389.359 198.062C389.359 198.062 392.952 199.993 402.194 199.993C411.436 199.993 419.847 195.926 419.847 195.926L419.596 200.363C419.596 200.363 412.627 203.929 402.462 203.929C392.297 203.929 389.148 201.873 389.148 201.873L389.359 198.085V198.062Z" fill="#E6E7E8"/>
<path d="M402.463 204.212C392.333 204.212 389.127 202.196 388.996 202.11L388.859 202.019L389.104 197.622L389.497 197.81C389.531 197.827 393.159 199.707 402.196 199.707C411.233 199.707 419.643 195.708 419.723 195.668L420.156 195.457L419.871 200.538L419.723 200.612C419.655 200.646 412.577 204.207 402.458 204.207L402.463 204.212ZM389.446 201.712C390.158 202.082 393.677 203.643 402.463 203.643C411.25 203.643 418.271 200.675 419.325 200.179L419.541 196.38C417.69 197.2 410.213 200.276 402.201 200.276C394.189 200.276 390.79 198.983 389.628 198.493L389.452 201.706L389.446 201.712Z" fill="#002346"/>
<path d="M414.805 143.867C414.805 143.867 415.944 147.137 415.887 156.399C415.852 166.778 415.511 234.058 415.511 234.058C415.511 234.058 427.839 231.392 429.838 226.653C431.837 221.913 424.337 201.082 424.007 194.924C423.648 188.236 432.059 157.106 432.195 150.293C432.195 149.723 414.805 143.867 414.805 143.867Z" fill="#F69074"/>
<path d="M415.221 234.412V234.059C415.221 233.387 415.562 166.659 415.597 156.4C415.653 147.32 414.543 143.993 414.532 143.965L414.344 143.418L414.89 143.6C432.475 149.519 432.475 150.043 432.475 150.293C432.412 153.483 430.584 161.806 428.648 170.624C426.41 180.82 424.098 191.359 424.286 194.908C424.411 197.254 425.624 201.886 426.906 206.779C428.99 214.737 431.359 223.76 430.094 226.762C428.062 231.581 416.075 234.224 415.562 234.332L415.215 234.406L415.221 234.412ZM415.221 144.312C415.534 145.571 416.212 149.149 416.166 156.406C416.132 166.272 415.819 228.374 415.79 233.706C417.795 233.233 427.834 230.658 429.571 226.545C430.761 223.726 428.42 214.805 426.359 206.933C425.066 202.005 423.848 197.351 423.717 194.947C423.523 191.319 425.846 180.741 428.09 170.51C429.998 161.829 431.797 153.62 431.9 150.407C430.915 149.741 421.445 146.42 415.215 144.318L415.221 144.312Z" fill="#002346"/>
<path d="M395.46 142.242L401.553 147.876L396.297 151.863C396.297 151.863 391.804 144.082 395.46 142.254" fill="#E6E7E8"/>
<path d="M396.213 152.284L396.054 152.005C395.929 151.788 393.019 146.701 393.918 143.711C394.152 142.925 394.63 142.349 395.336 141.996L395.462 142.241L395.661 142.03L402.005 147.892L396.219 152.278L396.213 152.284ZM395.427 142.594C394.949 142.879 394.636 143.301 394.465 143.876C393.753 146.251 395.798 150.33 396.395 151.435L401.116 147.852L395.427 142.594Z" fill="#002346"/>
<path d="M411.008 142.527L404.688 147.979L409.499 152.262C409.499 152.262 414.192 144.043 411.008 142.527Z" fill="#E6E7E8"/>
<path d="M409.572 152.709L404.254 147.975L410.962 142.188L411.127 142.267C411.674 142.529 412.05 142.974 412.243 143.589C413.131 146.414 409.88 152.156 409.743 152.395L409.567 152.703L409.572 152.709ZM405.119 147.981L409.419 151.809C410.079 150.578 412.403 146.004 411.696 143.76C411.571 143.355 411.355 143.065 411.042 142.865L405.114 147.975L405.119 147.981Z" fill="#002346"/>
<path d="M402.203 200.304C402.043 200.304 401.918 200.179 401.918 200.019C401.918 192.5 402.869 149.521 402.88 149.088C402.88 148.928 402.989 148.814 403.171 148.809C403.33 148.809 403.45 148.945 403.45 149.099C403.438 149.532 402.487 192.506 402.487 200.019C402.487 200.179 402.362 200.304 402.203 200.304Z" fill="#002346"/>
<path d="M341.535 155.794L335.596 150.684C335.812 149.801 335.863 148.884 335.647 147.978L335.624 147.99C335.448 147.255 332.458 139.701 331.291 137.776C330.123 135.851 327.76 136.489 327.925 137.93C328.091 139.36 329.395 143.273 329.423 143.347C329.326 143.273 323.245 138.585 322.664 138.163C321.098 137.024 320.494 136.221 319.008 136.289C318.382 136.329 317.846 136.745 317.658 137.343C317.078 137.178 316.457 137.451 316.195 137.998C315.625 138.892 316.764 139.884 316.764 139.884C316.764 139.884 316.195 139.707 315.398 140.59C314.424 141.667 315.722 142.794 315.722 142.794C314.953 143.068 314.333 143.643 314.014 144.395C313.718 145.124 314.464 145.688 318.985 149.089C319.845 149.733 323.324 152.763 324.201 153.885C327.088 157.599 328.797 157.599 328.797 157.599C328.797 157.599 329.338 157.599 329.873 157.582C330.55 157.565 331.194 157.878 331.593 158.425L335.146 163.324L341.535 155.788V155.794Z" fill="#F2B3C1"/>
<path d="M335.129 163.786L331.37 158.597C331.029 158.124 330.482 157.856 329.884 157.868C329.343 157.885 328.802 157.879 328.802 157.885C328.728 157.885 326.923 157.839 323.985 154.063C323.119 152.952 319.634 149.927 318.82 149.318C313.997 145.689 313.376 145.228 313.757 144.293C314.053 143.598 314.589 143.034 315.249 142.698C315.039 142.436 314.788 142.026 314.76 141.553C314.737 141.138 314.879 140.75 315.192 140.408C315.574 139.987 315.921 139.776 316.195 139.679C315.87 139.246 315.523 138.546 315.961 137.856C316.234 137.293 316.855 136.962 317.487 137.03C317.766 136.455 318.341 136.056 318.996 136.017C320.272 135.954 320.984 136.512 321.963 137.275C322.225 137.48 322.51 137.703 322.834 137.942C323.261 138.249 326.581 140.801 328.882 142.579C328.477 141.32 327.771 139.013 327.652 137.97C327.572 137.27 327.982 136.655 328.705 136.41C329.537 136.125 330.778 136.387 331.535 137.64C332.589 139.377 335.225 145.917 335.8 147.603L335.823 147.592L335.926 147.922C336.125 148.759 336.125 149.654 335.914 150.594L341.933 155.772L335.134 163.792L335.129 163.786ZM329.935 157.304C330.681 157.304 331.387 157.663 331.826 158.267L335.168 162.881L341.148 155.829L335.288 150.787L335.328 150.622C335.527 149.807 335.561 149.021 335.43 148.292L335.356 148.059C335.168 147.267 332.184 139.788 331.057 137.925C330.453 136.934 329.537 136.711 328.887 136.934C328.523 137.059 328.153 137.378 328.21 137.902C328.369 139.286 329.639 143.097 329.696 143.262L329.434 143.353L329.252 143.564L329.132 143.473C325.266 140.488 322.851 138.643 322.515 138.398C322.179 138.153 321.889 137.925 321.627 137.72C320.676 136.974 320.101 136.535 319.036 136.575C318.535 136.603 318.091 136.951 317.943 137.435L317.863 137.697L317.601 137.623C317.151 137.492 316.673 137.708 316.468 138.13C316.018 138.836 316.958 139.674 316.969 139.679L317.96 140.545L316.701 140.158C316.701 140.158 316.263 140.078 315.625 140.784C315.414 141.018 315.323 141.257 315.335 141.519C315.369 142.095 315.921 142.584 315.927 142.59L316.286 142.903L315.836 143.063C315.141 143.308 314.583 143.832 314.293 144.51C314.088 145.017 314.97 145.706 319.173 148.868C320.021 149.506 323.535 152.547 324.44 153.715C327.173 157.224 328.808 157.321 328.819 157.321C328.819 157.321 329.354 157.321 329.884 157.304C329.907 157.304 329.929 157.304 329.952 157.304H329.935Z" fill="#002346"/>
<path d="M330.521 150.172C330.458 150.172 330.39 150.149 330.338 150.104C328.767 148.782 328.112 146.657 328.67 144.681C328.71 144.527 328.869 144.441 329.023 144.481C329.177 144.527 329.262 144.681 329.217 144.835C328.721 146.595 329.302 148.492 330.703 149.665C330.822 149.768 330.839 149.944 330.737 150.064C330.68 150.132 330.6 150.166 330.521 150.166V150.172ZM322.548 149.676C322.486 149.676 322.423 149.654 322.366 149.614C322.247 149.517 322.224 149.335 322.326 149.215L322.958 148.44C322.958 148.44 322.93 148.423 322.913 148.412L315.561 143.029C315.436 142.938 315.408 142.755 315.499 142.63C315.59 142.505 315.772 142.476 315.897 142.567L323.249 147.95C323.249 147.95 323.289 147.985 323.306 148.007L324.781 146.202L316.598 140.118C316.472 140.021 316.444 139.844 316.541 139.719C316.638 139.594 316.814 139.565 316.939 139.662L325.145 145.763L326.449 144.162L317.515 137.577C317.389 137.486 317.361 137.304 317.452 137.179C317.543 137.053 317.725 137.025 317.85 137.116L326.808 143.712L326.888 143.615C326.984 143.496 327.167 143.473 327.286 143.576C327.406 143.672 327.429 143.855 327.326 143.974L322.77 149.568C322.714 149.637 322.634 149.671 322.548 149.671V149.676Z" fill="#002346"/>
<path d="M379.81 164.874C379.656 164.874 379.525 164.748 379.525 164.595C379.257 148.599 382.184 145.728 382.31 145.614C382.424 145.506 382.606 145.517 382.714 145.631C382.822 145.745 382.811 145.927 382.697 146.03C382.657 146.07 379.833 149.009 380.095 164.583C380.095 164.743 379.969 164.868 379.816 164.874H379.81Z" fill="#002346"/>
<path d="M397.16 196.801H376.273C375.458 196.801 374.775 196.237 374.678 195.497L370.652 164.583C370.578 163.99 371.04 163.449 371.689 163.381C371.734 163.381 371.785 163.375 371.831 163.375H392.718C393.533 163.375 394.222 163.933 394.313 164.679L398.339 195.594C398.413 196.192 397.94 196.727 397.291 196.796C397.245 196.796 397.205 196.801 397.16 196.801Z" fill="white"/>
<path d="M397.161 197.088H376.274C375.311 197.088 374.508 196.415 374.4 195.533L370.374 164.618C370.329 164.271 370.426 163.929 370.648 163.644C370.887 163.337 371.257 163.137 371.661 163.097C371.718 163.092 371.775 163.086 371.838 163.086H392.731C393.693 163.086 394.496 163.752 394.598 164.641L398.619 195.555C398.658 195.908 398.562 196.25 398.334 196.529C398.089 196.837 397.719 197.031 397.315 197.076C397.263 197.076 397.206 197.082 397.155 197.082L397.161 197.088ZM371.838 163.661C371.798 163.661 371.758 163.661 371.724 163.661C371.473 163.69 371.246 163.809 371.097 163.997C370.972 164.157 370.915 164.351 370.938 164.544L374.964 195.458C375.038 196.062 375.602 196.512 376.274 196.512H397.161C397.195 196.512 397.229 196.512 397.263 196.512C397.52 196.484 397.747 196.364 397.895 196.176C398.021 196.017 398.083 195.823 398.055 195.629L394.035 164.715C393.961 164.111 393.403 163.661 392.731 163.661H371.838Z" fill="#002346"/>
<path d="M395.597 196.801H375.763C375.011 196.801 374.385 196.243 374.3 195.497L370.98 165.813C370.911 165.215 371.344 164.68 371.942 164.611C371.982 164.611 372.022 164.605 372.062 164.605H391.895C392.647 164.605 393.273 165.169 393.359 165.916L396.673 195.594C396.741 196.186 396.32 196.727 395.722 196.796C395.682 196.796 395.637 196.801 395.597 196.801Z" fill="#FBE493"/>
<path d="M375.759 197.088C374.865 197.088 374.119 196.422 374.016 195.533L370.696 165.849C370.611 165.097 371.158 164.419 371.909 164.334C371.96 164.334 372.012 164.328 372.063 164.328H391.897C392.791 164.328 393.542 165 393.645 165.889L396.959 195.567C396.999 195.926 396.902 196.285 396.674 196.57C396.446 196.854 396.122 197.037 395.763 197.077C395.712 197.082 395.655 197.077 395.604 197.088H375.77H375.759ZM375.759 196.518H395.592C395.632 196.518 395.655 196.518 395.683 196.518C395.894 196.496 396.082 196.387 396.219 196.222C396.35 196.057 396.412 195.846 396.384 195.635L393.07 165.957C393.001 165.353 392.495 164.903 391.891 164.898H372.057C372.029 164.898 372 164.898 371.966 164.898C371.528 164.949 371.209 165.342 371.254 165.786L374.574 195.47C374.643 196.068 375.149 196.524 375.753 196.524L375.759 196.518Z" fill="#002346"/>
<path d="M383.826 183.559C382.254 183.559 380.973 182.278 380.973 180.705C380.973 179.133 382.254 177.852 383.826 177.852C385.397 177.852 386.678 179.133 386.678 180.705C386.678 182.278 385.397 183.559 383.826 183.559ZM383.826 178.421C382.567 178.421 381.542 179.447 381.542 180.705C381.542 181.964 382.567 182.99 383.826 182.99C385.084 182.99 386.109 181.964 386.109 180.705C386.109 179.447 385.084 178.421 383.826 178.421Z" fill="#002346"/>
<path d="M375.205 167.697C375.205 168.386 374.647 168.944 373.958 168.944C373.269 168.944 372.711 168.386 372.711 167.697C372.711 167.007 373.269 166.449 373.958 166.449C374.647 166.449 375.205 167.007 375.205 167.697Z" fill="white"/>
<path d="M373.958 169.23C373.109 169.23 372.426 168.541 372.426 167.692C372.426 166.844 373.115 166.16 373.958 166.16C374.8 166.16 375.495 166.849 375.495 167.692C375.495 168.536 374.806 169.23 373.958 169.23ZM373.958 166.73C373.428 166.73 372.995 167.163 372.995 167.692C372.995 168.222 373.428 168.661 373.958 168.661C374.487 168.661 374.926 168.228 374.926 167.692C374.926 167.157 374.493 166.73 373.958 166.73Z" fill="#002346"/>
<path d="M404.337 198.295L406.466 199.725L410.037 191.824L407.742 191.294C407.491 191.237 407.247 191.163 407.007 191.077C406.227 190.793 404.491 190.155 404.485 190.16L398.369 185.7C398.369 185.7 396.296 183.752 395.522 183.37C394.747 182.989 392.72 182.96 392.356 182.989C391.991 183.017 389.258 184.817 388.968 185.296C388.689 185.757 389.178 186.839 390.374 186.714C390.397 186.714 390.414 186.737 390.391 186.748C389.958 186.965 388.347 187.853 388.404 188.839C388.455 189.614 388.933 189.517 388.791 189.796C388.244 190.85 388.939 191.419 389.309 191.419C389.15 192.091 389.446 192.786 390.044 193.128C390.044 193.168 390.032 193.208 390.032 193.253C389.993 194.091 390.636 194.797 391.473 194.837C392.287 194.957 394.372 194.564 395.459 194.837C396.644 195.156 396.678 195.891 397.999 196.546C398.677 196.814 399.872 196.888 400.59 196.911C400.988 196.922 401.387 197.007 401.757 197.155L403.54 197.873C403.819 197.987 404.086 198.13 404.337 198.295Z" fill="#F2B3C1"/>
<path d="M406.593 200.141L404.184 198.529C403.95 198.369 403.7 198.238 403.438 198.136L401.655 197.418C401.32 197.281 400.955 197.207 400.585 197.196C399.742 197.167 398.592 197.082 397.903 196.808C397.231 196.478 396.872 196.136 396.559 195.834C396.223 195.515 395.955 195.259 395.392 195.105C394.805 194.957 393.848 195.025 393.006 195.082C392.362 195.128 391.804 195.168 391.434 195.111C390.483 195.065 389.726 194.245 389.754 193.271C389.23 192.895 388.94 192.263 388.997 191.63C388.797 191.545 388.615 191.385 388.49 191.18C388.348 190.947 388.165 190.451 388.513 189.734C388.382 189.614 388.165 189.386 388.131 188.856C388.08 188.047 388.883 187.347 389.578 186.897C389.27 186.783 389.008 186.578 388.832 186.293C388.587 185.906 388.547 185.456 388.735 185.148C389.042 184.641 391.838 182.744 392.339 182.704C392.704 182.676 394.799 182.693 395.654 183.114C396.456 183.513 398.484 185.41 398.569 185.49L404.639 189.916C404.816 189.973 405.175 190.104 405.949 190.389L407.111 190.81C407.339 190.896 407.572 190.964 407.811 191.021L410.442 191.63L406.593 200.146V200.141ZM394.412 194.45C394.828 194.45 395.215 194.479 395.534 194.558C396.24 194.746 396.587 195.077 396.946 195.424C397.242 195.709 397.556 196.005 398.125 196.29C398.751 196.535 399.947 196.609 400.602 196.626C401.041 196.638 401.468 196.729 401.866 196.888L403.643 197.606C403.939 197.726 404.224 197.874 404.491 198.056L406.348 199.303L409.639 192.018L407.674 191.562C407.413 191.499 407.156 191.425 406.906 191.334L405.744 190.913C405.186 190.708 404.651 190.514 404.463 190.446L404.417 190.457L398.199 185.923C397.607 185.364 395.995 183.918 395.392 183.616C394.703 183.28 392.755 183.234 392.374 183.262C392.009 183.342 389.447 185.04 389.202 185.438C389.139 185.541 389.151 185.769 389.293 185.991C389.39 186.145 389.692 186.504 390.341 186.435L390.574 186.413L390.734 186.874L390.512 186.999C389.646 187.438 388.644 188.184 388.678 188.822C388.701 189.152 388.809 189.249 388.9 189.34C388.985 189.42 389.19 189.614 389.037 189.921C388.837 190.309 388.809 190.639 388.963 190.89C389.065 191.061 389.23 191.141 389.31 191.141H389.663L389.578 191.488C389.447 192.035 389.692 192.61 390.181 192.889L390.346 192.98L390.324 193.168C390.324 193.203 390.318 193.237 390.312 193.265C390.278 193.943 390.808 194.524 391.485 194.558C391.821 194.604 392.374 194.57 392.96 194.524C393.427 194.49 393.934 194.456 394.401 194.456L394.412 194.45Z" fill="#002346"/>
<path d="M390.092 193.394C389.989 193.394 389.893 193.337 389.841 193.241C389.767 193.104 389.818 192.927 389.961 192.853C391.47 192.05 394.528 192.153 394.659 192.158C394.818 192.164 394.938 192.295 394.932 192.454C394.932 192.614 394.795 192.722 394.636 192.728C394.608 192.728 391.595 192.625 390.223 193.355C390.183 193.377 390.137 193.389 390.092 193.389V193.394ZM389.357 191.685C389.289 191.685 389.215 191.657 389.158 191.606C389.044 191.497 389.044 191.315 389.152 191.201C390.564 189.737 394.135 189.965 394.283 189.977C394.442 189.988 394.556 190.125 394.545 190.278C394.533 190.438 394.397 190.563 394.243 190.54C394.209 190.54 390.787 190.318 389.557 191.594C389.5 191.651 389.426 191.68 389.352 191.68L389.357 191.685ZM388.714 190.29C388.663 190.29 388.617 190.278 388.571 190.25C388.435 190.17 388.389 189.994 388.469 189.863C389.631 187.875 393.725 187.635 393.901 187.624C394.055 187.607 394.192 187.738 394.203 187.892C394.209 188.051 394.089 188.182 393.936 188.194C393.896 188.194 389.978 188.427 388.97 190.147C388.919 190.239 388.822 190.29 388.725 190.29H388.714ZM390.564 186.963C390.468 186.963 390.377 186.918 390.325 186.832C390.24 186.701 390.28 186.525 390.411 186.439C391.202 185.938 392.17 185.323 392.301 185.277C392.33 185.266 392.364 185.26 392.398 185.26C392.939 185.249 393.491 185.283 394.038 185.357C394.192 185.38 394.3 185.522 394.277 185.681C394.254 185.835 394.112 185.944 393.953 185.921C393.457 185.852 392.956 185.824 392.466 185.824C392.267 185.938 391.441 186.456 390.713 186.918C390.667 186.946 390.61 186.963 390.559 186.963H390.564Z" fill="#002346"/>
<path d="M153.288 142.852H59.3075C57.908 142.852 56.7734 143.986 56.7734 145.386V168.098C56.7734 169.498 57.908 170.633 59.3075 170.633H153.288C154.688 170.633 155.822 169.498 155.822 168.098V145.386C155.822 143.986 154.688 142.852 153.288 142.852Z" fill="#E6E7E8"/>
<path d="M153.288 170.917H59.307C57.7524 170.917 56.4883 169.653 56.4883 168.098V145.386C56.4883 143.831 57.7524 142.566 59.307 142.566H153.288C154.842 142.566 156.106 143.831 156.106 145.386V168.098C156.106 169.653 154.842 170.917 153.288 170.917ZM59.307 143.136C58.0656 143.136 57.0577 144.144 57.0577 145.386V168.098C57.0577 169.339 58.0656 170.348 59.307 170.348H153.288C154.529 170.348 155.537 169.339 155.537 168.098V145.386C155.537 144.144 154.529 143.136 153.288 143.136H59.307Z" fill="#002346"/>
<path d="M77.6477 161.346C75.5636 163.949 71.7654 164.365 69.163 162.28C66.5607 160.195 66.145 156.396 68.2292 153.793C70.3133 151.189 74.1115 150.774 76.7138 152.859C79.3105 154.938 79.7319 158.731 77.6534 161.335V161.346H77.6477Z" fill="#F69074"/>
<path d="M72.9339 163.888C71.5445 163.888 70.1494 163.433 68.9877 162.504C66.2658 160.322 65.8273 156.335 68.0083 153.618C69.0617 152.302 70.5708 151.47 72.2506 151.288C73.9305 151.106 75.5762 151.584 76.8973 152.638C79.6021 154.808 80.052 158.767 77.8995 161.49L77.871 161.53C76.6239 163.085 74.7846 163.894 72.9339 163.894V163.888ZM72.951 151.812C72.7403 151.812 72.524 151.823 72.3133 151.846C70.7872 152.017 69.4148 152.769 68.4524 153.965C66.4708 156.437 66.8694 160.066 69.3408 162.054C71.8065 164.031 75.4167 163.643 77.4041 161.188L77.4325 161.154C79.4085 158.682 79.0099 155.059 76.5385 153.077C75.5078 152.251 74.2551 151.812 72.951 151.812Z" fill="#002346"/>
<path d="M306.088 57.054H247.703C247.543 57.054 247.418 56.9287 247.418 56.7692C247.418 56.6097 247.543 56.4844 247.703 56.4844H306.088C306.247 56.4844 306.372 56.6097 306.372 56.7692C306.372 56.9287 306.247 57.054 306.088 57.054Z" fill="#002346"/>
<path d="M289.636 62.2923H247.703C247.543 62.2923 247.418 62.167 247.418 62.0075C247.418 61.848 247.543 61.7227 247.703 61.7227H289.636C289.796 61.7227 289.921 61.848 289.921 62.0075C289.921 62.167 289.796 62.2923 289.636 62.2923Z" fill="#002346"/>
<path d="M144.365 155.238H85.98C85.8206 155.238 85.6953 155.112 85.6953 154.953C85.6953 154.793 85.8206 154.668 85.98 154.668H144.365C144.524 154.668 144.65 154.793 144.65 154.953C144.65 155.112 144.524 155.238 144.365 155.238Z" fill="#002346"/>
<path d="M127.914 160.48H85.98C85.8206 160.48 85.6953 160.354 85.6953 160.195C85.6953 160.035 85.8206 159.91 85.98 159.91H127.914C128.073 159.91 128.198 160.035 128.198 160.195C128.198 160.354 128.073 160.48 127.914 160.48Z" fill="#002346"/>
<path d="M429.218 149.813C437.873 149.875 436.951 159.246 437.07 163.199C437.19 167.152 438.534 202.709 430.806 206.754C423.079 210.798 406.32 200.488 406.32 200.488L408.991 190.986L420.38 192.057C420.38 192.057 421.188 170.331 421.752 164.145C422.316 157.959 423.597 149.767 429.218 149.813Z" fill="#F69074"/>
<path d="M426.359 207.983C418.074 207.983 406.742 201.079 406.167 200.726L405.984 200.612L408.775 190.672L420.101 191.737C420.203 189.088 420.944 169.835 421.462 164.11C422.082 157.314 423.517 149.516 429.161 149.516H429.212C437.287 149.573 437.315 157.565 437.332 161.86C437.332 162.344 437.332 162.788 437.349 163.176L437.361 163.557C437.736 175.406 437.862 203.363 430.932 206.992C429.611 207.681 428.045 207.972 426.353 207.972L426.359 207.983ZM406.651 200.356C408.49 201.45 423.603 210.199 430.67 206.502C437.315 203.022 437.167 175.337 436.791 163.591L436.78 163.21C436.768 162.817 436.768 162.367 436.763 161.877C436.746 157.491 436.723 150.154 429.206 150.102H429.161C423.973 150.102 422.623 157.622 422.026 164.178C421.467 170.285 420.665 191.857 420.653 192.073L420.642 192.375L409.19 191.299L406.645 200.361L406.651 200.356Z" fill="#002346"/>
<path d="M388.89 354.979C388.89 354.979 388.696 356.517 386.379 356.517H367.143C367.143 356.517 363.009 355.543 365.486 353.418C365.486 353.418 360.993 354.124 358.032 355.902C356.261 356.967 354.706 357.348 354.894 360.983L354.934 361.757H389.579C389.579 361.757 390.718 357.314 388.89 354.979Z" fill="#F69074"/>
<path d="M389.801 362.042H354.667L354.61 360.999C354.433 357.616 355.754 356.869 357.28 356.009C357.48 355.895 357.679 355.781 357.884 355.662C360.856 353.879 365.253 353.172 365.44 353.138L366.431 352.984L365.668 353.639C365.133 354.095 364.911 354.511 364.996 354.864C365.173 355.593 366.631 356.106 367.177 356.237H386.379C388.4 356.237 388.6 355.001 388.605 354.944L388.702 354.283L389.112 354.807C391.003 357.228 389.898 361.643 389.852 361.831L389.795 362.047L389.801 362.042ZM355.208 361.472H389.357C389.534 360.64 390.08 357.559 388.964 355.588C388.668 356.112 387.973 356.801 386.385 356.801H367.086C366.847 356.738 364.751 356.209 364.455 354.99C364.364 354.619 364.455 354.238 364.712 353.85C363.282 354.146 360.315 354.864 358.191 356.14C357.981 356.266 357.776 356.385 357.576 356.493C356.102 357.325 355.037 357.929 355.196 360.959L355.225 361.461L355.208 361.472Z" fill="#002346"/>
<path d="M427.504 356.99C427.504 356.99 427.311 358.529 424.993 358.529H405.752C405.752 358.529 401.623 357.554 404.1 355.43C404.1 355.43 399.602 356.136 396.64 357.913C394.875 358.973 393.321 359.36 393.503 362.994L393.543 363.769H428.193C428.193 363.769 429.332 359.326 427.504 356.99Z" fill="#F69074"/>
<path d="M428.413 364.055H393.273L393.222 363.013C393.051 359.624 394.372 358.877 395.904 358.017C396.098 357.909 396.297 357.795 396.502 357.676C399.474 355.893 403.876 355.186 404.064 355.158L405.055 355.004L404.292 355.659C403.757 356.115 403.529 356.531 403.62 356.884C403.796 357.613 405.254 358.12 405.795 358.257H425.003C427.024 358.257 427.223 357.02 427.229 356.963L427.326 356.303L427.736 356.827C429.626 359.248 428.522 363.662 428.476 363.85L428.419 364.067L428.413 364.055ZM393.814 363.486H427.969C428.146 362.654 428.692 359.572 427.576 357.601C427.28 358.126 426.586 358.815 424.997 358.815H405.693C405.454 358.752 403.358 358.222 403.068 357.009C402.977 356.639 403.068 356.257 403.324 355.87C401.895 356.166 398.922 356.884 396.798 358.16C396.593 358.285 396.388 358.399 396.189 358.513C394.714 359.345 393.643 359.948 393.797 362.985L393.826 363.486H393.814Z" fill="#002346"/>
<path d="M353.445 238.894H249.003C248.844 238.894 248.719 238.769 248.719 238.609V163.332C248.719 163.172 248.844 163.047 249.003 163.047C249.163 163.047 249.288 163.172 249.288 163.332V238.325H353.445C353.604 238.325 353.73 238.45 353.73 238.609C353.73 238.769 353.604 238.894 353.445 238.894Z" fill="#002346"/>
<path d="M233.355 58.8284L235.827 61.3006L239.477 57.4727" fill="white"/>
<path d="M235.826 61.5927C235.752 61.5927 235.678 61.5642 235.627 61.5073L233.156 59.035C233.042 58.9211 233.042 58.7445 233.156 58.6306C233.27 58.5167 233.446 58.5167 233.56 58.6306L235.826 60.8977L239.277 57.2805C239.385 57.1666 239.568 57.1609 239.682 57.2691C239.795 57.3774 239.801 57.5597 239.693 57.6736L236.043 61.5016C235.992 61.5585 235.918 61.587 235.838 61.5927H235.826Z" fill="#002346"/>
<path d="M72.3967 159.569C72.3227 159.569 72.2487 159.541 72.1974 159.484L69.726 157.012C69.6122 156.898 69.6122 156.721 69.726 156.607C69.8399 156.493 70.0165 156.493 70.1303 156.607L72.3967 158.874L75.8475 155.257C75.9557 155.143 76.138 155.137 76.2518 155.246C76.3657 155.354 76.3714 155.536 76.2632 155.65L72.6131 159.478C72.5619 159.535 72.4878 159.564 72.4081 159.569H72.3967Z" fill="#002346"/>
<path d="M234.963 98.0101C232.765 98.0101 230.977 96.2214 230.977 94.0226C230.977 91.8238 232.765 90.0352 234.963 90.0352C237.161 90.0352 238.949 91.8238 238.949 94.0226C238.949 96.2214 237.161 98.0101 234.963 98.0101ZM234.963 90.6048C233.078 90.6048 231.546 92.1371 231.546 94.0226C231.546 95.9081 233.078 97.4404 234.963 97.4404C236.848 97.4404 238.379 95.9081 238.379 94.0226C238.379 92.1371 236.848 90.6048 234.963 90.6048Z" fill="#002346"/>
<path d="M403.951 120.48C408.983 120.48 413.062 117.419 413.062 113.644C413.062 109.869 408.983 106.809 403.951 106.809C398.919 106.809 394.84 109.869 394.84 113.644C394.84 117.419 398.919 120.48 403.951 120.48Z" fill="#002346"/>
<path d="M403.95 120.764C398.769 120.764 394.555 117.569 394.555 113.644C394.555 109.719 398.769 106.523 403.95 106.523C409.132 106.523 413.346 109.719 413.346 113.644C413.346 117.569 409.132 120.764 403.95 120.764ZM403.95 107.093C399.082 107.093 395.124 110.032 395.124 113.644C395.124 117.255 399.082 120.195 403.95 120.195C408.819 120.195 412.777 117.255 412.777 113.644C412.777 110.032 408.819 107.093 403.95 107.093Z" fill="#002346"/>
</svg>
