<svg width="553" height="436" viewBox="0 0 553 436" fill="none" xmlns="http://www.w3.org/2000/svg">
<path d="M231.617 72.2745C231.617 72.2745 199.29 104.581 142.441 118.94C142.441 118.94 41.2898 146.215 26.9244 194.687C26.9244 194.687 -11.9816 271.481 52.0654 348.065C52.0654 348.065 142.026 439.071 318.748 424.342C320.69 424.185 322.638 424.091 324.592 424.061C339.865 423.895 421.164 420.077 486.476 359.5C517.819 330.431 536.023 289.844 537.531 247.13C539.703 185.614 529.968 87.2337 454.277 38.7679C454.27 38.7743 342.944 -44.3855 231.617 72.2745Z" fill="#6C63FF"/>
<path opacity="0.7" d="M231.617 72.2745C231.617 72.2745 199.29 104.581 142.441 118.94C142.441 118.94 41.2898 146.215 26.9244 194.687C26.9244 194.687 -11.9816 271.481 52.0654 348.065C52.0654 348.065 142.026 439.071 318.748 424.342C320.69 424.185 322.638 424.091 324.592 424.061C339.865 423.895 421.164 420.077 486.476 359.5C517.819 330.431 536.023 289.844 537.531 247.13C539.703 185.614 529.968 87.2337 454.277 38.7679C454.27 38.7743 342.944 -44.3855 231.617 72.2745Z" fill="white"/>
<path d="M369.374 423.391L440.569 419.764L437.905 400.195H410.503C410.503 400.195 384.576 408.834 368.857 422.101C368.741 422.201 368.659 422.335 368.622 422.483C368.586 422.632 368.597 422.789 368.654 422.931C368.711 423.073 368.811 423.194 368.941 423.276C369.07 423.359 369.221 423.399 369.374 423.391Z" fill="#2F2E41"/>
<path opacity="0.2" d="M369.374 423.391L440.569 419.764L437.905 400.195H410.503C410.503 400.195 384.576 408.834 368.857 422.101C368.741 422.201 368.659 422.335 368.622 422.483C368.586 422.632 368.597 422.789 368.654 422.931C368.711 423.073 368.811 423.194 368.941 423.276C369.07 423.359 369.221 423.399 369.374 423.391Z" fill="black"/>
<path d="M378.138 120.101L391.973 140.34L402.832 137.218C402.936 137.189 403.032 137.135 403.111 137.062C403.191 136.989 403.252 136.898 403.29 136.796C403.328 136.695 403.342 136.586 403.33 136.479C403.318 136.371 403.281 136.268 403.222 136.177L389.744 115.747C389.623 115.561 389.444 115.421 389.234 115.349C389.025 115.276 388.798 115.274 388.588 115.344L378.675 118.601C378.528 118.647 378.394 118.727 378.283 118.835C378.172 118.942 378.087 119.073 378.035 119.218C377.983 119.363 377.965 119.518 377.983 119.672C378.001 119.825 378.054 119.972 378.138 120.101Z" fill="#FF5698"/>
<path d="M380.559 121.007L392.504 138.016C392.586 138.135 392.704 138.224 392.84 138.273C392.977 138.321 393.125 138.325 393.264 138.284L400.494 136.158C400.598 136.127 400.694 136.073 400.773 135.998C400.851 135.924 400.912 135.832 400.948 135.73C400.985 135.628 400.997 135.519 400.984 135.411C400.97 135.304 400.932 135.201 400.871 135.111L389.227 117.821C389.144 117.698 389.023 117.605 388.882 117.557C388.742 117.508 388.589 117.507 388.448 117.553L380.936 119.954C380.831 119.984 380.735 120.039 380.655 120.114C380.575 120.189 380.515 120.281 380.478 120.384C380.441 120.487 380.429 120.597 380.443 120.706C380.457 120.814 380.497 120.917 380.559 121.007Z" fill="white"/>
<path d="M421.688 427.527L492.889 423.901L490.219 404.332H462.817C462.817 404.332 436.903 412.97 421.177 426.238C421.061 426.337 420.98 426.47 420.943 426.618C420.907 426.767 420.917 426.922 420.973 427.064C421.03 427.206 421.129 427.327 421.257 427.41C421.385 427.493 421.535 427.534 421.688 427.527Z" fill="#2F2E41"/>
<path d="M496.625 407.001L452.852 405.756L452.545 391.027L449.824 260.978L441.718 389.839L440.748 405.226L397.332 399.889L399.612 384.482L426.337 203.88L476.875 202.105L483.991 207.973L495.475 388.952L496.625 407.001Z" fill="#2F2E41"/>
<path opacity="0.3" d="M399.613 384.484L400.054 380.8L420.111 375.877L448.401 249.953L449.825 260.979L441.719 389.84L399.613 384.484Z" fill="black"/>
<path opacity="0.3" d="M495.475 388.95L452.545 391.025L449.824 260.977L460.504 382.278L495.22 383.747L495.475 388.95Z" fill="black"/>
<path d="M409.437 157.636L406.007 159.902L397.997 141.942C397.997 141.942 397.64 139.631 393.015 140.161V139.44L394.638 137.147C394.786 136.94 394.863 136.69 394.856 136.436C394.849 136.181 394.759 135.935 394.599 135.736C394.492 135.602 394.357 135.493 394.203 135.416C394.05 135.34 393.881 135.298 393.709 135.294C393.537 135.29 393.367 135.323 393.209 135.392C393.052 135.461 392.912 135.563 392.798 135.692L390.882 137.85L389.988 136.605L392.766 133.138C392.985 132.863 393.098 132.518 393.085 132.167C393.072 131.816 392.934 131.481 392.696 131.223C392.559 131.069 392.39 130.945 392.202 130.861C392.014 130.777 391.81 130.733 391.604 130.733C391.397 130.733 391.193 130.777 391.005 130.861C390.817 130.945 390.649 131.069 390.511 131.223L388.838 133.138C388.743 133.248 388.619 133.331 388.48 133.377C388.342 133.423 388.193 133.43 388.051 133.398C387.908 133.365 387.777 133.295 387.672 133.194C387.566 133.093 387.49 132.966 387.452 132.825C387.42 132.719 387.409 132.608 387.422 132.499C387.434 132.389 387.468 132.283 387.522 132.187C387.931 131.465 388.914 129.46 388.627 127.628C388.606 127.49 388.548 127.361 388.458 127.255C388.369 127.148 388.252 127.068 388.12 127.023C387.988 126.978 387.847 126.97 387.711 127C387.575 127.031 387.45 127.098 387.35 127.194C386.314 128.248 385.451 129.459 384.795 130.782C384.749 130.875 384.669 130.947 384.571 130.982C384.473 131.016 384.365 131.011 384.271 130.967C383.983 130.827 383.715 130.418 384.137 129.256L385.101 125.387C385.181 125.078 385.145 124.751 385.002 124.465C384.859 124.18 384.617 123.956 384.322 123.835C384.006 123.705 383.652 123.701 383.333 123.824C383.014 123.948 382.755 124.19 382.61 124.499C381.122 127.238 377.877 134.766 383.753 139.644C383.753 139.644 386.602 142.306 386.947 149.776C386.947 149.776 385.702 182.504 397.269 183.57C397.269 183.57 406.422 184.904 419.28 175.909L416.847 162.648L418.086 157.808L409.437 157.636Z" fill="#F7C1CD"/>
<path d="M406 159.904C407.108 162.813 407.947 165.818 408.504 168.88V158.25L406 159.904Z" fill="#F28EA2"/>
<path d="M504.052 162.385C504.04 162.922 503.872 163.443 503.568 163.886C503.264 164.328 502.837 164.672 502.34 164.875C501.517 165.253 500.6 165.375 499.707 165.226C498.814 165.076 497.987 164.663 497.332 164.039C499.823 169.555 497.511 171.158 497.511 171.158C494.841 172.403 491.462 170.621 491.462 170.621C491.673 171.233 491.75 171.883 491.688 172.527C491.627 173.172 491.427 173.795 491.104 174.356C490.259 174.663 489.356 174.774 488.462 174.681C487.568 174.588 486.707 174.294 485.943 173.82C487.368 178.289 483.273 178.628 483.273 178.628C481.849 178.27 481.497 180.402 481.497 180.402L477.224 207.793C476.158 211.438 472.753 212.619 471.788 212.9L471.533 212.964C465.478 212.964 463.344 208.342 463.344 208.342C456.759 217.765 451.246 208.872 451.246 208.872C445.728 217.414 440.745 207.627 440.745 207.627C435.406 214.924 430.602 205.673 430.602 205.673C422.062 209.944 418.862 207.627 418.862 207.627C415.125 204.945 424.196 195.368 424.196 195.368C425.441 187.011 423.129 175.806 423.129 175.806C417.259 177.229 416.192 172.958 416.192 172.958C409.249 166.573 416.55 159.62 416.55 159.62C409.786 159.614 409.434 157.635 409.434 157.635C406.585 152.304 411.216 151.059 411.216 151.059C411.625 150.886 412.04 150.714 412.443 150.535C417.133 148.382 421.558 145.691 425.626 142.516C438.261 131.847 445.734 133.092 445.734 133.092L462.821 132.556C491.647 131.49 501.612 156.926 501.612 156.926C503.604 159.288 504.071 161.14 504.052 162.385Z" fill="#6C63FF"/>
<path d="M328.716 20.7773H172.613C161.3 20.7773 152.129 29.9445 152.129 41.2529V393.997C152.129 405.306 161.3 414.473 172.613 414.473H328.716C340.03 414.473 349.201 405.306 349.201 393.997V41.2529C349.201 29.9445 340.03 20.7773 328.716 20.7773Z" fill="#F69074"/>
<path d="M339.677 63.6936V357.584C339.678 361.154 338.976 364.69 337.61 367.989C336.245 371.287 334.242 374.284 331.717 376.809C329.191 379.334 326.193 381.336 322.893 382.702C319.594 384.068 316.057 384.771 312.485 384.77H189.846C182.633 384.77 175.715 381.906 170.614 376.808C165.514 371.709 162.648 364.795 162.648 357.584V63.6936C162.648 56.4835 165.514 49.5687 170.614 44.4703C175.715 39.372 182.633 36.5078 189.846 36.5078H208.932L215.83 48.0768H293.757L298.599 36.5078H312.473C316.045 36.5061 319.583 37.2081 322.884 38.5737C326.184 39.9392 329.184 41.9415 331.71 44.4662C334.237 46.9909 336.241 49.9884 337.607 53.2876C338.974 56.5867 339.677 60.1227 339.677 63.6936Z" fill="#E6F5FE"/>
<path d="M295.726 167.692C295.726 143.182 275.849 123.312 251.33 123.312C226.81 123.312 206.934 143.182 206.934 167.692V188.493C206.934 213.003 226.81 232.873 251.33 232.873C275.849 232.873 295.726 213.003 295.726 188.493V167.692Z" fill="#F7C1CD"/>
<path d="M236.118 108.905C236.118 108.905 237.543 93.9645 268.503 105.712C268.503 105.712 318.682 121.897 314.946 160.85C314.946 160.85 308.36 241.775 326.156 268.112L300.21 263.112L276.717 251.907C276.717 251.907 263.654 247.891 265.826 230.423C265.826 230.423 283.2 226.043 292.059 206.34C292.059 206.34 295.579 199.439 295.758 188.502L295.719 177.297C295.719 177.297 279.221 180.393 276.659 162.401C276.15 158.646 274.753 155.065 272.584 151.956C268.471 146.127 261.087 140.636 251.065 152.997C251.065 152.997 248.67 145.016 241.599 144.939C240.06 144.936 238.543 145.298 237.173 145.996C235.802 146.695 234.617 147.709 233.716 148.955C229.354 154.887 217.32 170.197 207.074 173.389L206.953 188.502C206.953 188.502 205.963 216.92 233.327 228.904C233.327 228.904 236.489 246.04 224.384 250.841C224.384 250.841 209.617 257.424 186.66 264C186.66 264 195.028 225.405 191.464 195.684C191.451 195.704 171.183 111.573 236.118 108.905Z" fill="#4B1713"/>
<path opacity="0.3" d="M201.89 174.015C201.89 174.015 197.508 135.764 222.24 132.208C222.24 132.208 241.632 101.971 282.742 121.533C282.742 121.533 275.269 121.182 269.214 122.81C269.214 122.81 313.344 129.929 305.692 172.259C305.692 172.259 296.469 238.934 307.129 264.913L300.212 263.112L273.301 250.547C273.301 250.547 263.478 244.163 265.828 230.423C265.828 230.423 295.051 222.385 295.76 188.501L295.721 177.296C295.721 177.296 279.114 180.859 276.661 162.401C276.307 158.607 274.895 154.988 272.586 151.956C272.586 151.956 265.63 140.463 256.036 148.234C256.036 148.234 254.12 149.44 251.067 152.997C251.067 152.997 248.729 144.179 240.023 145.035C238.754 145.204 237.536 145.642 236.449 146.317C235.362 146.993 234.431 147.892 233.718 148.955C233.718 148.955 219.136 169.59 207.076 173.389L204.892 173.632C203.876 173.577 202.859 173.707 201.89 174.015Z" fill="black"/>
<path d="M201.667 259.402L162.633 268.979V358.983C162.633 358.983 164.44 384.816 189.863 384.771H312.502C312.502 384.771 337.738 385.543 339.693 357.585L339.859 271.508C339.859 271.508 310.323 265.072 300.212 263.112L201.667 259.402Z" fill="#6C63FF"/>
<path opacity="0.3" d="M169.869 376.017C165.229 371 162.656 364.416 162.664 357.584V349.878L177.215 318.434C176.87 319.232 163.411 351.678 169.869 376.017Z" fill="black"/>
<path opacity="0.3" d="M339.679 352.079V357.582C339.684 361.289 338.928 364.958 337.459 368.362C335.991 371.766 333.84 374.834 331.139 377.375C338.804 352.64 323.902 317.142 323.34 315.82L339.679 352.079Z" fill="black"/>
<path opacity="0.3" d="M287.546 395.438H221.883V403.444H287.546V395.438Z" fill="black"/>
<path opacity="0.2" d="M272.771 30.1094H220.637V37.0431H272.771V30.1094Z" fill="black"/>
<path opacity="0.2" d="M287.895 29.9375H279.176V37.2287H287.895V29.9375Z" fill="black"/>
<path d="M330.602 33.1367V65.6983C338.561 66.7995 346.589 67.335 354.625 67.3009C362.125 67.2633 369.615 66.7279 377.045 65.6983V33.1367H330.602ZM356.228 50.7711V58.8349C356.228 59.4715 355.975 60.0821 355.525 60.5324C355.074 60.9826 354.463 61.2355 353.826 61.2355C353.189 61.2355 352.578 60.9826 352.128 60.5324C351.678 60.0821 351.425 59.4715 351.425 58.8349V50.7711C350.173 50.2202 349.149 49.2559 348.525 48.04C347.9 46.824 347.713 45.4303 347.995 44.0928C348.276 42.7552 349.009 41.5551 350.071 40.6938C351.133 39.8326 352.459 39.3625 353.826 39.3625C355.194 39.3625 356.52 39.8326 357.581 40.6938C358.643 41.5551 359.377 42.7552 359.658 44.0928C359.94 45.4303 359.752 46.824 359.128 48.04C358.503 49.2559 357.48 50.2202 356.228 50.7711Z" fill="#F29D46"/>
<path d="M334.16 30.6468H339.5V28.9549C339.5 27.0746 339.871 25.2127 340.591 23.4756C341.311 21.7385 342.366 20.1602 343.697 18.8309C345.027 17.5016 346.607 16.4473 348.345 15.7284C350.083 15.0094 351.946 14.6397 353.827 14.6406C357.625 14.6406 361.268 16.1487 363.953 18.8331C366.639 21.5176 368.148 25.1585 368.148 28.9549V30.4681H373.488V29.67C373.488 24.4574 371.417 19.4582 367.73 15.7718C364.043 12.0853 359.042 10.0134 353.827 10.0117C348.612 10.0134 343.61 12.0851 339.922 15.7714C336.234 19.4576 334.162 24.4568 334.16 29.67V30.6468Z" fill="#F29D46"/>
<path d="M176.504 123.843V101.082H200.169" stroke="white" stroke-width="5" stroke-miterlimit="10"/>
<path d="M305.25 101.082H328.021V124.737" stroke="white" stroke-width="5" stroke-miterlimit="10"/>
<path d="M328.021 230.031V252.792H304.355" stroke="white" stroke-width="5" stroke-miterlimit="10"/>
<path d="M199.282 252.792H176.504V229.137" stroke="white" stroke-width="5" stroke-miterlimit="10"/>
<path d="M25.4367 170.979C25.4367 170.979 56.0453 166.51 77.2197 142.695C77.2197 142.695 88.4297 159.934 127.042 171.158V223.627C127.042 223.627 124.014 265.07 76.153 286.586C76.153 286.586 27.0399 264.878 25.2578 218.826L25.4367 170.979Z" fill="#FFB669"/>
<path opacity="0.35" d="M33.7969 179.875C33.7969 179.875 61.0266 177.027 76.1521 155.684C76.1521 155.684 93.2321 174.895 119.031 178.981L119.21 219.536C119.21 219.536 118.68 254.218 76.5034 275.721C76.5034 275.721 34.1546 254.914 34.1546 217.736L33.7969 179.875Z" fill="white"/>
<path d="M77.2182 236.786C89.8967 236.786 100.175 226.633 100.175 214.108C100.175 201.583 89.8967 191.43 77.2182 191.43C64.5397 191.43 54.2617 201.583 54.2617 214.108C54.2617 226.633 64.5397 236.786 77.2182 236.786Z" fill="white"/>
<path d="M56.2109 212.609C56.2109 212.609 67.7786 218.994 67.7786 229.145L77.2129 229.681C77.2129 229.681 85.0375 210.119 106.927 198.02L104.436 193.551C104.436 193.551 89.1063 197.816 73.8275 214.716C73.0702 212.524 71.8541 210.52 70.2603 208.835C68.6665 207.151 66.7317 205.825 64.5849 204.947L56.2109 212.609Z" fill="#F69074"/>
<path d="M448.047 125.088L448.398 131.671L445.728 133.095C445.728 133.095 442.886 137.008 443.237 143.591L459.078 146.432L467.439 134.161L462.815 132.565C462.815 132.565 460.145 127.936 461.39 120.466L455.52 118.863L448.047 125.088Z" fill="#F7C1CD"/>
<path d="M448.047 125.086L448.36 130.258C448.36 130.258 453.329 129.255 455.226 124.773L448.047 125.086Z" fill="#F28EA2"/>
<path d="M445.729 133.094C445.729 133.094 443.238 140.921 446.445 143.054L457.655 143.769L467.44 134.16L459.079 146.431L443.238 143.59C443.238 143.59 442.35 137.716 445.729 133.094Z" fill="#F28EA2"/>
<path opacity="0.3" d="M502.347 164.875C501.523 165.252 500.605 165.374 499.711 165.225C498.818 165.076 497.989 164.663 497.332 164.039C499.824 169.555 497.511 171.157 497.511 171.157C494.841 172.402 491.462 170.621 491.462 170.621C491.673 171.233 491.751 171.883 491.689 172.527C491.627 173.172 491.428 173.795 491.105 174.356C490.26 174.663 489.357 174.775 488.463 174.683C487.569 174.592 486.708 174.299 485.944 173.826C487.368 178.296 483.274 178.628 483.274 178.628C481.856 178.27 481.498 180.402 481.498 180.402L477.225 207.792C476.164 211.438 472.754 212.619 471.789 212.9C476.988 196.939 475.27 168.846 475.27 168.846C476.292 169.911 477.425 170.864 478.649 171.687C483.631 174.535 485.592 168.846 485.592 168.846C487.905 169.912 488.614 169.912 488.614 169.912C495.001 170.264 493.417 161.37 493.417 161.37C497.511 163.33 499.466 163.33 499.466 163.33C504.276 163.33 501.606 156.945 501.606 156.945C503.662 159.378 504.097 161.261 504.046 162.513C504.016 163.027 503.841 163.522 503.54 163.941C503.239 164.359 502.825 164.683 502.347 164.875Z" fill="white"/>
<path d="M512.46 238.746C512.46 238.746 499.295 243.215 475.272 241.938C475.272 241.938 464.592 243.898 462.637 223.423C462.637 223.423 461.699 209.811 461.43 195.784C461.43 194.392 461.386 192.993 461.373 191.608C461.258 185.667 461.442 179.724 461.922 173.801C461.922 173.801 463.002 142.734 468.514 132.652C470.533 132.782 472.54 133.061 474.518 133.489C474.518 133.489 467.083 160.1 471.178 185.204L501.959 186.807C501.959 186.807 507.267 190.12 507.912 202.009C508.024 204.115 507.999 206.226 507.835 208.329C507.835 208.329 507.682 214.012 511.227 221.265C511.546 221.903 511.866 222.593 512.281 223.269C512.274 223.269 519.403 237.322 512.46 238.746Z" fill="#9891FF"/>
<mask id="mask0_301_4694" style="mask-type:luminance" maskUnits="userSpaceOnUse" x="461" y="132" width="55" height="111">
<path d="M512.46 238.746C512.46 238.746 499.295 243.215 475.272 241.938C475.272 241.938 464.592 243.898 462.637 223.423C462.637 223.423 461.699 209.811 461.43 195.784C461.43 194.392 461.386 192.993 461.373 191.608C461.258 185.667 461.442 179.724 461.922 173.801C461.922 173.801 463.002 142.734 468.514 132.652C470.533 132.782 472.54 133.061 474.518 133.489C474.518 133.489 467.083 160.1 471.178 185.204L501.959 186.807C501.959 186.807 507.267 190.12 507.912 202.009C508.024 204.115 507.999 206.226 507.835 208.329C507.835 208.329 507.682 214.012 511.227 221.265C511.546 221.903 511.866 222.593 512.281 223.269C512.274 223.269 519.403 237.322 512.46 238.746Z" fill="white"/>
</mask>
<g mask="url(#mask0_301_4694)">
<path opacity="0.3" d="M511.225 221.264C500.047 216.795 495.378 221.136 495.378 221.136C489.68 225.05 485.056 224.692 485.056 224.692C472.421 224.871 469.573 206.726 469.573 206.726C468.212 199.588 464.175 196.849 461.429 195.808C461.429 194.417 461.384 193.018 461.371 191.633C466.998 192.61 471.067 197.028 473.379 200.316C474.279 201.593 475.463 202.644 476.839 203.384C478.215 204.124 479.744 204.534 481.306 204.581C490.504 204.843 502.276 203.01 507.91 202.027C508.023 204.133 507.997 206.245 507.833 208.348C507.833 208.348 507.68 214.011 511.225 221.264Z" fill="white"/>
</g>
<path d="M441.718 389.841L440.748 405.228L397.332 399.89L399.612 384.484L441.718 389.841Z" fill="#6C63FF"/>
<path d="M496.623 407.002L452.85 405.757L452.543 391.028L495.473 388.953L496.623 407.002Z" fill="#6C63FF"/>
<path opacity="0.3" d="M423.129 175.78C417.259 177.204 416.192 172.932 416.192 172.932C409.249 166.548 416.55 159.595 416.55 159.595C409.786 159.614 409.434 157.635 409.434 157.635C406.585 152.304 411.216 151.059 411.216 151.059C411.625 150.886 412.04 150.714 412.443 150.535C413.133 152.559 414.998 155.304 419.922 156.92C419.922 156.92 415.253 168.61 421.302 170.57C421.302 170.57 420.025 162.206 425.218 160.61C423.181 165.39 422.46 170.628 423.129 175.78Z" fill="white"/>
<path d="M462.638 102.327V113.009C462.627 116.398 461.272 119.645 458.87 122.038C456.469 124.432 453.216 125.776 449.825 125.778H448.759C445.367 125.778 442.114 124.434 439.712 122.04C437.31 119.647 435.955 116.399 435.945 113.009V102.327C435.945 98.9303 437.295 95.6727 439.698 93.2708C442.101 90.8689 445.36 89.5195 448.759 89.5195H449.825C451.508 89.5195 453.174 89.8508 454.729 90.4944C456.283 91.1381 457.696 92.0815 458.886 93.2708C460.075 94.4601 461.019 95.872 461.663 97.4258C462.307 98.9797 462.638 100.645 462.638 102.327Z" fill="#F7C1CD"/>
<path d="M477.617 107.656C477.617 107.656 477.272 109.457 476.888 112.215C476.077 117.961 475.081 127.844 476.569 134.248C472.097 132.99 467.46 132.42 462.817 132.556C462.817 132.556 460.198 127.978 461.393 120.464L464.107 115.094L462.83 110.146C462.83 110.146 448.701 106.367 446.925 96.4065C446.925 96.4065 437.778 95.4297 435.945 102.325V113.007C435.945 113.007 435.907 124.435 448.081 125.814L448.394 131.682L445.724 133.105C445.724 133.105 438.66 131.554 425.616 142.529L424.492 143.397C424.492 143.397 430.011 108.512 431.256 98.0218C431.256 98.0218 429.621 92.2756 439.605 89.5303L448.036 86.4273L452.782 84.6779C452.782 84.6779 461.086 82.2645 463.424 87.7426C463.436 87.7298 479.661 84.5822 477.617 107.656Z" fill="#4B1713"/>
<path opacity="0.3" d="M477.614 107.657C477.614 107.657 477.269 109.458 476.886 112.216C477.308 90.1378 463.434 91.9511 463.434 91.9511C457.404 84.8833 448.2 86.3901 448.047 86.4156L452.793 84.6662C452.793 84.6662 461.096 82.2528 463.434 87.7308C463.434 87.7308 479.658 84.5832 477.614 107.657Z" fill="black"/>
<path d="M468.838 116.162C468.838 117.71 468.24 119.199 467.169 120.318C466.099 121.437 464.637 122.101 463.089 122.17L458.465 122.399C459.773 121.208 460.819 119.758 461.537 118.141C462.255 116.525 462.629 114.777 462.636 113.008V110.16H462.847C464.436 110.167 465.958 110.802 467.08 111.926C468.203 113.051 468.835 114.573 468.838 116.162Z" fill="#F7C1CD"/>
<path d="M504.608 206.018C504.608 206.018 487.17 212.064 464.929 189.654C464.929 189.654 459.819 190.139 456.881 187.828C455.469 186.711 454.562 184.955 454.965 182.184C454.816 181.86 454.74 181.508 454.742 181.151C454.745 180.795 454.825 180.444 454.978 180.122C455.131 179.8 455.352 179.515 455.627 179.288C455.902 179.061 456.223 178.896 456.568 178.807C456.568 178.807 455.737 172.882 459.908 172.307C460.573 172.228 461.247 172.261 461.901 172.403C462.023 172.435 464.923 173.246 464.923 171.158C464.923 171.158 464.923 164.933 468.48 166.178C468.48 166.178 468.372 170.647 469.004 173.329C469.116 173.815 469.331 174.272 469.635 174.667C469.939 175.063 470.326 175.388 470.767 175.621L487.7 184.674L484.634 177.977C484.634 177.977 486.985 177.562 485.912 173.827C486.65 174.359 487.516 174.688 488.421 174.781C489.327 174.874 490.241 174.728 491.073 174.357C491.073 174.357 492.139 173.29 491.43 170.622C491.43 170.622 494.988 172.403 497.479 171.158C497.479 171.158 499.792 169.913 497.301 164.039C497.97 164.641 498.797 165.04 499.686 165.188C500.574 165.337 501.486 165.228 502.315 164.875C502.315 164.875 518.507 201.753 504.608 206.018Z" fill="#F7C1CD"/>
<path d="M457.296 181.468C455.476 183.16 456.313 186.27 456.9 187.853C455.489 186.736 454.582 184.98 454.984 182.209C454.835 181.885 454.759 181.533 454.762 181.176C454.764 180.82 454.844 180.468 454.997 180.146C455.15 179.824 455.372 179.54 455.646 179.313C455.921 179.086 456.242 178.921 456.587 178.832C456.587 178.832 455.757 172.907 459.928 172.332V172.364C458.243 175.105 457.334 178.252 457.296 181.468Z" fill="#F28EA2"/>
<path d="M468.505 166.18C466.902 166.18 466.193 171.339 466.193 171.339C464.794 174.831 462.028 172.495 461.926 172.405C462.047 172.437 464.947 173.248 464.947 171.16C464.947 171.16 464.947 164.935 468.505 166.18Z" fill="#F28EA2"/>
<path d="M487.725 184.677C492.231 186.639 496.573 188.958 500.711 191.611C500.711 191.611 498.577 183.611 486.02 181.031L487.725 184.677Z" fill="#F28EA2"/>
<path d="M300.209 263.109L290.954 296.015L211.589 297.081L201.695 259.412L224.403 250.85C236.679 246.579 233.345 228.906 233.345 228.906C249.576 236.849 265.832 230.432 265.832 230.432C263.277 246.126 275.196 251.335 275.196 251.335L300.209 263.109Z" fill="#F7C1CD"/>
<path d="M300.209 263.111L290.954 296.017L211.589 297.083L201.695 259.414C201.881 259.695 213.57 277.431 215.863 287.506C215.863 287.506 216.572 291.976 222.448 292.129L271.734 292.308C271.734 292.308 281.168 292.486 284.547 286.791L300.209 263.111Z" fill="#F28EA2"/>
<path d="M233.309 228.902C233.309 228.902 234.178 235.657 232.926 240.49C232.926 240.49 253.544 253.643 266.275 240.146C265.373 236.984 265.209 233.657 265.796 230.422C265.796 230.422 251.494 236.87 233.309 228.902Z" fill="#F28EA2"/>
<path d="M288.074 178.98H293.504C297.161 178.98 300.669 180.433 303.255 183.018C305.841 185.603 307.294 189.109 307.294 192.765C307.294 196.421 305.841 199.927 303.255 202.512C300.669 205.097 297.161 206.549 293.504 206.549H288.074V178.98Z" fill="#F7C1CD"/>
<path d="M210.312 201.199H204.883C201.226 201.199 197.718 199.747 195.132 197.162C192.546 194.577 191.093 191.071 191.093 187.415C191.093 183.759 192.546 180.253 195.132 177.668C197.718 175.083 201.226 173.63 204.883 173.63H210.312V201.199Z" fill="#F7C1CD"/>
<path opacity="0.35" d="M321.173 107.836H182.91V246.389H321.173V107.836Z" fill="white"/>
<path d="M321.533 174H185.762V176.669H321.533V174Z" fill="#2F2E41"/>
<path d="M321.706 179.876C324.359 179.876 326.509 177.726 326.509 175.075C326.509 172.423 324.359 170.273 321.706 170.273C319.053 170.273 316.902 172.423 316.902 175.075C316.902 177.726 319.053 179.876 321.706 179.876Z" fill="#2F2E41"/>
<path d="M183.268 179.876C185.921 179.876 188.072 177.726 188.072 175.075C188.072 172.423 185.921 170.273 183.268 170.273C180.615 170.273 178.465 172.423 178.465 175.075C178.465 177.726 180.615 179.876 183.268 179.876Z" fill="#2F2E41"/>
<g opacity="0.3">
<path d="M321.702 179.876C324.355 179.876 326.505 177.726 326.505 175.075C326.505 172.423 324.355 170.273 321.702 170.273C319.049 170.273 316.898 172.423 316.898 175.075C316.898 177.726 319.049 179.876 321.702 179.876Z" fill="black"/>
<path d="M183.268 179.876C185.921 179.876 188.072 177.726 188.072 175.075C188.072 172.423 185.921 170.273 183.268 170.273C180.615 170.273 178.465 172.423 178.465 175.075C178.465 177.726 180.615 179.876 183.268 179.876Z" fill="black"/>
</g>
</svg>
