<svg xmlns="http://www.w3.org/2000/svg" width="494" height="389" fill="none" viewBox="0 0 494 389">
  <path fill="#fff" d="M374.118 38.75H132.902v187.758h241.216V38.75Z"/>
  <path fill="#002346" d="M374.402 226.793H132.617V38.465h241.785v188.328Zm-241.215-.57h240.646V39.034H133.187v187.189Z"/>
  <path fill="#002346" d="M162.804 211.026a.282.282 0 0 1-.284-.285V95.902c0-.16.125-.285.284-.285.16 0 .285.126.285.285v114.839a.282.282 0 0 1-.285.285Zm36.696-.085a.282.282 0 0 1-.285-.285v-91.449c0-.16.125-.285.285-.285.159 0 .284.125.284.285v91.449c0 .16-.125.285-.284.285Zm35.464-.001a.282.282 0 0 1-.284-.285V94.187c0-.16.125-.285.284-.285.16 0 .285.126.285.285v116.468c0 .16-.125.285-.285.285Zm31.34-51.409a.282.282 0 0 1-.284-.285V77.019c0-.16.125-.285.284-.285.16 0 .285.126.285.285v82.227c0 .16-.125.285-.285.285Zm37.801 44.055a.282.282 0 0 1-.285-.285v-82.227c0-.16.126-.285.285-.285.159 0 .285.125.285.285v82.227c0 .16-.126.285-.285.285Z"/>
  <path fill="#002346" d="M304.104 121.076a.854.854 0 1 0 0-1.707.854.854 0 0 0 0 1.707Zm41.001 55.17a.282.282 0 0 1-.285-.285V93.734c0-.16.126-.285.285-.285.159 0 .285.126.285.285v82.227c0 .16-.126.285-.285.285Z"/>
  <path fill="#002346" d="M345.104 93.732a.854.854 0 1 0 0-1.708.854.854 0 0 0 0 1.708Zm-144.751 25.837a.854.854 0 1 1-1.708.002.854.854 0 0 1 1.708-.002Zm34.611-24.529a.855.855 0 1 0-.001-1.708.855.855 0 0 0 .001 1.709Zm31.339-18.023a.855.855 0 1 0 0-1.71.855.855 0 0 0 0 1.71Z"/>
  <path fill="#263238" d="M345.018 95.04a.854.854 0 1 0 0-1.707.854.854 0 0 0 0 1.708Z"/>
  <path fill="#002346" d="M163.361 95.048a.85.85 0 0 1-.86.848.85.85 0 0 1-.849-.86.85.85 0 0 1 1.703 0v.012h.006Z"/>
  <path fill="#F69074" d="M203.699 165.018c-9.048 0-16.12-5.754-18.797-8.283-1.953-1.851-4.02-3.452-6.133-4.756-7.323-4.529-14.019-5.976-19.896-4.296-7.864 2.251-11.508 9.434-11.543 9.502a.285.285 0 1 1-.512-.251c.034-.074 3.787-7.479 11.896-9.797 6.036-1.726 12.886-.262 20.351 4.357 2.147 1.328 4.237 2.951 6.224 4.831 2.705 2.563 9.988 8.482 19.242 8.112 6.89-.28 13.553-3.942 19.799-10.892 3.286-3.651 6.093-7.981 8.343-12.857 4.567-9.894 17.339-32.258 37.23-26.243.341.074 9.122 2.205 23.734 27.798 1.828 3.202 3.627 6.762 5.672 11.199 2.004 4.364 8.427 13.9 24.685 8.3.103-.023 7.34-1.749 16.969-17.129.188-.313 4.75-7.741 11.384-9.228a.291.291 0 0 1 .341.216.286.286 0 0 1-.216.342c-6.401 1.43-10.979 8.898-11.025 8.972-9.783 15.631-16.997 17.317-17.299 17.38-16.668 5.742-23.285-4.107-25.357-8.608-2.033-4.426-3.833-7.969-5.649-11.159-14.487-25.377-23.296-27.513-23.382-27.53-19.486-5.89-32.071 16.172-36.575 25.935-2.272 4.928-5.113 9.302-8.433 12.994-6.355 7.069-13.154 10.8-20.204 11.079-.285.012-.575.017-.854.017l.005-.005Z"/>
  <path fill="#fff" d="M203.731 59.82h-42.059v2.341h42.059v-2.34Z"/>
  <path fill="#002346" d="M204.015 62.446h-42.628v-2.91h42.628v2.91Zm-42.059-.57h41.49v-1.771h-41.49v1.771Z"/>
  <path fill="#fff" d="M182.451 65.3h-20.779v2.342h20.779v-2.341Z"/>
  <path fill="#002346" d="M182.735 67.927h-21.348v-2.911h21.348v2.91Zm-20.779-.57h20.21v-1.772h-20.21v1.772Z"/>
  <path fill="#F69074" d="M136.15 23.434h234.433a3.537 3.537 0 0 1 3.536 3.537v11.763H132.613V26.977a3.54 3.54 0 0 1 3.531-3.543h.006Z"/>
  <path fill="#002346" d="M374.404 39.019H132.328V26.976c0-1.02.393-1.982 1.116-2.705a3.79 3.79 0 0 1 2.699-1.123h234.44a3.826 3.826 0 0 1 3.821 3.823v12.048Zm-241.506-.57h240.936V26.976c0-1.8-1.458-3.258-3.251-3.258h-234.44c-.865 0-1.685.342-2.294.957a3.248 3.248 0 0 0-.951 2.301V38.45Z"/>
  <path fill="#fff" d="M143.789 31.385a2.057 2.057 0 0 1-2.044 2.062 2.057 2.057 0 0 1-2.061-2.045c0-1.134.911-2.056 2.044-2.062h.011c1.133 0 2.045.917 2.045 2.045h.005Z"/>
  <path fill="#002346" d="M141.735 33.731a2.341 2.341 0 0 1-1.663-3.987 2.304 2.304 0 0 1 1.652-.69 2.34 2.34 0 0 1 1.668 3.988 2.302 2.302 0 0 1-1.651.69h-.006Zm.006-4.107a1.771 1.771 0 1 0-.006 3.543h.006c.472 0 .916-.188 1.247-.524.33-.336.518-.78.512-1.253 0-.974-.791-1.766-1.759-1.766Z"/>
  <path fill="#fff" d="M152.723 31.385a2.057 2.057 0 0 1-2.044 2.062 2.058 2.058 0 0 1-2.062-2.045c0-1.134.911-2.056 2.044-2.062h.006c1.133 0 2.05.911 2.056 2.04v.005Z"/>
  <path fill="#002346" d="M150.675 33.731a2.31 2.31 0 0 1-1.646-.678 2.305 2.305 0 0 1-.689-1.651c0-.627.239-1.214.677-1.658a2.304 2.304 0 0 1 1.652-.69h.006c.626 0 1.207.24 1.651.679a2.3 2.3 0 0 1 .689 1.646c0 .632-.239 1.219-.678 1.663a2.302 2.302 0 0 1-1.651.69h-.011Zm.005-4.107h-.005c-.479 0-.923.188-1.259.524-.33.337-.518.78-.512 1.254a1.764 1.764 0 0 0 1.771 1.76h.005c.473 0 .917-.188 1.247-.524.331-.336.519-.78.513-1.253a1.763 1.763 0 0 0-1.76-1.766v.005Z"/>
  <path fill="#fff" d="M161.664 31.385a2.057 2.057 0 0 1-2.044 2.062 2.057 2.057 0 0 1-2.061-2.045c0-1.134.911-2.056 2.044-2.062h.011c1.133 0 2.045.917 2.045 2.045h.005Z"/>
  <path fill="#002346" d="M159.614 33.731a2.343 2.343 0 0 1-2.341-2.33c0-.626.24-1.213.678-1.657a2.303 2.303 0 0 1 1.651-.69 2.34 2.34 0 0 1 1.669 3.988 2.304 2.304 0 0 1-1.651.69h-.006Zm.006-4.107a1.771 1.771 0 1 0-.006 3.543h.006c.472 0 .916-.188 1.247-.524.33-.336.518-.78.512-1.253 0-.974-.791-1.766-1.759-1.766Z"/>
  <path fill="#fff" d="M181.014 74.148H87.478a2.056 2.056 0 0 0-2.056 2.057v36.451c0 1.136.92 2.056 2.056 2.056h93.536c1.135 0 2.056-.92 2.056-2.056V76.205a2.057 2.057 0 0 0-2.056-2.057Z"/>
  <path fill="#002346" d="M181.014 114.997H87.477a2.34 2.34 0 0 1-2.34-2.341V76.204a2.34 2.34 0 0 1 2.34-2.34h93.537a2.34 2.34 0 0 1 2.34 2.34v36.452a2.34 2.34 0 0 1-2.34 2.341ZM87.477 74.433c-.974 0-1.77.792-1.77 1.771v36.452c0 .974.796 1.771 1.77 1.771h93.537c.973 0 1.771-.797 1.771-1.771V76.204c0-.974-.798-1.771-1.771-1.771H87.477Z"/>
  <path fill="#F69074" d="M105.713 86.963a4.555 4.555 0 1 1-9.111 0 4.555 4.555 0 1 1 9.111 0Z"/>
  <path fill="#002346" d="M101.157 91.805a4.844 4.844 0 0 1-4.84-4.842 4.844 4.844 0 0 1 4.84-4.842c2.67 0 4.84 2.17 4.84 4.842a4.845 4.845 0 0 1-4.84 4.842Zm0-9.114a4.273 4.273 0 0 0 0 8.544 4.273 4.273 0 0 0 0-8.544Z"/>
  <path fill="#F69074" d="M141.985 83.82h-31.723v1.76h31.723v-1.76Z"/>
  <path fill="#002346" d="M142.27 85.865h-32.293v-2.33h32.293v2.33Zm-31.724-.57H141.7v-1.19h-31.154v1.19Z"/>
  <path fill="#fff" d="M171.961 87.824h-61.699v1.76h61.699v-1.76Z"/>
  <path fill="#002346" d="M172.245 89.869h-62.268v-2.33h62.268v2.33Zm-61.699-.57h61.13v-1.19h-61.13v1.19Z"/>
  <path fill="#F69074" d="M105.713 100.967a4.555 4.555 0 1 1-9.111 0 4.555 4.555 0 1 1 9.111 0Z"/>
  <path fill="#002346" d="M101.157 105.809a4.844 4.844 0 0 1-4.84-4.842 4.844 4.844 0 0 1 4.84-4.842c2.67 0 4.84 2.17 4.84 4.842a4.844 4.844 0 0 1-4.84 4.842Zm0-9.114a4.273 4.273 0 0 0 0 8.544 4.273 4.273 0 0 0 0-8.544Z"/>
  <path fill="#F69074" d="M126.462 97.824h-16.2v1.76h16.2v-1.76Z"/>
  <path fill="#002346" d="M126.747 99.869h-16.77v-2.33h16.77v2.33Zm-16.201-.57h15.631v-1.19h-15.631v1.19Z"/>
  <path fill="#fff" d="M171.961 101.82h-61.699v1.76h61.699v-1.76Z"/>
  <path fill="#002346" d="M172.245 103.865h-62.268v-2.33h62.268v2.33Zm-61.699-.57h61.13v-1.19h-61.13v1.19Z"/>
  <path fill="#FBE493" d="M185.325 197.141H65.555a3.11 3.11 0 0 0-3.11 3.11v47.354a3.11 3.11 0 0 0 3.11 3.11h119.77a3.11 3.11 0 0 0 3.109-3.11v-47.354a3.11 3.11 0 0 0-3.109-3.11Z"/>
  <path fill="#002346" d="M185.325 251H65.554a3.396 3.396 0 0 1-3.394-3.395v-47.354a3.396 3.396 0 0 1 3.394-3.396h119.771a3.396 3.396 0 0 1 3.394 3.396v47.354a3.396 3.396 0 0 1-3.394 3.395ZM65.554 197.425a2.828 2.828 0 0 0-2.824 2.826v47.354c0 1.56 1.27 2.825 2.824 2.825h119.771a2.828 2.828 0 0 0 2.824-2.825v-47.354a2.828 2.828 0 0 0-2.824-2.826H65.554Z"/>
  <path fill="#F69074" d="m77.424 227.318 8.058-1.743.011-2.552-.074-10.863a13.843 13.843 0 0 0-8.968 3.503 12.835 12.835 0 0 0-4.317 11.245c.057.518.143 1.048.25 1.572l5.04-1.162Z"/>
  <path fill="#002346" d="m72.165 228.822-.057-.285c-.114-.541-.2-1.082-.257-1.601a13.107 13.107 0 0 1 4.413-11.489 14.135 14.135 0 0 1 9.151-3.572h.29l.075 11.148-.011 2.785-8.28 1.789-5.325 1.23v-.005Zm12.971-16.372a13.58 13.58 0 0 0-8.496 3.424 12.535 12.535 0 0 0-4.225 11c.046.41.108.837.188 1.264l4.76-1.099 7.836-1.692.011-2.324-.074-10.567v-.006Z"/>
  <path fill="#E6E7E8" d="M99.016 219.68a12.88 12.88 0 0 0-10.563-7.406l-.416-.04h-1.139l.069 10.863v2.552l13.097 2.814c.205-.928.302-1.874.29-2.819 0-2.062-.46-4.102-1.338-5.964Z"/>
  <path fill="#002346" d="m100.28 228.799-13.598-2.922v-2.78l-.069-11.148h1.424l.444.04c4.675.41 8.815 3.31 10.797 7.571a14.389 14.389 0 0 1 1.366 6.083c.012.963-.085 1.937-.296 2.883l-.062.279-.006-.006Zm-13.029-3.384 12.59 2.706c.16-.814.234-1.646.228-2.478 0-2.011-.455-4.033-1.31-5.844a12.621 12.621 0 0 0-10.33-7.24l-.415-.04h-.826l.069 12.902-.006-.006Z"/>
  <path fill="#fff" d="m85.969 226.904-12.875 2.951c1.628 7.228 8.809 11.768 16.035 10.139a13.42 13.42 0 0 0 10.16-10.225l-12.75-3.019-.57.154Z"/>
  <path fill="#002346" d="M86.15 240.614c-2.562 0-5.073-.723-7.294-2.124a13.637 13.637 0 0 1-6.047-8.573l-.063-.28 13.78-3.184 13.092 3.099-.057.273c-1.133 5.178-5.205 9.28-10.37 10.442a13.78 13.78 0 0 1-3.04.342v.005ZM73.436 230.07a13.059 13.059 0 0 0 5.729 7.941 13.027 13.027 0 0 0 9.902 1.709 13.196 13.196 0 0 0 9.88-9.735l-12.402-2.939-.513.136-12.596 2.888Z"/>
  <path fill="#fff" d="M175.634 215.406h-66.493v3.014h66.493v-3.014Z"/>
  <path fill="#002346" d="M175.919 218.704h-67.064v-3.583h67.064v3.583Zm-66.494-.57h65.924v-2.443h-65.924v2.443Z"/>
  <path fill="#fff" d="M175.634 223.355h-66.493v3.014h66.493v-3.014Z"/>
  <path fill="#002346" d="M175.919 226.653h-67.064v-3.583h67.064v3.583Zm-66.494-.569h65.924v-2.444h-65.924v2.444Z"/>
  <path fill="#fff" d="M145.084 232.137h-35.943v3.013h35.943v-3.013Z"/>
  <path fill="#002346" d="M145.368 235.435h-36.513v-3.583h36.513v3.583Zm-35.943-.57h35.374v-2.444h-35.374v2.444Z"/>
  <path fill="#fff" d="M357.944 151H239.78a6.601 6.601 0 0 0-6.6 6.602v113.324a6.601 6.601 0 0 0 6.6 6.602h118.164c3.645 0 6.6-2.956 6.6-6.602V157.602a6.601 6.601 0 0 0-6.6-6.602Z"/>
  <path fill="#002346" d="M357.944 277.812H239.779a6.89 6.89 0 0 1-6.884-6.886V157.602a6.89 6.89 0 0 1 6.884-6.887h118.165a6.891 6.891 0 0 1 6.885 6.887v113.324a6.891 6.891 0 0 1-6.885 6.886ZM239.779 151.284a6.324 6.324 0 0 0-6.315 6.318v113.324a6.323 6.323 0 0 0 6.315 6.317h118.165c3.479 0 6.315-2.837 6.315-6.317V157.602a6.324 6.324 0 0 0-6.315-6.318H239.779Z"/>
  <path fill="#002346" d="M246.67 237.676h-4.311v1.242h4.311v-1.242Zm10.961 6.644h-5.518v1.242h5.518v-1.242Zm19.195 0h-5.517v1.242h5.517v-1.242Zm19.192 0H290.5v1.242h5.518v-1.242Zm19.195 0h-5.518v1.242h5.518v-1.242Zm19.196 0h-5.518v1.242h5.518v-1.242Zm19.199 0h-5.518v1.242h5.518v-1.242ZM246.67 221.074h-4.311v1.242h4.311v-1.242Zm0-31.242h-4.311v1.242h4.311v-1.242Zm0-15.695h-4.311v1.242h4.311v-1.242Zm.223 31.32h-4.311v1.242h4.311v-1.242Zm101.822.906h-93.844a.282.282 0 0 1-.285-.285c0-.16.125-.285.285-.285h93.844c.159 0 .284.125.284.285a.282.282 0 0 1-.284.285Zm-1.046-15.625h-93.548a.282.282 0 0 1-.285-.285c0-.16.125-.285.285-.285h93.548c.159 0 .284.125.284.285a.282.282 0 0 1-.284.285Zm5.748-15.696H252.859a.282.282 0 0 1-.285-.285c0-.159.125-.284.285-.284h100.558c.159 0 .284.125.284.284 0 .16-.125.285-.284.285Z"/>
  <path fill="#FBE493" d="M252.771 235.554v-13.86l8.753-13.409 5.945 4.5 12.186-18.69 7.163 5.002 10.005-17.271 8.132 6.528 12.186-22.866 13.131 25.56 10.632-12.788 12.505-3.532v60.792l-100.643.034h.005Z"/>
  <path fill="#002346" d="M252.488 235.839v-14.23l8.963-13.734 5.945 4.5 12.181-18.678 7.152 4.99 10.016-17.289 8.126 6.523 12.283-23.042 13.183 25.662 10.415-12.526 12.949-3.657v61.452h-.285l-100.928.034v-.005Zm.57-14.059v13.489l100.073-.034v-60.131l-12.055 3.406-10.853 13.051-13.08-25.457-12.095 22.688-8.143-6.533-9.994 17.254-7.175-5.013-12.192 18.701-5.945-4.5-8.536 13.085-.005-.006Z"/>
  <path fill="#002346" d="M254.831 224.51a.318.318 0 0 1-.154-.046.285.285 0 0 1-.085-.393l16.707-26.374a.278.278 0 0 1 .234-.131.278.278 0 0 1 .239.114l13.484 18.365 21.115-34.571a.283.283 0 0 1 .245-.137h25.329l9.999-13.426a.275.275 0 0 1 .228-.114h12.642c.159 0 .285.125.285.285a.283.283 0 0 1-.285.285h-12.499l-10 13.426a.273.273 0 0 1-.228.114h-25.311l-21.252 34.799a.297.297 0 0 1-.233.137c-.109 0-.188-.04-.24-.114l-13.49-18.371-16.485 26.021a.29.29 0 0 1-.239.131h-.006Z"/>
  <path fill="#fff" d="M281.377 207.782a2.245 2.245 0 0 1-2.175 2.307 2.246 2.246 0 0 1-2.307-2.176 2.245 2.245 0 0 1 2.176-2.307h.068a2.195 2.195 0 0 1 2.244 2.136v.04h-.006Z"/>
  <path fill="#002346" d="M279.135 210.373a2.533 2.533 0 0 1-2.528-2.455 2.53 2.53 0 0 1 2.448-2.598h.074a2.501 2.501 0 0 1 1.76.684c.478.456.751 1.071.768 1.732l-.284.045h.284a2.516 2.516 0 0 1-.689 1.8 2.495 2.495 0 0 1-1.765.792h-.074.006Zm.057-4.489h-.12a1.962 1.962 0 0 0-1.89 2.017c.028 1.082.945 1.914 2.015 1.902a1.945 1.945 0 0 0 1.367-.615 1.96 1.96 0 0 0 .535-1.401v-.046a1.89 1.89 0 0 0-.592-1.333 1.888 1.888 0 0 0-1.315-.524Z"/>
  <path fill="#fff" d="M302.307 191.27a1.534 1.534 0 0 1-1.481 1.584 1.534 1.534 0 0 1-.108-3.065h.051c.832 0 1.515.655 1.532 1.487v-.012l.006.006Z"/>
  <path fill="#002346" d="M300.775 193.146a1.818 1.818 0 0 1-.069-3.634h.074a1.818 1.818 0 0 1 .052 3.634h-.063.006Zm.005-3.065h-.005c-.729.023-1.27.604-1.247 1.288a1.234 1.234 0 0 0 1.286 1.202 1.245 1.245 0 0 0-.034-2.49Z"/>
  <path fill="#fff" d="M327.084 181.294a1.533 1.533 0 1 1-1.589-1.482h.052c.831 0 1.514.656 1.531 1.487v-.011l.006.006Z"/>
  <path fill="#002346" d="M325.554 183.162c-.461 0-.9-.171-1.236-.49a1.82 1.82 0 0 1 1.173-3.145h.074a1.816 1.816 0 0 1 1.316 3.059 1.81 1.81 0 0 1-1.264.576h-.063Zm.011-3.065h-.005c-.735.023-1.27.604-1.247 1.287.011.331.153.644.393.872.244.228.569.353.894.336.33-.011.643-.154.871-.393a1.244 1.244 0 0 0-.9-2.096l-.006-.006Z"/>
  <path fill="#E6E7E8" d="M258.417 266.993c3.481 0 6.304-2.716 6.304-6.067 0-3.35-2.823-6.067-6.304-6.067-3.481 0-6.304 2.717-6.304 6.067 0 3.351 2.823 6.067 6.304 6.067Z"/>
  <path fill="#002346" d="M258.417 267.277c-3.633 0-6.589-2.848-6.589-6.351 0-3.504 2.956-6.352 6.589-6.352 3.633 0 6.588 2.848 6.588 6.352 0 3.503-2.955 6.351-6.588 6.351Zm0-12.133c-3.32 0-6.019 2.592-6.019 5.782s2.699 5.781 6.019 5.781c3.319 0 6.019-2.591 6.019-5.781 0-3.19-2.7-5.782-6.019-5.782Z"/>
  <path fill="#E6E7E8" d="M348.088 256.859h-74.022v2.268h74.022v-2.268Z"/>
  <path fill="#002346" d="M348.372 259.411h-74.591v-2.837h74.591v2.837Zm-74.021-.57h73.452v-1.697h-73.452v1.697Z"/>
  <path fill="#E6E7E8" d="M304.799 262.535h-30.733v2.267h30.733v-2.267Z"/>
  <path fill="#002346" d="M305.083 265.087h-31.302v-2.837h31.302v2.837Zm-30.732-.57h30.163v-1.697h-30.163v1.697Z"/>
  <path fill="#E6E7E8" d="M405.601 52.723h-79.465a3.878 3.878 0 0 0-3.878 3.879v64.608a3.878 3.878 0 0 0 3.878 3.879h79.465a3.878 3.878 0 0 0 3.878-3.879V56.602a3.878 3.878 0 0 0-3.878-3.88Z"/>
  <path fill="#002346" d="M405.601 125.374h-79.466a4.168 4.168 0 0 1-4.162-4.164V56.602a4.168 4.168 0 0 1 4.162-4.164h79.466a4.169 4.169 0 0 1 4.163 4.164v64.608a4.169 4.169 0 0 1-4.163 4.164Zm-79.466-72.367a3.598 3.598 0 0 0-3.593 3.595v64.608a3.598 3.598 0 0 0 3.593 3.594h79.466a3.597 3.597 0 0 0 3.593-3.594V56.602a3.597 3.597 0 0 0-3.593-3.595h-79.466Z"/>
  <path fill="#F69074" d="M342.188 81.703h-4.704v35.506h4.704V81.703Z"/>
  <path fill="#002346" d="M342.472 117.493h-5.273V81.418h5.273v36.075Zm-4.703-.57h4.134V81.988h-4.134v34.935Z"/>
  <path fill="#FBE493" d="M348.372 77.89h-4.704v39.317h4.704V77.891Z"/>
  <path fill="#002346" d="M348.656 117.492h-5.273V77.606h5.273v39.886Zm-4.704-.57h4.134V78.175h-4.134v38.747Z"/>
  <path fill="#fff" d="M354.555 92.258h-4.703v24.95h4.703v-24.95Z"/>
  <path fill="#002346" d="M354.839 117.492h-5.273v-25.52h5.273v25.52Zm-4.703-.569h4.134v-24.38h-4.134v24.38Z"/>
  <path fill="#F69074" d="M364.965 74.922h-4.703v42.284h4.703V74.922Z"/>
  <path fill="#002346" d="M365.25 117.491h-5.273V74.637h5.273v42.854Zm-4.704-.57h4.134V75.206h-4.134v41.715Z"/>
  <path fill="#FBE493" d="M371.149 70.383h-4.704v46.824h4.704V70.383Z"/>
  <path fill="#002346" d="M371.433 117.492h-5.273V70.098h5.273v47.394Zm-4.703-.57h4.134V70.667h-4.134v46.255Z"/>
  <path fill="#fff" d="M377.333 87.488h-4.704v29.713h4.704V87.488Z"/>
  <path fill="#002346" d="M377.617 117.491h-5.273V87.203h5.273v30.288Zm-4.704-.57h4.134V87.773h-4.134v29.148Z"/>
  <path fill="#F69074" d="M387.743 65.148h-4.704v52.06h4.704v-52.06Z"/>
  <path fill="#002346" d="M388.027 117.492h-5.273V64.863h5.273v52.629Zm-4.704-.57h4.134v-51.49h-4.134v51.49Z"/>
  <path fill="#FBE493" d="M393.926 59.559h-4.703v57.647h4.703V59.559Z"/>
  <path fill="#002346" d="M394.211 117.49h-5.273V59.273h5.273v58.217Zm-4.704-.569h4.134V59.843h-4.134v57.078Z"/>
  <path fill="#fff" d="M400.11 80.625h-4.704v36.582h4.704V80.625Z"/>
  <path fill="#002346" d="M400.394 117.492h-5.273V80.34h5.273v37.152Zm-4.703-.57h4.134V80.909h-4.134v36.013Zm10.627 3.89h-78.897a.282.282 0 0 1-.284-.285c0-.159.125-.285.284-.285h78.897c.159 0 .284.126.284.285 0 .16-.125.285-.284.285Z"/>
  <path fill="#fff" d="M330.292 110.891h-2.87v.951h2.87v-.951Z"/>
  <path fill="#002346" d="M330.576 112.126h-3.439v-1.521h3.439v1.521Zm-2.87-.569h2.301v-.382h-2.301v.382Z"/>
  <path fill="#fff" d="M330.292 98.254h-2.87v.951h2.87v-.951Z"/>
  <path fill="#002346" d="M330.576 99.49h-3.439v-1.521h3.439v1.52Zm-2.87-.57h2.301v-.382h-2.301v.382Z"/>
  <path fill="#fff" d="M330.292 74.469h-2.87v.951h2.87v-.951Z"/>
  <path fill="#002346" d="M330.576 75.704h-3.439v-1.52h3.439v1.52Zm-2.87-.57h2.301v-.38h-2.301v.38Z"/>
  <path fill="#fff" d="M330.292 62.523h-2.87v.952h2.87v-.952Z"/>
  <path fill="#002346" d="M330.576 63.76h-3.439v-1.522h3.439v1.521Zm-2.87-.57h2.301v-.382h-2.301v.382Z"/>
  <path fill="#fff" d="M330.44 86.363h-2.87v.952h2.87v-.952Z"/>
  <path fill="#002346" d="M330.725 87.6h-3.44v-1.522h3.44V87.6Zm-2.87-.57h2.3v-.382h-2.3v.381Z"/>
  <path fill="#FBE493" d="M308.755 46.848h-84.397a2.535 2.535 0 0 0-2.534 2.535v20.022c0 1.4 1.135 2.535 2.534 2.535h84.397c1.4 0 2.534-1.135 2.534-2.535V49.382c0-1.4-1.134-2.534-2.534-2.534Z"/>
  <path fill="#002346" d="M308.755 72.225h-84.397a2.822 2.822 0 0 1-2.819-2.82V49.382a2.822 2.822 0 0 1 2.819-2.82h84.397a2.823 2.823 0 0 1 2.819 2.82v20.023a2.823 2.823 0 0 1-2.819 2.82Zm-84.397-25.093a2.25 2.25 0 0 0-2.249 2.25v20.023a2.25 2.25 0 0 0 2.249 2.25h84.397a2.25 2.25 0 0 0 2.249-2.25V49.382a2.25 2.25 0 0 0-2.249-2.25h-84.397Z"/>
  <path fill="#fff" d="M240.681 62.812a5.46 5.46 0 0 1-7.671.837 5.463 5.463 0 0 1-.837-7.673 5.46 5.46 0 0 1 7.671-.837 5.491 5.491 0 0 1 .837 7.672Z"/>
  <path fill="#002346" d="M236.421 65.13a5.712 5.712 0 0 1-3.587-1.265c-2.466-1.983-2.864-5.606-.877-8.072 1.982-2.467 5.603-2.865 8.069-.883 2.443 1.988 2.836 5.605.883 8.072a5.734 5.734 0 0 1-4.482 2.147h-.006Zm.012-10.91a5.164 5.164 0 0 0-4.038 1.932c-1.788 2.221-1.429 5.485.792 7.274a5.183 5.183 0 0 0 7.272-.792c1.759-2.221 1.406-5.486-.797-7.274a5.147 5.147 0 0 0-3.229-1.134v-.005Z"/>
  <path fill="#FBE493" d="M426.569 209.826c2.671 11.962 5.33 12.099 1.247 69.592-.319 4.518 2.005 21.647 1.378 41.504-.484 15.284-2.044 20.792-2.044 20.792h-12.391s-6.053-52.686-7.169-63.122c-1.003-9.353-2.95-40.535-3.349-46.909a1.221 1.221 0 0 0-2.414-.177c-.638 2.991-2.751 13.905-7.414 46.055 0 0 1.867 24.239-5.165 62.262h-13.593s-3.029-54.383-3.092-62.957c-.062-8.573 4.208-57.789 5.45-66.459 1.241-8.67 5.854-13.381 5.854-13.381l36.751-.866s4.505 7.183 5.951 13.671"/>
  <path fill="#002346" d="M427.368 341.999H414.51l-.029-.251c-.062-.524-6.064-52.806-7.169-63.122-1.002-9.387-2.967-40.735-3.348-46.921a.942.942 0 0 0-.94-.877.944.944 0 0 0-.917.746c-.689 3.253-2.796 14.247-7.408 46.004.074 1.031 1.674 25.303-5.171 62.301l-.045.234h-14.1l-.017-.268c-.028-.541-3.029-54.486-3.092-62.967-.063-8.67 4.231-57.961 5.45-66.506 1.241-8.664 5.888-13.489 5.933-13.54l.08-.085 37.031-.872.085.137c.046.074 4.544 7.297 5.985 13.756.33 1.47.655 2.758.974 4.005 2.243 8.829 3.866 15.215.279 65.674-.114 1.606.108 4.819.421 9.268.541 7.764 1.361 19.493.957 32.23-.478 15.141-2.039 20.803-2.056 20.86l-.057.205.012-.011Zm-12.352-.57h11.919c.273-1.134 1.554-7.047 1.982-20.518.398-12.703-.416-24.421-.957-32.168-.313-4.472-.535-7.701-.422-9.348 3.577-50.367 1.965-56.713-.267-65.491a135.884 135.884 0 0 1-.974-4.01c-1.31-5.879-5.205-12.424-5.831-13.444l-36.467.86c-.604.667-4.573 5.287-5.7 13.142-1.224 8.533-5.512 57.761-5.444 66.414.057 8.157 2.847 58.513 3.075 62.672h13.086c6.896-37.414 5.136-61.715 5.119-61.954v-.063c4.612-31.797 6.725-42.814 7.414-46.072a1.516 1.516 0 0 1 1.475-1.196c.797 0 1.458.621 1.503 1.412.382 6.187 2.341 37.522 3.343 46.899 1.065 9.946 6.685 58.894 7.141 62.865h.005Z"/>
  <path fill="#F2B3C1" d="M376.674 339.82s.376 7.457-.877 8.693c-1.782 1.766-13.097 5.941-16.616 7.217-1.799.644-2.995 1.652-3.485 2.94a1.75 1.75 0 0 0 1.657 2.312h30.938s1.099-.427 1.23-2.392c.108-1.663-1.492-6.46-1.492-6.46-.285-1.082.416-12.31.416-12.31h-11.771Z"/>
  <path fill="#002346" d="M388.343 361.261h-30.99a2.026 2.026 0 0 1-1.919-2.683c.519-1.373 1.783-2.444 3.656-3.11 9.18-3.327 15.352-6.004 16.514-7.155.957-.94.9-6.442.797-8.482l-.017-.296h12.363l-.017.296c-.279 4.495-.627 11.461-.427 12.225.062.182 1.611 4.847 1.503 6.551-.142 2.119-1.355 2.614-1.407 2.637l-.051.017h-.005Zm-11.378-21.162c.063 1.532.228 7.428-.974 8.613-1.754 1.737-12.277 5.668-16.719 7.28-1.714.615-2.858 1.572-3.319 2.774a1.471 1.471 0 0 0 1.4 1.937h30.876c.182-.097.911-.575 1.013-2.131.103-1.589-1.463-6.305-1.48-6.351-.274-1.048.256-10.088.381-12.116h-11.178v-.006Z"/>
  <path fill="#fff" d="m354.934 361.755.091 1.794h25.015l3.65-1.794.092 1.794h4.771a1.042 1.042 0 0 0 1.065-1.019v-.12l-.034-.683-34.645.028h-.005Z"/>
  <path fill="#002346" d="M388.577 363.836h-5.068l-.085-1.635-3.32 1.635h-25.352l-.119-2.364 29.036-.023.279-.137v.137h5.893l.046.952v.136a1.313 1.313 0 0 1-.41.929c-.251.239-.575.37-.917.37h.017Zm-4.521-.57h4.498a.72.72 0 0 0 .547-.21.762.762 0 0 0 .234-.53v-.086l-.023-.427h-5.319l.063 1.253Zm-28.757 0h24.68l2.539-1.247-27.276.023.063 1.224h-.006Zm26.635-5.392a.287.287 0 0 1-.137-.034c-7.499-4.216-6.622-8.71-6.582-8.898a.282.282 0 1 1 .552.12c-.011.062-.786 4.3 6.304 8.282a.282.282 0 0 1 .108.388.284.284 0 0 1-.251.142h.006Z"/>
  <path fill="#F2B3C1" d="M415.286 341.824s.376 7.462-.877 8.699c-1.782 1.765-13.097 5.935-16.616 7.211-1.8.65-2.995 1.658-3.491 2.945a1.758 1.758 0 0 0 1.663 2.313h30.943s1.099-.427 1.23-2.398c.109-1.658-1.492-6.454-1.492-6.454-.284-1.083.41-12.316.41-12.316h-11.77Z"/>
  <path fill="#002346" d="M426.962 363.273h-30.995a1.94 1.94 0 0 1-.649-.109 2.035 2.035 0 0 1-1.282-2.574c.53-1.373 1.794-2.444 3.662-3.122 4.413-1.601 14.851-5.497 16.514-7.149.956-.94.899-6.443.797-8.488l-.017-.296h12.362l-.017.296c-.279 4.501-.62 11.467-.415 12.225.062.182 1.611 4.847 1.503 6.545-.142 2.125-1.355 2.62-1.407 2.643l-.051.017-.005.012Zm-11.384-21.168c.063 1.538.228 7.434-.973 8.618-1.68 1.664-11.196 5.275-16.719 7.275-1.714.615-2.864 1.578-3.326 2.78a1.475 1.475 0 0 0 1.401 1.931h30.881c.182-.097.911-.576 1.014-2.137.102-1.583-1.464-6.3-1.481-6.345-.273-1.048.256-10.094.376-12.122h-11.178.005Z"/>
  <path fill="#fff" d="m393.539 363.767.097 1.794h25.015l3.651-1.794.091 1.794h4.772a1.052 1.052 0 0 0 1.064-1.031v-.108l-.034-.684-34.65.029h-.006Z"/>
  <path fill="#002346" d="M427.177 365.848h-5.057l-.085-1.635-3.32 1.635h-25.351l-.126-2.364 29.048-.023.279-.137v.137h5.893l.046.951v.126c0 .353-.148.689-.405.934-.25.245-.58.376-.928.376h.006Zm-4.516-.57h4.499a.764.764 0 0 0 .78-.752v-.08l-.023-.421h-5.318l.062 1.253Zm-28.756 0h24.679l2.54-1.247-27.282.022.068 1.225h-.005Zm26.64-5.378a.28.28 0 0 1-.136-.034c-7.477-4.21-7.062-8.442-7.044-8.624a.284.284 0 0 1 .318-.251c.154.017.268.16.251.313 0 .04-.353 4.056 6.754 8.061a.282.282 0 0 1-.143.53v.005Zm-2.349-203.854a29.176 29.176 0 0 1-16.872 2.683c-.336-.051-.672-.102-1.008-.165-6.908-1.282-14.931-1.213-16.224-12.315-1.292-11.103 7.972-16.788 8.753-21.857a12.927 12.927 0 0 0-.052-3.863c-.478-3.417-1.628-6.397.94-9.467 5.017-5.998 10.142-5.725 10.142-5.725s4.47-3.309 9.834.672c5.757 4.273 7.539 10.129 6.765 16.32a66.99 66.99 0 0 0-.627 11.348c.092 2.005.61 4.124 2.278 8.544 1.669 4.421.456 11.598-3.946 13.814"/>
  <path fill="#002346" d="M405.406 159.299c-1.372 0-2.744-.097-4.122-.291-.342-.051-.684-.102-1.02-.165a94.415 94.415 0 0 0-2.323-.393c-6.372-1.025-12.955-2.085-14.128-12.167-.843-7.246 2.722-12.191 5.586-16.167 1.555-2.159 2.899-4.021 3.167-5.764.17-1.254.153-2.524-.052-3.771a42.8 42.8 0 0 0-.273-1.675c-.484-2.757-.945-5.36 1.276-8.021 4.726-5.65 9.521-5.85 10.278-5.827.66-.433 5.022-3.031 10.09.729 5.359 3.976 7.739 9.712 6.879 16.582a66.45 66.45 0 0 0-.626 11.302c.091 2.068.683 4.284 2.261 8.453 1.776 4.706.381 11.917-4.078 14.167v.017a29.295 29.295 0 0 1-12.909 2.997l-.006-.006Zm-1.617-53.677c-.62 0-5.296.188-9.84 5.622-2.055 2.455-1.634 4.819-1.15 7.554.097.552.199 1.116.279 1.691.211 1.299.228 2.626.051 3.942-.29 1.886-1.668 3.8-3.268 6.016-2.808 3.896-6.298 8.744-5.484 15.767 1.122 9.656 7.494 10.681 13.655 11.672.786.126 1.566.251 2.335.393.336.063.666.114.996.165a28.802 28.802 0 0 0 16.691-2.648v-.017c4.128-2.085 5.455-9.069 3.798-13.461-1.6-4.232-2.198-6.494-2.295-8.63a67.527 67.527 0 0 1 .626-11.399c.832-6.653-1.469-12.201-6.651-16.052-5.125-3.805-9.321-.803-9.498-.672l-.08.063h-.102s-.029-.006-.068-.006h.005Z"/>
  <path fill="#F2B3C1" d="M396.733 134.122s.956 3.799-.376 6.573c-1.333 2.775-2.99 3.663-2.99 3.663s2.876 5.315 10.125 5.173c7.249-.143 9.566-5.6 9.566-5.6s-2.078-.427-2.978-3.139c-.899-2.711-.307-7.667-.307-7.667l-13.04.997Z"/>
  <path fill="#002346" d="M403.206 149.814c-7.13 0-10.062-5.269-10.091-5.32l-.131-.245.245-.137s1.6-.894 2.87-3.537c1.27-2.649.365-6.346.359-6.386l-.08-.324 13.712-1.049-.039.336c-.006.052-.576 4.928.296 7.548.831 2.512 2.693 2.934 2.767 2.951l.33.068-.131.314c-.022.057-2.471 5.628-9.817 5.77h-.284l-.006.011Zm-9.459-5.366c.644.992 3.616 4.922 9.738 4.802 6.03-.119 8.581-4.055 9.174-5.149-.667-.251-2.119-1.031-2.848-3.219-.78-2.358-.472-6.271-.358-7.45l-12.38.945c.199.997.683 4.05-.467 6.443-1.065 2.216-2.329 3.264-2.859 3.628Z"/>
  <path fill="#fff" d="M383.064 147.613s.74 5.599.905 12.281c.211 8.431-4.128 36.383-4.157 35.887 0 0 5.125 3.372 19.424 4.181a49.53 49.53 0 0 0 24.771-5.024s.843-21.937 2.568-32.145c1.538-9.068 2.847-13.278 2.847-13.278l-17.988-6.539-8.269 6.101-8.2-6.198-11.901 4.716v.018Z"/>
  <path fill="#002346" d="M402.076 200.327c-.951 0-1.907-.028-2.858-.079-13.371-.758-18.712-3.709-19.475-4.17h-.2l-.051-.843.125.085c.615-3.423 4.254-27.844 4.061-35.414-.166-6.591-.894-12.196-.906-12.253v-.251l12.226-4.847 8.16 6.163 8.223-6.066 18.387 6.681-.079.262c-.012.04-1.322 4.301-2.836 13.244-1.703 10.072-2.557 31.889-2.563 32.111v.171l-.159.074a49.992 49.992 0 0 1-22.055 5.138v-.006Zm-21.952-4.693c.968.546 6.441 3.321 19.122 4.038a49.387 49.387 0 0 0 24.475-4.921c.085-2.074.934-22.376 2.562-32.014 1.316-7.747 2.477-12.002 2.779-13.056l-17.596-6.397-8.314 6.135-8.239-6.232-11.549 4.574c.131 1.071.735 6.198.883 12.105.108 4.403-1.008 13.916-1.965 21.122a540.44 540.44 0 0 1-1.474 10.385c-.388 2.563-.564 3.719-.689 4.243l.005.018Z"/>
  <path fill="#F2B3C1" d="M415.633 118.01c0-6.292-5.099-11.393-11.389-11.393-6.29 0-11.389 5.101-11.389 11.393v11.393c0 6.292 5.099 11.392 11.389 11.392 6.29 0 11.389-5.1 11.389-11.392V118.01Z"/>
  <path fill="#002346" d="M404.246 141.076c-6.435 0-11.668-5.235-11.668-11.672v-11.392c0-6.437 5.233-11.672 11.668-11.672s11.668 5.235 11.668 11.672v11.392c0 6.437-5.233 11.672-11.668 11.672Zm0-34.178c-6.127 0-11.11 4.984-11.11 11.114v11.392c0 6.13 4.983 11.114 11.11 11.114s11.11-4.984 11.11-11.114v-11.392c0-6.13-4.983-11.114-11.11-11.114Z"/>
  <path fill="#F69074" d="M389.211 156.076a67.261 67.261 0 0 1 2.277-12.475l-.022-.011c-3.519.7-3.776.473-8.411 1.76-.028.006-.057.017-.085.023-.148.04-.285.08-.445.125v.017c-3.672 1.293-7.368 5.828-9.412 8.197-2.563 2.974-13.929 15.848-13.929 15.848l-16.673-14.925-8.394 9.9s19.993 23.162 25.278 25.184c5.99 2.301 15.528-8.066 21.718-17.004-.592 10.983-1.184 21.459-1.327 23.037-.643 6.887-6.041 22.517-5.347 30.19.695 7.673 14.686 8.089 14.686 8.089s.348-9.587.405-22.574c.057-12.988-1.595-40-.319-55.381Z"/>
  <path fill="#002346" d="M389.399 234.323h-.284c-.581-.023-14.253-.524-14.96-8.357-.427-4.745 1.441-12.48 3.093-19.299 1.03-4.261 2.004-8.288 2.255-10.943.125-1.327.586-9.336 1.275-22.033-6.019 8.493-13.866 16.627-19.589 16.633-.66 0-1.298-.108-1.896-.342-5.29-2.022-24.571-24.318-25.391-25.263l-.16-.182 8.741-10.311 16.679 14.93c1.498-1.697 11.389-12.902 13.735-15.631l.461-.535c2.05-2.392 5.461-6.369 8.884-7.679v-.017l.734-.222c3.104-.86 4.265-1.048 5.729-1.287a61.04 61.04 0 0 0 2.705-.479l.096-.017.302.148-.04.239a66.807 66.807 0 0 0-2.266 12.424c-.849 10.22-.41 25.286-.023 38.576.188 6.397.365 12.435.342 16.782-.057 12.845-.399 22.489-.405 22.586l-.011.285-.006-.006Zm-7.943-62.598-.057 1.003c-.342 6.283-1.151 21.105-1.327 23.047-.251 2.689-1.23 6.739-2.266 11.023-1.64 6.779-3.502 14.463-3.081 19.117.609 6.739 12.157 7.702 14.128 7.815.057-1.697.341-10.68.393-22.278.017-4.341-.154-10.373-.342-16.765-.387-13.306-.826-28.385.023-38.638a67.592 67.592 0 0 1 2.169-12.099 76.5 76.5 0 0 1-2.3.399c-1.447.233-2.591.415-5.666 1.27l-.16-.251.074.274-.427.131c-3.342 1.179-6.776 5.183-8.832 7.582l-.461.535c-2.534 2.939-13.815 15.722-13.928 15.847l-.188.217-16.668-14.919-8.046 9.49c1.902 2.193 20.095 23.042 25.004 24.922 5.638 2.164 15.045-7.747 21.383-16.901l.575-.826v.005Zm11.608-47.504a12.224 12.224 0 0 1 1.657-7.445 8.97 8.97 0 0 1 5.849-4.159l3.308-7.285s-7.898-1.436-11.89 4.3c-6.913 9.946 1.076 14.583 1.076 14.583"/>
  <path fill="#002346" d="M392.921 124.459c-.126-.074-3.03-1.794-3.833-5.406-.643-2.888.257-6.112 2.665-9.581 4.049-5.822 12.095-4.432 12.175-4.421l.359.069-3.52 7.747-.142.028a8.706 8.706 0 0 0-5.66 4.028 11.854 11.854 0 0 0-1.617 7.268l-.285.029-.142.239Zm8.803-18.997c-2.574 0-6.913.615-9.504 4.329-2.317 3.332-3.183 6.403-2.579 9.125.558 2.518 2.26 4.085 3.097 4.723a12.407 12.407 0 0 1 1.743-7.012 9.275 9.275 0 0 1 5.894-4.261l3.092-6.808a16.095 16.095 0 0 0-1.737-.096h-.006Z"/>
  <path fill="#002346" d="M400.996 114.571c2.898 8.111 12.738 4.722 14.578 8.783 0 0 3.86-5.838-.61-12.851-4.47-7.012-11.087-5.166-11.087-5.166s-4.789 3.907-2.881 9.234Z"/>
  <path fill="#002346" d="m415.527 123.939-.211-.467c-.694-1.538-2.733-1.931-5.096-2.387-3.445-.666-7.733-1.492-9.493-6.414-1.953-5.451 2.921-9.507 2.967-9.552l.102-.052c.069-.023 6.874-1.823 11.406 5.286 4.516 7.087.65 13.102.61 13.159l-.285.427Zm-11.514-18.348c-.473.416-4.465 4.085-2.751 8.881 1.652 4.62 5.587 5.377 9.06 6.05 2.284.438 4.288.825 5.251 2.25.746-1.447 2.79-6.409-.849-12.117-4.128-6.476-10.016-5.235-10.711-5.058v-.006Z"/>
  <path fill="#E6E7E8" d="M389.359 198.062s3.593 1.931 12.835 1.931 17.653-4.067 17.653-4.067l-.251 4.437s-6.969 3.566-17.134 3.566-13.314-2.056-13.314-2.056l.211-3.788v-.023Z"/>
  <path fill="#002346" d="M402.463 204.212c-10.13 0-13.336-2.016-13.467-2.102l-.137-.091.245-4.397.393.188c.034.017 3.662 1.897 12.699 1.897 9.037 0 17.447-3.999 17.527-4.039l.433-.211-.285 5.081-.148.074c-.068.034-7.146 3.595-17.265 3.595l.005.005Zm-13.017-2.5c.712.37 4.231 1.931 13.017 1.931 8.787 0 15.808-2.968 16.862-3.464l.216-3.799c-1.851.82-9.328 3.896-17.34 3.896s-11.411-1.293-12.573-1.783l-.176 3.213-.006.006Z"/>
  <path fill="#F69074" d="M414.805 143.867s1.139 3.27 1.082 12.532c-.035 10.379-.376 77.659-.376 77.659s12.328-2.666 14.327-7.405c1.999-4.74-5.501-25.571-5.831-31.729-.359-6.688 8.052-37.818 8.188-44.631 0-.57-17.39-6.426-17.39-6.426Z"/>
  <path fill="#002346" d="M415.221 234.412v-.353c0-.672.341-67.4.376-77.659.056-9.08-1.054-12.407-1.065-12.435l-.188-.547.546.182c17.585 5.919 17.585 6.443 17.585 6.693-.063 3.19-1.891 11.513-3.827 20.331-2.238 10.196-4.55 20.735-4.362 24.284.125 2.346 1.338 6.978 2.62 11.871 2.084 7.958 4.453 16.981 3.188 19.983-2.032 4.819-14.019 7.462-14.532 7.57l-.347.074.006.006Zm0-90.1c.313 1.259.991 4.837.945 12.094-.034 9.866-.347 71.968-.376 77.3 2.005-.473 12.044-3.048 13.781-7.161 1.19-2.819-1.151-11.74-3.212-19.612-1.293-4.928-2.511-9.582-2.642-11.986-.194-3.628 2.129-14.206 4.373-24.437 1.908-8.681 3.707-16.89 3.81-20.103-.985-.666-10.455-3.987-16.685-6.089l.006-.006Z"/>
  <path fill="#E6E7E8" d="m395.46 142.242 6.093 5.634-5.256 3.987s-4.493-7.781-.837-9.609"/>
  <path fill="#002346" d="m396.213 152.284-.159-.279c-.125-.217-3.035-5.304-2.136-8.294.234-.786.712-1.362 1.418-1.715l.126.245.199-.211 6.344 5.862-5.786 4.386-.006.006Zm-.786-9.69c-.478.285-.791.707-.962 1.282-.712 2.375 1.333 6.454 1.93 7.559l4.721-3.583-5.689-5.258Z"/>
  <path fill="#E6E7E8" d="m411.008 142.527-6.32 5.452 4.811 4.283s4.693-8.219 1.509-9.735Z"/>
  <path fill="#002346" d="m409.572 152.709-5.318-4.734 6.708-5.787.165.079c.547.262.923.707 1.116 1.322.888 2.825-2.363 8.567-2.5 8.806l-.176.308.005.006Zm-4.453-4.728 4.3 3.828c.66-1.231 2.984-5.805 2.277-8.049-.125-.405-.341-.695-.654-.895l-5.928 5.11.005.006Zm-2.916 52.323a.282.282 0 0 1-.285-.285c0-7.519.951-50.498.962-50.931 0-.16.109-.274.291-.279.159 0 .279.136.279.29-.012.433-.963 43.407-.963 50.92 0 .16-.125.285-.284.285Z"/>
  <path fill="#F2B3C1" d="m341.535 155.794-5.939-5.11c.216-.883.267-1.8.051-2.706l-.023.012c-.176-.735-3.166-8.289-4.333-10.214-1.168-1.925-3.531-1.287-3.366.154.166 1.43 1.47 5.343 1.498 5.417-.097-.074-6.178-4.762-6.759-5.184-1.566-1.139-2.17-1.942-3.656-1.874a1.511 1.511 0 0 0-1.35 1.054 1.245 1.245 0 0 0-1.463.655c-.57.894.569 1.886.569 1.886s-.569-.177-1.366.706c-.974 1.077.324 2.204.324 2.204a2.906 2.906 0 0 0-1.708 1.601c-.296.729.45 1.293 4.971 4.694.86.644 4.339 3.674 5.216 4.796 2.887 3.714 4.596 3.714 4.596 3.714s.541 0 1.076-.017a2.063 2.063 0 0 1 1.72.843l3.553 4.899 6.389-7.536v.006Z"/>
  <path fill="#002346" d="m335.129 163.786-3.759-5.189a1.767 1.767 0 0 0-1.486-.729c-.541.017-1.082.011-1.082.017-.074 0-1.879-.046-4.817-3.822-.866-1.111-4.351-4.136-5.165-4.745-4.823-3.629-5.444-4.09-5.063-5.025a3.207 3.207 0 0 1 1.492-1.595c-.21-.262-.461-.672-.489-1.145-.023-.415.119-.803.432-1.145.382-.421.729-.632 1.003-.729-.325-.433-.672-1.133-.234-1.823a1.519 1.519 0 0 1 1.526-.826 1.805 1.805 0 0 1 1.509-1.013c1.276-.063 1.988.495 2.967 1.258.262.205.547.428.871.667.427.307 3.747 2.859 6.048 4.637-.405-1.259-1.111-3.566-1.23-4.609-.08-.7.33-1.315 1.053-1.56.832-.285 2.073-.023 2.83 1.23 1.054 1.737 3.69 8.277 4.265 9.963l.023-.011.103.33c.199.837.199 1.732-.012 2.672l6.019 5.178-6.799 8.02-.005-.006Zm-5.194-6.482c.746 0 1.452.359 1.891.963l3.342 4.614 5.98-7.052-5.86-5.042.04-.165c.199-.815.233-1.601.102-2.33l-.074-.233c-.188-.792-3.172-8.271-4.299-10.134-.604-.991-1.52-1.214-2.17-.991-.364.125-.734.444-.677.968.159 1.384 1.429 5.195 1.486 5.36l-.262.091-.182.211-.12-.091c-3.866-2.985-6.281-4.83-6.617-5.075-.336-.245-.626-.473-.888-.678-.951-.746-1.526-1.185-2.591-1.145a1.226 1.226 0 0 0-1.093.86l-.08.262-.262-.074a.963.963 0 0 0-1.133.507c-.45.706.49 1.544.501 1.549l.991.866-1.259-.387s-.438-.08-1.076.626c-.211.234-.302.473-.29.735.034.576.586 1.065.592 1.071l.359.313-.45.16a2.627 2.627 0 0 0-1.543 1.447c-.205.507.677 1.196 4.88 4.358.848.638 4.362 3.679 5.267 4.847 2.733 3.509 4.368 3.606 4.379 3.606 0 0 .535 0 1.065-.017h.068-.017Z"/>
  <path fill="#002346" d="M330.521 150.172a.285.285 0 0 1-.183-.068 5.236 5.236 0 0 1-1.668-5.423.286.286 0 0 1 .353-.2c.154.046.239.2.194.354a4.66 4.66 0 0 0 1.486 4.83.283.283 0 0 1 .034.399.281.281 0 0 1-.216.102v.006Zm-7.973-.496a.32.32 0 0 1-.182-.062.283.283 0 0 1-.04-.399l.632-.775-.045-.028-7.352-5.383a.29.29 0 0 1-.062-.399.289.289 0 0 1 .398-.063l7.352 5.383s.04.035.057.057l1.475-1.805-8.183-6.084a.283.283 0 0 1-.057-.399.283.283 0 0 1 .398-.057l8.206 6.101 1.304-1.601-8.934-6.585a.288.288 0 0 1-.063-.398.288.288 0 0 1 .398-.063l8.958 6.596.08-.097a.28.28 0 0 1 .398-.039.28.28 0 0 1 .04.398l-4.556 5.594a.28.28 0 0 1-.222.103v.005Zm57.262 15.198a.285.285 0 0 1-.285-.279c-.268-15.996 2.659-18.867 2.785-18.981a.287.287 0 0 1 .404.017.28.28 0 0 1-.017.399c-.04.04-2.864 2.979-2.602 18.553a.29.29 0 0 1-.279.291h-.006Z"/>
  <path fill="#fff" d="M397.16 196.801h-20.887c-.815 0-1.498-.564-1.595-1.304l-4.026-30.914c-.074-.593.388-1.134 1.037-1.202.045 0 .096-.006.142-.006h20.887c.815 0 1.504.558 1.595 1.304l4.026 30.915c.074.598-.399 1.133-1.048 1.202-.046 0-.086.005-.131.005Z"/>
  <path fill="#002346" d="M397.161 197.088h-20.887c-.963 0-1.766-.673-1.874-1.555l-4.026-30.915a1.298 1.298 0 0 1 .274-.974 1.469 1.469 0 0 1 1.013-.547c.057-.005.114-.011.177-.011h20.893c.962 0 1.765.666 1.867 1.555l4.021 30.914c.039.353-.057.695-.285.974a1.51 1.51 0 0 1-1.019.547c-.052 0-.109.006-.16.006l.006.006Zm-25.323-33.427h-.114a.93.93 0 0 0-.627.336.743.743 0 0 0-.159.547l4.026 30.914c.074.604.638 1.054 1.31 1.054h20.989a.923.923 0 0 0 .632-.336.716.716 0 0 0 .16-.547l-4.02-30.914c-.074-.604-.632-1.054-1.304-1.054h-20.893Z"/>
  <path fill="#FBE493" d="M395.597 196.801h-19.834a1.467 1.467 0 0 1-1.463-1.304l-3.32-29.684a1.088 1.088 0 0 1 .962-1.202c.04 0 .08-.006.12-.006h19.833c.752 0 1.378.564 1.464 1.311l3.314 29.678a1.084 1.084 0 0 1-.951 1.202c-.04 0-.085.005-.125.005Z"/>
  <path fill="#002346" d="M375.759 197.088c-.894 0-1.64-.666-1.743-1.555l-3.32-29.684a1.374 1.374 0 0 1 1.213-1.515c.051 0 .103-.006.154-.006h19.834c.894 0 1.645.672 1.748 1.561l3.314 29.678a1.36 1.36 0 0 1-1.196 1.51c-.051.005-.108 0-.159.011h-19.845Zm0-.57h19.924a.807.807 0 0 0 .536-.296.78.78 0 0 0 .165-.587l-3.314-29.678a1.193 1.193 0 0 0-1.179-1.059h-19.925a.81.81 0 0 0-.712.888l3.32 29.684a1.19 1.19 0 0 0 1.179 1.054l.006-.006Z"/>
  <path fill="#002346" d="M383.826 183.559a2.858 2.858 0 0 1-2.853-2.854 2.858 2.858 0 0 1 2.853-2.853 2.857 2.857 0 0 1 2.852 2.853 2.858 2.858 0 0 1-2.852 2.854Zm0-5.138a2.288 2.288 0 0 0-2.284 2.284 2.288 2.288 0 0 0 2.284 2.285 2.288 2.288 0 0 0 2.283-2.285 2.288 2.288 0 0 0-2.283-2.284Z"/>
  <path fill="#fff" d="M375.205 167.697a1.247 1.247 0 1 1-2.493 0 1.247 1.247 0 0 1 2.493 0Z"/>
  <path fill="#002346" d="M373.958 169.23a1.533 1.533 0 0 1-1.532-1.538c0-.848.689-1.532 1.532-1.532a1.54 1.54 0 0 1 1.537 1.532c0 .844-.689 1.538-1.537 1.538Zm0-2.5a.965.965 0 1 0 .004 1.93.965.965 0 0 0-.004-1.93Z"/>
  <path fill="#F2B3C1" d="m404.337 198.295 2.129 1.43 3.571-7.901-2.295-.53a6.336 6.336 0 0 1-.735-.217c-.78-.284-2.516-.922-2.522-.917l-6.116-4.46s-2.073-1.948-2.847-2.33c-.775-.381-2.802-.41-3.166-.381-.365.028-3.098 1.828-3.388 2.307-.279.461.21 1.543 1.406 1.418.023 0 .04.023.017.034-.433.217-2.044 1.105-1.987 2.091.051.775.529.678.387.957-.547 1.054.148 1.623.518 1.623a1.552 1.552 0 0 0 .735 1.709c0 .04-.012.08-.012.125a1.512 1.512 0 0 0 1.441 1.584c.814.12 2.899-.273 3.986 0 1.185.319 1.219 1.054 2.54 1.709.678.268 1.873.342 2.591.365.398.011.797.096 1.167.244l1.783.718c.279.114.546.257.797.422Z"/>
  <path fill="#002346" d="m406.593 200.141-2.409-1.612a3.694 3.694 0 0 0-.746-.393l-1.783-.718a3.075 3.075 0 0 0-1.07-.222c-.843-.029-1.993-.114-2.682-.388-.672-.33-1.031-.672-1.344-.974-.336-.319-.604-.575-1.167-.729-.587-.148-1.544-.08-2.386-.023-.644.046-1.202.086-1.572.029-.951-.046-1.708-.866-1.68-1.84a1.833 1.833 0 0 1-.757-1.641 1.123 1.123 0 0 1-.507-.45c-.142-.233-.325-.729.023-1.446-.131-.12-.348-.348-.382-.878-.051-.809.752-1.509 1.447-1.959a1.463 1.463 0 0 1-.746-.604c-.245-.387-.285-.837-.097-1.145.307-.507 3.103-2.404 3.604-2.444.365-.028 2.46-.011 3.315.41.802.399 2.83 2.296 2.915 2.376l6.07 4.426c.177.057.536.188 1.31.473l1.162.421c.228.086.461.154.7.211l2.631.609-3.849 8.516v-.005Zm-12.181-5.691c.416 0 .803.029 1.122.108.706.188 1.053.519 1.412.866.296.285.61.581 1.179.866.626.245 1.822.319 2.477.336.439.012.866.103 1.264.262l1.777.718c.296.12.581.268.848.45l1.857 1.247 3.291-7.285-1.965-.456a7.143 7.143 0 0 1-.768-.228l-1.162-.421c-.558-.205-1.093-.399-1.281-.467l-.046.011-6.218-4.534c-.592-.559-2.204-2.005-2.807-2.307-.689-.336-2.637-.382-3.018-.354-.365.08-2.927 1.778-3.172 2.176-.063.103-.051.331.091.553.097.154.399.513 1.048.444l.233-.022.16.461-.222.125c-.866.439-1.868 1.185-1.834 1.823.023.33.131.427.222.518.085.08.29.274.137.581-.2.388-.228.718-.074.969.102.171.267.251.347.251h.353l-.085.347a1.275 1.275 0 0 0 .603 1.401l.165.091-.022.188a.468.468 0 0 1-.012.097 1.239 1.239 0 0 0 1.173 1.293c.336.046.889.012 1.475-.034.467-.034.974-.068 1.441-.068l.011-.006Z"/>
  <path fill="#002346" d="M390.092 193.394a.286.286 0 0 1-.251-.153.286.286 0 0 1 .12-.388c1.509-.803 4.567-.7 4.698-.695a.282.282 0 0 1 .273.296c0 .16-.137.268-.296.274-.028 0-3.041-.103-4.413.627a.275.275 0 0 1-.131.034v.005Zm-.735-1.709a.306.306 0 0 1-.199-.079.288.288 0 0 1-.006-.405c1.412-1.464 4.983-1.236 5.131-1.224a.281.281 0 0 1 .262.301c-.012.16-.148.285-.302.262-.034 0-3.456-.222-4.686 1.054a.29.29 0 0 1-.205.086l.005.005Zm-.643-1.395a.265.265 0 0 1-.143-.04.282.282 0 0 1-.102-.387c1.162-1.988 5.256-2.228 5.432-2.239.154-.017.291.114.302.268a.29.29 0 0 1-.267.302c-.04 0-3.958.233-4.966 1.953a.28.28 0 0 1-.245.143h-.011Zm1.85-3.327a.275.275 0 0 1-.239-.131.286.286 0 0 1 .086-.393c.791-.501 1.759-1.116 1.89-1.162a.278.278 0 0 1 .097-.017c.541-.011 1.093.023 1.64.097a.285.285 0 0 1-.085.564 10.824 10.824 0 0 0-1.487-.097c-.199.114-1.025.632-1.753 1.094a.309.309 0 0 1-.154.045h.005Z"/>
  <path fill="#E6E7E8" d="M153.288 142.852h-93.98a2.534 2.534 0 0 0-2.535 2.534v22.712c0 1.4 1.135 2.535 2.534 2.535h93.981c1.4 0 2.534-1.135 2.534-2.535v-22.712c0-1.4-1.134-2.534-2.534-2.534Z"/>
  <path fill="#002346" d="M153.288 170.917H59.307a2.821 2.821 0 0 1-2.819-2.819v-22.712a2.822 2.822 0 0 1 2.819-2.82h93.981a2.822 2.822 0 0 1 2.818 2.82v22.712a2.821 2.821 0 0 1-2.818 2.819Zm-93.981-27.781a2.25 2.25 0 0 0-2.25 2.25v22.712a2.251 2.251 0 0 0 2.25 2.25h93.981a2.251 2.251 0 0 0 2.249-2.25v-22.712a2.25 2.25 0 0 0-2.249-2.25H59.307Z"/>
  <path fill="#F69074" d="M77.648 161.346a6.034 6.034 0 0 1-8.485.934 6.038 6.038 0 0 1-.934-8.487 6.033 6.033 0 0 1 8.485-.934 6.035 6.035 0 0 1 .94 8.476v.011h-.006Z"/>
  <path fill="#002346" d="M72.934 163.888a6.3 6.3 0 0 1-3.946-1.384c-2.722-2.182-3.16-6.169-.98-8.886a6.27 6.27 0 0 1 4.243-2.33 6.306 6.306 0 0 1 4.646 1.35 6.328 6.328 0 0 1 1.002 8.852l-.028.04a6.315 6.315 0 0 1-4.937 2.364v-.006Zm.017-12.076a5.747 5.747 0 0 0-4.499 2.153c-1.981 2.472-1.583 6.101.889 8.089a5.754 5.754 0 0 0 8.063-.866l.029-.034a5.759 5.759 0 0 0-.895-8.077 5.708 5.708 0 0 0-3.587-1.265Zm233.137-94.758h-58.385a.282.282 0 0 1-.285-.285c0-.16.125-.285.285-.285h58.385c.159 0 .284.126.284.285 0 .16-.125.285-.284.285Zm-16.452 5.238h-41.933a.282.282 0 0 1-.285-.285c0-.159.125-.284.285-.284h41.933c.16 0 .285.125.285.285a.282.282 0 0 1-.285.284Zm-145.271 92.946H85.98a.282.282 0 0 1-.285-.285c0-.16.126-.285.285-.285h58.385c.159 0 .285.125.285.285a.283.283 0 0 1-.285.285Zm-16.451 5.242H85.98a.282.282 0 0 1-.285-.285c0-.16.126-.285.285-.285h41.934c.159 0 .284.125.284.285a.282.282 0 0 1-.284.285Z"/>
  <path fill="#F69074" d="M429.218 149.813c8.655.062 7.733 9.433 7.852 13.386.12 3.953 1.464 39.51-6.264 43.555-7.727 4.044-24.486-6.266-24.486-6.266l2.671-9.502 11.389 1.071s.808-21.726 1.372-27.912c.564-6.186 1.845-14.378 7.466-14.332Z"/>
  <path fill="#002346" d="M426.359 207.983c-8.285 0-19.617-6.904-20.192-7.257l-.183-.114 2.791-9.94 11.326 1.065c.102-2.649.843-21.902 1.361-27.627.62-6.796 2.055-14.594 7.699-14.594h.051c8.075.057 8.103 8.049 8.12 12.344 0 .484 0 .928.017 1.316l.012.381c.375 11.849.501 39.806-6.429 43.435-1.321.689-2.887.98-4.579.98l.006.011Zm-19.708-7.627c1.839 1.094 16.952 9.843 24.019 6.146 6.645-3.48 6.497-31.165 6.121-42.911l-.011-.381c-.012-.393-.012-.843-.017-1.333-.017-4.386-.04-11.723-7.557-11.775h-.045c-5.188 0-6.538 7.52-7.135 14.076-.559 6.107-1.361 27.679-1.373 27.895l-.011.302-11.452-1.076-2.545 9.062.006-.005Z"/>
  <path fill="#F69074" d="M388.89 354.979s-.194 1.538-2.511 1.538h-19.236s-4.134-.974-1.657-3.099c0 0-4.493.706-7.454 2.484-1.771 1.065-3.326 1.446-3.138 5.081l.04.774h34.645s1.139-4.443-.689-6.778Z"/>
  <path fill="#002346" d="M389.801 362.042h-35.134l-.057-1.043c-.177-3.383 1.144-4.13 2.67-4.99.2-.114.399-.228.604-.347 2.972-1.783 7.369-2.49 7.556-2.524l.991-.154-.763.655c-.535.456-.757.872-.672 1.225.177.729 1.635 1.242 2.181 1.373h19.202c2.021 0 2.221-1.236 2.226-1.293l.097-.661.41.524c1.891 2.421.786 6.836.74 7.024l-.057.216.006-.005Zm-34.593-.57h34.149c.177-.832.723-3.913-.393-5.884-.296.524-.991 1.213-2.579 1.213h-19.299c-.239-.063-2.335-.592-2.631-1.811-.091-.371 0-.752.257-1.14-1.43.296-4.397 1.014-6.521 2.29-.21.126-.415.245-.615.353-1.474.832-2.539 1.436-2.38 4.466l.029.502-.017.011Z"/>
  <path fill="#F69074" d="M427.504 356.99s-.193 1.539-2.511 1.539h-19.241s-4.129-.975-1.652-3.099c0 0-4.498.706-7.46 2.483-1.765 1.06-3.319 1.447-3.137 5.081l.04.775h34.65s1.139-4.443-.689-6.779Z"/>
  <path fill="#002346" d="M428.413 364.055h-35.14l-.051-1.042c-.171-3.389 1.15-4.136 2.682-4.996.194-.108.393-.222.598-.341 2.972-1.783 7.374-2.49 7.562-2.518l.991-.154-.763.655c-.535.456-.763.872-.672 1.225.176.729 1.634 1.236 2.175 1.373h19.208c2.021 0 2.22-1.237 2.226-1.294l.097-.66.41.524c1.89 2.421.786 6.835.74 7.023l-.057.217-.006-.012Zm-34.599-.569h34.155c.177-.832.723-3.914-.393-5.885-.296.525-.99 1.214-2.579 1.214h-19.304c-.239-.063-2.335-.593-2.625-1.806-.091-.37 0-.752.256-1.139-1.429.296-4.402 1.014-6.526 2.29-.205.125-.41.239-.609.353-1.475.832-2.546 1.435-2.392 4.472l.029.501h-.012Zm-40.369-124.592H249.003a.282.282 0 0 1-.284-.285v-75.277c0-.16.125-.285.284-.285.16 0 .285.125.285.285v74.993h104.157c.159 0 .285.125.285.284 0 .16-.126.285-.285.285Z"/>
  <path fill="#fff" d="m233.355 58.828 2.472 2.473 3.65-3.828"/>
  <path fill="#002346" d="M235.826 61.593a.266.266 0 0 1-.199-.086l-2.471-2.472a.282.282 0 0 1 0-.404.282.282 0 0 1 .404 0l2.266 2.267 3.451-3.617a.288.288 0 0 1 .405-.012c.113.108.119.29.011.405l-3.65 3.828a.297.297 0 0 1-.205.09h-.012ZM72.397 159.569a.267.267 0 0 1-.2-.085l-2.471-2.472a.283.283 0 0 1 0-.405.282.282 0 0 1 .404 0l2.267 2.267 3.45-3.617a.286.286 0 0 1 .416.393l-3.65 3.828a.295.295 0 0 1-.205.091h-.011ZM234.963 98.01a3.991 3.991 0 0 1-3.986-3.987 3.991 3.991 0 0 1 3.986-3.988 3.991 3.991 0 0 1 3.986 3.988 3.991 3.991 0 0 1-3.986 3.987Zm0-7.405a3.42 3.42 0 0 0-3.417 3.418 3.42 3.42 0 0 0 3.417 3.417 3.42 3.42 0 0 0 3.416-3.417 3.42 3.42 0 0 0-3.416-3.418Zm168.988 29.875c5.032 0 9.111-3.061 9.111-6.836 0-3.775-4.079-6.835-9.111-6.835-5.032 0-9.111 3.06-9.111 6.835s4.079 6.836 9.111 6.836Z"/>
  <path fill="#002346" d="M403.95 120.764c-5.181 0-9.395-3.195-9.395-7.12 0-3.925 4.214-7.121 9.395-7.121 5.182 0 9.396 3.196 9.396 7.121 0 3.925-4.214 7.12-9.396 7.12Zm0-13.671c-4.868 0-8.826 2.939-8.826 6.551 0 3.611 3.958 6.551 8.826 6.551 4.869 0 8.827-2.94 8.827-6.551 0-3.612-3.958-6.551-8.827-6.551Z"/>
</svg>
