<svg xmlns="http://www.w3.org/2000/svg" width="493" height="389" fill="none" viewBox="0 0 493 389">
  <path fill="#002346" d="M470.291 284.678H22.71a.307.307 0 0 1-.308-.308c0-.171.137-.308.308-.308h447.58c.171 0 .308.137.308.308a.307.307 0 0 1-.308.308Z"/>
  <path fill="#fff" d="M390.98 151.499H202.859v-4.323h179.244l.723.444s3.189 1.379 8.154 3.879ZM262.023 272.27h-52.082v14.508h52.082V272.27Z"/>
  <path fill="#002346" d="M262.307 287.065h-52.651v-15.073h52.651v15.073Zm-52.081-.57h51.511v-13.933h-51.511v13.933Z"/>
  <path fill="#fff" d="m209.941 286.785 15.825 15.34h56.056l-19.799-15.34h-52.082Z"/>
  <path fill="#002346" d="M282.66 302.41h-57.007l-.085-.08-16.326-15.83h52.884l.08.057 20.46 15.853h-.006Zm-56.773-.57h55.111l-19.065-14.77h-51.279l15.233 14.77Z"/>
  <path fill="#FBE493" d="M353.39 91.574H110.672c-8.162 0-14.778 6.618-14.778 14.782V260.13c0 8.164 6.616 14.782 14.778 14.782H353.39c8.162 0 14.777-6.618 14.777-14.782V106.356c0-8.164-6.615-14.782-14.777-14.782Z"/>
  <path fill="#002346" d="M353.391 275.224H110.672c-8.319 0-15.09-6.773-15.09-15.095V106.361c0-8.322 6.771-15.095 15.09-15.095h242.719c8.32 0 15.09 6.773 15.09 15.095v153.768c0 8.322-6.77 15.095-15.09 15.095ZM110.672 91.887c-7.978 0-14.47 6.493-14.47 14.474v153.768c0 7.981 6.492 14.475 14.47 14.475h242.719c7.978 0 14.47-6.494 14.47-14.475V106.361c0-7.98-6.492-14.475-14.47-14.475H110.672Z"/>
  <path fill="#fff" d="M349.841 99.492H112.89a8.435 8.435 0 0 0-8.433 8.437v136.787a8.435 8.435 0 0 0 8.433 8.436h236.951a8.434 8.434 0 0 0 8.433-8.436V107.929a8.434 8.434 0 0 0-8.433-8.437Z"/>
  <path fill="#002346" d="M349.84 253.436H112.896c-4.812 0-8.724-3.913-8.724-8.721V107.928c0-4.808 3.912-8.721 8.724-8.721H349.84c4.807 0 8.719 3.913 8.719 8.721V244.71c0 4.807-3.912 8.721-8.719 8.721v.005ZM112.896 99.776c-4.493 0-8.155 3.658-8.155 8.152V244.71c0 4.494 3.656 8.151 8.155 8.151H349.84c4.493 0 8.149-3.657 8.149-8.151V107.928c0-4.494-3.656-8.151-8.149-8.151H112.896Z"/>
  <path fill="#fff" d="M241.593 268.318a4.613 4.613 0 0 0 4.612-4.614 4.613 4.613 0 1 0-4.612 4.614Z"/>
  <path fill="#002346" d="M241.593 268.602a4.905 4.905 0 0 1-4.898-4.898 4.905 4.905 0 0 1 4.898-4.899 4.905 4.905 0 0 1 4.897 4.899c0 2.7-2.198 4.898-4.897 4.898Zm0-9.228a4.335 4.335 0 0 0-4.328 4.33 4.334 4.334 0 0 0 4.328 4.329 4.334 4.334 0 0 0 4.327-4.329 4.334 4.334 0 0 0-4.327-4.33Z"/>
  <path fill="#fff" d="M260.707 267.003a3.298 3.298 0 1 0-.002-6.596 3.298 3.298 0 0 0 .002 6.596Z"/>
  <path fill="#002346" d="M260.707 267.287a3.585 3.585 0 0 1-3.582-3.583 3.585 3.585 0 0 1 3.582-3.583 3.585 3.585 0 0 1 3.582 3.583 3.585 3.585 0 0 1-3.582 3.583Zm0-6.596a3.014 3.014 0 0 0-3.013 3.013 3.013 3.013 0 1 0 3.013-3.013Z"/>
  <path fill="#fff" d="M222.469 267.003a3.298 3.298 0 1 0-.002-6.596 3.298 3.298 0 0 0 .002 6.596Z"/>
  <path fill="#002346" d="M222.468 267.287a3.585 3.585 0 0 1-3.581-3.583 3.585 3.585 0 0 1 3.581-3.583 3.585 3.585 0 0 1 3.582 3.583 3.585 3.585 0 0 1-3.582 3.583Zm0-6.596a3.014 3.014 0 0 0 0 6.026 3.014 3.014 0 0 0 3.013-3.013 3.014 3.014 0 0 0-3.013-3.013Z"/>
  <path fill="#F69074" d="M180.377 157.976s-11.013 6.938-18.558 8.476a4.244 4.244 0 0 0-3.269 3.344c-2.921 14.691-14.088 77.647 9.202 79.396l15.825-2.637 1.652 6.596h80.052v-76.827s-1.925-16.816-25.659-24.711l-59.239 6.369-.006-.006Z"/>
  <path fill="#002346" d="M265.274 253.46h-80.052a.312.312 0 0 1-.302-.234l-1.577-6.323-15.54 2.592h-.074c-3.502-.262-6.429-1.908-8.69-4.888-11.531-15.18-3.519-61.144-.791-74.873a4.532 4.532 0 0 1 3.502-3.583c7.408-1.509 18.347-8.368 18.461-8.436a.36.36 0 0 1 .131-.046l59.239-6.368c.04 0 .085 0 .131.011 23.649 7.867 25.853 24.802 25.87 24.967v76.867a.307.307 0 0 1-.308.308v.006Zm-79.813-.616h79.5v-76.519c-.017-.131-2.192-16.651-25.386-24.398l-59.102 6.358c-.9.558-11.377 7.006-18.598 8.476a3.916 3.916 0 0 0-3.024 3.099c-2.716 13.665-10.7 59.407.678 74.377 2.147 2.826 4.908 4.386 8.211 4.643l15.785-2.632a.31.31 0 0 1 .353.228l1.589 6.363-.006.005Z"/>
  <path fill="#000" d="M358.276 107.929v136.775c0 4.66-3.775 8.442-8.433 8.448h-5.558l.735-.177a12.82 12.82 0 0 0 9.418-12.475V114.32c-.558-13.518-10.153-14.828-10.153-14.828h5.558a8.434 8.434 0 0 1 8.433 8.437Z" opacity=".05"/>
  <path fill="#002346" d="M141.916 164.506h-.074l-24.537-5.811 17.294-3.543h27.242l-19.925 9.348v.006Zm-22.607-5.793 22.561 5.337 18.063-8.482h-25.3l-15.324 3.145Z"/>
  <path fill="#002346" d="m118.383 158.902-.137-.404c.94-.342 11.753-13.244 18.797-21.835l.131-.159 23.843 18.695-.279.348-23.507-18.434c-2.329 2.837-17.567 21.368-18.848 21.795v-.006Z"/>
  <path fill="#002346" d="m141.675 164.314-4.458-26.129-2.415 17.197-.427-.063L137 136.743l.211-.028a.24.24 0 0 1 .239.199l4.658 27.326-.433.074Zm19.909-6.232-18.424 8.5.181.393 18.424-8.5-.181-.393Z"/>
  <path fill="#002346" d="m145.283 167.913-2.58-1.031 1.185-2.273.381.2-.968 1.851 2.141.855-.159.398Zm15.51-7.4-.382-.2.963-1.851-2.136-.86.16-.399 2.579 1.031-1.184 2.279Zm-18.427-23.501-.268.34 17.077 13.506.268-.34-17.077-13.506Z"/>
  <path fill="#002346" d="m142.184 139.726-.313-3.008 2.705-.011v.427l-2.227.012.262 2.54-.427.04Zm14.589 11.24v-.433l2.227-.017-.256-2.535.427-.04.307 3.002-2.705.023Zm-24.274-12.983-15.19 15.599.31.302 15.19-15.599-.31-.302Z"/>
  <path fill="#002346" d="M119.987 154.05h-3.018l.262-2.695.427.04-.217 2.222h2.546v.433Zm12.681-13.365-.433-.04.217-2.222h-2.546v-.427h3.018l-.256 2.689Zm12.655-17.266c-.307-31.666-.045-31.94.086-32.076l.239-.097v.336l.302.114c-.2.866-.091 19.448 0 31.723h-.632.005Z"/>
  <path fill="#F69074" d="M145.562 128.509a2.637 2.637 0 1 0-.001-5.275 2.637 2.637 0 0 0 .001 5.275Z"/>
  <path fill="#002346" d="M145.562 128.794a2.924 2.924 0 0 1 0-5.845 2.924 2.924 0 0 1 2.921 2.922 2.924 2.924 0 0 1-2.921 2.923Zm0-5.275a2.353 2.353 0 0 0 0 4.705 2.353 2.353 0 0 0 0-4.705Zm174.75 12.364h-68.503v-26.278h.66v25.617h67.843v.661Z"/>
  <path fill="#002346" d="m248.474 113.678-.478-.456 4.134-4.312 4.191 4.198-.461.462-3.718-3.714-3.668 3.822Zm68.584 26.299-.467-.468 3.718-3.714-3.821-3.674.456-.473 4.311 4.13-4.197 4.199Zm-52.722-4.094h-5.274v-22.238h5.274v22.238Zm-4.619-.661h3.958v-20.894h-3.958v20.894Zm13.181.658h-5.273v-10.345h5.273v10.345Zm-4.612-.661h3.957v-9.017h-3.957v9.017Zm13.85.662h-5.273v-16.936h5.273v16.936Zm-4.612-.661h3.952V119.6h-3.952v15.62Z"/>
  <path fill="#F69074" d="M291.03 104.77h-4.612v30.783h4.612V104.77Z"/>
  <path fill="#002346" d="M291.037 135.859h-4.612a.306.306 0 0 1-.308-.307v-30.783c0-.171.137-.308.308-.308h4.612c.171 0 .308.137.308.308v30.783a.306.306 0 0 1-.308.307Zm-4.305-.615h3.998v-30.168h-3.998v30.168Z"/>
  <path fill="#F69074" d="M300.261 109.383h-4.613v26.169h4.613v-26.169Z"/>
  <path fill="#002346" d="M300.26 135.859h-4.613a.306.306 0 0 1-.307-.308v-26.169c0-.171.136-.308.307-.308h4.613c.171 0 .307.137.307.308v26.169a.306.306 0 0 1-.307.308Zm-4.305-.616h3.997v-25.554h-3.997v25.554Z"/>
  <path fill="#F69074" d="M309.491 116.633h-4.612v18.917h4.612v-18.917Z"/>
  <path fill="#002346" d="M309.49 135.857h-4.612a.307.307 0 0 1-.308-.308v-18.917c0-.171.137-.308.308-.308h4.612c.171 0 .308.137.308.308v18.917a.307.307 0 0 1-.308.308Zm-4.305-.615h3.998v-18.297h-3.998v18.297Z"/>
  <path fill="#F2B3C1" d="m231.373 154.852-10.102 28.721a.142.142 0 0 1-.262.017c-7.38-14.389-27.544-27.4-27.544-27.4l2.13-24.135c5.871 9.598 15.004 15.061 23.66 13.073a16.498 16.498 0 0 0 7.152-3.708l4.966 13.432Z"/>
  <path fill="#002346" d="M221.133 183.955a.434.434 0 0 1-.381-.234c-7.261-14.156-27.242-27.16-27.442-27.291l-.142-.092 2.221-25.166.45.735c5.967 9.752 15.13 14.833 23.352 12.942a16.332 16.332 0 0 0 7.027-3.64l.314-.274 5.147 13.917-.034.097-10.102 28.721a.425.425 0 0 1-.376.285h-.034Zm-27.373-27.907c1.822 1.202 20.232 13.586 27.345 27.12l9.959-28.316-4.789-12.948a16.779 16.779 0 0 1-6.964 3.497c-8.257 1.897-17.413-2.99-23.518-12.48l-2.039 23.121.006.006Z"/>
  <path fill="#FBE493" d="m194.677 139.719-13.512 16.815a3.565 3.565 0 0 0-.655 3.213l5.199 18.28 7.75-6.5s6.594-3.566 13.849 2.108l13.165 9.746c.182.137.427-.068.325-.267-1.441-2.871-7.716-13.466-27.334-26.921l1.219-16.469-.006-.005Z"/>
  <path fill="#002346" d="M220.604 183.742a.544.544 0 0 1-.314-.102l-13.165-9.747c-6.782-5.303-13.04-2.324-13.49-2.096l-8.092 6.784-5.33-18.741a3.88 3.88 0 0 1 .712-3.492l14.134-17.59-1.276 17.283c19.515 13.415 25.818 24.004 27.288 26.938a.516.516 0 0 1-.131.638.507.507 0 0 1-.336.125Zm-22.021-13.603c2.506 0 5.655.712 8.918 3.258l12.841 9.508c-1.754-3.333-8.263-13.569-27.054-26.454l-.148-.103 1.155-15.659-12.892 16.041a3.247 3.247 0 0 0-.598 2.934l5.068 17.823 7.437-6.226c.04-.022 2.147-1.122 5.268-1.122h.005Z"/>
  <path fill="#FBE493" d="M221.154 183.89s7.909-20.444 22.413-15.83l-3.952-16.485-12.26-11.04-.957.883 4.972 13.432s-10.877 29.035-10.216 29.035v.005Z"/>
  <path fill="#002346" d="M221.155 184.2h-.159l-.109-.143c-.153-.228-.353-.507 4.926-15.021a1772.24 1772.24 0 0 1 5.233-14.184l-5.005-13.518 1.315-1.213.211.188 12.328 11.102 4.106 17.107-.524-.166c-14.054-4.471-21.952 15.443-22.032 15.648l-.074.2h-.216Zm5.603-42.689 4.937 13.347-.04.108c-3.126 8.351-7.408 20.017-9.281 25.628 2.932-5.52 10.062-15.978 20.761-12.982l-3.803-15.87-11.981-10.789-.598.552.005.006Z"/>
  <path fill="#fff" d="M353.287 158.895H239.188v75.055h114.099v-75.055Z"/>
  <path fill="#002346" d="M353.571 234.235H238.902v-75.626h114.669v75.626Zm-114.099-.57h113.529v-74.486H239.472v74.486Z"/>
  <path fill="#002346" d="M353.948 234.606H238.527v-76.372h115.421v76.372Zm-114.1-1.293h112.778V159.55H239.848v73.763Z"/>
  <path fill="#002346" d="M345.6 230.374h-98.747a.306.306 0 0 1-.307-.308v-.165a3.456 3.456 0 0 0-3.451-3.452h-.131a.307.307 0 0 1-.308-.308v-59.487c0-.171.137-.307.308-.307h.102c1.925.022 3.462-1.527 3.48-3.43v-.125c0-.171.136-.308.307-.308H345.6c.171 0 .307.137.307.308v.103a3.457 3.457 0 0 0 3.451 3.452h.103c.171 0 .307.136.307.307v59.476a.306.306 0 0 1-.307.308h-.091a3.461 3.461 0 0 0-3.451 3.457l-.012.194a.31.31 0 0 1-.307.285Zm-98.439-.615h98.143c.057-2.102 1.748-3.823 3.849-3.937V166.95a4.072 4.072 0 0 1-3.861-3.862h-98.137a4.08 4.08 0 0 1-3.884 3.862v58.878a4.079 4.079 0 0 1 3.89 3.925v.006Z"/>
  <path fill="#F69074" d="M265.879 174.942a2.94 2.94 0 0 1 2.95-2.899 3.05 3.05 0 0 1 1.85.615c.177.16.211.422.08.615a.466.466 0 0 1-.615.092 2.029 2.029 0 0 0-1.298-.445 2.12 2.12 0 0 0-1.452.581 2.03 2.03 0 0 0-.587 1.402c0 .524.211 1.031.587 1.395.393.37.911.576 1.452.581.472.006.928-.148 1.298-.444a.492.492 0 0 1 .615.085.48.48 0 0 1-.08.65 3.012 3.012 0 0 1-1.85.615 2.927 2.927 0 0 1-2.95-2.854v.011Zm6.457 2.456v-4.751a.424.424 0 0 1 .388-.444h2.687a.449.449 0 0 1 .422.444.453.453 0 0 1-.422.45h-2.186v1.47h1.85a.45.45 0 0 1 .445.45c0 .245-.2.444-.445.444h-1.85v1.482h2.186c.245 0 .445.199.445.444s-.2.444-.445.444h-2.619a.436.436 0 0 1-.438-.427v-.006h-.018Zm8.656-.222a.441.441 0 0 1-.274.558.435.435 0 0 1-.176 0 .537.537 0 0 1-.313-.085.807.807 0 0 1-.262-.279 2.252 2.252 0 0 1-.166-.969.668.668 0 0 0-.336-.581 1.84 1.84 0 0 0-.449-.193h-.946v1.748a.449.449 0 0 1-.894 0v-4.728a.424.424 0 0 1 .388-.444h1.486c.951 0 1.72.763 1.725 1.709v.006c0 .507-.222.997-.615 1.316.108.085.205.188.285.302.171.256.268.558.268.865-.012.16 0 .319.028.479a.423.423 0 0 1 .268.296h-.017Zm-1.122-3.235a.839.839 0 0 0-.837-.838h-.991v1.675h.991c.461 0 .837-.37.837-.832v-.005Zm5.703-.844h-1.281v4.324a.42.42 0 0 1-.421.422.446.446 0 0 1-.445-.422v-4.324h-1.235a.45.45 0 0 1-.444-.45.424.424 0 0 1 .393-.444h3.485a.445.445 0 1 1-.006.889h-.051l.005.005Zm1.83-.45a.422.422 0 0 1 .387-.444h.057a.45.45 0 0 1 .45.444v4.751a.45.45 0 0 1-.45.422.42.42 0 0 1-.444-.393v-4.78Zm2.409 4.751v-4.751c0-.239.194-.438.433-.444h2.643a.45.45 0 0 1 .444.45c0 .245-.2.444-.444.444h-2.187v1.47h1.851c.244 0 .449.205.449.45a.45.45 0 0 1-.449.444h-1.851v1.932a.463.463 0 0 1-.45.421.444.444 0 0 1-.439-.421v.005Zm4.915-4.751a.424.424 0 0 1 .393-.444h.051a.45.45 0 0 1 .45.444v4.751a.462.462 0 0 1-.45.422.42.42 0 0 1-.444-.393v-4.78Zm2.15 2.295a2.95 2.95 0 0 1 2.949-2.899 3.05 3.05 0 0 1 1.851.615c.177.16.211.422.08.615a.466.466 0 0 1-.615.092 2.029 2.029 0 0 0-1.298-.445 2.136 2.136 0 0 0-1.447.615 1.995 1.995 0 0 0-.615 1.396c.006.53.228 1.037.615 1.401.399.359.923.553 1.464.542a2 2 0 0 0 1.298-.445.488.488 0 0 1 .615.091c.131.2.097.462-.08.616a2.945 2.945 0 0 1-1.85.615 2.935 2.935 0 0 1-2.973-2.831l.006.022Zm9.209 1.57h-1.959l-.393 1.042a.454.454 0 0 1-.416.279.42.42 0 0 1-.461-.37.398.398 0 0 1 .045-.228l1.777-4.745a.458.458 0 0 1 .421-.279.432.432 0 0 1 .422.279l1.771 4.745a.454.454 0 0 1-.262.581.476.476 0 0 1-.57-.262l-.375-1.042Zm-.336-.889-.615-1.731-.661 1.731h1.281-.005Zm5.292-2.526h-1.281v4.324a.442.442 0 0 1-.882 0v-4.324h-1.27a.45.45 0 0 1-.444-.45.422.422 0 0 1 .387-.444h3.49a.44.44 0 0 1 .445.433v.006c0 .25-.194.455-.445.455Zm1.834-.45a.423.423 0 0 1 .392-.444h.052a.45.45 0 0 1 .45.444v4.751a.447.447 0 0 1-.45.422.424.424 0 0 1-.444-.393v-4.78Zm6.849.256a2.951 2.951 0 0 1 0 4.073 2.626 2.626 0 0 1-1.925.837 2.735 2.735 0 0 1-1.97-.837 2.996 2.996 0 0 1 0-4.073 2.692 2.692 0 0 1 1.97-.86c.735 0 1.435.313 1.925.86Zm-.103 2.039c0-.524-.193-1.025-.552-1.407a1.73 1.73 0 0 0-2.443-.153c-.011.011-.023.017-.028.028-.046.04-.086.086-.126.131a2.06 2.06 0 0 0 0 2.803c.627.712 1.703.78 2.415.154l.005-.006c.052-.046.103-.097.149-.148.358-.376.558-.878.563-1.396h.012l.005-.006Zm3.194 2.455c0 .245-.2.438-.439.438a.442.442 0 0 1-.438-.438v-4.677a.399.399 0 0 1 .171-.365.437.437 0 0 1 .615.086l2.556 3.594v-3.321a.44.44 0 0 1 .422-.416c.233 0 .427.183.444.416v4.683a.447.447 0 0 1-.78.262l-.04-.052-2.574-3.577.057 3.361.006.006Z"/>
  <path fill="#002346" d="M319.576 187.775h-47.554a.306.306 0 0 1-.307-.307c0-.171.137-.308.307-.308h47.554a.307.307 0 1 1 0 .615Zm12.966 5.868h-71.949a.307.307 0 0 1-.308-.308c0-.171.137-.308.308-.308h71.949c.17 0 .307.137.307.308a.307.307 0 0 1-.307.308Zm4.329 22.246h-31.189a.307.307 0 0 1-.307-.308c0-.171.137-.308.307-.308h31.189c.171 0 .307.137.307.308a.306.306 0 0 1-.307.308Zm-50.027-.309h-32.732a.306.306 0 0 1-.307-.308c0-.17.136-.307.307-.307h32.732c.171 0 .307.137.307.307a.306.306 0 0 1-.307.308Zm43.232-15.551h-67.319a.307.307 0 1 1 0-.615h67.319a.307.307 0 1 1 0 .615Zm-8.648 3.188h-43.847a.307.307 0 1 1 0-.615h43.847c.171 0 .307.136.307.307a.306.306 0 0 1-.307.308Z"/>
  <path fill="#002346" d="M312.195 213.744a21.54 21.54 0 0 1 1.589-1.002 7.504 7.504 0 0 1 1.72-.775c.074-.023.154-.04.233-.051a.28.28 0 0 1 .268.085c.08.154.119.325.102.496a6.377 6.377 0 0 1-.091.94 30.803 30.803 0 0 1-.421 1.851 29.14 29.14 0 0 1-1.236 3.555c-.125.29-.273.575-.444.837a1.373 1.373 0 0 1-.171.194.261.261 0 0 1-.159.074.177.177 0 0 1-.114-.04l-.057-.063a.87.87 0 0 1-.137-.501 5.88 5.88 0 0 1 .336-1.851c.182-.604.416-1.185.706-1.749a5.34 5.34 0 0 1 1.088-1.595c.245-.217.541-.359.866-.416.165-.023.336-.011.495.04.148.08.268.205.347.353.069.137.154.262.262.376a.395.395 0 0 0 .376.131c.29-.103.552-.262.786-.461.131-.092.245-.194.376-.28.068-.051.136-.091.21-.131a.243.243 0 0 1 .262 0c.126.154.091.319.154.456a.274.274 0 0 0 .319.205c.262-.165.495-.376.683-.615.211-.228.422-.461.615-.701.422-.478.815-.951 1.236-1.418.211-.234.421-.461.649-.684.12-.114.234-.21.359-.307a1.24 1.24 0 0 1 .216-.126.394.394 0 0 1 .137-.028c.057 0 .114.028.142.074.074.154.097.33.069.501a4.17 4.17 0 0 1-.074.467 10.724 10.724 0 0 1-1.003 2.649 1.786 1.786 0 0 1-.296.393.345.345 0 0 1-.279.103.611.611 0 0 1-.245-.069 1.153 1.153 0 0 1-.615-.763.417.417 0 0 1 .04-.296.37.37 0 0 1 .097-.068.303.303 0 0 1 .16-.029c.165.011.33.051.489.114.296.103.615.234.877.365l.86.364.416.154.205.051a.355.355 0 0 0 .171-.04c.239-.119.392-.421.615-.615a.727.727 0 0 1 .484-.245.274.274 0 0 1 .193.063.221.221 0 0 1 .063.194.836.836 0 0 1-.046.262c-.045.136-.062.313 0 .319.12.011.234.011.353 0 .291-.086.558-.228.792-.422.125-.085.25-.177.393-.268a.778.778 0 0 1 .524-.125c.313.12.592.319.803.581.096.108.21.205.336.285.057.045.113.051.125.04a.759.759 0 0 0 .176-.114c.251-.188.484-.399.706-.615a7.6 7.6 0 0 0 1.236-1.39c.171-.24.279-.519.302-.815 0-.279-.29-.416-.615-.45a4.804 4.804 0 0 0-1.851 0 5.279 5.279 0 0 0-.888.245 2.247 2.247 0 0 0-.416.216c-.119.086-.222.211-.188.319a.555.555 0 0 0 .296.274c.137.063.28.125.422.171.29.102.586.188.888.262 1.224.233 2.46.353 3.707.359a19.62 19.62 0 0 1-3.741-.274 10.635 10.635 0 0 1-.917-.25 6.412 6.412 0 0 1-.438-.171.664.664 0 0 1-.37-.353.462.462 0 0 1 .227-.456 1.69 1.69 0 0 1 .416-.239c.296-.126.598-.217.917-.274a5.3 5.3 0 0 1 1.896-.051c.165.023.33.074.478.159.16.097.262.268.274.456a1.722 1.722 0 0 1-.319.934 7.855 7.855 0 0 1-1.236 1.447 6.163 6.163 0 0 1-.729.615.882.882 0 0 1-.222.137.373.373 0 0 1-.319-.045 2.61 2.61 0 0 1-.37-.325 1.905 1.905 0 0 0-.689-.513c-.228-.04-.495.177-.74.353a2.595 2.595 0 0 1-.866.45.729.729 0 0 1-.558 0 .313.313 0 0 1-.102-.313.974.974 0 0 1 .051-.251c.017-.068.029-.136.04-.205a.625.625 0 0 0-.336.177c-.216.199-.359.507-.689.678a.536.536 0 0 1-.279.057 1.307 1.307 0 0 1-.251-.057c-.153-.046-.296-.103-.444-.16l-.865-.376c-.291-.131-.57-.262-.86-.359a1.325 1.325 0 0 0-.422-.102c-.096 0-.153.08-.131.216a.966.966 0 0 0 .519.616.807.807 0 0 0 .199.062.173.173 0 0 0 .142-.068c.103-.103.194-.222.268-.353a9.041 9.041 0 0 0 1.008-2.569c.034-.148.062-.302.08-.45a.776.776 0 0 0 0-.422c-.052-.08-.223 0-.342.103-.12.102-.234.193-.347.296a5.558 5.558 0 0 0-.615.672c-.422.456-.838.94-1.236 1.401-.211.234-.422.467-.615.701-.205.245-.45.456-.723.615a.347.347 0 0 1-.422-.239c-.062-.148-.057-.336-.136-.422-.08-.085-.12 0-.188 0l-.194.126c-.125.085-.245.188-.37.285-.239.21-.518.376-.814.489a.478.478 0 0 1-.467-.148c-.103-.119-.2-.25-.279-.387-.086-.131-.165-.268-.296-.308a.943.943 0 0 0-.416-.028 1.722 1.722 0 0 0-.803.393 5.123 5.123 0 0 0-1.048 1.51 9.76 9.76 0 0 0-.677 1.731 5.926 5.926 0 0 0-.302 1.817.774.774 0 0 0 .091.393v.029s.034-.017.045-.029c.052-.051.097-.102.137-.159.154-.262.296-.53.421-.809.49-1.145.9-2.318 1.236-3.515.177-.598.325-1.202.444-1.817a4.97 4.97 0 0 0 .103-.923.81.81 0 0 0-.08-.415c-.034-.052-.102-.074-.159-.052a.932.932 0 0 0-.217.046 7.43 7.43 0 0 0-1.708.729c-.552.296-1.088.615-1.612.957l.023-.057-.04-.006Zm-34.154-1.236a21.32 21.32 0 0 0-1.588-1.003 7.917 7.917 0 0 0-1.72-.775 2.082 2.082 0 0 0-.239-.051.27.27 0 0 0-.262.086.882.882 0 0 0-.103.495c0 .313.034.627.091.94.114.615.268 1.236.422 1.851a29.246 29.246 0 0 0 1.235 3.555c.126.29.274.575.445.837.051.069.108.137.17.194a.26.26 0 0 0 .16.074c.04 0 .08-.011.114-.04l.057-.063a.96.96 0 0 0 .136-.501 6.21 6.21 0 0 0-.336-1.851 11.223 11.223 0 0 0-.706-1.749 5.37 5.37 0 0 0-1.104-1.538 1.72 1.72 0 0 0-.866-.416 1.1 1.1 0 0 0-.49.04.8.8 0 0 0-.347.353 1.902 1.902 0 0 1-.262.376.393.393 0 0 1-.376.131 2.505 2.505 0 0 1-.791-.461c-.126-.091-.245-.194-.376-.279a1.798 1.798 0 0 0-.205-.131.24.24 0 0 0-.262 0c-.125.154-.091.319-.154.455a.275.275 0 0 1-.319.206 2.852 2.852 0 0 1-.689-.616c-.21-.228-.415-.461-.615-.7-.421-.479-.814-.952-1.235-1.419a14.896 14.896 0 0 0-.65-.683 4.484 4.484 0 0 0-.364-.308.995.995 0 0 0-.211-.125.39.39 0 0 0-.136-.029.19.19 0 0 0-.148.074.83.83 0 0 0-.063.502c.011.159.04.313.074.467.216.923.552 1.817 1.002 2.649.08.142.182.279.296.393a.326.326 0 0 0 .274.102.634.634 0 0 0 .25-.068c.308-.154.535-.433.615-.764a.524.524 0 0 0-.04-.296.397.397 0 0 0-.119-.119.325.325 0 0 0-.165-.029 1.786 1.786 0 0 0-.484.114c-.302.103-.587.234-.877.365l-.86.364c-.143.057-.285.114-.422.154-.068.023-.136.04-.21.051a.353.353 0 0 1-.171-.04c-.234-.119-.387-.421-.615-.615a.737.737 0 0 0-.479-.245.226.226 0 0 0-.193.063.24.24 0 0 0-.068.194c0 .085.017.176.045.262.046.136.063.313 0 .319a1.957 1.957 0 0 1-.359 0 2.217 2.217 0 0 1-.791-.422 3.554 3.554 0 0 0-.422-.268.762.762 0 0 0-.518-.125c-.313.12-.586.319-.803.581-.096.108-.21.205-.336.285-.057.045-.102.051-.119.04a1.137 1.137 0 0 1-.188-.114 6.548 6.548 0 0 1-.706-.615 8.463 8.463 0 0 1-1.236-1.39 1.657 1.657 0 0 1-.285-.809c0-.279.285-.422.587-.456a5.328 5.328 0 0 1 1.851 0c.301.057.597.143.882.251a2.3 2.3 0 0 1 .422.216c.113.086.216.205.187.319a.565.565 0 0 1-.301.274 4.009 4.009 0 0 1-.422.165 10.53 10.53 0 0 1-.894.268c-1.224.233-2.46.353-3.707.358a19.724 19.724 0 0 0 3.759-.273c.307-.068.615-.154.916-.251.143-.057.296-.102.439-.171a.66.66 0 0 0 .37-.353.458.458 0 0 0-.222-.455 1.927 1.927 0 0 0-.422-.24 4.259 4.259 0 0 0-.916-.273 5.17 5.17 0 0 0-1.897-.057 1.34 1.34 0 0 0-.478.165.575.575 0 0 0-.273.456c.017.336.125.661.319.934a7.48 7.48 0 0 0 1.235 1.447c.228.222.473.427.729.615.069.051.143.097.217.137a.356.356 0 0 0 .319-.051c.136-.092.261-.2.375-.319.188-.228.422-.405.689-.519.228-.028.496.177.741.359.256.199.552.353.865.45.177.08.376.08.558 0a.304.304 0 0 0 .103-.308.928.928 0 0 0-.052-.25c-.017-.069-.028-.137-.039-.205h.028c.131.017.245.08.336.176.211.2.359.502.683.678a.493.493 0 0 0 .285.052.927.927 0 0 0 .251-.052 5.76 5.76 0 0 0 .444-.165c.29-.12.575-.245.865-.376.291-.131.57-.251.86-.353.137-.057.274-.091.422-.114.096 0 .153.085.131.216-.08.268-.268.49-.519.616a.63.63 0 0 1-.199.057c-.057 0-.108-.017-.142-.063a1.496 1.496 0 0 1-.268-.353 9.041 9.041 0 0 1-.757-1.675 16.729 16.729 0 0 1-.262-.894 2.41 2.41 0 0 1-.074-.456.799.799 0 0 1 .028-.416c.052-.08.222 0 .336.103.126.091.245.188.353.296.228.211.422.439.649.672.422.456.838.934 1.236 1.401.211.234.422.468.615.701.199.251.444.456.723.615a.345.345 0 0 0 .416-.239c.063-.154.057-.336.137-.422.079-.085.119 0 .176 0 .069.035.137.075.2.126.125.085.244.188.37.285.239.21.518.376.814.484a.465.465 0 0 0 .467-.143 2.68 2.68 0 0 0 .279-.387c.085-.131.165-.273.296-.313.137-.029.279-.029.416 0 .296.057.575.188.803.387.438.439.791.951 1.047 1.515a9.88 9.88 0 0 1 .678 1.732c.194.587.296 1.196.302 1.817a.7.7 0 0 1-.091.388v.028s-.034-.017-.046-.028a.882.882 0 0 1-.131-.154 6.48 6.48 0 0 1-.421-.815 28.13 28.13 0 0 1-1.236-3.509c-.171-.615-.336-1.202-.444-1.817a4.97 4.97 0 0 1-.103-.923.844.844 0 0 1 .08-.421c.04-.052.074-.063.16-.046.074 0 .148.023.222.046a8.32 8.32 0 0 1 1.708.723c.541.296 1.088.615 1.606.957l-.04-.085h.068Z"/>
  <path fill="#F69074" d="M296.447 207.107a.392.392 0 0 0 .689.075.393.393 0 0 1 .536-.114.402.402 0 0 1 .165.262c.04.21.239.353.45.313a.403.403 0 0 0 .205-.097.382.382 0 0 1 .546 0 .39.39 0 0 1 .114.291c-.006.21.16.393.37.398.08.006.16-.011.228-.057a.384.384 0 0 1 .53.109.402.402 0 0 1 .051.302.382.382 0 0 0 .279.472.402.402 0 0 0 .233 0c.2-.074.427.029.502.228a.368.368 0 0 1 0 .308.393.393 0 0 0 .17.524c.074.04.165.051.245.028a.395.395 0 0 1 .439.336.414.414 0 0 1-.08.291.38.38 0 0 0 .063.535h.005c.063.052.131.08.211.086a.387.387 0 0 1 .364.41.411.411 0 0 1-.142.273.383.383 0 0 0-.051.542.387.387 0 0 0 .193.131.38.38 0 0 1 .074.712.385.385 0 0 0-.153.524.347.347 0 0 0 .153.159.383.383 0 0 1 .166.524.39.39 0 0 1-.24.194.383.383 0 0 0-.267.473.352.352 0 0 0 .125.199.384.384 0 0 1 .046.547.388.388 0 0 1-.268.137.395.395 0 0 0-.279.632.397.397 0 0 1-.08.547.401.401 0 0 1-.279.074.388.388 0 0 0-.455.307.396.396 0 0 0 .04.245.393.393 0 0 1-.177.519.395.395 0 0 1-.302 0 .392.392 0 0 0-.501.228.394.394 0 0 0-.011.228.384.384 0 0 1-.285.461h-.011a.38.38 0 0 1-.285-.046.387.387 0 0 0-.535.12.433.433 0 0 0-.063.222.391.391 0 0 1-.359.41h-.006a.398.398 0 0 1-.29-.114.39.39 0 0 0-.552 0 .36.36 0 0 0-.103.205.395.395 0 0 1-.45.319.379.379 0 0 1-.25-.165.4.4 0 0 0-.541-.114.436.436 0 0 0-.143.177.39.39 0 0 1-.723 0 .376.376 0 0 0-.495-.217.403.403 0 0 0-.188.149.39.39 0 0 1-.535.102.403.403 0 0 1-.165-.262.387.387 0 0 0-.45-.313.388.388 0 0 0-.205.102.385.385 0 0 1-.541 0 .437.437 0 0 1-.114-.296.385.385 0 0 0-.376-.399.372.372 0 0 0-.222.063.388.388 0 0 1-.53-.131.376.376 0 0 1-.051-.291.393.393 0 0 0-.285-.472.438.438 0 0 0-.227.011.402.402 0 0 1-.502-.239.442.442 0 0 1 0-.296.394.394 0 0 0-.17-.525.37.37 0 0 0-.245-.028.395.395 0 0 1-.439-.336.414.414 0 0 1 .08-.291.395.395 0 0 0-.102-.552.406.406 0 0 0-.177-.069.389.389 0 0 1-.222-.683.393.393 0 0 0 .057-.541.485.485 0 0 0-.199-.131.38.38 0 0 1-.074-.712.4.4 0 0 0 0-.69.383.383 0 0 1-.166-.524.388.388 0 0 1 .24-.193.393.393 0 0 0 .267-.484.353.353 0 0 0-.125-.194.386.386 0 0 1 .222-.684.395.395 0 0 0 .279-.632.397.397 0 0 1 .08-.547.4.4 0 0 1 .279-.074c.21.04.41-.102.45-.308a.397.397 0 0 0-.029-.244.383.383 0 0 1 .177-.519.399.399 0 0 1 .301-.017c.2.074.428-.028.502-.228a.42.42 0 0 0 0-.233.38.38 0 0 1 .279-.462.353.353 0 0 1 .301.052.392.392 0 0 0 .547-.103.364.364 0 0 0 .068-.245.377.377 0 0 1 .353-.399h.012a.37.37 0 0 1 .29.114.389.389 0 0 0 .553 0 .35.35 0 0 0 .102-.205.38.38 0 0 1 .439-.313.355.355 0 0 1 .262.165.39.39 0 0 0 .689-.074.391.391 0 0 1 .501-.222c.097.04.171.114.216.211l-.023.039Z"/>
  <path fill="#fff" d="M296.082 219.862a6.02 6.02 0 0 0 6.019-6.021 6.02 6.02 0 1 0-6.019 6.021Z"/>
  <path fill="#F69074" d="M296.083 219.466a5.637 5.637 0 0 1-5.638-5.639 5.637 5.637 0 0 1 5.638-5.639 5.636 5.636 0 0 1 5.637 5.639 5.636 5.636 0 0 1-5.637 5.639Zm0-11.062a5.438 5.438 0 0 0-5.438 5.44 5.442 5.442 0 0 0 5.438 5.44 5.442 5.442 0 0 0 5.438-5.44 5.438 5.438 0 0 0-5.438-5.44Z"/>
  <path fill="#fff" d="M305.228 212.098h-18.279v3.463h18.279v-3.463Z"/>
  <path fill="#F69074" d="M289.344 213.864a1.007 1.007 0 0 1 1.008-.997c.222 0 .438.08.615.217a.165.165 0 0 1 0 .222.16.16 0 0 1-.217 0 .66.66 0 0 0-.444-.148.71.71 0 0 0-.495.199.674.674 0 0 0-.2.479.635.635 0 0 0 .2.478.75.75 0 0 0 .495.205c.16 0 .319-.057.444-.154a.155.155 0 0 1 .217.029.158.158 0 0 1 0 .216 1.05 1.05 0 0 1-.615.217c-.536 0-.98-.422-1.008-.957v-.006Zm2.211.832v-1.618a.15.15 0 0 1 .148-.148h.899c.08.017.137.091.126.171a.175.175 0 0 1-.126.131h-.745v.501h.614a.157.157 0 0 1 .126.176.173.173 0 0 1-.126.131h-.614v.502h.745a.151.151 0 0 1 .12.182.153.153 0 0 1-.12.12h-.899a.151.151 0 0 1-.148-.148Zm2.948-.074a.158.158 0 0 1-.097.194h-.057a.197.197 0 0 1-.102-.029.342.342 0 0 1-.091-.091.75.75 0 0 1-.057-.336.184.184 0 0 0-.04-.119.172.172 0 0 0-.08-.08.365.365 0 0 0-.148-.063h-.324v.615a.157.157 0 0 1-.2.109c-.051-.018-.096-.057-.108-.109v-1.612c0-.085.074-.148.154-.148h.495a.583.583 0 0 1 .371 1.031.257.257 0 0 1 .091.097.528.528 0 0 1 .091.302.704.704 0 0 0 0 .159.13.13 0 0 1 .102.074v.006Zm-.381-1.105a.294.294 0 0 0-.285-.285h-.342v.564h.342a.284.284 0 0 0 .285-.25v-.029Zm1.958-.283h-.438v1.464a.145.145 0 0 1-.137.148h-.006a.151.151 0 0 1-.148-.148v-1.464h-.421a.151.151 0 0 1-.148-.148.134.134 0 0 1 .125-.148h1.179c.085 0 .153.062.153.148a.15.15 0 0 1-.159.148Zm.611-.157c0-.085.069-.153.154-.159h.034c.086 0 .154.063.154.148v1.618c0 .085-.074.148-.154.148a.154.154 0 0 1-.153-.142l-.029-1.618-.006.005Zm.801 1.619v-1.618c0-.08.069-.148.148-.148h.9a.152.152 0 0 1 .12.182.154.154 0 0 1-.12.12h-.746v.501h.615a.153.153 0 1 1 0 .307h-.615v.656a.151.151 0 0 1-.148.148h-.006a.152.152 0 0 1-.148-.148Zm1.699-1.616c0-.086.069-.154.154-.154.086 0 .154.062.154.148v1.618c0 .085-.074.148-.154.148a.156.156 0 0 1-.154-.143v-1.617Zm.821 1.616v-1.618c0-.08.057-.143.136-.148h.906a.153.153 0 0 1 .131.171.16.16 0 0 1-.131.131h-.74v.501h.615c.085 0 .153.068.153.154a.152.152 0 0 1-.153.153h-.615v.502h.74a.15.15 0 0 1 .148.148c0 .08-.063.148-.142.154h-.9a.144.144 0 0 1-.148-.137v-.011Zm1.629.001v-1.617c0-.086.068-.154.153-.154h.348c.529 0 .956.427.956.957s-.427.957-.956.957h-.319c-.086.011-.165-.046-.177-.126v-.017h-.005Zm.296-.153h.171a.66.66 0 0 0 0-1.316h-.171v1.316Z"/>
  <path fill="#F2B3C1" d="m223.791 199.071-29.902 20.068a47.73 47.73 0 0 1-9.059 4.762c-7.545 2.997-22.038 9.399-23.006 14.742 0 0 5.928 18.468 16.48 16.491 0 0 9.88 4.147 30.989-21.338l22.903-25.805a6.371 6.371 0 0 1 3.582-2.028c2.391-.438 6.309-1.298 8.917-2.574a6.12 6.12 0 0 0 2.392-2.148l7.032-10.749s.661-.661-.66-3.959c0 0 1.321-3.293-1.316-4.614 0 0 1.037-3.298-1.127-5.605 0 0 .467-2.974-1.509-3.629 0 0-.661-3.959-3.958-3.298l-11.201 3.298a5.967 5.967 0 0 0-4.618 5.275l-5.928 21.116-.011-.005Z"/>
  <path fill="#002346" d="M180.171 255.68c-1.042 0-1.669-.182-1.896-.262-10.632 1.897-16.48-15.933-16.725-16.696l-.023-.068.012-.069c.979-5.394 14.942-11.683 23.182-14.953a47.818 47.818 0 0 0 9.008-4.733l29.816-20.006 5.9-21.014c.239-2.655 2.181-4.876 4.829-5.474l11.183-3.293c.98-.199 1.817-.045 2.523.439 1.213.837 1.646 2.404 1.76 2.916 1.776.724 1.628 3.133 1.56 3.743 1.839 2.056 1.361 4.756 1.162 5.554 2.3 1.333 1.486 4.158 1.286 4.751 1.202 3.036.752 3.936.587 4.135l-7.021 10.732a6.387 6.387 0 0 1-2.5 2.25c-2.699 1.322-6.794 2.199-8.997 2.604a6.11 6.11 0 0 0-3.423 1.936l-22.903 25.805c-15.927 19.225-25.471 21.703-29.332 21.703h.012Zm-1.839-.849.079.035c.097.039 9.994 3.691 30.659-21.259l22.909-25.811a6.64 6.64 0 0 1 3.741-2.119c2.175-.398 6.213-1.259 8.843-2.552a5.847 5.847 0 0 0 2.278-2.05l7.073-10.795s.449-.718-.724-3.651l-.039-.109.039-.108c.052-.125 1.191-3.064-1.178-4.255l-.217-.108.074-.234c.012-.034.957-3.173-1.065-5.32l-.096-.103.022-.136s.405-2.74-1.315-3.31l-.165-.051-.029-.171s-.33-1.863-1.56-2.712c-.575-.393-1.27-.518-2.061-.353l-11.178 3.293a5.679 5.679 0 0 0-4.419 5.03l-5.968 21.27-.085.057-29.902 20.068a48.286 48.286 0 0 1-9.111 4.791c-6.514 2.586-21.73 9.154-22.817 14.457.41 1.219 6.258 18.069 16.132 16.229l.085-.017-.005-.006Zm174.029 5.95 3.775-4.54 5.734 1.345-7.032-20.969-9.51 3.196 7.033 20.968Z"/>
  <path fill="#000" d="m348.825 250.209-3.497-10.396 9.51-3.196-6.013 13.592Z" opacity=".2"/>
  <path fill="#fff" d="m353.605 237.034 6.777 20.205.211.045-6.811-20.307-.177.057Zm-7.226 2.417 6.816 20.314.137-.165-6.771-20.205-.182.056Z"/>
  <path fill="#002346" d="m334.543 260.747 5.66-1.68 4.026 4.3 6.537-24.124-9.674-2.626-6.549 24.13Z"/>
  <path fill="#fff" d="m349.512 238.91-6.332 23.344.148.154 6.36-23.458-.176-.04Zm-7.345-1.996-6.366 23.452.205-.051 6.338-23.355-.177-.046Z"/>
  <path fill="#F69074" d="M349.037 213.253a.885.885 0 0 0 1.549.159.88.88 0 0 1 1.594.342.892.892 0 0 0 1.02.724.842.842 0 0 0 .461-.24.89.89 0 0 1 1.503.667.885.885 0 0 0 1.344.786.885.885 0 0 1 1.236.268c.131.205.171.45.114.683a.889.889 0 0 0 .615 1.077.86.86 0 0 0 .524-.029.877.877 0 0 1 1.138.507.906.906 0 0 1-.039.73.883.883 0 0 0 .911 1.258.87.87 0 0 1 1.013.713.856.856 0 0 1-.182.7.89.89 0 0 0 .148 1.236.955.955 0 0 0 .49.188.872.872 0 0 1 .82.929v.011a.878.878 0 0 1-.313.615.9.9 0 0 0-.114 1.237.907.907 0 0 0 .438.284.889.889 0 0 1 .621 1.088.928.928 0 0 1-.439.547.883.883 0 0 0 0 1.561.886.886 0 0 1-.17 1.635.888.888 0 0 0-.61 1.094.88.88 0 0 0 .279.432.88.88 0 0 1 .126 1.237.856.856 0 0 1-.615.319.88.88 0 0 0-.615 1.429.884.884 0 0 1-.131 1.236.883.883 0 0 1-.701.177.885.885 0 0 0-.996.752.849.849 0 0 0 .079.501.883.883 0 0 1-.41 1.179.901.901 0 0 1-.689.04.877.877 0 0 0-1.127.513.824.824 0 0 0 0 .524.88.88 0 0 1-.638 1.071.915.915 0 0 1-.689-.108.872.872 0 0 0-1.23.273.889.889 0 0 0-.137.507.896.896 0 0 1-.854.917.882.882 0 0 1-.615-.25.872.872 0 0 0-1.235 0 .893.893 0 0 0-.234.461.884.884 0 0 1-1.019.723.934.934 0 0 1-.581-.375.88.88 0 0 0-1.213-.257c-.006 0-.017.012-.023.017a.824.824 0 0 0-.324.399.894.894 0 0 1-1.151.496.942.942 0 0 1-.495-.496.873.873 0 0 0-1.127-.496s-.012 0-.017.006a.885.885 0 0 0-.411.325.885.885 0 0 1-1.6-.342.888.888 0 0 0-1.019-.718.84.84 0 0 0-.461.234.873.873 0 0 1-1.236 0 .842.842 0 0 1-.25-.615.878.878 0 0 0-.849-.917.893.893 0 0 0-.507.136.882.882 0 0 1-1.224-.256c0-.006-.011-.012-.011-.023a.877.877 0 0 1-.114-.683.884.884 0 0 0-1.156-1.043.88.88 0 0 1-1.128-.524.852.852 0 0 1 0-.689.877.877 0 0 0-.911-1.253.875.875 0 0 1-.831-1.419.887.887 0 0 0-.621-1.43.879.879 0 0 1-.826-.928.862.862 0 0 1 .319-.615.885.885 0 0 0-.324-1.527.889.889 0 0 1-.621-1.088.916.916 0 0 1 .438-.547.882.882 0 0 0 .376-1.185.92.92 0 0 0-.376-.376.888.888 0 0 1-.37-1.19.868.868 0 0 1 .541-.439.887.887 0 0 0 .331-1.532.878.878 0 0 1-.126-1.236.885.885 0 0 1 .632-.325.882.882 0 0 0 .615-1.43.885.885 0 0 1 .143-1.236.86.86 0 0 1 .689-.171.888.888 0 0 0 .917-1.236.876.876 0 0 1 .37-1.19.858.858 0 0 1 .729-.04.877.877 0 0 0 1.156-1.043.883.883 0 0 1 .615-1.071.833.833 0 0 1 .683.114.895.895 0 0 0 1.236-.285.91.91 0 0 0 .131-.501.883.883 0 0 1 .854-.906.85.85 0 0 1 .615.251.883.883 0 0 0 1.235 0 .902.902 0 0 0 .24-.461.885.885 0 0 1 1.019-.724.942.942 0 0 1 .581.376.88.88 0 0 0 1.224.239.89.89 0 0 0 .325-.398.879.879 0 0 1 1.144-.496.914.914 0 0 1 .507.427l.017-.011Z"/>
  <path fill="#002346" d="M348.281 244.596c-.142 0-.29-.029-.433-.08a1.242 1.242 0 0 1-.666-.661.574.574 0 0 0-.302-.319.53.53 0 0 0-.427-.006.546.546 0 0 0-.279.217 1.206 1.206 0 0 1-.769.507 1.184 1.184 0 0 1-.894-.188 1.174 1.174 0 0 1-.501-.78.578.578 0 0 0-.66-.468.522.522 0 0 0-.296.149 1.191 1.191 0 0 1-1.669 0 1.164 1.164 0 0 1-.342-.838.577.577 0 0 0-.148-.421.556.556 0 0 0-.398-.183.632.632 0 0 0-.33.086 1.193 1.193 0 0 1-1.646-.348 1.234 1.234 0 0 1-.165-.951.578.578 0 0 0-.422-.695.549.549 0 0 0-.33.017 1.191 1.191 0 0 1-1.52-.712 1.153 1.153 0 0 1 .005-.923.568.568 0 0 0-.262-.769.604.604 0 0 0-.33-.057 1.136 1.136 0 0 1-.871-.193 1.193 1.193 0 0 1-.239-1.732.57.57 0 0 0-.103-.798.535.535 0 0 0-.307-.119 1.191 1.191 0 0 1-1.111-1.248c.023-.33.182-.638.439-.843a.569.569 0 0 0 .062-.803.558.558 0 0 0-.284-.182 1.218 1.218 0 0 1-.718-.558 1.182 1.182 0 0 1-.119-.889v-.023c.091-.308.301-.575.586-.729a.574.574 0 0 0 .285-.336.568.568 0 0 0-.279-.672 1.202 1.202 0 0 1-.501-1.607c.153-.29.421-.507.734-.592a.585.585 0 0 0 .405-.712.606.606 0 0 0-.188-.285 1.182 1.182 0 0 1-.165-1.663c.21-.262.523-.416.854-.439a.573.573 0 0 0 .512-.621.6.6 0 0 0-.119-.307 1.193 1.193 0 0 1 .193-1.669c.268-.211.61-.297.94-.24a.55.55 0 0 0 .404-.119.58.58 0 0 0 .216-.382.553.553 0 0 0-.045-.302 1.166 1.166 0 0 1-.074-.889 1.19 1.19 0 0 1 1.566-.757.566.566 0 0 0 .746-.678 1.19 1.19 0 0 1 .831-1.447 1.17 1.17 0 0 1 .934.148.592.592 0 0 0 .803-.182.571.571 0 0 0 .085-.33 1.19 1.19 0 0 1 1.151-1.225 1.13 1.13 0 0 1 .848.347.57.57 0 0 0 .797 0 .61.61 0 0 0 .154-.302 1.185 1.185 0 0 1 1.372-.968c.325.057.598.239.786.507a.58.58 0 0 0 .803.159.558.558 0 0 0 .211-.262 1.18 1.18 0 0 1 .632-.649c.29-.125.615-.131.911-.011.279.091.518.296.666.564 0 .011.012.022.017.028.12.296.456.433.752.313a.62.62 0 0 0 .262-.21 1.19 1.19 0 0 1 2.158.455.583.583 0 0 0 .666.473.551.551 0 0 0 .297-.154 1.205 1.205 0 0 1 1.702.04c.217.234.336.536.331.855a.574.574 0 0 0 .876.512 1.18 1.18 0 0 1 .889-.165c.313.063.581.245.751.513.194.296.245.638.166.951a.577.577 0 0 0 .404.701.49.49 0 0 0 .324-.023 1.193 1.193 0 0 1 1.487 1.669.577.577 0 0 0 .603.809 1.18 1.18 0 0 1 1.356.963c.057.336-.029.683-.245.951a.583.583 0 0 0 .102.803c.086.068.2.108.319.12.308.017.598.159.809.398a1.195 1.195 0 0 1-.131 1.709.586.586 0 0 0-.069.804.58.58 0 0 0 .285.182 1.192 1.192 0 0 1 .832 1.464 1.244 1.244 0 0 1-.587.735.574.574 0 0 0-.251.769.574.574 0 0 0 .245.245c.285.148.49.398.581.706.091.302.063.627-.085.906a1.223 1.223 0 0 1-.729.592.577.577 0 0 0-.217.997c.502.41.581 1.162.166 1.663a1.156 1.156 0 0 1-.838.433.566.566 0 0 0-.512.621.595.595 0 0 0 .12.308c.199.245.284.552.25.866a1.16 1.16 0 0 1-.427.786l-.017.017a1.208 1.208 0 0 1-.94.239.572.572 0 0 0-.586.815 1.198 1.198 0 0 1-1.481 1.646.571.571 0 0 0-.734.33.53.53 0 0 0 0 .325 1.206 1.206 0 0 1-.854 1.47 1.21 1.21 0 0 1-.929-.149.56.56 0 0 0-.432-.085.557.557 0 0 0-.359.245.586.586 0 0 0-.103.353 1.2 1.2 0 0 1-1.15 1.236c-.324 0-.621-.125-.843-.342a.567.567 0 0 0-.803 0 .615.615 0 0 0-.148.297 1.196 1.196 0 0 1-1.372.974 1.206 1.206 0 0 1-.786-.507.546.546 0 0 0-.364-.251.59.59 0 0 0-.427.08.53.53 0 0 0-.228.268 1.208 1.208 0 0 1-1.116.752l-.006-.04Zm-1.623-1.726c.16 0 .319.034.467.097.291.125.513.358.626.649a.629.629 0 0 0 .325.325.584.584 0 0 0 .74-.325c.086-.222.239-.416.45-.547.285-.188.604-.245.911-.182.308.068.575.245.752.512a.579.579 0 0 0 .381.24.584.584 0 0 0 .661-.473c.04-.239.154-.45.313-.627a1.19 1.19 0 0 1 1.674-.005.622.622 0 0 0 .405.165.578.578 0 0 0 .541-.598c-.012-.24.051-.479.182-.684.194-.296.461-.478.774-.541.308-.063.627 0 .889.171a.578.578 0 0 0 .86-.632 1.192 1.192 0 0 1 0-.695c.233-.633.922-.94 1.531-.712a.572.572 0 0 0 .712-.792 1.166 1.166 0 0 1-.108-.678 1.198 1.198 0 0 1 1.344-1.02.578.578 0 0 0 .455-.108l.006-.006a.561.561 0 0 0 .211-.381.58.58 0 0 0-.12-.416 1.211 1.211 0 0 1-.256-.638 1.19 1.19 0 0 1 1.082-1.293.577.577 0 0 0 .404-.205.571.571 0 0 0-.08-.804 1.143 1.143 0 0 1-.381-.592 1.171 1.171 0 0 1 .108-.906c.154-.279.41-.478.718-.564a.605.605 0 0 0 .353-.284.564.564 0 0 0 .04-.439.55.55 0 0 0-.28-.336 1.16 1.16 0 0 1-.501-.501 1.19 1.19 0 0 1 .507-1.601.601.601 0 0 0 .285-.359.568.568 0 0 0-.404-.695 1.21 1.21 0 0 1-.593-.382 1.204 1.204 0 0 1 .143-1.669.576.576 0 0 0 .068-.826.55.55 0 0 0-.393-.188 1.175 1.175 0 0 1-.655-.25 1.206 1.206 0 0 1-.205-1.669.571.571 0 0 0-.535-.923 1.258 1.258 0 0 1-.683-.103 1.197 1.197 0 0 1-.564-1.595.574.574 0 0 0-.706-.814 1.134 1.134 0 0 1-.712.04 1.198 1.198 0 0 1-.837-1.453.566.566 0 0 0-.068-.439.583.583 0 0 0-.809-.182 1.195 1.195 0 0 1-1.828-1.054.578.578 0 0 0-.979-.433c-.165.166-.382.28-.621.319a1.205 1.205 0 0 1-1.378-.974.587.587 0 0 0-.239-.37.576.576 0 0 0-.797.154 1.224 1.224 0 0 1-.536.439 1.19 1.19 0 0 1-1.543-.638.597.597 0 0 0-.324-.268.573.573 0 0 0-.456 0 .573.573 0 0 0-.308.313 1.17 1.17 0 0 1-.438.541 1.182 1.182 0 0 1-.894.183 1.2 1.2 0 0 1-.763-.507.596.596 0 0 0-.382-.245.58.58 0 0 0-.66.472c-.046.24-.16.456-.325.627a1.195 1.195 0 0 1-1.674 0 .511.511 0 0 0-.399-.165.57.57 0 0 0-.546.592c.006.234-.051.462-.171.661 0 0 0 .006-.006.011a1.207 1.207 0 0 1-1.662.382.562.562 0 0 0-.445-.074.582.582 0 0 0-.398.695 1.179 1.179 0 0 1-.655 1.379 1.191 1.191 0 0 1-.906.034.582.582 0 0 0-.478.028.582.582 0 0 0-.279.336.592.592 0 0 0 .04.439c.097.216.131.433.102.649a1.184 1.184 0 0 1-.449.792 1.187 1.187 0 0 1-.877.245.593.593 0 0 0-.462.108.577.577 0 0 0-.091.803c.143.183.234.405.251.633a1.198 1.198 0 0 1-1.088 1.293.578.578 0 0 0-.421.211.563.563 0 0 0 .085.797c.188.16.319.359.387.587a1.205 1.205 0 0 1-.831 1.481.55.55 0 0 0-.353.285.59.59 0 0 0 .245.78c.216.108.387.285.501.501a1.18 1.18 0 0 1-.507 1.601.594.594 0 0 0-.279.342v.011a.565.565 0 0 0 .057.439.568.568 0 0 0 .347.268 1.199 1.199 0 0 1 .445 2.062.564.564 0 0 0-.211.404.575.575 0 0 0 .541.598c.239.023.461.108.643.251.251.199.41.478.445.797.039.319-.052.627-.245.878a.565.565 0 0 0 .535.922c.245-.034.478 0 .689.109.592.284.843.996.558 1.583a.57.57 0 0 0 0 .433.578.578 0 0 0 .74.359c.222-.08.462-.091.689-.034a1.189 1.189 0 0 1 .872 1.441.57.57 0 0 0 .074.45.575.575 0 0 0 .803.182c.21-.131.449-.193.689-.182a1.183 1.183 0 0 1 1.144 1.236c0 .137.057.285.16.387.222.217.58.217.803 0a1.195 1.195 0 0 1 2.004.65c.028.154.114.29.239.376a.582.582 0 0 0 .803-.148 1.188 1.188 0 0 1 .997-.53l-.012.006Z"/>
  <path fill="#fff" d="M348.202 242.179c7.548 0 13.666-6.121 13.666-13.672 0-7.55-6.118-13.671-13.666-13.671s-13.667 6.121-13.667 13.671c0 7.551 6.119 13.672 13.667 13.672Z"/>
  <path fill="#002346" d="M348.201 242.471c-7.693 0-13.951-6.26-13.951-13.956s6.258-13.956 13.951-13.956c7.693 0 13.952 6.26 13.952 13.956s-6.259 13.956-13.952 13.956Zm0-27.343c-7.38 0-13.382 6.004-13.382 13.387 0 7.382 6.002 13.386 13.382 13.386s13.382-6.004 13.382-13.386c0-7.383-6.002-13.387-13.382-13.387Z"/>
  <path fill="#002346" d="M348.196 241.225c-7.021 0-12.716-5.696-12.716-12.72 0-7.023 5.695-12.72 12.716-12.72 7.021 0 12.716 5.697 12.716 12.72 0 7.024-5.683 12.714-12.699 12.72h-.017Zm0-25.115c-6.85 0-12.402 5.554-12.402 12.407 0 6.852 5.552 12.406 12.402 12.406s12.403-5.554 12.403-12.406c-.006-6.853-5.558-12.401-12.403-12.407Z"/>
  <path fill="#F69074" d="m346.795 236.126-7.494-7.496 3.069-3.076 4.425 4.414 14.071-14.07 3.069 3.076-17.14 17.152Z"/>
  <path fill="#002346" d="M346.796 236.435a.31.31 0 0 1-.216-.091l-7.494-7.497a.313.313 0 0 1 0-.439l3.069-3.076a.311.311 0 0 1 .216-.091c.08 0 .16.034.217.091l4.202 4.199 13.849-13.854a.312.312 0 0 1 .217-.091c.079 0 .159.034.216.091l3.069 3.076c.12.12.12.313 0 .439l-17.14 17.152a.311.311 0 0 1-.216.091h.011Zm-7.055-7.804 7.055 7.057 16.702-16.713-2.631-2.637-13.849 13.853a.311.311 0 0 1-.438 0l-4.203-4.198-2.631 2.638h-.005Z"/>
  <path fill="#F2B3C1" d="M341.106 185.525s-6.725-6.899-.871-6.899c.16 0 5.837-.615 9.59-1.031a5.664 5.664 0 0 1 5.557 2.809c.165.296.319.592.467.894 2.249 4.54 2.745 9.752 1.669 14.702-.593 2.712-1.515 6.175-2.711 8.351-.683 1.242-1.999 2.005-3.417 2.039-4.675.126-17.47-.096-10.927-6.642 0 0-8.354-3.651-.871-7.769 0 0-1.424-.524-2.671-1.396-1.572-1.099-1.412-3.463.325-4.278.848-.399 2.084-.701 3.866-.78h-.006Z"/>
  <path fill="#002346" d="M349.75 206.704c-4.317 0-10.171-.472-11.23-2.939-.461-1.076.029-2.398 1.458-3.919-1.002-.501-3.69-2.045-3.787-4.147-.057-1.293.866-2.523 2.751-3.668a12.898 12.898 0 0 1-2.193-1.208 2.768 2.768 0 0 1-1.196-2.535 2.691 2.691 0 0 1 1.566-2.233c.86-.404 1.993-.661 3.366-.769-1.054-1.162-3.514-4.13-2.802-5.816.313-.746 1.173-1.122 2.551-1.122.217-.011 5.137-.541 9.561-1.031a5.945 5.945 0 0 1 5.837 2.951c.165.302.324.603.478.911 2.21 4.46 2.813 9.752 1.691 14.89-.569 2.609-1.509 6.192-2.739 8.431-.723 1.31-2.124 2.148-3.661 2.187-.513.012-1.065.023-1.646.023l-.005-.006Zm.723-28.863c-.205 0-.41.011-.615.034-.097.012-9.379 1.031-9.624 1.031-1.127 0-1.811.262-2.027.775-.592 1.407 2.039 4.551 3.098 5.639l.444.456-.632.028c-1.578.075-2.842.325-3.759.758a2.115 2.115 0 0 0-1.235 1.766c-.069.797.29 1.549.956 2.016 1.208.844 2.597 1.356 2.609 1.362l.586.216-.547.302c-2.021 1.111-3.018 2.267-2.966 3.435.096 2.176 3.775 3.811 3.815 3.828l.381.165-.296.297c-1.463 1.464-2.01 2.671-1.617 3.583.774 1.794 5.387 2.757 12.34 2.574 1.338-.034 2.551-.763 3.177-1.891 1.202-2.176 2.119-5.702 2.682-8.277 1.094-5.018.513-10.173-1.645-14.514a25.565 25.565 0 0 0-.462-.883 5.375 5.375 0 0 0-4.663-2.7Z"/>
  <path fill="red" d="m346.914 312.993-6.281-.308.006-.154 6.28.308-.005.154Z"/>
  <path fill="#FBE493" d="M289.98 294.552v11.45l71.522 3.885-.375-16.719-71.147 1.384Z"/>
  <path fill="#002346" d="m361.822 310.212-.33-.017-71.812-3.902v-12.042h.301l71.454-1.396.393 17.357h-.006Zm-71.533-4.506 70.896 3.851-.365-16.075-70.537 1.373v10.851h.006Z"/>
  <path fill="#fff" d="m285.35 309.897 76.157 3.736v-3.736l-71.521-3.885-4.641 3.856s-.006.034.011.034l-.006-.005Z"/>
  <path fill="#002346" d="m361.787 313.929-.296-.017-76.345-3.743-.142-.381.159-.148 4.732-3.925h.114l71.79 3.908v4.306h-.012Zm-75.741-4.284 75.172 3.686v-3.167l-71.14-3.868-4.032 3.349Z"/>
  <path fill="#E6E7E8" d="m285.301 309.887.882 9.655 74.945 5.383.376-11.301-76.203-3.737Z"/>
  <path fill="#002346" d="m361.43 325.256-.319-.023-75.207-5.4-.939-10.271.353.018 76.51 3.753-.398 11.923Zm-74.962-6.004 74.364 5.338.353-10.675-75.548-3.703.825 9.04h.006Z"/>
  <path fill="#F69074" d="m268.005 279.967 50.8 7.918 44.536-6.181-23.683-6.181-71.641 4.398s-.029.04-.012.04v.006Z"/>
  <path fill="#002346" d="M318.812 288.192h-.046l-50.799-7.918a.338.338 0 0 1-.24-.177c-.051-.108-.017-.273.063-.365a.279.279 0 0 1 .216-.108l71.642-4.397c.034 0 .068 0 .097.011l23.683 6.175c.142.04.239.171.228.319a.3.3 0 0 1-.268.285l-44.536 6.18h-.04v-.005Zm-48.106-8.124 48.106 7.503 42.953-5.959-22.134-5.77-68.925 4.232v-.006Z"/>
  <path fill="#fff" d="m317.93 299.348-51.438-8.818 1.515-10.561 50.8 7.918-.877 11.461Z"/>
  <path fill="#002346" d="m318.186 299.677-52.018-8.915 1.6-11.125 51.341 8.003-.923 12.037Zm-51.375-9.382 50.857 8.715.832-10.886-50.254-7.832-1.44 10.003h.005Z"/>
  <path fill="#E6E7E8" d="m265.146 259.75 21.035 15.784 71.14-4.238s.012-.011 0-.011l-20.004-13.387-72.143 1.755c-.051 0-.074.068-.028.097Z"/>
  <path fill="#002346" d="m286.092 275.849-.092-.069-21.035-15.784a.353.353 0 0 1-.125-.399.354.354 0 0 1 .336-.251l72.239-1.76.08.051 20.193 13.512-.12.45h-.239l-71.237 4.25Zm-20.17-15.905 20.357 15.278 70.139-4.176-19.179-12.833-71.311 1.737-.006-.006Z"/>
  <path fill="#fff" d="M264.141 268.476s20.904 15.904 21.599 16.821c.005.012.022 0 .022-.006.046-.734.444-9.757.444-9.757L265.2 259.772c-.069-.052-.16-.006-.171.074l-.888 8.635v-.005Z"/>
  <path fill="#002346" d="m285.655 285.635-.13-.154c-.502-.661-13.16-10.39-21.548-16.776l-.125-.097.905-8.795a.381.381 0 0 1 .233-.319.39.39 0 0 1 .393.046l21.127 15.853v.148c-.023.37-.41 9.034-.456 9.763l-.011.2-.382.125-.006.006Zm-21.211-17.283c2.46 1.874 18.119 13.802 21.063 16.349.097-1.96.365-7.992.41-9.023l-20.636-15.483-.837 8.163v-.006Z"/>
  <path fill="#E6E7E8" d="m285.746 285.128.444-9.593 71.163-4.238v10.065l-71.408 3.959a.184.184 0 0 1-.193-.193h-.006Z"/>
  <path fill="#002346" d="M285.929 285.627a.49.49 0 0 1-.347-.142.506.506 0 0 1-.148-.376l.456-9.872.279-.017 71.493-4.255v10.681l-71.704 3.976h-.029v.005Zm.553-9.803-.422 9.177 70.981-3.936v-9.445l-70.559 4.204Z"/>
  <path fill="#F69074" d="m318.807 287.884-.877 11.461 43.198-6.175 2.22-11.467-44.541 6.181Z"/>
  <path fill="#002346" d="M317.929 299.653a.288.288 0 0 1-.21-.085.309.309 0 0 1-.097-.251l.877-11.461a.314.314 0 0 1 .267-.285l44.542-6.18a.312.312 0 0 1 .268.091.318.318 0 0 1 .079.273l-2.215 11.467a.303.303 0 0 1-.262.245l-43.198 6.169h-.045l-.006.017Zm1.168-11.495-.832 10.829 42.6-6.084 2.096-10.829-43.864 6.084Z"/>
  <path fill="#F69074" d="M370.295 341.242c17.096 0 30.955-13.326 30.955-29.764s-13.859-29.763-30.955-29.763c-17.096 0-30.955 13.325-30.955 29.763 0 16.438 13.859 29.764 30.955 29.764Z"/>
  <path fill="#002346" d="M370.295 341.559c-17.248 0-31.279-13.494-31.279-30.088 0-16.593 14.031-30.088 31.279-30.088 17.248 0 31.28 13.495 31.28 30.088 0 16.594-14.032 30.088-31.28 30.088Zm0-59.532c-16.895 0-30.636 13.209-30.636 29.444s13.746 29.445 30.636 29.445 30.636-13.21 30.636-29.445-13.746-29.444-30.636-29.444Z"/>
  <path fill="#002346" d="M352.454 288.145a.438.438 0 0 1-.41-.285c-.063-.159-1.475-3.993-.615-13.25 0-.376-.188-10.441 4.607-11.843l.507-.148c4.39-1.298 9.88-2.905 21.838-1.19.216.045 4.533 1.054 4.214 8.835l.575 10.983c0 .153-.239 2.022-.974 2.945a.442.442 0 0 1-.689-.547 6.047 6.047 0 0 0 .792-2.427l-.576-10.948c.285-7.03-3.336-7.941-3.49-7.97-11.736-1.68-17.123-.102-21.434 1.168l-.507.148c-4.145 1.236-3.975 10.937-3.969 11.028-.865 9.109.524 12.869.535 12.908a.441.441 0 0 1-.392.599l-.012-.006Z"/>
  <path fill="#fff" d="m346.497 278.549-1.651-4.044a.895.895 0 0 1 .484-1.157l1.794-.729a.893.893 0 0 1 1.156.485l1.583 3.799-3.36 1.652-.006-.006Z"/>
  <path fill="#002346" d="m346.35 278.942-1.765-4.33a1.18 1.18 0 0 1 .637-1.526l1.794-.729a1.177 1.177 0 0 1 1.526.638l1.686 4.044-3.872 1.903h-.006Zm1.105-6.101a.66.66 0 0 0-.228.045l-1.794.729a.606.606 0 0 0-.324.787l1.531 3.765 2.848-1.396-1.481-3.554a.605.605 0 0 0-.558-.371l.006-.005Z"/>
  <path fill="#fff" d="M353.642 290.083a.87.87 0 0 1-.797-.507l-2.614-5.559a.881.881 0 1 1 1.595-.752l2.614 5.559a.881.881 0 0 1-.798 1.254v.005Z"/>
  <path fill="#002346" d="M353.636 290.369c-.45 0-.86-.263-1.048-.673l-2.614-5.559a1.15 1.15 0 0 1-.04-.889 1.165 1.165 0 0 1 2.153-.102l2.614 5.559a1.169 1.169 0 0 1-1.054 1.664h-.011Zm-2.608-7.32a.555.555 0 0 0-.251.057.613.613 0 0 0-.307.336.598.598 0 0 0 .022.455l2.614 5.56a.589.589 0 0 0 .535.342h.012a.6.6 0 0 0 .535-.849l-2.614-5.56a.599.599 0 0 0-.541-.341h-.005Z"/>
  <path fill="#F69074" d="m341.831 287.837 19.202-8.773a6.938 6.938 0 0 0-5.455-4.323 7.51 7.51 0 0 0-4.636.923l-5.05 2.13a7.662 7.662 0 0 0-4.738 7.713c0 .194.051.387.085.615l.592 1.721v-.006Z"/>
  <path fill="#002346" d="M341.831 288.163a.313.313 0 0 1-.125-.028.322.322 0 0 1-.177-.188l-.592-1.715-.045-.228c-.029-.165-.057-.324-.057-.495a7.935 7.935 0 0 1 4.937-8.004l5.051-2.13a7.857 7.857 0 0 1 4.8-.946 7.29 7.29 0 0 1 5.712 4.523.324.324 0 0 1-.166.41l-19.201 8.773a.342.342 0 0 1-.131.028h-.006Zm12.83-13.153a7.315 7.315 0 0 0-3.565.935l-5.085 2.147a7.322 7.322 0 0 0-4.544 7.388c0 .137.023.262.051.405l.034.188.461 1.333 18.598-8.499a6.624 6.624 0 0 0-5.085-3.845 7.27 7.27 0 0 0-.871-.052h.006Z"/>
  <path fill="#FBE493" d="M367.526 339.039c15.703 0 28.432-12.438 28.432-27.781 0-15.343-12.729-27.781-28.432-27.781s-28.432 12.438-28.432 27.781c0 15.343 12.729 27.781 28.432 27.781Z"/>
  <path fill="#002346" d="M367.525 339.346c-15.848 0-28.74-12.601-28.74-28.089 0-15.489 12.892-28.089 28.74-28.089 15.847 0 28.74 12.6 28.74 28.089 0 15.488-12.893 28.089-28.74 28.089Zm0-55.563c-15.506 0-28.125 12.327-28.125 27.474 0 15.146 12.619 27.473 28.125 27.473s28.125-12.327 28.125-27.473c0-15.147-12.619-27.474-28.125-27.474Z"/>
  <path fill="#fff" d="M368.141 336.563c13.96 0 25.277-11.055 25.277-24.693 0-13.638-11.317-24.694-25.277-24.694-13.961 0-25.278 11.056-25.278 24.694s11.317 24.693 25.278 24.693Z"/>
  <path fill="#002346" d="M368.14 336.848c-14.093 0-25.562-11.205-25.562-24.979s11.469-24.978 25.562-24.978c14.094 0 25.563 11.204 25.563 24.978 0 13.774-11.469 24.979-25.563 24.979Zm0-49.388c-13.78 0-24.992 10.949-24.992 24.409 0 13.461 11.212 24.409 24.992 24.409 13.781 0 24.993-10.948 24.993-24.409 0-13.46-11.212-24.409-24.993-24.409Z"/>
  <path fill="#002346" d="M368.184 312.139a2.204 2.204 0 1 0 0-4.407 2.204 2.204 0 0 0 0 4.407Z"/>
  <path fill="#002346" d="M361.03 323.163a.444.444 0 0 1-.381-.672v-.006l7.733-12.908a.417.417 0 0 1 .199-.171l15.101-6.63a.44.44 0 0 1 .359.803l-14.97 6.585-7.665 12.783a.434.434 0 0 1-.376.216Z"/>
  <path fill="#F69074" d="M379.674 295.379a.436.436 0 0 1-.342-.718l3.707-4.409a.435.435 0 0 1 .615-.057c.183.16.205.433.057.615l-3.707 4.409a.44.44 0 0 1-.336.16h.006Zm-9.411-3.632a.435.435 0 0 1-.439-.438v-5.976c0-.245.194-.438.439-.438s.438.193.438.438v5.981a.435.435 0 0 1-.438.439v-.006Zm-22.745 35.91a.434.434 0 0 1-.308-.741l4.322-4.5a.435.435 0 0 1 .615-.057.435.435 0 0 1 0 .672l-4.322 4.501a.442.442 0 0 1-.307.125Zm39.737 2.031a.436.436 0 0 1-.325-.148l-3.855-4.284a.456.456 0 0 1 .017-.638.456.456 0 0 1 .638.017l3.855 4.284a.436.436 0 0 1-.028.621.443.443 0 0 1-.302.114v.034Zm-.998-26.813a.446.446 0 0 1-.433-.456c0-.199.143-.376.342-.421l6.543-1.453a.439.439 0 0 1 .524.336.438.438 0 0 1-.336.524l-6.532 1.459-.096.011h-.012Zm7.939 12.344h-.08l-6.355-1.151a.445.445 0 0 1 .154-.871l6.36 1.156a.445.445 0 0 1 .353.513.44.44 0 0 1-.432.353Zm-46.727-2.642h-.08l-6.36-1.156a.44.44 0 0 1 .159-.866l6.332 1.145a.444.444 0 0 1-.074.877h.023Zm2.026-10.43a.433.433 0 0 1-.251-.08l-5.142-3.6a.432.432 0 0 1-.125-.598c0-.006.011-.011.011-.017a.445.445 0 0 1 .621-.114l5.153 3.6a.44.44 0 0 1-.256.803h-.006l-.005.006Zm8.551 34.248a.418.418 0 0 1-.199-.051.435.435 0 0 1-.216-.581c0-.012.011-.023.017-.035l2.642-5.286a.442.442 0 0 1 .615-.131.45.45 0 0 1 .177.53l-2.648 5.286a.433.433 0 0 1-.388.273v-.005Zm15.948.712a.439.439 0 0 1-.444-.433v-6.015a.448.448 0 0 1 .387-.496.452.452 0 0 1 .496.388v6.112a.435.435 0 0 1-.439.438v.006Zm-15.946-43.054a.443.443 0 0 1-.341-.159l-3.759-4.552a.44.44 0 0 1 .063-.615.432.432 0 0 1 .609.051s0 .006.006.012l3.758 4.551a.446.446 0 0 1-.062.615.415.415 0 0 1-.279.097h.005Z"/>
  <path fill="#002346" d="M379.678 295.383a.436.436 0 0 1-.342-.718l3.707-4.409a.435.435 0 0 1 .615-.057c.183.16.205.433.057.615l-3.707 4.409a.442.442 0 0 1-.336.16h.006Zm-9.415-3.636a.435.435 0 0 1-.439-.438v-5.976c0-.245.194-.438.439-.438s.438.193.438.438v5.981a.435.435 0 0 1-.438.439v-.006Zm-22.741 35.91a.434.434 0 0 1-.308-.741l4.322-4.5a.435.435 0 0 1 .615-.057.435.435 0 0 1 0 .672l-4.322 4.501a.444.444 0 0 1-.307.125Zm39.733 2.035a.436.436 0 0 1-.325-.148l-3.855-4.284a.456.456 0 0 1 .017-.638.455.455 0 0 1 .638.017l3.855 4.284a.436.436 0 0 1-.028.621.443.443 0 0 1-.302.114v.034Zm-.994-26.813a.446.446 0 0 1-.433-.456c0-.199.143-.376.342-.421l6.543-1.453a.439.439 0 0 1 .524.336.438.438 0 0 1-.336.524l-6.532 1.459-.097.011h-.011Zm7.938 12.344h-.079l-6.355-1.151a.445.445 0 0 1 .153-.871l6.361 1.156a.444.444 0 0 1 .353.513.44.44 0 0 1-.433.353Zm-46.73-2.642h-.08l-6.36-1.157a.439.439 0 0 1-.353-.512.438.438 0 0 1 .512-.353l6.332 1.145a.444.444 0 0 1-.074.877h.023Zm2.026-10.434a.433.433 0 0 1-.251-.08l-5.142-3.6a.432.432 0 0 1-.125-.598c0-.006.011-.011.011-.017a.445.445 0 0 1 .621-.114l5.153 3.6a.44.44 0 0 1-.256.803h-.006l-.005.006Zm8.555 34.248a.418.418 0 0 1-.199-.051.435.435 0 0 1-.216-.581c0-.012.011-.023.017-.035l2.642-5.286a.442.442 0 0 1 .615-.131.45.45 0 0 1 .176.53l-2.647 5.286a.433.433 0 0 1-.388.273v-.005Zm15.944.712a.439.439 0 0 1-.444-.433v-6.015a.448.448 0 0 1 .387-.496.452.452 0 0 1 .496.388v6.112a.435.435 0 0 1-.439.438v.006Zm-15.946-43.054a.443.443 0 0 1-.341-.159l-3.759-4.552a.44.44 0 0 1 .063-.615.432.432 0 0 1 .609.051s0 .006.006.012l3.758 4.551a.446.446 0 0 1-.062.615.415.415 0 0 1-.279.097h.005Z"/>
  <path fill="#fff" d="M381.849 285.677a.887.887 0 0 1-.797-1.253l2.005-4.323a.882.882 0 0 1 1.605.729v.011l-2.004 4.324a.878.878 0 0 1-.803.512h-.006Z"/>
  <path fill="#002346" d="M381.851 285.963h-.006a1.17 1.17 0 0 1-1.047-1.657l2.01-4.324c.131-.285.364-.501.655-.604a1.13 1.13 0 0 1 .831.012l.063.028c.58.268.837.957.569 1.544l-2.016 4.335c-.188.41-.603.678-1.059.678v-.012Zm2.01-6.095a.643.643 0 0 0-.205.034.605.605 0 0 0-.336.314l-2.01 4.323a.602.602 0 0 0 .541.849.595.595 0 0 0 .541-.348l2.01-4.323a.6.6 0 0 0-.279-.792.617.617 0 0 0-.262-.057Z"/>
  <path fill="#F69074" d="m374.797 275.976 18.922 9.359a6.936 6.936 0 0 0-.074-6.972 7.5 7.5 0 0 0-3.644-3.014l-6.6-2.705s-4.003-3.316-7.625 1.771l-.973 1.561h-.006Z"/>
  <path fill="#002346" d="M393.718 285.652a.319.319 0 0 1-.142-.034l-18.923-9.359a.32.32 0 0 1-.165-.199.338.338 0 0 1 .034-.257l.974-1.561c1.247-1.754 2.671-2.74 4.242-2.945 2.016-.262 3.548.855 3.821 1.066l6.56 2.688a7.88 7.88 0 0 1 3.793 3.139 7.265 7.265 0 0 1 .079 7.303.316.316 0 0 1-.279.159h.006Zm-18.467-9.809 18.33 9.069a6.617 6.617 0 0 0-.216-6.386 7.232 7.232 0 0 0-3.485-2.882l-6.606-2.706a.238.238 0 0 1-.079-.051c-.017-.012-1.492-1.208-3.377-.952-1.384.183-2.654 1.083-3.787 2.666l-.78 1.248v-.006Z"/>
  <path fill="#F2B3C1" d="M229.62 96.792c-4.539-11.672-17.677-17.453-29.344-12.912-11.666 4.54-17.443 17.684-12.904 29.356l6.969 17.916c4.54 11.672 17.678 17.453 29.344 12.913 11.667-4.541 17.444-17.684 12.904-29.356l-6.969-17.917Z"/>
  <path fill="#002346" d="M215.466 145.893a22.92 22.92 0 0 1-9.231-1.954c-5.615-2.466-9.925-6.978-12.152-12.691l-6.97-17.921c-2.221-5.714-2.09-11.957.382-17.568 2.465-5.617 6.975-9.929 12.687-12.156 11.799-4.591 25.124 1.27 29.713 13.073l6.97 17.921c4.59 11.797-1.27 25.133-13.068 29.724a22.878 22.878 0 0 1-8.331 1.578v-.006Zm-6.993-63.287c-2.694 0-5.433.49-8.092 1.527a22.236 22.236 0 0 0-12.368 11.854 22.222 22.222 0 0 0-.37 17.129l6.97 17.921a22.26 22.26 0 0 0 11.85 12.378 22.199 22.199 0 0 0 17.123.37c11.503-4.477 17.214-17.476 12.744-28.983l-6.97-17.92c-3.439-8.847-11.918-14.27-20.881-14.27l-.006-.006Z"/>
  <path fill="#002346" d="M236.444 101.864s-7.96-.666-11.935-6.636c0 0-11.081 16.297-20.967 1.076a.108.108 0 0 0-.148-.028.102.102 0 0 0-.046.085c.126 1.3-.079 4.842-6.041 4.842 0 0 8.109 18.046-3.855 17.528l-4.351.621c-.41-.598-.131-.085-.621-.621-4.094-4.568-.877-6.317-3.73-3.731-.489.444-.364 6.853-.62 7.456 0 0-3.183-4.608-5.746-10.509-3.997-9.217-.017-19.955 8.997-24.392l46.41-22.843s11.935-2.654 9.282 11.94c0 0 9.287-1.322 10.614 6.636-.006-.011 2.671 18.57-17.248 18.57l.005.006Z"/>
  <path fill="#002346" d="M253.805 73.603a13.893 13.893 0 0 0-10.296 3.543l-.814-1.02c1.338-1.127 2.17-2.882 2.728-4.545a22.312 22.312 0 0 0 1.002-5.565c.125 1.92 0 3.845-.359 5.73-.427 1.965-1.093 3.908-2.54 5.406l-.842-1.025a14.537 14.537 0 0 1 11.183-2.535h-.057l-.005.011Z"/>
  <path fill="#F69074" d="M248.309 49.734 206.774 97.22l-63.641-1.315 36.609-48.146 68.567 1.976Z"/>
  <path fill="#002346" d="M206.776 97.526h-.006l-63.641-1.316a.305.305 0 0 1-.273-.176.295.295 0 0 1 .034-.32l36.609-48.145a.335.335 0 0 1 .257-.12l68.566 1.977c.12 0 .228.074.273.188a.303.303 0 0 1-.051.325l-41.535 47.485a.297.297 0 0 1-.233.102Zm-63.026-1.92 62.889 1.3 41.005-46.882-67.752-1.954-36.148 47.536h.006Z"/>
  <path fill="#F2B3C1" d="M192.367 125.849c2.528-1.46 2.977-5.415 1.004-8.835-1.974-3.419-5.623-5.007-8.15-3.548-2.528 1.46-2.977 5.415-1.003 8.835 1.973 3.419 5.622 5.007 8.149 3.548Z"/>
  <path fill="#002346" d="M190.284 126.685c-.746 0-1.532-.171-2.318-.513-1.594-.695-3.018-2.016-3.997-3.725-.985-1.709-1.418-3.6-1.225-5.326.2-1.76 1.025-3.145 2.329-3.897 1.304-.752 2.916-.78 4.539-.068 1.594.695 3.018 2.017 3.997 3.725 2.05 3.549 1.555 7.691-1.104 9.223a4.419 4.419 0 0 1-2.221.581Zm-2.984-13.472c-.701 0-1.355.171-1.936.507-1.139.661-1.868 1.891-2.044 3.463-.183 1.607.227 3.373 1.15 4.973.922 1.601 2.249 2.837 3.73 3.486 1.452.633 2.881.621 4.026-.039 2.386-1.379 2.79-5.167.894-8.442-.923-1.601-2.25-2.837-3.73-3.487-.712-.307-1.418-.467-2.084-.467l-.006.006Zm3.379 106.856a.312.312 0 0 1-.296-.223l-12.528-44.027a.308.308 0 1 1 .593-.171l12.527 44.028a.305.305 0 0 1-.21.381c-.029.006-.057.012-.086.012Z"/>
  <path fill="#F69074" d="M159.18 168.153s10.324-3.543 17.117 4.489l-17.117-4.489Z"/>
  <path fill="#002346" d="M176.293 172.949a.294.294 0 0 1-.234-.108c-6.571-7.77-16.679-4.432-16.781-4.397a.308.308 0 0 1-.393-.194.305.305 0 0 1 .193-.393c.103-.034 10.603-3.52 17.454 4.58a.307.307 0 0 1-.234.507l-.005.005Zm56.245 9.991a.25.25 0 0 1-.125-.028c-.154-.068-.228-.251-.154-.41l1.72-3.874a4.32 4.32 0 0 1 2.711-2.392l12.727-3.862a.307.307 0 0 1 .387.205.308.308 0 0 1-.205.387l-12.727 3.862a3.717 3.717 0 0 0-2.323 2.057l-1.72 3.873a.311.311 0 0 1-.285.182h-.006Zm4.896 2.362a.346.346 0 0 1-.165-.045.311.311 0 0 1-.097-.427l1.919-3.071a6.708 6.708 0 0 1 3.411-2.745l8.405-3.008a.308.308 0 0 1 .205.581l-8.405 3.008a6.089 6.089 0 0 0-3.092 2.489l-1.919 3.07a.297.297 0 0 1-.262.143v.005Zm5.348 4.263a.308.308 0 0 1-.268-.461l1.287-2.273a5.516 5.516 0 0 1 2.306-2.205l5.888-2.996a.312.312 0 0 1 .416.137.305.305 0 0 1-.137.415l-5.888 2.997a4.924 4.924 0 0 0-2.05 1.959l-1.287 2.273a.298.298 0 0 1-.267.154Z"/>
  <path fill="#F2B3C1" d="m253.453 186.52-4.282 2.796-2.472 3.709"/>
  <path fill="#002346" d="m246.937 193.185-.472-.319 2.551-3.788 4.282-2.797.308.479-4.231 2.762-2.438 3.663Zm65.977-9.117h-33.353a.306.306 0 0 1-.307-.307c0-.171.137-.308.307-.308h33.353c.17 0 .307.137.307.308a.306.306 0 0 1-.307.307Zm12.993 12.77h-58.67a.306.306 0 0 1-.307-.308c0-.171.136-.307.307-.307h58.67c.171 0 .307.136.307.307a.306.306 0 0 1-.307.308Zm24.552-11.004h-9.351a.306.306 0 0 1-.307-.308c0-.171.136-.307.307-.307h9.351c.17 0 .307.136.307.307a.307.307 0 0 1-.307.308Zm.614 6.18h-11.816a.307.307 0 0 1-.308-.308c0-.171.137-.308.308-.308h11.816c.17 0 .307.137.307.308a.307.307 0 0 1-.307.308Zm.309 8.05H340.46a.307.307 0 1 1 0-.615h10.922c.171 0 .307.137.307.308a.305.305 0 0 1-.307.307Zm-67.624 76.677a.333.333 0 0 1-.187-.063l-17.294-12.976a.309.309 0 1 1 .37-.496l17.294 12.977a.308.308 0 0 1 .062.432.314.314 0 0 1-.245.126Zm0 2.468a.332.332 0 0 1-.187-.062l-17.294-12.977a.309.309 0 1 1 .37-.495l17.294 12.976a.31.31 0 0 1-.183.558Zm-.621 1.856a.339.339 0 0 1-.188-.063l-17.294-12.976a.31.31 0 0 1 .371-.496l17.294 12.977a.31.31 0 0 1-.183.558Zm30.882 9.268h-.04l-44.775-5.867a.31.31 0 1 1 .08-.616l44.775 5.868a.31.31 0 0 1 .268.347.313.313 0 0 1-.308.268Zm0 2.468h-.04l-44.775-5.868a.309.309 0 0 1-.268-.347.317.317 0 0 1 .348-.268l44.775 5.867a.31.31 0 0 1 .268.348.313.313 0 0 1-.308.268Zm0 2.472h-.04l-44.775-5.867a.31.31 0 0 1-.268-.348.317.317 0 0 1 .348-.267l44.775 5.867a.31.31 0 0 1 .268.348.313.313 0 0 1-.308.267Z"/>
  <path fill="#7CD295" d="M91.23 255.55s10.398-8.744 22.197-.233c0 0 7.409 5.764 2.472 10.709 0 0-5.216 3.571-12.898-2.472 0 0-8.166-6.671-11.77-8.004Z"/>
  <path fill="#002346" d="M111.727 267.326c-2.284 0-5.347-.763-8.901-3.554-.085-.069-8.177-6.659-11.69-7.958l-.445-.165.365-.308c.108-.091 10.7-8.784 22.538-.245.171.137 4.043 3.184 4.271 6.841.097 1.573-.495 3.014-1.771 4.284-.051.04-1.663 1.105-4.367 1.105Zm-19.942-11.848c3.775 1.657 11.07 7.599 11.389 7.861 7.436 5.844 12.516 2.489 12.567 2.455 1.116-1.122 1.657-2.421 1.566-3.822-.211-3.407-4.014-6.409-4.054-6.437-10.245-7.383-19.52-1.476-21.474-.057h.006Z"/>
  <path fill="#7CD295" d="M79.732 251.28s11.457-16.001 4.596-31.649c0 0-7.688-15.375 1.372-20.04 0 0 11.252-4.666 17.288 11.803 0 0 8.098 24.044-23.261 39.886h.005Z"/>
  <path fill="#002346" d="m78.857 252.036.655-.917c.114-.159 11.286-16.058 4.567-31.381-.074-.143-7.693-15.66 1.498-20.399.182-.074 3.986-1.612 8.416.33 3.958 1.738 7.072 5.646 9.265 11.627.023.068 2.027 6.186.137 14.161-1.743 7.348-7.244 17.835-23.535 26.072l-1.008.507h.005Zm10.495-52.782c-2.084 0-3.513.575-3.536.586-8.69 4.478-1.304 19.51-1.23 19.664 5.933 13.529-1.788 27.451-4.037 31.051 15.363-8.054 20.619-18.109 22.305-25.195 1.867-7.827-.097-13.819-.114-13.882-2.136-5.827-5.154-9.627-8.963-11.302a10.931 10.931 0 0 0-4.425-.922Z"/>
  <path fill="#7CD295" d="M50.608 205.163c-2.847 1.401-4.715 4.289-4.67 7.462.057 3.965 2.489 9.422 13.969 12.498 0 0 13.467 3.338 14.965 13.335 0 0 3.712-12.39-2.62-24.227-2.426-4.534-6.463-8.037-11.383-9.53-3.092-.94-6.776-1.259-10.261.462Z"/>
  <path fill="#002346" d="m74.786 239.721-.182-1.225c-1.458-9.701-14.63-13.079-14.76-13.107-11.611-3.11-14.122-8.653-14.18-12.76-.045-3.218 1.846-6.249 4.824-7.713 3.04-1.498 6.566-1.663 10.466-.478 4.909 1.486 9.009 4.921 11.549 9.666 6.315 11.798 2.676 24.312 2.642 24.438l-.353 1.185-.006-.006ZM56.03 204.204c-1.902 0-3.673.399-5.296 1.202-2.785 1.373-4.556 4.204-4.516 7.212.057 3.913 2.494 9.216 13.764 12.23.125.028 12.55 3.212 14.919 12.338.723-3.366 2.192-13.335-2.887-22.825-2.471-4.614-6.458-7.952-11.224-9.399-1.663-.507-3.257-.758-4.76-.758Z"/>
  <path fill="#7CD295" d="M49.967 246.322c.694 1.316 1.97 2.786 4.18 4.329 0 0 8.666 5.025 10.921 12.122 0 0-.216-11.575-6.805-20.359 0 0-.569-1.082-1.748-1.925-3.883-2.797-8.77 1.601-6.548 5.833Z"/>
  <path fill="#002346" d="m65.378 264.669-.576-1.817c-2.192-6.91-10.71-11.917-10.796-11.968-2.056-1.441-3.49-2.928-4.282-4.437-1.242-2.364-.342-4.683 1.099-5.936 1.708-1.487 4.009-1.584 5.854-.251 1.212.872 1.805 1.977 1.828 2.023 6.542 8.721 6.833 20.364 6.839 20.484l.034 1.902ZM53.92 239.884c-1.093 0-2.067.467-2.739 1.048-1.184 1.026-2.146 3.025-.973 5.264.751 1.43 2.13 2.854 4.088 4.232.308.177 7.449 4.375 10.358 10.573-.353-3.572-1.685-11.832-6.622-18.417-.029-.045-.581-1.071-1.686-1.868-.825-.592-1.657-.826-2.431-.826l.005-.006Z"/>
  <path fill="#fff" d="m60.457 273.715 1.458 28.692h24.338l1.645-28.419-27.441-.273Z"/>
  <path fill="#002346" d="M86.254 302.687H61.916a.28.28 0 0 1-.278-.262l-1.458-28.693c0-.074.023-.148.08-.205a.263.263 0 0 1 .204-.086l27.448.274a.29.29 0 0 1 .199.085c.051.057.08.131.074.205l-1.646 28.42a.276.276 0 0 1-.279.262h-.006Zm-24.076-.553h23.815l1.617-27.867L60.75 274l1.428 28.134Z"/>
  <path fill="#002346" d="M79.397 273.852h-.023a.275.275 0 0 1-.256-.296c.006-.114.95-11.438 8.735-16.713 4.613-3.122 10.66-3.543 17.972-1.242.148.046.228.2.182.348a.275.275 0 0 1-.347.182c-7.141-2.25-13.03-1.857-17.488 1.168-7.562 5.121-8.49 16.189-8.496 16.297a.278.278 0 0 1-.273.256h-.006Zm-4.229-.188a.279.279 0 0 1-.268-.205c-4.31-15.426 6.133-24.363 8.268-25.998a49.936 49.936 0 0 0 2.107-1.692c18.962-16.326 7.995-34.605 7.881-34.788a.277.277 0 1 1 .473-.29c.114.188 11.337 18.855-7.99 35.5a46.412 46.412 0 0 1-2.13 1.708c-2.089 1.595-12.288 10.328-8.068 25.412a.278.278 0 0 1-.268.353h-.005Z"/>
  <path fill="#002346" d="M73.199 273.867a.273.273 0 0 1-.234-.131c-6.708-10.812-1.708-24.586-.011-28.551.427-.996.729-1.834.945-2.626 4.71-16.975-9.606-27.274-9.754-27.371a.28.28 0 0 1-.069-.387.28.28 0 0 1 .388-.068c.148.102 14.782 10.618 9.965 27.975a21.27 21.27 0 0 1-.974 2.694c-1.668 3.902-6.594 17.459-.023 28.043a.278.278 0 0 1-.239.422h.006Zm-7.058-.172h-.011a.279.279 0 0 1-.268-.29c.73-18.029-9.845-25.201-9.948-25.269a.277.277 0 0 1-.08-.382.277.277 0 0 1 .382-.08c.108.074 10.939 7.4 10.199 25.754a.28.28 0 0 1-.28.267h.006Z"/>
</svg>
