<svg width="11" height="18" viewBox="0 0 11 18" fill="none" xmlns="http://www.w3.org/2000/svg">
<path fill-rule="evenodd" clip-rule="evenodd" d="M1.33482 5.95742C1.33482 3.53107 3.30176 1.56413 5.72811 1.56413C8.15445 1.56413 10.1214 3.53107 10.1214 5.95742C10.1214 7.4323 9.39462 8.73744 8.27965 9.53423C8.27602 9.53673 8.27243 9.53929 8.26889 9.5419C7.5516 10.0513 6.67483 10.3507 5.72811 10.3507C4.78549 10.3507 3.9122 10.0538 3.19665 9.5485C3.18745 9.54131 3.17791 9.53452 3.16805 9.52814C2.0579 8.73079 1.33482 7.42855 1.33482 5.95742ZM2.52339 10.033C1.31781 9.08368 0.543701 7.61095 0.543701 5.95742C0.543701 3.09415 2.86484 0.77301 5.72811 0.77301C8.59138 0.77301 10.9125 3.09415 10.9125 5.95742C10.9125 7.61069 10.1386 9.08322 8.93338 10.0325L10.1093 17.0663C10.1347 17.2185 10.0693 17.3715 9.94183 17.4584C9.81431 17.5453 9.64792 17.5501 9.51562 17.4707L5.72842 15.1984L1.94123 17.4707C1.80892 17.5501 1.64253 17.5453 1.51502 17.4584C1.3875 17.3715 1.32213 17.2185 1.34757 17.0663L2.52339 10.033ZM3.24574 10.51L2.2692 16.3513L5.52491 14.3979C5.65018 14.3227 5.80667 14.3227 5.93194 14.3979L9.18765 16.3513L8.21105 10.5097C7.47369 10.9127 6.62765 11.1418 5.72811 11.1418C4.8288 11.1418 3.98297 10.9128 3.24574 10.51Z" fill="#121212"/>
</svg>
