<svg width="20" height="20" viewBox="0 0 20 20" fill="none" xmlns="http://www.w3.org/2000/svg">
<path d="M16.1131 16.402C16.5365 16.402 16.9425 16.2339 17.2419 15.9345C17.5412 15.6351 17.7094 15.2291 17.7094 14.8058V6.82435C17.7094 6.40099 17.5412 5.99497 17.2419 5.69561C16.9425 5.39625 16.5365 5.22807 16.1131 5.22807H9.80781C9.54084 5.23069 9.27748 5.16631 9.04183 5.04081C8.80618 4.91532 8.60578 4.73273 8.45895 4.50975L7.81245 3.55198C7.66711 3.33127 7.46923 3.15009 7.23659 3.02472C7.00396 2.89935 6.74383 2.83369 6.47956 2.83365H3.34286C2.9195 2.83365 2.51348 3.00183 2.21412 3.30119C1.91476 3.60055 1.74658 4.00657 1.74658 4.42993V14.8058C1.74658 15.2291 1.91476 15.6351 2.21412 15.9345C2.51348 16.2339 2.9195 16.402 3.34286 16.402H16.1131Z" stroke="#121212" stroke-width="0.791118" stroke-linecap="round" stroke-linejoin="round"/>
</svg>
