<svg width="24" height="24" viewBox="0 0 24 24" fill="none" xmlns="http://www.w3.org/2000/svg">
<path d="M9.51835 4.27259C9.60505 3.75238 10.0551 3.37109 10.5825 3.37109H13.0701C13.5975 3.37109 14.0476 3.75238 14.1343 4.27259L14.339 5.50109C14.3988 5.8598 14.6385 6.15859 14.9567 6.3347C15.0278 6.37408 15.0981 6.41475 15.1676 6.45669C15.4793 6.64491 15.8584 6.70343 16.1994 6.57569L17.3664 6.13851C17.8602 5.95349 18.4155 6.15264 18.6792 6.60937L19.9229 8.76367C20.1866 9.2204 20.0815 9.80083 19.6743 10.136L18.7112 10.9289C18.4307 11.1598 18.2916 11.5164 18.2983 11.8797C18.2991 11.9204 18.2995 11.9611 18.2995 12.002C18.2995 12.0428 18.2991 12.0835 18.2983 12.1242C18.2916 12.4875 18.4307 12.844 18.7112 13.075L19.6743 13.8679C20.0815 14.2031 20.1866 14.7835 19.9229 15.2402L18.6792 17.3945C18.4155 17.8513 17.8602 18.0504 17.3664 17.8654L16.1994 17.4282C15.8584 17.3005 15.4793 17.359 15.1676 17.5472C15.0981 17.5892 15.0278 17.6298 14.9567 17.6692C14.6385 17.8453 14.3988 18.1441 14.339 18.5028L14.1343 19.7313C14.0476 20.2515 13.5975 20.6328 13.0701 20.6328H10.5825C10.0551 20.6328 9.60505 20.2515 9.51835 19.7313L9.3136 18.5028C9.25382 18.1441 9.0141 17.8453 8.69594 17.6692C8.6248 17.6298 8.55449 17.5892 8.48503 17.5472C8.17333 17.359 7.79421 17.3005 7.45323 17.4282L6.28627 17.8654C5.79241 18.0504 5.23716 17.8513 4.97347 17.3945L3.72968 15.2402C3.46599 14.7835 3.57114 14.2031 3.97831 13.8679L4.94147 13.075C5.22198 12.8441 5.36103 12.4875 5.3543 12.1242C5.35355 12.0835 5.35317 12.0428 5.35317 12.002C5.35317 11.9611 5.35355 11.9204 5.3543 11.8797C5.36103 11.5165 5.22198 11.1599 4.94147 10.9289L3.97831 10.136C3.57114 9.80084 3.46599 9.22041 3.72968 8.76368L4.97347 6.60938C5.23716 6.15265 5.79241 5.9535 6.28627 6.13852L7.45322 6.5757C7.7942 6.70344 8.17331 6.64492 8.48502 6.4567C8.55448 6.41476 8.6248 6.37408 8.69594 6.3347C9.0141 6.15859 9.25382 5.8598 9.3136 5.50109L9.51835 4.27259Z" stroke="#0F172A" stroke-width="1.43848" stroke-linecap="round" stroke-linejoin="round"/>
<path d="M14.703 12.0019C14.703 13.5908 13.415 14.8788 11.8261 14.8788C10.2372 14.8788 8.94914 13.5908 8.94914 12.0019C8.94914 10.413 10.2372 9.12492 11.8261 9.12492C13.415 9.12492 14.703 10.413 14.703 12.0019Z" stroke="#0F172A" stroke-width="1.43848" stroke-linecap="round" stroke-linejoin="round"/>
</svg>
