<svg width="20" height="20" viewBox="0 0 20 20" fill="none" xmlns="http://www.w3.org/2000/svg">
<path fill-rule="evenodd" clip-rule="evenodd" d="M2.94026 4.6959C2.94026 3.59195 3.83519 2.69703 4.93913 2.69703C6.04307 2.69703 6.93799 3.59195 6.93799 4.6959C6.93799 5.79984 6.04307 6.69476 4.93913 6.69476C3.83519 6.69476 2.94026 5.79984 2.94026 4.6959ZM4.93913 1.90591C3.39826 1.90591 2.14915 3.15503 2.14915 4.6959C2.14915 6.23676 3.39826 7.48588 4.93913 7.48588C6.47999 7.48588 7.72911 6.23676 7.72911 4.6959C7.72911 3.15503 6.47999 1.90591 4.93913 1.90591ZM12.9204 5.96928C11.8605 5.96928 11.0013 6.82846 11.0013 7.88833C11.0013 8.94819 11.8605 9.80738 12.9204 9.80738C13.3821 9.80738 13.8057 9.64431 14.1369 9.37262L14.31 9.21188C14.638 8.86755 14.8394 8.40146 14.8394 7.88833C14.8394 6.82846 13.9802 5.96928 12.9204 5.96928ZM12.4479 10.5575C12.5689 10.5787 12.6927 10.592 12.8187 10.5966L12.5083 10.8849C12.4973 10.7738 12.477 10.6643 12.4479 10.5575ZM10.2102 7.88833C10.2102 8.3196 10.3109 8.72735 10.4902 9.08932H8.13169C7.58066 9.08932 7.0554 9.27121 6.71866 9.69934L2.54976 13.7193L2.02634 13.1959C1.87186 13.0414 1.62141 13.0414 1.46693 13.1959C1.31246 13.3504 1.31246 13.6008 1.46693 13.7553L2.26178 14.5502L2.26846 14.5569L6.25578 18.5442C6.41025 18.6986 6.66071 18.6986 6.81518 18.5442C6.96966 18.3897 6.96966 18.1392 6.81518 17.9848L6.31596 17.4855L7.27488 16.6465C7.29558 16.6284 7.31434 16.6082 7.33085 16.5861C7.47406 16.3952 7.73654 16.2655 8.1318 16.2655H11.3244C12.294 16.2655 13.2016 15.913 13.8448 15.1863L17.5023 11.6878L17.5033 11.6869C17.8869 11.3239 18.1108 10.8234 18.1257 10.2954C18.1407 9.7669 17.9451 9.25415 17.582 8.86991C17.2188 8.48566 16.718 8.26141 16.1895 8.24647C15.9874 8.24076 15.7876 8.26583 15.5965 8.31928C15.6189 8.17893 15.6305 8.03499 15.6305 7.88833C15.6305 6.39154 14.4172 5.17816 12.9204 5.17816C11.4236 5.17816 10.2102 6.39154 10.2102 7.88833ZM14.8647 9.77635C14.7993 9.84365 14.7305 9.90757 14.6585 9.96782L11.9527 12.4804C11.9378 12.4942 11.9222 12.5066 11.9059 12.5177C11.5353 12.8736 11.041 13.073 10.5261 13.073H8.92983C8.71137 13.073 8.53428 12.8959 8.53428 12.6774C8.53428 12.459 8.71137 12.2819 8.92983 12.2819H10.5261C10.8446 12.2819 11.15 12.1554 11.3752 11.9302C11.6003 11.705 11.7268 11.3996 11.7268 11.0812C11.7268 10.7627 11.6003 10.4573 11.3752 10.2321C11.15 10.0069 10.8446 9.88044 10.5261 9.88044H8.13169C7.73644 9.88044 7.47396 10.0101 7.33074 10.2011C7.31807 10.218 7.30407 10.2338 7.28887 10.2485L3.10926 14.2788L5.75532 16.9249L6.7252 16.0762C7.06218 15.6539 7.58427 15.4744 8.1318 15.4744H11.3244C12.1046 15.4744 12.788 15.1927 13.2615 14.6517C13.2692 14.6429 13.2773 14.6344 13.2857 14.6263L16.9572 11.1145L16.9589 11.1128C17.1907 10.8938 17.3259 10.5917 17.3349 10.273C17.3439 9.95428 17.226 9.64503 17.007 9.41328C16.788 9.18153 16.4859 9.04628 16.1671 9.03727C15.8484 9.02826 15.5392 9.14623 15.3074 9.36524L15.3049 9.36762L15.3049 9.36761L14.8647 9.77635Z" fill="#121212"/>
</svg>
