<svg xmlns="http://www.w3.org/2000/svg" width="374" height="269" fill="none" viewBox="0 0 374 269">
  <g clip-path="url(#a)" opacity=".8">
    <path fill="#F2F2F2" d="M179.545 49.5h-59.654a5.133 5.133 0 0 0-5.128 5.128v132.581l-.683.209-14.635 4.481a2.74 2.74 0 0 1-3.414-1.815L52.5 47.897a2.735 2.735 0 0 1 1.815-3.415l22.551-6.905 65.376-20.011 22.551-6.905a2.736 2.736 0 0 1 2.91.872c.229.277.4.596.505.94l11.127 36.344.209.683Z"/>
    <path fill="#3F3D56" d="M192.562 48.817 179.151 5.014a5.798 5.798 0 0 0-2.829-3.432 5.81 5.81 0 0 0-4.428-.424l-31.705 9.705-65.373 20.014-31.705 9.709a5.816 5.816 0 0 0-3.856 7.257l45.833 149.7a5.818 5.818 0 0 0 5.559 4.112 5.722 5.722 0 0 0 1.699-.256l21.734-6.652.683-.212v-.715l-.683.209-21.936 6.717a5.132 5.132 0 0 1-6.403-3.401L39.911 47.641a5.12 5.12 0 0 1 3.402-6.402l31.705-9.709 65.373-20.01 31.705-9.709a5.13 5.13 0 0 1 6.403 3.401l13.348 43.605.212.684h.711l-.208-.684Z"/>
    <path fill="#3E68FC" d="M80.937 44.594a3.082 3.082 0 0 1-2.944-2.176L73.59 28.036a3.077 3.077 0 0 1 2.041-3.842L135.773 5.78a3.081 3.081 0 0 1 3.843 2.041l4.403 14.382a3.078 3.078 0 0 1-2.041 3.842L81.835 44.46a3.07 3.07 0 0 1-.898.135Z"/>
    <path fill="#3E68FC" d="M104.001 16.267a6.837 6.837 0 1 0 0-13.673 6.837 6.837 0 0 0 0 13.673Z"/>
    <path fill="#fff" d="M104.001 13.76a4.329 4.329 0 1 0 0-8.658 4.329 4.329 0 0 0 0 8.658Z"/>
    <path fill="#E6E6E6" d="M245.003 199.908H129.462a2.908 2.908 0 0 1-2.905-2.905V58.559a2.908 2.908 0 0 1 2.905-2.906h115.541a2.911 2.911 0 0 1 2.906 2.906v138.444a2.912 2.912 0 0 1-2.906 2.905Z"/>
    <path fill="#3F3D56" d="M191.847 48.817h-71.956a5.818 5.818 0 0 0-5.812 5.81V194.03l.684-.209V54.628a5.132 5.132 0 0 1 5.128-5.128h72.168l-.212-.683Zm62.727 0H119.891a5.818 5.818 0 0 0-5.812 5.81V211.19a5.823 5.823 0 0 0 5.812 5.811h134.683a5.82 5.82 0 0 0 5.811-5.811V54.628a5.82 5.82 0 0 0-5.811-5.811Zm5.128 162.372a5.132 5.132 0 0 1-5.128 5.127H119.891a5.13 5.13 0 0 1-5.128-5.127V54.628a5.132 5.132 0 0 1 5.128-5.128h134.683a5.134 5.134 0 0 1 5.128 5.128v156.561Z"/>
    <path fill="#3E68FC" d="M218.681 63.857h-62.898a3.08 3.08 0 0 1-3.076-3.076V45.74a3.08 3.08 0 0 1 3.076-3.077h62.898a3.081 3.081 0 0 1 3.077 3.076v15.04a3.083 3.083 0 0 1-3.077 3.077Z"/>
    <path fill="#3E68FC" d="M187.232 43.69a6.837 6.837 0 1 0 0-13.675 6.837 6.837 0 0 0 0 13.674Z"/>
    <path fill="#fff" d="M187.233 41.017a4.165 4.165 0 1 0-.001-8.33 4.165 4.165 0 0 0 .001 8.33Z"/>
  </g>
  <path fill="#000" fill-opacity=".6" d="M7.952 262H1.52v-11.424h6.432v1.472H3.248v3.264h4.416v1.456H3.248v3.744h4.704V262Zm11.946-8.784c.97 0 1.702.251 2.192.752.49.501.736 1.307.736 2.416V262H21.13v-5.392c0-.661-.133-1.157-.4-1.488-.256-.341-.661-.512-1.216-.512-.768 0-1.317.24-1.648.72-.33.469-.496 1.152-.496 2.048V262h-1.68v-5.392c0-.437-.064-.805-.192-1.104a1.35 1.35 0 0 0-.528-.672c-.234-.149-.538-.224-.912-.224-.533 0-.954.117-1.264.352-.31.235-.533.581-.672 1.04-.128.448-.192.997-.192 1.648V262h-1.696v-8.624h1.344l.24 1.152h.096c.182-.299.4-.544.656-.736a2.94 2.94 0 0 1 .88-.432c.32-.096.65-.144.992-.144.65 0 1.2.117 1.648.352.448.224.774.571.976 1.04h.128c.278-.48.662-.832 1.152-1.056a3.694 3.694 0 0 1 1.552-.336Zm9.828 0c1.034 0 1.866.373 2.496 1.12.64.747.96 1.861.96 3.344 0 .971-.144 1.792-.432 2.464-.288.672-.694 1.179-1.216 1.52-.523.331-1.13.496-1.824.496-.438 0-.822-.053-1.152-.16a3.035 3.035 0 0 1-.848-.448 4.545 4.545 0 0 1-.592-.608h-.112c.032.192.058.421.08.688.021.256.032.485.032.688v3.52h-1.696v-12.464h1.376l.24 1.152h.08a3.89 3.89 0 0 1 .608-.656 2.61 2.61 0 0 1 .848-.48c.33-.117.714-.176 1.152-.176Zm-.4 1.392c-.534 0-.96.107-1.28.32-.32.203-.555.512-.704.928-.139.405-.214.923-.224 1.552v.256c0 .661.07 1.227.208 1.696.138.459.368.811.688 1.056.33.235.778.352 1.344.352.48 0 .87-.128 1.168-.384.31-.267.538-.635.688-1.104.15-.469.224-1.013.224-1.632 0-.939-.17-1.68-.512-2.224-.342-.544-.875-.816-1.6-.816Zm9.122 6.176c.224 0 .453-.021.688-.064.234-.043.437-.091.608-.144v1.28a2.946 2.946 0 0 1-.736.208c-.31.064-.619.096-.928.096-.47 0-.902-.08-1.296-.24a1.932 1.932 0 0 1-.928-.832c-.235-.395-.352-.944-.352-1.648v-4.768h-1.2v-.768l1.264-.64.592-1.824h1.04v1.936h2.464v1.296H37.2v4.736c0 .469.112.816.336 1.04.234.224.538.336.912.336Zm1.709-7.408h1.824l1.792 4.896c.096.245.181.485.256.72a8.6 8.6 0 0 1 .192.704c.064.224.112.448.144.672h.064a8.76 8.76 0 0 1 .256-.976c.117-.384.24-.763.368-1.136l1.696-4.88h1.824l-3.696 9.792a5.432 5.432 0 0 1-.752 1.424 3.059 3.059 0 0 1-1.072.928c-.406.213-.886.32-1.44.32a4.25 4.25 0 0 1-.688-.048 4.328 4.328 0 0 1-.496-.08v-1.344c.117.021.256.043.416.064.17.021.346.032.528.032.33 0 .613-.064.848-.192.245-.128.448-.309.608-.544a3.63 3.63 0 0 0 .432-.8l.352-.928-3.456-8.624Zm11.221 5.232h-1.2l-.4-8.032h2l-.4 8.032Zm-1.712 2.448c0-.416.107-.709.32-.88.214-.171.475-.256.784-.256.299 0 .555.085.768.256.214.171.32.464.32.88s-.106.715-.32.896c-.213.181-.47.272-.768.272-.31 0-.57-.091-.784-.272-.213-.181-.32-.48-.32-.896Zm13.859-9.152c-.565 0-1.072.101-1.52.304-.448.192-.832.48-1.152.864a4.17 4.17 0 0 0-.72 1.392 6.516 6.516 0 0 0-.24 1.84c0 .896.133 1.675.4 2.336.267.651.667 1.152 1.2 1.504.533.352 1.205.528 2.016.528.49 0 .96-.043 1.408-.128.459-.096.923-.219 1.392-.368v1.488a6.902 6.902 0 0 1-1.376.368 9.243 9.243 0 0 1-1.632.128c-1.163 0-2.133-.24-2.912-.72-.768-.48-1.344-1.163-1.728-2.048-.384-.885-.576-1.92-.576-3.104 0-.864.117-1.653.352-2.368a5.451 5.451 0 0 1 1.056-1.872 4.5 4.5 0 0 1 1.696-1.2c.683-.288 1.467-.432 2.352-.432a7.52 7.52 0 0 1 1.696.192 6.22 6.22 0 0 1 1.504.512l-.64 1.44a8.966 8.966 0 0 0-1.216-.448 4.364 4.364 0 0 0-1.36-.208Zm9.309 1.312c.15 0 .315.011.496.032.181.011.33.027.448.048l-.176 1.584a3.159 3.159 0 0 0-.416-.08 3.46 3.46 0 0 0-.448-.032c-.32 0-.63.064-.928.192a2.35 2.35 0 0 0-.784.528 2.43 2.43 0 0 0-.56.832 3.131 3.131 0 0 0-.192 1.136V262h-1.696v-8.624h1.344l.224 1.536h.064c.181-.309.4-.592.656-.848s.55-.459.88-.608c.33-.16.693-.24 1.088-.24Zm5.62 0c.758 0 1.408.16 1.952.48.544.309.96.757 1.248 1.344.299.587.448 1.28.448 2.08v.928H76.31c.022.885.251 1.563.688 2.032.448.469 1.072.704 1.872.704.555 0 1.046-.048 1.472-.144a8.055 8.055 0 0 0 1.344-.464v1.408a6.518 6.518 0 0 1-1.312.432 7.41 7.41 0 0 1-1.568.144c-.832 0-1.568-.165-2.208-.496a3.571 3.571 0 0 1-1.504-1.472c-.352-.661-.528-1.472-.528-2.432 0-.971.16-1.792.48-2.464.331-.672.784-1.184 1.36-1.536.587-.363 1.27-.544 2.048-.544Zm0 1.312c-.608 0-1.098.197-1.472.592-.362.395-.576.955-.64 1.68h4.064a3.12 3.12 0 0 0-.208-1.184 1.708 1.708 0 0 0-.64-.8c-.288-.192-.656-.288-1.104-.288Zm9.109-1.312c1.088 0 1.898.24 2.432.72.533.469.8 1.211.8 2.224V262h-1.2l-.336-1.2h-.064a4.374 4.374 0 0 1-.768.768 2.522 2.522 0 0 1-.896.448c-.331.096-.736.144-1.216.144-.512 0-.976-.091-1.392-.272a2.213 2.213 0 0 1-.96-.864c-.235-.395-.352-.885-.352-1.472 0-.875.33-1.541.992-2 .672-.459 1.69-.709 3.056-.752l1.472-.048v-.48c0-.64-.144-1.088-.432-1.344-.288-.256-.694-.384-1.216-.384-.448 0-.875.064-1.28.192-.406.128-.79.283-1.152.464l-.544-1.232a6.68 6.68 0 0 1 1.392-.528 6.156 6.156 0 0 1 1.664-.224Zm.4 4.672c-.982.043-1.664.208-2.048.496-.374.277-.56.672-.56 1.184 0 .448.133.773.4.976.277.203.624.304 1.04.304.672 0 1.226-.187 1.664-.56.437-.373.656-.933.656-1.68v-.752l-1.152.032Zm8.547 2.896c.224 0 .453-.021.688-.064.235-.043.438-.091.608-.144v1.28a2.946 2.946 0 0 1-.736.208 4.57 4.57 0 0 1-.928.096c-.47 0-.901-.08-1.296-.24-.384-.16-.693-.437-.928-.832-.235-.395-.352-.944-.352-1.648v-4.768h-1.2v-.768l1.264-.64.592-1.824h1.04v1.936h2.464v1.296h-2.464v4.736c0 .469.112.816.336 1.04.235.224.539.336.912.336Zm6.413-7.568c.757 0 1.408.16 1.952.48.544.309.96.757 1.248 1.344.299.587.448 1.28.448 2.08v.928h-5.792c.021.885.251 1.563.688 2.032.448.469 1.072.704 1.872.704.555 0 1.045-.048 1.472-.144a8.074 8.074 0 0 0 1.344-.464v1.408a6.524 6.524 0 0 1-1.312.432c-.437.096-.96.144-1.568.144-.832 0-1.568-.165-2.208-.496a3.572 3.572 0 0 1-1.504-1.472c-.352-.661-.528-1.472-.528-2.432 0-.971.16-1.792.48-2.464.33-.672.784-1.184 1.36-1.536.587-.363 1.269-.544 2.048-.544Zm0 1.312c-.608 0-1.099.197-1.472.592-.363.395-.576.955-.64 1.68h4.064a3.12 3.12 0 0 0-.208-1.184 1.71 1.71 0 0 0-.64-.8c-.288-.192-.656-.288-1.104-.288Zm8.724 7.632c-1.034 0-1.872-.373-2.512-1.12-.629-.747-.944-1.856-.944-3.328 0-1.483.32-2.603.96-3.36.64-.757 1.483-1.136 2.528-1.136.438 0 .816.059 1.136.176.331.107.614.256.848.448.246.192.454.405.624.64h.096a27.327 27.327 0 0 1-.08-.64 7.04 7.04 0 0 1-.048-.768v-3.232h1.696V262h-1.328l-.288-1.152h-.08a2.79 2.79 0 0 1-1.456 1.136c-.33.117-.714.176-1.152.176Zm.4-1.392c.832 0 1.419-.229 1.76-.688.342-.469.512-1.168.512-2.096v-.256c0-1.013-.165-1.787-.496-2.32-.32-.533-.917-.8-1.792-.8-.693 0-1.216.283-1.568.848-.352.555-.528 1.317-.528 2.288 0 .971.176 1.717.528 2.24.352.523.88.784 1.584.784Zm15.679-4.912h4.128v5.696c-.608.203-1.232.352-1.872.448-.63.107-1.35.16-2.16.16-1.163 0-2.15-.235-2.96-.704-.8-.469-1.414-1.141-1.84-2.016-.416-.875-.624-1.925-.624-3.152 0-1.195.234-2.229.704-3.104a4.928 4.928 0 0 1 2.016-2.032c.885-.491 1.957-.736 3.216-.736.629 0 1.232.064 1.808.192a8.021 8.021 0 0 1 1.6.496l-.624 1.44a7.202 7.202 0 0 0-1.328-.448 5.878 5.878 0 0 0-1.52-.192c-.843 0-1.574.181-2.192.544a3.534 3.534 0 0 0-1.408 1.52c-.32.651-.48 1.429-.48 2.336 0 .853.133 1.611.4 2.272a3.242 3.242 0 0 0 1.264 1.552c.576.373 1.328.56 2.256.56.309 0 .581-.011.816-.032.234-.032.448-.064.64-.096.202-.043.394-.08.576-.112v-3.104h-2.416v-1.488Zm14.265 1.824c0 .715-.096 1.349-.288 1.904a3.976 3.976 0 0 1-.816 1.408 3.487 3.487 0 0 1-1.28.88c-.502.192-1.067.288-1.696.288a4.35 4.35 0 0 1-1.6-.288 3.66 3.66 0 0 1-1.28-.88 4.161 4.161 0 0 1-.832-1.408c-.203-.555-.304-1.195-.304-1.92 0-.949.16-1.755.48-2.416.33-.661.8-1.163 1.408-1.504.618-.352 1.344-.528 2.176-.528.789 0 1.482.176 2.08.528.608.341 1.082.843 1.424 1.504.352.661.528 1.472.528 2.432Zm-6.352 0c0 .64.08 1.195.24 1.664.16.459.41.811.752 1.056.341.245.778.368 1.312.368.533 0 .97-.123 1.312-.368.341-.245.592-.597.752-1.056.16-.469.24-1.024.24-1.664 0-.661-.086-1.216-.256-1.664-.16-.448-.411-.789-.752-1.024-.331-.245-.768-.368-1.312-.368-.8 0-1.382.267-1.744.8-.363.533-.544 1.285-.544 2.256Zm10.125 4.32-3.264-8.624h1.792l1.792 5.04c.075.213.149.453.224.72.085.267.16.523.224.768s.107.459.128.64h.064c.032-.181.08-.395.144-.64.075-.256.155-.512.24-.768.085-.267.16-.507.224-.72l1.792-5.04h1.792l-3.28 8.624h-1.872Zm9.878-8.784c.757 0 1.408.16 1.952.48.544.309.96.757 1.248 1.344.299.587.448 1.28.448 2.08v.928h-5.792c.021.885.251 1.563.688 2.032.448.469 1.072.704 1.872.704.555 0 1.045-.048 1.472-.144a8.074 8.074 0 0 0 1.344-.464v1.408a6.524 6.524 0 0 1-1.312.432c-.437.096-.96.144-1.568.144-.832 0-1.568-.165-2.208-.496a3.573 3.573 0 0 1-1.504-1.472c-.352-.661-.528-1.472-.528-2.432 0-.971.16-1.792.48-2.464.331-.672.784-1.184 1.36-1.536.587-.363 1.269-.544 2.048-.544Zm0 1.312c-.608 0-1.099.197-1.472.592-.363.395-.576.955-.64 1.68h4.064a3.12 3.12 0 0 0-.208-1.184 1.71 1.71 0 0 0-.64-.8c-.288-.192-.656-.288-1.104-.288Zm10.02-1.312c.149 0 .315.011.496.032.181.011.331.027.448.048l-.176 1.584a3.149 3.149 0 0 0-.416-.08 3.456 3.456 0 0 0-.448-.032c-.32 0-.629.064-.928.192a2.36 2.36 0 0 0-.784.528 2.43 2.43 0 0 0-.56.832 3.131 3.131 0 0 0-.192 1.136V262h-1.696v-8.624h1.344l.224 1.536h.064c.181-.309.4-.592.656-.848s.549-.459.88-.608c.331-.16.693-.24 1.088-.24Zm6.909 0c1.003 0 1.771.251 2.304.752.533.501.8 1.307.8 2.416V262h-1.68v-5.376c0-.672-.144-1.173-.432-1.504-.277-.341-.725-.512-1.344-.512-.875 0-1.483.261-1.824.784-.331.523-.496 1.275-.496 2.256V262h-1.696v-8.624h1.344l.24 1.152h.096c.192-.299.427-.544.704-.736.277-.192.587-.336.928-.432a3.878 3.878 0 0 1 1.056-.144Zm9.054 0c1.088 0 1.899.24 2.432.72.533.469.8 1.211.8 2.224V262h-1.2l-.336-1.2h-.064a4.354 4.354 0 0 1-.768.768 2.526 2.526 0 0 1-.896.448c-.331.096-.736.144-1.216.144-.512 0-.976-.091-1.392-.272a2.216 2.216 0 0 1-.96-.864c-.235-.395-.352-.885-.352-1.472 0-.875.331-1.541.992-2 .672-.459 1.691-.709 3.056-.752l1.472-.048v-.48c0-.64-.144-1.088-.432-1.344-.288-.256-.693-.384-1.216-.384-.448 0-.875.064-1.28.192a7.939 7.939 0 0 0-1.152.464l-.544-1.232a6.663 6.663 0 0 1 1.392-.528 6.154 6.154 0 0 1 1.664-.224Zm.4 4.672c-.981.043-1.664.208-2.048.496-.373.277-.56.672-.56 1.184 0 .448.133.773.4.976.277.203.624.304 1.04.304.672 0 1.227-.187 1.664-.56.437-.373.656-.933.656-1.68v-.752l-1.152.032Zm9.812-4.672c1.002 0 1.77.251 2.304.752.533.501.8 1.307.8 2.416V262h-1.68v-5.376c0-.672-.144-1.173-.432-1.504-.278-.341-.726-.512-1.344-.512-.875 0-1.483.261-1.824.784-.331.523-.496 1.275-.496 2.256V262h-1.696v-8.624h1.344l.24 1.152h.096c.192-.299.426-.544.704-.736.277-.192.586-.336.928-.432a3.878 3.878 0 0 1 1.056-.144Zm9.182 8.944c-.79 0-1.483-.155-2.08-.464-.598-.309-1.062-.789-1.392-1.44-.331-.661-.496-1.499-.496-2.512 0-1.067.176-1.931.528-2.592.362-.661.848-1.147 1.456-1.456.618-.32 1.322-.48 2.112-.48.48 0 .928.053 1.344.16.426.096.778.208 1.056.336l-.512 1.376a7.83 7.83 0 0 0-.96-.304 3.801 3.801 0 0 0-.944-.128c-.534 0-.976.117-1.328.352-.342.224-.598.565-.768 1.024-.16.448-.24 1.013-.24 1.696 0 .651.085 1.2.256 1.648.17.448.421.789.752 1.024.341.224.762.336 1.264.336.48 0 .901-.053 1.264-.16a5.436 5.436 0 0 0 1.024-.416v1.472c-.31.181-.646.315-1.008.4a5.918 5.918 0 0 1-1.328.128Zm7.764-8.944c.757 0 1.408.16 1.952.48.544.309.96.757 1.248 1.344.298.587.448 1.28.448 2.08v.928h-5.792c.021.885.25 1.563.688 2.032.448.469 1.072.704 1.872.704.554 0 1.045-.048 1.472-.144a8.074 8.074 0 0 0 1.344-.464v1.408a6.524 6.524 0 0 1-1.312.432c-.438.096-.96.144-1.568.144-.832 0-1.568-.165-2.208-.496a3.568 3.568 0 0 1-1.504-1.472c-.352-.661-.528-1.472-.528-2.432 0-.971.16-1.792.48-2.464.33-.672.784-1.184 1.36-1.536.586-.363 1.269-.544 2.048-.544Zm0 1.312c-.608 0-1.099.197-1.472.592-.363.395-.576.955-.64 1.68h4.064c0-.448-.07-.843-.208-1.184a1.71 1.71 0 0 0-.64-.8c-.288-.192-.656-.288-1.104-.288Zm11.492 5.04c0 .565-.139 1.04-.416 1.424-.278.384-.678.677-1.2.88-.523.192-1.152.288-1.888.288a7.407 7.407 0 0 1-1.568-.144 5.087 5.087 0 0 1-1.184-.384v-1.488c.384.181.826.347 1.328.496.501.139.992.208 1.472.208.64 0 1.098-.101 1.376-.304a.95.95 0 0 0 .432-.816.863.863 0 0 0-.16-.512c-.107-.16-.31-.32-.608-.48-.288-.171-.715-.363-1.28-.576a13.488 13.488 0 0 1-1.392-.656c-.384-.224-.678-.485-.88-.784-.203-.309-.304-.704-.304-1.184 0-.747.298-1.317.896-1.712.608-.405 1.408-.608 2.4-.608.522 0 1.013.053 1.472.16a6.16 6.16 0 0 1 1.36.448l-.56 1.296a4.847 4.847 0 0 0-.768-.288 6.554 6.554 0 0 0-.784-.208 3.94 3.94 0 0 0-.8-.08c-.512 0-.902.08-1.168.24-.267.16-.4.384-.4.672 0 .203.058.379.176.528.128.149.346.299.656.448.309.149.73.331 1.264.544.533.203.986.411 1.36.624.384.213.672.475.864.784.202.309.304.704.304 1.184Zm19.762-8.992L237.029 262h-1.84l-2.016-7.056a12.021 12.021 0 0 1-.192-.64 66.74 66.74 0 0 0-.16-.688 56.76 56.76 0 0 0-.144-.624c-.032-.181-.059-.32-.08-.416a7.36 7.36 0 0 1-.064.416c-.032.181-.075.389-.128.624-.053.224-.107.459-.16.704a9.92 9.92 0 0 1-.176.672L230.085 262h-1.84l-2.992-11.424h1.776l1.68 6.752c.053.235.107.475.16.72.053.245.101.491.144.736.053.245.096.485.128.72.043.224.08.432.112.624.032-.203.064-.421.096-.656.043-.235.091-.475.144-.72.053-.256.107-.507.16-.752.064-.245.128-.469.192-.672l1.904-6.752h1.728l1.968 6.784c.064.213.123.443.176.688.064.245.123.496.176.752.053.245.096.485.128.72.043.224.08.427.112.608.032-.267.075-.555.128-.864.064-.32.133-.645.208-.976.075-.341.149-.661.224-.96l1.68-6.752h1.76Zm3.175 2.8V262h-1.696v-8.624h1.696Zm-.832-3.28c.256 0 .48.075.672.224.192.149.288.4.288.752 0 .341-.096.592-.288.752a1.065 1.065 0 0 1-.672.224c-.278 0-.512-.075-.704-.224-.182-.16-.272-.411-.272-.752 0-.352.09-.603.272-.752.192-.149.426-.224.704-.224ZM247.571 262h-1.696v-12.16h1.696V262Zm4.359 0h-1.696v-12.16h1.696V262Zm10.356-11.424c.971 0 1.781.091 2.432.272.661.181 1.157.485 1.488.912.341.416.512.971.512 1.664 0 .448-.08.848-.24 1.2-.16.341-.395.629-.704.864-.299.224-.672.373-1.12.448v.08c.459.075.869.213 1.232.416.363.192.651.475.864.848.213.373.32.859.32 1.456 0 .693-.165 1.285-.496 1.776-.32.48-.784.848-1.392 1.104-.597.256-1.312.384-2.144.384h-4.096v-11.424h3.344Zm.288 4.768c.896 0 1.509-.144 1.84-.432.341-.288.512-.715.512-1.28 0-.576-.203-.987-.608-1.232-.405-.245-1.051-.368-1.936-.368h-1.712v3.312h1.904Zm-1.904 1.408v3.808h2.096c.928 0 1.573-.181 1.936-.544.363-.363.544-.843.544-1.44 0-.363-.08-.683-.24-.96-.16-.277-.432-.491-.816-.64-.373-.149-.885-.224-1.536-.224h-1.984Zm11.972-3.536c.757 0 1.408.16 1.952.48.544.309.96.757 1.248 1.344.299.587.448 1.28.448 2.08v.928h-5.792c.021.885.251 1.563.688 2.032.448.469 1.072.704 1.872.704.555 0 1.045-.048 1.472-.144a8.074 8.074 0 0 0 1.344-.464v1.408a6.524 6.524 0 0 1-1.312.432c-.437.096-.96.144-1.568.144-.832 0-1.568-.165-2.208-.496a3.573 3.573 0 0 1-1.504-1.472c-.352-.661-.528-1.472-.528-2.432 0-.971.16-1.792.48-2.464.331-.672.784-1.184 1.36-1.536.587-.363 1.269-.544 2.048-.544Zm0 1.312c-.608 0-1.099.197-1.472.592-.363.395-.576.955-.64 1.68h4.064a3.12 3.12 0 0 0-.208-1.184 1.71 1.71 0 0 0-.64-.8c-.288-.192-.656-.288-1.104-.288Zm16.672 4.384c0 .683-.165 1.264-.496 1.744-.33.48-.805.853-1.424 1.12-.618.256-1.354.384-2.208.384-.416 0-.816-.027-1.2-.08a7.802 7.802 0 0 1-1.072-.192 4.452 4.452 0 0 1-.88-.32v-1.632c.427.192.928.368 1.504.528a7.002 7.002 0 0 0 1.76.224c.512 0 .939-.069 1.28-.208.342-.139.598-.331.768-.576.171-.245.256-.533.256-.864 0-.352-.09-.645-.272-.88-.17-.245-.442-.469-.816-.672-.362-.213-.853-.437-1.472-.672a9.185 9.185 0 0 1-1.168-.528 4.632 4.632 0 0 1-.912-.704 2.825 2.825 0 0 1-.592-.928 3.364 3.364 0 0 1-.208-1.232c0-.629.155-1.168.464-1.616.32-.448.758-.789 1.312-1.024.555-.245 1.2-.368 1.936-.368.619 0 1.19.064 1.712.192.534.117 1.04.283 1.52.496l-.544 1.424c-.437-.181-.88-.331-1.328-.448a5.549 5.549 0 0 0-1.408-.176c-.426 0-.784.064-1.072.192a1.493 1.493 0 0 0-.656.528 1.464 1.464 0 0 0-.208.784c0 .352.08.645.24.88.16.235.416.453.768.656.352.192.816.405 1.392.64.64.245 1.184.512 1.632.8.459.288.806.635 1.04 1.04.235.395.352.891.352 1.488Zm3.741-5.824c0 .267-.01.533-.032.8-.021.267-.042.485-.064.656h.112c.182-.299.406-.544.672-.736.278-.192.582-.336.912-.432a3.827 3.827 0 0 1 1.04-.144c.683 0 1.254.112 1.712.336.47.213.822.555 1.056 1.024.246.459.368 1.056.368 1.792V262h-1.68v-5.376c0-.672-.144-1.173-.432-1.504-.277-.341-.725-.512-1.344-.512-.586 0-1.05.117-1.392.352-.33.235-.57.581-.72 1.04-.138.448-.208 1.003-.208 1.664V262h-1.696v-12.16h1.696v3.248Zm15.982 4.592c0 .715-.096 1.349-.288 1.904a3.976 3.976 0 0 1-.816 1.408 3.479 3.479 0 0 1-1.28.88c-.501.192-1.066.288-1.696.288a4.354 4.354 0 0 1-1.6-.288 3.679 3.679 0 0 1-1.28-.88 4.178 4.178 0 0 1-.832-1.408c-.202-.555-.304-1.195-.304-1.92 0-.949.16-1.755.48-2.416.331-.661.8-1.163 1.408-1.504.619-.352 1.344-.528 2.176-.528.79 0 1.483.176 2.08.528.608.341 1.083.843 1.424 1.504.352.661.528 1.472.528 2.432Zm-6.352 0c0 .64.08 1.195.24 1.664.16.459.411.811.752 1.056.342.245.779.368 1.312.368.534 0 .971-.123 1.312-.368.342-.245.592-.597.752-1.056.16-.469.24-1.024.24-1.664 0-.661-.085-1.216-.256-1.664-.16-.448-.41-.789-.752-1.024-.33-.245-.768-.368-1.312-.368-.8 0-1.381.267-1.744.8-.362.533-.544 1.285-.544 2.256Zm14.014 0a17.869 17.869 0 0 0-.192-.704l-.192-.768-.176-.736c-.053-.224-.096-.4-.128-.528h-.064a8.367 8.367 0 0 1-.112.528c-.043.224-.096.469-.16.736-.064.256-.128.517-.192.784a7.894 7.894 0 0 1-.208.704l-1.28 4.288h-1.888l-2.384-8.624h1.728l1.12 4.368c.085.299.16.613.224.944.075.331.139.651.192.96.064.299.107.549.128.752h.064a9.12 9.12 0 0 1 .096-.512c.043-.213.085-.432.128-.656.053-.235.101-.459.144-.672.053-.213.107-.389.16-.528l1.376-4.656h1.856l1.344 4.656c.064.213.133.469.208.768.075.288.139.576.192.864.064.277.107.517.128.72h.064a11.3 11.3 0 0 1 .112-.704c.053-.299.117-.619.192-.96.085-.341.165-.667.24-.976l1.152-4.368h1.712l-2.416 8.624h-1.936l-1.232-4.304Zm11.45-4.464c1.003 0 1.771.251 2.304.752.533.501.8 1.307.8 2.416V262h-1.68v-5.376c0-.672-.144-1.173-.432-1.504-.277-.341-.725-.512-1.344-.512-.875 0-1.483.261-1.824.784-.331.523-.496 1.275-.496 2.256V262h-1.696v-8.624h1.344l.24 1.152h.096c.192-.299.427-.544.704-.736.277-.192.587-.336.928-.432a3.878 3.878 0 0 1 1.056-.144ZM347.12 262h-1.728v-5.216h-5.456V262h-1.728v-11.424h1.728v4.736h5.456v-4.736h1.728V262Zm6.256-8.784c.758 0 1.408.16 1.952.48.544.309.96.757 1.248 1.344.299.587.448 1.28.448 2.08v.928h-5.792c.022.885.251 1.563.688 2.032.448.469 1.072.704 1.872.704.555 0 1.046-.048 1.472-.144a8.012 8.012 0 0 0 1.344-.464v1.408a6.504 6.504 0 0 1-1.312.432c-.437.096-.96.144-1.568.144-.832 0-1.568-.165-2.208-.496a3.573 3.573 0 0 1-1.504-1.472c-.352-.661-.528-1.472-.528-2.432 0-.971.16-1.792.48-2.464.331-.672.784-1.184 1.36-1.536.587-.363 1.27-.544 2.048-.544Zm0 1.312c-.608 0-1.098.197-1.472.592-.362.395-.576.955-.64 1.68h4.064a3.12 3.12 0 0 0-.208-1.184 1.703 1.703 0 0 0-.64-.8c-.288-.192-.656-.288-1.104-.288Zm10.021-1.312c.149 0 .314.011.496.032.181.011.33.027.448.048l-.176 1.584a3.181 3.181 0 0 0-.416-.08 3.468 3.468 0 0 0-.448-.032c-.32 0-.63.064-.928.192a2.35 2.35 0 0 0-.784.528 2.416 2.416 0 0 0-.56.832 3.131 3.131 0 0 0-.192 1.136V262h-1.696v-8.624h1.344l.224 1.536h.064c.181-.309.4-.592.656-.848s.549-.459.88-.608c.33-.16.693-.24 1.088-.24Zm5.62 0c.757 0 1.408.16 1.952.48.544.309.96.757 1.248 1.344.299.587.448 1.28.448 2.08v.928h-5.792c.021.885.251 1.563.688 2.032.448.469 1.072.704 1.872.704.555 0 1.045-.048 1.472-.144a8.074 8.074 0 0 0 1.344-.464v1.408a6.524 6.524 0 0 1-1.312.432c-.437.096-.96.144-1.568.144-.832 0-1.568-.165-2.208-.496a3.573 3.573 0 0 1-1.504-1.472c-.352-.661-.528-1.472-.528-2.432 0-.971.16-1.792.48-2.464.331-.672.784-1.184 1.36-1.536.587-.363 1.269-.544 2.048-.544Zm0 1.312c-.608 0-1.099.197-1.472.592-.363.395-.576.955-.64 1.68h4.064a3.12 3.12 0 0 0-.208-1.184 1.71 1.71 0 0 0-.64-.8c-.288-.192-.656-.288-1.104-.288Z"/>
  <defs>
    <clipPath id="a">
      <path fill="#fff" d="M39 .9h221.385V217H39z"/>
    </clipPath>
  </defs>
</svg>
