<svg width="28" height="28" viewBox="0 0 28 28" fill="none" xmlns="http://www.w3.org/2000/svg">
<path d="M23.3335 23.3338C23.9523 23.3338 24.5458 23.088 24.9834 22.6504C25.421 22.2128 25.6668 21.6193 25.6668 21.0005V9.33382C25.6668 8.71498 25.421 8.12149 24.9834 7.68391C24.5458 7.24632 23.9523 7.00049 23.3335 7.00049H14.1168C13.7266 7.00431 13.3416 6.9102 12.9972 6.72677C12.6527 6.54333 12.3598 6.27643 12.1452 5.95049L11.2002 4.55049C10.9877 4.22787 10.6985 3.96305 10.3584 3.77978C10.0184 3.59652 9.63812 3.50055 9.25183 3.50049H4.66683C4.04799 3.50049 3.4545 3.74632 3.01691 4.18391C2.57933 4.62149 2.3335 5.21498 2.3335 5.83382V21.0005C2.3335 21.6193 2.57933 22.2128 3.01691 22.6504C3.4545 23.088 4.04799 23.3338 4.66683 23.3338H23.3335Z" stroke="#3E68FC" stroke-width="1.1564" stroke-linecap="round" stroke-linejoin="round"/>
</svg>
