<svg xmlns="http://www.w3.org/2000/svg" width="480" height="379" fill="none" viewBox="0 0 480 379">
  <path fill="#98CFE4" d="M150.071 69.742h-25.587v92.545h25.587V69.742Zm139.376 33.66H248.23v58.885h41.217v-58.885Z"/>
  <path fill="#98CFE4" d="M280.171 79.254h-18.257V115h18.257V79.254Zm-53.758-1.582h-20.94v5.733h20.94v-5.733ZM150.609 61.84h-26.668v3.64h26.668v-3.64Zm180.938 100.418v-51.531l-18.695 7.292v44.239h18.695Z"/>
  <path fill="#98CFE4" d="M250.85 54.453h-24.639v107.835h24.639V54.453Z"/>
  <path fill="#98CFE4" d="M246.917 43.457H230.34v42.346h16.577V43.457Z"/>
  <path fill="#98CFE4" d="M239.611 26.242h-1.963v37.485h1.963V26.242Zm-91.532 38.242h-2.224v20.48h2.224v-20.48Zm-4.844 0h-2.223v20.48h2.223v-20.48Zm-4.848 0h-2.223v20.48h2.223v-20.48Zm-4.855 0h-2.223v20.48h2.223v-20.48Zm-4.84 0h-2.223v20.48h2.223v-20.48ZM244.854 81.34h-37.28v80.946h37.28V81.34Zm-76.227 36.918h-21.744v44.028h21.744v-44.028Zm280.098 44.003v-38.234l-25.737.916v37.318h25.737Z"/>
  <path fill="#98CFE4" d="M442.679 129.031h-14.898v-14.468l7.446-7.004 7.452 7.004v14.468ZM70.677 162.259v-43.001l-32.9 1.032v41.969h32.9Z"/>
  <path fill="#98CFE4" d="M70.676 146.835v-39.804l-28.719.955v38.849h28.72Zm301.657-45.687H329.32v61.25h43.013v-61.25Z"/>
  <path fill="#98CFE4" d="M361.183 95.027h-29.64v11.317h29.64V95.027Z"/>
  <path fill="#98CFE4" d="M355.55 109.236h-20.597V90.089l10.296-9.269 10.301 9.269v19.147Zm-158.271 53.051V81.336L176 85.659v76.628h21.279Zm-69.875 0V70.969l-21.279 4.867v86.451h21.279Z"/>
  <path fill="#98CFE4" d="M186.64 162.289v-59.057l-21.285-3.447v62.504h21.285ZM380.113 55.223h-1.718V65.69h1.718V55.223Zm-3.949 2.402h-1.719v10.467h1.719V57.625Zm11.047 0h-1.719v10.467h1.719V57.625Z"/>
  <path fill="#98CFE4" d="M396.794 162.257V65.25l-31.181.472v96.535h31.181Zm-83.212.031V91.343l-30.859-21.84v92.785h30.859Z"/>
  <path fill="#98CFE4" d="M423.243 91.98h-28.985v70.279h28.985V91.981Z"/>
  <path fill="#98CFE4" d="M417.81 87.617h-23.552v26.268h23.552V87.617Z"/>
  <path fill="#98CFE4" d="M413.236 81.031h-13.279v11.45h13.279V81.03ZM107.283 96.582h-37.94v65.678h37.94V96.582Z"/>
  <path fill="#98CFE4" d="M107.285 92.508H76.453v24.547h30.832V92.508Z"/>
  <path fill="#98CFE4" d="M99.828 86.348H82.441v10.7h17.387v-10.7Z"/>
  <path fill="#fff" d="M145.273 75.11h-15.031v2.785h15.031V75.11Zm0 6.93h-15.031v2.78h15.031v-2.78Zm0 6.929h-15.031v2.78h15.031v-2.78Zm0 6.929h-15.031v2.787h15.031v-2.787Zm0 6.934h-15.031v2.786h15.031v-2.786Zm0 6.93h-15.031v2.78h15.031v-2.78Zm0 6.926h-15.031v2.786h15.031v-2.786Zm0 6.933h-15.031v2.781h15.031v-2.781Zm0 6.93h-15.031v2.786h15.031v-2.786Zm0 6.933h-15.031v2.786h15.031v-2.786Zm0 6.934h-15.031v2.78h15.031v-2.78Zm100.936-84.914h-15.33v1.615h15.33v-1.615Zm0 4.031h-15.33v1.615h15.33v-1.615Zm0 4.028h-15.33v1.614h15.33v-1.615Zm0 4.027h-15.33v1.62h15.33v-1.62Zm0 4.035h-15.33v1.615h15.33v-1.615Zm0 4.023h-15.33v1.615h15.33v-1.615Zm0 4.028h-15.33v1.615h15.33v-1.615Zm0 4.031h-15.33v1.615h15.33v-1.615Zm0 4.027h-15.33v1.615h15.33v-1.615Zm0 4.032h-15.33v1.615h15.33v-1.615Zm0 4.024h-15.33v1.62h15.33v-1.62Zm0 3.714h-15.33v1.62h15.33v-1.62Zm0 4.023h-15.33v1.615h15.33v-1.615Zm0 4.028h-15.33v1.62h15.33v-1.62Zm0 4.035h-15.33v1.615h15.33v-1.615Zm0 4.023h-15.33v1.615h15.33v-1.615Zm0 4.032h-15.33v1.615h15.33v-1.615Zm0 4.023h-15.33v1.621h15.33v-1.621Zm0 4.035h-15.33v1.621h15.33v-1.621Zm0 4.027h-15.33v1.621h15.33v-1.621Zm0 4.024h-15.33v1.615h15.33v-1.615Zm0 4.035h-15.33v1.615h15.33v-1.615ZM215.188 87.23h-3.876v1.71h3.876v-1.71Zm0 6.356h-3.876v1.71h3.876v-1.71Zm0 6.352h-3.876v1.709h3.876v-1.71Zm0 6.363h-3.876v1.709h3.876v-1.709Zm0 6.347h-3.876v1.71h3.876v-1.71Zm0 6.356h-3.876v1.709h3.876v-1.709Zm0 6.355h-3.876v1.71h3.876v-1.71Zm0 6.352h-3.876v1.709h3.876v-1.709Zm0 6.355h-3.876v1.71h3.876v-1.71Zm0 6.356h-3.876v1.709h3.876v-1.709Zm0 6.355h-3.876v1.71h3.876v-1.71Zm5.684-63.547h-3.876v1.71h3.876v-1.71Zm0 6.356h-3.876v1.71h3.876v-1.71Zm0 6.352h-3.876v1.709h3.876v-1.71Zm0 6.363h-3.876v1.709h3.876v-1.709Zm0 6.347h-3.876v1.71h3.876v-1.71Zm0 6.356h-3.876v1.709h3.876v-1.709Zm0 6.355h-3.876v1.71h3.876v-1.71Zm0 6.352h-3.876v1.709h3.876v-1.709Zm0 6.355h-3.876v1.71h3.876v-1.71Zm0 6.356h-3.876v1.709h3.876v-1.709Zm0 6.355h-3.876v1.71h3.876v-1.71Zm5.671-63.547h-3.875v1.71h3.875v-1.71Zm0 6.356h-3.875v1.71h3.875v-1.71Zm0 6.352h-3.875v1.709h3.875v-1.71Zm0 6.363h-3.875v1.709h3.875v-1.709Zm0 6.347h-3.875v1.71h3.875v-1.71Zm0 6.356h-3.875v1.709h3.875v-1.709Zm0 6.355h-3.875v1.71h3.875v-1.71Zm0 6.352h-3.875v1.709h3.875v-1.709Zm0 6.355h-3.875v1.71h3.875v-1.71Zm0 6.356h-3.875v1.709h3.875v-1.709Zm0 6.355h-3.875v1.71h3.875v-1.71Zm113.475-51.211h-4.08v1.36h4.08v-1.36Zm0 5.075h-4.08V106h4.08v-1.359Zm0 5.07h-4.08v1.36h4.08v-1.36Zm0 5.074h-4.08v1.36h4.08v-1.36Zm0 5.067h-4.08v1.359h4.08v-1.359Zm0 5.074h-4.08v1.36h4.08v-1.36Zm0 5.07h-4.08v1.36h4.08v-1.36Zm0 5.074h-4.08v1.36h4.08v-1.36Zm0 5.075h-4.08v1.359h4.08v-1.359Zm0 5.066h-4.08v1.36h4.08v-1.36Zm0 5.078h-4.08v1.36h4.08v-1.36Zm8.758-50.723h-4.081v1.36h4.081v-1.36Zm0 5.075h-4.081V106h4.081v-1.359Zm0 5.07h-4.081v1.36h4.081v-1.36Zm0 5.074h-4.081v1.36h4.081v-1.36Zm0 5.067h-4.081v1.359h4.081v-1.359Zm0 5.074h-4.081v1.36h4.081v-1.36Zm0 5.07h-4.081v1.36h4.081v-1.36Zm0 5.074h-4.081v1.36h4.081v-1.36Zm0 5.075h-4.081v1.359h4.081v-1.359Zm0 5.066h-4.081v1.36h4.081v-1.36Zm0 5.078h-4.081v1.36h4.081v-1.36Zm8.762-50.723h-4.081v1.36h4.081v-1.36Zm0 5.075h-4.081V106h4.081v-1.359Zm0 5.07h-4.081v1.36h4.081v-1.36Zm0 5.074h-4.081v1.36h4.081v-1.36Zm0 5.067h-4.081v1.359h4.081v-1.359Zm0 5.074h-4.081v1.36h4.081v-1.36Zm0 5.07h-4.081v1.36h4.081v-1.36Zm0 5.074h-4.081v1.36h4.081v-1.36Zm0 5.075h-4.081v1.359h4.081v-1.359Zm0 5.066h-4.081v1.36h4.081v-1.36Zm0 5.078h-4.081v1.36h4.081v-1.36Zm-67.309-50.723h-4.081v1.36h4.081v-1.36Zm0 5.075h-4.081V106h4.081v-1.359Zm0 5.07h-4.081v1.36h4.081v-1.36Zm0 5.074h-4.081v1.36h4.081v-1.36Zm0 5.067h-4.081v1.359h4.081v-1.359Zm0 5.074h-4.081v1.36h4.081v-1.36Zm0 5.07h-4.081v1.36h4.081v-1.36Zm0 5.074h-4.081v1.36h4.081v-1.36Zm0 5.075h-4.081v1.359h4.081v-1.359Zm0 5.066h-4.081v1.36h4.081v-1.36Zm0 5.078h-4.081v1.36h4.081v-1.36Zm8.754-50.723h-4.081v1.36h4.081v-1.36Zm0 5.075h-4.081V106h4.081v-1.359Zm0 5.07h-4.081v1.36h4.081v-1.36Zm0 5.074h-4.081v1.36h4.081v-1.36Zm0 5.067h-4.081v1.359h4.081v-1.359Zm0 5.074h-4.081v1.36h4.081v-1.36Zm0 5.07h-4.081v1.36h4.081v-1.36Zm0 5.074h-4.081v1.36h4.081v-1.36Zm0 5.075h-4.081v1.359h4.081v-1.359Zm0 5.066h-4.081v1.36h4.081v-1.36Zm0 5.078h-4.081v1.36h4.081v-1.36Zm8.766-50.723h-4.081v1.36h4.081v-1.36Zm0 5.075h-4.081V106h4.081v-1.359Zm0 5.07h-4.081v1.36h4.081v-1.36Zm0 5.074h-4.081v1.36h4.081v-1.36Zm0 5.067h-4.081v1.359h4.081v-1.359Zm0 5.074h-4.081v1.36h4.081v-1.36Zm0 5.07h-4.081v1.36h4.081v-1.36Zm0 5.074h-4.081v1.36h4.081v-1.36Zm0 5.075h-4.081v1.359h4.081v-1.359Zm0 5.066h-4.081v1.36h4.081v-1.36Zm0 5.078h-4.081v1.36h4.081v-1.36Zm85.37-78.027h-21.9v1.71h21.9v-1.71Zm0 6.215h-21.9v1.709h21.9v-1.71Zm0 6.214h-21.9v1.71h21.9v-1.71Zm0 6.211h-21.9v1.71h21.9v-1.71Zm0 6.219h-21.9v1.71h21.9v-1.71Zm0 6.207h-21.9v1.71h21.9v-1.71Zm0 6.223h-21.9v1.709h21.9v-1.709Zm0 6.211h-21.9v1.709h21.9v-1.709Zm0 6.215h-21.9v1.709h21.9v-1.709Zm0 6.218h-21.9v1.71h21.9v-1.71Zm0 6.207h-21.9v1.71h21.9v-1.71Z"/>
  <path fill="#fff" d="M457.517 10.035H30.055v152.246h427.462V10.035Z" opacity=".3"/>
  <path fill="#fff" stroke="#231F20" stroke-miterlimit="10" d="M457.517 46.367H30.055v6.344h427.462v-6.344Z"/>
  <path fill="#fff" stroke="#231F20" stroke-miterlimit="10" d="M98.61 10.035h-5.184v152.246h5.184V10.035Zm61.062 0h-5.184v152.246h5.184V10.035Zm61.067 0h-5.184v152.246h5.184V10.035Zm61.062 0h-5.184v152.246h5.184V10.035Zm61.07 0h-5.183v152.246h5.183V10.035Zm61.067 0h-5.184v152.246h5.184V10.035Z"/>
  <path fill="#E3E4E5" stroke="#231F20" stroke-miterlimit="10" d="M125.797 37.715H67.383c-.891 0-1.614.723-1.614 1.615v.227c0 .892.723 1.615 1.614 1.615h58.414c.891 0 1.614-.723 1.614-1.615v-.227c0-.892-.723-1.615-1.614-1.615Z"/>
  <path stroke="#231F20" stroke-linecap="round" stroke-linejoin="round" d="M69.422 37.059V9.98m54.918 27.24V9.98"/>
  <path fill="#fff" stroke="#231F20" stroke-miterlimit="10" d="M425.942 37.137h-58.415c-.891 0-1.613.723-1.613 1.615v.227c0 .892.722 1.615 1.613 1.615h58.415c.891 0 1.613-.723 1.613-1.615v-.227c0-.892-.722-1.615-1.613-1.615Z"/>
  <path fill="#fff" stroke="#231F20" stroke-miterlimit="10" d="M25.152 5.418v161.476h437.26V5.418H25.152Zm432.364 156.864H30.053V10.036h427.463v152.246Z"/>
  <path fill="#5CA0C3" stroke="#231F20" stroke-miterlimit="10" d="M124.822 37.137h-55.88a1.442 1.442 0 0 0 0 2.886h55.88a1.443 1.443 0 0 0 0-2.886Z"/>
  <path stroke="#231F20" stroke-linecap="round" stroke-linejoin="round" d="M369.574 36.48V9.402m54.91 27.24V9.402"/>
  <path fill="#5CA0C3" stroke="#231F20" stroke-miterlimit="10" d="M424.967 36.563h-55.881a1.442 1.442 0 0 0 0 2.886h55.881a1.443 1.443 0 0 0 0-2.887Z"/>
  <path fill="#E3E4E5" stroke="#231F20" stroke-miterlimit="10" d="M216.965 295.577c34.652-18.26 52.41-67.859 33.942-124.319-17.159-52.469-57.35-87.167-92.811-82.028 0 0-100.878 7.481-115.17 89.909 0 0-13.523 97.662 66.497 127.776a59.528 59.528 0 0 0 14.066 3.402c16.234 1.893 57.538 4.202 93.482-14.735l-.006-.005Z"/>
  <path fill="#fff" stroke="#231F20" stroke-miterlimit="10" d="M215.686 287.247c34.978-11.465 49.261-63.782 31.901-116.853-17.359-53.072-59.787-86.8-94.765-75.336-34.978 11.465-49.261 63.781-31.902 116.853 17.36 53.071 59.788 86.8 94.766 75.336Z"/>
  <path fill="#E3E4E5" stroke="#231F20" stroke-miterlimit="10" d="M122.404 211.423c.283.871.577 1.732.876 2.592l.299.855c.1.283.206.571.305.854.1.283.205.566.311.849.21.567.416 1.127.632 1.688.105.277.216.56.321.838.111.277.217.555.328.832l.332.833.333.827c.111.277.227.549.338.821.227.549.46 1.093.688 1.632.116.272.232.544.349.81.116.266.238.538.355.805.105.233.205.466.31.693.139.306.272.605.41.911l.25.544c.066.144.133.288.205.432.122.267.25.533.377.794.1.205.194.411.294.616.122.255.249.511.371.766.128.261.255.522.383.777l.266.533c.072.15.15.299.222.444a.214.214 0 0 1 .028.061c.11.222.227.444.338.66.111.217.222.428.332.644.078.155.161.311.244.461.089.172.178.338.266.505.122.227.239.455.361.677l.116.216c.111.211.228.417.338.627.139.256.278.505.416.755l.366.661.133.233c.111.2.228.405.344.605.128.233.261.46.394.688a132.979 132.979 0 0 0 1.885 3.169c.094.15.183.3.277.449.028.045.055.089.078.134.138.222.277.444.415.66.122.2.25.394.377.594.122.194.25.394.377.588.117.183.233.367.35.544.116.178.233.355.349.538.083.134.172.261.261.395.144.21.282.427.426.638.106.161.217.322.328.488.022.033.044.072.072.106.099.149.199.294.299.444.105.155.211.305.316.46.128.183.255.372.383.555.11.161.221.322.338.478l.033.049c.128.184.261.367.388.544.05.073.1.139.15.206.122.172.244.338.366.505.022.033.044.061.066.089.128.172.25.344.377.516.034.05.072.094.106.144.127.178.26.355.393.533.122.166.244.327.372.494.094.127.194.255.288.383l.283.366.443.577c.106.139.217.278.322.416.05.067.1.128.15.195.111.144.227.288.338.433.133.172.272.344.41.51.122.15.239.3.36.45.167.205.333.41.499.61.167.2.333.405.499.605a51.98 51.98 0 0 0 .505.605c.161.189.322.377.477.566l.116.133c.133.156.266.311.399.461.133.155.267.305.394.455.455.522.915 1.038 1.381 1.549.044.044.083.094.127.138a104.395 104.395 0 0 0 4.885 5.023c18.318 17.632 40.157 25.596 59.634 19.214 34.152-11.194 48.102-62.282 31.147-114.101-16.949-51.82-58.381-84.76-92.533-73.565-15.258 5.001-26.485 17.965-32.723 35.392a86.246 86.246 0 0 0-1.84 5.783c-2.312 8.242-3.604 17.305-3.782 26.879-.266 14.54 2.03 30.263 7.191 46.047l.017.017Z"/>
  <path fill="#fff" stroke="#231F20" stroke-miterlimit="10" d="M122.404 211.423c.283.871.577 1.732.876 2.592l.299.854c.1.283.206.572.305.855.1.283.205.566.311.849.21.566.416 1.127.632 1.687.105.278.216.561.321.838.111.278.217.555.328.833l.332.832.333.827c.111.278.227.55.338.822.227.549.46 1.093.688 1.631.116.272.232.544.349.811.116.266.238.538.355.805.105.233.205.466.31.693.139.306.272.605.41.91l.25.544c.066.145.133.289.205.433.122.267.25.533.377.794.1.205.194.411.294.616.122.255.249.511.371.766.128.261.255.522.383.777l.266.533c.072.149.15.299.222.444a.202.202 0 0 1 .028.061c.11.222.227.444.338.66.111.217.222.427.332.644.078.155.161.311.244.461.089.172.178.338.266.505.122.227.239.455.361.677l.116.216c.111.211.228.416.338.627.139.256.278.505.416.755l.366.661.133.233c.111.199.228.405.344.605.128.233.261.46.394.688a135.004 135.004 0 0 0 1.885 3.169c.094.15.183.299.277.449.028.045.055.089.078.134.138.222.277.444.415.66.122.2.25.394.377.594.122.194.25.394.377.588.117.183.233.366.35.544.116.178.233.355.349.538.083.134.172.261.261.394.144.211.282.428.426.639.106.161.217.322.328.488.022.033.044.072.072.105.099.15.199.295.299.444.105.156.211.306.316.461.128.183.255.372.383.555.11.161.221.322.338.477l.033.05c.128.183.261.367.388.544.05.072.1.139.15.206.122.172.244.338.366.505.022.033.044.061.066.088.128.172.25.345.377.517.034.05.072.094.106.144.127.177.26.355.393.533.122.166.244.327.372.494.094.127.194.255.288.383l.283.366.443.577c.106.139.217.278.322.416.05.067.1.128.15.195.111.144.227.288.338.432.133.172.272.345.41.511.122.15.239.3.36.45.167.205.333.41.499.61.167.2.333.405.499.605a51.98 51.98 0 0 0 .505.605c.161.189.322.377.477.566l.116.133c.133.156.266.311.399.461.133.155.267.305.394.455.455.522.915 1.038 1.381 1.548.044.045.083.095.127.139a104.861 104.861 0 0 0 4.885 5.023c4.274.832 8.394.56 12.175-.955 18.811-7.52 22.388-42.89 7.984-79.009-13.046-32.717-36.376-54.822-54.634-53.102a86.091 86.091 0 0 0-1.84 5.784c-2.312 8.241-3.604 17.304-3.782 26.878-.266 14.541 2.03 30.264 7.191 46.048l.017.022Z"/>
  <path fill="#E3E4E5" stroke="#231F20" stroke-miterlimit="10" d="M122.402 211.42c6.132 18.753 15.474 35.031 26.513 47.641.97.394 1.935.732 2.894 1.01 4.813 1.409 9.459 1.393 13.661-.289 17.365-6.943 20.664-39.588 7.369-72.926-12.88-32.29-36.598-53.374-53.857-48.368-2.312 8.242-3.604 17.305-3.782 26.878-.266 14.541 2.03 30.264 7.191 46.048l.011.006Z"/>
  <path fill="#fff" stroke="#231F20" stroke-miterlimit="10" d="M123.044 211.421c6.132 18.753 15.474 35.031 26.512 47.64-.338-.139-.676-.277-1.014-.433.127.145.249.289.377.433.454.522.915 1.038 1.38 1.549.045.044.083.094.128.138a14.029 14.029 0 0 0 1.818-.588c.072-.028.144-.055.211-.089 13.389-5.605 15.884-30.996 5.544-56.914-10.079-25.269-28.653-41.764-42.147-37.79-.266 14.541 2.029 30.264 7.191 46.048v.006Z"/>
  <path fill="#F7C27E" stroke="#231F20" stroke-miterlimit="10" d="m117.051 189.597 13.495-8.558 18.035 8.98 6.071-.899s2.9 1.465 5.677 2.148c.527.127 1.059.205 1.597.26 1.164.123 5.794 1.588 12.087 16.439l8.532 18.154 9.813 20.285s-16.211 8.436-20.158-4.911c0 0-6.72 3.735-10.989 5.122l1.386 2.67-17.708 4.911s-21.706-25.252-27.838-64.595v-.006Z"/>
  <path fill="#fff" stroke="#231F20" stroke-miterlimit="10" d="m245.262 235.191-31.891 6.516-37.973-2.775v2.242l38.4 2.986 31.569-7.043-.105-1.926Z"/>
  <path fill="#BCBEC0" stroke="#231F20" stroke-miterlimit="10" d="M245.262 235.191s0-.322-1.175-.639l-4.053-.427-61.758 3.524-2.783 1.238s-.016.05.011.05l37.868 2.769 31.89-6.515Z"/>
  <path fill="#fff" stroke="#231F20" stroke-miterlimit="10" d="M204.212 179.019c6.191-3.223 7.929-12.15 3.882-19.938-4.046-7.788-12.346-11.488-18.537-8.265-6.191 3.223-7.929 12.15-3.882 19.938 4.046 7.788 12.346 11.489 18.537 8.265Zm14.066 166.1c0 5.983-24.877 10.839-55.038 10.839-30.161 0-54.611-4.85-54.611-10.839v-2.297s.033-.295.188-.728c.621-1.709 2.262-2.824 4.075-2.824h101.344c2.146 0 3.959 1.67 4.036 3.818v2.037l.006-.006Z"/>
  <path fill="#E3E4E5" stroke="#231F20" stroke-miterlimit="10" d="M163.615 353.178c29.897 0 54.134-4.853 54.134-10.839 0-5.986-24.237-10.839-54.134-10.839-29.898 0-54.135 4.853-54.135 10.839 0 5.986 24.237 10.839 54.135 10.839Z"/>
  <path stroke="#231F20" stroke-linecap="round" stroke-linejoin="round" d="m167.653 229.659-.255-1.621s2.817-10.789 2.074-22.643"/>
  <path fill="#fff" stroke="#231F20" stroke-miterlimit="10" d="M170.237 242.512s1.963 4.534 4.308 6.671c0 0-9.597 1.282-11.2 1.493 0 0-1.491-2.775-2.134-4.057 0 0 3.97-1.382 9.026-4.107Z"/>
  <path stroke="#ED1C24" stroke-miterlimit="10" d="M163.348 250.676s-8.105 1.604-13.012 2.991"/>
  <path fill="#FAA27F" stroke="#231F20" stroke-miterlimit="10" d="M242.814 339.723c8.788 7.92 17.847.172 19.316-1.193.128-.116.216-.266.272-.427.421-1.271 1.746-2.226 1.746-2.226-4.585-3.202-9.492-15.268-9.492-15.268l-14.293 8.758c3.948 6.088 2.451 10.356 2.451 10.356Z"/>
  <path fill="#F7C27E" stroke="#231F20" stroke-miterlimit="10" d="M240.679 351.573c1.602 1.604 11.521 1.815 11.948 1.921 6.936.21 11.199 2.031 11.199 2.031 5.334 2.991 11.2 2.453 11.2 2.453 13.655.105 21.223-3.097 21.223-3.097.105-3.952-13.971-5.234-13.971-5.234-5.123-1.243-9.226-6.071-10.812-8.186a19.887 19.887 0 0 0-2.794-3.041c-3.061-2.692-4.524-2.548-4.524-2.548s-1.331.949-1.747 2.226a1.02 1.02 0 0 1-.271.427c-1.464 1.366-10.523 9.113-19.317 1.194-3.842 4.806-2.134 11.849-2.134 11.849v.005Z"/>
  <path fill="#fff" stroke="#231F20" stroke-miterlimit="10" d="m241.642 357.019 12.363 1.071c1.603-.089 1.569-1.293 1.514-1.693a.608.608 0 0 1 .039-.333c.621-1.326 4.962-.083 6.581.433.377.122.737.294 1.064.511a26.287 26.287 0 0 0 3.743 2.02 6.109 6.109 0 0 0 1.613.455c14.77 2.07 26.269-1.926 28.237-2.67a.424.424 0 0 0 .272-.433l-.078-.86c-.211-.96-.749-.638-.749-.638s-7.573 3.202-21.223 3.097c0 0-5.866.533-11.199-2.453 0 0-4.269-1.815-11.2-2.031-.427-.106-10.345-.322-11.948-1.921l-.166 4.152a1.24 1.24 0 0 0 1.131 1.287l.006.006Z"/>
  <path stroke="#231F20" stroke-linecap="round" stroke-linejoin="round" d="m274.6 346.775-7.469-8.22s-2.117-2.381-5.006-.016m3.297.332 1.78-1.57m.146 3.063 1.813-1.493m.21 2.887 1.53-.91m.603 3.15 1.247-.877"/>
  <path fill="#5CA0C3" stroke="#231F20" stroke-miterlimit="10" d="m189.121 250.63 34.734-3.152a10.685 10.685 0 0 1 11.039 7.082c5.849 16.544 19.422 54.3 24.877 63.807l-20.907 12.277s-20.054-41.319-21.867-54.667c0 0-9.026 5.894-17.259 5.617l-15.058-23.022 4.446-7.942h-.005Z"/>
  <path stroke="#231F20" stroke-linecap="round" stroke-linejoin="round" d="M216.998 275.985s-.426-1.604-.321-7.903"/>
  <path fill="#fff" stroke="#231F20" stroke-miterlimit="10" d="M177.425 237.05v.811c0 .122.094.222.216.233l31.348 2.414a4.2 4.2 0 0 0 .654 0l1.613-.117a1.102 1.102 0 0 1-.199-1.16l-1.414.1a4.342 4.342 0 0 1-.665 0l-31.309-2.514a.234.234 0 0 0-.255.233h.011Z"/>
  <path fill="#BCBEC0" stroke="#231F20" stroke-miterlimit="10" d="m177.699 236.806 25.803-7.009 10.933 1.016-3.376 8.419s-1.125.172-2.074.094l-31.28-2.514v-.006h-.006Z"/>
  <path fill="#FAA27F" stroke="#231F20" stroke-miterlimit="10" d="M218.312 221.471s-2.7-1.654-5.051-1.759h-.593c-.454 0-.892-.156-1.236-.455-.455-.406-1.242-.933-2.223-.933 0 0-1.386.106-2.24 1.493 0 0-.322.638-2.03 1.177 0 0-2.239.322-4.585 3.419l-2.666 1.492s-1.436.916-1.786 1.899l5.678 1.781 12.69 1.604 4.037-9.718h.005Z"/>
  <path stroke="#231F20" stroke-linecap="round" stroke-linejoin="round" d="M216.2 226.638c-.194-.322-.305-1.271-.349-1.743a.683.683 0 0 0-.25-.471c-.438-.361-.848-1.11-1.652-1.194m-1.269-1.687s1.353 1.693 1.236 3.496c-.005.106 0 .217.011.322.078.816.394 3.796.793 4.812l-.904 2.32s-2.578-2.958-3.005-5.628c0 0-.266-2.48-1.014-3.013"/>
  <path stroke="#231F20" stroke-linecap="round" stroke-linejoin="round" d="M215.611 223.125s-.061.766.238 1.77m-13.247-1.77 4.158 1.548c.283.106.538.267.748.478l2.822 2.786"/>
  <path stroke="#231F20" stroke-linecap="round" stroke-linejoin="round" d="M210.062 224.73s-.427-.427-1.175-.211c0 0-1.386.533-2.989-.21"/>
  <path fill="#F7C27E" stroke="#231F20" stroke-miterlimit="10" d="M198.044 225.668s-3.803-.083-4.38 2.226l2.24-.083s.46-1.205 2.134-2.137l.006-.006Z"/>
  <path fill="#fff" stroke="#231F20" stroke-miterlimit="10" d="M156.73 339.952V305.77h13.972v34.331a2 2 0 0 1-1.369 1.904c-1.026.339-2.773.655-5.672.599 0 0-3.266.134-5.65-.777a1.997 1.997 0 0 1-1.281-1.875Z"/>
  <path fill="#FAA27F" stroke="#231F20" stroke-miterlimit="10" d="M134.233 173.955c.027-.039 2.178-9.924 2.178-9.924l5.866 2.453 8.428 19.858.371 1.227s-.804.91-2.938 0c0 0-16.511-9.996-13.911-13.62l.006.006Z"/>
  <path fill="#5CA0C3" stroke="#231F20" stroke-miterlimit="10" d="m143.003 195.142 5.14-7.564s-16.339-10.112-13.977-13.531c.022-.033 0-.083-.045-.078-.421.083-2.007.672-3.493 4.756a3.642 3.642 0 0 0 .061 2.681c.2.461.494 1.016.932 1.676.51.772 1.109 1.482 1.752 2.148l9.625 9.918.005-.006Zm11.235-6.57c1.037 1.315 4.79 5.905 8.217 7.786.199.111.155.411-.067.455-1.087.228-3.315.439-4.801-1.126 0 0-2.096-2.159-3.715-1.399l-.449-4.151s-.2-1.821-1.647-1.549l-.648-.938s-.1-.161-.072-.149c.266.088 1.247.471 2.461.654.283.045.544.195.721.422v-.005Z"/>
  <path fill="#FAA27F" stroke="#231F20" stroke-miterlimit="10" d="m167.9 152.626.743 11.289c.028.461-.045.921-.239 1.337-.31.678-.97 1.571-2.4 2.171 0 0-.106 3.629-.638 4.378 0 0 1.176 2.348-.321 3.203 0 0-1.941 7.248-4.824 10.367a4.605 4.605 0 0 1-2.961 1.443c-3.343.305-12.896-.172-16.217-14.691 0 0-.21-3.08-.266-4.906l3.682-18.587 11.094-5.017 12.347 9.013Z"/>
  <path fill="#231F20" stroke="#231F20" stroke-miterlimit="10" d="M149.659 159.506c-2.14 1.36-4.585 3.758-4.762 7.67l-2.878-.749s-.41-2.98-1.973-6.033l-3.626 3.63-1.375 5.938-1.231-11.471c-.416-3.858.299-7.77 2.14-11.183 2.301-4.274 6.714-8.547 15.13-8.109 0 0 13.201.1 16.916 12.343.488 1.615-1.453 2.881-2.722 1.776-.438-.383-.91-.938-1.398-1.731 0 0-4.158 1.282-5.655-2.454 0 0-1.28-3.524-5.228-1.709 0 0-2.567.855-1.192 6.96.449 1.987-.432 4.029-2.151 5.122h.005Z"/>
  <path fill="#FAA27F" stroke="#231F20" stroke-miterlimit="10" d="M139.136 168.621c1.504 0 2.723-2.055 2.723-4.59 0-2.535-1.219-4.59-2.723-4.59-1.503 0-2.722 2.055-2.722 4.59 0 2.535 1.219 4.59 2.722 4.59Z"/>
  <path stroke="#231F20" stroke-linecap="round" stroke-linejoin="round" d="m165.359 171.802-1.109-4.357m.793 7.559s-.787.666-1.641.022"/>
  <path fill="#fff" stroke="#231F20" stroke-miterlimit="10" d="M149.157 189.233s-.815-.394-1.474-1.077l-1.531 2.381s.976.561 2.468.35c0 0-.427-.955.532-1.654h.005Z"/>
  <path fill="#fff" stroke="#231F20" stroke-miterlimit="10" d="M149.546 189.09c-.472.106-.86.466-.965.938-.272 1.199 1.003 2.675 1.003 2.675.339.405.716 1.626.954 2.464a4.3 4.3 0 0 1 .15 1.355 4.842 4.842 0 0 0 .177 1.415l3.144 10.872c.238.822.399 1.66.488 2.509.532 4.956 1.807 10.428 1.807 10.428.959 4.057 1.602 10.034 1.602 10.034l7.574-1.604-3.626-12.387c-1.708-6.621-3.842-10.356-3.842-10.356-2.096-3.813-3.083-8.647-3.271-9.641a2.451 2.451 0 0 1-.045-.349 6.216 6.216 0 0 0-.477-1.904 4.406 4.406 0 0 1-.343-1.254l-.422-3.674c-.027-.661-.16-1.11-.327-1.426a1.234 1.234 0 0 0-1.347-.605l-2.229.505-.005.005Z"/>
  <path fill="#F7C27E" stroke="#231F20" stroke-miterlimit="10" d="m151.057 187.496.726 1.088-1.94.455s-.516.089-.677.194c0 0-.798-.322-1.475-1.076l.455-.578s1.558.75 2.911-.083Z"/>
  <path fill="#FAA27F" stroke="#231F20" stroke-miterlimit="10" d="M199.184 341.33c.904 2.719.859 5.056.787 5.983-.022.338-.017.677.039 1.01.909 5.738 4.613 2.836 4.613 2.836 1.419-1.754 3.293-2.792 4.041-3.158.217-.106.4-.267.533-.466 2.983-4.529 7.268-3.103 7.268-3.103l-.959-2.453c-.455-1.626-1.153-3.13-1.763-4.262a19.67 19.67 0 0 0-1.691-2.62c-2.118-2.764-3.038-5.894-3.038-5.894l-13.057 5.001 3.227 7.131v-.005Z"/>
  <path fill="#5CA0C3" stroke="#231F20" stroke-miterlimit="10" d="m162.598 249.29.749 1.388 16.322-2.243s12.264-2.669 16.106 13.67l16.799 66.361-20.32 7.098-10.772-29.792s-6.398-13.348-7.041-25.841c0 0-16.162-7.953-29.601-25.785l17.758-4.856Z"/>
  <path stroke="#231F20" stroke-linecap="round" stroke-linejoin="round" d="M174.439 280.252s-.427-8.864-2.451-11.639"/>
  <path fill="#F7C27E" stroke="#231F20" stroke-miterlimit="10" d="m197.372 360.011 5.439 2.564c1.83.567 3.1 2.104 3.754 3.086.249.378.443.783.621 1.199 1.397 3.363 11.304 4.362 11.304 4.362 10.562 1.282 18.879-1.493 18.879-1.493.005-.105.011-.216 0-.322-.095-2.819-4.059-4.806-4.059-4.806-8.322-6.194-9.281-9.396-9.281-9.396-3.415-6.088-7.573-10.783-7.573-10.783s-4.286-1.432-7.269 3.102c-.133.2-.316.361-.532.466-.748.367-2.622 1.404-4.042 3.158 0 0-3.703 2.908-4.613-2.836a4.667 4.667 0 0 1-.038-1.01l-2.285 5.977c-1.602 3.419-.321 6.727-.321 6.727l.016.005Z"/>
  <path fill="#fff" stroke="#231F20" stroke-miterlimit="10" d="m197.69 365.301 4.912 2.081 3.415-.749c.322.427.854 2.347.854 2.347 1.281 3.097 8.638 3.736 8.638 3.736 12.48 2.564 22.72-1.388 22.72-1.388l-.105-1.387c-.1-.705-.682-.555-.743-.533v.322s-8.322 2.775-18.878 1.493c0 0-9.908-.999-11.305-4.363a6.64 6.64 0 0 0-.621-1.198c-.654-.983-1.924-2.52-3.753-3.086l-5.439-2.564-.277 4.329a.968.968 0 0 0 .593.96h-.011Z"/>
  <path stroke="#231F20" stroke-linecap="round" stroke-linejoin="round" d="M219.023 347.518s-.532-.428-.321.854l2.877 8.864m-.526.321-7.252-9.396s-1.491-1.921-4.801-.322m9.706-.749-7.468 1.82m1.492 1.922 7.147-2.137m1.313 1.867-6.963 2.082"/>
  <path stroke="#231F20" stroke-linecap="round" stroke-linejoin="round" d="M222.01 352.75c0 .105-5.971 1.92-5.971 1.92m6.826.322-5.439 1.815"/>
  <path fill="#231F20" stroke="#231F20" stroke-miterlimit="10" d="M202.602 367.38v-2.747c0-.061.066-.095.116-.061l3.254 2.037s.012.033-.005.038l-3.36.739-.005-.006Z"/>
  <path stroke="#231F20" stroke-linecap="round" stroke-linejoin="round" d="m201.102 227.184 2.777 2.886"/>
  <path fill="#F7C27E" d="M143.558 251.047c5.827-.127 17.653-4.428 17.653-4.428 7.679-2.992 14.881-6.461 14.881-6.461l-2.345-13.242s-15.619 5.989-28.559 5.495a5.89 5.89 0 0 1-4.43-2.27c-2.694-3.463-8.017-10.945-11.332-19.825"/>
  <path stroke="#231F20" stroke-miterlimit="10" d="M143.558 251.047c5.827-.127 17.653-4.428 17.653-4.428 7.679-2.992 14.881-6.461 14.881-6.461l-2.345-13.242s-15.619 5.989-28.559 5.495a5.89 5.89 0 0 1-4.43-2.27c-2.694-3.463-8.017-10.945-11.332-19.825"/>
  <path fill="#5CA0C3" stroke="#231F20" stroke-miterlimit="10" d="M211.262 240.394c.249.283.637.438 1.059.349l29.6-6.182c.355-.072.655-.317.793-.65l14.155-33.027a1.113 1.113 0 0 0-1.159-1.543l-29.324 3.629c-.399.05-.743.311-.892.689l-14.438 35.575c-.171.427-.066.86.2 1.16h.006Z"/>
  <path fill="#BCBEC0" stroke="#231F20" stroke-miterlimit="10" d="m237.208 239.78-4.785 5.223a3.859 3.859 0 0 1-1.957 1.148l-19.333 4.54a7.47 7.47 0 0 1-2.245.178l-16.478-1.238a7.419 7.419 0 0 1-4.142-1.659l-6.824-5.6a.435.435 0 0 1 .31-.772l32.107 2.52 22.936-5.061c.416-.095.705.405.416.721h-.005Z"/>
  <path fill="#FAA27F" stroke="#231F20" stroke-miterlimit="10" d="m213.9 232.099-1.226 3.197-4.718-2.764a1.798 1.798 0 0 0-1.197-.227l-1.253.188-2.373-2.852 2.029-2.032 8.738 4.49Z"/>
  <path fill="#FAA27F" d="M203.461 229.621s2.007 1.882 2.445 4.401c0 0 .106.844.061 1.554-.044.722-.776 1.238-1.452.994-.4-.144-.81-.522-1.065-1.371l-.959-2.348-2.451.533s.693 3.574-.321 3.846c0 0-1.602.639-2.451-2.564-.005.011-1.58 1.921-5.106 2.348 0 0-8.632.039-10.734-.916a1.178 1.178 0 0 0-.793-.05l-2.084.55a1.207 1.207 0 0 0-.898 1.132.554.554 0 0 1-.361.505l-1.447.494-1.829-10.356 4.69-1.493s2.772-1.282 5.544-.211l13.545 1.282s1.563-1.399 2.811-1.016c.421.128.876.1 1.275-.083l1.564-.71s1.28-.961 3.304 0c0 0 9.264 3.951 6.98 6.193 0 0-.992 1.238-4.158-1.143a9.207 9.207 0 0 0-1.985-1.16c-.981-.411-3.31-.799-4.136-.388"/>
  <path stroke="#231F20" stroke-miterlimit="10" d="M203.461 229.621s2.007 1.882 2.445 4.401c0 0 .106.844.061 1.554-.044.722-.776 1.238-1.452.994-.4-.144-.81-.522-1.065-1.371l-.959-2.348-2.451.533s.693 3.574-.321 3.846c0 0-1.602.639-2.451-2.564-.005.011-1.58 1.921-5.106 2.348 0 0-8.632.039-10.734-.916a1.178 1.178 0 0 0-.793-.05l-2.084.55a1.207 1.207 0 0 0-.898 1.132.554.554 0 0 1-.361.505l-1.447.494-1.829-10.356 4.69-1.493s2.772-1.282 5.544-.211l13.545 1.282s1.563-1.399 2.811-1.016c.421.128.876.1 1.275-.083l1.564-.71s1.28-.961 3.304 0c0 0 9.264 3.951 6.98 6.193 0 0-.992 1.238-4.158-1.143a9.207 9.207 0 0 0-1.985-1.16c-.981-.411-3.31-.799-4.136-.388"/>
  <path stroke="#231F20" stroke-linecap="round" stroke-linejoin="round" d="M200.039 233.378s-.488-.883-1.419-1.615l-1.569-1.371s-1.708-1.604-3.094.322m3.31 3.947-2.029-1.493"/>
  <path stroke="#231F20" stroke-linecap="round" stroke-linejoin="round" d="m202.491 232.845-2.451-1.865a.35.35 0 0 0-.427.006l-.965.788"/>
  <path fill="#56C96E" stroke="#231F20" stroke-miterlimit="10" d="M17.686 304.603a62.27 62.27 0 0 0 .604 4.84s5.983-19.586 25.637-17.061l-3.859-8.513-3.193-3.197c-6.41 3.33-12.613 2.325-16.855 10.933-1.98 4.018-2.722 8.531-2.328 12.993l-.006.005ZM73.1 285.85c-17.735.023-20.39-26.145-2.466-47.929a.091.091 0 0 1 .16.072c-.71 7.42 21.069 34.032 6.798 46.215a6.92 6.92 0 0 1-4.491 1.642Z"/>
  <path fill="#56C96E" stroke="#231F20" stroke-miterlimit="10" d="M72.026 276.076c-11.194-6.649-8.666-26.584 24.494-38.344a.08.08 0 0 1 .106.094c-.377 1.082-2.573 8.136-3.726 28.033-.305 5.305-7.878 17.932-20.869 10.212l-.005.005Z"/>
  <path fill="#231F20" stroke="#231F20" stroke-miterlimit="10" d="M83.606 319.767c.504 3.918-26.053 3.918-25.548 0-.505-3.918 26.052-3.918 25.548 0Z"/>
  <path fill="#F7C27E" stroke="#231F20" stroke-miterlimit="10" d="M84.655 354.489c-1.147-.172-30.388.5-30.46-.544-5.76-2.736-6.004-11.666-6.004-11.666-.87-11.915 9.869-18.309 9.869-18.309v-4.212c-.505 3.924 26.052 3.918 25.548 0v4.506c14.06 9.235 11.21 29.287 1.047 30.225Z"/>
  <path fill="#fff" d="M84.478 329.499c.033 2.264-3.515 2.264-3.482 0-.033-2.264 3.515-2.264 3.482 0Zm5.227 5.231c.033 2.264-3.515 2.264-3.482 0-.033-2.265 3.515-2.265 3.482 0Zm.871 8.429c.033 2.265-3.515 2.265-3.482 0-.033-2.264 3.515-2.264 3.482 0Zm-4.645 6.391c.034 2.264-3.515 2.264-3.481 0-.034-2.265 3.514-2.265 3.481 0Zm-14.226 1.746c.033 2.264-3.515 2.264-3.482 0-.033-2.264 3.515-2.264 3.482 0ZM60.67 349.55c.033 2.264-3.516 2.264-3.482 0-.034-2.265 3.515-2.265 3.481 0Zm-6.094-4.938c.033 2.265-3.515 2.265-3.482 0-.033-2.264 3.515-2.264 3.482 0Zm.871-9.882c.033 2.264-3.515 2.264-3.482 0-.033-2.265 3.515-2.265 3.482 0Zm6.387-5.813c.033 2.264-3.516 2.264-3.482 0-.033-2.264 3.515-2.264 3.482 0Zm5.804 5.234c.033 2.265-3.515 2.265-3.482 0-.033-2.264 3.515-2.264 3.482 0Zm-6.672 4.645c.034 2.264-3.515 2.264-3.481 0-.034-2.264 3.515-2.264 3.481 0Zm5.805 5.816c.033 2.265-3.515 2.265-3.482 0-.033-2.264 3.515-2.264 3.482 0Zm6.387-4.945c.033 2.264-3.515 2.264-3.482 0-.033-2.264 3.515-2.264 3.482 0Zm1.156-9.879c.033 2.265-3.515 2.265-3.482 0-.033-2.264 3.515-2.264 3.482 0Zm5.23 6.106c.034 2.264-3.514 2.264-3.481 0-.034-2.265 3.515-2.265 3.481 0Zm4.063 4.066c.033 2.264-3.515 2.264-3.482 0-.033-2.264 3.515-2.264 3.482 0Zm-5.805 5.813c.034 2.264-3.515 2.264-3.482 0-.033-2.265 3.516-2.265 3.482 0Z"/>
  <path fill="#56C96E" stroke="#231F20" stroke-miterlimit="10" d="M99.282 300.146c-9.575-7.809-23.186 2.908-9.58 16.272 0 0 6.969 6.394 9.868 13.076 0 0 13.357-9.59 13.645-22.666 0 0 0-13.37-13.933-6.682Zm-81.27-1.615c15.041-26.545 21.467.755 44.11-3.03.344-30.519-43.778-29.232-44.11 3.03Z"/>
  <path stroke="#231F20" stroke-linecap="round" stroke-linejoin="round" d="M58.059 323.977s10.717 5.505 25.548.288m-10.084-14.369s6.31-26.517 22.36-13.658c2.257 1.809 3.67 4.473 4.358 7.282 1.065 4.356 2.418 12.287.715 19.952"/>
  <path stroke="#231F20" stroke-linecap="round" stroke-linejoin="round" d="M94.02 240.125s-29.645 21.467-19.554 79.558m-44.782-38.518s39.109-.633 40.367 37.884"/>
  <path fill="#E3E4E5" stroke="#231F20" stroke-miterlimit="10" d="M413.131 325.715h-8.893v16.05h8.893v-16.05Zm39.297 0h-8.893v16.05h8.893v-16.05Z"/>
  <path fill="#E3E4E5" stroke="#231F20" stroke-miterlimit="10" d="M384.691 229.496h70.978a2.687 2.687 0 0 1 2.683 2.686v90.853a2.687 2.687 0 0 1-2.683 2.686h-70.978v-96.225Z"/>
  <path fill="#fff" stroke="#231F20" stroke-miterlimit="10" d="M440.26 229.496h-66.381a2.685 2.685 0 0 0-2.684 2.686v90.853a2.685 2.685 0 0 0 2.684 2.686h66.381a2.685 2.685 0 0 0 2.684-2.686v-90.853a2.685 2.685 0 0 0-2.684-2.686Z"/>
  <path fill="#fff" stroke="#231F20" stroke-miterlimit="10" d="M386.432 325.715h-8.893v16.05h8.893v-16.05Zm51.141 0h-8.893v16.05h8.893v-16.05Z"/>
  <path fill="#E3E4E5" stroke="#231F20" stroke-miterlimit="10" d="M376.02 255.529v-18.553a2.885 2.885 0 0 1 2.883-2.886h56.34a2.885 2.885 0 0 1 2.883 2.886v18.553a2.885 2.885 0 0 1-2.883 2.886h-56.34a2.885 2.885 0 0 1-2.883-2.886Z"/>
  <path fill="#fff" stroke="#231F20" stroke-miterlimit="10" d="M407.07 249.143a2.885 2.885 0 0 0 2.884-2.886 2.884 2.884 0 1 0-5.766 0 2.884 2.884 0 0 0 2.882 2.886Z"/>
  <path fill="#E3E4E5" stroke="#231F20" stroke-miterlimit="10" d="M376.02 286.389v-18.554a2.885 2.885 0 0 1 2.883-2.886h56.34a2.885 2.885 0 0 1 2.883 2.886v18.554a2.886 2.886 0 0 1-2.883 2.886h-56.34a2.886 2.886 0 0 1-2.883-2.886Z"/>
  <path fill="#fff" stroke="#231F20" stroke-miterlimit="10" d="M407.07 279.995a2.885 2.885 0 0 0 0-5.772 2.884 2.884 0 0 0-2.882 2.886 2.884 2.884 0 0 0 2.882 2.886Z"/>
  <path fill="#E3E4E5" stroke="#231F20" stroke-miterlimit="10" d="M376.02 317.24v-18.553a2.885 2.885 0 0 1 2.883-2.886h56.34a2.885 2.885 0 0 1 2.883 2.886v18.553a2.885 2.885 0 0 1-2.883 2.886h-56.34a2.885 2.885 0 0 1-2.883-2.886Z"/>
  <path fill="#fff" stroke="#231F20" stroke-miterlimit="10" d="M407.07 310.846a2.885 2.885 0 0 0 2.884-2.886 2.884 2.884 0 1 0-5.766 0 2.884 2.884 0 0 0 2.882 2.886Z"/>
  <path fill="#56C96E" stroke="#231F20" stroke-miterlimit="10" d="M414.719 202.328s.648-14.885-.982-22.244a7.407 7.407 0 0 0-1.702-3.341c-3.326-3.746-13.661-15.168-22.437-22.539 0 0 8.222-1.714 15.984 2.975v5.028l1.713-4.001s9.592 5.716 8.677 21.378l-.455 15.085-.798 7.659Z"/>
  <path fill="#FF973F" stroke="#231F20" stroke-miterlimit="10" d="M398.445 214.733c0 7.22 5.168 13.403 12.264 14.685 8.112 1.449 15.857-3.963 17.304-12.077.155-.86.233-1.731.233-2.603 0-3.646-1.331-7.17-3.748-9.895l-16.145-.111-6.021-.044a14.881 14.881 0 0 0-3.887 10.05v-.005Z"/>
  <path fill="#56C96E" stroke="#231F20" stroke-miterlimit="10" d="M416.493 204.783v-1.355a6.548 6.548 0 0 1 1.951-4.739l22.571-22.206s-10.861-1.37-16.029 2.959l-.105 5.91-1.791-4.645s-9.702 4.118-8.854 24.065l2.257.016v-.005Zm-5.312-.042-1.236-10.112a3.445 3.445 0 0 0-.893-1.926c-3.232-3.463-16.023-17.027-23.447-23.182 0 0 8.566-.799 16.212 3.086l.227 5.372 1.713-4.118s8.339 4.69 8.566 21.018v9.851l-1.142.005v.006Z"/>
  <path fill="#F7C27E" stroke="#231F20" stroke-miterlimit="10" d="M241.27 135.575V30.182a2.417 2.417 0 0 1 2.417-2.42h99.902a2.417 2.417 0 0 1 2.417 2.42v105.393a2.417 2.417 0 0 1-2.417 2.42H300.05c-6.448 16.3-31.375 21.556-31.375 21.556 12.336-7.41 14.01-16.856 13.982-21.556h-38.97a2.417 2.417 0 0 1-2.417-2.42Z"/>
  <path fill="#fff" stroke="#231F20" stroke-miterlimit="10" d="M241.27 30.181v10.074h104.736V30.18a2.417 2.417 0 0 0-2.417-2.42h-99.902a2.417 2.417 0 0 0-2.417 2.42Z"/>
  <path fill="#E3E4E5" stroke="#231F20" stroke-miterlimit="10" d="M274.056 35.965h68.034v-3.918h-68.034v3.918Zm-28.873 0h25.942v-3.918h-25.942v3.918Z"/>
  <path fill="#fff" stroke="#231F20" stroke-miterlimit="10" d="M293.392 45.148h-41.111v37.235h41.111V45.148Z"/>
  <path fill="#F7C27E" stroke="#231F20" stroke-miterlimit="10" d="M284.586 58.868a4.404 4.404 0 0 0 4.402-4.407 4.404 4.404 0 0 0-4.402-4.406 4.404 4.404 0 0 0-4.402 4.406 4.404 4.404 0 0 0 4.402 4.407Z"/>
  <path fill="#5CA0C3" stroke="#231F20" stroke-miterlimit="10" d="M252.281 61.79v20.595h41.111V62.638c-3.859-.799-9.686-.527-15.175 5.54 0 0-6.365 8.818-13.212 1.47 0 0-6.947-7.881-12.724-7.859Z"/>
  <path stroke="#231F20" stroke-linecap="round" stroke-linejoin="round" d="M338.181 88.266h-40.622m40.622 5.39h-40.622m40.622 5.387h-40.622m40.622 5.391h-40.622m40.622 5.386h-40.622m40.622 5.391h-40.622m40.622 5.387h-40.622m40.622 5.39h-40.622m40.622 5.391h-40.622m-7.831-43.113h-40.623m40.623 5.39h-40.623m40.623 5.387h-40.623m40.623 5.391h-40.623m40.623 5.386h-40.623m40.623 5.391h-40.623m40.623 5.387h-40.623m40.623 5.39h-40.623m40.623 5.391h-40.623"/>
  <path fill="#fff" stroke="#231F20" stroke-miterlimit="10" d="M312.551 54.908s-.117.7.654 3.552l1.807 6.549 1.769 6.404 1.769-6.404 1.973-7.154c.494-2.353-.144-2.953-.144-2.953h6.038s-.693.428-1.392 1.982l2.246 8.125 1.768 6.404 1.769-6.404 1.974-7.154c.493-2.353-.145-2.953-.145-2.953h6.038s-1.125.7-1.962 3.558l-1.808 6.549-2.445 8.852h-4.103l-2.445-8.852-1.63-5.91-1.63 5.91-2.445 8.852h-4.103l-2.445-8.852-1.973-7.154c-.704-2.353-1.131-2.953-1.131-2.953h2.001l-.005.006Z"/>
</svg>
