<svg xmlns="http://www.w3.org/2000/svg" width="484" height="382" fill="none" viewBox="0 0 484 382">
  <path fill="#F69074" d="m381.516 338.367 2.269 14.186h24.185l-3.556-14.186h-22.898Z"/>
  <path fill="#002346" d="M407.963 352.872h-24.178a.313.313 0 0 1-.313-.268l-2.276-14.192a.311.311 0 0 1 .073-.257.314.314 0 0 1 .24-.112h22.899c.145 0 .274.101.307.241l3.556 14.191a.342.342 0 0 1-.056.274.314.314 0 0 1-.252.123Zm-23.91-.637h23.502l-3.393-13.554h-22.278l2.169 13.554Z"/>
  <path fill="#F69074" d="M446.521 338.366H309.079c-3.868.023-7.021-3.099-7.044-6.969 0-.263.011-.532.039-.795l8.71-82.834a7 7 0 0 1 7.005-6.287h137.822a6.679 6.679 0 0 1 6.641 7.384l-8.777 83.203a7.001 7.001 0 0 1-6.954 6.293v.005Z"/>
  <path fill="#002346" d="M309.029 338.686c-1.94 0-3.763-.75-5.143-2.115a7.274 7.274 0 0 1-2.175-5.168c0-.274.011-.554.039-.828l8.71-82.834a7.298 7.298 0 0 1 7.284-6.573h137.867c1.867 0 3.617.727 4.942 2.047a6.956 6.956 0 0 1 2.012 5.689l-8.777 83.204a7.308 7.308 0 0 1-7.267 6.578H309.029Zm8.721-96.886a6.663 6.663 0 0 0-6.653 6.002l-8.71 82.84a6.657 6.657 0 0 0 1.946 5.476 6.64 6.64 0 0 0 4.701 1.93h137.487a6.669 6.669 0 0 0 6.636-6.008l8.777-83.208c.022-.224.033-.454.033-.677a6.32 6.32 0 0 0-1.867-4.498 6.321 6.321 0 0 0-4.489-1.857H317.75Zm-158.485-2.03H75.207v117.247h84.058V239.77Z"/>
  <path fill="#F69074" d="M135.066 235.947h25.225a4.071 4.071 0 0 1 4.069 4.072v9.376a4.071 4.071 0 0 1-4.069 4.072h-25.225v-17.526.006Z"/>
  <path fill="#002346" d="M160.289 253.781h-25.224a.319.319 0 0 1-.319-.319v-17.526a.33.33 0 0 1 .386-.313h25.157a4.393 4.393 0 0 1 4.388 4.391v9.376a4.393 4.393 0 0 1-4.388 4.391Zm-24.906-.638h24.906a3.757 3.757 0 0 0 3.751-3.753v-9.376a3.757 3.757 0 0 0-3.751-3.753h-24.906v16.882Z"/>
  <path fill="#F69074" d="M137.682 235.949H70.68a3.112 3.112 0 0 0-3.114 3.116v11.294a3.112 3.112 0 0 0 3.114 3.116h24.268v-1.55a2.596 2.596 0 0 1 2.595-2.595h25.38a2.596 2.596 0 0 1 2.594 2.595v1.55h12.171a3.112 3.112 0 0 0 3.113-3.116v-11.294a3.112 3.112 0 0 0-3.113-3.116h-.006Z"/>
  <path fill="#002346" d="M137.682 253.787h-12.17a.319.319 0 0 1-.319-.319v-1.55a2.278 2.278 0 0 0-2.275-2.276H97.537a2.281 2.281 0 0 0-2.275 2.276v1.55a.32.32 0 0 1-.32.319H70.676a3.435 3.435 0 0 1-3.433-3.435v-11.288a3.434 3.434 0 0 1 3.433-3.435h67.007a3.435 3.435 0 0 1 3.433 3.435v11.288a3.435 3.435 0 0 1-3.433 3.435Zm-11.852-.638h11.852a2.797 2.797 0 0 0 2.795-2.797v-11.288a2.797 2.797 0 0 0-2.795-2.797H70.68a2.797 2.797 0 0 0-2.795 2.797v11.288a2.797 2.797 0 0 0 2.795 2.797h23.95v-1.231a2.915 2.915 0 0 1 2.913-2.914h25.38a2.915 2.915 0 0 1 2.913 2.914v1.231h-.006Z"/>
  <path fill="#002346" d="M73.935 246.147a1.913 1.913 0 1 0-.002-3.826 1.913 1.913 0 0 0 .002 3.826Z"/>
  <path fill="#000" d="M73.935 245.508a1.275 1.275 0 1 0-.001-2.55 1.275 1.275 0 0 0 0 2.55Z" opacity=".2"/>
  <path fill="#fff" d="M133.789 242.322c0 .705-.571 1.276-1.275 1.276H91.122a1.275 1.275 0 0 1 0-2.551h41.392c.704 0 1.275.57 1.275 1.275Z"/>
  <path fill="#002346" d="M132.52 243.915H91.128a1.597 1.597 0 0 1-1.593-1.594c0-.878.716-1.594 1.593-1.594h41.392c.878 0 1.594.716 1.594 1.594 0 .878-.716 1.594-1.594 1.594Zm-41.392-2.551a.96.96 0 0 0-.956.957c0 .526.43.956.956.956h41.392c.526 0 .956-.43.956-.956a.96.96 0 0 0-.956-.957H91.128Z"/>
  <path fill="#FBE493" d="M133.789 242.322c0 .705-.571 1.276-1.275 1.276h-32.475v-2.551h32.475c.704 0 1.275.57 1.275 1.275Z"/>
  <path fill="#002346" d="M132.52 243.915H99.727v-3.188h32.793c.878 0 1.594.716 1.594 1.594 0 .878-.716 1.594-1.594 1.594Zm-32.162-.638h32.162c.526 0 .956-.43.956-.956a.96.96 0 0 0-.956-.957h-32.162v1.913Z"/>
  <path fill="#fff" d="M133.789 246.143c0 .704-.571 1.275-1.275 1.275H91.122a1.275 1.275 0 0 1 0-2.551h41.392c.704 0 1.275.571 1.275 1.276Z"/>
  <path fill="#002346" d="M132.52 247.735H91.128a1.597 1.597 0 0 1-1.593-1.594c0-.878.716-1.594 1.593-1.594h41.392c.878 0 1.594.716 1.594 1.594 0 .878-.716 1.594-1.594 1.594Zm-41.392-2.55a.959.959 0 0 0-.956.956c0 .526.43.957.956.957h41.392a.96.96 0 0 0 .956-.957.959.959 0 0 0-.956-.956H91.128Z"/>
  <path fill="#E6E7E8" d="M133.79 246.143c0 .704-.571 1.275-1.275 1.275H94.941v-2.551h37.574c.704 0 1.275.571 1.275 1.276Z"/>
  <path fill="#002346" d="M132.521 247.735H94.629v-3.188h37.892c.878 0 1.593.716 1.593 1.594 0 .878-.715 1.594-1.593 1.594Zm-37.255-.637h37.255a.96.96 0 0 0 .956-.957.959.959 0 0 0-.956-.956H95.266v1.913Z"/>
  <path fill="#F69074" d="M135.066 256.342h25.225a4.07 4.07 0 0 1 4.069 4.072v9.375a4.071 4.071 0 0 1-4.069 4.073h-25.225v-17.526.006Z"/>
  <path fill="#002346" d="M160.289 274.174h-25.224a.319.319 0 0 1-.319-.319V256.33c0-.196.196-.347.386-.314h25.157a4.393 4.393 0 0 1 4.388 4.392v9.375a4.393 4.393 0 0 1-4.388 4.391Zm-24.906-.638h24.906a3.756 3.756 0 0 0 3.751-3.753v-9.375a3.757 3.757 0 0 0-3.751-3.754h-24.906v16.882Z"/>
  <path fill="#F69074" d="M137.682 256.34H70.68a3.112 3.112 0 0 0-3.114 3.116v11.294a3.111 3.111 0 0 0 3.114 3.115h24.268v-1.549a2.597 2.597 0 0 1 2.595-2.596h25.38a2.597 2.597 0 0 1 2.594 2.596v1.549h12.171a3.111 3.111 0 0 0 3.113-3.115v-11.294a3.112 3.112 0 0 0-3.113-3.116h-.006Z"/>
  <path fill="#002346" d="M137.682 274.179h-12.17a.319.319 0 0 1-.319-.319v-1.549a2.279 2.279 0 0 0-2.275-2.277H97.537a2.278 2.278 0 0 0-2.275 2.277v1.549a.32.32 0 0 1-.32.319H70.676a3.434 3.434 0 0 1-3.433-3.435V259.45a3.434 3.434 0 0 1 3.433-3.434h67.007a3.434 3.434 0 0 1 3.433 3.434v11.294a3.439 3.439 0 0 1-3.433 3.435Zm-11.852-.638h11.852a2.797 2.797 0 0 0 2.795-2.797V259.45a2.797 2.797 0 0 0-2.795-2.797H70.68a2.797 2.797 0 0 0-2.795 2.797v11.294a2.797 2.797 0 0 0 2.795 2.797h23.95v-1.23a2.915 2.915 0 0 1 2.913-2.915h25.38a2.916 2.916 0 0 1 2.913 2.915v1.23h-.006Z"/>
  <path fill="#002346" d="M73.935 266.537a1.912 1.912 0 1 0 0-3.824 1.912 1.912 0 0 0 0 3.824Z"/>
  <path fill="#000" d="M73.935 265.898a1.275 1.275 0 1 0 0-2.55 1.275 1.275 0 0 0 0 2.55Z" opacity=".2"/>
  <path fill="#fff" d="M133.789 262.713c0 .705-.571 1.275-1.275 1.275H91.122a1.274 1.274 0 1 1 0-2.55h41.392c.704 0 1.275.57 1.275 1.275Z"/>
  <path fill="#002346" d="M132.52 264.306H91.128a1.597 1.597 0 0 1-1.593-1.595c0-.878.716-1.594 1.593-1.594h41.392c.878 0 1.594.716 1.594 1.594 0 .879-.716 1.595-1.594 1.595Zm-41.392-2.551a.96.96 0 0 0-.956.956c0 .526.43.957.956.957h41.392a.96.96 0 0 0 .956-.957.96.96 0 0 0-.956-.956H91.128Z"/>
  <path fill="#FBE493" d="M133.789 262.713c0 .705-.571 1.275-1.275 1.275h-32.475v-2.55h32.475c.704 0 1.275.57 1.275 1.275Z"/>
  <path fill="#002346" d="M132.52 264.306H99.727v-3.189h32.793c.878 0 1.594.716 1.594 1.594 0 .879-.716 1.595-1.594 1.595Zm-32.162-.638h32.162a.96.96 0 0 0 .956-.957.96.96 0 0 0-.956-.956h-32.162v1.913Z"/>
  <path fill="#fff" d="M133.789 266.533c0 .705-.571 1.276-1.275 1.276H91.122a1.275 1.275 0 0 1 0-2.551h41.392c.704 0 1.275.57 1.275 1.275Z"/>
  <path fill="#002346" d="M132.52 268.126H91.128a1.597 1.597 0 0 1-1.593-1.594c0-.878.716-1.594 1.593-1.594h41.392c.878 0 1.594.716 1.594 1.594 0 .878-.716 1.594-1.594 1.594Zm-41.392-2.551a.96.96 0 0 0-.956.957c0 .526.43.956.956.956h41.392c.526 0 .956-.43.956-.956a.96.96 0 0 0-.956-.957H91.128Z"/>
  <path fill="#E6E7E8" d="M133.79 266.533c0 .705-.571 1.276-1.275 1.276H94.941v-2.551h37.574c.704 0 1.275.57 1.275 1.275Z"/>
  <path fill="#002346" d="M132.521 268.126H94.629v-3.188h37.892c.878 0 1.593.716 1.593 1.594 0 .878-.715 1.594-1.593 1.594Zm-37.255-.638h37.255c.526 0 .956-.43.956-.956a.96.96 0 0 0-.956-.957H95.266v1.913Z"/>
  <path fill="#F69074" d="M135.066 276.092h25.225a4.07 4.07 0 0 1 4.069 4.072v9.375a4.071 4.071 0 0 1-4.069 4.073h-25.225v-17.526.006Z"/>
  <path fill="#002346" d="M160.289 293.932h-25.224a.319.319 0 0 1-.319-.319v-17.526c0-.195.196-.346.386-.313h25.157a4.393 4.393 0 0 1 4.388 4.391v9.376a4.393 4.393 0 0 1-4.388 4.391Zm-24.906-.638h24.906a3.757 3.757 0 0 0 3.751-3.753v-9.376a3.757 3.757 0 0 0-3.751-3.753h-24.906v16.882Z"/>
  <path fill="#F69074" d="M137.682 276.092H70.68a3.111 3.111 0 0 0-3.114 3.115v11.289a3.112 3.112 0 0 0 3.114 3.116h24.268v-1.55a2.597 2.597 0 0 1 2.595-2.596h25.38a2.597 2.597 0 0 1 2.594 2.596v1.55h12.171a3.112 3.112 0 0 0 3.113-3.116v-11.294a3.112 3.112 0 0 0-3.113-3.116l-.006.006Z"/>
  <path fill="#002346" d="M137.682 293.935h-12.17a.319.319 0 0 1-.319-.319v-1.549a2.279 2.279 0 0 0-2.275-2.277H97.537a2.282 2.282 0 0 0-2.275 2.277v1.549c0 .174-.14.319-.32.319H70.676a3.434 3.434 0 0 1-3.433-3.435v-11.288a3.435 3.435 0 0 1 3.433-3.435h67.007a3.435 3.435 0 0 1 3.433 3.435V290.5a3.435 3.435 0 0 1-3.433 3.435Zm-11.852-.638h11.852a2.797 2.797 0 0 0 2.795-2.797v-11.288a2.797 2.797 0 0 0-2.795-2.797H70.68a2.797 2.797 0 0 0-2.795 2.797V290.5a2.797 2.797 0 0 0 2.795 2.797h23.95v-1.23a2.915 2.915 0 0 1 2.913-2.915h25.38a2.916 2.916 0 0 1 2.913 2.915v1.23h-.006Z"/>
  <path fill="#002346" d="M73.935 286.287a1.912 1.912 0 1 0 0-3.824 1.912 1.912 0 0 0 0 3.824Z"/>
  <path fill="#000" d="M73.935 285.652a1.275 1.275 0 1 0 0-2.55 1.275 1.275 0 0 0 0 2.55Z" opacity=".2"/>
  <path fill="#fff" d="M133.789 282.463c0 .705-.571 1.275-1.275 1.275H91.122a1.274 1.274 0 1 1 0-2.55h41.392c.704 0 1.275.57 1.275 1.275Z"/>
  <path fill="#002346" d="M132.52 284.056H91.128a1.597 1.597 0 0 1-1.593-1.595c0-.878.716-1.594 1.593-1.594h41.392c.878 0 1.594.716 1.594 1.594 0 .879-.716 1.595-1.594 1.595Zm-41.392-2.551a.96.96 0 0 0-.956.956c0 .526.43.957.956.957h41.392a.96.96 0 0 0 .956-.957.96.96 0 0 0-.956-.956H91.128Z"/>
  <path fill="#E6E7E8" d="M133.789 282.463c0 .705-.571 1.275-1.275 1.275h-32.475v-2.55h32.475c.704 0 1.275.57 1.275 1.275Z"/>
  <path fill="#002346" d="M132.52 284.058H99.727v-3.183h32.793c.878 0 1.594.716 1.594 1.594 0 .878-.716 1.595-1.594 1.595v-.006Zm-32.162-.638h32.162a.96.96 0 0 0 .956-.956.96.96 0 0 0-.956-.957h-32.162v1.913Z"/>
  <path fill="#fff" d="M133.789 286.287c0 .705-.571 1.276-1.275 1.276H91.122a1.275 1.275 0 0 1 0-2.551h41.392c.704 0 1.275.57 1.275 1.275Z"/>
  <path fill="#002346" d="M132.52 287.876H91.128a1.597 1.597 0 0 1-1.593-1.594c0-.878.716-1.594 1.593-1.594h41.392c.878 0 1.594.716 1.594 1.594 0 .878-.716 1.594-1.594 1.594Zm-41.392-2.551a.96.96 0 0 0-.956.957c0 .526.43.956.956.956h41.392c.526 0 .956-.43.956-.956a.96.96 0 0 0-.956-.957H91.128Z"/>
  <path fill="#FBE493" d="M133.79 286.287c0 .705-.571 1.276-1.275 1.276H94.941v-2.551h37.574c.704 0 1.275.57 1.275 1.275Z"/>
  <path fill="#002346" d="M132.521 287.876H94.629v-3.188h37.892c.878 0 1.593.716 1.593 1.594 0 .878-.715 1.594-1.593 1.594Zm-37.255-.638h37.255c.526 0 .956-.43.956-.956a.96.96 0 0 0-.956-.957H95.266v1.913Z"/>
  <path fill="#F69074" d="M135.066 296.478h25.225a4.071 4.071 0 0 1 4.069 4.073v9.375a4.07 4.07 0 0 1-4.069 4.072h-25.225v-17.525.005Z"/>
  <path fill="#002346" d="M160.289 314.319h-25.224a.319.319 0 0 1-.319-.319v-17.526c0-.196.196-.347.38-.313h25.163a4.393 4.393 0 0 1 4.388 4.391v9.375a4.393 4.393 0 0 1-4.388 4.392Zm-24.906-.638h24.906a3.757 3.757 0 0 0 3.751-3.754v-9.375a3.756 3.756 0 0 0-3.751-3.753h-24.906v16.882Z"/>
  <path fill="#F69074" d="M137.682 296.478H70.68a3.112 3.112 0 0 0-3.114 3.116v11.288a3.112 3.112 0 0 0 3.114 3.116h24.268v-1.549a2.597 2.597 0 0 1 2.595-2.596h25.38a2.597 2.597 0 0 1 2.594 2.596v1.549h12.171a3.112 3.112 0 0 0 3.113-3.116v-11.294a3.112 3.112 0 0 0-3.113-3.115l-.006.005Z"/>
  <path fill="#002346" d="M137.682 314.323h-12.17a.318.318 0 0 1-.319-.318v-1.55a2.279 2.279 0 0 0-2.275-2.277H97.537a2.278 2.278 0 0 0-2.275 2.277v1.55c0 .173-.14.318-.32.318H70.676a3.434 3.434 0 0 1-3.433-3.434v-11.294a3.434 3.434 0 0 1 3.433-3.435h67.007a3.435 3.435 0 0 1 3.433 3.435v11.294a3.434 3.434 0 0 1-3.433 3.434Zm-11.852-.637h11.852a2.797 2.797 0 0 0 2.795-2.797v-11.294a2.797 2.797 0 0 0-2.795-2.797H70.68a2.797 2.797 0 0 0-2.795 2.797v11.294a2.797 2.797 0 0 0 2.795 2.797h23.95v-1.231a2.915 2.915 0 0 1 2.913-2.914h25.38a2.915 2.915 0 0 1 2.913 2.914v1.231h-.006Z"/>
  <path fill="#002346" d="M73.935 306.678a1.913 1.913 0 1 0-.001-3.826 1.913 1.913 0 0 0 .001 3.826Z"/>
  <path fill="#000" d="M73.935 306.039a1.275 1.275 0 1 0 0-2.55 1.275 1.275 0 0 0 0 2.55Z" opacity=".2"/>
  <path fill="#fff" d="M133.789 302.854c0 .704-.571 1.275-1.275 1.275H91.122a1.275 1.275 0 0 1 0-2.551h41.392c.704 0 1.275.571 1.275 1.276Z"/>
  <path fill="#002346" d="M132.52 304.446H91.128a1.597 1.597 0 0 1-1.593-1.594c0-.878.716-1.594 1.593-1.594h41.392c.878 0 1.594.716 1.594 1.594 0 .878-.716 1.594-1.594 1.594Zm-41.392-2.55a.959.959 0 0 0-.956.956c0 .526.43.957.956.957h41.392a.96.96 0 0 0 .956-.957.959.959 0 0 0-.956-.956H91.128Z"/>
  <path fill="#FBE493" d="M133.789 302.854c0 .704-.571 1.275-1.275 1.275h-32.475v-2.551h32.475c.704 0 1.275.571 1.275 1.276Z"/>
  <path fill="#002346" d="M132.52 304.446H99.727v-3.188h32.793c.878 0 1.594.716 1.594 1.594 0 .878-.716 1.594-1.594 1.594Zm-32.162-.637h32.162a.96.96 0 0 0 .956-.957.959.959 0 0 0-.956-.956h-32.162v1.913Z"/>
  <path fill="#fff" d="M133.789 306.682c0 .704-.571 1.275-1.275 1.275H91.122a1.275 1.275 0 0 1 0-2.551h41.392c.704 0 1.275.571 1.275 1.276Z"/>
  <path fill="#002346" d="M132.52 308.274H91.128a1.597 1.597 0 0 1-1.593-1.594c0-.878.716-1.594 1.593-1.594h41.392c.878 0 1.594.716 1.594 1.594 0 .878-.716 1.594-1.594 1.594Zm-41.392-2.55a.959.959 0 0 0-.956.956c0 .526.43.957.956.957h41.392a.96.96 0 0 0 .956-.957.959.959 0 0 0-.956-.956H91.128Z"/>
  <path fill="#E6E7E8" d="M133.79 306.678c0 .705-.571 1.275-1.275 1.275H94.941v-2.551h37.574c.704 0 1.275.571 1.275 1.276Z"/>
  <path fill="#002346" d="M132.521 308.273H94.629v-3.183h37.892c.878 0 1.593.716 1.593 1.594 0 .878-.715 1.594-1.593 1.594v-.005Zm-37.255-.638h37.255a.96.96 0 0 0 .956-.957.96.96 0 0 0-.956-.956H95.266v1.913Z"/>
  <path fill="#F69074" d="M135.066 316.873h25.225a4.07 4.07 0 0 1 4.069 4.072v9.375a4.071 4.071 0 0 1-4.069 4.073h-25.225v-17.526.006Z"/>
  <path fill="#002346" d="M160.289 334.711h-25.224a.319.319 0 0 1-.319-.319v-17.526c0-.196.196-.352.38-.313h25.157a4.394 4.394 0 0 1 4.389 4.391v9.375a4.394 4.394 0 0 1-4.389 4.392h.006Zm-24.906-.638h24.906a3.757 3.757 0 0 0 3.751-3.754v-9.375a3.756 3.756 0 0 0-3.751-3.753h-24.906v16.882Z"/>
  <path fill="#F69074" d="M137.682 316.873H70.68a3.112 3.112 0 0 0-3.114 3.116v11.288a3.112 3.112 0 0 0 3.114 3.116h24.268v-1.55a2.596 2.596 0 0 1 2.595-2.595h25.38a2.596 2.596 0 0 1 2.594 2.595v1.55h12.171a3.112 3.112 0 0 0 3.113-3.116v-11.294a3.112 3.112 0 0 0-3.113-3.116l-.006.006Z"/>
  <path fill="#002346" d="M137.682 334.716h-12.17a.319.319 0 0 1-.319-.319v-1.549a2.279 2.279 0 0 0-2.275-2.277H97.537a2.282 2.282 0 0 0-2.275 2.277v1.549c0 .174-.14.319-.32.319H70.676a3.434 3.434 0 0 1-3.433-3.434v-11.289a3.434 3.434 0 0 1 3.433-3.434h67.007a3.434 3.434 0 0 1 3.433 3.434v11.289a3.434 3.434 0 0 1-3.433 3.434Zm-11.852-.637h11.852a2.797 2.797 0 0 0 2.795-2.797v-11.289a2.797 2.797 0 0 0-2.795-2.797H70.68a2.797 2.797 0 0 0-2.795 2.797v11.289a2.797 2.797 0 0 0 2.795 2.797h23.95v-1.231a2.915 2.915 0 0 1 2.913-2.914h25.38a2.915 2.915 0 0 1 2.913 2.914v1.231h-.006Z"/>
  <path fill="#002346" d="M73.935 327.068a1.912 1.912 0 1 0 0-3.824 1.912 1.912 0 0 0 0 3.824Z"/>
  <path fill="#000" d="M73.935 326.43a1.275 1.275 0 1 0-.001-2.55 1.275 1.275 0 0 0 0 2.55Z" opacity=".2"/>
  <path fill="#fff" d="M133.789 323.248c0 .705-.571 1.275-1.275 1.275H91.122a1.274 1.274 0 1 1 0-2.55h41.392c.704 0 1.275.57 1.275 1.275Z"/>
  <path fill="#002346" d="M132.52 324.837H91.128a1.597 1.597 0 0 1-1.593-1.594c0-.879.716-1.595 1.593-1.595h41.392c.878 0 1.594.716 1.594 1.595 0 .878-.716 1.594-1.594 1.594Zm-41.392-2.551a.96.96 0 0 0-.956.957c0 .526.43.956.956.956h41.392c.526 0 .956-.43.956-.956a.96.96 0 0 0-.956-.957H91.128Z"/>
  <path fill="#FBE493" d="M133.789 323.248c0 .705-.571 1.275-1.275 1.275h-32.475v-2.55h32.475c.704 0 1.275.57 1.275 1.275Z"/>
  <path fill="#002346" d="M132.52 324.837H99.727v-3.189h32.793c.878 0 1.594.716 1.594 1.595 0 .878-.716 1.594-1.594 1.594Zm-32.162-.638h32.162c.526 0 .956-.43.956-.956a.96.96 0 0 0-.956-.957h-32.162v1.913Z"/>
  <path fill="#fff" d="M133.789 327.068c0 .705-.571 1.276-1.275 1.276H91.122a1.275 1.275 0 0 1 0-2.551h41.392c.704 0 1.275.571 1.275 1.275Z"/>
  <path fill="#002346" d="M132.52 328.661H91.128a1.597 1.597 0 0 1-1.593-1.594c0-.878.716-1.594 1.593-1.594h41.392c.878 0 1.594.716 1.594 1.594 0 .878-.716 1.594-1.594 1.594Zm-41.392-2.551a.96.96 0 0 0-.956.957c0 .526.43.956.956.956h41.392c.526 0 .956-.43.956-.956a.96.96 0 0 0-.956-.957H91.128Z"/>
  <path fill="#E6E7E8" d="M133.79 327.068c0 .705-.571 1.276-1.275 1.276H94.941v-2.551h37.574c.704 0 1.275.571 1.275 1.275Z"/>
  <path fill="#002346" d="M132.521 328.661H94.629v-3.188h37.892c.878 0 1.593.716 1.593 1.594 0 .878-.715 1.594-1.593 1.594Zm-37.255-.638h37.255c.526 0 .956-.43.956-.956a.96.96 0 0 0-.956-.957H95.266v1.913Z"/>
  <path fill="#F69074" d="M135.066 337.263h25.225a4.071 4.071 0 0 1 4.069 4.073v9.375a4.07 4.07 0 0 1-4.069 4.072h-25.225v-17.525.005Z"/>
  <path fill="#002346" d="M160.289 355.097h-25.224a.319.319 0 0 1-.319-.319v-17.525c0-.196.196-.353.386-.313h25.157a4.393 4.393 0 0 1 4.388 4.391v9.375a4.393 4.393 0 0 1-4.388 4.391Zm-24.906-.637h24.906a3.757 3.757 0 0 0 3.751-3.754v-9.375a3.757 3.757 0 0 0-3.751-3.754h-24.906v16.883Z"/>
  <path fill="#F69074" d="M137.682 337.263H70.68a3.112 3.112 0 0 0-3.114 3.116v11.289a3.111 3.111 0 0 0 3.114 3.115h24.268v-1.549a2.597 2.597 0 0 1 2.595-2.596h25.38a2.597 2.597 0 0 1 2.594 2.596v1.549h12.171a3.111 3.111 0 0 0 3.113-3.115v-11.294a3.112 3.112 0 0 0-3.113-3.116l-.006.005Z"/>
  <path fill="#002346" d="M137.682 355.103h-12.17a.319.319 0 0 1-.319-.319v-1.549a2.279 2.279 0 0 0-2.275-2.277H97.537a2.282 2.282 0 0 0-2.275 2.277v1.549c0 .174-.14.319-.32.319H70.676a3.434 3.434 0 0 1-3.433-3.435V340.38a3.435 3.435 0 0 1 3.433-3.435h67.007a3.435 3.435 0 0 1 3.433 3.435v11.288a3.435 3.435 0 0 1-3.433 3.435Zm-11.852-.638h11.852a2.797 2.797 0 0 0 2.795-2.797V340.38a2.797 2.797 0 0 0-2.795-2.797H70.68a2.797 2.797 0 0 0-2.795 2.797v11.288a2.797 2.797 0 0 0 2.795 2.797h23.95v-1.23a2.915 2.915 0 0 1 2.913-2.915h25.38a2.916 2.916 0 0 1 2.913 2.915v1.23h-.006Z"/>
  <path fill="#002346" d="M73.935 347.459a1.913 1.913 0 1 0-.001-3.826 1.913 1.913 0 0 0 .001 3.826Z"/>
  <path fill="#000" d="M73.935 346.82a1.275 1.275 0 1 0 0-2.55 1.275 1.275 0 0 0 0 2.55Z" opacity=".2"/>
  <path fill="#fff" d="M133.789 343.639c0 .704-.571 1.275-1.275 1.275H91.122a1.275 1.275 0 0 1 0-2.551h41.392c.704 0 1.275.571 1.275 1.276Z"/>
  <path fill="#002346" d="M132.52 345.228H91.128a1.597 1.597 0 0 1-1.593-1.595c0-.878.716-1.594 1.593-1.594h41.392c.878 0 1.594.716 1.594 1.594 0 .879-.716 1.595-1.594 1.595Zm-41.392-2.551a.959.959 0 0 0-.956.956c0 .526.43.957.956.957h41.392a.96.96 0 0 0 .956-.957.959.959 0 0 0-.956-.956H91.128Z"/>
  <path fill="#FBE493" d="M133.789 343.639c0 .704-.571 1.275-1.275 1.275h-32.475v-2.551h32.475c.704 0 1.275.571 1.275 1.276Z"/>
  <path fill="#002346" d="M132.52 345.226H99.727v-3.183h32.793c.878 0 1.594.716 1.594 1.594 0 .878-.716 1.594-1.594 1.594v-.005Zm-32.162-.638h32.162a.96.96 0 0 0 .956-.956.96.96 0 0 0-.956-.957h-32.162v1.913Z"/>
  <path fill="#fff" d="M133.789 347.459c0 .705-.571 1.275-1.275 1.275H91.122a1.274 1.274 0 1 1 0-2.55h41.392c.704 0 1.275.57 1.275 1.275Z"/>
  <path fill="#002346" d="M132.52 349.052H91.128a1.597 1.597 0 0 1-1.593-1.594c0-.879.716-1.595 1.593-1.595h41.392c.878 0 1.594.716 1.594 1.595 0 .878-.716 1.594-1.594 1.594Zm-41.392-2.551a.96.96 0 0 0-.956.957c0 .525.43.956.956.956h41.392a.96.96 0 0 0 .956-.956.96.96 0 0 0-.956-.957H91.128Z"/>
  <path fill="#E6E7E8" d="M133.79 347.459c0 .705-.571 1.275-1.275 1.275H94.941v-2.55h37.574c.704 0 1.275.57 1.275 1.275Z"/>
  <path fill="#002346" d="M132.521 349.052H94.629v-3.189h37.892c.878 0 1.593.716 1.593 1.595 0 .878-.715 1.594-1.593 1.594Zm-37.255-.638h37.255a.96.96 0 0 0 .956-.956.96.96 0 0 0-.956-.957H95.266v1.913Z"/>
  <path fill="#fff" d="m304.459 328.173 8.553-79.248c.364-3.127 3.254-5.499 6.731-5.499h132.405c3.818 0 6.781 3.009 6.367 6.461l-7.592 78.286h-146.47.006Z"/>
  <path fill="#002346" d="M451.219 328.49H304.105l.04-.352 8.553-79.248c.38-3.301 3.41-5.785 7.05-5.785h132.404c2.041 0 3.947.828 5.227 2.277 1.135 1.281 1.655 2.898 1.459 4.542l-7.619 78.566Zm-146.404-.637h145.822l7.564-78.001c.173-1.472-.285-2.909-1.303-4.05-1.162-1.309-2.89-2.059-4.751-2.059H319.742c-3.31 0-6.071 2.243-6.412 5.219l-8.515 78.896v-.005Z"/>
  <path fill="#F69074" d="M344.28 284.202a2.22 2.22 0 0 1-2.214-2.232c0-.598.246-1.174.677-1.588 6.105-5.818 22.289-19.299 40.687-18.773 1.493-.034 18.32.05 37.361 18.644a2.23 2.23 0 0 1-2.979 3.317c-.045-.045-.09-.084-.135-.134-18.051-17.632-34.018-17.369-34.18-17.38h-.139c-17.197-.487-33.113 13.302-37.574 17.548-.408.386-.95.598-1.509.598h.005Z"/>
  <path fill="#002346" d="M344.279 284.52a2.526 2.526 0 0 1-1.795-.75 2.543 2.543 0 0 1 .039-3.619c6.139-5.851 22.412-19.394 40.917-18.862 1.828-.04 18.538.145 37.573 18.734.498.447.794 1.068.833 1.75a2.561 2.561 0 0 1-.648 1.841 2.504 2.504 0 0 1-1.761.839 2.535 2.535 0 0 1-1.839-.649c-.056-.05-.107-.101-.157-.151-17.012-16.614-32.229-17.263-33.906-17.28h-.173c-17.118-.475-32.923 13.247-37.35 17.465a2.551 2.551 0 0 1-1.728.688l-.005-.006Zm38.11-22.61c-17.845 0-33.465 13.017-39.43 18.7-.363.352-.576.85-.581 1.359 0 .509.195.99.553 1.348.358.364.833.56 1.342.565.481 0 .939-.184 1.291-.514 4.473-4.257 20.439-18.141 37.798-17.632h.128c1.75.022 17.202.677 34.398 17.475a1.902 1.902 0 0 0 1.504.61 1.901 1.901 0 0 0 1.319-.632c.341-.381.515-.867.487-1.382a1.892 1.892 0 0 0-.632-1.32c-18.857-18.415-35.321-18.6-37.143-18.561a33.151 33.151 0 0 0-1.045-.016h.011Z"/>
  <path fill="#F69074" d="M358.87 298.086a2.22 2.22 0 0 1-2.225-2.221c0-.52.178-1.018.508-1.421 2.309-2.83 10.823-12.105 23.201-12.743 8.944-.475 17.861 3.603 26.487 12.105.878.862.895 2.277.028 3.155a2.225 2.225 0 0 1-3.153.028c-7.698-7.596-15.474-11.249-23.122-10.829-10.555.559-17.962 8.665-19.991 11.131-.425.509-1.063.8-1.728.789l-.005.006Z"/>
  <path fill="#002346" d="M358.903 298.405h-.039a2.55 2.55 0 0 1-2.544-2.54c0-.587.207-1.164.582-1.622 2.331-2.853 10.912-12.217 23.429-12.861 9.04-.486 18.03 3.62 26.723 12.201.486.475.754 1.113.76 1.795a2.53 2.53 0 0 1-.732 1.813 2.522 2.522 0 0 1-1.795.761 2.572 2.572 0 0 1-1.811-.733c-7.642-7.535-15.34-11.149-22.882-10.741-10.393.554-17.755 8.57-19.762 11.015a2.512 2.512 0 0 1-1.934.906l.005.006Zm-.033-.638h.033c.559 0 1.085-.246 1.448-.677 2.046-2.495 9.565-10.679 20.215-11.244 7.726-.43 15.592 3.256 23.363 10.925.363.358.855.543 1.358.548.509 0 .99-.207 1.347-.57.358-.364.554-.845.548-1.359a1.898 1.898 0 0 0-.57-1.349c-8.559-8.446-17.386-12.485-26.247-12.015-12.254.632-20.679 9.823-22.971 12.625-.28.341-.436.772-.436 1.22 0 1.051.855 1.902 1.906 1.902l.006-.006Z"/>
  <path fill="#F69074" d="M391.324 309.404c-.682 0-1.33-.314-1.75-.856-1.912-2.417-3.986-3.72-6.188-3.877-3.712-.257-7.234 2.713-8.576 4.005a2.23 2.23 0 1 1-3.086-3.188c2.197-2.115 6.675-5.622 11.98-5.236 3.511.241 6.67 2.115 9.381 5.572.76.967.593 2.366-.375 3.126a2.173 2.173 0 0 1-1.375.448l-.011.006Z"/>
  <path fill="#002346" d="M373.1 309.796a2.532 2.532 0 0 1-1.638-.605 2.533 2.533 0 0 1-.894-1.734 2.523 2.523 0 0 1 .956-2.209c2.219-2.137 6.781-5.695 12.198-5.309 3.606.252 6.837 2.165 9.61 5.689a2.552 2.552 0 0 1-.431 3.575 2.528 2.528 0 0 1-1.576.514 2.525 2.525 0 0 1-2.001-.979c-1.856-2.344-3.858-3.608-5.96-3.753-3.589-.241-7.027 2.657-8.335 3.921a2.505 2.505 0 0 1-1.711.873c-.073.005-.145.011-.218.011v.006Zm9.795-9.242c-4.831 0-8.9 3.2-10.958 5.175-.123.1-.212.184-.29.285a1.9 1.9 0 0 0 .223 2.691c.391.33.883.486 1.392.447a1.894 1.894 0 0 0 1.297-.671c1.392-1.343 4.998-4.38 8.844-4.123 2.287.157 4.445 1.505 6.418 3.994.363.465.911.733 1.498.733h.051c.408 0 .81-.134 1.135-.38a1.917 1.917 0 0 0 .318-2.68c-2.655-3.378-5.736-5.213-9.151-5.448-.263-.017-.52-.028-.777-.028v.005Z"/>
  <path fill="#F69074" d="M416.906 352.555h-77.691v3.82h77.691v-3.82Z"/>
  <path fill="#002346" d="M416.904 356.7h-77.691a.318.318 0 0 1-.318-.318v-3.821c0-.173.139-.319.318-.319h77.691a.32.32 0 0 1 .319.319v3.821c0 .173-.14.318-.319.318Zm-77.372-.637h77.053v-3.189h-77.053v3.189Z"/>
  <path fill="#F69074" d="m220.891 339.577.139 14.98a1.78 1.78 0 0 0 1.773 1.784h22.579a.81.81 0 0 0 .492-1.454l-10.594-8.139a2.27 2.27 0 0 1-.877-1.79l.173-5.868-13.68.487h-.005Z"/>
  <path fill="#002346" d="M245.381 356.661h-22.575a2.09 2.09 0 0 1-1.487-.621 2.08 2.08 0 0 1-.609-1.482l-.14-14.975c0-.174.134-.313.308-.319l13.68-.487c.089 0 .173.028.234.095a.33.33 0 0 1 .096.235l-.174 5.868c0 .588.28 1.164.755 1.527l10.594 8.14a1.129 1.129 0 0 1-.682 2.025v-.006Zm-24.173-16.776.139 14.673a1.458 1.458 0 0 0 1.454 1.465h22.58c.128 0 .251-.05.346-.145a.488.488 0 0 0-.05-.739L235.078 347a2.579 2.579 0 0 1-1.001-2.041l.162-5.538-13.031.458v.006Z"/>
  <path fill="#fff" d="M164.998 291.695h-2.549v59.793h2.549v-59.793Z"/>
  <path fill="#002346" d="M165.315 351.806h-3.186v-60.431h3.186v60.431Zm-2.549-.638h1.912v-59.155h-1.912v59.155Z"/>
  <path fill="#FBE493" d="M236.032 339.094h-4.394l-26.521-77.139s27.522-6.601 28.506 14.98l2.415 62.159h-.006Z"/>
  <path fill="#002346" d="M236.364 339.407h-4.954l-.072-.213-26.639-77.469.341-.084c.146-.034 14.664-3.424 23.027 2.869 3.645 2.747 5.624 6.92 5.87 12.402l2.427 62.489v.006Zm-4.501-.638h3.835L233.3 276.94c-.24-5.286-2.13-9.297-5.618-11.921-7.413-5.582-19.925-3.305-22.15-2.836l26.331 76.586Z"/>
  <path fill="#F69074" d="m156.08 258.124 35.986.789s3.422-3.423 5.865-30.8a23.84 23.84 0 0 1 5.372-3.91s-3.421-19.556-15.15-21.027l-17.588.979s-11.723-1.466-14.647 13.688l-6.585 31.784a7.069 7.069 0 0 0 6.742 8.503l.005-.006Z"/>
  <path fill="#002346" d="M192.067 259.231h-.005l-35.986-.789a7.487 7.487 0 0 1-1.32-.151 7.326 7.326 0 0 1-4.668-3.178 7.343 7.343 0 0 1-1.056-5.554l6.585-31.785c2.868-14.874 14.273-14.012 14.966-13.94l17.565-.979h.056c11.83 1.483 15.284 20.48 15.424 21.291a.322.322 0 0 1-.162.335 23.332 23.332 0 0 0-5.216 3.776c-2.426 27.075-5.803 30.739-5.948 30.878a.314.314 0 0 1-.224.096h-.011Zm-35.98-1.427 35.829.789c.503-.727 3.511-6.008 5.702-30.509a.32.32 0 0 1 .095-.202 24.137 24.137 0 0 1 5.239-3.854c-.431-2.165-4.137-19.17-14.804-20.54l-17.559.978h-.056c-.464-.055-11.466-1.236-14.295 13.431l-6.586 31.79a6.715 6.715 0 0 0 .967 5.074 6.7 6.7 0 0 0 4.266 2.903c.397.084.805.129 1.207.14h-.005Z"/>
  <path fill="#F2B3C1" d="m196.461 241.243 11.773 6.035 13.814 3.62s2.399-1.175 4.288 0l1.392 1.655h2.024l-1.493-3.306s.017-.033.028-.022l2.857 2.864 2.443-4.402s-2.935-3.91-6.367-3.91a17.418 17.418 0 0 1-5.373-1.953l-16.262-10.757-2.298-6.852a23.392 23.392 0 0 0-5.373 3.91s-.967 9.129-1.453 13.106v.012Z"/>
  <path fill="#002346" d="M230.209 252.849h-2.616l-1.454-1.723c-1.722-1.035-3.941.028-3.964.039l-.1.05-.106-.028-13.87-3.641-11.958-6.126.022-.201c.481-3.927 1.442-13.011 1.453-13.101l.012-.106.078-.073a23.825 23.825 0 0 1 5.439-3.96l.308-.163 2.376 7.082 16.179 10.701a17.17 17.17 0 0 0 5.266 1.908h.005c3.483 0 6.418 3.86 6.541 4.027l.112.151-2.728 4.912-2.063-2.07 1.057 2.338.011-.016Zm-2.342-.588h1.431l-1.409-3.116.414-.302.195.179 2.583 2.59 2.164-3.893c-.571-.699-3.142-3.647-6.016-3.647a17.793 17.793 0 0 1-5.518-1.986l-16.368-10.824-2.22-6.618a23.2 23.2 0 0 0-4.925 3.625c-.106 1.013-.962 9.006-1.414 12.805l11.566 5.923 13.68 3.586c.498-.218 2.672-1.057 4.467.062l.067.061 1.308 1.55-.005.005Z"/>
  <path fill="#F2B3C1" d="M174.967 191.445v11.831c0 .929.268 1.835.788 2.602.956 1.404 2.745 3.608 5.054 4.614a5.98 5.98 0 0 0 5.221-.207c1.118-.604 2.141-1.689 2.119-3.658v-6.601l-13.188-8.581h.006Z"/>
  <path fill="#002346" d="M183.212 211.288c-.86 0-1.716-.173-2.521-.526-2.437-1.068-4.293-3.418-5.177-4.721a4.864 4.864 0 0 1-.838-2.769v-12.374l13.775 8.967v6.763c.017 1.746-.772 3.099-2.276 3.916a6.244 6.244 0 0 1-2.963.744Zm-7.949-19.299v11.294c0 .873.251 1.712.738 2.434.85 1.253 2.622 3.501 4.931 4.514a5.704 5.704 0 0 0 4.964-.196c1.319-.716 1.979-1.857 1.968-3.395v-6.445l-12.601-8.2v-.006Z"/>
  <path fill="#F2B3C1" d="M196.459 193.401a17.008 17.008 0 0 1-2.08 5.812 6.467 6.467 0 0 1-6.965 2.886c-6.491-1.471-11.176-9.191-11.176-9.191l.134-2.355 2.416-1.527s5.456-1.001 6.44-7.842c0 0 7.044 5.414 11.824 4.564a47.581 47.581 0 0 1-.587 7.658l-.006-.005Z"/>
  <path fill="#002346" d="M188.885 202.565a6.636 6.636 0 0 1-1.543-.179c-6.535-1.483-11.164-9.001-11.36-9.325l-.044-.079.145-2.601 2.644-1.65c.213-.039 5.266-1.057 6.2-7.596l.073-.498.397.307c.067.056 6.999 5.32 11.594 4.509l.341-.061v.346a48.096 48.096 0 0 1-.587 7.709 17.15 17.15 0 0 1-2.119 5.912 6.762 6.762 0 0 1-5.747 3.206h.006Zm-12.349-9.728c.508.8 4.992 7.63 10.94 8.978a6.172 6.172 0 0 0 6.653-2.752 16.422 16.422 0 0 0 2.04-5.7c.381-2.4.576-4.845.582-7.272-4.221.492-9.795-3.273-11.321-4.38-1.112 6.164-5.943 7.462-6.535 7.596l-2.242 1.421-.117 2.115v-.006Z"/>
  <path fill="#FBE493" d="m156.081 258.125-2.125 13.974s-1.956 13.693 10.745 14.18h29.741l17.197 54.764 21.987-1.052-13.194-60.537s-.972-14.18-13.679-17.111l-14.647-3.424-36.02-.794h-.005Z"/>
  <path fill="#002346" d="m211.403 341.368-17.196-54.776H164.7c-3.667-.139-6.49-1.37-8.396-3.658-3.556-4.262-2.695-10.612-2.662-10.88l2.17-14.253 36.366.811 14.647 3.423c12.785 2.948 13.914 17.252 13.925 17.397l13.267 60.856-22.608 1.08h-.006Zm-16.961-55.408h.234l.073.224 17.118 54.529 21.367-1.024-13.115-60.167c-.017-.185-1.118-14.024-13.44-16.866l-14.613-3.412-35.707-.789-2.085 13.7c-.011.061-.855 6.338 2.521 10.382 1.789 2.142 4.456 3.295 7.922 3.429h29.725v-.006Z"/>
  <path fill="#F69074" d="M213.703 341.049v13.509c0 .984.788 1.779 1.772 1.784h22.58a.812.812 0 0 0 .492-1.454l-10.594-8.139a2.27 2.27 0 0 1-.877-1.79v-4.654l-13.367.738-.006.006Z"/>
  <path fill="#002346" d="M238.054 356.66h-22.575a2.098 2.098 0 0 1-2.096-2.103v-13.51c0-.167.134-.307.302-.318l13.367-.739a.305.305 0 0 1 .234.084.332.332 0 0 1 .101.229v4.655c0 .598.279 1.174.755 1.538l10.594 8.139a1.13 1.13 0 0 1-.682 2.025Zm-24.034-15.31v13.207a1.46 1.46 0 0 0 1.454 1.465h22.58c.128 0 .251-.05.346-.145a.487.487 0 0 0-.05-.739l-10.6-8.139a2.599 2.599 0 0 1-1-2.041v-4.313l-12.73.705Z"/>
  <path fill="#E6E7E8" d="M146.626 286.289h34.197c2.158 0 3.908 1.773 3.908 3.966 0 2.193-1.75 3.966-3.908 3.966h-34.197c-2.157 0-3.907-1.773-3.907-3.966 0-2.193 1.75-3.966 3.907-3.966Z"/>
  <path fill="#002346" d="M180.823 294.539h-34.196c-2.332 0-4.232-1.925-4.232-4.285 0-2.361 1.895-4.285 4.232-4.285h34.196c2.332 0 4.232 1.924 4.232 4.285 0 2.36-1.895 4.285-4.232 4.285Zm-34.196-7.933c-1.98 0-3.59 1.634-3.59 3.648 0 2.013 1.61 3.647 3.59 3.647h34.196c1.979 0 3.589-1.634 3.589-3.647 0-2.014-1.61-3.648-3.589-3.648h-34.196Z"/>
  <path fill="#E6E7E8" d="M156.394 350.699h15.144c3.517 0 6.368 2.892 6.368 6.461h-27.863c0-3.558 2.84-6.45 6.351-6.461Z"/>
  <path fill="#002346" d="M178.223 357.478h-28.5v-.319c0-3.726 2.991-6.769 6.669-6.78h15.145c3.689 0 6.686 3.043 6.686 6.78v.319Zm-27.852-.644h27.203c-.167-3.233-2.812-5.817-6.037-5.817h-15.145c-3.22.011-5.853 2.59-6.021 5.817Z"/>
  <path fill="#fff" d="m263.611 356.872-58.263-94.989 3.919 1.739 56.508 91.908-2.164 1.342Z"/>
  <path fill="#002346" d="m263.511 357.308-.168-.274-58.8-95.862 4.942 2.198.05.084 56.676 92.182-2.705 1.672h.005Zm-57.352-94.721 57.559 93.843 1.621-1.001-56.29-91.555-2.89-1.281v-.006Z"/>
  <path fill="#fff" d="m206.687 357.018-2.164-1.354 57.454-92.047 3.874-1.734-59.164 95.135Z"/>
  <path fill="#002346" d="m206.786 357.455-2.7-1.689.168-.269 57.503-92.131 4.909-2.198-59.885 96.287h.005Zm-1.822-1.89 1.621 1.012 58.448-93.977-2.834 1.27-57.235 91.7v-.005Z"/>
  <path fill="#F69074" d="m247.764 220.781-19.03 35.689h40.201l19.204-35.689h-40.375Z"/>
  <path fill="#002346" d="M268.942 256.788h-40.201a.31.31 0 0 1-.274-.157.313.313 0 0 1-.006-.313l19.03-35.689a.31.31 0 0 1 .28-.168h40.374a.32.32 0 0 1 .274.157.313.313 0 0 1 .005.313l-19.197 35.689a.324.324 0 0 1-.28.168h-.005Zm-39.67-.638h39.48l18.856-35.051h-39.647l-18.689 35.051Z"/>
  <path fill="#fff" d="M213.992 256.47v-3.289c0-.353.285-.638.638-.638h16.212l-2.091 3.91-14.759.011v.006Z"/>
  <path fill="#002346" d="M213.672 256.787v-3.608c0-.526.43-.956.956-.956h16.743l-2.426 4.547-15.273.012v.005Zm.956-3.927a.323.323 0 0 0-.319.319v2.971l14.25-.012 1.75-3.278h-15.681Zm-15.417-68.354a2.605 2.605 0 0 1-1.051.901 4.389 4.389 0 0 1-1.113.335c-4.779.856-11.823-4.564-11.823-4.564-.979 6.841-6.441 7.842-6.441 7.842l-2.415 1.527-1.409.89v6.371h-7.642c-1.313 0-2.102-3.91-2.102-3.91h-.972l-.52 3.894h-2.93c-2.443-2.932-2.594-8.067-2.594-8.067 1.32-10.024 8.917-10.505 8.917-10.505a6.53 6.53 0 0 1 1.465-5.376c4.886-5.376 11.242-.492 11.242-.492 8.794-3.424 17.101 3.423 17.101 3.423 4.523 3.379 3.17 6.467 2.292 7.731h-.005Z"/>
  <path fill="#002346" d="M175.283 198.134h-7.961c-1.359 0-2.125-2.864-2.359-3.91h-.436l-.52 3.894h-3.355l-.095-.112c-2.487-2.982-2.661-8.05-2.666-8.262 1.179-8.979 7.34-10.539 8.872-10.791a6.828 6.828 0 0 1 1.587-5.314c4.613-5.079 10.522-1.343 11.528-.644 8.805-3.306 17.168 3.463 17.258 3.536 4.763 3.557 3.237 6.886 2.353 8.156-.29.436-.699.788-1.179 1.007-.38.173-.783.296-1.197.363-4.232.761-10.029-3.144-11.645-4.307-1.129 6.131-5.926 7.434-6.546 7.574l-3.628 2.299v6.517l-.011-.006Zm-11.316-4.547h1.515l.051.257c.296 1.477 1.073 3.658 1.789 3.658h7.323v-6.231l4.081-2.557c.213-.039 5.244-1.051 6.183-7.574l.079-.537.43.33c.067.051 6.983 5.314 11.578 4.503.363-.061.71-.168 1.04-.313.369-.173.687-.442.917-.783.961-1.387 1.956-4.179-2.22-7.3-.095-.078-8.279-6.69-16.794-3.379l-.167.067-.14-.106c-.252-.19-6.183-4.643-10.812.453a6.186 6.186 0 0 0-1.386 5.107l.061.347-.352.022c-.302.023-7.352.599-8.621 10.232 0 0 .174 4.878 2.427 7.708h2.499l.519-3.893v-.011Z"/>
  <path fill="#F69074" d="M172.515 179.435s3.421-5.588 7.329-6.08l-1.448-.878s-7.351 1.79-5.887 6.958h.006Z"/>
  <path fill="#002346" d="M172.517 179.755h-.045a.317.317 0 0 1-.263-.229c-.374-1.315-.234-2.54.403-3.642 1.56-2.674 5.54-3.669 5.713-3.714a.305.305 0 0 1 .241.039l1.448.878a.321.321 0 0 1-.129.593c-3.718.465-7.066 5.874-7.1 5.93a.317.317 0 0 1-.274.151l.006-.006Zm5.836-6.936c-.676.19-3.913 1.191-5.188 3.384a3.824 3.824 0 0 0-.492 2.417c.962-1.393 3.427-4.57 6.318-5.41l-.643-.391h.005Z"/>
  <path fill="#F2B3C1" d="M175.699 192.909a3.175 3.175 0 0 0 3.175-3.177 3.175 3.175 0 1 0-6.351 0 3.176 3.176 0 0 0 3.176 3.177Z"/>
  <path fill="#002346" d="M175.698 193.205a3.478 3.478 0 0 1-3.471-3.473 3.479 3.479 0 0 1 3.471-3.474 3.48 3.48 0 0 1 3.472 3.474 3.48 3.48 0 0 1-3.472 3.473Zm0-6.36a2.889 2.889 0 0 0-2.884 2.887 2.885 2.885 0 1 0 5.769 0 2.885 2.885 0 0 0-2.885-2.887Z"/>
  <path fill="#F2B3C1" d="m162.262 235.033 4.88 11.663s4.4 11.171 15.15 10.477c10.751-.693 25.051-.699 25.051-.699l4.26-2.439s6.837 3.424 7.329.487c0 0 1.465.979 2.438.492 0 0 .978-.492 0-1.275.497.33 1.123.397 1.682.184a1.018 1.018 0 0 0 .526-1.566 9.308 9.308 0 0 0-2.7-2.238l-3.908-2.936s-4.4-2.931-10.259.979c0 0-17.106-3.91-23.452-5.376l-7.821-14.181-13.176 6.433v-.005Z"/>
  <path fill="#002346" d="M181.347 257.491c-10.147 0-14.434-10.584-14.479-10.696l-4.981-11.909 13.674-6.679 7.894 14.309c6.127 1.415 21.668 4.968 23.2 5.32 5.904-3.871 10.432-.94 10.477-.912l3.924 2.948a9.507 9.507 0 0 1 2.751 2.282 1.31 1.31 0 0 1-.666 2.031 2.065 2.065 0 0 1-1.045.117.892.892 0 0 1 0 .179c-.05.493-.537.75-.593.778-.81.408-1.856-.028-2.392-.308-.14.347-.386.61-.733.789-1.794.912-5.931-.984-6.764-1.387l-4.193 2.4h-.078c-.146 0-14.418.016-25.034.699-.325.022-.649.033-.962.033v.006Zm-18.706-22.32 4.769 11.406c.045.118 4.45 10.959 14.86 10.299 10.225-.66 23.832-.7 24.995-.7l4.327-2.478.139.073c1.297.649 4.97 2.17 6.379 1.454.296-.151.47-.397.531-.76l.073-.448.38.252c.369.246 1.47.811 2.141.475.067-.033.257-.167.274-.313.011-.123-.101-.291-.324-.47l.346-.475c.42.279.945.335 1.415.156a.728.728 0 0 0 .397-1.118 9.02 9.02 0 0 0-2.605-2.154l-3.947-2.959c-.162-.106-4.305-2.758-9.918.99l-.106.073-.123-.028s-17.107-3.91-23.452-5.376l-.129-.028-7.748-14.046-12.674 6.192v-.017Z"/>
  <path fill="#E6E7E8" d="M287.343 256.469h-105.05v7.826h105.05v-7.826Z"/>
  <path fill="#002346" d="M287.656 264.608H181.969v-8.463h105.687v8.463Zm-105.05-.638h104.413v-7.188H182.606v7.188Zm207.328-26.919h-.637v3.82h.637v-3.82Zm0-7.451h-.637v-7.44h.637v7.44Zm0-14.885h-.637v-7.44h.637v7.44Zm0-14.886h-.637v-7.44h.637v7.44Zm0-14.891h-.637v-7.439h.637v7.439Zm0-14.885h-.637v-7.44h.637v7.44Zm.001-14.886h-.637v-3.502h-3.505v-.638h4.142v4.14Zm-12.098-3.502h-7.955v-.638h7.955v.638Zm-15.922 0h-7.938v-.638h7.955l-.011.638h-.006Zm-15.921 0h-7.928v-.638h7.956l-.028.638Zm-15.879.003h-4.142v-4.145h.637v3.508h3.505v.637Zm-3.505-12.504h-.637v-8.363h.637v8.363Zm0-16.72h-.637v-8.374h.637v8.374Zm0-16.72h-.637v-8.363h.637v8.363Zm0-16.72h-.637V80.64h.637v8.362Zm.003-16.714h-.637v-3.508h-3.499v-.638h4.136v4.146ZM76.22 198.085h-.638l.04-7.731h.636l-.039 7.731Zm.078-15.45h-.638l.04-7.731h.637l-.04 7.731Zm.078-15.456h-.637l.039-7.731h.637l-.04 7.731Zm.078-15.456h-.637l.033-7.697h.638l-.034 7.697Zm.078-15.45h-.637l.04-7.725h.636l-.039 7.725Zm.079-15.456h-.638l.04-7.731h.637l-.04 7.731Zm.078-15.45h-.637l.039-7.731h.637l-.04 7.731Zm.078-15.456h-.637l.039-7.73h.637l-.039 7.73Zm1.225-15.12-.576-.286a11.644 11.644 0 0 1 5.646-5.364l.263.587a10.987 10.987 0 0 0-5.34 5.068l.007-.005Zm236.772-5.997h-7.742v-.638h7.726l.016.638Zm-15.44 0h-7.726v-.638h7.726v.638Zm-15.447 0h-7.726v-.638h7.726v.638Zm-15.446 0h-7.721v-.638h7.721v.638Zm-15.441 0h-7.732v-.638h7.726v.638h.006Zm-15.441 0h-7.726v-.638h7.726v.638Zm-15.446 0h-7.721v-.638h7.721v.638Zm-15.441 0h-7.726v-.638h7.726v.638Zm-15.447 0h-7.709v-.638h7.726l-.011.638h-.006Zm-15.441 0h-7.726v-.638h7.726v.638Zm-15.446 0h-7.726v-.638h7.726v.638Zm-15.447 0h-7.726v-.638h7.726v.638Zm-15.44 0h-7.699v-.638h7.727l-.028.638Zm-15.447 0h-7.726v-.638h7.726v.638Zm-15.446 0h-7.72v-.638h7.72v.638ZM79.666 209.971h-4.143l.023-4.151.637.006-.011 3.507h3.494v.638Zm33.11-.001h-8.28v-.638h8.28v.638Zm-16.559 0h-8.28v-.638h8.28v.638Zm28.98 3.501h-.637v-3.501h-3.505v-.638h4.142v4.139Zm.003 8.924h-.638v3.82h.638v-3.82Z"/>
  <path fill="#fff" d="M132.514 170.314H21.711c3.818-26.124 21.652-17.845 21.652-17.845 2.55-7.646 9.643-6.556 9.643-6.556a39.985 39.985 0 0 1 .638-7.831 12.328 12.328 0 0 1 2.46-5.348 11.592 11.592 0 0 1 8.553-4.458c10.823-.531 16.905 14.018 16.905 14.018a10.523 10.523 0 0 1 6.636-3.395 13.948 13.948 0 0 1 10.824 3.127c5.635 4.732 4.813 11.736 4.813 11.736 7.005 2.55 6.367 7.646 6.367 7.646 17.219-8.939 22.312 8.9 22.312 8.9v.006Z"/>
  <path fill="#002346" d="M132.941 170.634H21.344l.056-.364c1.336-9.151 4.528-15.148 9.481-17.827 5.255-2.842 10.901-.94 12.294-.392 2.336-6.472 8.005-6.578 9.509-6.483a40.613 40.613 0 0 1 .648-7.541 12.706 12.706 0 0 1 2.522-5.487 11.928 11.928 0 0 1 9.364-4.599c9.498 0 15.312 11.384 16.436 13.789a10.83 10.83 0 0 1 6.507-3.149 14.272 14.272 0 0 1 11.064 3.2c5.092 4.279 5.025 10.449 4.947 11.769 5.574 2.12 6.289 5.913 6.356 7.339 5.11-2.539 9.661-2.981 13.541-1.314 6.445 2.78 8.665 10.326 8.76 10.65l.117.409h-.005Zm-110.86-.638H132.08c-.559-1.605-2.935-7.535-8.269-9.834-3.807-1.639-8.335-1.124-13.456 1.533l-.537.28.073-.599c.022-.196.503-4.883-6.161-7.306l-.234-.084.028-.251c.005-.067.732-6.892-4.702-11.456a13.635 13.635 0 0 0-10.577-3.055 10.224 10.224 0 0 0-6.44 3.295l-.336.369-.195-.464c-.062-.145-6.139-14.343-16.599-13.823-3.27.174-6.3 1.751-8.318 4.336a12.007 12.007 0 0 0-2.398 5.208 39.734 39.734 0 0 0-.632 7.764v.375l-.37-.056c-.279-.045-6.859-.951-9.29 6.343l-.112.336-.325-.151c-.061-.028-6.317-2.859-12.053.246-4.701 2.545-7.76 8.262-9.095 16.989v.005Z"/>
  <path fill="#E6E7E8" d="M137.403 170.315h-4.887s-5.092-17.845-22.289-8.922c0 0 .638-5.096-6.367-7.647 0 0 .822-7.009-4.814-11.736a13.906 13.906 0 0 0-10.823-3.127 10.51 10.51 0 0 0-6.647 3.395s-6.071-14.566-16.905-14.018a11.652 11.652 0 0 0-8.554 4.458c.24-.637 4.814-12.01 17.834-8.922 0 0 7.642 1.276 11.46 12.743 0 0 8.436-8.285 18.225 0 0 0 4.702 3.821 5.339 11.467 0 0 5.73 2.551 6.368 7.647-.012 0 18.672-10.197 22.065 14.656l-.005.006Z"/>
  <path fill="#002346" d="M137.766 170.634h-5.49l-.067-.23c-.023-.072-2.237-7.591-8.408-10.253-3.802-1.639-8.319-1.125-13.429 1.527l-.536.28.072-.599c.023-.196.503-4.883-6.16-7.306l-.235-.084.028-.251c.005-.067.732-6.897-4.702-11.456a13.646 13.646 0 0 0-10.577-3.055 10.206 10.206 0 0 0-6.457 3.295l-.335.369-.196-.464c-.061-.145-6.11-14.343-16.598-13.823-3.27.174-6.3 1.751-8.319 4.341l-1.302 1.667.749-1.974c.19-.504 4.841-12.296 18.202-9.118.297.05 7.654 1.398 11.54 12.502 1.76-1.471 9.542-7.087 18.285.313.191.157 4.736 3.933 5.434 11.501.962.465 5.496 2.887 6.318 7.379 1.224-.672 4.198-1.628 6.596-1.846 5.954-.549 13.49 1.957 15.536 16.938l.051.363v-.016Zm-5.015-.638h4.282c-1.123-7.759-3.874-12.782-8.19-14.925-6.11-3.037-13.277.823-13.35.862l-.156-.274-.319.039c-.609-4.861-6.127-7.367-6.183-7.395l-.173-.078-.017-.191c-.621-7.423-5.177-11.21-5.222-11.249-9.453-7.999-17.464-.347-17.8-.022l-.363.358-.162-.481c-3.718-11.16-11.136-12.519-11.215-12.531-9.721-2.304-14.641 3.597-16.53 6.814a11.935 11.935 0 0 1 7.29-2.987c9.85-.493 15.876 11.316 17.017 13.772a10.846 10.846 0 0 1 6.518-3.15 14.276 14.276 0 0 1 11.064 3.2c5.093 4.274 5.026 10.449 4.947 11.77 5.574 2.12 6.29 5.912 6.357 7.339 5.098-2.534 9.638-2.971 13.506-1.304 5.898 2.546 8.263 9.09 8.693 10.427l.006.006Z"/>
  <path fill="#FBE493" d="m87.26 175.785 2.729 1.018 1.599-4.341-2.785-1.052c.23-1.728.068-3.485-.486-5.141l2.834-1.314-2.163-4.212-3.019 1.393a12.547 12.547 0 0 0-3.22-2.652l1.208-3.256-4.518-1.689-1.274 3.384a12.353 12.353 0 0 0-4.534.191l-1.314-2.775-4.344 1.84 1.37 2.887a11.07 11.07 0 0 0-2.846 3.015l-2.756-1.035-1.599 4.341 2.734 1.018a11.298 11.298 0 0 0 .168 4.458l-3.31 1.539 2.164 4.212 3.13-1.455a12.386 12.386 0 0 0 3.293 3.116l-1.118 2.959 4.517 1.69 1.057-2.853c1.504.302 3.052.319 4.567.05l1.236 2.596 4.338-1.841-1.18-2.478a11.41 11.41 0 0 0 3.528-3.619l-.006.006Zm-13.238 1.314c-4.181-1.846-6.077-6.74-4.232-10.925a8.281 8.281 0 0 1 10.918-4.234 8.286 8.286 0 0 1 4.294 10.779 8.347 8.347 0 0 1-10.963 4.386s-.011 0-.017-.006Z"/>
  <path fill="#002346" d="m73.9 184.35-5.116-1.913 1.146-3.015a12.759 12.759 0 0 1-3.007-2.842l-3.176 1.471-2.454-4.777 3.377-1.566a11.596 11.596 0 0 1-.151-4.073l-2.79-1.04 1.817-4.94 2.818 1.058a11.46 11.46 0 0 1 2.571-2.725l-1.398-2.948 4.931-2.092 1.336 2.82a12.45 12.45 0 0 1 4.149-.174l1.296-3.446 5.11 1.914-1.23 3.306a12.923 12.923 0 0 1 2.913 2.399l3.08-1.426 2.454 4.777-2.879 1.331c.47 1.533.621 3.172.442 4.761l2.846 1.074-1.817 4.939-2.784-1.04a11.816 11.816 0 0 1-3.254 3.345l1.202 2.528-4.925 2.092-1.264-2.651a12.777 12.777 0 0 1-4.176-.039l-1.073 2.903.005-.011Zm-4.294-2.283 3.919 1.466 1.04-2.808.268.05c1.47.291 2.969.308 4.45.051l.24-.045 1.208 2.534 3.751-1.594-1.157-2.434.235-.151a11.017 11.017 0 0 0 3.427-3.518l.14-.224 2.672 1.001 1.38-3.742-2.722-1.029.034-.252a11.234 11.234 0 0 0-.47-5.001l-.09-.268 2.79-1.293-1.873-3.647-2.957 1.371-.157-.179a12.37 12.37 0 0 0-3.141-2.585l-.235-.134 1.19-3.211-3.918-1.465-1.253 3.328-.251-.039a11.978 11.978 0 0 0-4.417.184l-.251.056-1.292-2.73-3.756 1.595 1.341 2.825-.212.156c-1.101.8-2.03 1.785-2.767 2.926l-.14.218-2.7-1.012-1.376 3.742 2.678 1.001-.039.257a11 11 0 0 0 .162 4.336l.062.251-3.248 1.505 1.872 3.647 3.092-1.432.156.213a12.103 12.103 0 0 0 3.21 3.037l.218.14-1.102 2.898-.011.005Zm7.715-3.954a8.665 8.665 0 0 1-3.416-.705h-.017a8.588 8.588 0 0 1-4.545-4.772 8.538 8.538 0 0 1 .151-6.584c1.912-4.341 7-6.31 11.338-4.397 4.254 1.88 6.255 6.903 4.455 11.194a8.608 8.608 0 0 1-4.752 4.637 8.701 8.701 0 0 1-3.22.627h.006Zm-3.17-1.298a7.95 7.95 0 0 0 6.15.078 7.967 7.967 0 0 0 4.4-4.296c1.66-3.972-.19-8.62-4.126-10.36-4.014-1.773-8.727.051-10.5 4.073a7.91 7.91 0 0 0-.14 6.091 7.903 7.903 0 0 0 4.21 4.408l-.128.291.134-.291v.006Z"/>
  <path fill="#fff" d="M407.582 96.188H239.566c5.798-39.616 32.828-27.058 32.828-27.058 3.863-11.596 14.647-9.94 14.647-9.94a61.247 61.247 0 0 1 1.006-11.876 18.638 18.638 0 0 1 3.673-8.105v-.04a17.637 17.637 0 0 1 12.97-6.785c16.43-.794 25.632 21.29 25.632 21.29a15.963 15.963 0 0 1 10.063-5.146 21.116 21.116 0 0 1 16.436 4.738c8.548 7.183 7.307 17.8 7.307 17.8 10.616 3.865 9.654 11.596 9.654 11.596 26.08-13.526 33.8 13.526 33.8 13.526Z"/>
  <path fill="#002346" d="M408.009 96.5h-168.81l.056-.363c2.024-13.823 6.832-22.874 14.295-26.912 8.128-4.391 16.878-1.248 18.655-.526 3.578-10.164 12.579-10.019 14.513-9.868a61.327 61.327 0 0 1 1.018-11.579 19.034 19.034 0 0 1 3.65-8.134v-.028l.084-.117a17.945 17.945 0 0 1 13.205-6.908c15.155-.744 24.307 17.889 25.744 21.038a16.247 16.247 0 0 1 9.928-4.894 21.481 21.481 0 0 1 16.677 4.81c7.843 6.596 7.553 16.161 7.435 17.828 8.839 3.317 9.627 9.403 9.649 11.283 7.782-3.921 14.703-4.626 20.579-2.087 9.705 4.19 13.16 15.937 13.193 16.055l.118.408.011-.005Zm-168.072-.637h167.211c-.699-2.087-4.294-11.613-12.707-15.243-5.814-2.507-12.719-1.73-20.512 2.315l-.536.28.072-.599c.04-.307.789-7.529-9.447-11.26l-.235-.084.028-.252c.011-.106 1.118-10.533-7.195-17.514a20.837 20.837 0 0 0-16.19-4.67 15.63 15.63 0 0 0-9.867 5.045l-.336.369-.196-.464c-.089-.213-8.983-21.112-24.48-21.112a17.3 17.3 0 0 0-13.518 6.612l-.011.056-.045.056a18.428 18.428 0 0 0-3.611 7.966 61.085 61.085 0 0 0-1.001 11.814v.375l-.369-.056c-.43-.067-10.566-1.471-14.295 9.728l-.112.335-.324-.15c-.095-.045-9.649-4.375-18.415.374-7.211 3.9-11.891 12.676-13.909 26.073v.006Z"/>
  <path fill="#E6E7E8" d="M414.994 96.19h-7.407s-7.726-27.058-33.795-13.526c0 0 .962-7.73-9.654-11.596 0 0 1.241-10.617-7.307-17.8a21.116 21.116 0 0 0-16.436-4.738 15.99 15.99 0 0 0-10.063 5.147s-9.202-22.085-25.632-21.29a17.66 17.66 0 0 0-12.981 6.785c.369-.957 7.306-18.214 27.018-13.515 0 0 11.584 1.913 17.381 19.321 0 0 12.791-12.558 27.639 0 0 0 7.128 5.801 8.095 17.397 0 0 8.688 3.86 9.655 11.59.006 0 28.338-15.455 33.481 22.225h.006Z"/>
  <path fill="#002346" d="M415.357 96.501h-8.012l-.067-.229c-.033-.118-3.41-11.585-12.835-15.652-5.814-2.506-12.713-1.728-20.506 2.316l-.537.28.073-.599c.039-.307.788-7.529-9.448-11.26l-.235-.084.028-.252c.011-.106 1.118-10.533-7.195-17.514a20.838 20.838 0 0 0-16.19-4.671 15.633 15.633 0 0 0-9.867 5.046l-.335.369-.196-.465c-.09-.212-8.984-21.11-24.481-21.11a17.294 17.294 0 0 0-13.579 6.685l-1.33 1.705.782-2.02c.291-.755 7.396-18.476 27.393-13.71.095.017 11.612 2.103 17.454 19.07 2.23-1.92 14.205-11.099 27.695.318.067.056 7.161 5.952 8.19 17.43 1.213.594 8.458 4.392 9.604 11.317 2.136-1.046 12.16-5.454 20.797-1.029 6.787 3.474 11.08 11.445 12.752 23.696l.05.363h-.005Zm-7.536-.637h6.803c-1.677-11.826-5.836-19.512-12.36-22.857-9.23-4.721-20.143.979-20.601 1.225l-.073.04h-.369l-.033-.275c-.934-7.457-9.381-11.3-9.471-11.339l-.173-.078-.017-.19c-.944-11.333-7.905-17.117-7.977-17.173-14.452-12.223-26.7-.526-27.215-.023l-.363.358-.162-.48c-5.669-17.029-17.012-19.087-17.129-19.11-15.698-3.736-23.229 6.713-25.711 11.3a17.93 17.93 0 0 1 11.707-5.202c15.155-.744 24.307 17.89 25.744 21.038a16.248 16.248 0 0 1 9.928-4.894 21.482 21.482 0 0 1 16.677 4.81c7.849 6.596 7.552 16.161 7.435 17.828 8.839 3.317 9.627 9.404 9.655 11.283 7.776-3.921 14.697-4.626 20.573-2.086 8.95 3.86 12.584 14.152 13.12 15.825h.012Z"/>
  <path fill="#FBE493" d="m342.816 101.076 4.288 1.6 2.515-6.813-4.377-1.634a18.049 18.049 0 0 0-.766-8.089l4.456-2.064-3.405-6.612-4.746 2.193a19.619 19.619 0 0 0-5.054-4.167l1.912-5.096-7.094-2.652-1.968 5.314a19.224 19.224 0 0 0-7.128.308l-2.063-4.358-6.826 2.892 2.153 4.537a17.946 17.946 0 0 0-4.456 4.733l-4.383-1.64-2.516 6.814 4.277 1.6a17.96 17.96 0 0 0 .263 6.97l-5.21 2.416 3.404 6.612 4.925-2.282a19.412 19.412 0 0 0 5.171 4.894l-1.727 4.671 7.094 2.652 1.655-4.458a19.52 19.52 0 0 0 7.184.072l1.912 4.084 6.82-2.892-1.85-3.905a17.725 17.725 0 0 0 5.54-5.694v-.006Zm-20.797 2.07c-6.552-2.909-9.509-10.578-6.602-17.134 2.907-6.556 10.572-9.515 17.124-6.607 6.445 2.859 9.431 10.344 6.725 16.855-2.868 6.662-10.583 9.744-17.247 6.886Z"/>
  <path fill="#002346" d="m321.752 114.288-7.693-2.875 1.75-4.732a19.733 19.733 0 0 1-4.886-4.621l-4.964 2.299-3.701-7.182 5.277-2.445a18.244 18.244 0 0 1-.246-6.584l-4.332-1.622 2.733-7.412 4.445 1.661a18.177 18.177 0 0 1 4.187-4.447l-2.186-4.604 7.413-3.143 2.085 4.402a19.483 19.483 0 0 1 6.737-.29l1.99-5.377 7.693 2.876-1.929 5.146a19.858 19.858 0 0 1 4.746 3.916l4.802-2.221 3.701 7.183-4.5 2.086a18.514 18.514 0 0 1 .721 7.703l4.439 1.656-2.734 7.411-4.338-1.616a18.156 18.156 0 0 1-5.266 5.42l1.878 3.955-7.407 3.144-1.94-4.145c-2.259.375-4.54.352-6.793-.062l-1.671 4.509-.011.011Zm-6.871-3.25 6.496 2.428 1.638-4.414.269.051c2.342.464 4.718.486 7.066.067l.24-.045 1.884 4.028 6.234-2.646-1.828-3.86.234-.151a17.498 17.498 0 0 0 5.44-5.594l.134-.224 4.232 1.578 2.292-6.215-4.316-1.611.034-.252a17.882 17.882 0 0 0-.749-7.943l-.09-.269 4.417-2.047-3.114-6.047-4.685 2.165-.157-.18a19.182 19.182 0 0 0-4.975-4.1l-.235-.134 1.895-5.051-6.496-2.428-1.945 5.258-.257-.039a18.84 18.84 0 0 0-7.011.302l-.251.056-2.041-4.313-6.239 2.646 2.124 4.475-.212.157a17.567 17.567 0 0 0-4.377 4.649l-.14.218-4.321-1.617-2.293 6.215 4.227 1.578-.039.257a17.525 17.525 0 0 0 .257 6.847l.061.251-5.143 2.383 3.114 6.047 4.88-2.265.157.212a19.017 19.017 0 0 0 5.087 4.811l.213.14-1.705 4.615-.006.011Zm12.294-6.511c-1.767 0-3.556-.347-5.278-1.085a13.212 13.212 0 0 1-7.016-7.379 13.203 13.203 0 0 1 .252-10.18 13.186 13.186 0 0 1 7.373-7.02 13.183 13.183 0 0 1 10.175.25c6.547 2.904 9.638 10.652 6.888 17.27-2.192 5.09-7.173 8.144-12.389 8.144h-.005Zm-5.021-1.673c6.491 2.78 14.032-.235 16.828-6.724 2.616-6.298-.33-13.671-6.564-16.434a12.594 12.594 0 0 0-9.688-.24 12.587 12.587 0 0 0-7.016 6.684 12.616 12.616 0 0 0-.24 9.694 12.583 12.583 0 0 0 6.68 7.02Z"/>
  <path fill="#fff" d="M445.197 179.702H334.395c3.818-26.124 21.651-17.845 21.651-17.845 2.55-7.647 9.644-6.556 9.644-6.556a40.015 40.015 0 0 1 .637-7.831 12.2 12.2 0 0 1 2.46-5.365 11.593 11.593 0 0 1 8.553-4.458c10.824-.531 16.906 14.018 16.906 14.018a10.523 10.523 0 0 1 6.636-3.395c3.885-.526 7.815.61 10.823 3.127 5.663 4.727 4.841 11.736 4.841 11.736 7.005 2.551 6.368 7.647 6.368 7.647 17.196-8.923 22.289 8.922 22.289 8.922h-.006Z"/>
  <path fill="#002346" d="M445.616 180.02H334.02l.055-.363c1.337-9.152 4.529-15.149 9.482-17.828 5.255-2.842 10.901-.94 12.293-.392 2.337-6.472 8.006-6.578 9.51-6.483a40.56 40.56 0 0 1 .648-7.54 12.64 12.64 0 0 1 2.521-5.505 11.926 11.926 0 0 1 8.783-4.581c9.834-.498 15.877 11.322 17.017 13.772a10.834 10.834 0 0 1 6.508-3.149 14.274 14.274 0 0 1 11.063 3.199c5.121 4.274 5.048 10.45 4.97 11.77 5.574 2.12 6.289 5.912 6.357 7.339 5.098-2.534 9.638-2.976 13.506-1.303 6.446 2.78 8.671 10.337 8.76 10.656l.118.408h.005Zm-110.859-.637h109.998c-.559-1.606-2.935-7.547-8.273-9.846-3.802-1.639-8.319-1.124-13.429 1.527l-.536.28.072-.598c.023-.196.503-4.884-6.16-7.306l-.235-.084.028-.252c.005-.067.726-6.897-4.73-11.456a13.655 13.655 0 0 0-10.577-3.06 10.164 10.164 0 0 0-6.44 3.295l-.336.369-.195-.464c-.062-.146-6.122-14.354-16.598-13.823a11.306 11.306 0 0 0-8.319 4.336 12.052 12.052 0 0 0-2.398 5.23 40.107 40.107 0 0 0-.632 7.764v.375l-.369-.056c-.279-.045-6.859-.951-9.291 6.344l-.112.335-.324-.151c-.062-.028-6.318-2.858-12.053.246-4.702 2.546-7.76 8.262-9.096 16.989l.005.006Z"/>
  <path fill="#E6E7E8" d="M450.074 179.705h-4.886s-5.093-17.844-22.289-8.922c0 0 .637-5.096-6.368-7.647 0 0 .822-7.009-4.813-11.736a13.914 13.914 0 0 0-10.823-3.127 10.516 10.516 0 0 0-6.648 3.396s-6.071-14.567-16.905-14.018a11.624 11.624 0 0 0-8.565 4.458c.241-.638 4.814-12.01 17.834-8.922 0 0 7.642 1.275 11.46 12.743 0 0 8.436-8.285 18.225 0 0 0 4.702 3.82 5.339 11.467 0 0 5.73 2.551 6.368 7.647 0 0 18.683-10.198 22.076 14.656l-.005.005Z"/>
  <path fill="#002346" d="M450.445 180.023h-5.49l-.067-.23c-.023-.072-2.236-7.591-8.408-10.248-3.802-1.639-8.319-1.124-13.429 1.527l-.536.28.072-.598c.023-.196.504-4.884-6.16-7.306l-.235-.084.028-.252c.006-.067.732-6.897-4.702-11.456a13.634 13.634 0 0 0-10.577-3.054 10.206 10.206 0 0 0-6.457 3.295l-.335.369-.196-.465c-.056-.139-5.892-13.839-16.028-13.839-.19 0-.38 0-.57.017a11.288 11.288 0 0 0-8.33 4.341l-1.302 1.667.749-1.975c.19-.503 4.841-12.295 18.202-9.118.297.051 7.654 1.399 11.539 12.502 1.761-1.471 9.543-7.087 18.286.314.191.156 4.736 3.932 5.434 11.501.962.464 5.49 2.886 6.318 7.372 1.649-.799 7.988-3.49 13.629-.637 4.54 2.293 7.407 7.591 8.52 15.735l.05.364-.005-.022Zm-5.015-.638h4.282c-1.118-7.72-3.846-12.726-8.117-14.885-6.11-3.094-13.367.788-13.439.827l-.409.224-.055-.464c-.61-4.861-6.128-7.367-6.184-7.395l-.173-.078-.017-.191c-.615-7.412-5.176-11.21-5.221-11.249-9.454-7.999-17.465-.347-17.8-.017l-.363.358-.163-.481c-3.717-11.16-11.136-12.519-11.214-12.53-9.722-2.305-14.641 3.597-16.531 6.813a11.938 11.938 0 0 1 7.301-2.987c9.845-.503 15.877 11.317 17.017 13.772a10.847 10.847 0 0 1 6.519-3.149 14.27 14.27 0 0 1 11.063 3.2c5.093 4.273 5.026 10.449 4.948 11.769 5.574 2.12 6.289 5.913 6.356 7.339 5.099-2.534 9.638-2.976 13.507-1.303 5.898 2.545 8.263 9.09 8.693 10.427Z"/>
  <path fill="#FBE493" d="m398.663 182.163 2.728 1.019 1.599-4.341-2.784-1.052a11.452 11.452 0 0 0-.487-5.141l2.835-1.314-2.164-4.212-3.019 1.392a12.553 12.553 0 0 0-3.22-2.651l1.208-3.256-4.517-1.689-1.275 3.384a12.375 12.375 0 0 0-4.534.19l-1.314-2.774-4.343 1.84 1.369 2.887a11.055 11.055 0 0 0-2.845 3.015l-2.756-1.035-1.599 4.341 2.734 1.018a11.29 11.29 0 0 0 .167 4.458l-3.309 1.539 2.163 4.212 3.131-1.455a12.367 12.367 0 0 0 3.293 3.116l-1.118 2.959 4.517 1.69 1.056-2.853c1.504.302 3.053.319 4.568.05l1.235 2.596 4.338-1.841-1.179-2.478a11.412 11.412 0 0 0 3.527-3.619l-.005.005Zm-13.238 1.315c-4.182-1.846-6.077-6.741-4.232-10.925a8.28 8.28 0 0 1 10.918-4.234 8.286 8.286 0 0 1 4.293 10.779 8.347 8.347 0 0 1-10.963 4.386s-.011 0-.016-.006Z"/>
  <path fill="#002346" d="m385.306 190.723-5.116-1.914 1.146-3.02a12.745 12.745 0 0 1-3.007-2.842l-3.176 1.471-2.454-4.777 3.377-1.566a11.595 11.595 0 0 1-.151-4.073l-2.79-1.04 1.817-4.939 2.818 1.057a11.44 11.44 0 0 1 2.571-2.724l-1.397-2.948 4.931-2.092 1.336 2.819a12.46 12.46 0 0 1 4.148-.174l1.297-3.445 5.109 1.913-1.229 3.306a12.937 12.937 0 0 1 2.912 2.399l3.081-1.426 2.454 4.777-2.879 1.332c.469 1.532.62 3.166.441 4.76l2.846 1.074-1.817 4.934-2.784-1.041a11.699 11.699 0 0 1-3.254 3.34l1.202 2.528-4.925 2.092-1.263-2.651a12.778 12.778 0 0 1-4.176-.039l-1.074 2.903.006.006Zm-4.294-2.283 3.919 1.466 1.04-2.808.268.05c1.471.291 2.969.308 4.45.05l.241-.044 1.207 2.539 3.751-1.594-1.157-2.433.235-.151a11.011 11.011 0 0 0 3.427-3.519l.14-.224 2.672 1.002 1.381-3.743-2.723-1.029.034-.252a11.246 11.246 0 0 0-.47-5.001l-.089-.268 2.789-1.292-1.872-3.647-2.958 1.364-.156-.179a12.39 12.39 0 0 0-3.142-2.584l-.235-.134 1.191-3.211-3.919-1.466-1.252 3.329-.252-.039a11.954 11.954 0 0 0-4.416.184l-.252.056-1.291-2.73-3.757 1.595 1.342 2.824-.213.157a10.933 10.933 0 0 0-2.767 2.926l-.14.218-2.7-1.007-1.381 3.742 2.678 1.002-.039.257a10.99 10.99 0 0 0 .162 4.335l.061.252-3.248 1.505 1.873 3.647 3.092-1.432.156.212a12.116 12.116 0 0 0 3.209 3.038l.218.14-1.101 2.897h-.006Zm7.704-3.96a8.639 8.639 0 0 1-3.405-.699h-.016c-4.339-1.925-6.306-7.015-4.395-11.35a8.549 8.549 0 0 1 4.758-4.548 8.546 8.546 0 0 1 6.58.151c4.254 1.879 6.256 6.903 4.456 11.193a8.69 8.69 0 0 1-7.978 5.258v-.005Zm-3.159-1.292c4.076 1.75 8.805-.14 10.555-4.213 1.66-3.971-.19-8.62-4.131-10.359a7.906 7.906 0 0 0-6.094-.14 7.903 7.903 0 0 0-4.405 4.212c-1.772 4.016.05 8.732 4.07 10.505l-.129.291.134-.291v-.005Z"/>
  <path fill="#F69074" d="m161.449 235.768 14.647-7.647-6.507-13.699"/>
  <path fill="#002346" d="M161.448 236.089a.32.32 0 0 1-.285-.174.317.317 0 0 1 .134-.431l14.373-7.507-6.373-13.425a.324.324 0 0 1 .151-.425.325.325 0 0 1 .425.151l6.507 13.699a.32.32 0 0 1-.14.42l-14.647 7.647a.331.331 0 0 1-.145.033v.012Z"/>
  <path fill="#F69074" d="M197.911 228.134s-.738-6.052-3.477-14.661l3.477 14.661Z"/>
  <path fill="#002346" d="M197.912 228.454a.315.315 0 0 1-.313-.279c-.005-.062-.766-6.126-3.466-14.606a.32.32 0 0 1 .207-.403.325.325 0 0 1 .403.207c2.717 8.537 3.482 14.662 3.488 14.723a.313.313 0 0 1-.279.353h-.04v.005Z"/>
  <path fill="#F69074" d="M177.656 213.473s7.592 6.058 10.499 0h-10.499Z"/>
  <path fill="#002346" d="M184.134 216.489c-3.175 0-6.524-2.641-6.681-2.764a.314.314 0 0 1-.05-.447.315.315 0 0 1 .447-.051c.04.034 4.115 3.239 7.274 2.518 1.185-.274 2.107-1.08 2.745-2.406a.32.32 0 0 1 .424-.151.325.325 0 0 1 .151.425c-.721 1.511-1.794 2.434-3.175 2.753a5.092 5.092 0 0 1-1.129.123h-.006Zm34.798 38.342a.335.335 0 0 1-.162-.045l-4.942-2.92a.318.318 0 0 1 .324-.548l4.942 2.92a.319.319 0 0 1-.162.593Zm2.439-.784a.314.314 0 0 1-.185-.062l-4.908-3.58a.32.32 0 1 1 .38-.514l4.909 3.58a.32.32 0 0 1-.19.576h-.006Zm-19.487-18.916a.292.292 0 0 1-.223-.095.312.312 0 0 1 0-.447l3.701-3.743a.314.314 0 0 1 .452 0 .313.313 0 0 1 0 .448l-3.7 3.742a.323.323 0 0 1-.224.095h-.006Zm-.002 51.46h-7.446a.32.32 0 0 1 0-.638h7.446c.174 0 .319.14.319.319s-.14.319-.319.319Z"/>
</svg>
