<svg xmlns="http://www.w3.org/2000/svg" width="426" height="336" fill="none" viewBox="0 0 426 336">
  <path fill="#0071F2" d="M54.125 200.536s-41.687-64.303-8.114-120.055c0 0 18.024-36.474 79.841-17.914 0 0 25.331 11.316 54.411 14.534a88.383 88.383 0 0 0 70.427-23.573c13.05-12.355 42.081-31.386 88.201-16.566 0 0 59.45 21.752 53.796 107.133 0 0-2.396 93.087-99.345 127.514l-168.174-5.422-71.043-65.651Z"/>
  <path fill="#fff" d="M54.125 200.536s-41.687-64.303-8.114-120.055c0 0 18.024-36.474 79.841-17.914 0 0 25.331 11.316 54.411 14.534a88.383 88.383 0 0 0 70.427-23.573c13.05-12.355 42.081-31.386 88.201-16.566 0 0 59.45 21.752 53.796 107.133 0 0-2.396 93.087-99.345 127.514l-168.174-5.422-71.043-65.651Z" opacity=".7"/>
  <path fill="#0071F2" d="M129.098 41.94s.984-14.27 31.934-9.634a51.71 51.71 0 0 1 5.605 1.151c5.447 1.432 21.626 4.812 39.748.3a64.022 64.022 0 0 0 15.037-5.939c6.967-3.769 22.551-10.824 27.27-1.692 0 0 10.638 13.481-18.206 26.141 0 0-20.785 23.357-73.39 12.665.005.015-30.896-8.094-27.998-22.992Z"/>
  <path fill="#fff" d="M129.098 41.94s.984-14.27 31.934-9.634a51.71 51.71 0 0 1 5.605 1.151c5.447 1.432 21.626 4.812 39.748.3a64.022 64.022 0 0 0 15.037-5.939c6.967-3.769 22.551-10.824 27.27-1.692 0 0 10.638 13.481-18.206 26.141 0 0-20.785 23.357-73.39 12.665.005.015-30.896-8.094-27.998-22.992Z" opacity=".7"/>
  <path fill="#fff" d="M338.892 189.738c17.933 0 32.471-14.536 32.471-32.468 0-17.932-14.538-32.469-32.471-32.469-17.933 0-32.47 14.537-32.47 32.469 0 17.932 14.537 32.468 32.47 32.468Z" opacity=".45"/>
  <path fill="#0071F2" d="M338.892 190.042a32.773 32.773 0 0 1-32.141-39.162 32.763 32.763 0 0 1 25.748-25.746 32.77 32.77 0 0 1 39.164 32.139 32.797 32.797 0 0 1-32.771 32.769Zm0-64.948a32.169 32.169 0 1 0 32.17 32.169 32.205 32.205 0 0 0-32.17-32.159v-.01Z"/>
  <path fill="#0071F2" d="M338.416 139.734a10.247 10.247 0 0 0-10.244 10.244v3.331h20.484v-3.331a10.247 10.247 0 0 0-10.24-10.244Zm6.56 13.019H331.69v-3.04a6.642 6.642 0 0 1 13.286 0v3.04Zm-9.264-37.042s-4.561 9.23-8.005 13.924a6 6 0 0 0-.758 1.309 6.08 6.08 0 0 0-.532 3.115 1.933 1.933 0 0 0 2.057 1.549c1.604-.113 4.729-.984 8.262-5.249 0 0 3.296-3.991 4.059-7.514-.01 0-3.848-1.889-5.083-7.134Z"/>
  <path fill="#000" d="M333.967 119.106s4.429 3.936 2.761 8.502c0 0-2.087 4.158-4.232 6.579 0 0 5.728-3.331 8.291-11.342a11.498 11.498 0 0 1-5.073-7.134l-1.747 3.395Z" opacity=".2"/>
  <path fill="#2F2E41" d="M225.778 41.995c14.934.035 43.428 0 58.155-.054a8.144 8.144 0 0 1 6.132 2.83 8.134 8.134 0 0 1 1.884 6.484l-15.972 114.013a10.275 10.275 0 0 1-10.436 8.91l-60.449-1.746a6.196 6.196 0 0 1-4.525-2.212 6.177 6.177 0 0 1-1.38-4.844L214.889 51.57a11.01 11.01 0 0 1 10.889-9.575Z"/>
  <path fill="#2F2E41" d="M221.658 45.332c14.929.03 43.429 0 58.151-.054a8.074 8.074 0 0 1 8.04 9.21L271.858 167.29a10.253 10.253 0 0 1-10.442 8.807l-60.448-1.727a6.139 6.139 0 0 1-4.513-2.171 6.136 6.136 0 0 1-1.392-4.81l15.696-112.6a10.971 10.971 0 0 1 10.899-9.457Z"/>
  <path fill="#000" d="M221.658 45.332c14.929.03 43.429 0 58.151-.054a8.074 8.074 0 0 1 8.04 9.21L271.858 167.29a10.253 10.253 0 0 1-10.442 8.807l-60.448-1.727a6.139 6.139 0 0 1-4.513-2.171 6.136 6.136 0 0 1-1.392-4.81l15.696-112.6a10.971 10.971 0 0 1 10.899-9.457Z" opacity=".2"/>
  <path fill="#fff" d="m285.229 57.867-15.254 106.711c-.684 5.161-4.861 8.954-9.718 8.807l-57.294-.433a5.416 5.416 0 0 1-4.173-2.367 7.192 7.192 0 0 1-1.324-5.097L212.4 59.702c1.162-9.575 8.498-11.927 13.601-11.917 13.905.035 38.04.9 51.744.861 4.606 0 8.138 4.355 7.484 9.22Z"/>
  <path fill="#0071F2" d="M226.02 47.79s-10.549 2.15-11.13 11.744l-14.471 110.474-1.629.576a7.192 7.192 0 0 1-1.324-5.097L212.4 59.701c1.181-9.57 8.532-11.922 13.62-11.912Z" opacity=".18"/>
  <path fill="#0071F2" d="M217.98 52.267h66.068s-2.224-3.602-6.283-3.617l-51.744-.86s-5.944 1.411-8.041 4.477Z" opacity=".3"/>
  <path fill="#0071F2" d="m226.345 108.355 3.445-21.266a21.203 21.203 0 0 1 13.201-14.367c5.221-1.968 11.17-1.146 15.367 2.53 2.46 2.14 4.512 5.357 4.724 10.145l-3.474 23.647s-1.476 12.989-15.697 16.817c-5.014 1.348-10.441.113-14.038-3.631-2.642-2.751-4.65-7.095-3.528-13.875Z"/>
  <path fill="#000" d="m226.345 108.355 3.445-21.266a21.203 21.203 0 0 1 13.201-14.367c5.221-1.968 11.17-1.146 15.367 2.53 2.46 2.14 4.512 5.357 4.724 10.145l-3.474 23.647s-1.476 12.989-15.697 16.817c-5.014 1.348-10.441.113-14.038-3.631-2.642-2.751-4.65-7.095-3.528-13.875Z" opacity=".2"/>
  <path fill="#0071F2" d="M252.957 135.242h-30.621a5.25 5.25 0 0 0-5.25 5.25v2.288a5.25 5.25 0 0 0 5.25 5.25h30.621a5.25 5.25 0 0 0 5.25-5.25v-2.288a5.25 5.25 0 0 0-5.25-5.25Z"/>
  <path fill="#2F2E41" d="M208.793 301.004v2.903l12.739 4.817v-2.072l-12.739-5.648Zm14.812 6.484v2.401l11.072 3.651s16.351 4.104 16.646-6.052h-27.718Z"/>
  <path fill="#F9B499" d="m169.675 153.43-2.8-8.98c-14.628-39.824 1.521-37.251 1.521-37.251 14.387-1.033 20.809 45.473 20.809 45.473 7.238 31.057 35.964 39.038 45.628 40.868a59.193 59.193 0 0 1 8.532 2.288c31.491 11.046 41.411 24.68 41.411 24.68 21.842 25.674 8.567 51.092 8.567 51.092-20.214 5.486-95.916 18.156-95.916 18.156-40.767 3.444-70.915-16.099-70.915-16.099-10.618-8.562-38.114-17.645-38.114-17.645-6.761-1.879-8.306-3.764-8.306-3.764l-9.078-7.872a112.084 112.084 0 0 1-5.083-3.675l-27.388-31.716c3.154-3.843 10.678-9.383 27.963-9.969a34.283 34.283 0 0 1 17.168 3.749c1.59.837 5.905 4.601 4.724 3.051-6.594-8.591-15.5-29.266-15.5-29.266-4.797-10.446-8.394-35.967-8.394-35.967l-3.592-19.292.206-28.331C89.342 89.747 91.4 126.029 91.4 126.029c2.569 13.353 8.222 28.434 8.222 28.434a210.387 210.387 0 0 0 17.98 22.082 6348.829 6348.829 0 0 1-15.814-35.805 40.712 40.712 0 0 1-1.821-5.013c-5.413-18.697-4.881-37.69-4.812-39.815l3.4-28.277a10.61 10.61 0 0 1 3.636.158c20.381 2.051 20.381 32.882 20.381 32.882l19.869-19.19c.357-.105.72-.187 1.087-.245 5.585-.906 9.074 4.428 11.111 9.614a36.125 36.125 0 0 1 2.46 12.483c.64 30.313 12.193 49.478 12.562 50.073"/>
  <path fill="#F7A48B" d="M175.555 232.952s57.23-21.679 85.563 33.236c0 0-15.032-60.696-85.563-33.236Z"/>
  <path fill="#0071F2" d="M65.934 240.705c-13.05-9.944-24.83-22.736-28.421-26.766a2.602 2.602 0 0 1-.3-3.055 14.44 14.44 0 0 1 1.328-1.9s34.468 17.605 27.393 31.721Zm-4.973-119.387-3.769-20.276c-1.885-8.05 3.936-8.05 3.936-8.05h.04l3.734 18.505c1.034 7.705-3.94 9.821-3.94 9.821Zm34.194-25.406v-.196l-1.89-23.126c.719-3.498 3.135-4.65 5.275-4.95l1.919 23.126s.296 4.782-5.304 5.146Z"/>
  <path fill="#F7A48B" d="M71.918 174.176s24.947 37.812 52.876 48.11l33.155 13.393-22.01-5.358s-18.482-3.592-47.542-24.508c0 0-10.535-15.991-16.479-31.637Z"/>
  <path fill="#F4BBA8" d="M122.602 96.876V86.144l10.746 4.557 1.043 7.705s-7.405 1.648-11.789-1.53Z"/>
  <path fill="#F49984" d="M122.602 86.144v6.357s8.645 4.817 11.809 5.905l-1.063-7.705-10.746-4.556Z"/>
  <path fill="#0071F2" d="M159.739 164.391s-13.994 8.999-40.595 8.561c0 0-4.891-1.727-5.968-7.813a13.09 13.09 0 0 1-.197-1.777l-9.762-34.594a42.56 42.56 0 0 1-2.746-9.565c-.467-2.952-.58-6.234.192-9.196a10.678 10.678 0 0 1 7.587-7.562l13.522-3.622s-.925-3.842 2.613-1.968c0 0 5.102 1.968 8.138 1.535 0 0 2.234-.748 2.461.709v1.023s13.334-.531 18.988 1.668c.473.183.902.463 1.26.822a3.94 3.94 0 0 1 1.181 2.755c.068 4.428.319 17.177 1.038 29.03.251 4.187.561 8.261.945 11.808.189 1.693.498 3.37.925 5.019.026.079.047.16.064.241a49.595 49.595 0 0 0 2.042 5.978c.782 1.919 1.003 4.532-1.688 6.948Z"/>
  <path fill="#000" d="m121.794 98.824-3.208.856s4.276 3.661 14.107 1.649c.005 0-9.044-.177-10.899-2.505Zm37.633 52.671c-.468.374-20.49 16.124-33.829 17.432a12.741 12.741 0 0 1-6.52-1.117l-5.904-2.671a13.09 13.09 0 0 1-.197-1.777l-9.763-34.594a42.557 42.557 0 0 1-2.745-9.565s31.644 22.633 57.476 22.141c0 0 .306 6.234 1.383 9.929l.099.222Z" opacity=".2"/>
  <path fill="#0071F2" d="M213.581 98.825s-8.207 49.946-18.964 51.043c0 0-5.644.182-12.208-3.444l-24.952-12.016a519.13 519.13 0 0 1-.359-6.706 747.448 747.448 0 0 1-.679-22.338 3.934 3.934 0 0 0-1.181-2.755l.123-.123s4.798-.202 10.634 8.005c0 0 14.761 15.312 23.151 18.963 0 0 12.764-27.17 13.492-34.442 0 0 5.078.462 8.33 1.78 1.329.517 2.347 1.192 2.613 2.033Z"/>
  <path fill="#fff" d="M213.581 98.825s-8.207 49.946-18.964 51.043c0 0-5.644.182-12.208-3.444l-24.952-12.016a519.13 519.13 0 0 1-.359-6.706 747.448 747.448 0 0 1-.679-22.338 3.934 3.934 0 0 0-1.181-2.755l.123-.123s4.798-.202 10.634 8.005c0 0 14.761 15.312 23.151 18.963 0 0 12.764-27.17 13.492-34.442 0 0 5.078.462 8.33 1.78 1.329.517 2.347 1.192 2.613 2.033Z" opacity=".3"/>
  <path fill="#fff" d="M213.58 98.823s-8.207 49.946-18.963 51.043c0 0-5.644.182-12.208-3.444l-24.952-12.015-.359-6.707 20.198 13.191c6.742 3.789 12.218-1.116 12.218-1.116 3.444-4.803 4.374.797 4.374.797 6.2 4.733 17.08-43.79 17.08-43.79 1.328.526 2.347 1.2 2.612 2.041Z" opacity=".3"/>
  <path fill="#000" d="m157.458 134.407 1.944.934-.984-18.062s.093-5.333-1.914-8.064l.954 25.192Z" opacity=".2"/>
  <path fill="#F4BBA8" d="M213.581 98.825s5.171-17.526 2.14-23.41a.698.698 0 0 0-1.299.181c-.163.85-.244 1.713-.241 2.578a7.465 7.465 0 0 1-.674 3.046 9.024 9.024 0 0 1-1.092 1.89s2.376-9.91-.32-11.986c0 0-1.407-.92-1.476 2.617 0 0-.773 7.454-3.144 8.665 0 0 2.647-8.734 2.46-12.384a.982.982 0 0 0-.673-.878.986.986 0 0 0-1.064.302c-1.107 1.294-2.647 4.67-3.7 13.422 0 0-.689-7.843-.187-11.257a1.079 1.079 0 0 0-1.895-.861c-.521.65-1.058 1.933-1.476 4.305a8.515 8.515 0 0 0-.143 1.796c.05 1.968.178 6.775.32 9.255 0 0-.698-3.69-3.715-4.276 0 0-1.555-.182.561 3.194 0 0 4.635 7.129 4.704 9.968-.024 0 9.58.772 10.914 3.833Z"/>
  <path fill="#E6E7E8" d="M362.644 140.841c-3.445 1.058-2.717-4.261-2.717-4.261.183-2.115.247-4.064.222-5.84-.084-8.389-2.013-12.945-2.013-12.945-.374-1.358-.954-.91-.984-.113a3.993 3.993 0 0 1-.251 1.269c-1.938 5.599-8.581 5.811-8.581 5.811-12.301-.118-12.882-10.638-12.882-10.638-5.437.832-8.04-4.138-8.04-4.138l7.568-.118c0-2.721 3.66-5.437 3.66-5.437-1.077-8.389-12.886-16.551-12.886-16.551l-.522-.266c-16.764-8.635-17.802-16.045-17.802-16.045a26.62 26.62 0 0 1-.768-3.474 18.554 18.554 0 0 1-.113-5.053 12.992 12.992 0 0 1 3.233-7.248c2.883-3.212 6.942-4.63 9.383-5.225a9.647 9.647 0 0 1 3.08-.167c1.821.143.551-2.116.551-2.116l-7.203-9.107c-2.835-4.37-1.412-6.264-1.412-6.264 2.602-2.46 5.555.95 5.555.95l9.265 7.99 2.79 2.411c6.973 6.397 5.905 8.857 5.905 8.857 18.521 7.631 22.777 33.138 23.338 37.074.05.36.137.715.261 1.058 5.132 14.47 5.712 37.827 5.712 37.827.364 9.767-4.349 11.759-4.349 11.759Z"/>
  <path fill="#0071F2" d="M362.644 140.841c-3.444 1.058-2.716-4.261-2.716-4.261.182-2.115.246-4.064.221-5.84 6.294.221 2.874-19.868 2.874-19.868-2.667-18.81-7.833-32.154-10.013-37.192a26.993 26.993 0 0 0-2.308-4.276c-8.365-12.453-22.28-18.785-22.28-18.785h2.731a1.97 1.97 0 0 0 1.995-1.725c.039-.32 0-.646-.116-.947-1.033-2.623-4.064-6.092-4.064-6.092l2.79 2.411c6.972 6.397 5.905 8.857 5.905 8.857 18.521 7.631 22.777 33.138 23.338 37.074.05.36.137.715.261 1.058 5.132 14.47 5.712 37.827 5.712 37.827.384 9.767-4.33 11.759-4.33 11.759Z" opacity=".3"/>
  <path fill="#0071F2" d="M341.203 123.089s18.541 1.585 12.715-14.687c0 0 2.755 1.968 3.237 9.28 0 0-.265 5.963-8.856 7.08.024 0-3.238.463-7.096-1.673Z" opacity=".3"/>
  <path fill="#0071F2" d="M347.511 111.002c-.719 1.023-3.189 4.487-4.635 5.904a.351.351 0 0 0-.089.377.349.349 0 0 0 .31.233c1.609.128 5.206.123 7.711-2.002 0 0 1.372-3.617-2.741-4.734a.52.52 0 0 0-.556.222Zm4.175-18.812c3.177-.371 5.279-4.737 4.694-9.752-.585-5.015-3.634-8.78-6.811-8.41-3.177.371-5.279 4.737-4.694 9.752.585 5.014 3.634 8.78 6.811 8.41Zm-26.438-4.576-1.53-.807h-.045c-15.253-8.276-16.237-15.219-16.237-15.219-.333-1.14-.59-2.3-.768-3.473 2.657-3.174 6.889-5.486 11.809-6.062 5.546-.64 10.712 1.038 14.048 4.138a11.497 11.497 0 0 1 3.755 7.12c.733 6.248-4.02 12.098-11.032 14.303Z"/>
  <path fill="#000" d="m325.246 87.614-1.53-.807h-.044c17.33-6.12 9.132-20.173 8.857-20.616a11.498 11.498 0 0 1 3.749 7.12c.733 6.249-4.02 12.099-11.032 14.303Z" opacity=".2"/>
  <path fill="#0071F2" d="M309.776 55.797a12.995 12.995 0 0 0-3.228 7.248c-.148-.256-3.936-6.574-7.907-9.457 0 0-6.628-4.59-2.953-5.796 0 0 3.661-2.49 10.855 4.477l3.233 3.528Z"/>
  <path fill="#000" d="M309.778 55.798c-3.12 3.793-3.233 7.247-3.233 7.247l-.719-1.146c2.156-8.753-7.553-14.54-7.553-14.54s3.445.118 6.938 3.686l1.339 1.225 3.228 3.528Z" opacity=".2"/>
  <path fill="#0071F2" d="M311.864 53.897s-5.201-9.309-20.666-14.982c0 0-6.175-2.46-16.139-2.425a14.27 14.27 0 0 1-3.538-.404c-2.46-.625-5.806-2.145-4.945-5.737 0 0 1.594-9.417 21.315-3.985 0 0 21.105 4.87 29.706 24.64.019 0-3.641.994-5.733 2.893Z"/>
  <path fill="#000" d="M311.863 53.898a14.398 14.398 0 0 1 5.752-2.893s-3.936-10.894-15.435-18.087c0 0 12.591 13.482 8.566 19.351l1.117 1.629Z" opacity=".2"/>
  <path fill="#fff" d="M310.668 232.938c11.93 0 21.601-9.67 21.601-21.6 0-11.929-9.671-21.6-21.601-21.6s-21.602 9.671-21.602 21.6c0 11.93 9.672 21.6 21.602 21.6Z" opacity=".45"/>
  <path fill="#0071F2" d="M310.667 233.222a21.899 21.899 0 0 1-21.481-26.173 21.901 21.901 0 0 1 43.382 4.273 21.924 21.924 0 0 1-21.901 21.9Zm0-43.2a21.297 21.297 0 0 0-19.68 13.149A21.299 21.299 0 0 0 318.818 231a21.302 21.302 0 0 0 13.15-19.678 21.321 21.321 0 0 0-21.301-21.28v-.02Z"/>
  <path fill="#0071F2" d="M300.305 222.229a.881.881 0 0 1-.615-.246.881.881 0 0 1-.283-.627.89.89 0 0 1 .244-.643l8.065-8.561a.896.896 0 0 1 1.296-.063.896.896 0 0 1 .282.646.893.893 0 0 1-.269.652l-8.065 8.561a.896.896 0 0 1-.655.281Z"/>
  <path fill="#0071F2" d="M312.811 200.453a6.963 6.963 0 0 0-4.93 11.884 6.964 6.964 0 0 0 9.85-9.843 6.962 6.962 0 0 0-4.92-2.041Zm0 12.301a5.356 5.356 0 0 1-5.255-6.404 5.353 5.353 0 0 1 4.21-4.21 5.366 5.366 0 0 1 6.001 7.311 5.346 5.346 0 0 1-2.901 2.91c-.651.27-1.35.408-2.055.408v-.015Z"/>
  <path fill="#2F2E41" d="M119.996 176.101s-4.522 18.997.861 32.882c0 0 2.568 14.328 25.178 14.672l47.961.856s-.857 17.762 9.762 41.675l6.682 16.729s14.388 2.74 19.19-3.444l-8.394-45.902-3.597-19.868s0-11.966-10.791-15.061l-19.869-3.247 26.605-15.745s.63 18.786 7.479 29.35l11.318 22.933s9.245.644 14.899-6.81c0 0-6.938-20.035-11.047-47.013l-1.668-10.406s-.388-17.856-18.629-14.899l-53.24 13.831-28.475 6.756-14.225 2.711Z"/>
  <path fill="#000" d="m197.427 189.204-24.45 1.304c-10.22-.684-5.86-6.539-5.86-6.539-8.719 7.218 2.554 9.265 2.554 9.265l17.31 2.16 10.446-6.19Z" opacity=".2"/>
  <path fill="#F4BBA8" d="M210.441 282.914v2.297s14.27 4.099 18.817-.944l-1.89-2.829s-4.502 3.414-16.927 1.476Z"/>
  <path fill="#0071F2" d="M209.705 301.859s-2.19-.728-1.476-5.987l2.199-10.658s13.256 3.936 18.816-.944c0 0 7.317 8.536 15.933 12.792 0 0 10.063 2.815 5.496 11.922a4.293 4.293 0 0 1-2.106 2.027c-2.662 1.171-9.235 2.726-21.207-1.968l-17.655-7.184Z"/>
  <path fill="#F4BBA8" d="m246.695 225.84 1.836 1.476s-3.499 6.396-13.778 8.045l-1.171-3.4a17.953 17.953 0 0 0 7.2-1.682 17.936 17.936 0 0 0 5.913-4.439Z"/>
  <path fill="#0071F2" d="M276.278 237.649c-.35 10.377-21.685 10.958-21.685 10.958a29.74 29.74 0 0 0-1.393-.089c-.58-.03-1.126-.039-1.633-.03-4.522.035-6.303 1.167-6.303 1.167-4.478 1.446-7.15.211-8.744-1.678-2.136-2.534-2.328-6.239-2.328-6.239-1.171-6.652.581-6.396.581-6.396 10.727-1.865 13.778-8.045 13.778-8.045 3.38 3.149 18.771 3.936 18.771 3.936 7.908 0 9.054 3.415 9.089 5.265a3.99 3.99 0 0 1-.133 1.151Z"/>
  <path fill="#2F2E41" d="m252.147 251.175-9.349 1.392c-5.186.34-6.086-4.108-6.298-4.59 1.594 1.889 4.266 3.124 8.744 1.677 0 0 1.781-1.131 6.303-1.166l.6 2.687Zm1.48-.183-.428-2.46c.443 0 .906.049 1.393.088 0 0 21.335-.58 21.684-10.957.094-.376.132-.764.114-1.151 6.013 13.86-22.763 14.48-22.763 14.48Z"/>
  <path fill="#F4BBA8" d="M135.978 98.384c5.971 0 10.811-8.02 10.811-17.915 0-9.894-4.84-17.914-10.811-17.914-5.97 0-10.81 8.02-10.81 17.914 0 9.894 4.84 17.915 10.81 17.915Z"/>
  <path fill="#2F2E41" d="M126.757 89.823s-5.771 1.2-7.189-11.027c0 0-5.944-15.69 3.592-15.543 0 0 3.858-8.856 14.009-4.625 0 0 6.294-5.904 12.459.256 0 0 3.936 12.832-3.302 16.434a2.003 2.003 0 0 0-2.135-.635s-3.513 1.476-6.85-.64c0 0-10.579-3.085-9.806 6.165l-1.545 7.145s.507 1.796.767 2.47Z"/>
  <path fill="#F4BBA8" d="M125.846 87.356c1.797 0 3.253-1.727 3.253-3.858 0-2.13-1.456-3.857-3.253-3.857-1.796 0-3.252 1.727-3.252 3.857s1.456 3.858 3.252 3.858Z"/>
  <path fill="#0071F2" d="m161.087 162.82 1.353 2.244a1.655 1.655 0 0 1-.522 2.253c-4.069 2.584-17.458 9.733-40.432 9.28a2.596 2.596 0 0 1-1.213-.312 2.596 2.596 0 0 1-1.343-2.026 2.587 2.587 0 0 1 .184-1.239l.03-.069s25.518-.334 40.594-8.561a4.44 4.44 0 0 0 1.349-1.57Z"/>
  <path fill="#000" d="m161.087 162.82 1.353 2.244a1.655 1.655 0 0 1-.522 2.253c-4.069 2.584-17.458 9.733-40.432 9.28a2.596 2.596 0 0 1-1.213-.312 2.596 2.596 0 0 1-1.343-2.026 2.587 2.587 0 0 1 .184-1.239l.03-.069s25.518-.334 40.594-8.561a4.44 4.44 0 0 0 1.349-1.57Z" opacity=".2"/>
  <path fill="#0071F2" d="m224.776 107.356 3.474-21.25a21.202 21.202 0 0 1 13.202-14.368c5.22-1.968 11.169-1.147 15.366 2.524 2.461 2.145 4.513 5.363 4.729 10.15l-3.479 23.647s-1.476 12.99-15.696 16.818c-5.014 1.348-10.442.113-14.038-3.631-2.662-2.77-4.665-7.125-3.558-13.89Z"/>
  <path fill="#fff" d="M239.742 121.701c-6.889-.901-11.548-8.325-10.446-16.581.034-.266.074-.532.123-.793l2.283-13.284h-.025a2.041 2.041 0 0 1-.369-.094l-2.288 13.314c-1.51 8.453 2.953 16.419 9.969 17.792.222.044.443.079.67.108 3.685.492 7.464-.797 10.495-3.582a1.94 1.94 0 0 1-.192-.413c-2.952 2.741-6.628 4.01-10.22 3.533Zm8.165-47.453c-6.8-.935-13.443 4.335-15.657 12.05.084.004.168.016.251.034h.148c2.179-7.454 8.625-12.537 15.184-11.622 6.889.896 11.549 8.32 10.447 16.577-.035.265-.074.531-.123.797l-2.726 15.853a18.79 18.79 0 0 1-2.638 6.888c.122.063.234.144.33.241a19.182 19.182 0 0 0 2.701-7.05l2.726-15.853c1.516-8.448-2.952-16.42-9.954-17.797-.236-.069-.463-.069-.689-.118Z"/>
  <path fill="#fff" d="M247.344 77.489a9.838 9.838 0 0 1 5.717 2.952 3.22 3.22 0 0 1 .266-.389 10.181 10.181 0 0 0-5.905-3.04 10.932 10.932 0 0 0-7.336 1.712c.05.146.088.295.113.448a10.586 10.586 0 0 1 7.145-1.683Zm-16.458 28.602c.015-.825.094-1.647.236-2.46l2.411-14.013a16.247 16.247 0 0 1 3.508-7.675 1.753 1.753 0 0 1-.28-.29 16.735 16.735 0 0 0-3.617 7.896l-2.411 14.013a17.08 17.08 0 0 0-.241 2.593c.128-.038.26-.06.394-.064Zm24.852-22.481a1.854 1.854 0 0 1-.359.265 15.243 15.243 0 0 1 1.053 8.93l-2.406 14.013c-1.368 7.617-7.43 12.936-13.817 12.119a9.982 9.982 0 0 1-6.372-3.666 1.67 1.67 0 0 1-.403.212 10.33 10.33 0 0 0 6.692 3.936c6.608.846 12.881-4.655 14.269-12.537l2.411-14.013a15.79 15.79 0 0 0-1.068-9.26Z"/>
  <path fill="#fff" d="m234.12 95.39.797-4.625c1.181-6.593 6.427-11.189 11.947-10.485 4.626.6 8.041 5.127 8.08 10.711.132-.014.266-.014.398 0 0-5.825-3.577-10.568-8.404-11.193-5.742-.738-11.199 4.044-12.424 10.898l-.787 4.674c.093-.005.187-.005.28 0l.113.02Zm10.849 20.236a8.706 8.706 0 0 1-4.262.492c-5.24-.67-8.817-6.313-7.991-12.611.025-.212.06-.423.099-.63l.492-2.79h-.128a1.635 1.635 0 0 1-.266-.064l-.492 2.805c-1.161 6.5 2.269 12.625 7.657 13.683a9.123 9.123 0 0 0 5.033-.452 2.071 2.071 0 0 1-.142-.433Zm9.555-19.883-.167-.024-1.708 9.953a13.817 13.817 0 0 1-4.04 7.696c.063.142.111.29.143.443a14.275 14.275 0 0 0 4.291-8.084l1.707-9.959-.226-.025Z"/>
  <path fill="#fff" d="M249.875 83.984a7.44 7.44 0 0 0-3.405-1.397c-4.881-.625-9.521 3.444-10.564 9.265l-1.767 10.278c-.102.607-.163 1.22-.182 1.835.129-.11.271-.204.423-.28.02-.495.071-.988.153-1.476l1.771-10.279c.984-5.56 5.413-9.442 10.082-8.856a7.04 7.04 0 0 1 3.218 1.333c.08-.148.17-.289.271-.423Zm2.647 3.266a2.33 2.33 0 0 1-.314.344 11.122 11.122 0 0 1 .821 6.638l-1.771 10.278c-.984 5.413-5.167 9.231-9.713 8.881-.064.163-.143.32-.236.468 4.822.492 9.349-3.562 10.333-9.29l1.766-10.283c.446-2.38.136-4.84-.886-7.036Z"/>
  <path fill="#fff" d="M244.309 85.84c.03-.167.073-.332.128-.492a7.031 7.031 0 0 0-3.011 1.112c.113.093.212.203.295.324a6.67 6.67 0 0 1 2.588-.944Zm4.961 19.614c-1.412 3.444-4.498 5.535-7.617 5.142-3.607-.468-6.057-4.364-5.482-8.694 0-.143.04-.286.069-.428l1.447-8.429c.171-.986.491-1.94.949-2.829a1.962 1.962 0 0 1-.246-.423 10.472 10.472 0 0 0-1.087 3.188l-1.452 8.424c-.807 4.551 1.595 8.856 5.369 9.58.123.024.241.044.364.059 3.306.413 6.569-1.786 8.069-5.447a2.102 2.102 0 0 1-.383-.143Zm2.066-10.494-.3 1.751c.106-.012.214-.012.32 0h.084l.295-1.722c.645-3.675-.812-7.287-3.567-8.856-.011.166-.036.33-.074.492 2.529 1.545 3.838 4.89 3.242 8.335Z"/>
  <path fill="#fff" d="M245.533 88.142c-3.159-.403-6.16 2.23-6.834 5.998l-.32 1.87c.132.03.26.073.384.128l.334-1.944c.63-3.513 3.445-5.958 6.367-5.574 2.79.369 4.68 3.385 4.232 6.73 0 .104-.029.207-.049.31l-1.161 6.569c-.546 3.041-2.741 5.348-5.319 5.594a2.705 2.705 0 0 1-.064.492c2.794-.236 5.191-2.725 5.781-6.022l1.132-6.564c.64-3.577-1.25-6.947-4.217-7.528a1.633 1.633 0 0 0-.266-.059Z"/>
  <path fill="#fff" d="M241.039 93.218c.082.004.165.016.246.035a3.875 3.875 0 0 1 3.67-1.87c.419.056.821.198 1.181.418.065-.144.142-.283.231-.413a3.381 3.381 0 0 0-1.328-.492c-1.604-.202-3.213.674-4.187 2.283.063.008.125.021.187.04Zm6.065 7.868a5.527 5.527 0 0 1-.522 1.54c.119.072.226.163.315.27.29-.55.493-1.143.6-1.756l.812-4.714c.072-.439.095-.884.069-1.328a1.48 1.48 0 0 1-.399.123c.019.386-.004.774-.068 1.156l-.807 4.709Zm-3.622 3.931a3.096 3.096 0 0 1-.881 0c-1.968-.271-3.297-2.406-2.952-4.768l.029-.206.369-2.13a1.67 1.67 0 0 1-.378-.144l-.384 2.22c-.463 2.597.915 5.048 3.075 5.466l.197.03c.326.044.657.044.984 0a3.695 3.695 0 0 1-.059-.468Z"/>
  <path fill="#fff" d="M244.552 93.702c-1.442-.182-2.805 1.023-3.105 2.74l-.492 2.859a3.125 3.125 0 0 0-.044.802c.118-.127.252-.238.398-.33.004-.138.017-.276.04-.413l.492-2.859c.26-1.446 1.412-2.46 2.627-2.297 1.216.162 1.929 1.402 1.742 2.785a1.161 1.161 0 0 0 0 .118l-.492 2.853a2.832 2.832 0 0 1-1.683 2.195 3.731 3.731 0 0 1-.137.521 3.264 3.264 0 0 0 2.214-2.662l.492-2.853c.3-1.624-.551-3.16-1.895-3.445l-.157-.014Z"/>
  <path fill="#2F2E41" d="m241.368 96.235-4.03 11.242a.83.83 0 0 0 .4 1.016.818.818 0 0 0 .382.091h7.347a.813.813 0 0 0 .593-.25.813.813 0 0 0 .233-.601l-.359-11.503s3.543-2.51 2.588-6.21a3.757 3.757 0 0 0-3.419-2.74 5.204 5.204 0 0 0-3.937 1.52 4.998 4.998 0 0 0-1.545 3.902 4.764 4.764 0 0 0 1.747 3.533Z"/>
  <path fill="#E6E7E8" d="M251.838 133.84h-29.912a5.25 5.25 0 0 0-5.25 5.25v2.288a5.25 5.25 0 0 0 5.25 5.25h29.912a5.25 5.25 0 0 0 5.25-5.25v-2.288c0-2.9-2.35-5.25-5.25-5.25Z"/>
  <path fill="#0071F2" d="M324.825 157.384v13.669a3.706 3.706 0 0 0 .772 2.327c.645.802 1.816 1.57 3.912 1.432h19.648a2 2 0 0 0 .595-.084c.881-.266 3.208-1.21 3.208-3.7v-13.531a3.252 3.252 0 0 0-1.013-2.475 3.257 3.257 0 0 0-2.525-.885h-21.468a3.217 3.217 0 0 0-3.129 3.247Z"/>
  <path fill="#0071F2" d="M326.094 154.805s.797-2.888 6.642-3.026h12.966s3.877-.158 5.57 2.79a5.716 5.716 0 0 0-1.85-.419h-21.468a2.381 2.381 0 0 0-1.86.655Z"/>
  <path fill="#000" d="M326.094 154.805s.797-2.888 6.642-3.026h12.966s3.877-.158 5.57 2.79a5.716 5.716 0 0 0-1.85-.419h-21.468a2.381 2.381 0 0 0-1.86.655Z" opacity=".2"/>
  <path fill="#fff" d="M341.119 163.499a3.588 3.588 0 1 0-5.456-3.84 3.583 3.583 0 0 0 1.736 3.973l-1.24 8.192a.765.765 0 0 0 .194.624c.076.083.17.149.274.193a.787.787 0 0 0 .329.059l4.921-.236a.776.776 0 0 0 .564-.29.774.774 0 0 0 .154-.616l-1.476-8.059Z"/>
  <path fill="#0071F2" d="M203.802 69.682a25.784 25.784 0 0 0-11.671-1.043.266.266 0 0 0 .069.527c3.827-.545 7.728-.2 11.401 1.008.31.104.492-.388.201-.492Z"/>
  <path fill="#0071F2" d="M206.727 72.856a23.617 23.617 0 0 0-18.102-1.658c-.315.098-.118.585.191.492a23.09 23.09 0 0 1 17.714 1.663c.291.153.492-.34.202-.492l-.005-.005Z"/>
  <path fill="#0071F2" d="M208.685 75.707c-5.196-2.785-11.317-4.581-17.222-3.503a17.637 17.637 0 0 0-5.413 1.928c-.29.158-.098.65.192.492 5.718-3.163 12.38-2.524 18.206-.265a36.808 36.808 0 0 1 4.001 1.845c.29.157.492-.335.196-.492l.04-.005Z"/>
  <path fill="#0071F2" d="M210.106 78.794c-5.491-4.236-12.68-6.116-19.436-4.428a22.865 22.865 0 0 0-6.338 2.652c-.28.167-.088.66.197.492a21.781 21.781 0 0 1 10.825-3.218 22.45 22.45 0 0 1 9.906 2.18 24.114 24.114 0 0 1 4.541 2.77c.261.202.576-.217.315-.418l-.01-.03Z"/>
  <path fill="#0071F2" d="M211.003 81.99a20.125 20.125 0 0 0-21.419-5.412 24.603 24.603 0 0 0-6.81 3.67.263.263 0 0 0-.033.344.263.263 0 0 0 .338.074 22.494 22.494 0 0 1 11.775-4.635 19.3 19.3 0 0 1 15.746 6.284c.221.246.629-.08.403-.325Z"/>
  <path fill="#0071F2" d="M198.916 77.299a18.257 18.257 0 0 0-8.985.713 20.868 20.868 0 0 0-8.331 5.511c-.231.241.173.561.399.32 4.429-4.68 10.614-7.08 16.838-6.018.325.054.394-.492.069-.526h.01Zm12.616 8.371a20.173 20.173 0 0 0-7.228-6.534c-.29-.157-.492.335-.202.492A19.595 19.595 0 0 1 211.124 86c.192.28.595-.05.408-.325v-.005Z"/>
  <path fill="#0071F2" d="M211.613 89.664c-2.032-4.625-5.703-8.365-10.373-9.988a16.235 16.235 0 0 0-13.57 1.446 20.749 20.749 0 0 0-6.594 6.43c-.187.281.212.606.399.326 2.868-4.32 7.125-7.582 12.153-8.365a15.747 15.747 0 0 1 12.543 3.592 18.583 18.583 0 0 1 4.955 6.77.268.268 0 1 0 .492-.211h-.005Z"/>
  <path fill="#0071F2" d="M211.183 94.65c-.684-5.668-4.055-10.618-9.133-12.832a15.009 15.009 0 0 0-15.003 1.9c-3.036 2.277-5.225 5.554-6.692 9.102a.263.263 0 0 0-.012.201.256.256 0 0 0 .48.005c2.362-5.712 6.8-10.603 12.857-11.68a14.361 14.361 0 0 1 13.443 4.92 16.156 16.156 0 0 1 3.558 8.477.256.256 0 0 0 .295.271.253.253 0 0 0 .183-.127.255.255 0 0 0 .014-.222l.01-.015Z"/>
  <path fill="#0071F2" d="M181.567 96.567c.704-3.882 2.303-7.71 5.241-10.333a12.9 12.9 0 0 1 8.409-3.267 13.984 13.984 0 0 1 8.35 2.647 13.25 13.25 0 0 1 5.098 7.563c.817 3.37.113 6.755-.856 10.047a5.386 5.386 0 0 0-.246 1.609c0 .339.492.261.492-.074a7.622 7.622 0 0 1 .457-2.199c.202-.734.389-1.477.546-2.219.248-1.112.413-2.24.493-3.376a13.006 13.006 0 0 0-.202-3.026 13.784 13.784 0 0 0-4.753-8.192 14.445 14.445 0 0 0-8.424-3.292 13.45 13.45 0 0 0-8.833 2.667c-3.05 2.318-4.92 5.87-5.904 9.614-.143.58-.266 1.166-.374 1.752a.255.255 0 0 0-.008.106.27.27 0 0 0 .038.1.247.247 0 0 0 .282.104.25.25 0 0 0 .18-.241l.014.01Z"/>
  <path fill="#0071F2" d="M206.263 107.059a8.846 8.846 0 0 1-.03-2.574c.108-.526.251-1.048.369-1.574.236-.984.464-1.981.684-2.992.183-.726.328-1.462.433-2.204a.254.254 0 0 0-.031-.206.248.248 0 0 0-.282-.104.252.252 0 0 0-.179.241 20.903 20.903 0 0 1-.433 2.204 201.935 201.935 0 0 1-.704 3.081c-.118.516-.265 1.033-.364 1.554a9.9 9.9 0 0 0 .04 2.647c.034.34.536.266.492-.073h.005Zm-22.95-9.074c.821-5.525 3.542-11.144 8.945-13.019a11.272 11.272 0 0 1 11.731 2.898 11.803 11.803 0 0 1 3.109 7.007c.03.34.537.266.492-.074a12.012 12.012 0 0 0-8.153-10.382 11.765 11.765 0 0 0-12.547 3.656c-2.352 2.721-3.553 6.293-4.079 9.84a.255.255 0 0 0-.008.107c.006.035.019.07.038.1a.247.247 0 0 0 .282.104.25.25 0 0 0 .18-.241l.01.004Zm.533 8.101a.267.267 0 0 0 .287-.23.264.264 0 0 0-.05-.192.262.262 0 0 0-.168-.104.264.264 0 0 0-.288.23.264.264 0 0 0 .219.296Z"/>
  <path fill="#0071F2" d="M204.796 108.294c-.665-4.585 1.555-8.999 1.264-13.585a9.05 9.05 0 0 0-2.091-5.412 10.277 10.277 0 0 0-4.64-3.021c-2.765-.91-5.905-.93-8.517.56-2.412 1.383-3.991 3.696-5.108 6.255a28.16 28.16 0 0 0-2.076 12.753c0 .339.521.261.492-.079a28.04 28.04 0 0 1 1.594-11.36c.91-2.431 2.209-4.847 4.276-6.397 2.283-1.727 5.004-2.135 7.74-1.594 3.833.757 7.218 3.444 7.75 7.67.605 4.817-1.9 9.457-1.196 14.269.022.054.06.098.11.126a.255.255 0 0 0 .382-.2l.02.015Z"/>
  <path fill="#0071F2" d="M186.683 95.12c-1.102 4.285-1.314 8.768-1.476 13.171 0 .34.492.409.492.069.153-4.403.364-8.89 1.476-13.171.084-.33-.423-.394-.492-.07Zm16.801 14.459c-1.545-2.027-1.131-4.792-.428-7.11.748-2.46 1.747-4.92 1.348-7.557-.659-4.34-4.251-7.661-8.488-7.646a8.335 8.335 0 0 0-6.062 2.578c-.231.246.173.566.399.325 2.977-3.169 8.158-3.095 11.15-.128a8.898 8.898 0 0 1 2.563 5.545c.227 2.691-1.023 5.181-1.673 7.725-.56 2.209-.629 4.733.788 6.593.202.266.605-.059.403-.325Z"/>
  <path fill="#0071F2" d="M201.822 110.101c-1.398-1.88-1.27-4.364-.729-6.574.31-1.284.738-2.538 1.093-3.808.383-1.128.643-2.294.777-3.478.236-3.858-3.026-6.889-6.475-7.341-3.061-.414-5.757 1.702-7.327 4.29a9.081 9.081 0 0 0-.935 2.41 27.914 27.914 0 0 0-.768 5.905c-.127 2.849-.25 5.703-.442 8.547 0 .339.492.408.492.069.133-2.032.226-4.06.324-6.092.158-3.301.069-6.947 1.477-10.022 1.058-2.352 3.38-4.374 5.904-4.63 3.592-.37 7.499 2.878 7.268 6.78a18.978 18.978 0 0 1-.93 4.025c-.369 1.279-.802 2.543-1.078 3.852-.452 2.175-.379 4.566.984 6.397.202.265.606-.059.404-.325l-.039-.005Z"/>
  <path fill="#0071F2" d="M200.562 111.499c-1.998-3.257-1.477-7.139-.34-10.652.605-1.88 1.643-3.848 1.294-5.904a5.159 5.159 0 0 0-2.509-3.444 6.078 6.078 0 0 0-7.927 1.663 11.896 11.896 0 0 0-1.614 4.369 33.188 33.188 0 0 0-.551 3.882c-.301 3.375-.463 7.046.467 10.332.094.33.561.119.492-.206-.817-2.864-.718-6.057-.492-9.019.177-2.647.467-5.486 1.545-7.927a5.569 5.569 0 0 1 5.372-3.351 5.554 5.554 0 0 1 2.161.552 4.591 4.591 0 0 1 2.653 3.793c.108 1.968-.985 3.936-1.531 5.772-1.043 3.518-1.348 7.277.62 10.48.177.285.581-.039.404-.325l-.044-.015Z"/>
  <path fill="#0071F2" d="M199.108 112.566a31.92 31.92 0 0 1-1.55-6.239 12.102 12.102 0 0 1 .034-3.243c.201-1.066.531-2.104.984-3.09.655-1.574 1.294-3.286.773-4.998a3.288 3.288 0 0 0-3.42-2.288c-1.86.098-3.302 1.55-4.084 3.232a.243.243 0 0 0-.031.102.251.251 0 0 0 .153.258.256.256 0 0 0 .345-.158c.704-1.516 1.998-2.83 3.686-2.908 1.688-.079 2.987 1.21 3.036 3.002.049 1.79-1.014 3.508-1.565 5.225a12.024 12.024 0 0 0-.374 5.225 33.86 33.86 0 0 0 1.555 6.086c.103.32.571.114.467-.206h-.009Zm-7.143-7.613c0 3.07.9 5.978 1.643 8.906.084.325.586.251.492-.079-.723-2.868-1.658-5.747-1.643-8.758 0-.339-.492-.408-.492-.069Z"/>
  <path fill="#0071F2" d="M197.24 112.979a19.99 19.99 0 0 1-1.476-9.486 19.595 19.595 0 0 1 1.033-4.724c.428-1.205 1.127-2.824 0-3.862-1.127-1.038-2.46.157-3.085 1.21-.167.29.231.615.399.32.379-.644 1.043-1.545 1.874-1.382 1.201.24.945 1.83.645 2.681a23.794 23.794 0 0 0-1.284 5.157 20.491 20.491 0 0 0 1.427 10.293.261.261 0 0 0 .145.143.266.266 0 0 0 .347-.35h-.025Z"/>
  <path fill="#0071F2" d="M195.839 113.166c-2.126-5.127-1.885-10.825-.256-16.124.098-.325-.369-.531-.467-.207-1.673 5.413-1.929 11.278.255 16.537a.257.257 0 0 0 .465-.016.26.26 0 0 0 .003-.19Zm-4.254-.356c-2.018-6.46-.394-14.785-.374-14.869l.398.084c0 .079-1.624 8.301.359 14.648l-.383.137Zm1.731-15.796a15.256 15.256 0 0 0-1.402 6.396c0 .34.492.261.492-.074a14.57 14.57 0 0 1 1.368-6.135.258.258 0 0 0-.122-.36.256.256 0 0 0-.345.158l.009.015Zm-1.754-.38-.084.276a.281.281 0 0 0 0 .108.233.233 0 0 0 0 .098.167.167 0 0 0 .054.084.198.198 0 0 0 .079.059h.064a.252.252 0 0 0 .133 0l.054-.034a.263.263 0 0 0 .084-.109l.083-.275a.257.257 0 0 0 0-.103.226.226 0 0 0 0-.104.19.19 0 0 0-.054-.084.231.231 0 0 0-.079-.059h-.068a.193.193 0 0 0-.128 0l-.059.035a.271.271 0 0 0-.079.103v.005Zm-2.466-6.137a8.512 8.512 0 0 0-1.993 2.775.25.25 0 0 0 .003.19.254.254 0 0 0 .322.142.253.253 0 0 0 .142-.126 7.825 7.825 0 0 1 1.836-2.563c.246-.226-.064-.65-.31-.418Zm18.374 5.486v.428a.257.257 0 0 0 .04.197c.04.054.1.09.167.099a.251.251 0 0 0 .187-.054.267.267 0 0 0 .098-.178v-.428a.182.182 0 0 0 0-.103.256.256 0 0 0-.117-.16.248.248 0 0 0-.281.022.249.249 0 0 0-.099.177h.005Zm-4.11-17.309a16.152 16.152 0 0 0-3.307-1.141c-.133-.035-.27.103-.285.231a.265.265 0 0 0 .216.295 15.76 15.76 0 0 1 3.174 1.102c.295.148.492-.34.202-.492v.005Zm-20.93 21.3a21.57 21.57 0 0 0-.153 2.578.252.252 0 0 0 .286.222.269.269 0 0 0 .17-.106.265.265 0 0 0 .051-.194c-.002-.813.047-1.625.148-2.431a.253.253 0 0 0-.106-.281.256.256 0 0 0-.207-.029.25.25 0 0 0-.179.241h-.01Zm-1.714-1.859-.103.493a.258.258 0 0 0 .122.263.25.25 0 0 0 .094.032.236.236 0 0 0 .187-.05.323.323 0 0 0 .099-.177l.103-.492a.247.247 0 0 0-.004-.1.256.256 0 0 0-.213-.194.235.235 0 0 0-.187.053.292.292 0 0 0-.098.172Zm8.793-28.548 1.249-.398a.272.272 0 0 0 .138-.145.275.275 0 0 0 0-.2.257.257 0 0 0-.329-.143l-1.25.399a.27.27 0 0 0-.138.344.255.255 0 0 0 .33.143Zm21.177 26.265a9.433 9.433 0 0 1-.079 2.952.256.256 0 0 0 .107.281.247.247 0 0 0 .206.03.253.253 0 0 0 .18-.241 10.07 10.07 0 0 0 .083-3.076.245.245 0 0 0-.016-.113.247.247 0 0 0-.162-.153.26.26 0 0 0-.221.033.253.253 0 0 0-.093.307l-.005-.02Zm1.093-4.972c.044.296.084.586.128.881a.268.268 0 0 0 .03.096.26.26 0 0 0 .255.13.28.28 0 0 0 .222-.3l-.133-.88a.269.269 0 0 0-.03-.096.258.258 0 0 0-.255-.13.277.277 0 0 0-.217.3Z"/>
  <path fill="#F4BBA8" d="M176.329 106.085a44.933 44.933 0 0 0-6.126 11.194l7.873 7.228s3.302-3.882 4.615-7.228a6.335 6.335 0 0 1 5.767-2.883l3.848.364a.83.83 0 0 0 .846-1.152.814.814 0 0 0-.378-.413 15.306 15.306 0 0 0-5.821-1.476.16.16 0 0 1-.105-.039.16.16 0 0 1-.026-.207.155.155 0 0 1 .091-.064c1.063-.32 3.371-.733 7.253-.113a1.137 1.137 0 0 0 1.01-.349 1.129 1.129 0 0 0 .269-1.034 1.122 1.122 0 0 0-.629-.753c-1.334-.605-5.123-2.076-8.611-1.077 0 0-.03-1.604 7.489-1.476h1.727a1.23 1.23 0 0 0 .084-2.46 71.253 71.253 0 0 0-10.186 0 .171.171 0 0 1-.18-.124.171.171 0 0 1 .087-.201c1.402-.714 4.428-2.081 7.415-2.46.289-.032.557-.169.752-.386a1.188 1.188 0 0 0 .203-1.266 1.185 1.185 0 0 0-.695-.65 1.193 1.193 0 0 0-.482-.065c-3.208.221-11.691 1.378-16.09 7.09Z"/>
  <path fill="#0071F2" d="M178.087 125.608c-15.18 20.866-34.444 32.424-34.444 32.424-9.614 7.066-14.535 7.105-14.535 7.105-10.525.945-27.747-38.841-27.747-38.841-2.278-5.077-3.306-8.954-3.616-11.902-.734-6.849 2.381-8.625 2.381-8.625 5.491-6.204 11.066 3.282 11.066 3.282l18.767 30.87c2.387-1.9 4.291 1.555 4.291 1.555 2.18-2.416 10.919-7.071 10.919-7.071 11.381-6.544 23.8-18.284 23.8-18.284 5.413 1.147 7.657 3.937 8.552 6.175a7.869 7.869 0 0 1 .566 3.312Z"/>
  <path fill="#fff" d="M178.087 125.608c-15.18 20.866-34.444 32.424-34.444 32.424-9.614 7.066-14.535 7.105-14.535 7.105-10.525.945-27.747-38.841-27.747-38.841-2.278-5.077-3.306-8.954-3.616-11.902-.734-6.849 2.381-8.625 2.381-8.625 5.491-6.204 11.066 3.282 11.066 3.282l18.767 30.87c2.387-1.9 4.291 1.555 4.291 1.555 2.18-2.416 10.919-7.071 10.919-7.071 11.381-6.544 23.8-18.284 23.8-18.284 5.413 1.147 7.657 3.937 8.552 6.175a7.869 7.869 0 0 1 .566 3.312Z" opacity=".3"/>
  <path fill="#fff" d="M178.089 125.608c-15.18 20.867-34.444 32.424-34.444 32.424-9.615 7.066-14.535 7.105-14.535 7.105-10.525.945-27.747-38.84-27.747-38.84-2.278-5.078-3.307-8.955-3.617-11.902 0 0 23.127 46.909 28.131 37.94 0 0 3.587-9.482 3.247-2.239 0 0-2.578 12.586 10.702 5.343 0 0 16.573-4.733 37.692-33.147a7.87 7.87 0 0 1 .571 3.316Z" opacity=".3"/>
</svg>
