<svg width="520" height="393" viewBox="0 0 520 393" fill="none" xmlns="http://www.w3.org/2000/svg">
<mask id="mask0_731_1384" style="mask-type:luminance" maskUnits="userSpaceOnUse" x="0" y="0" width="520" height="393">
<path d="M519.832 0.648438H0.171875V392.355H519.832V0.648438Z" fill="white"/>
</mask>
<g mask="url(#mask0_731_1384)">
<path d="M455.479 27.8047H110.063C104.885 27.8047 100.688 32.0004 100.688 37.1762V247.291C100.688 252.467 104.885 256.663 110.063 256.663H455.479C460.656 256.663 464.854 252.467 464.854 247.291V37.1762C464.854 32.0004 460.656 27.8047 455.479 27.8047Z" stroke="#AEBFC4" stroke-miterlimit="10"/>
<path d="M100.688 52.1758H464.854" stroke="#AEBFC4" stroke-miterlimit="10"/>
<path d="M402.519 34.3164C401.516 34.3164 400.535 34.6139 399.7 35.1712C398.866 35.7285 398.216 36.5207 397.832 37.4475C397.448 38.3743 397.347 39.3941 397.543 40.378C397.739 41.3619 398.222 42.2657 398.931 42.975C399.641 43.6844 400.545 44.1674 401.53 44.3631C402.514 44.5588 403.534 44.4584 404.461 44.0745C405.388 43.6906 406.181 43.0405 406.738 42.2064C407.296 41.3723 407.594 40.3917 407.594 39.3885C407.594 38.7224 407.462 38.0629 407.207 37.4475C406.952 36.8321 406.579 36.273 406.107 35.802C405.636 35.331 405.077 34.9574 404.461 34.7025C403.846 34.4476 403.186 34.3164 402.519 34.3164Z" stroke="#AEBFC4" stroke-miterlimit="10"/>
<path d="M423.144 34.3164C422.141 34.3164 421.16 34.6139 420.325 35.1712C419.491 35.7285 418.841 36.5207 418.457 37.4475C418.072 38.3743 417.972 39.3941 418.168 40.378C418.364 41.3619 418.847 42.2657 419.556 42.975C420.266 43.6844 421.17 44.1674 422.155 44.3631C423.139 44.5588 424.159 44.4584 425.086 44.0745C426.013 43.6906 426.806 43.0405 427.363 42.2064C427.921 41.3723 428.219 40.3917 428.219 39.3885C428.219 38.7224 428.087 38.0629 427.832 37.4475C427.577 36.8321 427.204 36.273 426.732 35.802C426.261 35.331 425.702 34.9574 425.086 34.7025C424.471 34.4476 423.811 34.3164 423.144 34.3164Z" stroke="#AEBFC4" stroke-miterlimit="10"/>
<path d="M443.754 34.3164C442.75 34.3164 441.769 34.6139 440.935 35.1712C440.1 35.7285 439.45 36.5207 439.066 37.4475C438.682 38.3743 438.581 39.3941 438.777 40.378C438.973 41.3619 439.456 42.2657 440.166 42.975C440.875 43.6844 441.78 44.1674 442.764 44.3631C443.748 44.5588 444.768 44.4584 445.696 44.0745C446.623 43.6906 447.415 43.0405 447.973 42.2064C448.53 41.3723 448.828 40.3917 448.828 39.3885C448.828 38.7224 448.697 38.0629 448.442 37.4475C448.187 36.8321 447.813 36.273 447.342 35.802C446.871 35.331 446.311 34.9574 445.696 34.7025C445.08 34.4476 444.42 34.3164 443.754 34.3164Z" stroke="#AEBFC4" stroke-miterlimit="10"/>
<path d="M489.235 165.722C489.236 163.344 488.896 160.977 488.225 158.695L493.2 154.31L488.575 146.385L482.285 148.505C478.986 145.041 474.758 142.599 470.108 141.471L468.787 134.973H459.643L458.322 141.471C453.672 142.599 449.445 145.041 446.145 148.505L439.855 146.385L435.23 154.31L440.205 158.695C438.858 163.285 438.858 168.166 440.205 172.756L435.23 177.134L439.855 185.093L446.145 182.973C449.446 186.434 453.673 188.876 458.322 190.006L459.643 196.498H468.86L470.181 190.006C474.813 188.876 479.024 186.445 482.318 182.999L488.608 185.119L493.233 177.161L488.258 172.782C488.919 170.488 489.249 168.11 489.235 165.722ZM464.235 176.619C462.078 176.621 459.97 175.983 458.177 174.786C456.383 173.589 454.985 171.888 454.159 169.897C453.332 167.906 453.116 165.715 453.535 163.6C453.955 161.486 454.993 159.544 456.517 158.019C458.042 156.495 459.984 155.456 462.099 155.035C464.214 154.614 466.406 154.829 468.398 155.654C470.391 156.479 472.094 157.875 473.292 159.667C474.49 161.46 475.13 163.567 475.13 165.722C475.13 168.611 473.982 171.382 471.939 173.425C469.896 175.469 467.125 176.618 464.235 176.619Z" fill="#F6CC5D"/>
<path d="M468.058 181.918C476.993 179.81 482.526 170.86 480.418 161.929C478.309 152.997 469.356 147.466 460.421 149.574C451.486 151.682 445.952 160.631 448.061 169.563C450.17 178.494 459.122 184.026 468.058 181.918Z" stroke="white" stroke-miterlimit="10"/>
<path d="M21.4648 248.234C21.4648 248.234 24.7154 265.313 29.0298 269.368C33.3441 273.423 49.2601 270.729 49.2601 270.729L21.4648 248.234Z" fill="#1CA061"/>
<path d="M68.3409 312.322C68.3409 312.322 63.9605 276.659 59.8774 270.306C57.7302 266.964 21.4648 248.234 21.4648 248.234C25.8097 256.101 30.6651 263.675 36.0001 270.907C47.06 285.945 57.6773 277.465 60.4919 280.278C63.3064 283.092 66.8477 312.322 66.8477 312.322H68.3409Z" fill="#22B573"/>
<path d="M47.2598 222.017C47.7157 218.603 50.4774 208.637 50.4774 208.637C50.4774 208.637 54.2962 230.134 60.2358 251.03C60.2358 251.023 45.5751 234.618 47.2598 222.017Z" fill="#1CA061"/>
<path d="M68.7788 312.323C68.7788 312.323 68.3229 267.585 66.2087 260.023C64.0945 252.461 47.2601 222.016 47.2601 222.016C47.2601 222.016 44.2606 240.409 45.0336 246.418C46.5862 258.418 64.4315 264.633 65.5612 266.786C66.691 268.939 67.4905 312.356 67.4905 312.356L68.7788 312.323Z" fill="#22B573"/>
<path d="M65.6406 312.324C65.6406 312.324 72.5515 267.355 72.5515 265.09C72.5515 262.825 68.0191 242.418 72.5515 232.214C77.0838 222.01 91.3812 203.875 91.3812 203.875C91.3812 203.875 93.6473 226.99 91.3812 237.88C89.115 248.771 74.5666 263.954 74.2362 265.995C73.9059 268.036 67.5632 312.324 67.5632 312.324H65.6406Z" fill="#22B573"/>
<path d="M110.433 231.535C110.433 231.535 111.437 245.14 110.076 251.262C108.715 257.384 92.3828 261.915 92.3828 261.915C92.3828 261.915 107.46 242.644 110.433 231.535Z" fill="#1CA061"/>
<path d="M67.6602 312.325C67.6602 312.325 72.873 274.615 77.9802 266.677C83.0873 258.738 94.656 251.487 99.1883 246.95C103.721 242.412 110.42 231.535 110.42 231.535C110.42 231.535 107.341 251.031 103.714 259.194C100.087 267.357 82.0434 268.79 79.2156 269.398C76.3879 270.005 69.2392 312.325 69.2392 312.325H67.6602Z" fill="#22B573"/>
<path d="M50.418 284.637L52.3472 310.281C52.5006 312.325 53.4213 314.236 54.9248 315.63C56.4282 317.023 58.4033 317.798 60.4539 317.797H78.1141C80.1654 317.798 82.1412 317.024 83.6458 315.63C85.1503 314.236 86.0725 312.326 86.2274 310.281L88.1566 284.637H50.418Z" fill="#15197A"/>
<path opacity="0.2" d="M70.4219 317.797H78.1123C80.1636 317.798 82.1394 317.024 83.644 315.63C85.1485 314.236 86.0706 312.326 86.2256 310.281L88.1548 284.637H81.3497C79.4337 292.918 75.747 306.92 70.4219 317.797Z" fill="black"/>
<path d="M197.81 159.811C241.184 159.811 276.346 124.663 276.346 81.3059C276.346 37.9487 241.184 2.80078 197.81 2.80078C154.435 2.80078 119.273 37.9487 119.273 81.3059C119.273 124.663 154.435 159.811 197.81 159.811Z" stroke="#5B7FE6" stroke-miterlimit="10"/>
<path d="M197.81 155.569C238.842 155.569 272.105 122.32 272.105 81.3042C272.105 40.2887 238.842 7.03906 197.81 7.03906C156.779 7.03906 123.516 40.2887 123.516 81.3042C123.516 122.32 156.779 155.569 197.81 155.569Z" fill="#5B7FE6"/>
<mask id="mask1_731_1384" style="mask-type:luminance" maskUnits="userSpaceOnUse" x="123" y="7" width="150" height="149">
<path d="M197.81 155.569C238.842 155.569 272.105 122.32 272.105 81.3042C272.105 40.2887 238.842 7.03906 197.81 7.03906C156.779 7.03906 123.516 40.2887 123.516 81.3042C123.516 122.32 156.779 155.569 197.81 155.569Z" fill="white"/>
</mask>
<g mask="url(#mask1_731_1384)">
<path d="M134.31 130.63C132.156 133.972 153.794 147.181 163.645 141.105L155.201 122.289C155.201 122.289 138.512 124.138 134.31 130.63Z" fill="#15197A"/>
<path opacity="0.2" d="M134.31 130.63C132.156 133.972 153.794 147.181 163.645 141.105L155.201 122.289C155.201 122.289 138.512 124.138 134.31 130.63Z" fill="black"/>
<path d="M141.457 133.723C141.708 130.679 152.887 93.906 161.516 84.8516C161.516 84.8516 169.384 96.8648 168.922 112.292L153.164 145.102L141.457 133.723Z" fill="#FFC5AE"/>
<path d="M220.436 43.2422C220.436 43.2422 220.647 50.0446 219.914 53.1486C219.181 56.2526 216.168 62.071 216.168 62.071L218.963 73.9191L230.703 72.4926C230.703 72.4926 234.073 59.9444 233.068 54.4827L220.436 43.2422Z" fill="#FF946E"/>
<path d="M214.237 35.9056L205.05 43.6106C204.352 44.1967 204.261 45.2381 204.847 45.9367L222.556 67.0334C223.143 67.732 224.184 67.8231 224.883 67.2369L234.069 59.532C234.768 58.9459 234.859 57.9044 234.273 57.2059L216.564 36.1091C215.977 35.4106 214.935 35.3195 214.237 35.9056Z" fill="#F6CC5D"/>
<path d="M223.822 66.6486C223.724 66.6497 223.626 66.629 223.537 66.5879C223.448 66.5467 223.369 66.4863 223.306 66.4109L205.6 45.3102C205.542 45.2435 205.498 45.1659 205.47 45.0819C205.443 44.9979 205.432 44.9093 205.44 44.8212C205.447 44.7331 205.472 44.6474 205.513 44.5692C205.554 44.491 205.611 44.4218 205.679 44.3657L214.869 36.6585C214.989 36.5562 215.141 36.5 215.299 36.5C215.397 36.4989 215.494 36.5197 215.583 36.5608C215.673 36.6019 215.751 36.6624 215.814 36.7378L233.527 57.8715C233.584 57.9388 233.627 58.0166 233.653 58.1006C233.679 58.1845 233.688 58.2728 233.679 58.3602C233.672 58.4482 233.647 58.5339 233.607 58.6121C233.566 58.6904 233.51 58.7597 233.441 58.8159L224.258 66.5231C224.136 66.6269 223.982 66.6832 223.822 66.6816V66.6486Z" stroke="white" stroke-miterlimit="10"/>
<path d="M224.943 46.0948C224.943 46.0948 226.072 42.7002 220.582 40.8972C215.092 39.0942 215.62 42.72 224.943 46.0948Z" fill="#FFC5AE"/>
<path d="M221.486 46.7559C222.035 45.8445 226.303 45.336 228.093 46.0955C229.884 46.855 228.615 48.9221 228.615 48.9221C228.615 48.9221 231.337 48.3344 231.337 51.5639C231.337 51.5639 234.053 53.5451 232.698 55.3151C231.344 57.085 227.671 58.6767 226.752 58.3663C225.834 58.0559 229.89 53.3866 229.89 53.3866C229.89 53.3866 225.385 54.0471 223.607 53.6244C221.83 53.2017 227.208 49.4835 227.208 49.4835C227.208 49.4835 220.02 49.1731 221.486 46.7559Z" fill="#FFC5AE"/>
<path d="M222.103 77.5718C222.103 77.5718 214.776 67.8305 213.097 64.9576C211.419 62.0847 211.366 54.0209 211.34 51.1943C211.314 48.3676 214.881 53.552 215.304 56.6692C215.727 59.7864 216.176 62.0847 216.176 62.0847C216.176 62.0847 222.565 67.0379 230.711 72.5063L222.103 77.5718Z" fill="#FFC5AE"/>
<path d="M227.568 61.5254C228.214 61.5254 228.737 61.0021 228.737 60.3565C228.737 59.7109 228.214 59.1875 227.568 59.1875C226.922 59.1875 226.398 59.7109 226.398 60.3565C226.398 61.0021 226.922 61.5254 227.568 61.5254Z" stroke="white" stroke-miterlimit="10"/>
<path d="M181.561 78.3906C181.561 78.3906 172.899 79.3482 161.516 84.8298C161.516 84.8298 167.726 120.79 166.14 130.842C164.555 140.894 162.434 163.645 162.434 163.645C162.434 163.645 178.786 173.373 194.464 171.57C210.142 169.768 224.671 159.94 229.349 160.152C229.349 160.152 225.345 98.5403 217.635 82.2211C213.044 81.2039 208.388 80.5087 203.701 80.1408L181.561 78.3906Z" fill="#15197A"/>
<path d="M203.715 80.1678C201.942 72.0359 201.087 63.7309 201.165 55.4084L185.527 48.4805C185.527 48.4805 186.518 68.3594 181.562 78.3913C181.562 78.3913 198.324 92.1216 203.715 80.1678Z" fill="#FFC5AE"/>
<path d="M201.167 55.4086L186.744 49.0156L186.539 51.7036C186.539 51.7036 187.999 65.0112 202.448 73.2335C201.524 67.3381 201.095 61.3756 201.167 55.4086Z" fill="#FF946E"/>
<path d="M182.374 35.4949C186.073 22.8675 209.832 20.305 211.034 38.3017C211.695 47.8119 213.637 63.6952 205.128 65.5774C196.618 67.4596 176.976 53.8878 182.374 35.4949Z" fill="#FFC5AE"/>
<path d="M199.79 42.5039C199.413 42.5039 199.083 42.9464 199.05 43.5408C199.017 44.1352 199.287 44.6305 199.664 44.6503C200.041 44.6701 200.371 44.2144 200.404 43.62C200.437 43.0256 200.166 42.5303 199.79 42.5039Z" fill="#5E1212"/>
<path d="M207.883 42.9844C207.507 42.9844 207.176 43.4269 207.143 44.0212C207.11 44.6156 207.381 45.111 207.758 45.1308C208.134 45.1506 208.465 44.6949 208.498 44.1005C208.531 43.5061 208.267 42.9844 207.883 42.9844Z" fill="#5E1212"/>
<path d="M194.824 40.9243C194.824 40.9243 198.26 39.5506 201.206 40.1978C201.206 40.1978 200.784 38.1307 200.063 38.0316C199.343 37.9326 195.63 38.4015 194.824 40.9243Z" fill="#5E1212"/>
<path d="M211.137 39.7886C211.104 39.2801 211.064 38.7847 211.038 38.3026C210.252 26.514 199.767 23.5487 191.594 26.4744L193.351 29.7765C193.351 29.7765 194.23 40.3037 208.957 35.9845C209.342 37.4198 210.093 38.7305 211.137 39.7886Z" fill="#FF946E"/>
<path d="M206.293 40.9251C206.293 40.9251 207.951 40.4959 209.048 41.4006C209.048 41.4006 208.539 39.4194 207.482 39.1024C206.425 38.7853 206.293 40.9251 206.293 40.9251Z" fill="#5E1212"/>
<path d="M189.331 20.4655C193.883 19.3559 195.938 17.9492 195.938 17.9492C195.938 17.9492 196.553 20.3598 195.185 21.0929C195.185 21.0929 202.671 16.0604 208.022 19.838C213.81 23.9195 217.635 22.7968 217.635 22.7968C217.353 23.405 216.953 23.9515 216.458 24.4048C215.964 24.8582 215.385 25.2095 214.755 25.4385C214.755 25.4385 217.899 28.8595 216.737 32.2145C215.574 35.5695 213.493 35.5166 212.964 38.4753C212.964 38.4753 208.617 36.6129 208.016 32.4192C207.716 32.9086 207.52 33.4537 207.438 34.0214C207.356 34.5891 207.391 35.1675 207.54 35.7214C207.54 35.7214 197.689 36.7384 193.348 29.7775C193.348 29.7775 192.185 36.6526 189.338 37.3658C189.338 37.3658 190.613 44.1748 188.545 45.1787L185.545 56.8353C183.116 52.3212 180.162 48.1094 176.745 44.2871C171.189 38.1517 179.89 32.3466 179.89 32.3466C178.713 31.9055 177.477 31.6385 176.223 31.554C176.223 31.554 178.113 27.6773 181.568 31.0257C181.561 31.0389 178.747 23.0411 189.331 20.4655Z" fill="#5E1212"/>
<path d="M189.333 46.1099C189.333 46.1099 183.149 38.0989 181.827 43.0125C180.876 46.5326 186.981 51.3339 186.981 51.3339L189.333 46.1099Z" fill="#FFC5AE"/>
<path d="M187.403 48.0642C187.403 48.0642 184.099 40.9382 183.485 43.3686C182.87 45.799 185.467 47.5755 185.467 47.5755" stroke="#FF946E" stroke-linecap="round" stroke-linejoin="round"/>
<path d="M198.562 46.6854C197.156 45.5917 195.457 44.9411 193.68 44.8164" stroke="#FF946E" stroke-linecap="round" stroke-linejoin="round"/>
<path d="M207.672 46.6433C208.461 46.1691 209.322 45.8277 210.222 45.6328" stroke="#FF946E" stroke-linecap="round" stroke-linejoin="round"/>
<path d="M189.709 40.9258C189.709 40.9258 190.046 47.9659 195.49 52.6484C195.49 52.6484 196.184 51.1492 198.562 50.7265C200.941 50.3039 205.975 51.9946 205.975 51.9946C205.975 51.9946 209.761 48.9038 211.69 51.3341C213.619 53.7645 214.716 65.3881 207.673 66.9599C200.63 68.5317 192.656 65.7579 190.984 60.3556C190.984 60.3556 192.041 48.9896 187.43 43.9241L189.709 40.9258Z" fill="#5E1212"/>
<path d="M206.637 54.5835C206.637 54.5835 201.464 53.857 198.742 52.6484C198.742 52.6484 200.843 60.5538 206.637 54.5835Z" fill="white"/>
<path d="M217.648 82.25C217.648 82.25 224.202 84.1388 231.522 91.496C238.843 98.8532 253.986 110.444 253.986 110.444C253.986 110.444 250.147 131.709 243.018 132.337C235.889 132.964 220.495 119.558 220.495 119.558C220.495 119.558 214.661 95.2406 217.648 82.25Z" fill="#15197A"/>
<path d="M201.164 58.871C201.164 58.871 203.41 57.8077 204.619 58.871" stroke="#FF946E" stroke-linecap="round" stroke-linejoin="round"/>
<path d="M241.833 132.244C239.097 132.026 239.031 98.2852 239.031 98.2852L254.022 110.417C254.022 110.417 251.974 133.044 241.833 132.244Z" fill="#15197A"/>
<path opacity="0.2" d="M241.833 132.244C239.097 132.026 239.031 98.2852 239.031 98.2852L254.022 110.417C254.022 110.417 251.974 133.044 241.833 132.244Z" fill="black"/>
<path d="M204.91 44.457C205.055 47.0923 206.181 49.5778 208.068 51.4245C208.068 51.4245 205.749 52.8577 203.879 51.1736" stroke="#FF946E" stroke-linecap="round" stroke-linejoin="round"/>
<path d="M222.102 77.5733L230.691 72.5078C230.691 72.5078 256.2 107.127 256.913 110.74C257.627 114.353 258.525 122.423 254.006 123.612C250.042 124.655 244.301 124.351 239.815 117.536C237.615 114.214 222.102 77.5733 222.102 77.5733Z" fill="#FFC5AE"/>
<path opacity="0.2" d="M225.969 123.612C225.969 123.612 224.648 102.023 221.027 88.6094" stroke="black" stroke-miterlimit="10"/>
<path d="M161.516 84.832C161.516 84.832 157.552 85.9019 148.765 104.902C143.941 115.317 134.309 130.659 134.309 130.659C134.309 130.659 152.412 120.158 163.643 141.134C163.643 141.134 169.51 122.067 168.883 110.443C168.255 98.8199 161.516 84.832 161.516 84.832Z" fill="#15197A"/>
<path opacity="0.2" d="M163.176 88.6133C163.176 88.6133 174.328 105.514 167.206 126.766" stroke="black" stroke-miterlimit="10"/>
<path opacity="0.2" d="M178.637 80.7812C178.637 80.7812 199.779 97.9524 207.046 80.7812" stroke="black" stroke-miterlimit="10"/>
</g>
<path d="M177.223 109.07C177.223 109.07 153.214 129.913 141.46 133.724C138.923 139.998 142.782 148.821 152.751 147.785C161.895 146.827 183.11 118.997 183.11 118.997L177.223 109.07Z" fill="#FFC5AE"/>
<path d="M177.223 109.07C177.223 109.07 176.08 110.061 174.164 111.659C175.354 116.863 176.018 122.173 176.146 127.509C180.11 122.629 183.083 118.983 183.083 118.983L177.223 109.07Z" fill="#FF946E"/>
<path d="M174.457 105.228C174.457 105.228 175.428 97.7455 174.992 93.7697C174.556 89.7939 181.844 92.7922 179.551 102.956L178.54 107.711L174.457 105.228Z" fill="#FF946E"/>
<path d="M181.556 119.973C180.9 119.807 180.297 119.477 179.803 119.015C179.308 118.554 178.939 117.974 178.729 117.331C174.276 116.255 174.89 111.79 174.89 111.79C174.89 111.79 169.77 107.22 172.247 104.611C178.854 97.7163 181.087 90.445 182.633 92.4131C184.748 95.1142 178.854 107.695 178.854 107.695C178.854 107.695 184.516 93.549 186.267 93.4962C188.018 93.4433 188.157 100.351 181.821 110.727C181.821 110.727 186.181 96.8181 188.077 98.4758C191.599 101.54 184.933 115.554 183.089 119.253C182.952 119.528 182.726 119.748 182.448 119.879C182.17 120.009 181.856 120.042 181.556 119.973Z" fill="#FFC5AE"/>
<path d="M183.864 112.334C187.366 110.716 191.475 103.748 191.792 106.271C192.096 108.51 192.578 110.544 188.072 115.346L183.289 118.819L183.864 112.334Z" fill="#FFC5AE"/>
<path d="M186.971 98.8398C186.971 98.8398 184.533 106.197 181.844 110.728" stroke="#FF946E" stroke-linecap="round" stroke-linejoin="round"/>
<path d="M187.466 109.605C186.181 110.704 184.791 111.673 183.316 112.498" stroke="#FF946E" stroke-linecap="round" stroke-linejoin="round"/>
<path d="M141.461 133.726L142.419 129.73L149.396 134.254L141.461 133.726Z" fill="#FF946E"/>
<path d="M143.934 132.761C143.934 132.761 148.056 130.779 150.838 128.996" stroke="#FF946E" stroke-linecap="round" stroke-linejoin="round"/>
<path d="M267.902 9.86719H246.145C242.423 9.86719 239.406 12.8832 239.406 16.6036V38.3515C239.406 42.0719 242.423 45.0878 246.145 45.0878H267.902C271.624 45.0878 274.641 42.0719 274.641 38.3515V16.6036C274.641 12.8832 271.624 9.86719 267.902 9.86719Z" fill="#F6CC5D"/>
<path d="M246.609 24.5835L254.822 32.7927L267.448 20.1719" stroke="white" stroke-width="2" stroke-miterlimit="10"/>
<path d="M431.608 227.79C426.983 199.173 332.022 197.284 322.64 227.79C315.373 251.459 297.078 322.138 289.394 334.27C283.547 343.516 250.711 339.805 236.757 349.348C226.906 356.078 230.91 373.038 232.132 379.497H395.587C430.683 379.497 431.608 227.79 431.608 227.79Z" fill="#EA907F"/>
<path opacity="0.2" d="M431.611 227.791C431.112 224.975 429.824 222.357 427.898 220.242C425.784 222.36 424.2 224.946 423.273 227.791C416.006 251.461 397.711 322.14 390.027 334.272C384.18 343.518 351.344 339.806 337.39 349.349C327.539 356.079 331.543 373.039 332.765 379.498H395.564C430.686 379.498 431.611 227.791 431.611 227.791Z" fill="black"/>
<path d="M246.234 379.496L224.035 518.496H231.626L262.012 379.496H246.234Z" fill="#EA907F"/>
<path d="M285.625 379.496L282.414 518.496H290.005L301.402 379.496H285.625Z" fill="#EA907F"/>
<path d="M347.066 379.496L350.277 518.496H342.686L331.289 379.496H347.066Z" fill="#EA907F"/>
<path d="M386.457 379.496L408.656 518.496H401.058L370.68 379.496H386.457Z" fill="#EA907F"/>
<g opacity="0.4">
<path d="M261.296 382.765L262.01 379.496H246.233L246.094 380.388L261.296 382.765Z" fill="black"/>
<path d="M300.626 388.914L301.4 379.496H285.622L285.457 386.543L300.626 388.914Z" fill="black"/>
<path d="M347.45 396.238L347.066 379.496H331.289L332.472 393.9L347.45 396.238Z" fill="black"/>
<path d="M390.196 402.921L386.457 379.496H370.68L375.291 400.59L390.196 402.921Z" fill="black"/>
</g>
<path d="M285.113 308.809L281.149 327.063L244.883 339.836C238.237 342.154 232.605 346.712 228.953 352.727C225.3 358.742 223.855 365.84 224.864 372.804C226.635 384.692 231.432 396.144 243.364 396.144H339.23C339.23 396.144 368.241 371.536 372.324 339.069C374.214 323.952 361.826 308.809 361.826 308.809H285.113Z" fill="#15197A"/>
<path d="M261.68 318.188C261.68 318.188 243.874 302.688 246.484 277.539L255.555 278.761L268.544 306.796L261.68 318.188Z" fill="#F6CC5D"/>
<path opacity="0.4" d="M261.68 318.188C261.68 318.188 243.874 302.688 246.484 277.539L255.555 278.761L268.544 306.796L261.68 318.188Z" fill="black"/>
<path d="M296.936 199.324C296.936 199.324 288.095 204.093 280.749 220.887C267.958 250.144 260.003 271.08 260.003 271.08L195.493 301.948C195.493 301.948 191.806 309.537 200.402 316.326C200.402 316.326 261.668 302.265 273.131 296.117C284.594 289.968 302.525 234.697 302.525 234.697C302.525 234.697 306.397 214.765 296.936 199.324Z" fill="#FFC5AE"/>
<path d="M195.493 301.929C195.493 301.929 189.336 298.204 185.722 298.026C182.108 297.848 177.06 300.007 170.75 301.989C164.441 303.97 152.621 313.288 151.399 314.041C150.176 314.794 151.973 316.894 157.754 314.041C157.754 314.041 156.684 316.234 159.737 316.234C161.719 316.234 164.236 313.764 164.236 313.764C164.236 313.764 164.236 316.194 165.504 316.26C166.773 316.326 197.799 311.703 197.799 311.703L195.493 301.929Z" fill="#FFC5AE"/>
<path d="M200.403 316.307H188.431C182.293 316.307 172.013 316.109 173.453 313.738C174.893 311.368 196.835 307.59 196.835 307.59L200.403 316.307Z" fill="#FFC5AE"/>
<path d="M190.406 308.797C190.406 308.797 174.192 311.65 173.452 313.763C172.712 315.877 181.929 316.266 181.929 316.266" stroke="#FF946E" stroke-miterlimit="10"/>
<path d="M164.281 313.763C165.186 312.086 169.699 306.789 176.914 302.8C179.255 301.681 181.654 300.689 184.102 299.828" stroke="#FF946E" stroke-miterlimit="10"/>
<path d="M157.754 314.048C160.463 310.29 169.646 302.82 169.646 302.82" stroke="#FF946E" stroke-miterlimit="10"/>
<path d="M261.681 318.19C261.681 318.19 285.366 303.495 292.608 287.42C299.849 271.345 311.404 226.588 311.404 226.588L296.935 199.312C296.935 199.312 287.956 204.094 280.748 220.875C273.54 237.657 260.002 271.068 260.002 271.068L246.465 277.547C246.465 277.547 250.27 276.999 256.884 287.453C263.497 297.908 261.681 318.19 261.681 318.19Z" fill="#F6CC5D"/>
<path opacity="0.2" d="M260 271.059L270.446 286.453" stroke="black" stroke-miterlimit="10"/>
<path opacity="0.2" d="M292.607 287.419C299.874 271.344 311.403 226.6 311.403 226.6L301.163 207.289C288.074 252.482 261.68 318.188 261.68 318.188C261.68 318.188 285.365 303.494 292.607 287.419Z" fill="black"/>
<path d="M316.556 194.887L296.933 199.345C296.933 199.345 283.594 232.016 283.924 244.881C284.254 257.746 285.113 308.83 285.113 308.83C285.113 308.83 322.019 319.919 361.826 308.83C361.826 308.83 365.083 266.094 366.9 256.848C368.717 247.602 371.155 196.498 371.155 196.498L350.892 194.887H316.556Z" fill="#F7F7F7"/>
<path d="M366.796 124.407C369.439 132.332 373.482 167.48 382.686 177.901C382.686 177.901 356.443 193.415 332.348 192.094C308.252 190.773 292.852 179.863 292.852 179.863C292.852 179.863 310.38 150.626 313.551 124.387L366.796 124.407Z" fill="#5E1212"/>
<path d="M347.902 154.23C347.902 154.23 342.927 187.569 350.895 194.867C350.895 194.867 335.124 215.043 325.306 212.612C316.962 210.545 316.559 194.886 316.559 194.886C316.559 194.886 319.723 192.714 321.976 186.895C324.229 181.077 324.83 165.702 324.83 165.702L347.902 154.23Z" fill="#FFC5AE"/>
<path d="M344.756 155.789L324.836 165.695C324.836 165.695 324.321 178.594 322.504 185.224C342.866 178.594 344.611 159.276 344.756 155.789Z" fill="#FF946E"/>
<path d="M354.846 122.463C348.463 100.715 307.547 96.3236 305.479 127.298C304.389 143.676 300.986 171.031 315.654 174.274C330.321 177.517 364.135 154.144 354.846 122.463Z" fill="#FFC5AE"/>
<path d="M323.73 134.41C323.73 134.41 329.736 129.457 335.96 136.088C335.96 136.088 333.277 126.023 324.695 130.804L323.73 134.41Z" fill="#5E1212"/>
<path d="M324.695 141.999C324.695 141.999 326.677 136.221 329.082 136.366C331.487 136.511 330.86 142.237 330.86 142.237" stroke="#5E1212" stroke-linecap="round" stroke-linejoin="round"/>
<path d="M313.817 133.937C313.817 133.937 309.284 128.997 306.668 133.092C306.668 133.092 308.961 125.688 313.817 130.695V133.937Z" fill="#5E1212"/>
<path d="M312.506 140.967C312.506 140.967 312.651 135.559 310.649 135.559C308.647 135.559 308.449 139.911 308.449 139.911" stroke="#5E1212" stroke-linecap="round" stroke-linejoin="round"/>
<path d="M315.481 144.57C314.354 147.306 312.551 149.713 310.242 151.564C310.54 152.307 311.043 152.949 311.692 153.417C312.341 153.885 313.11 154.158 313.909 154.206" stroke="#FF946E" stroke-linecap="round" stroke-linejoin="round"/>
<path d="M310.887 158.383C310.887 158.383 314.435 163.481 322.231 158.383" stroke="#FF946E" stroke-linecap="round" stroke-linejoin="round"/>
<path d="M325.305 146.088C327.069 143.043 334.66 143.856 335.123 146.088" stroke="#FF946E" stroke-linecap="round" stroke-linejoin="round"/>
<path d="M310.487 145.842C310.487 145.842 308.26 141.919 305.406 143.814" stroke="#FF946E" stroke-linecap="round" stroke-linejoin="round"/>
<path d="M304.756 130.415C308.153 123.967 313.137 118.49 319.238 114.499C319.238 114.499 330.82 142.369 352.695 143.452L366.795 124.405C366.795 124.405 361.212 102.479 347.899 100.293C334.586 98.1072 320.678 104.969 320.678 104.969C320.678 104.969 314.303 96.641 306.407 102.73C298.512 108.819 288.496 105.108 288.496 105.108C288.496 105.108 291.073 110.226 301.71 108.846C301.703 108.846 287.452 123.877 304.756 130.415Z" fill="#5E1212"/>
<path d="M343.891 130.414C343.891 130.414 345.338 156.065 356.444 162.471L358.578 131.543L343.891 130.414Z" fill="#5E1212"/>
<path d="M345.972 147.112C345.972 147.112 361.386 129.492 360.983 143.414C360.58 157.336 344.426 157.692 344.426 157.692L345.972 147.112Z" fill="#FFC5AE"/>
<path d="M308.868 146.958C312.802 146.958 315.991 143.77 315.991 139.838C315.991 135.906 312.802 132.719 308.868 132.719C304.935 132.719 301.746 135.906 301.746 139.838C301.746 143.77 304.935 146.958 308.868 146.958Z" stroke="#ECECEC" stroke-width="2" stroke-miterlimit="10"/>
<path d="M328.165 146.958C332.099 146.958 335.287 143.77 335.287 139.838C335.287 135.906 332.099 132.719 328.165 132.719C324.232 132.719 321.043 135.906 321.043 139.838C321.043 143.77 324.232 146.958 328.165 146.958Z" stroke="#ECECEC" stroke-width="2" stroke-miterlimit="10"/>
<path d="M315.996 139.84H321.037" stroke="#ECECEC" stroke-width="2" stroke-miterlimit="10"/>
<path d="M335.289 139.84H352.54" stroke="#ECECEC" stroke-width="2" stroke-miterlimit="10"/>
<path d="M357.67 146.015C357.67 146.015 358.906 141.392 355.622 143.175C349.312 146.589 349.075 149.343 349.768 153.2" stroke="#FF946E" stroke-miterlimit="10"/>
<path d="M352.697 140.971C352.697 140.971 351.785 97.3294 320.68 104.971L318.348 102.732C318.348 102.732 329.454 93.1225 343.89 102.732C358.326 112.341 358.571 139.841 358.571 139.841L352.697 140.971Z" fill="#15197A"/>
<path d="M363.401 148.908C364.688 140.925 361.385 133.753 356.025 132.89C350.664 132.027 345.276 137.799 343.989 145.783C342.703 153.766 346.006 160.938 351.366 161.801C356.727 162.664 362.115 156.892 363.401 148.908Z" fill="#15197A"/>
<path opacity="0.2" d="M363.401 148.908C364.688 140.925 361.385 133.753 356.025 132.89C350.664 132.027 345.276 137.799 343.989 145.783C342.703 153.766 346.006 160.938 351.366 161.801C356.727 162.664 362.115 156.892 363.401 148.908Z" fill="black"/>
<path opacity="0.2" d="M362.443 147.217C362.916 141.961 361.143 137.506 358.483 137.267C355.823 137.028 353.283 141.094 352.81 146.35C352.337 151.606 354.11 156.061 356.77 156.3C359.43 156.54 361.97 152.473 362.443 147.217Z" stroke="white" stroke-width="1.00404" stroke-miterlimit="10"/>
<path d="M359.098 148.081C359.336 144.968 358.356 142.355 356.908 142.244C355.46 142.133 354.092 144.567 353.854 147.68C353.615 150.793 354.596 153.406 356.044 153.517C357.492 153.628 358.859 151.194 359.098 148.081Z" fill="#F6CC5D"/>
<path d="M348.991 145.353C349.46 140.003 351.845 135.341 354.997 132.805C349.526 132.805 344.525 139.317 343.818 147.334C343.111 155.352 346.982 161.864 352.446 161.864C354.349 161.815 356.177 161.116 357.626 159.882C352.149 159.882 348.291 153.37 348.991 145.353Z" fill="#15197A"/>
<path d="M331.946 163.061L331.438 161.668C342.207 157.883 345.755 153.214 345.788 153.168L346.977 154.053C346.845 154.258 343.138 159.132 331.946 163.061Z" fill="#F6CC5D"/>
<path d="M332.346 163.292C332.346 163.292 332.591 160.987 330.364 160.651C328.138 160.314 324.286 162.929 325.277 164.917C326.268 166.905 331.633 165.637 332.346 163.292Z" fill="#15197A"/>
<path d="M371.158 196.477C371.158 196.477 381.425 199.779 385.29 212.868C389.155 225.958 416.144 290.086 376.635 292.589C367.775 293.15 364.359 256.014 364.359 256.014C364.359 256.014 363.348 210.187 371.158 196.477Z" fill="#F6CC5D"/>
<path d="M283.924 244.861C284.254 257.72 285.113 308.811 285.113 308.811C291.339 310.507 297.685 311.732 304.095 312.476C306.929 259.014 316.556 194.887 316.556 194.887L296.933 199.345C296.933 199.345 283.594 231.996 283.924 244.861Z" fill="#D7DDDC"/>
<path d="M350.893 194.887C350.893 194.887 342.509 256.379 346.308 325.652C346.308 325.652 370.906 331.067 380.71 320.963C380.71 320.963 371.857 296.091 371.157 259.074C370.866 243.435 371.157 196.511 371.157 196.511L350.893 194.887Z" fill="#F6CC5D"/>
<path d="M316.556 194.887C316.556 194.887 299.207 245.343 294.701 322.825C294.701 322.825 284.42 324.185 277.562 319.681C277.562 319.681 282.848 242.603 283.918 237.59C286.827 224.399 291.192 211.572 296.934 199.345L316.556 194.887Z" fill="#F6CC5D"/>
<path opacity="0.2" d="M371.158 251.533C371.158 251.533 358.526 223.352 367.729 202.152" stroke="black" stroke-miterlimit="10"/>
<path opacity="0.2" d="M371.157 259.042C371.111 256.566 371.085 253.31 371.058 249.578L347.227 233.543C346.738 240.722 346.289 248.693 345.945 257.266C350.471 271.207 357.25 287.209 366.797 298.556L372.829 325.468C375.794 324.637 378.504 323.077 380.711 320.931C380.711 320.931 371.858 296.059 371.157 259.042Z" fill="black"/>
<path opacity="0.2" d="M293.902 207.152C293.902 207.152 287.024 225.644 283.919 237.572C280.814 249.499 278.938 304.876 278.938 304.876" stroke="black" stroke-miterlimit="10"/>
<path d="M381.696 256.729C381.696 256.729 386.843 303.5 370.048 290.576C360.138 282.961 359.008 251.531 359.008 251.531L381.696 256.729Z" fill="#F6CC5D"/>
<path opacity="0.4" d="M381.696 256.729C381.696 256.729 386.843 303.5 370.048 290.576C360.138 282.961 359.008 251.531 359.008 251.531L381.696 256.729Z" fill="black"/>
<path d="M321.56 187.879C320.488 190.586 318.771 192.991 316.559 194.886C316.559 194.886 310.388 218.622 302.638 253.664C302.638 253.664 295.992 235.047 297.062 228.878C298.132 222.71 304.33 217.572 304.33 217.572C304.33 217.572 303.669 205.433 303.867 200.658C304.065 195.883 321.56 187.879 321.56 187.879Z" fill="#F6CC5D"/>
<path opacity="0.4" d="M321.56 187.879C320.488 190.586 318.771 192.991 316.559 194.886C316.559 194.886 310.388 218.622 302.638 253.664C302.638 253.664 295.992 235.047 297.062 228.878C298.132 222.71 304.33 217.572 304.33 217.572C304.33 217.572 303.669 205.433 303.867 200.658C304.065 195.883 321.56 187.879 321.56 187.879Z" fill="white"/>
<path d="M347.34 187.879C347.34 187.879 361.948 193.228 363.329 196.464C364.71 199.701 352.203 217.836 352.203 217.836C352.203 217.836 356.986 225.437 357.607 230.292C358.228 235.146 345.973 257.264 345.973 257.264C345.973 257.264 346.303 220.035 350.921 194.866C349.017 192.975 347.764 190.528 347.34 187.879Z" fill="#F6CC5D"/>
<path opacity="0.4" d="M347.34 187.879C347.34 187.879 361.948 193.228 363.329 196.464C364.71 199.701 352.203 217.836 352.203 217.836C352.203 217.836 356.986 225.437 357.607 230.292C358.228 235.146 345.973 257.264 345.973 257.264C345.973 257.264 346.303 220.035 350.921 194.866C349.017 192.975 347.764 190.528 347.34 187.879Z" fill="white"/>
<path d="M339.032 183.66C339.032 183.66 333.086 162.751 330.688 165.485C324.702 172.36 332.187 187.015 332.187 187.015L339.032 183.66Z" fill="#FF946E"/>
<path d="M348.999 200.402C348.999 200.402 346.818 188.851 347.439 185.608C348.298 181.111 343.198 171.119 340.925 167.638C338.652 164.158 332.052 156.913 331.325 158.32C330.598 159.726 332.798 166.364 335.95 170.537C335.95 170.537 333.149 167.896 331.523 170.597C331.051 171.319 330.747 172.137 330.633 172.992C330.518 173.847 330.597 174.716 330.863 175.537C330.119 175.557 329.392 175.768 328.753 176.148C328.113 176.528 327.582 177.066 327.209 177.71C326 179.902 326.191 183.092 326.191 183.092C326.191 183.092 322.617 183.66 322.544 186.599C322.472 189.538 325.187 196.446 326.343 198.962C327.5 201.479 328.491 197.199 328.491 197.199L335.956 205.124L348.999 200.402Z" fill="#FFC5AE"/>
<path d="M335.949 170.535C335.949 170.535 339.002 173.012 340.647 180.263" stroke="#FF946E" stroke-miterlimit="10"/>
<path d="M330.828 175.535C330.828 175.535 334.845 177.767 336.114 184.497" stroke="#FF946E" stroke-miterlimit="10"/>
<path d="M326.148 183.09C326.148 183.09 328.87 182.258 331.434 187.878" stroke="#FF946E" stroke-miterlimit="10"/>
<path d="M328.457 197.198C327.195 195.001 326.728 192.435 327.136 189.934" stroke="#FF946E" stroke-miterlimit="10"/>
<path d="M345.027 199.832L381.695 256.728C381.695 256.728 379.759 285.358 358.571 266.819C345.357 255.262 331.324 202.13 331.324 202.13L345.027 199.832Z" fill="#FFC5AE"/>
<path d="M242.17 163.359H95.7019C94.2443 163.359 92.8043 163.678 91.4836 164.294C90.1628 164.91 88.9934 165.809 88.0578 166.926C87.1222 168.043 86.4432 169.352 86.0688 170.76C85.6943 172.168 85.6335 173.641 85.8906 175.075L103.32 273.862C103.732 276.163 104.941 278.245 106.735 279.745C108.528 281.245 110.793 282.066 113.131 282.065H263.108L242.17 163.359Z" fill="#5B7FE6"/>
<path opacity="0.4" d="M256.587 245.079C208.965 249.828 139.605 246.532 87.6484 184.98L103.32 273.835C103.727 276.14 104.933 278.229 106.728 279.734C108.522 281.238 110.789 282.063 113.131 282.063H263.108L256.587 245.079Z" fill="white"/>
<path opacity="0.4" d="M195.913 246.355H145.906L139.609 282.065H202.401L195.913 246.355Z" fill="white"/>
<path d="M242.171 163.359C240.711 163.354 239.267 163.669 237.943 164.283C236.618 164.898 235.445 165.796 234.506 166.913C233.567 168.031 232.886 169.342 232.511 170.753C232.135 172.163 232.075 173.639 232.333 175.075L249.756 273.862C250.17 276.168 251.384 278.254 253.185 279.754C254.985 281.254 257.256 282.072 259.6 282.065H263.108L242.171 163.359Z" fill="#5B7FE6"/>
<path opacity="0.2" d="M242.171 163.359C240.711 163.354 239.267 163.669 237.943 164.283C236.618 164.898 235.445 165.796 234.506 166.913C233.567 168.031 232.886 169.342 232.511 170.753C232.135 172.163 232.075 173.639 232.333 175.075L249.756 273.862C250.17 276.168 251.384 278.254 253.185 279.754C254.985 281.254 257.256 282.072 259.6 282.065H263.108L242.171 163.359Z" fill="black"/>
<path d="M184.374 311.783L195.916 246.348H145.908L134.353 311.842C134.222 312.57 134.253 313.318 134.443 314.033C134.633 314.747 134.978 315.412 135.453 315.978C135.929 316.545 136.522 317.001 137.193 317.313C137.864 317.626 138.595 317.787 139.334 317.786H224.405V316.855C224.408 316.192 224.281 315.536 224.031 314.922C223.78 314.309 223.412 313.75 222.945 313.279C222.479 312.808 221.924 312.434 221.313 312.177C220.702 311.92 220.047 311.786 219.384 311.783H184.374Z" fill="#5B7FE6"/>
<path opacity="0.2" d="M139.335 317.766H224.405V316.835C224.407 315.5 223.88 314.219 222.939 313.272C221.998 312.325 220.719 311.79 219.384 311.783H184.367L185.986 302.59C151.373 289.322 145.902 246.348 145.902 246.348L134.353 311.842C134.226 312.569 134.259 313.314 134.451 314.027C134.643 314.739 134.988 315.4 135.463 315.965C135.937 316.53 136.53 316.983 137.199 317.295C137.868 317.606 138.597 317.767 139.335 317.766Z" fill="black"/>
<path opacity="0.2" d="M219.381 311.783H184.364L195.906 246.348C194.195 246.342 192.535 246.94 191.222 248.037C189.908 249.134 189.024 250.659 188.725 252.344L178.233 311.823C178.101 312.55 178.131 313.298 178.321 314.012C178.51 314.727 178.854 315.391 179.329 315.959C179.803 316.526 180.397 316.981 181.067 317.294C181.737 317.606 182.468 317.768 183.208 317.766H224.402V316.835C224.404 315.5 223.876 314.219 222.935 313.272C221.994 312.326 220.716 311.79 219.381 311.783Z" fill="black"/>
<path d="M169.41 219.988C172.135 217.013 171.467 211.967 167.918 208.718C164.368 205.469 159.281 205.247 156.556 208.222C153.83 211.198 154.499 216.243 158.048 219.492C161.598 222.741 166.685 222.963 169.41 219.988Z" fill="#F6CC5D"/>
<path d="M374.334 335.262L378.186 502.06H369.075L355.398 335.262H374.334Z" fill="#DB8321"/>
<path d="M474.554 335.262L501.2 502.06H492.082L455.625 335.262H474.554Z" fill="#DB8321"/>
<path d="M148.332 335.262L144.48 502.06H153.591L167.261 335.262H148.332Z" fill="#9C5518"/>
<path d="M48.1105 335.262L21.4648 502.06H30.5824L67.0393 335.262H48.1105Z" fill="#DB8321"/>
<path d="M505.211 317.766H14.793V342.413H505.211V317.766Z" fill="#EF962D"/>
<path d="M505.211 317.766H318.328V342.413H505.211V317.766Z" fill="#9C5518"/>
<path d="M14.793 317.766L318.328 342.413V317.766H14.793Z" fill="#DB8321"/>
<path d="M431.61 78.0228V105.728C431.608 106.622 431.252 107.478 430.619 108.11C429.986 108.741 429.128 109.096 428.234 109.096H380.519L373.621 118.342V78.0228C373.625 77.5805 373.717 77.1434 373.89 76.7364C374.064 76.3294 374.315 75.9605 374.631 75.6508C374.947 75.3411 375.321 75.0966 375.732 74.9314C376.142 74.7661 376.581 74.6833 377.024 74.6877H428.267C429.15 74.6945 429.996 75.0479 430.621 75.6717C431.246 76.2955 431.601 77.1398 431.61 78.0228Z" stroke="#5B7FE6" stroke-miterlimit="10"/>
<path d="M393.096 94.6985C394.425 94.6985 395.501 93.6223 395.501 92.2946C395.501 90.9669 394.425 89.8906 393.096 89.8906C391.768 89.8906 390.691 90.9669 390.691 92.2946C390.691 93.6223 391.768 94.6985 393.096 94.6985Z" fill="#F6CC5D"/>
<path d="M402.612 94.6985C403.94 94.6985 405.017 93.6223 405.017 92.2946C405.017 90.9669 403.94 89.8906 402.612 89.8906C401.284 89.8906 400.207 90.9669 400.207 92.2946C400.207 93.6223 401.284 94.6985 402.612 94.6985Z" fill="#F6CC5D"/>
<path d="M412.128 94.6985C413.456 94.6985 414.533 93.6223 414.533 92.2946C414.533 90.9669 413.456 89.8906 412.128 89.8906C410.799 89.8906 409.723 90.9669 409.723 92.2946C409.723 93.6223 410.799 94.6985 412.128 94.6985Z" fill="#F6CC5D"/>
<path d="M155.394 52.2422H113.592C111.731 52.2422 110.223 53.7502 110.223 55.6104V66.6924C110.223 68.5526 111.731 70.0605 113.592 70.0605H155.394C157.255 70.0605 158.764 68.5526 158.764 66.6924V55.6104C158.764 53.7502 157.255 52.2422 155.394 52.2422Z" fill="#15197A"/>
<path d="M141.165 62.8408C142.096 62.8408 142.85 62.0868 142.85 61.1567C142.85 60.2266 142.096 59.4727 141.165 59.4727C140.235 59.4727 139.48 60.2266 139.48 61.1567C139.48 62.0868 140.235 62.8408 141.165 62.8408Z" fill="white"/>
<path d="M134.489 62.8408C135.42 62.8408 136.174 62.0868 136.174 61.1567C136.174 60.2266 135.42 59.4727 134.489 59.4727C133.559 59.4727 132.805 60.2266 132.805 61.1567C132.805 62.0868 133.559 62.8408 134.489 62.8408Z" fill="white"/>
<path d="M127.825 62.8408C128.756 62.8408 129.51 62.0868 129.51 61.1567C129.51 60.2266 128.756 59.4727 127.825 59.4727C126.895 59.4727 126.141 60.2266 126.141 61.1567C126.141 62.0868 126.895 62.8408 127.825 62.8408Z" fill="white"/>
</g>
</svg>
