<svg width="147" height="40" viewBox="0 0 147 40" fill="none" xmlns="http://www.w3.org/2000/svg">
<g filter="url(#filter0_b_514_677)">
<path d="M0.516727 27.1491L0.763857 25.8909H5.4818L5.39193 26.3178C5.36198 26.4826 5.39942 26.6323 5.50427 26.7671C5.60911 26.887 5.74391 26.9469 5.90866 26.9469H14.7604L12.1319 26.1605L12.379 24.9474C12.4089 24.7826 12.3715 24.6403 12.2667 24.5205C12.1618 24.3857 12.027 24.3183 11.8623 24.3183H4.58314C4.13382 24.3183 3.71444 24.2209 3.32503 24.0262C2.93561 23.8315 2.61359 23.5769 2.35897 23.2624C2.10435 22.9478 1.91713 22.5809 1.79731 22.1615C1.69247 21.7422 1.68498 21.3078 1.77485 20.8585L2.49377 17.1965C2.62857 16.5225 2.95808 15.9683 3.48229 15.5339C4.02148 15.0996 4.63557 14.8824 5.32454 14.8824H15.704C16.1533 14.8824 16.5727 14.9798 16.9621 15.1745C17.3515 15.3692 17.6736 15.6238 17.9282 15.9383C18.1828 16.2529 18.37 16.6198 18.4898 17.0392C18.6097 17.4436 18.6246 17.8704 18.5348 18.3198L18.2652 19.6004H13.5472L13.6371 19.1735C13.6671 19.0087 13.6296 18.8665 13.5248 18.7466C13.4199 18.6118 13.2851 18.5444 13.1204 18.5444H4.17875L6.78485 19.3308L6.60512 20.2743C6.57516 20.4391 6.61261 20.5889 6.71745 20.7237C6.8223 20.8435 6.95709 20.9034 7.12185 20.9034H13.0754C13.5248 20.9034 13.8917 20.9034 14.1763 20.9034L14.6032 20.9259C15.0375 20.9558 15.4269 21.0756 15.7714 21.2853C16.1309 21.48 16.4304 21.7347 16.6701 22.0492C16.9097 22.3637 17.0819 22.7232 17.1868 23.1276C17.2916 23.517 17.2991 23.9289 17.2093 24.3632L16.4229 28.2948C16.2881 28.9688 15.9511 29.523 15.4119 29.9574C14.8877 30.3917 14.2811 30.6089 13.5922 30.6089H3.32503C2.8757 30.6089 2.45633 30.5115 2.06691 30.3168C1.67749 30.1221 1.35547 29.8675 1.10085 29.553C0.846234 29.2384 0.659014 28.8715 0.539193 28.4521C0.43435 28.0327 0.426861 27.5984 0.516727 27.1491ZM55.4843 30.6089H44.5881C44.1687 30.6089 43.7793 30.5265 43.4198 30.3618C43.0753 30.182 42.7833 29.9499 42.5436 29.6653C42.319 29.3657 42.1542 29.0288 42.0494 28.6543C41.9445 28.2649 41.9295 27.868 42.0044 27.4636L44.5207 14.8824H49.2386L46.992 26.1605L44.3634 26.9469H53.2152C53.335 26.9469 53.4398 26.9094 53.5297 26.8345C53.6345 26.7447 53.7019 26.6398 53.7319 26.52L56.0684 14.8824H60.7863L58.0679 28.497C57.9481 29.1261 57.641 29.6353 57.1468 30.0248C56.6675 30.4142 56.1133 30.6089 55.4843 30.6089ZM61.6834 30.6089L64.8287 14.8824H70.0634L67.8167 26.1605L65.0309 26.9469H77.4099L76.6685 30.6089H61.6834ZM93.5945 30.6089H79.1036L82.2489 14.8824H97.3913C97.8107 14.8824 98.1926 14.9723 98.5371 15.152C98.8965 15.3168 99.1886 15.5489 99.4133 15.8485C99.6529 16.133 99.8251 16.4625 99.93 16.837C100.035 17.2114 100.05 17.6008 99.9749 18.0052L98.2001 26.8121C98.0952 27.3662 97.9005 27.8755 97.6159 28.3398C97.3314 28.8041 96.9869 29.2085 96.5825 29.553C96.1781 29.8825 95.7213 30.1446 95.212 30.3393C94.7028 30.519 94.1636 30.6089 93.5945 30.6089ZM93.5495 26.52L95.0098 19.1735C95.0398 19.0087 95.0024 18.8665 94.8975 18.7466C94.8076 18.6118 94.6803 18.5444 94.5156 18.5444H83.6194L86.0682 19.3308L84.563 26.9469H93.0328C93.1526 26.9469 93.2575 26.9094 93.3473 26.8345C93.4522 26.7447 93.5196 26.6398 93.5495 26.52ZM104.708 18.5444L107.337 19.3308L107 21.0382H115.402L114.728 24.4531H106.303L105.944 26.3178C105.914 26.4826 105.951 26.6323 106.056 26.7671C106.161 26.887 106.296 26.9469 106.461 26.9469H115.762L115.043 30.6089H103.562C103.143 30.6089 102.754 30.5265 102.394 30.3618C102.05 30.182 101.758 29.9499 101.518 29.6653C101.293 29.3657 101.128 29.0288 101.024 28.6543C100.919 28.2649 100.904 27.868 100.979 27.4636L103.495 14.8824H118.188L117.447 18.5444H104.708ZM133.883 30.6089H129.435L126.559 18.0277H123.773L126.38 18.814L123.931 30.6089H119.078L122.223 14.8824H130.738L132.446 24.5879L137.298 14.8824H146.33L143.184 30.6089H138.354L140.713 18.0277L133.883 30.6089Z" fill="#3E68FC"/>
<g clip-path="url(#clip0_514_677)">
<path d="M38.9729 22.6194C38.7507 20.0992 37.1602 16.5195 33.3135 16.3469C27.6427 16.3622 26.8207 20.7495 27.3537 22.6929C27.801 24.3254 28.9881 25.627 30.675 25.4792C32.3619 25.3313 33.633 23.8409 33.4613 22.1569C33.4318 20.3709 34.947 20.4176 34.9928 22.3934C35.0548 25.0233 33.2782 27.3319 30.6579 27.5627C28.0374 27.7915 25.9263 25.8205 25.4876 23.2278C25.2225 21.6544 25.5239 18.6402 28.1996 16.2848C31.6382 13.2582 35.3838 16.8875 35.0795 11.9776C34.7725 7.02286 33.5271 6.91801 30.3155 4.988C28.1919 3.71117 27.8286 1.68583 27.9478 0.892465C27.9526 0.854323 27.9526 0.797078 27.8772 0.844802C25.8881 2.09399 25.8719 4.38443 27.0343 6.1695C27.5921 7.02487 28.7449 7.46537 28.8632 8.81946C29.0244 10.656 27.9678 11.2167 27.0972 11.9748C26.2275 12.7329 25.192 13.5463 23.63 15.153C21.1355 17.72 20.4794 20.9641 20.6787 23.7132C20.899 26.2325 22.1205 28.4247 23.9151 29.9304C25.7126 31.4371 28.0841 32.2581 30.6034 32.0369C33.1237 31.8156 35.315 30.5941 36.8226 28.7985C38.3282 27.002 39.1931 25.1387 38.9729 22.6194Z" fill="#3E68FC"/>
</g>
</g>
<defs>
<filter id="filter0_b_514_677" x="-2.45862" y="-2.01441" width="151.629" height="36.9277" filterUnits="userSpaceOnUse" color-interpolation-filters="sRGB">
<feFlood flood-opacity="0" result="BackgroundImageFix"/>
<feGaussianBlur in="BackgroundImageFix" stdDeviation="1.42029"/>
<feComposite in2="SourceAlpha" operator="in" result="effect1_backgroundBlur_514_677"/>
<feBlend mode="normal" in="SourceGraphic" in2="effect1_backgroundBlur_514_677" result="shape"/>
</filter>
<clipPath id="clip0_514_677">
<rect width="31.2464" height="31.2464" fill="white" transform="translate(14.2029 0.826172)"/>
</clipPath>
</defs>
</svg>
