<svg xmlns="http://www.w3.org/2000/svg" width="52" height="84" fill="none" viewBox="0 0 52 84">
  <path fill="#3E68FC" d="M50.941 58.514c-.617-6.745-5.038-16.327-15.73-16.789-15.762.041-18.047 11.784-16.565 16.986 1.243 4.37 4.543 7.853 9.231 7.458 4.689-.396 8.222-4.385 7.745-8.893-.082-4.78 4.13-4.655 4.257.633.172 7.04-4.766 13.219-12.05 13.836-7.283.613-13.15-4.663-14.37-11.602-.737-4.212.1-12.28 7.538-18.584 9.557-8.101 19.968 1.613 19.123-11.529-.854-13.262-4.315-13.542-13.242-18.708-5.902-3.418-6.912-8.839-6.58-10.962.012-.102.012-.256-.197-.128-5.529 3.344-5.574 9.474-2.343 14.252 1.55 2.29 4.755 3.469 5.084 7.093.448 4.916-2.49 6.417-4.91 8.446-2.416 2.029-5.295 4.206-9.636 8.507C1.362 45.4-.461 54.083.093 61.442c.612 6.743 4.007 12.61 8.995 16.641 4.996 4.033 11.588 6.23 18.59 5.638 7.006-.592 13.096-3.862 17.286-8.668 4.185-4.808 6.59-9.796 5.977-16.539Z"/>
</svg>
