<svg width="29" height="30" viewBox="0 0 29 30" fill="none" xmlns="http://www.w3.org/2000/svg">
<g clip-path="url(#clip0_418_6719)">
<path d="M22.7074 20.6574C22.5037 18.347 21.0456 15.0655 17.5193 14.9073C12.3208 14.9213 11.5673 18.9433 12.056 20.7247C12.4659 22.2213 13.5542 23.4145 15.1006 23.279C16.647 23.1435 17.8122 21.7772 17.6548 20.2334C17.6278 18.5961 19.0168 18.639 19.0587 20.4502C19.1156 22.8611 17.487 24.9774 15.0849 25.1889C12.6827 25.3987 10.7474 23.5919 10.3453 21.2151C10.1022 19.7728 10.3785 17.0096 12.8314 14.8504C15.9835 12.0759 19.4172 15.4029 19.1383 10.9019C18.8568 6.35982 17.7151 6.26371 14.771 4.49444C12.8243 3.32395 12.4913 1.4673 12.6005 0.740012C12.6049 0.705046 12.6049 0.652569 12.5358 0.696318C10.7124 1.84146 10.6975 3.94114 11.7631 5.57754C12.2745 6.36167 13.3313 6.76548 13.4397 8.00679C13.5875 9.69041 12.6189 10.2044 11.8208 10.8993C11.0235 11.5943 10.0742 12.3399 8.64234 13.8128C6.35558 16.1661 5.75417 19.1399 5.93688 21.6601C6.13879 23.9695 7.25859 25.9792 8.90372 27.3595C10.5515 28.7407 12.7255 29.4933 15.035 29.2905C17.3453 29.0877 19.3541 27.9679 20.7361 26.3219C22.1164 24.675 22.9093 22.9669 22.7074 20.6574Z" fill="white"/>
</g>
<defs>
<clipPath id="clip0_418_6719">
<rect width="28.644" height="28.644" fill="white" transform="translate(0 0.679688)"/>
</clipPath>
</defs>
</svg>
