<svg width="23" height="18" viewBox="0 0 23 18" fill="none" xmlns="http://www.w3.org/2000/svg">
<path fill-rule="evenodd" clip-rule="evenodd" d="M16.4209 5.88142H19.6687V5.38894C19.1604 3.49496 17.8683 3.50731 16.2709 3.5232C16.0079 3.52673 15.7696 3.5285 15.7555 3.5285H3.61488C3.33599 3.5285 3.11006 3.30256 3.11006 3.02367C3.11006 2.74478 3.33599 2.51884 3.61488 2.51884H15.7555C16.1138 2.51884 16.1897 2.51884 16.262 2.51708C17.6283 2.50296 18.8215 2.4906 19.6687 3.2902V3.05897C19.6687 2.49413 19.4375 1.98224 19.0651 1.6098C18.6926 1.23736 18.179 1.00612 17.6159 1.00612H3.48603C2.92119 1.00612 2.4093 1.23736 2.03686 1.6098C1.66441 1.98224 1.43318 2.49589 1.43318 3.05897V14.8218C1.43318 15.3866 1.66441 15.8985 2.03686 16.271C2.4093 16.6434 2.92295 16.8746 3.48603 16.8746H17.6141C18.179 16.8746 18.6909 16.6434 19.0633 16.271C19.4358 15.8985 19.667 15.3849 19.667 14.8218V13.152H16.4191C15.4395 13.152 14.5481 12.7513 13.9038 12.107C13.2596 11.4628 12.8589 10.5714 12.8589 9.59172V9.43815C12.8589 8.45851 13.2596 7.56712 13.9038 6.92284C14.5499 6.2821 15.4395 5.88142 16.4209 5.88142ZM20.6766 5.90083C21.042 5.95555 21.3686 6.12853 21.6175 6.37918C21.9246 6.68632 22.1135 7.10995 22.1135 7.57594V11.3886C22.1135 11.8758 21.9158 12.3171 21.5963 12.6366C21.3509 12.8819 21.0314 13.0567 20.6766 13.1237V14.8236C20.6766 15.6655 20.3324 16.4316 19.7782 16.9859C19.2239 17.5401 18.4579 17.8843 17.6159 17.8843H3.48603C2.64406 17.8843 1.878 17.5401 1.32374 16.9859C0.769493 16.4334 0.425293 15.6673 0.425293 14.8253V3.06074C0.425293 2.21877 0.769493 1.4527 1.32374 0.898452C1.878 0.3442 2.64406 0 3.48603 0H17.6141C18.4561 0 19.2222 0.3442 19.7764 0.898452C20.3307 1.4527 20.6749 2.21877 20.6749 3.06074V5.90083H20.6766ZM15.9832 8.13902C16.698 8.13902 17.277 8.71798 17.277 9.43286C17.277 10.1477 16.698 10.7267 15.9832 10.7267C15.2683 10.7267 14.6893 10.1477 14.6893 9.43286C14.6893 8.71798 15.2683 8.13902 15.9832 8.13902Z" fill="white"/>
</svg>
