<svg width="20" height="32" viewBox="0 0 20 32" fill="none" xmlns="http://www.w3.org/2000/svg">
<path fill-rule="evenodd" clip-rule="evenodd" d="M2.4999 10.3334C2.4999 6.19127 5.85776 2.8334 9.9999 2.8334C14.142 2.8334 17.4999 6.19127 17.4999 10.3334C17.4999 12.8432 16.2671 15.0651 14.374 16.4265C14.3552 16.439 14.3368 16.452 14.319 16.4657C13.0979 17.3273 11.608 17.8334 9.9999 17.8334C8.39427 17.8334 6.90648 17.3288 5.68644 16.4696C5.66526 16.4532 5.64336 16.4376 5.62079 16.4229C3.73053 15.0611 2.4999 12.841 2.4999 10.3334ZM3.98872 17.6901C1.85915 15.948 0.499899 13.2994 0.499899 10.3334C0.499899 5.0867 4.75319 0.833401 9.999 0.833401C15.2466 0.833401 19.4999 5.0867 19.4999 10.3334C19.4999 13.2992 18.1408 15.9476 16.0115 17.6898L18.0698 30.0016C18.1341 30.3864 17.9688 30.7734 17.6465 30.993C17.3241 31.2126 16.9035 31.2247 16.569 31.024L10.0001 27.0827L3.4313 31.024C3.09682 31.2247 2.67617 31.2126 2.3538 30.993C2.03143 30.7734 1.86617 30.3864 1.93049 30.0016L3.98872 17.6901Z5.81977 18.8667L4.26042 28.1942L9.48564 25.059C9.80232 24.869 10.1979 24.869 10.5146 25.059L15.7399 28.1942L14.1805 18.8665C12.9189 19.4857 11.5 19.8334 9.9999 19.8334C8.49994 19.8334 7.08118 19.4858 5.81977 18.8667Z" fill="#3E68FC"/>
</svg>
