<svg width="347" height="287" viewBox="0 0 347 287" fill="none" xmlns="http://www.w3.org/2000/svg">
<g clip-path="url(#clip0_1466_1486)">
<path d="M252.592 230.258H246.146L243.078 205.394H252.592V230.258Z" fill="#9E616A"/>
<path d="M255.994 241.426H251.371L250.546 237.062L248.433 241.426H236.172C235.585 241.426 235.012 241.238 234.539 240.89C234.065 240.542 233.716 240.051 233.541 239.49C233.366 238.929 233.375 238.327 233.567 237.771C233.758 237.216 234.123 236.736 234.606 236.402L244.397 229.64V225.228L254.695 225.842L255.994 241.426Z" fill="#2F2E41"/>
<path d="M290.888 222.122L285.715 225.969L268.417 207.848L276.052 202.171L290.888 222.122Z" fill="#9E616A"/>
<path d="M300.283 229.054L296.573 231.813L293.307 228.803L294.215 233.566L284.377 240.882C283.905 241.233 283.334 241.424 282.746 241.427C282.158 241.43 281.585 241.245 281.11 240.899C280.635 240.553 280.283 240.065 280.105 239.504C279.927 238.944 279.933 238.342 280.122 237.785L283.944 226.517L281.311 222.976L289.942 217.324L300.283 229.054Z" fill="#2F2E41"/>
<path d="M260.097 101.976C260.097 101.976 272.327 112.542 266.684 142.665L259.795 172.18L282.263 209.454L275.099 218.169L245.89 177.825L235.306 152.997L232.336 108.809L260.097 101.976Z" fill="#2F2E41"/>
<path d="M241.14 160.072L240.404 171.465L242.656 220.014L253.249 218.169L255.273 183.603L241.14 160.072Z" fill="#2F2E41"/>
<path d="M105.198 236.103L110.963 236.103L113.705 213.868L105.198 213.869L105.198 236.103Z" fill="#FFB6B6"/>
<path d="M103.728 234.221L105.35 234.221L111.685 231.645L115.08 234.221H115.081C116.999 234.221 118.84 234.983 120.196 236.34C121.553 237.697 122.315 239.537 122.315 241.455V241.69L103.728 241.691L103.728 234.221Z" fill="#2F2E41"/>
<path d="M127.537 232.471L133.16 233.74L140.733 212.656L132.434 210.782L127.537 232.471Z" fill="#FFB6B6"/>
<path d="M126.517 230.311L128.1 230.668L134.847 229.551L137.591 232.811L137.592 232.811C139.463 233.234 141.09 234.383 142.115 236.005C143.139 237.627 143.478 239.59 143.055 241.462L143.003 241.691L124.872 237.597L126.517 230.311Z" fill="#2F2E41"/>
<path d="M97.8973 100.172C95.1946 108.323 95.4803 117.171 98.5469 126.667L99.8578 180.134C99.8578 180.134 97.9047 215.197 104.207 227.535H113.348L117.873 176.932L118.441 142.967L138.037 171.622L125.556 226.708L136.806 227.713L157.059 167.933L132.07 109.935L97.8973 100.172Z" fill="#2F2E41"/>
<path d="M203.306 76.9536C210.297 70.6535 220.696 67.4857 229.419 71.0184C220.471 75.9861 213.569 83.9587 209.933 93.5256C208.545 97.2202 207.385 101.474 203.969 103.452C201.844 104.683 199.2 104.743 196.817 104.149C194.434 103.555 192.25 102.364 190.096 101.184L189.483 101.171C192.234 92.1707 196.314 83.2536 203.306 76.9536Z" fill="#E6E6E6"/>
<path d="M229.37 71.2095C221.645 72.2079 214.43 75.6151 208.751 80.9472C207.508 82.0733 206.451 83.3884 205.617 84.8439C204.851 86.288 204.486 87.9109 204.559 89.5439C204.597 91.0679 204.812 92.6224 204.479 94.1291C204.297 94.8978 203.954 95.6193 203.474 96.2463C202.993 96.8733 202.385 97.3917 201.691 97.7674C199.983 98.7487 198.026 99.058 196.1 99.294C193.963 99.556 191.739 99.7943 189.888 100.993C189.664 101.138 189.452 100.782 189.676 100.637C192.895 98.5511 196.968 99.3101 200.43 97.918C202.045 97.2684 203.474 96.1281 203.98 94.4041C204.422 92.8965 204.202 91.2933 204.15 89.7505C204.056 88.1585 204.352 86.5675 205.014 85.1164C205.77 83.6232 206.775 82.2696 207.986 81.1136C210.67 78.4676 213.754 76.2601 217.124 74.572C220.96 72.624 225.1 71.3465 229.366 70.7947C229.63 70.7607 229.632 71.1757 229.37 71.2095Z" fill="white"/>
<path d="M210.479 79.123C209.713 78.0487 209.355 76.7375 209.467 75.4233C209.58 74.1092 210.155 72.8777 211.092 71.9489C211.282 71.7616 211.582 72.0483 211.391 72.2358C210.518 73.0991 209.982 74.2463 209.88 75.4702C209.777 76.6942 210.116 77.9143 210.835 78.9104C210.991 79.127 210.634 79.3384 210.479 79.123Z" fill="white"/>
<path d="M204.438 88.7741C207.093 89.2444 209.828 88.6969 212.097 87.2406C212.322 87.0961 212.534 87.4524 212.31 87.5967C209.945 89.1078 207.099 89.6718 204.337 89.1762C204.074 89.1288 204.177 88.7269 204.438 88.7741Z" fill="white"/>
<path d="M220.993 73.173C221.203 73.6503 221.528 74.0681 221.939 74.3889C222.349 74.7097 222.833 74.9235 223.347 75.0109C223.611 75.055 223.508 75.4569 223.246 75.4131C222.679 75.3139 222.144 75.0772 221.689 74.7237C221.235 74.3703 220.873 73.9109 220.637 73.3856C220.611 73.3379 220.604 73.282 220.617 73.2292C220.63 73.1764 220.663 73.1306 220.709 73.1012C220.756 73.0733 220.813 73.0652 220.866 73.0786C220.919 73.092 220.965 73.1259 220.993 73.173Z" fill="white"/>
<path d="M239.024 101.4C238.859 101.377 238.693 101.354 238.526 101.334C236.3 101.039 234.054 100.925 231.81 100.993C231.637 100.996 231.461 101.001 231.288 101.008C225.883 101.23 220.567 102.454 215.609 104.617C213.637 105.48 211.734 106.491 209.915 107.642C207.404 109.232 204.807 111.156 202 111.805C201.708 111.876 201.412 111.928 201.113 111.963L189.513 101.919C189.498 101.883 189.481 101.85 189.466 101.813L188.985 101.434C189.074 101.368 189.169 101.301 189.258 101.235C189.31 101.197 189.365 101.161 189.416 101.122C189.452 101.097 189.487 101.072 189.518 101.048C189.53 101.039 189.541 101.031 189.551 101.025C189.581 101.001 189.612 100.981 189.641 100.96C190.167 100.587 190.697 100.217 191.231 99.85C191.233 99.8474 191.233 99.8474 191.238 99.847C195.278 97.0132 199.64 94.6686 204.232 92.8624C204.37 92.8103 204.509 92.7555 204.652 92.7081C206.721 91.9391 208.848 91.3405 211.014 90.9181C212.2 90.6907 213.398 90.5234 214.601 90.417C217.711 90.1481 220.844 90.3701 223.885 91.0748C229.948 92.4805 235.493 95.8094 238.777 101.001C238.861 101.134 238.943 101.265 239.024 101.4Z" fill="#E6E6E6"/>
<path d="M238.871 101.525C232.101 97.6708 224.289 96.0476 216.545 96.886C214.874 97.0368 213.238 97.4501 211.697 98.1105C210.215 98.8023 208.947 99.8781 208.022 101.226C207.135 102.466 206.37 103.836 205.197 104.839C204.589 105.343 203.881 105.713 203.12 105.924C202.359 106.135 201.561 106.183 200.78 106.065C198.827 105.821 197.077 104.889 195.398 103.918C193.534 102.841 191.614 101.692 189.415 101.535C189.148 101.516 189.193 101.104 189.46 101.123C193.286 101.395 196.081 104.454 199.683 105.426C201.364 105.88 203.191 105.83 204.633 104.758C205.894 103.821 206.683 102.408 207.571 101.145C208.454 99.8167 209.648 98.7248 211.051 97.9647C212.554 97.2279 214.171 96.7523 215.834 96.5583C219.57 96.0617 223.361 96.1557 227.068 96.8368C231.304 97.5906 235.379 99.0634 239.117 101.191C239.349 101.323 239.1 101.656 238.871 101.525Z" fill="white"/>
<path d="M219.023 96.469C219.058 95.1506 219.562 93.8878 220.442 92.9061C221.323 91.9244 222.524 91.2879 223.831 91.11C224.096 91.075 224.163 91.4844 223.898 91.5195C222.681 91.6829 221.562 92.276 220.743 93.1918C219.925 94.1076 219.461 95.2858 219.435 96.5137C219.429 96.7805 219.017 96.7343 219.023 96.469Z" fill="white"/>
<path d="M208.389 100.538C210.226 102.512 212.739 103.721 215.427 103.925C215.694 103.945 215.649 104.357 215.383 104.337C212.585 104.12 209.973 102.857 208.066 100.798C207.884 100.602 208.209 100.343 208.389 100.538Z" fill="white"/>
<path d="M231 98.0492C230.88 98.5564 230.888 99.0856 231.023 99.5891C231.157 100.093 231.415 100.555 231.773 100.934C231.957 101.128 231.633 101.387 231.45 101.194C231.057 100.773 230.772 100.262 230.622 99.7065C230.472 99.1505 230.46 98.5662 230.588 98.0046C230.595 97.9506 230.623 97.9016 230.666 97.8674C230.708 97.8333 230.762 97.8166 230.816 97.8207C230.871 97.8269 230.921 97.8543 230.955 97.8971C230.99 97.9399 231.006 97.9946 231 98.0492Z" fill="white"/>
<path d="M35.2855 235.7C34.741 237.743 33.3102 239.444 31.5828 240.683C31.3012 240.886 31.012 241.074 30.7191 241.25C30.629 241.303 30.5388 241.359 30.445 241.408C30.3436 241.468 30.2422 241.524 30.1408 241.577H22.0181C21.8717 241.28 21.729 240.98 21.5863 240.683C18.1051 233.368 15.6604 225.474 16.0773 217.434C16.2427 214.316 16.8978 211.242 18.0188 208.328C20.2494 202.518 24.3201 197.49 29.9192 194.959C30.0582 194.895 30.2046 194.831 30.3473 194.771C30.3023 194.932 30.2572 195.09 30.2121 195.252C29.6114 197.416 29.187 199.625 28.9429 201.857C28.9203 202.03 28.9015 202.203 28.8865 202.379C28.353 207.763 28.8268 213.2 30.2835 218.41C30.2872 218.422 30.291 218.437 30.2948 218.448C30.614 219.601 30.9845 220.736 31.4063 221.854C31.7368 222.737 32.0935 223.608 32.4841 224.464C34.1139 228.058 36.2994 231.888 35.2855 235.7Z" fill="#E6E6E6"/>
<path d="M30.4488 194.94C30.37 195.045 30.2911 195.146 30.2122 195.251C28.5628 197.437 27.1622 199.8 26.0364 202.296C25.9763 202.42 25.9199 202.544 25.8711 202.672C24.3285 206.157 23.3377 209.862 22.9345 213.652C22.9301 213.678 22.9276 213.705 22.927 213.731C22.8331 214.617 22.7768 215.511 22.7542 216.405C22.6707 218.08 22.852 219.758 23.2912 221.377C23.6918 222.699 24.3937 223.91 25.3416 224.914C25.4355 225.016 25.5294 225.117 25.6308 225.215C25.7059 225.294 25.7885 225.372 25.8674 225.448C26.6259 226.172 27.4559 226.844 28.1694 227.622C28.4964 227.97 28.7917 228.347 29.0518 228.748C29.467 229.421 29.7352 230.173 29.8387 230.956C29.9423 231.739 29.8789 232.535 29.6527 233.292C29.142 235.192 27.9741 236.796 26.7799 238.324C26.1828 239.09 25.5669 239.864 25.0337 240.683C24.8384 240.976 24.6582 241.272 24.493 241.576H24.0198C24.1775 241.272 24.3503 240.976 24.538 240.683C25.9087 238.523 27.8577 236.668 28.8679 234.291C29.5513 232.688 29.7579 230.87 28.8942 229.297C28.641 228.839 28.3347 228.413 27.9816 228.027C27.2944 227.25 26.472 226.585 25.7247 225.883C25.5369 225.707 25.3529 225.526 25.1764 225.339C24.2407 224.388 23.5186 223.249 23.0584 221.996C22.5373 220.406 22.291 218.739 22.3299 217.066C22.3299 215.999 22.3863 214.925 22.4914 213.859C22.5027 213.724 22.5177 213.585 22.5327 213.446C23.3007 206.734 25.8512 200.351 29.9193 194.958C29.9944 194.853 30.0733 194.752 30.1522 194.651C30.3136 194.44 30.6103 194.733 30.4488 194.94Z" fill="white"/>
<path d="M22.6841 213.894C21.3834 213.676 20.2027 213.002 19.3528 211.994C18.503 210.985 18.0394 209.707 18.0447 208.388C18.0454 208.334 18.067 208.283 18.1049 208.245C18.1427 208.207 18.194 208.185 18.2477 208.183C18.3015 208.182 18.3536 208.202 18.3931 208.238C18.4327 208.275 18.4564 208.325 18.4595 208.379C18.4522 209.607 18.8842 210.798 19.6775 211.735C20.4708 212.673 21.5731 213.296 22.7855 213.492C23.049 213.535 22.946 213.937 22.6841 213.894Z" fill="white"/>
<path d="M25.2374 224.99C27.4473 223.445 28.9937 221.124 29.5684 218.49C29.6252 218.229 30.0273 218.331 29.9706 218.592C29.3674 221.332 27.7532 223.744 25.4501 225.346C25.2304 225.499 25.019 225.142 25.2374 224.99Z" fill="white"/>
<path d="M25.912 202.252C26.3977 202.442 26.9228 202.508 27.4402 202.444C27.9576 202.38 28.451 202.189 28.8763 201.887C29.0938 201.732 29.3051 202.089 29.0889 202.244C28.6175 202.575 28.0723 202.785 27.5008 202.857C26.9293 202.928 26.349 202.859 25.8106 202.654C25.7582 202.639 25.7135 202.605 25.6856 202.558C25.6577 202.512 25.6486 202.456 25.6602 202.403C25.6739 202.349 25.7081 202.304 25.7552 202.276C25.8024 202.248 25.8587 202.239 25.912 202.252Z" fill="white"/>
<path d="M58.6208 209.462C58.4894 209.563 58.3542 209.664 58.2227 209.769C56.4398 211.134 54.7707 212.641 53.232 214.276C53.1118 214.4 52.9916 214.527 52.8752 214.655L52.8715 214.659C49.2228 218.62 46.3379 223.221 44.362 228.23L44.3507 228.264C44.347 228.275 44.3432 228.283 44.3395 228.294C43.5563 230.299 42.9249 232.361 42.4506 234.46C41.9924 236.511 41.6169 238.708 40.8996 240.683C40.7907 240.987 40.6706 241.288 40.5429 241.577H23.8469C23.9033 241.28 23.9633 240.98 24.0234 240.683C24.8727 236.332 26.2001 232.087 27.9815 228.028C28.0416 227.892 28.1017 227.757 28.1692 227.622C29.0888 225.616 30.1702 223.688 31.4025 221.858L31.4028 221.856L31.4036 221.855L31.4048 221.854L31.4063 221.854C32.083 220.855 32.81 219.891 33.5844 218.966C35.5927 216.577 37.9651 214.519 40.6142 212.868C40.6293 212.856 40.648 212.849 40.6631 212.838C45.9355 209.567 52.1842 208.008 58.1589 209.356H58.1626C58.3166 209.39 58.4668 209.424 58.6208 209.462Z" fill="#E6E6E6"/>
<path d="M58.6022 209.661C58.4745 209.694 58.3468 209.732 58.2229 209.769C55.5911 210.522 53.0508 211.563 50.6485 212.875C50.5284 212.939 50.4082 213.007 50.288 213.074C46.9682 214.927 43.9547 217.282 41.3542 220.055C41.3522 220.057 41.3509 220.06 41.3505 220.063C41.3204 220.093 41.2866 220.127 41.2603 220.157C40.6595 220.803 40.0812 221.475 39.5329 222.166C38.4604 223.454 37.5963 224.902 36.9718 226.458C36.4946 227.754 36.3262 229.144 36.4799 230.517C36.4911 230.656 36.5099 230.792 36.5287 230.93C36.5437 231.039 36.5587 231.148 36.5775 231.261C36.8254 232.767 37.2535 234.276 37.1333 235.812C37.0602 236.599 36.8213 237.362 36.4323 238.05C36.0433 238.738 35.513 239.336 34.8764 239.804C34.4436 240.139 33.981 240.433 33.4944 240.683C32.7987 241.042 32.0739 241.341 31.3276 241.577H29.8518C30.0508 241.52 30.2461 241.464 30.4451 241.408C31.1514 241.208 31.8449 240.966 32.5218 240.683C32.9085 240.521 33.2848 240.336 33.6484 240.127C35.158 239.26 36.4161 237.93 36.6789 236.154C36.908 234.599 36.4648 233.045 36.202 231.524C36.1569 231.261 36.1156 231.002 36.0931 230.743C35.9138 229.426 36.0227 228.085 36.4123 226.815C36.9526 225.23 37.7604 223.749 38.8006 222.436C39.4441 221.582 40.131 220.761 40.8585 219.976C40.9487 219.875 41.0425 219.774 41.1402 219.672C43.7954 216.879 46.8611 214.507 50.2317 212.639H50.2355C52.7416 211.243 55.4004 210.142 58.1591 209.356H58.1628C58.2868 209.319 58.4144 209.281 58.5384 209.247C58.7975 209.18 58.8576 209.589 58.6022 209.661Z" fill="white"/>
<path d="M40.9913 220.119C40.0843 219.161 39.5472 217.912 39.4759 216.595C39.4046 215.278 39.8038 213.979 40.6022 212.929C40.7645 212.717 41.1013 212.959 40.9388 213.172C40.1936 214.148 39.8219 215.358 39.8907 216.584C39.9596 217.811 40.4646 218.972 41.3144 219.859C41.4989 220.052 41.1747 220.31 40.9913 220.119Z" fill="white"/>
<path d="M36.3496 230.515C39.044 230.612 41.6761 229.69 43.7209 227.933C43.9234 227.759 44.1832 228.082 43.9809 228.256C41.8496 230.081 39.1086 231.035 36.305 230.927C36.0377 230.917 36.0838 230.505 36.3496 230.515Z" fill="white"/>
<path d="M50.578 212.767C50.8517 213.21 51.2314 213.579 51.6828 213.84C52.1342 214.1 52.6434 214.245 53.1644 214.26C53.4316 214.267 53.3853 214.679 53.1198 214.672C52.5442 214.653 51.9821 214.493 51.4827 214.206C50.9833 213.919 50.5617 213.514 50.2548 213.027C50.222 212.983 50.2071 212.929 50.2129 212.875C50.2188 212.82 50.245 212.771 50.2864 212.735C50.3293 212.701 50.3841 212.685 50.4387 212.691C50.4933 212.697 50.5433 212.724 50.578 212.767Z" fill="white"/>
<path d="M187.415 65.2076C187.03 65.7145 186.538 66.1308 185.974 66.4271C185.411 66.7234 184.789 66.8925 184.153 66.9225C183.517 66.9525 182.882 66.8426 182.293 66.6007C181.704 66.3587 181.175 65.9906 180.743 65.5221L166.548 71.6958L167.931 63.7716L181.199 59.1238C182.034 58.4513 183.087 58.1084 184.158 58.1601C185.228 58.2119 186.243 58.6547 187.009 59.4046C187.776 60.1545 188.24 61.1594 188.315 62.2289C188.39 63.2985 188.07 64.3583 187.415 65.2076Z" fill="#FFB8B8"/>
<path d="M177.942 67.6819L144.972 82.3682L144.901 82.3429L107.323 68.952C104.524 67.4891 102.39 65.0116 101.358 62.0267C100.326 59.0418 100.474 55.7753 101.772 52.8961C102.492 51.3052 103.54 49.8848 104.848 48.7283C106.156 47.5718 107.694 46.7054 109.361 46.1862C111.028 45.6669 112.786 45.5066 114.519 45.7157C116.252 45.9249 117.922 46.4988 119.417 47.3996L147.382 64.2455L174.5 60.731L177.942 67.6819Z" fill="#E6E6E6"/>
<path d="M340 241.881C340 241.939 339.989 241.998 339.966 242.052C339.944 242.106 339.911 242.156 339.869 242.197C339.828 242.239 339.779 242.272 339.724 242.294C339.67 242.316 339.612 242.328 339.553 242.328H16.4903C16.3718 242.328 16.2581 242.281 16.1743 242.197C16.0905 242.113 16.0435 241.999 16.0435 241.881C16.0435 241.762 16.0905 241.649 16.1743 241.565C16.2581 241.481 16.3718 241.434 16.4903 241.434H339.553C339.612 241.434 339.67 241.445 339.724 241.468C339.779 241.49 339.828 241.523 339.869 241.564C339.911 241.606 339.944 241.655 339.966 241.71C339.989 241.764 340 241.822 340 241.881Z" fill="#CCCCCC"/>
<path d="M133.7 111.648L100.464 106.332C99.5921 106.052 98.7912 105.588 98.1159 104.97C97.4407 104.352 96.9072 103.595 96.552 102.752C96.1968 101.908 96.0284 100.998 96.0583 100.083C96.0882 99.1679 96.3157 98.2704 96.7252 97.4518L98.2325 94.4369L97.647 62.7624C97.5764 58.6423 98.5921 54.5763 100.592 50.9734C102.592 47.3705 105.505 44.3578 109.039 42.2384L112.28 40.3005L113.918 36.1409L129.022 36.5093L129.066 41.9647L134.475 50.5899L134.475 50.6257L134.136 97.5717L132.645 102.417L134.899 108.052L133.7 111.648Z" fill="#E6E6E6"/>
<path d="M122.853 30.9689C130.432 30.9689 136.577 24.8247 136.577 17.2455C136.577 9.66636 130.432 3.52222 122.853 3.52222C115.274 3.52222 109.13 9.66636 109.13 17.2455C109.13 24.8247 115.274 30.9689 122.853 30.9689Z" fill="#FFB8B8"/>
<path d="M108.563 20.2372C108.154 18.5128 108.342 16.0863 108.573 14.35C109.18 9.79812 111.708 5.47075 115.548 2.9075C116.276 2.35441 117.142 2.01053 118.051 1.91293C118.959 1.875 119.944 2.36138 120.223 3.2269C120.452 2.65565 120.795 2.13737 121.232 1.70405C121.669 1.27073 122.191 0.931562 122.764 0.707484C123.915 0.266373 125.153 0.0995551 126.38 0.220254C128.759 0.416294 131.039 1.25256 132.981 2.64031C134.922 4.02806 136.452 5.91552 137.407 8.10238C137.773 8.97315 138.797 5.75676 139.262 6.57951C139.688 7.43472 140.433 8.08892 141.336 8.40211C142.246 8.65603 142.616 12.4054 142.974 11.5311C143.252 12.1772 143.362 12.8831 143.293 13.5831C143.225 14.2831 142.98 14.9544 142.582 15.5344C142.185 16.1145 141.647 16.5845 141.018 16.9006C140.39 17.2168 139.692 17.3688 138.989 17.3425C138.063 17.3078 137.177 16.9671 136.262 16.8205C132.989 16.2961 129.518 18.6693 128.818 21.9091C128.568 20.9722 128.167 20.0819 127.633 19.2725C127.362 18.87 126.998 18.538 126.573 18.3043C126.147 18.0705 125.672 17.9418 125.187 17.9286C124.256 17.9635 123.438 18.5723 122.833 19.2816C122.229 19.991 121.775 20.8187 121.167 21.5242C119.381 23.5945 116.966 28.4226 114.421 28.0704C112.412 27.7926 109.122 22.5915 108.563 20.2372Z" fill="#2F2E41"/>
<path d="M205.809 80.7586C205.905 80.133 205.777 79.4935 205.446 78.9537C205.116 78.4138 204.605 78.0084 204.004 77.8093L167.047 65.5006C166.693 65.3821 166.318 65.339 165.946 65.3742L156.683 66.2501L151.368 66.7543L141.559 67.6812C140.967 67.7379 140.41 67.9895 139.977 68.3965C139.543 68.8036 139.256 69.3431 139.162 69.9305L134.182 101.038C134.088 101.645 134.203 102.266 134.51 102.798C134.816 103.33 135.294 103.742 135.866 103.966L173.209 118.38C173.384 118.448 173.566 118.497 173.752 118.526C174.022 118.57 174.298 118.572 174.569 118.532L198.699 114.956C199.268 114.874 199.795 114.61 200.203 114.204C200.61 113.798 200.876 113.272 200.96 112.703L205.809 80.7586Z" fill="white"/>
<path d="M136.712 101.774L174.055 116.188C174.109 116.209 174.169 116.216 174.227 116.208L198.353 112.632C198.425 112.622 198.491 112.589 198.542 112.538C198.593 112.488 198.626 112.421 198.637 112.35L203.488 80.4049C203.499 80.3269 203.483 80.2475 203.442 80.1803C203.401 80.113 203.338 80.0621 203.263 80.0363L203.015 79.9522L166.304 67.7304C166.287 67.7244 166.27 67.7202 166.252 67.7179C166.224 67.7127 166.195 67.7112 166.166 67.7134L143.573 69.8514L141.78 70.0196C141.706 70.0274 141.637 70.0591 141.583 70.1098C141.53 70.1605 141.494 70.2275 141.481 70.3004L136.502 101.407C136.49 101.483 136.504 101.561 136.543 101.628C136.581 101.694 136.641 101.746 136.712 101.774Z" fill="#3E68FC"/>
<path d="M143.573 69.8514L166.166 67.7134C166.195 67.7112 166.224 67.7127 166.252 67.7179C166.27 67.7202 166.287 67.7244 166.304 67.7304L203.015 79.9522L193.331 80.9773L189.707 81.3591L179.395 82.4486C179.365 82.4501 179.335 82.4497 179.305 82.4475C179.286 82.442 179.268 82.4364 179.246 82.4306L143.573 69.8514Z" fill="#2F2E41"/>
<path d="M135.865 103.968L173.208 118.382C173.384 118.449 173.566 118.497 173.753 118.524C174.023 118.569 174.299 118.572 174.57 118.535L198.697 114.959C199.266 114.876 199.794 114.612 200.201 114.206C200.609 113.8 200.875 113.273 200.96 112.704L205.809 80.7588C205.88 80.2878 205.826 79.8063 205.651 79.363C205.627 79.3041 205.602 79.2452 205.574 79.1897C205.381 78.785 205.089 78.4362 204.724 78.1766C204.504 78.0188 204.261 77.8951 204.004 77.8099L203.96 77.7944L167.049 65.5005C166.898 65.4524 166.744 65.415 166.588 65.3886C166.375 65.3584 166.159 65.3542 165.944 65.3761L156.683 66.2491L151.368 66.7561L141.558 67.6823C141.157 67.7198 140.769 67.8478 140.425 68.0569C140.398 68.0697 140.372 68.085 140.349 68.1024C140.331 68.1135 140.315 68.1259 140.3 68.1392C139.999 68.3447 139.743 68.6092 139.547 68.9168C139.352 69.2243 139.221 69.5684 139.163 69.9281L134.18 101.038C134.086 101.645 134.201 102.267 134.508 102.799C134.814 103.332 135.293 103.744 135.865 103.968ZM139.824 70.0366C139.885 69.6637 140.05 69.3158 140.301 69.0334C140.377 68.9426 140.462 68.8597 140.555 68.786C140.808 68.5812 141.108 68.4415 141.427 68.379C141.491 68.366 141.554 68.357 141.619 68.352L158.136 66.7916L166.009 66.0424C166.062 66.0362 166.111 66.0371 166.161 66.0343C166.28 66.0318 166.399 66.0407 166.516 66.0607C166.625 66.0748 166.731 66.1001 166.834 66.1363L203.789 78.4457C203.818 78.456 203.843 78.466 203.873 78.4763C204.209 78.6013 204.504 78.8161 204.726 79.0973C204.902 79.3126 205.03 79.5625 205.103 79.8308C205.175 80.099 205.19 80.3796 205.147 80.654L200.295 112.603C200.231 113.029 200.032 113.423 199.727 113.728C199.423 114.032 199.028 114.23 198.602 114.293L174.472 117.869C174.126 117.918 173.774 117.878 173.449 117.752L136.106 103.342C135.678 103.174 135.32 102.864 135.091 102.466C134.862 102.067 134.775 101.602 134.845 101.147L139.824 70.0366Z" fill="#3F3D56"/>
<path d="M140.219 68.3087C140.239 68.2521 140.274 68.2019 140.32 68.1636C140.335 68.1514 140.351 68.1403 140.368 68.1305C140.384 68.1245 140.4 68.1147 140.416 68.1086C140.491 68.0785 140.574 68.0771 140.65 68.1046L141.427 68.3788L179.399 81.7737L188.286 80.8347L193.259 80.3102L203.785 79.1959L204.726 79.0972L204.909 79.0769C204.988 79.0697 205.067 79.0903 205.132 79.1351C205.197 79.1799 205.245 79.2462 205.266 79.3224C205.272 79.3399 205.275 79.3579 205.276 79.3761C205.284 79.4484 205.268 79.5213 205.231 79.5837C205.194 79.6461 205.137 79.6948 205.07 79.7223C205.04 79.7346 205.009 79.7431 204.977 79.7474L203.697 79.8816L193.331 80.9773L189.707 81.3591L179.395 82.4485C179.365 82.45 179.334 82.4497 179.304 82.4474C179.286 82.4419 179.268 82.4364 179.246 82.4305L140.555 68.7859L140.423 68.7394C140.393 68.7295 140.365 68.714 140.341 68.6938C140.282 68.6508 140.239 68.5904 140.217 68.5211C140.195 68.4519 140.196 68.3775 140.219 68.3087Z" fill="#3F3D56"/>
<path d="M173.854 118.622C173.767 118.608 173.688 118.56 173.636 118.489C173.584 118.417 173.562 118.328 173.575 118.241L179.027 82.0644C179.04 81.9764 179.088 81.8973 179.159 81.8444C179.231 81.7916 179.321 81.7693 179.409 81.7825L179.412 81.783C179.499 81.797 179.577 81.8449 179.63 81.9164C179.682 81.9878 179.704 82.077 179.691 82.1645L174.239 118.341C174.226 118.429 174.178 118.508 174.106 118.561C174.035 118.613 173.945 118.636 173.857 118.622L173.854 118.622Z" fill="#3F3D56"/>
<path d="M187.673 116.327L184.047 116.71L188.288 80.8337C188.288 80.8337 193.13 79.9569 193.26 80.3085C193.339 80.5184 187.707 116.097 187.673 116.327Z" fill="#3F3D56"/>
<path d="M140.425 68.7388L140.327 85.0994L169.29 96.1354L179.691 82.1643L140.425 68.7388Z" fill="#3F3D56"/>
<path d="M204.727 79.0978C204.485 78.7935 204.159 78.5668 203.79 78.4457L166.836 66.1368C166.732 66.1019 166.625 66.0759 166.517 66.0592C166.399 66.0389 166.28 66.03 166.16 66.0325L166.22 65.6579L166.59 65.3901L175.365 59.0366L204.672 68.0181L204.723 78.1767L204.727 79.0978Z" fill="#3F3D56"/>
<path d="M141.901 95.0032C141.942 95.0073 141.983 95.0159 142.023 95.0289L153.362 98.753C153.504 98.7996 153.621 98.9007 153.689 99.034C153.756 99.1673 153.768 99.3219 153.721 99.4639C153.675 99.6059 153.574 99.7235 153.44 99.7909C153.307 99.8584 153.152 99.8701 153.01 99.8235L141.672 96.0994C141.54 96.0562 141.429 95.9659 141.36 95.846C141.29 95.726 141.268 95.5846 141.296 95.449C141.324 95.3134 141.402 95.1929 141.513 95.1107C141.625 95.0285 141.763 94.9902 141.901 95.0032Z" fill="white"/>
<path d="M187.648 163.636C190.137 163.636 192.155 161.618 192.155 159.129C192.155 156.641 190.137 154.623 187.648 154.623C185.16 154.623 183.142 156.641 183.142 159.129C183.142 161.618 185.16 163.636 187.648 163.636Z" fill="#F2F2F2"/>
<path d="M72.7368 180.159C75.2256 180.159 77.2431 178.141 77.2431 175.653C77.2431 173.164 75.2256 171.146 72.7368 171.146C70.248 171.146 68.2305 173.164 68.2305 175.653C68.2305 178.141 70.248 180.159 72.7368 180.159Z" fill="#F2F2F2"/>
<path d="M166.619 31.0744C169.108 31.0744 171.125 29.0569 171.125 26.5681C171.125 24.0793 169.108 22.0618 166.619 22.0618C164.13 22.0618 162.113 24.0793 162.113 26.5681C162.113 29.0569 164.13 31.0744 166.619 31.0744Z" fill="#F2F2F2"/>
<path d="M174.012 101.631C173.428 101.884 172.796 102.007 172.159 101.99C171.523 101.973 170.898 101.816 170.328 101.531C169.758 101.246 169.258 100.84 168.863 100.341C168.467 99.8418 168.186 99.262 168.039 98.6424L152.638 97.0865L157.719 90.8503L171.565 93.284C172.622 93.1057 173.708 93.3213 174.617 93.8901C175.526 94.4589 176.194 95.3413 176.496 96.3702C176.798 97.399 176.711 98.5027 176.254 99.4722C175.796 100.442 174.999 101.21 174.012 101.631Z" fill="#FFB8B8"/>
<path d="M164.54 99.157L128.599 95.8454L128.549 95.7888L102.318 65.7328C100.592 63.0881 99.9422 59.8835 100.502 56.7752C101.061 53.6668 102.788 50.8899 105.328 49.013C106.733 47.9772 108.342 47.2507 110.048 46.8815C111.755 46.5122 113.52 46.5086 115.228 46.8708C116.936 47.2329 118.548 47.9527 119.958 48.9827C121.367 50.0128 122.543 51.3297 123.407 52.8468L139.563 81.2158L164.936 91.4103L164.54 99.157Z" fill="#E6E6E6"/>
<path d="M254.75 41.3569C253.858 34.81 252.738 27.7809 248.121 23.0548C246.655 21.5553 244.902 20.3679 242.965 19.5644C241.029 18.7609 238.95 18.3578 236.853 18.3795C234.757 18.4012 232.686 18.8472 230.767 19.6906C228.848 20.5341 227.119 21.7575 225.685 23.287C222.324 26.8729 220.839 31.9079 220.704 36.821C220.568 41.7341 221.662 46.5925 222.876 51.3552C229.3 51.4835 235.676 50.2285 241.572 47.6753C243.046 47.0354 244.497 46.3119 246.054 45.9154C247.612 45.519 248.722 46.5166 250.171 47.2123L250.967 45.6893C251.618 46.901 253.634 46.5418 254.365 45.3768C255.096 44.2118 254.936 42.7198 254.75 41.3569Z" fill="#2F2E41"/>
<path d="M229.287 77.8992L203.047 78.4604C202.644 77.7638 202.047 77.1994 201.329 76.8357C200.611 76.4721 199.803 76.325 199.003 76.4122C198.203 76.4995 197.446 76.8174 196.823 77.3272C196.201 77.8371 195.74 78.5169 195.496 79.2839C195.253 80.051 195.238 80.8722 195.453 81.6477C195.668 82.4232 196.103 83.1196 196.707 83.652C197.31 84.1843 198.055 84.5299 198.852 84.6465C199.648 84.7631 200.461 84.6458 201.192 84.3088C204.672 84.5066 231.899 88.371 233.524 85.8806C235.172 83.3529 243.972 74.4322 243.972 74.4322L237.208 64.8022L229.287 77.8992Z" fill="#9E616A"/>
<path d="M235.681 47.834C242.49 47.834 248.01 42.3143 248.01 35.5054C248.01 28.6965 242.49 23.1768 235.681 23.1768C228.873 23.1768 223.353 28.6965 223.353 35.5054C223.353 42.3143 228.873 47.834 235.681 47.834Z" fill="#9E616A"/>
<path d="M255.427 59.2273C253.975 56.3358 253.269 52.7637 250.171 51.8263C248.08 51.1933 239.62 52.1419 237.714 53.2104C234.543 54.9879 237.417 58.3185 235.546 61.4353C233.512 64.8236 227.986 71.6233 225.952 75.0115C224.554 77.3409 229.263 84.178 228.507 86.7873C227.751 89.3967 227.715 92.3254 229.003 94.7174C230.155 96.8585 228.488 98.7525 229.647 100.89C230.852 103.113 232.331 111.425 231.21 113.691L230.459 115.944C237.912 116.382 244.178 107.478 251.585 106.54C253.425 106.307 255.335 106.003 256.851 104.935C259.084 103.362 259.967 100.508 260.518 97.8327C263.174 84.7566 261.382 71.1681 255.427 59.2273Z" fill="#3F3D56"/>
<path d="M266.602 89.758C265.564 86.9244 263.684 74.5353 263.684 74.5353L251.921 74.1904L257.672 88.3749L241.979 110.344C241.979 110.344 242.008 110.393 242.061 110.479C241.235 110.346 240.39 110.466 239.634 110.822C238.878 111.179 238.247 111.755 237.824 112.475C237.401 113.196 237.205 114.028 237.262 114.861C237.32 115.695 237.627 116.492 238.145 117.148C238.663 117.804 239.367 118.288 240.164 118.538C240.962 118.787 241.816 118.79 242.615 118.546C243.414 118.302 244.121 117.822 244.643 117.17C245.166 116.517 245.479 115.722 245.542 114.889C245.599 114.922 245.667 114.934 245.733 114.923C245.798 114.912 245.858 114.878 245.901 114.827C247.648 112.636 267.64 92.5916 266.602 89.758Z" fill="#9E616A"/>
<path d="M267.798 81.9338C266.718 77.3768 265.63 72.7951 263.81 68.4802C261.99 64.1654 259.384 60.0899 255.719 57.1748C254.547 56.2428 253.237 55.4202 251.768 55.1305C250.299 54.8407 248.644 55.165 247.612 56.2501C245.961 57.9864 246.458 60.7734 247.063 63.0914C248.849 69.9261 250.634 76.7609 252.419 83.5956C257.575 83.0492 262.731 82.5027 267.887 81.9561L267.798 81.9338Z" fill="#3F3D56"/>
<path d="M250.788 37.2155C250.334 34.2331 249.86 31.2257 248.793 28.4174C247.726 25.6092 246.007 22.9789 243.541 21.388C239.636 18.8693 234.58 19.3551 230.202 20.8039C226.816 21.9244 223.511 23.6274 221.123 26.3652C218.735 29.1031 217.394 33.0097 218.282 36.5896C222.953 35.4862 227.623 34.3828 232.293 33.2794L231.782 33.6406C233.315 34.4052 234.654 35.5092 235.697 36.8686C236.74 38.2281 237.46 39.8073 237.802 41.4864C238.136 43.1859 238.088 44.9384 237.661 46.6171C237.235 48.2959 236.441 49.8588 235.336 51.1929C238.521 50.063 241.706 48.9332 244.891 47.8033C246.857 47.1059 248.962 46.3023 250.127 44.5135C251.479 42.4395 251.165 39.6906 250.788 37.2155Z" fill="#2F2E41"/>
</g>
<path d="M7.936 280H1.552V268.576H7.936V269.84H2.992V273.408H7.648V274.656H2.992V278.736H7.936V280ZM19.6586 271.264C20.6293 271.264 21.3546 271.515 21.8346 272.016C22.3146 272.507 22.5546 273.307 22.5546 274.416V280H21.1626V274.48C21.1626 273.808 21.0186 273.301 20.7306 272.96C20.4533 272.619 20.016 272.448 19.4186 272.448C18.5866 272.448 17.9893 272.688 17.6266 273.168C17.2746 273.648 17.0986 274.347 17.0986 275.264V280H15.7066V274.48C15.7066 274.032 15.6426 273.659 15.5146 273.36C15.3866 273.051 15.1946 272.821 14.9386 272.672C14.6826 272.523 14.352 272.448 13.9466 272.448C13.3706 272.448 12.9173 272.571 12.5866 272.816C12.256 273.051 12.016 273.397 11.8666 273.856C11.728 274.315 11.6586 274.88 11.6586 275.552V280H10.2506V271.424H11.3866L11.5946 272.592H11.6746C11.856 272.293 12.0746 272.048 12.3306 271.856C12.5973 271.653 12.8906 271.504 13.2106 271.408C13.5306 271.312 13.8613 271.264 14.2026 271.264C14.864 271.264 15.4133 271.381 15.8506 271.616C16.2986 271.851 16.624 272.213 16.8266 272.704H16.9066C17.1946 272.213 17.584 271.851 18.0746 271.616C18.576 271.381 19.104 271.264 19.6586 271.264ZM29.2838 271.264C30.3398 271.264 31.1878 271.632 31.8278 272.368C32.4784 273.104 32.8038 274.213 32.8038 275.696C32.8038 276.667 32.6544 277.488 32.3558 278.16C32.0677 278.821 31.6571 279.323 31.1238 279.664C30.6011 279.995 29.9824 280.16 29.2678 280.16C28.8304 280.16 28.4411 280.101 28.0998 279.984C27.7584 279.867 27.4651 279.717 27.2198 279.536C26.9851 279.344 26.7824 279.136 26.6118 278.912H26.5158C26.5371 279.093 26.5584 279.323 26.5798 279.6C26.6011 279.877 26.6118 280.117 26.6118 280.32V283.84H25.2038V271.424H26.3558L26.5478 272.592H26.6118C26.7824 272.347 26.9851 272.123 27.2198 271.92C27.4651 271.717 27.7531 271.557 28.0838 271.44C28.4251 271.323 28.8251 271.264 29.2838 271.264ZM29.0278 272.448C28.4518 272.448 27.9878 272.56 27.6358 272.784C27.2838 272.997 27.0278 273.323 26.8678 273.76C26.7078 274.197 26.6224 274.752 26.6118 275.424V275.696C26.6118 276.4 26.6864 276.997 26.8358 277.488C26.9851 277.979 27.2358 278.352 27.5878 278.608C27.9504 278.864 28.4411 278.992 29.0598 278.992C29.5824 278.992 30.0091 278.848 30.3398 278.56C30.6811 278.272 30.9318 277.883 31.0918 277.392C31.2624 276.891 31.3478 276.32 31.3478 275.68C31.3478 274.699 31.1558 273.915 30.7718 273.328C30.3984 272.741 29.8171 272.448 29.0278 272.448ZM37.9115 279.008C38.1248 279.008 38.3435 278.992 38.5675 278.96C38.7915 278.917 38.9728 278.875 39.1115 278.832V279.904C38.9622 279.979 38.7488 280.037 38.4715 280.08C38.1942 280.133 37.9275 280.16 37.6715 280.16C37.2235 280.16 36.8075 280.085 36.4235 279.936C36.0502 279.776 35.7462 279.504 35.5115 279.12C35.2768 278.736 35.1595 278.197 35.1595 277.504V272.512H33.9435V271.84L35.1755 271.28L35.7355 269.456H36.5675V271.424H39.0475V272.512H36.5675V277.472C36.5675 277.995 36.6902 278.384 36.9355 278.64C37.1915 278.885 37.5168 279.008 37.9115 279.008ZM39.4848 271.424H40.9888L42.8448 276.304C42.9514 276.592 43.0474 276.869 43.1328 277.136C43.2288 277.403 43.3141 277.664 43.3888 277.92C43.4634 278.165 43.5221 278.405 43.5648 278.64H43.6288C43.6928 278.373 43.7941 278.027 43.9328 277.6C44.0714 277.163 44.2154 276.725 44.3648 276.288L46.1088 271.424H47.6288L43.9328 281.184C43.7301 281.717 43.4901 282.181 43.2128 282.576C42.9461 282.981 42.6154 283.291 42.2208 283.504C41.8368 283.728 41.3674 283.84 40.8128 283.84C40.5568 283.84 40.3328 283.824 40.1408 283.792C39.9488 283.771 39.7834 283.744 39.6448 283.712V282.592C39.7621 282.613 39.9008 282.635 40.0608 282.656C40.2314 282.677 40.4074 282.688 40.5888 282.688C40.9194 282.688 41.2021 282.624 41.4368 282.496C41.6821 282.379 41.8901 282.203 42.0608 281.968C42.2314 281.744 42.3754 281.477 42.4928 281.168L42.9408 280.032L39.4848 271.424ZM50.233 276.784H49.321L48.921 268.576H50.633L50.233 276.784ZM48.777 279.136C48.777 278.741 48.873 278.464 49.065 278.304C49.257 278.144 49.4917 278.064 49.769 278.064C50.0357 278.064 50.265 278.144 50.457 278.304C50.6597 278.464 50.761 278.741 50.761 279.136C50.761 279.52 50.6597 279.797 50.457 279.968C50.265 280.139 50.0357 280.224 49.769 280.224C49.4917 280.224 49.257 280.139 49.065 279.968C48.873 279.797 48.777 279.52 48.777 279.136ZM62.5261 269.68C61.9181 269.68 61.3688 269.787 60.8781 270C60.3875 270.203 59.9715 270.507 59.6301 270.912C59.2888 271.307 59.0275 271.792 58.8461 272.368C58.6648 272.933 58.5741 273.573 58.5741 274.288C58.5741 275.227 58.7181 276.043 59.0061 276.736C59.3048 277.429 59.7421 277.963 60.3181 278.336C60.9048 278.709 61.6355 278.896 62.5101 278.896C63.0115 278.896 63.4861 278.853 63.9341 278.768C64.3821 278.683 64.8195 278.576 65.2461 278.448V279.696C64.8195 279.856 64.3768 279.973 63.9181 280.048C63.4701 280.123 62.9315 280.16 62.3021 280.16C61.1395 280.16 60.1688 279.92 59.3901 279.44C58.6115 278.96 58.0248 278.277 57.6301 277.392C57.2461 276.507 57.0541 275.467 57.0541 274.272C57.0541 273.408 57.1715 272.619 57.4061 271.904C57.6515 271.189 58.0035 270.571 58.4621 270.048C58.9315 269.525 59.5075 269.125 60.1901 268.848C60.8728 268.56 61.6568 268.416 62.5421 268.416C63.1288 268.416 63.6941 268.475 64.2381 268.592C64.7821 268.709 65.2675 268.875 65.6941 269.088L65.1181 270.304C64.7661 270.144 64.3715 270 63.9341 269.872C63.5075 269.744 63.0381 269.68 62.5261 269.68ZM71.5475 271.264C71.7075 271.264 71.8782 271.275 72.0595 271.296C72.2515 271.307 72.4168 271.328 72.5555 271.36L72.3795 272.656C72.2408 272.624 72.0862 272.597 71.9155 272.576C71.7555 272.555 71.6008 272.544 71.4515 272.544C71.1208 272.544 70.8062 272.613 70.5075 272.752C70.2088 272.891 69.9422 273.088 69.7075 273.344C69.4728 273.589 69.2862 273.888 69.1475 274.24C69.0195 274.592 68.9555 274.987 68.9555 275.424V280H67.5475V271.424H68.6995L68.8595 272.992H68.9235C69.1048 272.672 69.3235 272.384 69.5795 272.128C69.8355 271.861 70.1288 271.653 70.4595 271.504C70.7902 271.344 71.1528 271.264 71.5475 271.264ZM77.1564 271.264C77.8924 271.264 78.5217 271.424 79.0444 271.744C79.5777 272.064 79.983 272.517 80.2604 273.104C80.5484 273.68 80.6924 274.357 80.6924 275.136V275.984H74.8204C74.8417 276.955 75.087 277.696 75.5564 278.208C76.0364 278.709 76.703 278.96 77.5564 278.96C78.1004 278.96 78.5804 278.912 78.9964 278.816C79.423 278.709 79.8604 278.56 80.3084 278.368V279.6C79.871 279.792 79.439 279.931 79.0124 280.016C78.5857 280.112 78.079 280.16 77.4924 280.16C76.6817 280.16 75.9617 279.995 75.3324 279.664C74.7137 279.333 74.2284 278.843 73.8764 278.192C73.535 277.531 73.3644 276.725 73.3644 275.776C73.3644 274.837 73.519 274.032 73.8284 273.36C74.1484 272.688 74.591 272.171 75.1564 271.808C75.7324 271.445 76.399 271.264 77.1564 271.264ZM77.1404 272.416C76.4684 272.416 75.935 272.635 75.5404 273.072C75.1564 273.499 74.927 274.096 74.8524 274.864H79.2204C79.2204 274.373 79.1457 273.947 78.9964 273.584C78.847 273.221 78.6177 272.939 78.3084 272.736C78.0097 272.523 77.6204 272.416 77.1404 272.416ZM86.1236 271.28C87.169 271.28 87.9423 271.509 88.4436 271.968C88.945 272.427 89.1956 273.157 89.1956 274.16V280H88.1716L87.8996 278.784H87.8356C87.5903 279.093 87.3343 279.355 87.0676 279.568C86.8116 279.771 86.513 279.92 86.1716 280.016C85.841 280.112 85.4356 280.16 84.9556 280.16C84.4436 280.16 83.9796 280.069 83.5636 279.888C83.1583 279.707 82.8383 279.429 82.6036 279.056C82.369 278.672 82.2516 278.192 82.2516 277.616C82.2516 276.763 82.5876 276.107 83.2596 275.648C83.9316 275.179 84.9663 274.923 86.3636 274.88L87.8196 274.832V274.32C87.8196 273.605 87.665 273.109 87.3556 272.832C87.0463 272.555 86.609 272.416 86.0436 272.416C85.5956 272.416 85.169 272.485 84.7636 272.624C84.3583 272.752 83.9796 272.901 83.6276 273.072L83.1956 272.016C83.569 271.813 84.0116 271.643 84.5236 271.504C85.0356 271.355 85.569 271.28 86.1236 271.28ZM86.5396 275.856C85.473 275.899 84.7316 276.069 84.3156 276.368C83.9103 276.667 83.7076 277.088 83.7076 277.632C83.7076 278.112 83.8516 278.464 84.1396 278.688C84.4383 278.912 84.817 279.024 85.2756 279.024C86.001 279.024 86.6036 278.827 87.0836 278.432C87.5636 278.027 87.8036 277.408 87.8036 276.576V275.808L86.5396 275.856ZM94.7084 279.008C94.9217 279.008 95.1404 278.992 95.3644 278.96C95.5884 278.917 95.7697 278.875 95.9084 278.832V279.904C95.759 279.979 95.5457 280.037 95.2684 280.08C94.991 280.133 94.7244 280.16 94.4684 280.16C94.0204 280.16 93.6044 280.085 93.2204 279.936C92.847 279.776 92.543 279.504 92.3084 279.12C92.0737 278.736 91.9564 278.197 91.9564 277.504V272.512H90.7404V271.84L91.9724 271.28L92.5324 269.456H93.3644V271.424H95.8444V272.512H93.3644V277.472C93.3644 277.995 93.487 278.384 93.7324 278.64C93.9884 278.885 94.3137 279.008 94.7084 279.008ZM100.938 271.264C101.674 271.264 102.303 271.424 102.826 271.744C103.359 272.064 103.764 272.517 104.042 273.104C104.33 273.68 104.474 274.357 104.474 275.136V275.984H98.6016C98.623 276.955 98.8683 277.696 99.3376 278.208C99.8176 278.709 100.484 278.96 101.338 278.96C101.882 278.96 102.362 278.912 102.778 278.816C103.204 278.709 103.642 278.56 104.09 278.368V279.6C103.652 279.792 103.22 279.931 102.794 280.016C102.367 280.112 101.86 280.16 101.274 280.16C100.463 280.16 99.743 279.995 99.1136 279.664C98.495 279.333 98.0096 278.843 97.6576 278.192C97.3163 277.531 97.1456 276.725 97.1456 275.776C97.1456 274.837 97.3003 274.032 97.6096 273.36C97.9296 272.688 98.3723 272.171 98.9376 271.808C99.5136 271.445 100.18 271.264 100.938 271.264ZM100.922 272.416C100.25 272.416 99.7163 272.635 99.3216 273.072C98.9376 273.499 98.7083 274.096 98.6336 274.864H103.002C103.002 274.373 102.927 273.947 102.778 273.584C102.628 273.221 102.399 272.939 102.09 272.736C101.791 272.523 101.402 272.416 100.922 272.416ZM109.697 280.16C108.63 280.16 107.777 279.792 107.137 279.056C106.497 278.309 106.177 277.2 106.177 275.728C106.177 274.256 106.497 273.147 107.137 272.4C107.788 271.643 108.646 271.264 109.713 271.264C110.161 271.264 110.55 271.323 110.881 271.44C111.212 271.547 111.5 271.696 111.745 271.888C111.99 272.08 112.198 272.293 112.369 272.528H112.465C112.454 272.389 112.433 272.187 112.401 271.92C112.38 271.643 112.369 271.424 112.369 271.264V267.84H113.777V280H112.641L112.433 278.848H112.369C112.198 279.093 111.99 279.317 111.745 279.52C111.5 279.712 111.206 279.867 110.865 279.984C110.534 280.101 110.145 280.16 109.697 280.16ZM109.921 278.992C110.828 278.992 111.462 278.747 111.825 278.256C112.198 277.755 112.385 277.003 112.385 276V275.744C112.385 274.677 112.209 273.861 111.857 273.296C111.505 272.72 110.854 272.432 109.905 272.432C109.148 272.432 108.577 272.736 108.193 273.344C107.82 273.941 107.633 274.747 107.633 275.76C107.633 276.784 107.82 277.579 108.193 278.144C108.577 278.709 109.153 278.992 109.921 278.992ZM124.465 280H123.025V269.84H119.457V268.576H128.017V269.84H124.465V280ZM131.735 271.264C132.471 271.264 133.1 271.424 133.623 271.744C134.156 272.064 134.561 272.517 134.839 273.104C135.127 273.68 135.271 274.357 135.271 275.136V275.984H129.399C129.42 276.955 129.665 277.696 130.135 278.208C130.615 278.709 131.281 278.96 132.135 278.96C132.679 278.96 133.159 278.912 133.575 278.816C134.001 278.709 134.439 278.56 134.887 278.368V279.6C134.449 279.792 134.017 279.931 133.591 280.016C133.164 280.112 132.657 280.16 132.071 280.16C131.26 280.16 130.54 279.995 129.911 279.664C129.292 279.333 128.807 278.843 128.455 278.192C128.113 277.531 127.943 276.725 127.943 275.776C127.943 274.837 128.097 274.032 128.407 273.36C128.727 272.688 129.169 272.171 129.735 271.808C130.311 271.445 130.977 271.264 131.735 271.264ZM131.719 272.416C131.047 272.416 130.513 272.635 130.119 273.072C129.735 273.499 129.505 274.096 129.431 274.864H133.799C133.799 274.373 133.724 273.947 133.575 273.584C133.425 273.221 133.196 272.939 132.887 272.736C132.588 272.523 132.199 272.416 131.719 272.416ZM146.862 271.264C147.832 271.264 148.558 271.515 149.038 272.016C149.518 272.507 149.758 273.307 149.758 274.416V280H148.366V274.48C148.366 273.808 148.222 273.301 147.934 272.96C147.656 272.619 147.219 272.448 146.622 272.448C145.79 272.448 145.192 272.688 144.83 273.168C144.478 273.648 144.302 274.347 144.302 275.264V280H142.91V274.48C142.91 274.032 142.846 273.659 142.718 273.36C142.59 273.051 142.398 272.821 142.142 272.672C141.886 272.523 141.555 272.448 141.15 272.448C140.574 272.448 140.12 272.571 139.79 272.816C139.459 273.051 139.219 273.397 139.07 273.856C138.931 274.315 138.862 274.88 138.862 275.552V280H137.454V271.424H138.59L138.798 272.592H138.878C139.059 272.293 139.278 272.048 139.534 271.856C139.8 271.653 140.094 271.504 140.414 271.408C140.734 271.312 141.064 271.264 141.406 271.264C142.067 271.264 142.616 271.381 143.054 271.616C143.502 271.851 143.827 272.213 144.03 272.704H144.11C144.398 272.213 144.787 271.851 145.278 271.616C145.779 271.381 146.307 271.264 146.862 271.264ZM156.487 271.264C157.543 271.264 158.391 271.632 159.031 272.368C159.682 273.104 160.007 274.213 160.007 275.696C160.007 276.667 159.858 277.488 159.559 278.16C159.271 278.821 158.86 279.323 158.327 279.664C157.804 279.995 157.186 280.16 156.471 280.16C156.034 280.16 155.644 280.101 155.303 279.984C154.962 279.867 154.668 279.717 154.423 279.536C154.188 279.344 153.986 279.136 153.815 278.912H153.719C153.74 279.093 153.762 279.323 153.783 279.6C153.804 279.877 153.815 280.117 153.815 280.32V283.84H152.407V271.424H153.559L153.751 272.592H153.815C153.986 272.347 154.188 272.123 154.423 271.92C154.668 271.717 154.956 271.557 155.287 271.44C155.628 271.323 156.028 271.264 156.487 271.264ZM156.231 272.448C155.655 272.448 155.191 272.56 154.839 272.784C154.487 272.997 154.231 273.323 154.071 273.76C153.911 274.197 153.826 274.752 153.815 275.424V275.696C153.815 276.4 153.89 276.997 154.039 277.488C154.188 277.979 154.439 278.352 154.791 278.608C155.154 278.864 155.644 278.992 156.263 278.992C156.786 278.992 157.212 278.848 157.543 278.56C157.884 278.272 158.135 277.883 158.295 277.392C158.466 276.891 158.551 276.32 158.551 275.68C158.551 274.699 158.359 273.915 157.975 273.328C157.602 272.741 157.02 272.448 156.231 272.448ZM163.659 280H162.251V267.84H163.659V280ZM169.624 271.28C170.669 271.28 171.442 271.509 171.944 271.968C172.445 272.427 172.696 273.157 172.696 274.16V280H171.672L171.4 278.784H171.336C171.09 279.093 170.834 279.355 170.568 279.568C170.312 279.771 170.013 279.92 169.672 280.016C169.341 280.112 168.936 280.16 168.456 280.16C167.944 280.16 167.48 280.069 167.064 279.888C166.658 279.707 166.338 279.429 166.104 279.056C165.869 278.672 165.752 278.192 165.752 277.616C165.752 276.763 166.088 276.107 166.76 275.648C167.432 275.179 168.466 274.923 169.864 274.88L171.32 274.832V274.32C171.32 273.605 171.165 273.109 170.856 272.832C170.546 272.555 170.109 272.416 169.544 272.416C169.096 272.416 168.669 272.485 168.264 272.624C167.858 272.752 167.48 272.901 167.128 273.072L166.696 272.016C167.069 271.813 167.512 271.643 168.024 271.504C168.536 271.355 169.069 271.28 169.624 271.28ZM170.04 275.856C168.973 275.899 168.232 276.069 167.816 276.368C167.41 276.667 167.208 277.088 167.208 277.632C167.208 278.112 167.352 278.464 167.64 278.688C167.938 278.912 168.317 279.024 168.776 279.024C169.501 279.024 170.104 278.827 170.584 278.432C171.064 278.027 171.304 277.408 171.304 276.576V275.808L170.04 275.856ZM178.208 279.008C178.422 279.008 178.64 278.992 178.864 278.96C179.088 278.917 179.27 278.875 179.408 278.832V279.904C179.259 279.979 179.046 280.037 178.768 280.08C178.491 280.133 178.224 280.16 177.968 280.16C177.52 280.16 177.104 280.085 176.72 279.936C176.347 279.776 176.043 279.504 175.808 279.12C175.574 278.736 175.456 278.197 175.456 277.504V272.512H174.24V271.84L175.472 271.28L176.032 269.456H176.864V271.424H179.344V272.512H176.864V277.472C176.864 277.995 176.987 278.384 177.232 278.64C177.488 278.885 177.814 279.008 178.208 279.008ZM184.438 271.264C185.174 271.264 185.803 271.424 186.326 271.744C186.859 272.064 187.264 272.517 187.542 273.104C187.83 273.68 187.974 274.357 187.974 275.136V275.984H182.102C182.123 276.955 182.368 277.696 182.838 278.208C183.318 278.709 183.984 278.96 184.838 278.96C185.382 278.96 185.862 278.912 186.278 278.816C186.704 278.709 187.142 278.56 187.59 278.368V279.6C187.152 279.792 186.72 279.931 186.294 280.016C185.867 280.112 185.36 280.16 184.774 280.16C183.963 280.16 183.243 279.995 182.614 279.664C181.995 279.333 181.51 278.843 181.158 278.192C180.816 277.531 180.646 276.725 180.646 275.776C180.646 274.837 180.8 274.032 181.11 273.36C181.43 272.688 181.872 272.171 182.438 271.808C183.014 271.445 183.68 271.264 184.438 271.264ZM184.422 272.416C183.75 272.416 183.216 272.635 182.822 273.072C182.438 273.499 182.208 274.096 182.134 274.864H186.502C186.502 274.373 186.427 273.947 186.278 273.584C186.128 273.221 185.899 272.939 185.59 272.736C185.291 272.523 184.902 272.416 184.422 272.416ZM195.741 277.632C195.741 278.187 195.602 278.651 195.325 279.024C195.048 279.397 194.653 279.68 194.141 279.872C193.629 280.064 193.021 280.16 192.317 280.16C191.72 280.16 191.202 280.112 190.765 280.016C190.338 279.92 189.96 279.787 189.629 279.616V278.336C189.97 278.507 190.381 278.667 190.861 278.816C191.352 278.955 191.848 279.024 192.349 279.024C193.064 279.024 193.581 278.912 193.901 278.688C194.221 278.453 194.381 278.144 194.381 277.76C194.381 277.547 194.322 277.355 194.205 277.184C194.088 277.013 193.874 276.843 193.565 276.672C193.266 276.501 192.834 276.309 192.269 276.096C191.714 275.883 191.24 275.669 190.845 275.456C190.45 275.243 190.146 274.987 189.933 274.688C189.72 274.389 189.613 274.005 189.613 273.536C189.613 272.811 189.906 272.251 190.493 271.856C191.09 271.461 191.869 271.264 192.829 271.264C193.352 271.264 193.837 271.317 194.285 271.424C194.744 271.52 195.17 271.659 195.565 271.84L195.085 272.96C194.85 272.853 194.6 272.763 194.333 272.688C194.077 272.603 193.816 272.539 193.549 272.496C193.282 272.443 193.01 272.416 192.733 272.416C192.157 272.416 191.714 272.512 191.405 272.704C191.106 272.885 190.957 273.136 190.957 273.456C190.957 273.691 191.026 273.893 191.165 274.064C191.304 274.224 191.533 274.384 191.853 274.544C192.184 274.693 192.621 274.875 193.165 275.088C193.709 275.291 194.173 275.499 194.557 275.712C194.941 275.925 195.234 276.187 195.437 276.496C195.64 276.795 195.741 277.173 195.741 277.632ZM215.281 268.576L212.241 280H210.785L208.561 272.512C208.497 272.288 208.433 272.059 208.369 271.824C208.305 271.589 208.247 271.365 208.193 271.152C208.14 270.939 208.092 270.757 208.049 270.608C208.017 270.448 207.996 270.331 207.985 270.256C207.975 270.331 207.953 270.448 207.921 270.608C207.9 270.757 207.863 270.939 207.809 271.152C207.756 271.365 207.697 271.595 207.633 271.84C207.58 272.075 207.516 272.315 207.441 272.56L205.281 280H203.825L200.801 268.576H202.305L204.081 275.552C204.145 275.797 204.204 276.043 204.257 276.288C204.311 276.523 204.359 276.757 204.401 276.992C204.455 277.216 204.497 277.435 204.529 277.648C204.561 277.861 204.593 278.069 204.625 278.272C204.657 278.059 204.689 277.84 204.721 277.616C204.764 277.392 204.812 277.163 204.865 276.928C204.919 276.683 204.977 276.437 205.041 276.192C205.105 275.947 205.169 275.707 205.233 275.472L207.249 268.576H208.737L210.833 275.52C210.908 275.765 210.977 276.016 211.041 276.272C211.105 276.517 211.164 276.757 211.217 276.992C211.271 277.227 211.313 277.456 211.345 277.68C211.388 277.893 211.425 278.091 211.457 278.272C211.489 278.005 211.532 277.728 211.585 277.44C211.639 277.141 211.703 276.832 211.777 276.512C211.852 276.192 211.932 275.867 212.017 275.536L213.777 268.576H215.281ZM218.252 271.424V280H216.844V271.424H218.252ZM217.564 268.208C217.778 268.208 217.964 268.283 218.124 268.432C218.295 268.571 218.38 268.795 218.38 269.104C218.38 269.403 218.295 269.627 218.124 269.776C217.964 269.925 217.778 270 217.564 270C217.33 270 217.132 269.925 216.972 269.776C216.812 269.627 216.732 269.403 216.732 269.104C216.732 268.795 216.812 268.571 216.972 268.432C217.132 268.283 217.33 268.208 217.564 268.208ZM222.377 280H220.969V267.84H222.377V280ZM226.502 280H225.094V267.84H226.502V280ZM236.832 268.576C237.781 268.576 238.576 268.667 239.216 268.848C239.866 269.029 240.352 269.328 240.672 269.744C241.002 270.16 241.168 270.715 241.168 271.408C241.168 271.856 241.082 272.256 240.912 272.608C240.752 272.949 240.506 273.237 240.176 273.472C239.856 273.696 239.461 273.851 238.992 273.936V274.016C239.472 274.091 239.904 274.229 240.288 274.432C240.682 274.635 240.992 274.923 241.216 275.296C241.44 275.669 241.552 276.155 241.552 276.752C241.552 277.445 241.392 278.037 241.072 278.528C240.752 279.008 240.293 279.376 239.696 279.632C239.109 279.877 238.405 280 237.584 280H233.568V268.576H236.832ZM237.12 273.44C238.101 273.44 238.773 273.285 239.136 272.976C239.498 272.656 239.68 272.187 239.68 271.568C239.68 270.939 239.456 270.491 239.008 270.224C238.57 269.947 237.866 269.808 236.896 269.808H235.008V273.44H237.12ZM235.008 274.64V278.784H237.312C238.325 278.784 239.029 278.587 239.424 278.192C239.818 277.797 240.016 277.28 240.016 276.64C240.016 276.235 239.925 275.883 239.744 275.584C239.573 275.285 239.28 275.056 238.864 274.896C238.458 274.725 237.904 274.64 237.2 274.64H235.008ZM247.094 271.264C247.83 271.264 248.459 271.424 248.982 271.744C249.515 272.064 249.921 272.517 250.198 273.104C250.486 273.68 250.63 274.357 250.63 275.136V275.984H244.758C244.779 276.955 245.025 277.696 245.494 278.208C245.974 278.709 246.641 278.96 247.494 278.96C248.038 278.96 248.518 278.912 248.934 278.816C249.361 278.709 249.798 278.56 250.246 278.368V279.6C249.809 279.792 249.377 279.931 248.95 280.016C248.523 280.112 248.017 280.16 247.43 280.16C246.619 280.16 245.899 279.995 245.27 279.664C244.651 279.333 244.166 278.843 243.814 278.192C243.473 277.531 243.302 276.725 243.302 275.776C243.302 274.837 243.457 274.032 243.766 273.36C244.086 272.688 244.529 272.171 245.094 271.808C245.67 271.445 246.337 271.264 247.094 271.264ZM247.078 272.416C246.406 272.416 245.873 272.635 245.478 273.072C245.094 273.499 244.865 274.096 244.79 274.864H249.158C249.158 274.373 249.083 273.947 248.934 273.584C248.785 273.221 248.555 272.939 248.246 272.736C247.947 272.523 247.558 272.416 247.078 272.416ZM263.641 276.944C263.641 277.627 263.476 278.208 263.145 278.688C262.815 279.157 262.34 279.52 261.721 279.776C261.113 280.032 260.393 280.16 259.561 280.16C259.135 280.16 258.724 280.139 258.329 280.096C257.945 280.053 257.593 279.995 257.273 279.92C256.953 279.835 256.671 279.733 256.425 279.616V278.24C256.809 278.411 257.284 278.565 257.849 278.704C258.425 278.843 259.017 278.912 259.625 278.912C260.191 278.912 260.665 278.837 261.049 278.688C261.433 278.539 261.721 278.325 261.913 278.048C262.105 277.771 262.201 277.445 262.201 277.072C262.201 276.699 262.121 276.384 261.961 276.128C261.801 275.872 261.524 275.637 261.129 275.424C260.745 275.2 260.207 274.965 259.513 274.72C259.023 274.539 258.591 274.347 258.217 274.144C257.855 273.931 257.551 273.691 257.305 273.424C257.06 273.157 256.873 272.853 256.745 272.512C256.628 272.171 256.569 271.776 256.569 271.328C256.569 270.72 256.724 270.203 257.033 269.776C257.343 269.339 257.769 269.003 258.313 268.768C258.868 268.533 259.503 268.416 260.217 268.416C260.847 268.416 261.423 268.475 261.945 268.592C262.468 268.709 262.943 268.864 263.369 269.056L262.921 270.288C262.527 270.117 262.095 269.973 261.625 269.856C261.167 269.739 260.687 269.68 260.185 269.68C259.705 269.68 259.305 269.749 258.985 269.888C258.665 270.027 258.425 270.224 258.265 270.48C258.105 270.725 258.025 271.013 258.025 271.344C258.025 271.728 258.105 272.048 258.265 272.304C258.425 272.56 258.687 272.789 259.049 272.992C259.412 273.195 259.903 273.413 260.521 273.648C261.193 273.893 261.759 274.16 262.217 274.448C262.687 274.725 263.039 275.061 263.273 275.456C263.519 275.851 263.641 276.347 263.641 276.944ZM267.159 271.408C267.159 271.611 267.148 271.819 267.127 272.032C267.116 272.245 267.1 272.437 267.079 272.608H267.175C267.356 272.309 267.585 272.064 267.863 271.872C268.14 271.68 268.449 271.536 268.791 271.44C269.132 271.333 269.484 271.28 269.847 271.28C270.54 271.28 271.116 271.392 271.575 271.616C272.044 271.829 272.396 272.165 272.631 272.624C272.865 273.083 272.983 273.68 272.983 274.416V280H271.591V274.512C271.591 273.819 271.436 273.301 271.127 272.96C270.817 272.619 270.332 272.448 269.671 272.448C269.031 272.448 268.529 272.571 268.167 272.816C267.804 273.051 267.543 273.403 267.383 273.872C267.233 274.331 267.159 274.896 267.159 275.568V280H265.751V267.84H267.159V271.408ZM283.097 275.696C283.097 276.411 283.001 277.045 282.809 277.6C282.628 278.144 282.361 278.608 282.009 278.992C281.668 279.376 281.247 279.669 280.745 279.872C280.255 280.064 279.705 280.16 279.097 280.16C278.532 280.16 278.009 280.064 277.529 279.872C277.049 279.669 276.633 279.376 276.281 278.992C275.929 278.608 275.652 278.144 275.449 277.6C275.257 277.045 275.161 276.411 275.161 275.696C275.161 274.747 275.321 273.947 275.641 273.296C275.961 272.635 276.42 272.133 277.017 271.792C277.615 271.44 278.324 271.264 279.145 271.264C279.924 271.264 280.607 271.44 281.193 271.792C281.791 272.133 282.255 272.635 282.585 273.296C282.927 273.947 283.097 274.747 283.097 275.696ZM276.617 275.696C276.617 276.368 276.703 276.955 276.873 277.456C277.055 277.947 277.332 278.325 277.705 278.592C278.079 278.859 278.553 278.992 279.129 278.992C279.705 278.992 280.18 278.859 280.553 278.592C280.927 278.325 281.199 277.947 281.369 277.456C281.551 276.955 281.641 276.368 281.641 275.696C281.641 275.013 281.551 274.432 281.369 273.952C281.188 273.472 280.911 273.104 280.537 272.848C280.175 272.581 279.7 272.448 279.113 272.448C278.239 272.448 277.604 272.736 277.209 273.312C276.815 273.888 276.617 274.683 276.617 275.696ZM290.552 275.152C290.488 274.928 290.424 274.709 290.36 274.496C290.296 274.272 290.238 274.064 290.184 273.872C290.142 273.669 290.099 273.483 290.056 273.312C290.014 273.141 289.982 272.997 289.96 272.88H289.896C289.875 272.997 289.843 273.141 289.8 273.312C289.768 273.483 289.726 273.669 289.672 273.872C289.63 274.075 289.576 274.288 289.512 274.512C289.459 274.725 289.395 274.944 289.32 275.168L287.784 279.984H286.184L283.832 271.408H285.288L286.472 275.984C286.558 276.293 286.638 276.608 286.712 276.928C286.787 277.237 286.851 277.536 286.904 277.824C286.968 278.101 287.011 278.341 287.032 278.544H287.096C287.128 278.416 287.166 278.256 287.208 278.064C287.251 277.872 287.294 277.669 287.336 277.456C287.39 277.243 287.443 277.029 287.496 276.816C287.56 276.603 287.619 276.411 287.672 276.24L289.192 271.408H290.728L292.2 276.24C292.275 276.485 292.35 276.747 292.424 277.024C292.51 277.301 292.584 277.573 292.648 277.84C292.712 278.096 292.755 278.325 292.776 278.528H292.84C292.862 278.347 292.899 278.123 292.952 277.856C293.016 277.579 293.086 277.28 293.16 276.96C293.246 276.629 293.331 276.304 293.416 275.984L294.616 271.408H296.056L293.672 279.984H292.024L290.552 275.152ZM301.722 271.264C302.746 271.264 303.52 271.515 304.042 272.016C304.565 272.507 304.826 273.307 304.826 274.416V280H303.434V274.512C303.434 273.819 303.28 273.301 302.97 272.96C302.661 272.619 302.176 272.448 301.514 272.448C300.565 272.448 299.909 272.715 299.546 273.248C299.184 273.781 299.002 274.549 299.002 275.552V280H297.594V271.424H298.73L298.938 272.592H299.018C299.21 272.293 299.445 272.048 299.722 271.856C300.01 271.653 300.325 271.504 300.666 271.408C301.008 271.312 301.36 271.264 301.722 271.264ZM320.569 280H319.129V274.672H313.273V280H311.833V268.576H313.273V273.408H319.129V268.576H320.569V280ZM326.813 271.264C327.549 271.264 328.178 271.424 328.701 271.744C329.234 272.064 329.639 272.517 329.917 273.104C330.205 273.68 330.349 274.357 330.349 275.136V275.984H324.477C324.498 276.955 324.743 277.696 325.213 278.208C325.693 278.709 326.359 278.96 327.213 278.96C327.757 278.96 328.237 278.912 328.653 278.816C329.079 278.709 329.517 278.56 329.965 278.368V279.6C329.527 279.792 329.095 279.931 328.669 280.016C328.242 280.112 327.735 280.16 327.149 280.16C326.338 280.16 325.618 279.995 324.989 279.664C324.37 279.333 323.885 278.843 323.533 278.192C323.191 277.531 323.021 276.725 323.021 275.776C323.021 274.837 323.175 274.032 323.485 273.36C323.805 272.688 324.247 272.171 324.813 271.808C325.389 271.445 326.055 271.264 326.813 271.264ZM326.797 272.416C326.125 272.416 325.591 272.635 325.197 273.072C324.813 273.499 324.583 274.096 324.509 274.864H328.877C328.877 274.373 328.802 273.947 328.653 273.584C328.503 273.221 328.274 272.939 327.965 272.736C327.666 272.523 327.277 272.416 326.797 272.416ZM336.532 271.264C336.692 271.264 336.863 271.275 337.044 271.296C337.236 271.307 337.401 271.328 337.54 271.36L337.364 272.656C337.225 272.624 337.071 272.597 336.9 272.576C336.74 272.555 336.585 272.544 336.436 272.544C336.105 272.544 335.791 272.613 335.492 272.752C335.193 272.891 334.927 273.088 334.692 273.344C334.457 273.589 334.271 273.888 334.132 274.24C334.004 274.592 333.94 274.987 333.94 275.424V280H332.532V271.424H333.684L333.844 272.992H333.908C334.089 272.672 334.308 272.384 334.564 272.128C334.82 271.861 335.113 271.653 335.444 271.504C335.775 271.344 336.137 271.264 336.532 271.264ZM342.141 271.264C342.877 271.264 343.506 271.424 344.029 271.744C344.562 272.064 344.967 272.517 345.245 273.104C345.533 273.68 345.677 274.357 345.677 275.136V275.984H339.805C339.826 276.955 340.071 277.696 340.541 278.208C341.021 278.709 341.687 278.96 342.541 278.96C343.085 278.96 343.565 278.912 343.981 278.816C344.407 278.709 344.845 278.56 345.293 278.368V279.6C344.855 279.792 344.423 279.931 343.997 280.016C343.57 280.112 343.063 280.16 342.477 280.16C341.666 280.16 340.946 279.995 340.317 279.664C339.698 279.333 339.213 278.843 338.861 278.192C338.519 277.531 338.349 276.725 338.349 275.776C338.349 274.837 338.503 274.032 338.813 273.36C339.133 272.688 339.575 272.171 340.141 271.808C340.717 271.445 341.383 271.264 342.141 271.264ZM342.125 272.416C341.453 272.416 340.919 272.635 340.525 273.072C340.141 273.499 339.911 274.096 339.837 274.864H344.205C344.205 274.373 344.13 273.947 343.981 273.584C343.831 273.221 343.602 272.939 343.293 272.736C342.994 272.523 342.605 272.416 342.125 272.416Z" fill="black" fill-opacity="0.6"/>
<defs>
<clipPath id="clip0_1466_1486">
<rect width="323.969" height="242.135" fill="white" transform="translate(16.031 0.192627)"/>
</clipPath>
</defs>
</svg>
