<svg xmlns="http://www.w3.org/2000/svg" width="1719" height="832" fill="none" viewBox="0 0 1719 832">
  <g clip-path="url(#a)">
    <path fill="#F8F9FA" d="M0 0h1738v832H0z"/>
    <path fill="#fff" d="M1355.28 176.064a21.844 21.844 0 0 1 2.38 15.8 21.887 21.887 0 0 1-9.46 13.535l-10.39-17.996a1.27 1.27 0 0 0-.42-.452 1.344 1.344 0 0 0-.57-.228.29.29 0 0 0-.08-.013 1.386 1.386 0 0 0-.75.132c-.22.103-.4.256-.53.447l-.46-.326c.16-.228.37-.419.61-.559l-20.75-3.925c.04-.184.08-.367.13-.551a21.88 21.88 0 0 1 6.54-11.072 21.943 21.943 0 0 1 24.34-3.542 21.886 21.886 0 0 1 9.41 8.75Z"/>
    <path fill="#3F3D56" d="M1405.4 142.577c.04.059.05.13.04.199a.318.318 0 0 1-.12.18.286.286 0 0 1-.21.045l-1.22-.232-20.75-3.925-58.2-11.013a1.405 1.405 0 0 0-1.59.921l-26.13 75.666-.24.681a.213.213 0 0 1-.04.074.203.203 0 0 1-.11.091.272.272 0 0 1-.2.011.269.269 0 0 1-.1-.054.176.176 0 0 1-.06-.087.202.202 0 0 1-.03-.105.202.202 0 0 1 .01-.109l.03-.096 26.34-76.255c.15-.445.46-.82.87-1.057.41-.236.89-.32 1.35-.235l58.22 11.016 21.95 4.156a.268.268 0 0 1 .19.128Z"/>
    <path fill="#fff" d="m1379.98 166.825-1.66-1.391-5.71-4.804-12.31-10.343-13.75-11.561-24.81-20.853a2.398 2.398 0 0 0-3.37.292l-43.79 52.021a2.387 2.387 0 0 0 .29 3.363l35.17 29.563.6.505 17.98-1.776 5.05-.5.82-.081 21.4-2.113.52-.617 8.8-10.451 13.27-15.766 1.79-2.124c.4-.486.6-1.112.55-1.742a2.428 2.428 0 0 0-.84-1.622Z"/>
    <path fill="#fff" d="M1338.77 149.077a3.504 3.504 0 0 0-2.56-.808c-.93.081-1.79.526-2.39 1.238l-17.32 20.586-8.37 9.939c-.3.353-.52.761-.66 1.2-.14.44-.19.903-.16 1.362.04.46.17.907.39 1.316a3.49 3.49 0 0 0 3.41 1.879 3.532 3.532 0 0 0 2.39-1.241l6.73-7.991 18.97-22.533a3.512 3.512 0 0 0-.43-4.947Zm10 8.397a3.518 3.518 0 0 0-4.95.43l-2.94 3.487-17.44 20.722-5.32 6.314a3.507 3.507 0 0 0 .43 4.944 3.523 3.523 0 0 0 4.95-.426l3.67-4.369 22.02-26.158c.05-.058.1-.12.14-.182.53-.718.77-1.609.66-2.494a3.483 3.483 0 0 0-1.22-2.268Zm10.09 8.491a3.5 3.5 0 0 0-2.56-.808c-.92.08-1.78.525-2.38 1.237l-8.24 9.78-6.37 7.572-8.86 10.521-2.23 2.653a3.507 3.507 0 0 0-.82 2.187 3.49 3.49 0 0 0 1.22 2.734l5.05-.499.51-.611.01-.003 16.07-19.095 9.03-10.721a3.51 3.51 0 0 0-.43-4.947Zm-41.17-18.647a3.542 3.542 0 0 0-2.57-.808c-.92.081-1.78.526-2.38 1.238l-9.95 11.82c-.6.713-.9 1.634-.82 2.561a3.52 3.52 0 0 0 1.24 2.383 3.5 3.5 0 0 0 2.56.81 3.514 3.514 0 0 0 2.39-1.236l3.15-3.74 2.08-2.477 4.72-5.607c.6-.713.89-1.634.81-2.561a3.508 3.508 0 0 0-1.23-2.383Z"/>
    <path fill="#6C63FF" d="m1371.4 124.38-58.9 34.004a2.4 2.4 0 0 0-.85.828c-.21.343-.32.733-.34 1.133-.02.455.08.906.31 1.299l22.87 39.615 21.4-2.113 3.01-.298 4.76-.471a1.947 1.947 0 0 0 1.41-.812l2.79-3.888 8.72-12.169 8.14-11.342 8.79-12.26-18.85-32.654a2.398 2.398 0 0 0-1.45-1.111 2.377 2.377 0 0 0-1.81.239Z"/>
    <path fill="#fff" d="m1375.22 159.119-34.56 19.953a3.515 3.515 0 0 0-1.61 2.065 3.478 3.478 0 0 0 .33 2.73 3.486 3.486 0 0 0 2.13 1.632c.9.24 1.86.114 2.66-.35l34.56-19.953a3.503 3.503 0 0 0 1.64-2.132c.24-.899.11-1.857-.35-2.663a3.513 3.513 0 0 0-4.8-1.282Zm8.92 10.892a3.497 3.497 0 0 0-2.39.413l-34.56 19.952a3.503 3.503 0 0 0-1.64 2.132c-.24.9-.11 1.858.35 2.663a3.518 3.518 0 0 0 2.13 1.635c.9.24 1.86.114 2.67-.352l25.88-14.944 8.13-11.342a3.387 3.387 0 0 0-.57-.157Zm-25.24 28.837 4.76-.471c.28-.028.55-.114.79-.254.25-.141.46-.331.62-.558l2.79-3.888-8.96 5.171Zm1.12-48.221a3.56 3.56 0 0 0-1.95-.804 3.504 3.504 0 0 0-2.06.458l-13.39 7.728c-.58.338-1.06.837-1.37 1.437-.31.6-.43 1.276-.37 1.947.05.497.2.979.45 1.411a3.547 3.547 0 0 0 2.13 1.633c.9.24 1.86.114 2.67-.35l13.38-7.729c.49-.282.91-.678 1.21-1.155.31-.476.49-1.019.54-1.581a3.455 3.455 0 0 0-.26-1.65 3.452 3.452 0 0 0-.98-1.345Z"/>
    <path fill="#3F3D56" d="m1375.4 182.19-8.72 12.169-2.07 2.881c-.11.162-.26.297-.44.397-.17.1-.36.162-.56.182l-3.53.348-1.18.681 4.76-.47c.28-.028.55-.115.79-.255.25-.14.46-.33.62-.558l2.79-3.888 8.72-12.168-1.18.681Zm0 0-8.72 12.169-2.07 2.881c-.11.162-.26.297-.44.397-.17.1-.36.162-.56.182l-3.53.348-1.18.681 4.76-.47c.28-.028.55-.115.79-.255.25-.14.46-.33.62-.558l2.79-3.888 8.72-12.168-1.18.681Zm0 0-8.72 12.169-2.07 2.881c-.11.162-.26.297-.44.397-.17.1-.36.162-.56.182l-3.53.348-1.18.681 4.76-.47c.28-.028.55-.115.79-.255.25-.14.46-.33.62-.558l2.79-3.888 8.72-12.168-1.18.681Zm30-39.613a1.993 1.993 0 0 0-1.39.124c-.29.144-.55.359-.74.627l-19.13 26.682-8.74 12.18-8.72 12.169-2.07 2.881c-.11.162-.26.297-.44.397-.17.1-.36.162-.56.182l-3.53.348-3.67.362-22.22 2.197v.001l-6.06.596-18.09 1.787-12.45 1.232c-.12.011-.25.037-.37.076-.27.078-.53.217-.74.406-.34.301-.56.709-.64 1.157-.07.447.01.906.24 1.299l35.25 61.048c.26.45.69.779 1.19.914s1.04.064 1.49-.196l107.09-61.826c.45-.261.78-.691.91-1.194.14-.503.07-1.04-.19-1.491l-35.25-61.048a1.945 1.945 0 0 0-1.17-.91Zm35.93 62.239c.19.322.24.705.14 1.065-.1.36-.33.666-.65.853l-107.09 61.825c-.32.187-.7.237-1.06.141a1.427 1.427 0 0 1-.86-.653l-35.24-61.048a1.424 1.424 0 0 1-.19-.667c-.01-.235.05-.467.15-.676.08-.146.18-.279.3-.392.04-.032.07-.062.11-.091.05-.034.09-.065.14-.092.18-.1.37-.161.57-.18l12.99-1.285 17.98-1.776 5.05-.5.82-.081 21.4-2.113 3.01-.298 4.76-.47c.28-.028.55-.115.79-.255.25-.14.46-.33.62-.558l2.79-3.888 8.72-12.168 8.14-11.343 19.01-26.512c.14-.191.32-.344.53-.446a1.386 1.386 0 0 1 .84-.12c.2.033.4.11.57.228.17.118.31.272.42.452l35.24 61.048Zm-65.93-22.626-8.72 12.169-2.07 2.881c-.11.162-.26.297-.44.397-.17.1-.36.162-.56.182l-3.53.348-1.18.681 4.76-.47c.28-.028.55-.115.79-.255.25-.14.46-.33.62-.558l2.79-3.888 8.72-12.168-1.18.681Zm0 0-8.72 12.169-2.07 2.881c-.11.162-.26.297-.44.397-.17.1-.36.162-.56.182l-3.53.348-1.18.681 4.76-.47c.28-.028.55-.115.79-.255.25-.14.46-.33.62-.558l2.79-3.888 8.72-12.168-1.18.681Zm-41.73 19.15.82-.081-.3-.53-.52.611Zm41.73-19.15-8.72 12.169-2.07 2.881c-.11.162-.26.297-.44.397-.17.1-.36.162-.56.182l-3.53.348-1.18.681 4.76-.47c.28-.028.55-.115.79-.255.25-.14.46-.33.62-.558l2.79-3.888 8.72-12.168-1.18.681Z"/>
    <path fill="#FFB8B8" d="M226.891 524.948a7.676 7.676 0 0 1 1.55-6.27 7.623 7.623 0 0 1 2.575-2.06 7.554 7.554 0 0 1 3.201-.77l33.849-40.512 8.451 10.863-34.497 37.703a7.7 7.7 0 0 1-2.176 4.996 7.604 7.604 0 0 1-10.117.699 7.683 7.683 0 0 1-2.836-4.649Zm160.739-49.859a7.894 7.894 0 0 0-.626 1.085l-36.961 5.311-5.612-7.163-11.861 7.102 11.149 17.476 45.077-13.359a7.868 7.868 0 0 0 8.905 1.181 7.926 7.926 0 0 0 3.359-3.312 7.98 7.98 0 0 0-1.001-8.974 7.89 7.89 0 0 0-4.005-2.482 7.862 7.862 0 0 0-4.698.247 7.907 7.907 0 0 0-3.726 2.888Zm-63.134 135.352 6.541 6.547 28.231-22.247-9.652-9.663-25.12 25.363Z"/>
    <path fill="#2F2E41" d="m337.602 635.723-20.556-20.578 7.908-7.984 12.613 12.627a11.267 11.267 0 0 1 2.438 3.65 11.318 11.318 0 0 1-2.403 12.285Z"/>
    <path fill="#FFB8B8" d="M289.728 673.241h9.23l4.391-35.792h-13.622l.001 35.792Z"/>
    <path fill="#2F2E41" d="m316.758 681.859-29.008.002v-11.268l17.8-.001c1.472 0 2.929.291 4.289.858a11.204 11.204 0 0 1 3.636 2.442 11.276 11.276 0 0 1 3.283 7.967ZM287.722 645.6l-10.513-77.95a98.104 98.104 0 0 1 1.506-35.359c2.158-9.319 5.072-15.774 8.663-19.185a3.54 3.54 0 0 1 2.065-.948l34.711-3.636a3.546 3.546 0 0 1 3.396 1.706l1.141 1.912c.138.232.25.479.333.737l7.339 22.873c.109.346.286.666.52.942.233.277.519.503.841.668 11.555 5.931 49.088 25.952 46.94 34.59-2.018 8.116-20.913 21.276-26.657 25.115a3.49 3.49 0 0 1-3.945-.03l-9.533-6.557a3.563 3.563 0 0 1-.101-5.791l6.575-4.871a2.774 2.774 0 0 0 .487-3.985 2.742 2.742 0 0 0-1.208-.846l-35.307-12.456a2.735 2.735 0 0 0-2.406.29 2.777 2.777 0 0 0-1.243 2.092l-6.51 79.995a3.566 3.566 0 0 1-1.065 2.259 3.53 3.53 0 0 1-2.279.998l-10.073.507a3.497 3.497 0 0 1-2.508-.869 3.534 3.534 0 0 1-1.169-2.201Z"/>
    <path fill="#FFB8B8" d="M303.639 443.981c10.212 0 18.491-8.323 18.491-18.59s-8.279-18.59-18.491-18.59-18.491 8.323-18.491 18.59 8.279 18.59 18.491 18.59Z"/>
    <path fill="#CCC" d="m286.345 509.921-13.611-49.928.233-.158c.293-.198 29.63-19.674 63.977-3.979l.623.359-8.065 51.822a5.147 5.147 0 0 1-1.642 3.065 5.097 5.097 0 0 1-3.209 1.308l-33.188 1.283a5.065 5.065 0 0 1-3.296-1.045 5.11 5.11 0 0 1-1.822-2.727Z"/>
    <path fill="#CCC" d="m272.22 492.495-11.336-13.106a3.56 3.56 0 0 1-.08-4.566l11.85-14.718 9.097 2.495 4.823 16.971-8.794 12.63a3.514 3.514 0 0 1-4.362 1.197 3.517 3.517 0 0 1-1.198-.903Zm63.459-2.92a3.506 3.506 0 0 1-2.71-1.51l-8.793-12.63 4.23-17.865 8.375-2.297 1.563.75 11.602 14.664a3.566 3.566 0 0 1-.08 4.566l-11.336 13.106a3.501 3.501 0 0 1-2.851 1.216Z"/>
    <path fill="#3F3D56" d="M344.145 682.998h-85.072a.758.758 0 0 1 0-1.514h85.072a.75.75 0 0 1 .752.757.757.757 0 0 1-.752.757Z"/>
    <path fill="#2F2E41" d="M296.611 438.988a8.077 8.077 0 0 1-3.325-3.162 8.132 8.132 0 0 1 .444-8.811 8.058 8.058 0 0 1 3.626-2.807c5.58-2.165 11.835 2.253 17.684.997 5.829-1.252 9.202-8.259 7.81-14.087-1.391-5.827-6.456-10.217-12.04-12.313a25.83 25.83 0 0 0-22.391 2.064 23.974 23.974 0 0 0-8.018 8.298 24.124 24.124 0 0 0-3.233 11.104 22.381 22.381 0 0 0 2.758 11.206 22.222 22.222 0 0 0 7.966 8.314c1.486.862 3.216 1.554 4.888 1.166a13.617 13.617 0 0 0 3.831-1.969Z"/>
    <path fill="#2F2E41" d="M290.618 400.417c-4.92-6.561-11.562-11.951-19.29-14.624-7.729-2.672-16.561-2.458-23.819 1.319-7.259 3.776-12.672 11.277-13.237 19.474-.94 13.643 10.655 25.24 11.845 38.863a26.255 26.255 0 0 1-2.029 12.642 26.122 26.122 0 0 1-7.759 10.156 25.926 25.926 0 0 1-11.627 5.23c-4.247.747-8.612.42-12.702-.952a27.319 27.319 0 0 0 9.921 5.226 27.218 27.218 0 0 0 11.172.793 25.37 25.37 0 0 0 10.424-4.073 25.517 25.517 0 0 0 7.679-8.175c2.61-4.558 3.681-9.853 4.098-15.096a67.434 67.434 0 0 0-2.611-24.594c-1.301-4.346-3.064-8.817-2.24-13.279a12.107 12.107 0 0 1 3.273-6.127 11.998 11.998 0 0 1 6.089-3.299c3.729-.703 7.542.442 11.103 1.759 3.561 1.316 7.151 2.84 10.944 2.928 3.793.087 7.924-1.659 9.39-5.177l-.624-2.994Z"/>
    <g filter="url(#b)">
      <path fill="#fff" d="M19.685 102.596a17.67 17.67 0 0 1 1.925 12.76 17.711 17.711 0 0 1-7.641 10.933l-8.392-14.535a1.12 1.12 0 0 0-.8-.549.276.276 0 0 0-.063-.011 1.131 1.131 0 0 0-1.04.467l-.37-.263c.132-.184.301-.338.497-.451l-16.76-3.17c.03-.149.066-.297.1-.445A17.725 17.725 0 0 1 1.818 93.944c3.504-.51 7.08.042 10.265 1.584a17.669 17.669 0 0 1 7.602 7.068Z"/>
      <path fill="#3F3D56" d="M60.164 75.55c.03.048.041.105.03.16a.227.227 0 0 1-.264.183l-.986-.188-16.76-3.17-47.007-8.895a1.14 1.14 0 0 0-1.284.744l-21.102 61.114-.191.55a.236.236 0 0 1-.122.134.235.235 0 0 1-.166.009.246.246 0 0 1-.077-.044.23.23 0 0 1-.065-.244l.026-.077 21.268-61.59a1.6 1.6 0 0 1 1.798-1.043l47.022 8.897 17.729 3.356a.23.23 0 0 1 .151.104Z"/>
      <path fill="#fff" d="m39.636 95.133-1.338-1.123-4.615-3.88-9.94-8.354-11.109-9.338-20.038-16.843a1.932 1.932 0 0 0-2.717.237l-35.37 42.016a1.931 1.931 0 0 0 .233 2.716l28.408 23.877.485.409 14.52-1.435 4.08-.404.663-.065 17.28-1.707.419-.499 7.107-8.441 10.72-12.733 1.444-1.716a1.932 1.932 0 0 0-.233-2.717Z"/>
      <path fill="#fff" d="M6.354 80.799a2.84 2.84 0 0 0-3.998.347l-13.994 16.627-6.758 8.028a2.839 2.839 0 0 0-.35 3.132 2.826 2.826 0 0 0 1.66 1.396 2.828 2.828 0 0 0 2.164-.188 2.85 2.85 0 0 0 .865-.693l5.433-6.454 15.322-18.2a2.84 2.84 0 0 0-.344-3.995Zm8.071 6.783a2.84 2.84 0 0 0-3.998.348l-2.37 2.816-14.089 16.736-4.294 5.1a2.838 2.838 0 0 0 .343 3.993 2.837 2.837 0 0 0 3.996-.344l2.97-3.528 17.785-21.127c.04-.048.077-.098.114-.148a2.835 2.835 0 0 0-.457-3.846Zm8.158 6.855a2.837 2.837 0 0 0-3.996.346l-6.65 7.899-5.146 6.116-7.156 8.498-1.803 2.143a2.843 2.843 0 0 0-.077 3.557c.118.153.252.292.398.417l4.082-.403.414-.494.004-.002 12.983-15.423 7.29-8.659a2.838 2.838 0 0 0-.343-3.995Z"/>
      <path fill="#6C63FF" d="m32.702 60.852-47.57 27.465a1.932 1.932 0 0 0-.707 2.633l18.472 31.996 17.28-1.707 2.435-.241 3.846-.38a1.588 1.588 0 0 0 1.136-.656l2.252-3.14 7.047-9.828 6.568-9.162 7.102-9.901-15.227-26.374a1.927 1.927 0 0 0-2.634-.705Z"/>
      <path fill="#fff" d="M35.796 88.911 7.883 105.027a2.834 2.834 0 0 0-1.092 3.774 2.834 2.834 0 0 0 1.774 1.417c.726.194 1.5.092 2.152-.283L38.63 93.82a2.84 2.84 0 0 0 1.04-3.873 2.832 2.832 0 0 0-3.874-1.036Zm7.201 8.796a2.819 2.819 0 0 0-1.928.333l-27.913 16.116a2.837 2.837 0 0 0-1.04 3.872 2.837 2.837 0 0 0 3.874 1.036l20.905-12.069 6.568-9.162a2.856 2.856 0 0 0-.466-.126ZM22.613 121l3.846-.38a1.589 1.589 0 0 0 1.136-.656l2.252-3.14L22.613 121Zm.897-38.951a2.836 2.836 0 0 0-3.238-.28L9.461 88.011a2.841 2.841 0 0 0-1.04 3.873 2.837 2.837 0 0 0 3.874 1.036l10.811-6.242a2.84 2.84 0 0 0 1.409-2.21 2.831 2.831 0 0 0-1.004-2.42Z"/>
      <path fill="#3F3D56" d="m35.94 107.544-7.047 9.828-1.668 2.327a1.13 1.13 0 0 1-.81.467l-2.85.281-.953.551 3.846-.38a1.604 1.604 0 0 0 1.136-.656l2.252-3.141 7.048-9.828-.954.551Zm0 0-7.047 9.828-1.668 2.327a1.13 1.13 0 0 1-.81.467l-2.85.281-.953.551 3.846-.38a1.604 1.604 0 0 0 1.136-.656l2.252-3.141 7.048-9.828-.954.551Zm0 0-7.047 9.828-1.668 2.327a1.13 1.13 0 0 1-.81.467l-2.85.281-.953.551 3.846-.38a1.604 1.604 0 0 0 1.136-.656l2.252-3.141 7.048-9.828-.954.551Zm24.225-31.995a1.581 1.581 0 0 0-1.718.607l-15.452 21.55-7.055 9.838-7.047 9.828-1.668 2.327a1.13 1.13 0 0 1-.81.467l-2.85.281-2.968.293-17.943 1.775H2.65l-4.893.482-14.606 1.444-10.056.994a1.37 1.37 0 0 0-.303.062c-.22.063-.423.175-.594.327a1.593 1.593 0 0 0-.325 1.984L.339 177.115a1.591 1.591 0 0 0 2.17.58l86.49-49.935a1.592 1.592 0 0 0 .582-2.169L61.114 76.284a1.58 1.58 0 0 0-.949-.735Zm29.023 50.269a1.133 1.133 0 0 1-.416 1.549l-86.49 49.935a1.132 1.132 0 0 1-1.55-.414l-28.467-49.307a1.132 1.132 0 0 1 .416-1.549c.14-.081.295-.13.456-.146l10.498-1.037 14.52-1.435 4.08-.403.663-.066 17.28-1.706 2.434-.241 3.846-.38a1.604 1.604 0 0 0 1.136-.656l2.252-3.141 7.048-9.828 6.567-9.161 15.356-21.413a1.137 1.137 0 0 1 1.04-.468.28.28 0 0 1 .065.01 1.124 1.124 0 0 1 .799.55l28.467 49.307ZM35.94 107.544l-7.047 9.828-1.668 2.327a1.13 1.13 0 0 1-.81.467l-2.85.281-.953.551 3.846-.38a1.604 1.604 0 0 0 1.136-.656l2.252-3.141 7.048-9.828-.954.551Zm0 0-7.047 9.828-1.668 2.327a1.13 1.13 0 0 1-.81.467l-2.85.281-.953.551 3.846-.38a1.604 1.604 0 0 0 1.136-.656l2.252-3.141 7.048-9.828-.954.551ZM2.236 123.011l.662-.066-.248-.428-.414.494Zm33.704-15.467-7.047 9.828-1.668 2.327a1.13 1.13 0 0 1-.81.467l-2.85.281-.953.551 3.846-.38a1.604 1.604 0 0 0 1.136-.656l2.252-3.141 7.048-9.828-.954.551Z"/>
      <path fill="#fff" d="M431.693 285.513a17.672 17.672 0 0 1 10.235 7.861 17.715 17.715 0 0 1 2.17 12.732c-.031.147-.062.297-.098.445l-16.125-4.658a1.123 1.123 0 0 0-.956.159.275.275 0 0 0-.053.036 1.137 1.137 0 0 0-.426 1.059l-.449.066a1.58 1.58 0 0 1 .045-.67l-14.276 9.334a17.71 17.71 0 0 1-2.628-10.498 17.726 17.726 0 0 1 3.688-9.715 17.693 17.693 0 0 1 8.495-5.974 17.67 17.67 0 0 1 10.378-.177Z"/>
      <path fill="#3F3D56" d="M442.115 237.961a.223.223 0 0 1 .133.095.227.227 0 0 1-.065.315l-.84.548-14.276 9.334-40.044 26.178a1.142 1.142 0 0 0-.41 1.427l27.161 58.673.244.529a.23.23 0 0 1-.109.302.213.213 0 0 1-.085.021.225.225 0 0 1-.216-.129l-.035-.074-27.371-59.131a1.601 1.601 0 0 1 .573-1.999l40.056-26.186 15.103-9.872a.224.224 0 0 1 .181-.031Z"/>
      <path fill="#fff" d="m440.897 266.306-1.743.118-6.015.403-12.955.87-14.48.972-26.117 1.753a1.934 1.934 0 0 0-1.795 2.055l3.638 54.801a1.928 1.928 0 0 0 2.051 1.795l37.027-2.486.632-.042 9.469-11.1 2.662-3.12.432-.506 11.27-13.209-.044-.651-.73-11.01-1.102-16.608-.149-2.238a1.926 1.926 0 0 0-2.051-1.797Z"/>
      <path fill="#fff" d="M406.972 279.046a2.844 2.844 0 0 0-2.64 3.022l1.442 21.684.694 10.471a2.852 2.852 0 0 0 .96 1.948 2.84 2.84 0 0 0 3.124.407 2.844 2.844 0 0 0 1.572-2.734l-.559-8.419-1.575-23.738a2.838 2.838 0 0 0-3.018-2.641Zm10.523-.707a2.84 2.84 0 0 0-2.641 3.022l.244 3.673 1.45 21.829.44 6.652a2.834 2.834 0 1 0 5.658-.378l-.307-4.601-1.829-27.557a2.83 2.83 0 0 0-3.015-2.64Zm10.633-.713a2.839 2.839 0 0 0-2.64 3.02l.684 10.303.531 7.975.734 11.085.187 2.794a2.845 2.845 0 0 0 2.411 2.618c.19.028.383.036.576.024l2.661-3.12-.043-.643.001-.004-1.335-20.116-.75-11.294a2.835 2.835 0 0 0-3.017-2.642Zm-34.41 12.205a2.843 2.843 0 0 0-2.64 3.022l.825 12.453a2.836 2.836 0 0 0 5.658-.379l-.262-3.941-.174-2.609-.391-5.906a2.833 2.833 0 0 0-3.016-2.64Z"/>
      <path fill="#6C63FF" d="m412.133 246.406-15.242 52.772a1.923 1.923 0 0 0 .405 1.808c.241.277.558.479.911.58l35.494 10.252 11.27-13.21 1.588-1.861 2.508-2.94a1.593 1.593 0 0 0 .364-1.26l-.554-3.825-1.735-11.969-1.617-11.155-1.747-12.06-29.258-8.451a1.927 1.927 0 0 0-2.387 1.319Z"/>
      <path fill="#fff" d="m433.817 264.485-8.944 30.965a2.84 2.84 0 0 0 1.936 3.512 2.836 2.836 0 0 0 3.51-1.939l8.943-30.966a2.836 2.836 0 0 0-1.935-3.512 2.835 2.835 0 0 0-3.51 1.94Zm11.284 1.345c-.562.37-.973.93-1.159 1.577l-8.944 30.965a2.839 2.839 0 0 0 1.936 3.512 2.839 2.839 0 0 0 3.51-1.939l6.698-23.192-1.618-11.155a2.848 2.848 0 0 0-.423.232Zm1.458 30.92 2.508-2.94a1.591 1.591 0 0 0 .364-1.26l-.555-3.825-2.317 8.025Zm-26.35-28.697a2.842 2.842 0 0 0-2.528 2.044l-3.464 11.994a2.832 2.832 0 0 0 .009 1.601 2.833 2.833 0 0 0 1.926 1.911 2.836 2.836 0 0 0 3.51-1.94l3.464-11.993a2.839 2.839 0 0 0-1.589-3.387 2.829 2.829 0 0 0-1.328-.23Z"/>
      <path fill="#3F3D56" d="m446.836 277.81 1.735 11.969.411 2.833a1.146 1.146 0 0 1-.259.899l-1.859 2.178-.305 1.057 2.508-2.94a1.592 1.592 0 0 0 .364-1.26l-.555-3.824-1.734-11.969-.306 1.057Zm0 0 1.735 11.969.411 2.833a1.146 1.146 0 0 1-.259.899l-1.859 2.178-.305 1.057 2.508-2.94a1.592 1.592 0 0 0 .364-1.26l-.555-3.824-1.734-11.969-.306 1.057Zm0 0 1.735 11.969.411 2.833a1.146 1.146 0 0 1-.259.899l-1.859 2.178-.305 1.057 2.508-2.94a1.592 1.592 0 0 0 .364-1.26l-.555-3.824-1.734-11.969-.306 1.057Zm-4.722-39.852a1.584 1.584 0 0 0-.817 1.628l3.804 26.243 1.735 11.981 1.735 11.969.411 2.833a1.146 1.146 0 0 1-.259.899l-1.859 2.178-1.937 2.268-11.7 13.719-.003.003-3.192 3.74-9.526 11.166-6.558 7.689a1.334 1.334 0 0 0-.175.254c-.115.198-.184.42-.202.648a1.595 1.595 0 0 0 1.141 1.655l54.699 15.799a1.592 1.592 0 0 0 1.966-1.086l27.713-95.948a1.59 1.59 0 0 0-1.084-1.967l-54.699-15.799a1.58 1.58 0 0 0-1.193.128Zm55.766 16.107a1.134 1.134 0 0 1 .774 1.405l-27.713 95.948a1.138 1.138 0 0 1-1.404.776l-54.699-15.799a1.126 1.126 0 0 1-.77-.764 1.165 1.165 0 0 1-.047-.394.92.92 0 0 1 .015-.116 1.136 1.136 0 0 1 .256-.552l6.846-8.025 9.469-11.101 2.662-3.12.432-.506 11.27-13.209 1.588-1.862 2.508-2.94a1.592 1.592 0 0 0 .364-1.26l-.555-3.824-1.734-11.969-1.618-11.156-3.778-26.078a1.136 1.136 0 0 1 .426-1.058 1.118 1.118 0 0 1 1.009-.195l54.699 15.799Zm-51.044 23.745 1.735 11.969.411 2.833a1.146 1.146 0 0 1-.259.899l-1.859 2.178-.305 1.057 2.508-2.94a1.592 1.592 0 0 0 .364-1.26l-.555-3.824-1.734-11.969-.306 1.057Zm0 0 1.735 11.969.411 2.833a1.146 1.146 0 0 1-.259.899l-1.859 2.178-.305 1.057 2.508-2.94a1.592 1.592 0 0 0 .364-1.26l-.555-3.824-1.734-11.969-.306 1.057Zm-13.567 34.513.432-.506-.475-.137.043.643Zm13.567-34.513 1.735 11.969.411 2.833a1.146 1.146 0 0 1-.259.899l-1.859 2.178-.305 1.057 2.508-2.94a1.592 1.592 0 0 0 .364-1.26l-.555-3.824-1.734-11.969-.306 1.057Z"/>
      <path fill="#fff" d="M121.693 826.513a17.672 17.672 0 0 1 10.235 7.861 17.715 17.715 0 0 1 2.17 12.732c-.031.147-.062.297-.098.445l-16.125-4.658a1.123 1.123 0 0 0-.956.159.275.275 0 0 0-.053.036 1.137 1.137 0 0 0-.426 1.059l-.449.066a1.58 1.58 0 0 1 .045-.67l-14.276 9.334a17.712 17.712 0 0 1-2.628-10.498 17.726 17.726 0 0 1 3.688-9.715 17.693 17.693 0 0 1 8.495-5.974 17.67 17.67 0 0 1 10.378-.177Z"/>
      <path fill="#3F3D56" d="M132.115 778.961a.223.223 0 0 1 .133.095.227.227 0 0 1-.065.315l-.84.548-14.276 9.334-40.044 26.178a1.14 1.14 0 0 0-.41 1.427l27.161 58.673.244.529a.23.23 0 0 1-.109.302.213.213 0 0 1-.085.021.225.225 0 0 1-.216-.129l-.035-.074-27.371-59.131a1.601 1.601 0 0 1 .573-1.999l40.056-26.186 15.103-9.872a.224.224 0 0 1 .181-.031Z"/>
      <path fill="#fff" d="m130.897 807.306-1.743.118-6.015.403-12.955.87-14.48.972-26.117 1.753a1.935 1.935 0 0 0-1.795 2.055l3.638 54.801a1.929 1.929 0 0 0 2.051 1.795l37.027-2.486.632-.042 9.469-11.1 2.662-3.12.432-.506 11.27-13.209-.044-.651-.73-11.01-1.102-16.608-.149-2.238a1.926 1.926 0 0 0-2.051-1.797Z"/>
      <path fill="#fff" d="M96.972 820.046a2.844 2.844 0 0 0-2.64 3.022l1.442 21.684.694 10.471a2.844 2.844 0 0 0 .96 1.948 2.83 2.83 0 0 0 4.001-.269 2.844 2.844 0 0 0 .695-2.058l-.559-8.419-1.575-23.738a2.84 2.84 0 0 0-3.018-2.641Zm10.523-.707a2.84 2.84 0 0 0-2.641 3.022l.244 3.673 1.45 21.829.44 6.652a2.834 2.834 0 1 0 5.658-.378l-.307-4.601-1.829-27.557a2.83 2.83 0 0 0-3.015-2.64Zm10.633-.713a2.839 2.839 0 0 0-2.64 3.02l.684 10.303.531 7.975.734 11.085.187 2.794a2.845 2.845 0 0 0 2.411 2.618c.19.028.383.036.576.024l2.661-3.12-.043-.643.001-.004-1.335-20.116-.75-11.294a2.835 2.835 0 0 0-3.017-2.642Zm-34.41 12.205a2.844 2.844 0 0 0-2.64 3.022l.825 12.453a2.836 2.836 0 0 0 5.657-.379l-.26-3.941-.174-2.609-.392-5.906a2.831 2.831 0 0 0-3.015-2.64Z"/>
      <path fill="#6C63FF" d="m102.133 787.406-15.242 52.772a1.93 1.93 0 0 0 1.316 2.388l35.494 10.252 11.27-13.21 1.588-1.861 2.508-2.94a1.593 1.593 0 0 0 .364-1.26l-.554-3.825-1.735-11.969-1.617-11.155-1.747-12.06-29.258-8.451a1.927 1.927 0 0 0-2.387 1.319Z"/>
      <path fill="#fff" d="m123.817 805.485-8.944 30.965a2.84 2.84 0 0 0 1.936 3.512 2.836 2.836 0 0 0 3.51-1.939l8.943-30.966a2.836 2.836 0 0 0-1.935-3.512 2.835 2.835 0 0 0-3.51 1.94Zm11.284 1.345c-.562.37-.973.93-1.159 1.577l-8.944 30.965a2.839 2.839 0 0 0 1.936 3.512 2.839 2.839 0 0 0 3.51-1.939l6.698-23.192-1.618-11.155a2.848 2.848 0 0 0-.423.232Zm1.458 30.92 2.508-2.94a1.591 1.591 0 0 0 .364-1.26l-.555-3.825-2.317 8.025Zm-26.35-28.697a2.842 2.842 0 0 0-2.528 2.044l-3.464 11.994a2.832 2.832 0 0 0 .009 1.601 2.833 2.833 0 0 0 1.926 1.911 2.836 2.836 0 0 0 3.51-1.94l3.464-11.993a2.839 2.839 0 0 0-1.589-3.387 2.829 2.829 0 0 0-1.328-.23Z"/>
      <path fill="#3F3D56" d="m136.836 818.81 1.735 11.969.411 2.833a1.146 1.146 0 0 1-.259.899l-1.859 2.178-.305 1.057 2.508-2.94a1.592 1.592 0 0 0 .364-1.26l-.555-3.824-1.734-11.969-.306 1.057Zm0 0 1.735 11.969.411 2.833a1.146 1.146 0 0 1-.259.899l-1.859 2.178-.305 1.057 2.508-2.94a1.592 1.592 0 0 0 .364-1.26l-.555-3.824-1.734-11.969-.306 1.057Zm0 0 1.735 11.969.411 2.833a1.146 1.146 0 0 1-.259.899l-1.859 2.178-.305 1.057 2.508-2.94a1.592 1.592 0 0 0 .364-1.26l-.555-3.824-1.734-11.969-.306 1.057Zm-4.722-39.852a1.584 1.584 0 0 0-.817 1.628l3.804 26.243 1.735 11.981 1.735 11.969.411 2.833a1.146 1.146 0 0 1-.259.899l-1.859 2.178-1.937 2.268-11.7 13.719-.003.003-3.192 3.74-9.526 11.166-6.558 7.689a1.334 1.334 0 0 0-.175.254c-.115.198-.184.42-.202.648a1.595 1.595 0 0 0 1.141 1.655l54.699 15.799a1.592 1.592 0 0 0 1.966-1.086l27.713-95.948a1.59 1.59 0 0 0-1.084-1.967l-54.699-15.799a1.58 1.58 0 0 0-1.193.128Zm55.766 16.107a1.134 1.134 0 0 1 .774 1.405l-27.713 95.948a1.138 1.138 0 0 1-1.404.776l-54.699-15.799a1.126 1.126 0 0 1-.77-.764 1.165 1.165 0 0 1-.047-.394.92.92 0 0 1 .015-.116 1.136 1.136 0 0 1 .256-.552l6.846-8.025 9.469-11.101 2.662-3.12.432-.506 11.27-13.209 1.588-1.862 2.508-2.94a1.592 1.592 0 0 0 .364-1.26l-.555-3.824-1.734-11.969-1.618-11.156-3.778-26.078a1.136 1.136 0 0 1 .426-1.058 1.118 1.118 0 0 1 1.009-.195l54.699 15.799Zm-51.044 23.745 1.735 11.969.411 2.833a1.146 1.146 0 0 1-.259.899l-1.859 2.178-.305 1.057 2.508-2.94a1.592 1.592 0 0 0 .364-1.26l-.555-3.824-1.734-11.969-.306 1.057Zm0 0 1.735 11.969.411 2.833a1.146 1.146 0 0 1-.259.899l-1.859 2.178-.305 1.057 2.508-2.94a1.592 1.592 0 0 0 .364-1.26l-.555-3.824-1.734-11.969-.306 1.057Zm-13.567 34.513.432-.506-.475-.137.043.643Zm13.567-34.513 1.735 11.969.411 2.833a1.146 1.146 0 0 1-.259.899l-1.859 2.178-.305 1.057 2.508-2.94a1.592 1.592 0 0 0 .364-1.26l-.555-3.824-1.734-11.969-.306 1.057Z"/>
      <path fill="#fff" d="M1649.31 630.876a12.698 12.698 0 0 1 8.91 14.783c-.03.106-.05.213-.07.319l-11.58-3.343a.77.77 0 0 0-.35-.021.853.853 0 0 0-.34.135.232.232 0 0 0-.03.026.109.109 0 0 0-.04.029.867.867 0 0 0-.23.331c-.04.127-.06.265-.04.4l-.32.047c-.03-.16-.01-.324.03-.481l-10.25 6.701c-.06-.092-.11-.186-.17-.28a12.711 12.711 0 0 1-1.71-7.257 12.665 12.665 0 0 1 2.64-6.973 12.738 12.738 0 0 1 6.1-4.289 12.69 12.69 0 0 1 7.45-.127Z"/>
      <path fill="#3F3D56" d="M1656.79 596.738c.04.009.08.034.1.068.02.036.03.08.02.122a.154.154 0 0 1-.07.104l-.6.394-10.25 6.7-28.74 18.792a.78.78 0 0 0-.34.458.79.79 0 0 0 .04.566l19.5 42.12.17.379c.01.015.01.031.02.047 0 .028 0 .057-.01.083a.226.226 0 0 1-.08.087.173.173 0 0 1-.07.015.157.157 0 0 1-.06-.009.1.1 0 0 1-.05-.033.123.123 0 0 1-.04-.051l-.03-.053-19.64-42.448c-.12-.248-.14-.53-.06-.793.07-.263.24-.49.47-.641l28.75-18.799 10.84-7.087a.17.17 0 0 1 .07-.024.122.122 0 0 1 .06.003Z"/>
      <path fill="#fff" d="m1655.92 617.086-1.25.085-4.32.289-9.3.625-10.39.698-18.75 1.259a1.38 1.38 0 0 0-.95.471c-.24.277-.36.637-.34 1.004l2.61 39.34c.03.366.19.707.47.949.28.241.64.363 1 .339l26.58-1.785.46-.03 6.79-7.968 1.91-2.24.31-.363 8.1-9.483-.04-.467-.52-7.903-.79-11.923-.11-1.606a1.352 1.352 0 0 0-.47-.95 1.367 1.367 0 0 0-1-.341Z"/>
      <path fill="#fff" d="M1631.57 626.235c-.54.037-1.04.286-1.4.693-.35.406-.53.937-.5 1.476l1.04 15.567.5 7.516c.01.267.08.528.2.768a2.092 2.092 0 0 0 1.17 1.027 2.05 2.05 0 0 0 1.56-.104c.24-.119.45-.284.63-.486.17-.201.31-.435.39-.689.09-.253.12-.521.11-.788l-.4-6.044-1.13-17.04a2.05 2.05 0 0 0-.7-1.397c-.4-.355-.93-.535-1.47-.499Zm7.55-.509c-.54.037-1.04.286-1.4.693-.35.406-.53.937-.5 1.476l.18 2.637 1.04 15.67.32 4.776c.03.538.28 1.041.69 1.396.4.355.93.534 1.47.498a2.05 2.05 0 0 0 1.4-.69c.35-.407.53-.938.5-1.476l-.22-3.303-1.32-19.782c0-.044 0-.089-.01-.133a2.043 2.043 0 0 0-.73-1.306c-.4-.328-.91-.491-1.42-.456Zm7.63-.513a2.01 2.01 0 0 0-1.39.692 2 2 0 0 0-.5 1.476l.49 7.396.38 5.725.53 7.957.13 2.006c.03.464.22.903.54 1.245a2.01 2.01 0 0 0 1.6.652l1.92-2.24-.04-.462.01-.003-.96-14.44-.54-8.108a2.078 2.078 0 0 0-.69-1.397 2.046 2.046 0 0 0-1.48-.499Zm-24.7 8.761c-.54.037-1.04.287-1.4.693a2.09 2.09 0 0 0-.5 1.477l.6 8.939c.03.539.28 1.041.69 1.397.4.355.93.534 1.47.498a2.048 2.048 0 0 0 1.4-.691c.35-.406.53-.937.5-1.475l-.19-2.829-.12-1.873-.29-4.24a1.994 1.994 0 0 0-.69-1.396c-.4-.355-.93-.535-1.47-.5Z"/>
      <path fill="#6C63FF" d="m1635.27 602.802-10.94 37.883c-.06.224-.07.46-.02.687.05.226.16.437.31.611.17.199.4.344.65.416l25.48 7.36 8.09-9.483 1.14-1.336 1.81-2.11c.1-.124.18-.269.22-.425.05-.156.06-.319.04-.48l-.4-2.746-1.25-8.592-1.16-8.008-1.25-8.657-21.01-6.066a1.379 1.379 0 0 0-1.71.946Z"/>
      <path fill="#fff" d="m1650.84 615.779-6.42 22.229c-.15.505-.09 1.048.15 1.513.25.465.66.818 1.16.983.03.01.05.018.08.025.51.149 1.07.086 1.54-.175.48-.261.83-.698.98-1.217l6.42-22.229c.15-.519.08-1.076-.18-1.549a2.014 2.014 0 0 0-1.21-.972 2.036 2.036 0 0 0-2.52 1.392Zm8.1.966c-.4.266-.7.667-.83 1.132l-6.42 22.229a2.04 2.04 0 0 0 .17 1.549 2.034 2.034 0 0 0 2.76.798c.48-.261.83-.699.98-1.218l4.8-16.648-1.16-8.008c-.1.046-.21.102-.3.166Zm1.04 22.196 1.8-2.11c.11-.124.19-.268.23-.424.05-.156.06-.32.04-.481l-.4-2.745-1.67 5.76Zm-18.91-20.6c-.42.03-.82.186-1.14.448-.33.263-.56.618-.68 1.02l-2.49 8.609c-.1.376-.1.775.01 1.15.11.375.33.709.63.963.22.189.48.329.75.409.52.148 1.08.086 1.55-.175s.82-.699.97-1.218l2.49-8.609a2.042 2.042 0 0 0-.37-1.845 2.04 2.04 0 0 0-1.72-.752Z"/>
      <path fill="#3F3D56" d="m1660.18 625.346 1.25 8.592.29 2.034a.79.79 0 0 1-.02.342.866.866 0 0 1-.16.303l-1.34 1.563-.22.759 1.8-2.11c.11-.124.19-.268.23-.425.05-.156.06-.319.04-.48l-.4-2.745-1.25-8.592-.22.759Zm0 0 1.25 8.592.29 2.034a.79.79 0 0 1-.02.342.866.866 0 0 1-.16.303l-1.34 1.563-.22.759 1.8-2.11c.11-.124.19-.268.23-.425.05-.156.06-.319.04-.48l-.4-2.745-1.25-8.592-.22.759Zm0 0 1.25 8.592.29 2.034a.79.79 0 0 1-.02.342.866.866 0 0 1-.16.303l-1.34 1.563-.22.759 1.8-2.11c.11-.124.19-.268.23-.425.05-.156.06-.319.04-.48l-.4-2.745-1.25-8.592-.22.759Zm-3.39-28.609c-.07.041-.14.09-.21.145-.14.125-.25.285-.32.464a1.18 1.18 0 0 0-.05.56l2.73 18.839 1.24 8.601 1.25 8.592.29 2.034a.79.79 0 0 1-.02.342.866.866 0 0 1-.16.303l-1.34 1.563-1.39 1.629-8.4 9.848v.002l-2.29 2.685-6.84 8.015-4.71 5.52a.736.736 0 0 0-.12.182 1.102 1.102 0 0 0 .05 1.205c.15.217.37.375.62.449l39.27 11.341a1.15 1.15 0 0 0 1.41-.78l19.89-68.877c.09-.291.05-.603-.09-.867a1.15 1.15 0 0 0-.68-.545l-39.27-11.342c-.29-.083-.59-.05-.86.092Zm40.04 11.563c.2.06.38.2.48.389.11.189.13.412.07.619l-19.89 68.878a.81.81 0 0 1-.39.487.812.812 0 0 1-.62.07l-39.27-11.342a.748.748 0 0 1-.34-.203.796.796 0 0 1-.21-.805.719.719 0 0 1 .16-.302l4.91-5.761 6.8-7.969 1.91-2.24.31-.363 8.09-9.483 1.14-1.336 1.8-2.11c.11-.124.19-.268.23-.425.05-.156.06-.319.04-.48l-.4-2.745-1.25-8.592-1.16-8.009-2.71-18.72a.779.779 0 0 1 .04-.4.883.883 0 0 1 .26-.36c.02-.01.03-.019.04-.026a.81.81 0 0 1 .69-.114l39.27 11.342Zm-36.65 17.046 1.25 8.592.29 2.034a.79.79 0 0 1-.02.342.866.866 0 0 1-.16.303l-1.34 1.563-.22.759 1.8-2.11c.11-.124.19-.268.23-.425.05-.156.06-.319.04-.48l-.4-2.745-1.25-8.592-.22.759Zm0 0 1.25 8.592.29 2.034a.79.79 0 0 1-.02.342.866.866 0 0 1-.16.303l-1.34 1.563-.22.759 1.8-2.11c.11-.124.19-.268.23-.425.05-.156.06-.319.04-.48l-.4-2.745-1.25-8.592-.22.759Zm-9.74 24.775.31-.363-.34-.098.03.461Zm9.74-24.775 1.25 8.592.29 2.034a.79.79 0 0 1-.02.342.866.866 0 0 1-.16.303l-1.34 1.563-.22.759 1.8-2.11c.11-.124.19-.268.23-.425.05-.156.06-.319.04-.48l-.4-2.745-1.25-8.592-.22.759Z"/>
      <path fill="#fff" d="M1091.31 813.876a12.698 12.698 0 0 1 8.91 14.783c-.03.106-.05.213-.07.319l-11.58-3.343a.77.77 0 0 0-.35-.021.853.853 0 0 0-.34.135.232.232 0 0 0-.03.026.109.109 0 0 0-.04.029.867.867 0 0 0-.23.331c-.04.127-.06.265-.04.4l-.32.047c-.03-.16-.01-.324.03-.481l-10.25 6.701c-.06-.092-.11-.186-.17-.28a12.711 12.711 0 0 1-1.71-7.257 12.665 12.665 0 0 1 2.64-6.973 12.738 12.738 0 0 1 6.1-4.289 12.69 12.69 0 0 1 7.45-.127Z"/>
      <path fill="#3F3D56" d="M1098.79 779.738c.04.009.08.034.1.068.02.036.03.08.02.122a.154.154 0 0 1-.07.104l-.6.394-10.25 6.7-28.74 18.792a.78.78 0 0 0-.34.458.79.79 0 0 0 .04.566l19.5 42.12.17.379c.01.015.01.031.02.047 0 .028 0 .057-.01.083a.226.226 0 0 1-.08.087.173.173 0 0 1-.07.015.157.157 0 0 1-.06-.009.1.1 0 0 1-.05-.033.123.123 0 0 1-.04-.051l-.03-.053-19.64-42.448c-.12-.248-.14-.53-.06-.793.07-.263.24-.49.47-.641l28.75-18.799 10.84-7.087a.17.17 0 0 1 .07-.024.122.122 0 0 1 .06.003Z"/>
      <path fill="#fff" d="m1097.92 800.086-1.25.085-4.32.289-9.3.625-10.39.698-18.75 1.259a1.38 1.38 0 0 0-.95.471c-.24.277-.36.637-.34 1.004l2.61 39.34c.03.366.19.707.47.949.28.241.64.363 1 .339l26.58-1.785.46-.03 6.79-7.968 1.91-2.24.31-.363 8.1-9.483-.04-.467-.52-7.903-.79-11.923-.11-1.606a1.352 1.352 0 0 0-.47-.95 1.367 1.367 0 0 0-1-.341Z"/>
      <path fill="#fff" d="M1073.57 809.235c-.54.037-1.04.286-1.4.693-.35.406-.53.937-.5 1.476l1.04 15.567.5 7.516c.01.267.08.528.2.768a2.092 2.092 0 0 0 1.17 1.027 2.05 2.05 0 0 0 1.56-.104c.24-.119.45-.284.63-.486.17-.201.31-.435.39-.689.09-.253.12-.521.11-.788l-.4-6.044-1.13-17.04a2.05 2.05 0 0 0-.7-1.397c-.4-.355-.93-.535-1.47-.499Zm7.55-.509c-.54.037-1.04.286-1.4.693-.35.406-.53.937-.5 1.476l.18 2.637 1.04 15.67.32 4.776c.03.538.28 1.041.69 1.396.4.355.93.534 1.47.498a2.05 2.05 0 0 0 1.4-.69c.35-.407.53-.938.5-1.476l-.22-3.303-1.32-19.782c0-.044 0-.089-.01-.133a2.043 2.043 0 0 0-.73-1.306c-.4-.328-.91-.491-1.42-.456Zm7.63-.513a2.01 2.01 0 0 0-1.39.692 2 2 0 0 0-.5 1.476l.49 7.396.38 5.725.53 7.957.13 2.006c.03.464.22.903.54 1.245a2.01 2.01 0 0 0 1.6.652l1.92-2.24-.04-.462.01-.003-.96-14.44-.54-8.108a2.078 2.078 0 0 0-.69-1.397 2.046 2.046 0 0 0-1.48-.499Zm-24.7 8.761c-.54.037-1.04.287-1.4.693a2.09 2.09 0 0 0-.5 1.477l.6 8.939c.03.539.28 1.041.69 1.397.4.355.93.534 1.47.498a2.048 2.048 0 0 0 1.4-.691c.35-.406.53-.937.5-1.475l-.19-2.829-.12-1.873-.29-4.24a1.994 1.994 0 0 0-.69-1.396c-.4-.355-.93-.535-1.47-.5Z"/>
      <path fill="#6C63FF" d="m1077.27 785.802-10.94 37.883c-.06.224-.07.46-.02.687.05.226.16.437.31.611.17.199.4.344.65.416l25.48 7.36 8.09-9.483 1.14-1.336 1.81-2.11c.1-.124.18-.269.22-.425.05-.156.06-.319.04-.48l-.4-2.746-1.25-8.592-1.16-8.008-1.25-8.657-21.01-6.066a1.379 1.379 0 0 0-1.71.946Z"/>
      <path fill="#fff" d="m1092.84 798.779-6.42 22.229c-.15.505-.09 1.048.15 1.513.25.465.66.818 1.16.983.03.01.05.018.08.025.51.149 1.07.086 1.54-.175.48-.261.83-.698.98-1.217l6.42-22.229c.15-.519.08-1.076-.18-1.549a2.014 2.014 0 0 0-1.21-.972 2.036 2.036 0 0 0-2.52 1.392Zm8.1.966c-.4.266-.7.667-.83 1.132l-6.42 22.229a2.04 2.04 0 0 0 .17 1.549 2.034 2.034 0 0 0 2.76.798c.48-.261.83-.699.98-1.218l4.8-16.648-1.16-8.008c-.1.046-.21.102-.3.166Zm1.04 22.196 1.8-2.11c.11-.124.19-.268.23-.424.05-.156.06-.32.04-.481l-.4-2.745-1.67 5.76Zm-18.91-20.6c-.42.03-.82.186-1.14.448-.33.263-.56.618-.68 1.02l-2.49 8.609c-.1.376-.1.775.01 1.15.11.375.33.709.63.963.22.189.48.329.75.409.52.148 1.08.086 1.55-.175s.82-.699.97-1.218l2.49-8.609a2.042 2.042 0 0 0-.37-1.845 2.04 2.04 0 0 0-1.72-.752Z"/>
      <path fill="#3F3D56" d="m1102.18 808.346 1.25 8.592.29 2.034a.79.79 0 0 1-.02.342.866.866 0 0 1-.16.303l-1.34 1.563-.22.759 1.8-2.11c.11-.124.19-.268.23-.425.05-.156.06-.319.04-.48l-.4-2.745-1.25-8.592-.22.759Zm0 0 1.25 8.592.29 2.034a.79.79 0 0 1-.02.342.866.866 0 0 1-.16.303l-1.34 1.563-.22.759 1.8-2.11c.11-.124.19-.268.23-.425.05-.156.06-.319.04-.48l-.4-2.745-1.25-8.592-.22.759Zm0 0 1.25 8.592.29 2.034a.79.79 0 0 1-.02.342.866.866 0 0 1-.16.303l-1.34 1.563-.22.759 1.8-2.11c.11-.124.19-.268.23-.425.05-.156.06-.319.04-.48l-.4-2.745-1.25-8.592-.22.759Zm-3.39-28.609c-.07.041-.14.09-.21.145-.14.125-.25.285-.32.464a1.18 1.18 0 0 0-.05.56l2.73 18.839 1.24 8.601 1.25 8.592.29 2.034a.79.79 0 0 1-.02.342.866.866 0 0 1-.16.303l-1.34 1.563-1.39 1.629-8.4 9.848v.002l-2.29 2.685-6.84 8.015-4.71 5.52a.736.736 0 0 0-.12.182 1.102 1.102 0 0 0 .05 1.205c.15.217.37.375.62.449l39.27 11.341a1.15 1.15 0 0 0 1.41-.78l19.89-68.877c.09-.291.05-.603-.09-.867a1.15 1.15 0 0 0-.68-.545l-39.27-11.342c-.29-.083-.59-.05-.86.092Zm40.04 11.563c.2.06.38.2.48.389.11.189.13.412.07.619l-19.89 68.878a.81.81 0 0 1-.39.487.812.812 0 0 1-.62.07l-39.27-11.342a.748.748 0 0 1-.34-.203.796.796 0 0 1-.21-.805.719.719 0 0 1 .16-.302l4.91-5.761 6.8-7.969 1.91-2.24.31-.363 8.09-9.483 1.14-1.336 1.8-2.11c.11-.124.19-.268.23-.425.05-.156.06-.319.04-.48l-.4-2.745-1.25-8.592-1.16-8.009-2.71-18.72a.779.779 0 0 1 .04-.4.883.883 0 0 1 .26-.36c.02-.01.03-.019.04-.026a.81.81 0 0 1 .69-.114l39.27 11.342Zm-36.65 17.046 1.25 8.592.29 2.034a.79.79 0 0 1-.02.342.866.866 0 0 1-.16.303l-1.34 1.563-.22.759 1.8-2.11c.11-.124.19-.268.23-.425.05-.156.06-.319.04-.48l-.4-2.745-1.25-8.592-.22.759Zm0 0 1.25 8.592.29 2.034a.79.79 0 0 1-.02.342.866.866 0 0 1-.16.303l-1.34 1.563-.22.759 1.8-2.11c.11-.124.19-.268.23-.425.05-.156.06-.319.04-.48l-.4-2.745-1.25-8.592-.22.759Zm-9.74 24.775.31-.363-.34-.098.03.461Zm9.74-24.775 1.25 8.592.29 2.034a.79.79 0 0 1-.02.342.866.866 0 0 1-.16.303l-1.34 1.563-.22.759 1.8-2.11c.11-.124.19-.268.23-.425.05-.156.06-.319.04-.48l-.4-2.745-1.25-8.592-.22.759Z"/>
      <path fill="#fff" d="M1369.31 558.876a12.698 12.698 0 0 1 8.91 14.783c-.03.106-.05.213-.07.319l-11.58-3.343a.77.77 0 0 0-.35-.021.853.853 0 0 0-.34.135.232.232 0 0 0-.03.026.109.109 0 0 0-.04.029.867.867 0 0 0-.23.331c-.04.127-.06.265-.04.4l-.32.047c-.03-.16-.01-.324.03-.481l-10.25 6.701c-.06-.092-.11-.186-.17-.28a12.711 12.711 0 0 1-1.71-7.257 12.665 12.665 0 0 1 2.64-6.973 12.738 12.738 0 0 1 6.1-4.289 12.69 12.69 0 0 1 7.45-.127Z"/>
      <path fill="#3F3D56" d="M1376.79 524.738c.04.009.08.034.1.068.02.036.03.08.02.122a.154.154 0 0 1-.07.104l-.6.394-10.25 6.7-28.74 18.792a.78.78 0 0 0-.34.458.79.79 0 0 0 .04.566l19.5 42.12.17.379c.01.015.01.031.02.047 0 .028 0 .057-.01.083a.226.226 0 0 1-.08.087.173.173 0 0 1-.07.015.157.157 0 0 1-.06-.009.1.1 0 0 1-.05-.033.123.123 0 0 1-.04-.051l-.03-.053-19.64-42.448c-.12-.248-.14-.53-.06-.793.07-.263.24-.49.47-.641l28.75-18.799 10.84-7.087a.17.17 0 0 1 .07-.024.122.122 0 0 1 .06.003Z"/>
      <path fill="#fff" d="m1375.92 545.086-1.25.085-4.32.289-9.3.625-10.39.698-18.75 1.259a1.38 1.38 0 0 0-.95.471c-.24.277-.36.637-.34 1.004l2.61 39.34c.03.366.19.707.47.949.28.241.64.363 1 .339l26.58-1.785.46-.03 6.79-7.968 1.91-2.24.31-.363 8.1-9.483-.04-.467-.52-7.903-.79-11.923-.11-1.606a1.352 1.352 0 0 0-.47-.95 1.367 1.367 0 0 0-1-.341Z"/>
      <path fill="#fff" d="M1351.57 554.235c-.54.037-1.04.286-1.4.693-.35.406-.53.937-.5 1.476l1.04 15.567.5 7.516c.01.267.08.528.2.768a2.092 2.092 0 0 0 1.17 1.027 2.05 2.05 0 0 0 1.56-.104c.24-.119.45-.284.63-.486.17-.201.31-.435.39-.689.09-.253.12-.521.11-.788l-.4-6.044-1.13-17.04a2.05 2.05 0 0 0-.7-1.397c-.4-.355-.93-.535-1.47-.499Zm7.55-.509c-.54.037-1.04.286-1.4.693-.35.406-.53.937-.5 1.476l.18 2.637 1.04 15.67.32 4.776c.03.538.28 1.041.69 1.396.4.355.93.534 1.47.498a2.05 2.05 0 0 0 1.4-.69c.35-.407.53-.938.5-1.476l-.22-3.303-1.32-19.782c0-.044 0-.089-.01-.133a2.043 2.043 0 0 0-.73-1.306c-.4-.328-.91-.491-1.42-.456Zm7.63-.513a2.01 2.01 0 0 0-1.39.692 2 2 0 0 0-.5 1.476l.49 7.396.38 5.725.53 7.957.13 2.006c.03.464.22.903.54 1.245a2.01 2.01 0 0 0 1.6.652l1.92-2.24-.04-.462.01-.003-.96-14.44-.54-8.108a2.078 2.078 0 0 0-.69-1.397 2.046 2.046 0 0 0-1.48-.499Zm-24.7 8.761c-.54.037-1.04.287-1.4.693a2.09 2.09 0 0 0-.5 1.477l.6 8.939c.03.539.28 1.041.69 1.397.4.355.93.534 1.47.498a2.048 2.048 0 0 0 1.4-.691c.35-.406.53-.937.5-1.475l-.19-2.829-.12-1.873-.29-4.24a1.994 1.994 0 0 0-.69-1.396c-.4-.355-.93-.535-1.47-.5Z"/>
      <path fill="#6C63FF" d="m1355.27 530.802-10.94 37.883c-.06.224-.07.46-.02.687.05.226.16.437.31.611.17.199.4.344.65.416l25.48 7.36 8.09-9.483 1.14-1.336 1.81-2.11c.1-.124.18-.269.22-.425.05-.156.06-.319.04-.48l-.4-2.746-1.25-8.592-1.16-8.008-1.25-8.657-21.01-6.066a1.379 1.379 0 0 0-1.71.946Z"/>
      <path fill="#fff" d="m1370.84 543.779-6.42 22.229c-.15.505-.09 1.048.15 1.513.25.465.66.818 1.16.983.03.01.05.018.08.025.51.149 1.07.086 1.54-.175.48-.261.83-.698.98-1.217l6.42-22.229c.15-.519.08-1.076-.18-1.549a2.014 2.014 0 0 0-1.21-.972 2.036 2.036 0 0 0-2.52 1.392Zm8.1.966c-.4.266-.7.667-.83 1.132l-6.42 22.229a2.04 2.04 0 0 0 .17 1.549 2.034 2.034 0 0 0 2.76.798c.48-.261.83-.699.98-1.218l4.8-16.648-1.16-8.008c-.1.046-.21.102-.3.166Zm1.04 22.196 1.8-2.11c.11-.124.19-.268.23-.424.05-.156.06-.32.04-.481l-.4-2.745-1.67 5.76Zm-18.91-20.6c-.42.03-.82.186-1.14.448-.33.263-.56.618-.68 1.02l-2.49 8.609c-.1.376-.1.775.01 1.15.11.375.33.709.63.963.22.189.48.329.75.409.52.148 1.08.086 1.55-.175s.82-.699.97-1.218l2.49-8.609a2.042 2.042 0 0 0-.37-1.845 2.04 2.04 0 0 0-1.72-.752Z"/>
      <path fill="#3F3D56" d="m1380.18 553.346 1.25 8.592.29 2.034a.79.79 0 0 1-.02.342.866.866 0 0 1-.16.303l-1.34 1.563-.22.759 1.8-2.11c.11-.124.19-.268.23-.425.05-.156.06-.319.04-.48l-.4-2.745-1.25-8.592-.22.759Zm0 0 1.25 8.592.29 2.034a.79.79 0 0 1-.02.342.866.866 0 0 1-.16.303l-1.34 1.563-.22.759 1.8-2.11c.11-.124.19-.268.23-.425.05-.156.06-.319.04-.48l-.4-2.745-1.25-8.592-.22.759Zm0 0 1.25 8.592.29 2.034a.79.79 0 0 1-.02.342.866.866 0 0 1-.16.303l-1.34 1.563-.22.759 1.8-2.11c.11-.124.19-.268.23-.425.05-.156.06-.319.04-.48l-.4-2.745-1.25-8.592-.22.759Zm-3.39-28.609c-.07.041-.14.09-.21.145-.14.125-.25.285-.32.464a1.18 1.18 0 0 0-.05.56l2.73 18.839 1.24 8.601 1.25 8.592.29 2.034a.79.79 0 0 1-.02.342.866.866 0 0 1-.16.303l-1.34 1.563-1.39 1.629-8.4 9.848v.002l-2.29 2.685-6.84 8.015-4.71 5.52a.736.736 0 0 0-.12.182 1.102 1.102 0 0 0 .05 1.205c.15.217.37.375.62.449l39.27 11.341a1.15 1.15 0 0 0 1.41-.78l19.89-68.877c.09-.291.05-.603-.09-.867a1.15 1.15 0 0 0-.68-.545l-39.27-11.342c-.29-.083-.59-.05-.86.092Zm40.04 11.563c.2.06.38.2.48.389.11.189.13.412.07.619l-19.89 68.878a.81.81 0 0 1-.39.487.812.812 0 0 1-.62.07l-39.27-11.342a.748.748 0 0 1-.34-.203.796.796 0 0 1-.21-.805.719.719 0 0 1 .16-.302l4.91-5.761 6.8-7.969 1.91-2.24.31-.363 8.09-9.483 1.14-1.336 1.8-2.11c.11-.124.19-.268.23-.425.05-.156.06-.319.04-.48l-.4-2.745-1.25-8.592-1.16-8.009-2.71-18.72a.779.779 0 0 1 .04-.4.883.883 0 0 1 .26-.36c.02-.01.03-.019.04-.026a.81.81 0 0 1 .69-.114l39.27 11.342Zm-36.65 17.046 1.25 8.592.29 2.034a.79.79 0 0 1-.02.342.866.866 0 0 1-.16.303l-1.34 1.563-.22.759 1.8-2.11c.11-.124.19-.268.23-.425.05-.156.06-.319.04-.48l-.4-2.745-1.25-8.592-.22.759Zm0 0 1.25 8.592.29 2.034a.79.79 0 0 1-.02.342.866.866 0 0 1-.16.303l-1.34 1.563-.22.759 1.8-2.11c.11-.124.19-.268.23-.425.05-.156.06-.319.04-.48l-.4-2.745-1.25-8.592-.22.759Zm-9.74 24.775.31-.363-.34-.098.03.461Zm9.74-24.775 1.25 8.592.29 2.034a.79.79 0 0 1-.02.342.866.866 0 0 1-.16.303l-1.34 1.563-.22.759 1.8-2.11c.11-.124.19-.268.23-.425.05-.156.06-.319.04-.48l-.4-2.745-1.25-8.592-.22.759Z"/>
      <path fill="#fff" d="M365.946 5.256a17.666 17.666 0 0 1 4.911-11.935 17.713 17.713 0 0 1 12.176-5.445l-.279 16.781a1.12 1.12 0 0 0 .403.882c.015.016.032.03.05.042a1.14 1.14 0 0 0 1.132.134l.182.416c-.208.09-.432.135-.658.132L396.605 17.6c-.102.111-.208.22-.314.33a17.727 17.727 0 0 1-19.473 3.933 17.707 17.707 0 0 1-7.988-6.638 17.667 17.667 0 0 1-2.884-9.97Z"/>
      <path fill="#3F3D56" d="M317.32 7.632a.227.227 0 0 1 .378-.173l.749.667 12.742 11.338 35.739 31.805a1.14 1.14 0 0 0 1.485.023l49.528-41.56.447-.373a.229.229 0 0 1 .174-.051.235.235 0 0 1 .146.077.228.228 0 0 1 .029.25.228.228 0 0 1-.055.07l-.062.053-49.916 41.88a1.599 1.599 0 0 1-2.079-.03l-35.75-31.813-13.478-11.997a.252.252 0 0 1-.056-.075.24.24 0 0 1-.021-.091Z"/>
      <path fill="#fff" d="m345 1.396.569 1.65 1.962 5.702 4.228 12.276 4.725 13.722 8.522 24.75a1.936 1.936 0 0 0 2.453 1.195l51.943-17.842a1.928 1.928 0 0 0 1.196-2.45L408.515 5.312l-.205-.6-13.19-6.237-3.708-1.753-.601-.284-15.697-7.424-.617.212-10.436 3.584-15.742 5.407-2.121.73A1.933 1.933 0 0 0 345 1.395Z"/>
      <path fill="#fff" d="M366.169 30.805a2.842 2.842 0 0 0 3.608 1.758l20.552-7.062 9.925-3.41a2.841 2.841 0 0 0 1.629-1.435 2.826 2.826 0 0 0-.424-3.122 2.828 2.828 0 0 0-1.953-.95 2.838 2.838 0 0 0-1.097.149l-7.979 2.74-22.501 7.728a2.84 2.84 0 0 0-1.76 3.604Zm-3.433-9.969a2.842 2.842 0 0 0 3.607 1.758l3.482-1.196 20.69-7.107 6.306-2.165a2.837 2.837 0 0 0 1.758-3.602 2.842 2.842 0 0 0-3.604-1.76l-4.36 1.499-26.119 8.972a2.837 2.837 0 0 0-1.666 1.521 2.833 2.833 0 0 0-.094 2.08Zm-3.471-10.074a2.84 2.84 0 0 0 3.606 1.758l9.765-3.355 7.559-2.598 10.507-3.607 2.648-.911a2.84 2.84 0 0 0 1.896-3.011 2.778 2.778 0 0 0-.127-.563l-3.707-1.753-.61.21h-.005l-19.066 6.55-10.705 3.676a2.838 2.838 0 0 0-1.761 3.604Zm20.779 30.018a2.844 2.844 0 0 0 3.607 1.758l11.804-4.052a2.837 2.837 0 0 0 .322-5.226 2.842 2.842 0 0 0-2.167-.136l-3.735 1.283-2.473.85-5.598 1.923a2.833 2.833 0 0 0-1.76 3.601Z"/>
      <path fill="#6C63FF" d="m333.314 34.36 54.921.913a1.936 1.936 0 0 0 1.64-.864c.204-.306.316-.664.321-1.031l.613-36.94-15.697-7.424-2.212-1.046-3.493-1.652a1.594 1.594 0 0 0-1.312-.022l-3.546 1.536-11.099 4.804-10.344 4.479-11.184 4.839-.505 30.45a1.927 1.927 0 0 0 1.897 1.959Z"/>
      <path fill="#fff" d="m345.093 8.707 32.226.535a2.837 2.837 0 0 0 2.884-2.786 2.843 2.843 0 0 0-2.79-2.88l-32.226-.536a2.839 2.839 0 0 0-2.884 2.786 2.837 2.837 0 0 0 2.79 2.88Zm7.005 12.2a2.839 2.839 0 0 0 2.634 1.905l12.482.207a2.842 2.842 0 0 0 2.884-2.786 2.838 2.838 0 0 0-2.79-2.88l-12.482-.208a2.84 2.84 0 0 0-2.345 1.171 2.833 2.833 0 0 0-.383 2.59Z"/>
      <path fill="#3F3D56" d="m354.553-7.346 11.099-4.804 2.627-1.138a1.14 1.14 0 0 1 .935.015l2.588 1.225 1.101.018-3.493-1.652a1.597 1.597 0 0 0-1.312-.022l-3.547 1.535-11.098 4.804 1.1.019Zm0 0 11.099-4.804 2.627-1.138a1.14 1.14 0 0 1 .935.015l2.588 1.225 1.101.018-3.493-1.652a1.597 1.597 0 0 0-1.312-.022l-3.547 1.535-11.098 4.804 1.1.019Zm0 0 11.099-4.804 2.627-1.138a1.14 1.14 0 0 1 .935.015l2.588 1.225 1.101.018-3.493-1.652a1.597 1.597 0 0 0-1.312-.022l-3.547 1.535-11.098 4.804 1.1.019Zm-37.231 14.98c.083.084.174.16.271.226a1.583 1.583 0 0 0 1.515.136l24.335-10.534 11.11-4.808 11.099-4.804 2.627-1.138a1.14 1.14 0 0 1 .935.015l2.588 1.225 2.696 1.276 16.301 7.705.005.003 4.444 2.103 13.269 6.274 9.135 4.32c.093.044.191.079.292.102.221.059.453.067.678.025a1.59 1.59 0 0 0 1.299-1.534l.945-56.927a1.59 1.59 0 0 0-1.562-1.614l-99.857-1.657a1.59 1.59 0 0 0-1.615 1.56l-.945 56.927a1.58 1.58 0 0 0 .435 1.118Zm.964-58.038a1.136 1.136 0 0 1 1.154-1.115l99.856 1.658a1.136 1.136 0 0 1 1.116 1.152l-.945 56.927a1.126 1.126 0 0 1-.536.944 1.063 1.063 0 0 1-.484.164 1.124 1.124 0 0 1-.599-.103l-9.537-4.51-13.19-6.236-3.708-1.754-.601-.284-15.697-7.423-2.212-1.046-3.493-1.652a1.597 1.597 0 0 0-1.312-.022l-3.547 1.535-11.098 4.804-10.345 4.48L318.926 7.58a1.136 1.136 0 0 1-1.585-1.058l.945-56.927Zm36.267 43.058 11.099-4.804 2.627-1.138a1.14 1.14 0 0 1 .935.015l2.588 1.225 1.101.018-3.493-1.652a1.597 1.597 0 0 0-1.312-.022l-3.547 1.535-11.098 4.804 1.1.019Zm0 0 11.099-4.804 2.627-1.138a1.14 1.14 0 0 1 .935.015l2.588 1.225 1.101.018-3.493-1.652a1.597 1.597 0 0 0-1.312-.022l-3.547 1.535-11.098 4.804 1.1.019Zm36.86 4.07-.601-.285-.008.494.609-.21Zm-36.86-4.07 11.099-4.804 2.627-1.138a1.14 1.14 0 0 1 .935.015l2.588 1.225 1.101.018-3.493-1.652a1.597 1.597 0 0 0-1.312-.022l-3.547 1.535-11.098 4.804 1.1.019Z"/>
      <path fill="#fff" d="M1630.74 111.474a17.684 17.684 0 0 1 12.91-.079 17.715 17.715 0 0 1 9.53 8.717c.06.135.13.272.19.411l-15.58 6.224c-.16.062-.3.158-.41.282-.12.123-.2.27-.25.43a.146.146 0 0 0-.02.062c-.01.02-.01.041-.01.062-.04.186-.03.378.03.559.06.181.16.344.29.476l-.31.328a1.74 1.74 0 0 1-.38-.556l-5.53 16.132c-.14-.051-.29-.106-.43-.162a17.651 17.651 0 0 1-8.09-6.511 17.762 17.762 0 0 1-3.06-9.931c0-3.541 1.06-7.001 3.04-9.932 1.98-2.932 4.8-5.2 8.08-6.512Z"/>
      <path fill="#3F3D56" d="M1609.77 67.537a.213.213 0 0 1 .16-.006.2.2 0 0 1 .13.114c.03.054.04.117.02.174l-.33.949-5.54 16.132-15.53 45.25a1.138 1.138 0 0 0 .55 1.378l57.47 29.634.51.268c.02.01.04.023.06.039.03.028.05.062.06.101.01.055.01.113-.02.164a.195.195 0 0 1-.05.07c-.03.019-.05.034-.08.043a.232.232 0 0 1-.09.011.164.164 0 0 1-.08-.024l-.08-.037-57.91-29.866a1.62 1.62 0 0 1-.74-.822 1.62 1.62 0 0 1-.03-1.107l15.54-45.264 5.86-17.066a.23.23 0 0 1 .04-.08c.03-.023.05-.042.08-.055Z"/>
      <path fill="#fff" d="m1626.21 90.66-1.3 1.163-4.5 4.012-9.69 8.641-10.83 9.658-19.54 17.42a1.939 1.939 0 0 0-.16 2.724l36.52 41.021c.35.381.82.612 1.33.642.51.029 1.01-.145 1.4-.485l27.69-24.696.48-.422.66-14.575.18-4.097.03-.665.79-17.346-.44-.487-7.33-8.242-11.07-12.432-1.49-1.675a1.935 1.935 0 0 0-1.33-.642c-.51-.03-1.01.144-1.4.483Z"/>
      <path fill="#fff" d="M1607.26 121.545a2.853 2.853 0 0 0-.23 4.007l14.46 16.23 6.97 7.838c.25.279.55.506.89.669a2.827 2.827 0 0 0 4.06-2.39 2.91 2.91 0 0 0-.15-1.096 2.951 2.951 0 0 0-.57-.955l-5.61-6.301-15.81-17.77a2.87 2.87 0 0 0-1.96-.944 2.841 2.841 0 0 0-2.05.712Zm7.87-7.015a2.852 2.852 0 0 0-.23 4.006l2.45 2.75 14.55 16.339 4.43 4.98a2.83 2.83 0 0 0 4 .232c.56-.5.9-1.203.95-1.954a2.858 2.858 0 0 0-.72-2.05l-3.06-3.444-18.37-20.627c-.04-.047-.08-.09-.13-.134a2.814 2.814 0 0 0-1.91-.815 2.846 2.846 0 0 0-1.96.717Zm7.96-7.092c-.56.501-.9 1.204-.94 1.954a2.81 2.81 0 0 0 .71 2.051l6.86 7.711 5.32 5.97 7.39 8.298 1.86 2.091a2.83 2.83 0 0 0 1.65.911c.64.106 1.29-.009 1.86-.326.17-.094.32-.206.47-.334l.18-4.097-.43-.481v-.004l-13.4-15.057-7.53-8.455a2.833 2.833 0 0 0-4-.232Zm-19.67 30.762c-.56.501-.9 1.204-.94 1.955a2.81 2.81 0 0 0 .71 2.051l8.3 9.323a2.833 2.833 0 0 0 4 .231c.56-.5.9-1.202.94-1.953a2.81 2.81 0 0 0-.71-2.051l-2.63-2.95-1.73-1.952-3.94-4.422a2.832 2.832 0 0 0-4-.232Z"/>
      <path fill="#6C63FF" d="m1591.29 92.615 20.37 51.011a1.953 1.953 0 0 0 1.43 1.179c.36.07.74.035 1.08-.102l34.31-13.701.78-17.347.11-2.444.18-3.86a1.66 1.66 0 0 0-.11-.662c-.09-.21-.21-.4-.38-.557l-2.78-2.678-8.72-8.382-8.13-7.812-8.78-8.446-28.28 11.294c-.48.19-.86.56-1.06 1.03-.2.47-.21 1.001-.02 1.477Z"/>
      <path fill="#fff" d="m1619.51 93.57 11.95 29.932c.27.68.8 1.229 1.46 1.531a2.85 2.85 0 0 0 2.12.09c.03-.011.07-.023.1-.037.7-.28 1.26-.825 1.55-1.516.3-.691.31-1.471.03-2.17l-11.95-29.933a2.821 2.821 0 0 0-1.52-1.555 2.81 2.81 0 0 0-2.16-.029c-.7.28-1.26.824-1.56 1.515-.29.692-.3 1.472-.02 2.171Zm9.73-5.867c-.21.638-.2 1.331.06 1.956l11.95 29.933c.28.698.82 1.258 1.51 1.555.69.297 1.47.307 2.17.029.7-.279 1.26-.824 1.56-1.515.29-.692.3-1.473.02-2.171l-8.95-22.418-8.13-7.812c-.07.142-.14.29-.19.443Zm20.14 23.508.17-3.86a1.66 1.66 0 0 0-.11-.662c-.09-.21-.21-.4-.38-.557l-2.78-2.678 3.1 7.757Zm-38.42-6.468c-.43.388-.73.9-.87 1.466-.13.566-.09 1.159.13 1.699l4.63 11.594c.2.506.55.943.99 1.259.44.316.97.497 1.51.522.41.02.81-.047 1.18-.197.7-.28 1.26-.825 1.56-1.516.29-.691.3-1.471.02-2.17l-4.63-11.594c-.17-.424-.43-.8-.78-1.098a2.84 2.84 0 0 0-3.74.035Z"/>
      <path fill="#3F3D56" d="m1637.97 96.094 8.72 8.382 2.06 1.984c.12.112.21.247.27.397.06.15.09.31.08.471l-.13 2.86.41 1.023.17-3.861c.01-.226-.03-.451-.11-.661-.08-.21-.21-.4-.37-.557l-2.79-2.678-8.72-8.382.41 1.022Zm0 0 8.72 8.382 2.06 1.984c.12.112.21.247.27.397.06.15.09.31.08.471l-.13 2.86.41 1.023.17-3.861c.01-.226-.03-.451-.11-.661-.08-.21-.21-.4-.37-.557l-2.79-2.678-8.72-8.382.41 1.022Zm0 0 8.72 8.382 2.06 1.984c.12.112.21.247.27.397.06.15.09.31.08.471l-.13 2.86.41 1.023.17-3.861c.01-.226-.03-.451-.11-.661-.08-.21-.21-.4-.37-.557l-2.79-2.678-8.72-8.382.41 1.022Zm-28.2-28.556a1.95 1.95 0 0 0-.1.337c-.05.26-.04.53.04.784.08.253.23.482.42.666l19.11 18.378 8.73 8.391 8.72 8.382 2.06 1.984c.12.112.21.247.27.397.06.15.09.31.08.471l-.13 2.86-.14 2.98-.81 18.012v.005l-.22 4.912-.67 14.662-.45 10.095c-.01.103 0 .207.02.309a1.587 1.587 0 0 0 2.15 1.241l52.88-21.116c.39-.156.7-.461.87-.848a1.6 1.6 0 0 0 .01-1.216l-37.04-92.748a1.562 1.562 0 0 0-.85-.87 1.576 1.576 0 0 0-1.21-.017l-52.87 21.115c-.39.154-.7.453-.87.834Zm53.91-21.527c.28-.112.59-.108.87.011.27.119.49.343.6.622l37.04 92.749a1.135 1.135 0 0 1-.63 1.474l-52.88 21.115a1.1 1.1 0 0 1-.55.072 1.093 1.093 0 0 1-.52-.202 1.043 1.043 0 0 1-.34-.383 1.086 1.086 0 0 1-.14-.593l.48-10.538.66-14.575.18-4.097.03-.665.79-17.346.11-2.444.17-3.861c.01-.226-.03-.451-.11-.661-.08-.21-.21-.4-.37-.557l-2.79-2.678-8.72-8.382-8.13-7.812-18.99-18.263a1.14 1.14 0 0 1-.3-.476 1.322 1.322 0 0 1-.03-.56c.01-.02.01-.041.02-.061 0-.021.01-.042.02-.062.05-.16.13-.307.24-.43.12-.124.26-.22.41-.282l52.88-21.115Zm-25.71 50.083 8.72 8.382 2.06 1.984c.12.112.21.247.27.397.06.15.09.31.08.471l-.13 2.86.41 1.023.17-3.861c.01-.226-.03-.451-.11-.661-.08-.21-.21-.4-.37-.557l-2.79-2.678-8.72-8.382.41 1.022Zm0 0 8.72 8.382 2.06 1.984c.12.112.21.247.27.397.06.15.09.31.08.471l-.13 2.86.41 1.023.17-3.861c.01-.226-.03-.451-.11-.661-.08-.21-.21-.4-.37-.557l-2.79-2.678-8.72-8.382.41 1.022Zm10.48 35.572.03-.665-.46.183.43.482Zm-10.48-35.572 8.72 8.382 2.06 1.984c.12.112.21.247.27.397.06.15.09.31.08.471l-.13 2.86.41 1.023.17-3.861c.01-.226-.03-.451-.11-.661-.08-.21-.21-.4-.37-.557l-2.79-2.678-8.72-8.382.41 1.022Z"/>
    </g>
  </g>
  <defs>
    <clipPath id="a">
      <path fill="#fff" d="M0 0h1738v832H0z"/>
    </clipPath>
    <filter id="b" width="1802" height="955.348" x="-60" y="-56" color-interpolation-filters="sRGB" filterUnits="userSpaceOnUse">
      <feFlood flood-opacity="0" result="BackgroundImageFix"/>
      <feBlend in="SourceGraphic" in2="BackgroundImageFix" result="shape"/>
      <feGaussianBlur result="effect1_foregroundBlur_324_2314" stdDeviation="2"/>
    </filter>
  </defs>
</svg>
